# MagicaVoxel @ Ephtracy

# group
o 

# material
mtllib Pushkar-0.mtl
usemtl palette

# normals
vn -1 0 0
vn 1 0 0
vn 0 0 1
vn 0 0 -1
vn 0 -1 0
vn 0 1 0

# texcoords
vt 0.857422 0.5
vt 0.908203 0.5
vt 0.966797 0.5
vt 0.970703 0.5
vt 0.974609 0.5
vt 0.978516 0.5

# verts
v -0.5 0 0
v -0.5 0 -0.2
v -0.5 0.1 0.2
v -0.5 0.1 0
v -0.5 0.1 -0.2
v -0.5 0.1 -0.3
v -0.5 0.3 -0.1
v -0.5 0.3 -0.3
v -0.5 0.4 0.2
v -0.5 0.4 -0.1
v -0.4 -0.5 0.1
v -0.4 -0.5 -0.3
v -0.4 -0.2 0.1
v -0.4 -0.2 -0.1
v -0.4 -0.2 -0.3
v -0.4 -0.1 0
v -0.4 -0.1 -0.1
v -0.4 -0.1 -0.2
v -0.4 0 0.2
v -0.4 0 0.1
v -0.4 0 0
v -0.4 0 -0.2
v -0.4 0.1 0.2
v -0.4 0.1 0
v -0.4 0.1 -0.2
v -0.4 0.1 -0.3
v -0.4 0.3 -0.1
v -0.4 0.3 -0.3
v -0.4 0.4 -0.1
v -0.4 0.4 -0.3
v -0.3 -0.1 0.2
v -0.3 -0.1 0.1
v -0.3 0 0.2
v -0.3 0 0.1
v -0.3 0.3 0.3
v -0.3 0.3 0.2
v -0.3 0.4 0.2
v -0.3 0.4 -0.2
v -0.3 0.5 0.3
v -0.3 0.5 -0.2
v -0.1 0.2 0.3
v -0.1 0.2 0.2
v -0.1 0.4 0.2
v -0.1 0.4 -0.1
v -0.1 0.5 0.3
v -0.1 0.5 -0.1
v 0 -0.3 0.2
v 0 -0.3 0.1
v 0 -0.2 0.1
v 0 -0.1 0.2
v 0 -0.1 0.1
v 0.3 0.1 0.2
v 0.3 0.1 0.1
v 0.3 0.2 0.2
v 0.3 0.2 0.1
v 0.3 0.4 0.2
v 0.3 0.4 -0.2
v 0.3 0.5 0.2
v 0.3 0.5 -0.2
v -0.3 0.1 0.2
v -0.3 0.1 0.1
v -0.3 0.2 0.2
v -0.3 0.2 0.1
v -0.2 0.3 0.3
v -0.2 0.3 0.2
v -0.2 0.4 0.2
v -0.2 0.4 -0.2
v -0.2 0.5 0.3
v -0.2 0.5 -0.2
v 0.1 -0.3 0.2
v 0.1 -0.3 0.1
v 0.1 -0.2 0.1
v 0.1 -0.1 0.2
v 0.1 -0.1 0.1
v 0.1 0.2 0.3
v 0.1 0.2 0.2
v 0.1 0.3 0.3
v 0.1 0.3 0.2
v 0.2 0.3 0.3
v 0.2 0.3 0.2
v 0.2 0.4 0.2
v 0.2 0.4 -0.1
v 0.2 0.5 0.3
v 0.2 0.5 -0.1
v 0.4 -0.1 0.2
v 0.4 -0.1 0.1
v 0.4 0 0.2
v 0.4 0 0.1
v 0.5 -0.5 0.1
v 0.5 -0.5 -0.3
v 0.5 -0.2 0.1
v 0.5 -0.2 -0.1
v 0.5 -0.2 -0.3
v 0.5 -0.1 -0.1
v 0.5 -0.1 -0.2
v 0.5 -0.1 -0.3
v 0.5 0 0.2
v 0.5 0 0.1
v 0.5 0 -0.1
v 0.5 0.1 0.2
v 0.5 0.1 0.1
v 0.5 0.1 -0.2
v 0.5 0.3 0.1
v 0.5 0.3 -0.2
v 0.5 0.4 -0.2
v 0.5 0.5 0.2
v 0.5 0.5 -0.2
v 0.6 -0.1 -0.2
v 0.6 -0.1 -0.3
v 0.6 0.1 0.1
v 0.6 0.1 -0.2
v 0.6 0.3 0.1
v 0.6 0.3 -0.2
v 0.6 0.4 -0.2
v 0.6 0.4 -0.3
v -0.3 0.3 0.3
v -0.3 0.5 0.3
v -0.2 0.3 0.3
v -0.2 0.5 0.3
v -0.1 0.2 0.3
v -0.1 0.5 0.3
v 0.1 0.2 0.3
v 0.1 0.3 0.3
v 0.2 0.3 0.3
v 0.2 0.5 0.3
v -0.5 0.1 0.2
v -0.5 0.4 0.2
v -0.4 0 0.2
v -0.4 0.1 0.2
v -0.3 -0.1 0.2
v -0.3 0 0.2
v -0.3 0.1 0.2
v -0.3 0.2 0.2
v -0.3 0.3 0.2
v -0.3 0.4 0.2
v -0.2 0.3 0.2
v -0.2 0.4 0.2
v -0.1 0.2 0.2
v -0.1 0.4 0.2
v 0 -0.3 0.2
v 0 -0.1 0.2
v 0 0 0.2
v 0.1 -0.3 0.2
v 0.1 -0.1 0.2
v 0.1 0 0.2
v 0.1 0.2 0.2
v 0.1 0.3 0.2
v 0.2 0.3 0.2
v 0.2 0.4 0.2
v 0.3 0.1 0.2
v 0.3 0.2 0.2
v 0.3 0.4 0.2
v 0.3 0.5 0.2
v 0.4 -0.1 0.2
v 0.4 0 0.2
v 0.5 0 0.2
v 0.5 0.1 0.2
v 0.5 0.5 0.2
v -0.4 -0.5 0.1
v -0.4 -0.2 0.1
v -0.4 0 0.1
v -0.3 -0.1 0.1
v -0.3 0 0.1
v -0.3 0.1 0.1
v -0.3 0.2 0.1
v 0 -0.3 0.1
v 0 -0.2 0.1
v 0 -0.1 0.1
v 0.1 -0.3 0.1
v 0.1 -0.2 0.1
v 0.1 -0.1 0.1
v 0.3 0.1 0.1
v 0.3 0.2 0.1
v 0.4 -0.1 0.1
v 0.4 0 0.1
v 0.5 -0.5 0.1
v 0.5 -0.2 0.1
v 0.5 0 0.1
v 0.5 0.1 0.1
v 0.5 0.3 0.1
v 0.6 0.1 0.1
v 0.6 0.3 0.1
v -0.5 0 0
v -0.5 0.1 0
v -0.4 0 0
v -0.4 0.1 0
v 0.5 -0.1 -0.2
v 0.5 0.1 -0.2
v 0.5 0.3 -0.2
v 0.5 0.4 -0.2
v 0.6 -0.1 -0.2
v 0.6 0.1 -0.2
v 0.6 0.3 -0.2
v 0.6 0.4 -0.2
v -0.5 0.3 -0.1
v -0.5 0.4 -0.1
v -0.4 0.3 -0.1
v -0.4 0.4 -0.1
v -0.1 0.4 -0.1
v -0.1 0.5 -0.1
v 0.2 0.4 -0.1
v 0.2 0.5 -0.1
v -0.5 0 -0.2
v -0.5 0.1 -0.2
v -0.4 0 -0.2
v -0.4 0.1 -0.2
v -0.3 0.4 -0.2
v -0.3 0.5 -0.2
v -0.2 0.4 -0.2
v -0.2 0.5 -0.2
v 0.3 0.4 -0.2
v 0.3 0.5 -0.2
v 0.5 0.4 -0.2
v 0.5 0.5 -0.2
v -0.5 0.1 -0.3
v -0.5 0.3 -0.3
v -0.4 -0.5 -0.3
v -0.4 -0.2 -0.3
v -0.4 0.1 -0.3
v -0.4 0.3 -0.3
v -0.4 0.4 -0.3
v -0.3 -0.4 -0.3
v -0.3 -0.2 -0.3
v -0.3 0.1 -0.3
v 0.4 -0.4 -0.3
v 0.4 -0.2 -0.3
v 0.4 0.1 -0.3
v 0.5 -0.5 -0.3
v 0.5 -0.2 -0.3
v 0.5 -0.1 -0.3
v 0.5 0.1 -0.3
v 0.5 0.3 -0.3
v 0.6 -0.1 -0.3
v 0.6 0.4 -0.3
v -0.4 -0.5 0.1
v 0.5 -0.5 0.1
v -0.4 -0.5 -0.3
v 0.5 -0.5 -0.3
v 0 -0.3 0.2
v 0.1 -0.3 0.2
v 0 -0.3 0.1
v 0.1 -0.3 0.1
v -0.3 -0.1 0.2
v 0 -0.1 0.2
v 0.1 -0.1 0.2
v 0.4 -0.1 0.2
v -0.3 -0.1 0.1
v 0 -0.1 0.1
v 0.1 -0.1 0.1
v 0.4 -0.1 0.1
v 0.5 -0.1 -0.2
v 0.6 -0.1 -0.2
v 0.5 -0.1 -0.3
v 0.6 -0.1 -0.3
v -0.4 0 0.2
v -0.3 0 0.2
v 0.4 0 0.2
v 0.5 0 0.2
v -0.4 0 0.1
v -0.3 0 0.1
v 0.4 0 0.1
v 0.5 0 0.1
v -0.5 0 0
v -0.4 0 0
v -0.5 0 -0.2
v -0.4 0 -0.2
v -0.5 0.1 0.2
v -0.4 0.1 0.2
v 0.5 0.1 0.1
v 0.6 0.1 0.1
v -0.5 0.1 0
v -0.4 0.1 0
v -0.5 0.1 -0.2
v -0.4 0.1 -0.2
v 0.5 0.1 -0.2
v 0.6 0.1 -0.2
v -0.5 0.1 -0.3
v -0.4 0.1 -0.3
v -0.1 0.2 0.3
v 0.1 0.2 0.3
v -0.3 0.2 0.2
v -0.1 0.2 0.2
v 0.1 0.2 0.2
v 0.3 0.2 0.2
v -0.3 0.2 0.1
v 0.3 0.2 0.1
v -0.3 0.3 0.3
v -0.2 0.3 0.3
v 0.1 0.3 0.3
v 0.2 0.3 0.3
v -0.3 0.3 0.2
v -0.2 0.3 0.2
v 0.1 0.3 0.2
v 0.2 0.3 0.2
v -0.3 0.1 0.2
v 0.3 0.1 0.2
v -0.3 0.1 0.1
v 0.3 0.1 0.1
v 0.5 0.3 0.1
v 0.6 0.3 0.1
v -0.5 0.3 -0.1
v -0.4 0.3 -0.1
v 0.5 0.3 -0.2
v 0.6 0.3 -0.2
v -0.5 0.3 -0.3
v -0.4 0.3 -0.3
v -0.5 0.4 0.2
v -0.3 0.4 0.2
v -0.2 0.4 0.2
v -0.1 0.4 0.2
v 0.2 0.4 0.2
v 0.3 0.4 0.2
v -0.5 0.4 -0.1
v -0.4 0.4 -0.1
v -0.1 0.4 -0.1
v 0.2 0.4 -0.1
v -0.3 0.4 -0.2
v -0.2 0.4 -0.2
v 0.3 0.4 -0.2
v 0.5 0.4 -0.2
v 0.6 0.4 -0.2
v -0.4 0.4 -0.3
v 0.6 0.4 -0.3
v -0.3 0.5 0.3
v -0.2 0.5 0.3
v -0.1 0.5 0.3
v 0.2 0.5 0.3
v 0.3 0.5 0.2
v 0.5 0.5 0.2
v -0.1 0.5 -0.1
v 0.2 0.5 -0.1
v -0.3 0.5 -0.2
v -0.2 0.5 -0.2
v 0.3 0.5 -0.2
v 0.5 0.5 -0.2

# faces
f 4/1/1 2/1/1 1/1/1
f 5/1/1 2/1/1 4/1/1
f 7/1/1 4/1/1 3/1/1
f 7/1/1 6/1/1 5/1/1
f 7/1/1 5/1/1 4/1/1
f 8/1/1 6/1/1 7/1/1
f 9/1/1 7/1/1 3/1/1
f 10/1/1 7/1/1 9/1/1
f 13/2/1 12/2/1 11/2/1
f 14/2/1 12/2/1 13/2/1
f 15/2/1 12/2/1 14/2/1
f 16/4/1 14/4/1 13/4/1
f 17/1/1 15/1/1 14/1/1
f 17/4/1 14/4/1 16/4/1
f 18/1/1 15/1/1 17/1/1
f 20/4/1 16/4/1 13/4/1
f 21/3/1 17/3/1 16/3/1
f 21/3/1 18/3/1 17/3/1
f 21/4/1 16/4/1 20/4/1
f 22/1/1 15/1/1 18/1/1
f 22/3/1 18/3/1 21/3/1
f 23/3/1 21/3/1 20/3/1
f 23/3/1 20/3/1 19/3/1
f 24/3/1 21/3/1 23/3/1
f 25/1/1 15/1/1 22/1/1
f 26/1/1 15/1/1 25/1/1
f 29/1/1 28/1/1 27/1/1
f 30/1/1 28/1/1 29/1/1
f 33/3/1 32/3/1 31/3/1
f 34/3/1 32/3/1 33/3/1
f 37/1/1 36/1/1 35/1/1
f 39/1/1 37/1/1 35/1/1
f 39/1/1 38/1/1 37/1/1
f 40/1/1 38/1/1 39/1/1
f 43/1/1 42/1/1 41/1/1
f 45/1/1 43/1/1 41/1/1
f 45/1/1 44/1/1 43/1/1
f 46/1/1 44/1/1 45/1/1
f 49/5/1 48/5/1 47/5/1
f 50/5/1 49/5/1 47/5/1
f 51/5/1 49/5/1 50/5/1
f 54/1/1 53/1/1 52/1/1
f 55/1/1 53/1/1 54/1/1
f 58/1/1 57/1/1 56/1/1
f 59/1/1 57/1/1 58/1/1
f 60/1/2 61/1/2 62/1/2
f 62/1/2 61/1/2 63/1/2
f 64/1/2 65/1/2 66/1/2
f 64/1/2 66/1/2 68/1/2
f 66/1/2 67/1/2 68/1/2
f 68/1/2 67/1/2 69/1/2
f 70/5/2 71/5/2 72/5/2
f 70/5/2 72/5/2 73/5/2
f 73/5/2 72/5/2 74/5/2
f 75/1/2 76/1/2 77/1/2
f 77/1/2 76/1/2 78/1/2
f 79/1/2 80/1/2 81/1/2
f 79/1/2 81/1/2 83/1/2
f 81/1/2 82/1/2 83/1/2
f 83/1/2 82/1/2 84/1/2
f 85/3/2 86/3/2 87/3/2
f 87/3/2 86/3/2 88/3/2
f 89/2/2 90/2/2 91/2/2
f 91/2/2 90/2/2 92/2/2
f 92/2/2 90/2/2 93/2/2
f 91/4/2 92/4/2 94/4/2
f 92/1/2 93/1/2 94/1/2
f 94/1/2 93/1/2 95/1/2
f 95/1/2 93/1/2 96/1/2
f 91/4/2 94/4/2 98/4/2
f 94/3/2 95/3/2 99/3/2
f 98/4/2 94/4/2 99/4/2
f 97/3/2 98/3/2 100/3/2
f 98/3/2 99/3/2 100/3/2
f 100/3/2 99/3/2 101/3/2
f 99/3/2 95/3/2 102/3/2
f 101/3/2 99/3/2 102/3/2
f 100/1/2 101/1/2 103/1/2
f 103/1/2 104/1/2 105/1/2
f 100/1/2 103/1/2 106/1/2
f 103/1/2 105/1/2 106/1/2
f 106/1/2 105/1/2 107/1/2
f 108/1/2 109/1/2 111/1/2
f 110/1/2 111/1/2 112/1/2
f 111/1/2 109/1/2 113/1/2
f 112/1/2 111/1/2 113/1/2
f 113/1/2 109/1/2 114/1/2
f 114/1/2 109/1/2 115/1/2
f 118/1/3 117/1/3 116/1/3
f 119/1/3 117/1/3 118/1/3
f 122/1/3 121/1/3 120/1/3
f 123/1/3 121/1/3 122/1/3
f 124/1/3 121/1/3 123/1/3
f 125/1/3 121/1/3 124/1/3
f 129/1/3 127/1/3 126/1/3
f 131/3/3 129/3/3 128/3/3
f 132/1/3 127/1/3 129/1/3
f 132/3/3 129/3/3 131/3/3
f 133/1/3 127/1/3 132/1/3
f 134/1/3 127/1/3 133/1/3
f 135/1/3 127/1/3 134/1/3
f 136/1/3 134/1/3 133/1/3
f 138/1/3 136/1/3 133/1/3
f 138/1/3 137/1/3 136/1/3
f 139/1/3 137/1/3 138/1/3
f 141/3/3 131/3/3 130/3/3
f 141/3/3 132/3/3 131/3/3
f 142/3/3 132/3/3 141/3/3
f 143/5/3 141/5/3 140/5/3
f 143/5/3 142/5/3 141/5/3
f 144/5/3 142/5/3 143/5/3
f 145/3/3 132/3/3 142/3/3
f 145/5/3 142/5/3 144/5/3
f 148/1/3 147/1/3 146/1/3
f 150/3/3 132/3/3 145/3/3
f 150/3/3 145/3/3 144/3/3
f 151/1/3 149/1/3 148/1/3
f 151/1/3 148/1/3 146/1/3
f 152/1/3 149/1/3 151/1/3
f 154/3/3 150/3/3 144/3/3
f 155/3/3 150/3/3 154/3/3
f 156/3/3 150/3/3 155/3/3
f 157/1/3 152/1/3 151/1/3
f 157/3/3 150/3/3 156/3/3
f 157/1/3 151/1/3 150/1/3
f 157/1/3 153/1/3 152/1/3
f 158/1/3 153/1/3 157/1/3
f 162/4/3 161/4/3 160/4/3
f 163/4/3 161/4/3 162/4/3
f 166/2/3 160/2/3 159/2/3
f 167/4/3 162/4/3 160/4/3
f 167/2/3 160/2/3 166/2/3
f 168/4/3 162/4/3 167/4/3
f 169/2/3 166/2/3 159/2/3
f 172/4/3 165/4/3 164/4/3
f 173/4/3 165/4/3 172/4/3
f 174/4/3 171/4/3 170/4/3
f 176/2/3 170/2/3 169/2/3
f 176/2/3 169/2/3 159/2/3
f 177/4/3 175/4/3 174/4/3
f 177/2/3 170/2/3 176/2/3
f 177/4/3 174/4/3 170/4/3
f 178/4/3 175/4/3 177/4/3
f 181/1/3 180/1/3 179/1/3
f 182/1/3 180/1/3 181/1/3
f 185/1/3 184/1/3 183/1/3
f 186/1/3 184/1/3 185/1/3
f 191/1/3 188/1/3 187/1/3
f 192/1/3 188/1/3 191/1/3
f 193/1/3 190/1/3 189/1/3
f 194/1/3 190/1/3 193/1/3
f 195/1/4 196/1/4 197/1/4
f 197/1/4 196/1/4 198/1/4
f 199/1/4 200/1/4 201/1/4
f 201/1/4 200/1/4 202/1/4
f 203/1/4 204/1/4 205/1/4
f 205/1/4 204/1/4 206/1/4
f 207/1/4 208/1/4 209/1/4
f 209/1/4 208/1/4 210/1/4
f 211/1/4 212/1/4 213/1/4
f 213/1/4 212/1/4 214/1/4
f 215/1/4 216/1/4 219/1/4
f 219/1/4 216/1/4 220/1/4
f 217/2/4 218/2/4 222/2/4
f 218/1/4 219/1/4 223/1/4
f 222/2/4 218/2/4 223/2/4
f 219/4/4 220/4/4 224/4/4
f 223/1/4 219/1/4 224/1/4
f 217/2/4 222/2/4 225/2/4
f 222/4/4 223/4/4 225/4/4
f 223/4/4 224/4/4 225/4/4
f 225/4/4 224/4/4 226/4/4
f 224/4/4 220/4/4 227/4/4
f 226/4/4 224/4/4 227/4/4
f 225/2/4 226/2/4 228/2/4
f 217/2/4 225/2/4 228/2/4
f 226/1/4 227/1/4 229/1/4
f 228/2/4 226/2/4 229/2/4
f 229/1/4 227/1/4 230/1/4
f 227/4/4 220/4/4 231/4/4
f 230/1/4 227/1/4 231/1/4
f 220/1/4 221/1/4 232/1/4
f 231/4/4 220/4/4 232/4/4
f 230/1/4 231/1/4 233/1/4
f 231/1/4 232/1/4 233/1/4
f 232/1/4 221/1/4 234/1/4
f 233/1/4 232/1/4 234/1/4
f 237/2/5 236/2/5 235/2/5
f 238/2/5 236/2/5 237/2/5
f 241/5/5 240/5/5 239/5/5
f 242/5/5 240/5/5 241/5/5
f 247/3/5 244/3/5 243/3/5
f 248/3/5 244/3/5 247/3/5
f 249/3/5 246/3/5 245/3/5
f 250/3/5 246/3/5 249/3/5
f 253/1/5 252/1/5 251/1/5
f 254/1/5 252/1/5 253/1/5
f 259/3/5 256/3/5 255/3/5
f 260/3/5 256/3/5 259/3/5
f 261/3/5 258/3/5 257/3/5
f 262/3/5 258/3/5 261/3/5
f 265/1/5 264/1/5 263/1/5
f 266/1/5 264/1/5 265/1/5
f 271/1/5 268/1/5 267/1/5
f 272/1/5 268/1/5 271/1/5
f 275/1/5 270/1/5 269/1/5
f 276/1/5 270/1/5 275/1/5
f 277/1/5 274/1/5 273/1/5
f 278/1/5 274/1/5 277/1/5
f 282/1/5 280/1/5 279/1/5
f 283/1/5 280/1/5 282/1/5
f 285/1/5 282/1/5 281/1/5
f 285/1/5 284/1/5 283/1/5
f 285/1/5 283/1/5 282/1/5
f 286/1/5 284/1/5 285/1/5
f 291/1/5 288/1/5 287/1/5
f 292/1/5 288/1/5 291/1/5
f 293/1/5 290/1/5 289/1/5
f 294/1/5 290/1/5 293/1/5
f 295/3/6 296/3/6 297/3/6
f 297/3/6 296/3/6 298/3/6
f 299/1/6 300/1/6 303/1/6
f 303/1/6 300/1/6 304/1/6
f 301/1/6 302/1/6 305/1/6
f 305/1/6 302/1/6 306/1/6
f 307/1/6 308/1/6 313/1/6
f 313/1/6 308/1/6 314/1/6
f 309/1/6 310/1/6 315/1/6
f 311/1/6 312/1/6 316/1/6
f 314/1/6 308/1/6 317/1/6
f 309/1/6 315/1/6 318/1/6
f 315/1/6 316/1/6 318/1/6
f 316/1/6 312/1/6 319/1/6
f 318/1/6 316/1/6 319/1/6
f 314/1/6 317/1/6 322/1/6
f 320/1/6 321/1/6 322/1/6
f 319/1/6 320/1/6 322/1/6
f 318/1/6 319/1/6 322/1/6
f 317/1/6 318/1/6 322/1/6
f 322/1/6 321/1/6 323/1/6
f 326/1/6 327/1/6 330/1/6
f 330/1/6 327/1/6 331/1/6
f 324/1/6 325/1/6 332/1/6
f 332/1/6 325/1/6 333/1/6
f 328/1/6 329/1/6 334/1/6
f 334/1/6 329/1/6 335/1/6
