# MagicaVoxel @ Ephtracy

# group
o 

# material
mtllib Technar-0.mtl
usemtl palette

# normals
vn -1 0 0
vn 1 0 0
vn 0 0 1
vn 0 0 -1
vn 0 -1 0
vn 0 1 0

# texcoords
vt 0.626953 0.5
vt 0.720703 0.5
vt 0.908203 0.5
vt 0.947266 0.5
vt 0.966797 0.5
vt 0.970703 0.5
vt 0.978516 0.5

# verts
v -0.5 -0.2 -0.1
v -0.5 -0.2 -0.4
v -0.5 0.1 -0.1
v -0.5 0.1 -0.4
v -0.5 0.3 -0.1
v -0.5 0.3 -0.3
v -0.5 0.5 -0.1
v -0.5 0.5 -0.3
v -0.4 -0.3 -0.3
v -0.4 -0.3 -0.4
v -0.4 -0.2 -0.3
v -0.4 -0.2 -0.4
v -0.4 0.1 -0.1
v -0.4 0.1 -0.4
v -0.4 0.3 -0.1
v -0.4 0.3 -0.3
v -0.4 0.5 -0.3
v -0.4 0.5 -0.4
v -0.3 -0.4 -0.3
v -0.3 -0.4 -0.4
v -0.3 -0.3 -0.3
v -0.3 -0.3 -0.4
v -0.3 -0.2 0
v -0.3 -0.2 -0.1
v -0.3 0 0
v -0.3 0 -0.1
v -0.3 0.5 -0.1
v -0.3 0.5 -0.4
v -0.3 0.6 -0.1
v -0.3 0.6 -0.3
v -0.3 0.7 -0.3
v -0.3 0.7 -0.4
v -0.2 -0.7 -0.3
v -0.2 -0.7 -0.4
v -0.2 -0.4 -0.3
v -0.2 -0.4 -0.4
v -0.2 -0.3 0
v -0.2 -0.3 -0.1
v -0.2 -0.3 -0.3
v -0.2 -0.2 0
v -0.2 -0.2 -0.1
v -0.2 -0.2 -0.3
v -0.2 0.1 0
v -0.2 0.1 -0.1
v -0.2 0.2 0
v -0.2 0.2 -0.1
v -0.2 0.3 0
v -0.2 0.3 -0.1
v -0.1 0.7 -0.3
v -0.1 0.7 -0.4
v -0.1 0.8 -0.3
v -0.1 0.8 -0.4
v 0 0 0.4
v 0 0 0
v 0 0 -0.1
v 0 0.1 0.4
v 0 0.1 0
v 0 0.1 -0.1
v 0.1 0.2 0
v 0.1 0.2 -0.1
v 0.1 0.3 0
v 0.1 0.3 -0.1
v 0.2 -0.7 -0.3
v 0.2 -0.7 -0.4
v 0.2 -0.3 -0.3
v 0.2 -0.3 -0.4
v 0.3 -0.2 0
v 0.3 -0.2 -0.1
v 0.3 -0.1 0
v 0.3 -0.1 -0.1
v -0.2 -0.2 0
v -0.2 -0.2 -0.1
v -0.2 -0.1 0
v -0.2 -0.1 -0.1
v -0.1 -0.7 -0.3
v -0.1 -0.7 -0.4
v -0.1 -0.3 -0.3
v -0.1 -0.3 -0.4
v 0 0.2 0
v 0 0.2 -0.1
v 0 0.3 0
v 0 0.3 -0.1
v 0.1 0 0.4
v 0.1 0 0
v 0.1 0 -0.1
v 0.1 0.1 0.4
v 0.1 0.1 0
v 0.1 0.1 -0.1
v 0.2 0.7 -0.3
v 0.2 0.7 -0.4
v 0.2 0.8 -0.3
v 0.2 0.8 -0.4
v 0.3 -0.7 -0.3
v 0.3 -0.7 -0.4
v 0.3 -0.4 -0.3
v 0.3 -0.4 -0.4
v 0.3 -0.3 0
v 0.3 -0.3 -0.1
v 0.3 -0.3 -0.3
v 0.3 -0.2 0
v 0.3 -0.2 -0.1
v 0.3 -0.2 -0.3
v 0.3 0.1 0
v 0.3 0.1 -0.1
v 0.3 0.2 0
v 0.3 0.2 -0.1
v 0.3 0.3 0
v 0.3 0.3 -0.1
v 0.4 -0.4 -0.3
v 0.4 -0.4 -0.4
v 0.4 -0.3 -0.3
v 0.4 -0.3 -0.4
v 0.4 -0.2 0
v 0.4 -0.2 -0.1
v 0.4 0 0
v 0.4 0 -0.1
v 0.4 0.5 -0.1
v 0.4 0.5 -0.4
v 0.4 0.6 -0.1
v 0.4 0.6 -0.3
v 0.4 0.7 -0.3
v 0.4 0.7 -0.4
v 0.5 -0.3 -0.3
v 0.5 -0.3 -0.4
v 0.5 -0.2 -0.3
v 0.5 -0.2 -0.4
v 0.5 0.1 -0.1
v 0.5 0.1 -0.4
v 0.5 0.3 -0.1
v 0.5 0.3 -0.3
v 0.5 0.5 -0.3
v 0.5 0.5 -0.4
v 0.6 -0.2 -0.1
v 0.6 -0.2 -0.4
v 0.6 0.1 -0.1
v 0.6 0.1 -0.4
v 0.6 0.3 -0.1
v 0.6 0.3 -0.3
v 0.6 0.5 -0.1
v 0.6 0.5 -0.3
v 0 0 0.4
v 0 0.1 0.4
v 0.1 0 0.4
v 0.1 0.1 0.4
v -0.3 -0.2 0
v -0.3 0 0
v -0.2 -0.3 0
v -0.2 -0.2 0
v -0.2 -0.1 0
v -0.2 0.1 0
v -0.2 0.2 0
v -0.2 0.3 0
v -0.1 0.1 0
v -0.1 0.2 0
v 0 0 0
v 0 0.1 0
v 0 0.2 0
v 0 0.3 0
v 0.1 0 0
v 0.1 0.1 0
v 0.1 0.2 0
v 0.1 0.3 0
v 0.2 0.1 0
v 0.2 0.2 0
v 0.3 -0.3 0
v 0.3 -0.2 0
v 0.3 -0.1 0
v 0.3 0.1 0
v 0.3 0.2 0
v 0.3 0.3 0
v 0.4 -0.2 0
v 0.4 0 0
v -0.5 -0.2 -0.1
v -0.5 0.1 -0.1
v -0.5 0.3 -0.1
v -0.5 0.5 -0.1
v -0.4 0.1 -0.1
v -0.4 0.3 -0.1
v -0.3 -0.2 -0.1
v -0.3 0 -0.1
v -0.3 0.5 -0.1
v -0.3 0.6 -0.1
v -0.2 -0.2 -0.1
v -0.2 -0.1 -0.1
v -0.2 0.1 -0.1
v -0.2 0.2 -0.1
v -0.2 0.3 -0.1
v -0.2 0.4 -0.1
v -0.2 0.5 -0.1
v -0.2 0.6 -0.1
v -0.1 0.1 -0.1
v -0.1 0.3 -0.1
v -0.1 0.4 -0.1
v -0.1 0.5 -0.1
v 0 0 -0.1
v 0 0.1 -0.1
v 0 0.2 -0.1
v 0 0.3 -0.1
v 0 0.4 -0.1
v 0.1 0 -0.1
v 0.1 0.1 -0.1
v 0.1 0.2 -0.1
v 0.1 0.3 -0.1
v 0.1 0.4 -0.1
v 0.2 0.1 -0.1
v 0.2 0.3 -0.1
v 0.2 0.4 -0.1
v 0.2 0.5 -0.1
v 0.3 -0.2 -0.1
v 0.3 -0.1 -0.1
v 0.3 0.1 -0.1
v 0.3 0.2 -0.1
v 0.3 0.3 -0.1
v 0.3 0.4 -0.1
v 0.3 0.5 -0.1
v 0.3 0.6 -0.1
v 0.4 -0.2 -0.1
v 0.4 0 -0.1
v 0.4 0.5 -0.1
v 0.4 0.6 -0.1
v 0.5 0.1 -0.1
v 0.5 0.3 -0.1
v 0.6 -0.2 -0.1
v 0.6 0.1 -0.1
v 0.6 0.3 -0.1
v 0.6 0.5 -0.1
v -0.4 -0.3 -0.3
v -0.4 -0.2 -0.3
v -0.3 -0.4 -0.3
v -0.3 -0.3 -0.3
v -0.3 -0.2 -0.3
v -0.3 0.6 -0.3
v -0.3 0.7 -0.3
v -0.2 -0.7 -0.3
v -0.2 -0.4 -0.3
v -0.2 -0.3 -0.3
v -0.2 -0.2 -0.3
v -0.2 0.6 -0.3
v -0.1 -0.7 -0.3
v -0.1 -0.3 -0.3
v -0.1 0.7 -0.3
v -0.1 0.8 -0.3
v 0.2 -0.7 -0.3
v 0.2 -0.3 -0.3
v 0.2 0.7 -0.3
v 0.2 0.8 -0.3
v 0.3 -0.7 -0.3
v 0.3 -0.4 -0.3
v 0.3 -0.3 -0.3
v 0.3 -0.2 -0.3
v 0.3 0.6 -0.3
v 0.4 -0.4 -0.3
v 0.4 -0.3 -0.3
v 0.4 -0.2 -0.3
v 0.4 0.6 -0.3
v 0.4 0.7 -0.3
v 0.5 -0.3 -0.3
v 0.5 -0.2 -0.3
v -0.5 0.3 -0.3
v -0.5 0.5 -0.3
v -0.4 0.3 -0.3
v -0.4 0.5 -0.3
v 0.5 0.3 -0.3
v 0.5 0.5 -0.3
v 0.6 0.3 -0.3
v 0.6 0.5 -0.3
v -0.5 -0.2 -0.4
v -0.5 0.1 -0.4
v -0.4 -0.3 -0.4
v -0.4 -0.2 -0.4
v -0.4 0.1 -0.4
v -0.4 0.5 -0.4
v -0.3 -0.4 -0.4
v -0.3 -0.3 -0.4
v -0.3 0.5 -0.4
v -0.3 0.7 -0.4
v -0.2 -0.7 -0.4
v -0.2 -0.4 -0.4
v -0.2 -0.3 -0.4
v -0.2 -0.2 -0.4
v -0.1 -0.7 -0.4
v -0.1 -0.3 -0.4
v -0.1 0.7 -0.4
v -0.1 0.8 -0.4
v 0.2 -0.7 -0.4
v 0.2 -0.3 -0.4
v 0.2 0.7 -0.4
v 0.2 0.8 -0.4
v 0.3 -0.7 -0.4
v 0.3 -0.4 -0.4
v 0.3 -0.3 -0.4
v 0.3 -0.2 -0.4
v 0.4 -0.4 -0.4
v 0.4 -0.3 -0.4
v 0.4 0.5 -0.4
v 0.4 0.7 -0.4
v 0.5 -0.3 -0.4
v 0.5 -0.2 -0.4
v 0.5 0.1 -0.4
v 0.5 0.5 -0.4
v 0.6 -0.2 -0.4
v 0.6 0.1 -0.4
v -0.2 -0.7 -0.3
v -0.1 -0.7 -0.3
v 0.2 -0.7 -0.3
v 0.3 -0.7 -0.3
v -0.2 -0.7 -0.4
v -0.1 -0.7 -0.4
v 0.2 -0.7 -0.4
v 0.3 -0.7 -0.4
v -0.3 -0.4 -0.3
v -0.2 -0.4 -0.3
v 0.3 -0.4 -0.3
v 0.4 -0.4 -0.3
v -0.3 -0.4 -0.4
v -0.2 -0.4 -0.4
v 0.3 -0.4 -0.4
v 0.4 -0.4 -0.4
v -0.2 -0.3 0
v 0.3 -0.3 0
v -0.2 -0.3 -0.1
v 0.3 -0.3 -0.1
v -0.4 -0.3 -0.3
v -0.3 -0.3 -0.3
v -0.2 -0.3 -0.3
v -0.1 -0.3 -0.3
v 0.2 -0.3 -0.3
v 0.3 -0.3 -0.3
v 0.4 -0.3 -0.3
v 0.5 -0.3 -0.3
v -0.4 -0.3 -0.4
v -0.3 -0.3 -0.4
v -0.1 -0.3 -0.4
v 0.2 -0.3 -0.4
v 0.4 -0.3 -0.4
v 0.5 -0.3 -0.4
v -0.3 -0.2 0
v -0.2 -0.2 0
v 0.3 -0.2 0
v 0.4 -0.2 0
v -0.5 -0.2 -0.1
v -0.3 -0.2 -0.1
v -0.2 -0.2 -0.1
v 0.3 -0.2 -0.1
v 0.4 -0.2 -0.1
v 0.6 -0.2 -0.1
v -0.4 -0.2 -0.3
v -0.3 -0.2 -0.3
v -0.2 -0.2 -0.3
v 0.3 -0.2 -0.3
v 0.4 -0.2 -0.3
v 0.5 -0.2 -0.3
v -0.5 -0.2 -0.4
v -0.4 -0.2 -0.4
v 0.5 -0.2 -0.4
v 0.6 -0.2 -0.4
v -0.2 -0.1 0
v 0.3 -0.1 0
v -0.2 -0.1 -0.1
v 0.3 -0.1 -0.1
v 0 0 0.4
v 0.1 0 0.4
v 0 0 0
v 0.1 0 0
v -0.2 0.1 0
v -0.1 0.1 0
v 0 0.1 0
v 0.1 0.1 0
v 0.2 0.1 0
v 0.3 0.1 0
v -0.2 0.1 -0.1
v -0.1 0.1 -0.1
v 0 0.1 -0.1
v 0.1 0.1 -0.1
v 0.2 0.1 -0.1
v 0.3 0.1 -0.1
v -0.5 0.3 -0.1
v -0.4 0.3 -0.1
v 0.5 0.3 -0.1
v 0.6 0.3 -0.1
v -0.5 0.3 -0.3
v -0.4 0.3 -0.3
v 0.5 0.3 -0.3
v 0.6 0.3 -0.3
v -0.2 -0.2 0
v 0.3 -0.2 0
v -0.2 -0.2 -0.1
v 0.3 -0.2 -0.1
v -0.3 0 0
v 0 0 0
v 0.1 0 0
v 0.4 0 0
v -0.3 0 -0.1
v 0 0 -0.1
v 0.1 0 -0.1
v 0.4 0 -0.1
v 0 0.1 0.4
v 0.1 0.1 0.4
v 0 0.1 0
v 0.1 0.1 0
v -0.5 0.1 -0.1
v -0.4 0.1 -0.1
v 0.5 0.1 -0.1
v 0.6 0.1 -0.1
v -0.5 0.1 -0.4
v -0.4 0.1 -0.4
v 0.5 0.1 -0.4
v 0.6 0.1 -0.4
v 0 0.2 0
v 0.1 0.2 0
v 0 0.2 -0.1
v 0.1 0.2 -0.1
v -0.2 0.3 0
v 0 0.3 0
v 0.1 0.3 0
v 0.3 0.3 0
v -0.2 0.3 -0.1
v -0.1 0.3 -0.1
v 0 0.3 -0.1
v 0.1 0.3 -0.1
v 0.2 0.3 -0.1
v 0.3 0.3 -0.1
v -0.5 0.5 -0.1
v -0.3 0.5 -0.1
v 0.4 0.5 -0.1
v 0.6 0.5 -0.1
v -0.5 0.5 -0.3
v -0.4 0.5 -0.3
v 0.5 0.5 -0.3
v 0.6 0.5 -0.3
v -0.4 0.5 -0.4
v -0.3 0.5 -0.4
v 0.4 0.5 -0.4
v 0.5 0.5 -0.4
v -0.3 0.6 -0.1
v -0.2 0.6 -0.1
v 0.3 0.6 -0.1
v 0.4 0.6 -0.1
v -0.3 0.6 -0.3
v -0.2 0.6 -0.3
v 0.3 0.6 -0.3
v 0.4 0.6 -0.3
v -0.3 0.7 -0.3
v -0.1 0.7 -0.3
v 0.2 0.7 -0.3
v 0.4 0.7 -0.3
v -0.3 0.7 -0.4
v -0.1 0.7 -0.4
v 0.2 0.7 -0.4
v 0.4 0.7 -0.4
v -0.1 0.8 -0.3
v 0.2 0.8 -0.3
v -0.1 0.8 -0.4
v 0.2 0.8 -0.4

# faces
f 3/5/1 2/5/1 1/5/1
f 4/5/1 2/5/1 3/5/1
f 7/5/1 6/5/1 5/5/1
f 8/5/1 6/5/1 7/5/1
f 11/1/1 10/1/1 9/1/1
f 12/1/1 10/1/1 11/1/1
f 15/5/1 14/5/1 13/5/1
f 16/5/1 14/5/1 15/5/1
f 17/5/1 14/5/1 16/5/1
f 18/5/1 14/5/1 17/5/1
f 21/1/1 20/1/1 19/1/1
f 22/1/1 20/1/1 21/1/1
f 25/2/1 24/2/1 23/2/1
f 26/2/1 24/2/1 25/2/1
f 29/5/1 28/5/1 27/5/1
f 30/5/1 28/5/1 29/5/1
f 31/5/1 28/5/1 30/5/1
f 32/5/1 28/5/1 31/5/1
f 35/1/1 34/1/1 33/1/1
f 36/1/1 34/1/1 35/1/1
f 40/2/1 38/2/1 37/2/1
f 41/6/1 39/6/1 38/6/1
f 41/2/1 38/2/1 40/2/1
f 42/6/1 39/6/1 41/6/1
f 45/5/1 44/5/1 43/5/1
f 46/5/1 44/5/1 45/5/1
f 47/7/1 46/7/1 45/7/1
f 48/7/1 46/7/1 47/7/1
f 51/5/1 50/5/1 49/5/1
f 52/5/1 50/5/1 51/5/1
f 56/4/1 54/4/1 53/4/1
f 56/4/1 55/4/1 54/4/1
f 57/4/1 55/4/1 56/4/1
f 58/4/1 55/4/1 57/4/1
f 61/7/1 60/7/1 59/7/1
f 62/7/1 60/7/1 61/7/1
f 65/1/1 64/1/1 63/1/1
f 66/1/1 64/1/1 65/1/1
f 69/2/1 68/2/1 67/2/1
f 70/2/1 68/2/1 69/2/1
f 71/2/2 72/2/2 73/2/2
f 73/2/2 72/2/2 74/2/2
f 75/1/2 76/1/2 77/1/2
f 77/1/2 76/1/2 78/1/2
f 79/7/2 80/7/2 81/7/2
f 81/7/2 80/7/2 82/7/2
f 83/4/2 84/4/2 86/4/2
f 84/4/2 85/4/2 86/4/2
f 86/4/2 85/4/2 87/4/2
f 87/4/2 85/4/2 88/4/2
f 89/5/2 90/5/2 91/5/2
f 91/5/2 90/5/2 92/5/2
f 93/1/2 94/1/2 95/1/2
f 95/1/2 94/1/2 96/1/2
f 97/2/2 98/2/2 100/2/2
f 98/6/2 99/6/2 101/6/2
f 100/2/2 98/2/2 101/2/2
f 101/6/2 99/6/2 102/6/2
f 103/5/2 104/5/2 105/5/2
f 105/5/2 104/5/2 106/5/2
f 105/7/2 106/7/2 107/7/2
f 107/7/2 106/7/2 108/7/2
f 109/1/2 110/1/2 111/1/2
f 111/1/2 110/1/2 112/1/2
f 113/2/2 114/2/2 115/2/2
f 115/2/2 114/2/2 116/2/2
f 117/5/2 118/5/2 119/5/2
f 119/5/2 118/5/2 120/5/2
f 120/5/2 118/5/2 121/5/2
f 121/5/2 118/5/2 122/5/2
f 123/1/2 124/1/2 125/1/2
f 125/1/2 124/1/2 126/1/2
f 127/5/2 128/5/2 129/5/2
f 129/5/2 128/5/2 130/5/2
f 130/5/2 128/5/2 131/5/2
f 131/5/2 128/5/2 132/5/2
f 133/5/2 134/5/2 135/5/2
f 135/5/2 134/5/2 136/5/2
f 137/5/2 138/5/2 139/5/2
f 139/5/2 138/5/2 140/5/2
f 143/4/3 142/4/3 141/4/3
f 144/4/3 142/4/3 143/4/3
f 148/2/3 146/2/3 145/2/3
f 149/2/3 146/2/3 148/2/3
f 153/5/3 151/5/3 150/5/3
f 154/7/3 152/7/3 151/7/3
f 154/5/3 151/5/3 153/5/3
f 155/2/3 146/2/3 149/2/3
f 156/7/3 154/7/3 153/7/3
f 157/7/3 152/7/3 154/7/3
f 157/7/3 154/7/3 156/7/3
f 158/7/3 152/7/3 157/7/3
f 159/2/3 155/2/3 149/2/3
f 160/4/3 157/4/3 156/4/3
f 161/4/3 157/4/3 160/4/3
f 163/7/3 161/7/3 160/7/3
f 163/7/3 162/7/3 161/7/3
f 164/7/3 162/7/3 163/7/3
f 165/2/3 148/2/3 147/2/3
f 166/2/3 148/2/3 165/2/3
f 167/2/3 159/2/3 149/2/3
f 168/5/3 164/5/3 163/5/3
f 169/7/3 162/7/3 164/7/3
f 169/5/3 164/5/3 168/5/3
f 170/7/3 162/7/3 169/7/3
f 171/2/3 167/2/3 166/2/3
f 172/2/3 159/2/3 167/2/3
f 172/2/3 167/2/3 171/2/3
f 177/5/3 174/5/3 173/5/3
f 178/5/3 176/5/3 175/5/3
f 179/5/3 177/5/3 173/5/3
f 179/5/3 178/5/3 177/5/3
f 180/5/3 178/5/3 179/5/3
f 181/5/3 176/5/3 178/5/3
f 181/5/3 178/5/3 180/5/3
f 185/6/3 181/6/3 180/6/3
f 186/6/3 181/6/3 185/6/3
f 187/6/3 181/6/3 186/6/3
f 188/6/3 181/6/3 187/6/3
f 189/5/3 182/5/3 181/5/3
f 189/6/3 181/6/3 188/6/3
f 190/5/3 182/5/3 189/5/3
f 191/6/3 185/6/3 180/6/3
f 192/6/3 188/6/3 187/6/3
f 193/5/3 189/5/3 188/5/3
f 193/6/3 188/6/3 192/6/3
f 194/6/3 190/6/3 189/6/3
f 194/5/3 189/5/3 193/5/3
f 195/6/3 191/6/3 180/6/3
f 196/6/3 191/6/3 195/6/3
f 198/5/3 193/5/3 192/5/3
f 199/6/3 194/6/3 193/6/3
f 199/5/3 193/5/3 198/5/3
f 202/6/3 198/6/3 197/6/3
f 202/6/3 199/6/3 198/6/3
f 203/6/3 199/6/3 202/6/3
f 204/6/3 194/6/3 199/6/3
f 204/6/3 199/6/3 203/6/3
f 205/6/3 201/6/3 200/6/3
f 206/5/3 204/5/3 203/5/3
f 207/6/3 194/6/3 204/6/3
f 207/5/3 204/5/3 206/5/3
f 208/6/3 190/6/3 194/6/3
f 208/6/3 194/6/3 207/6/3
f 209/3/3 184/3/3 183/3/3
f 210/3/3 184/3/3 209/3/3
f 211/6/3 205/6/3 200/6/3
f 213/6/3 207/6/3 206/6/3
f 214/5/3 208/5/3 207/5/3
f 214/6/3 207/6/3 213/6/3
f 215/6/3 190/6/3 208/6/3
f 215/5/3 208/5/3 214/5/3
f 216/6/3 190/6/3 215/6/3
f 218/6/3 212/6/3 211/6/3
f 218/6/3 214/6/3 213/6/3
f 218/6/3 215/6/3 214/6/3
f 218/6/3 213/6/3 212/6/3
f 218/6/3 211/6/3 200/6/3
f 219/5/3 216/5/3 215/5/3
f 219/6/3 215/6/3 218/6/3
f 220/5/3 216/5/3 219/5/3
f 221/5/3 218/5/3 217/5/3
f 221/5/3 219/5/3 218/5/3
f 222/5/3 219/5/3 221/5/3
f 223/5/3 221/5/3 217/5/3
f 224/5/3 221/5/3 223/5/3
f 225/5/3 219/5/3 222/5/3
f 226/5/3 219/5/3 225/5/3
f 230/1/3 228/1/3 227/1/3
f 231/1/3 228/1/3 230/1/3
f 235/1/3 230/1/3 229/1/3
f 235/1/3 231/1/3 230/1/3
f 236/1/3 231/1/3 235/1/3
f 237/1/3 231/1/3 236/1/3
f 238/5/3 233/5/3 232/5/3
f 239/1/3 235/1/3 234/1/3
f 239/1/3 236/1/3 235/1/3
f 240/1/3 236/1/3 239/1/3
f 241/5/3 233/5/3 238/5/3
f 245/5/3 242/5/3 241/5/3
f 245/5/3 241/5/3 238/5/3
f 246/5/3 242/5/3 245/5/3
f 247/1/3 244/1/3 243/1/3
f 248/1/3 244/1/3 247/1/3
f 249/1/3 244/1/3 248/1/3
f 251/5/3 245/5/3 238/5/3
f 252/1/3 250/1/3 249/1/3
f 252/1/3 249/1/3 248/1/3
f 253/1/3 250/1/3 252/1/3
f 254/1/3 250/1/3 253/1/3
f 255/5/3 245/5/3 251/5/3
f 256/5/3 245/5/3 255/5/3
f 257/1/3 254/1/3 253/1/3
f 258/1/3 254/1/3 257/1/3
f 259/5/4 260/5/4 261/5/4
f 261/5/4 260/5/4 262/5/4
f 263/5/4 264/5/4 265/5/4
f 265/5/4 264/5/4 266/5/4
f 267/5/4 268/5/4 270/5/4
f 270/5/4 268/5/4 271/5/4
f 269/1/4 270/1/4 274/1/4
f 271/5/4 272/5/4 275/5/4
f 270/5/4 271/5/4 275/5/4
f 273/1/4 274/1/4 278/1/4
f 274/1/4 270/1/4 279/1/4
f 278/1/4 274/1/4 279/1/4
f 275/5/4 276/5/4 280/5/4
f 279/1/4 270/1/4 280/1/4
f 270/5/4 275/5/4 280/5/4
f 278/1/4 279/1/4 281/1/4
f 277/1/4 278/1/4 281/1/4
f 279/5/4 280/5/4 282/5/4
f 281/1/4 279/1/4 282/1/4
f 280/5/4 276/5/4 283/5/4
f 282/5/4 280/5/4 283/5/4
f 283/5/4 284/5/4 286/5/4
f 282/5/4 283/5/4 286/5/4
f 286/5/4 284/5/4 287/5/4
f 287/5/4 284/5/4 288/5/4
f 285/1/4 286/1/4 289/1/4
f 289/1/4 286/1/4 290/1/4
f 286/5/4 287/5/4 291/5/4
f 290/1/4 286/1/4 291/1/4
f 291/5/4 287/5/4 292/5/4
f 290/1/4 291/1/4 293/1/4
f 291/1/4 292/1/4 293/1/4
f 293/1/4 292/1/4 294/1/4
f 292/5/4 287/5/4 295/5/4
f 295/5/4 287/5/4 296/5/4
f 294/1/4 292/1/4 297/1/4
f 292/5/4 295/5/4 298/5/4
f 297/1/4 292/1/4 298/1/4
f 298/5/4 295/5/4 299/5/4
f 299/5/4 295/5/4 300/5/4
f 298/5/4 299/5/4 301/5/4
f 301/5/4 299/5/4 302/5/4
f 307/1/5 304/1/5 303/1/5
f 308/1/5 304/1/5 307/1/5
f 309/1/5 306/1/5 305/1/5
f 310/1/5 306/1/5 309/1/5
f 315/1/5 312/1/5 311/1/5
f 316/1/5 312/1/5 315/1/5
f 317/1/5 314/1/5 313/1/5
f 318/1/5 314/1/5 317/1/5
f 321/2/5 320/2/5 319/2/5
f 322/2/5 320/2/5 321/2/5
f 325/6/5 322/6/5 321/6/5
f 326/6/5 322/6/5 325/6/5
f 327/6/5 322/6/5 326/6/5
f 328/6/5 322/6/5 327/6/5
f 331/1/5 324/1/5 323/1/5
f 332/1/5 324/1/5 331/1/5
f 333/5/5 327/5/5 326/5/5
f 334/5/5 327/5/5 333/5/5
f 335/1/5 330/1/5 329/1/5
f 336/1/5 330/1/5 335/1/5
f 342/2/5 338/2/5 337/2/5
f 343/2/5 338/2/5 342/2/5
f 344/2/5 340/2/5 339/2/5
f 345/2/5 340/2/5 344/2/5
f 347/5/5 342/5/5 341/5/5
f 348/6/5 343/6/5 342/6/5
f 348/5/5 342/5/5 347/5/5
f 349/6/5 343/6/5 348/6/5
f 350/6/5 345/6/5 344/6/5
f 351/5/5 346/5/5 345/5/5
f 351/6/5 345/6/5 350/6/5
f 352/5/5 346/5/5 351/5/5
f 353/5/5 347/5/5 341/5/5
f 354/5/5 347/5/5 353/5/5
f 355/5/5 346/5/5 352/5/5
f 356/5/5 346/5/5 355/5/5
f 359/2/5 358/2/5 357/2/5
f 360/2/5 358/2/5 359/2/5
f 363/4/5 362/4/5 361/4/5
f 364/4/5 362/4/5 363/4/5
f 371/5/5 366/5/5 365/5/5
f 372/7/5 367/7/5 366/7/5
f 372/5/5 366/5/5 371/5/5
f 373/7/5 367/7/5 372/7/5
f 374/7/5 369/7/5 368/7/5
f 375/5/5 370/5/5 369/5/5
f 375/7/5 369/7/5 374/7/5
f 376/5/5 370/5/5 375/5/5
f 381/5/5 378/5/5 377/5/5
f 382/5/5 378/5/5 381/5/5
f 383/5/5 380/5/5 379/5/5
f 384/5/5 380/5/5 383/5/5
f 385/2/6 386/2/6 387/2/6
f 387/2/6 386/2/6 388/2/6
f 389/2/6 390/2/6 393/2/6
f 393/2/6 390/2/6 394/2/6
f 391/2/6 392/2/6 395/2/6
f 395/2/6 392/2/6 396/2/6
f 397/4/6 398/4/6 399/4/6
f 399/4/6 398/4/6 400/4/6
f 401/5/6 402/5/6 405/5/6
f 405/5/6 402/5/6 406/5/6
f 403/5/6 404/5/6 407/5/6
f 407/5/6 404/5/6 408/5/6
f 409/4/6 410/4/6 411/4/6
f 411/4/6 410/4/6 412/4/6
f 413/7/6 414/7/6 417/7/6
f 417/7/6 414/7/6 418/7/6
f 418/7/6 414/7/6 419/7/6
f 415/7/6 416/7/6 420/7/6
f 420/7/6 416/7/6 421/7/6
f 421/7/6 416/7/6 422/7/6
f 423/5/6 424/5/6 427/5/6
f 427/5/6 424/5/6 428/5/6
f 425/5/6 426/5/6 429/5/6
f 429/5/6 426/5/6 430/5/6
f 428/5/6 424/5/6 431/5/6
f 431/5/6 424/5/6 432/5/6
f 425/5/6 429/5/6 433/5/6
f 433/5/6 429/5/6 434/5/6
f 435/5/6 436/5/6 439/5/6
f 436/6/6 437/6/6 440/6/6
f 439/5/6 436/5/6 440/5/6
f 437/5/6 438/5/6 441/5/6
f 440/6/6 437/6/6 441/6/6
f 441/5/6 438/5/6 442/5/6
f 443/5/6 444/5/6 447/5/6
f 447/5/6 444/5/6 448/5/6
f 445/5/6 446/5/6 449/5/6
f 449/5/6 446/5/6 450/5/6
f 451/5/6 452/5/6 453/5/6
f 453/5/6 452/5/6 454/5/6
