# MagicaVoxel @ Ephtracy

# group
o 

# material
mtllib Technar-5.mtl
usemtl palette

# normals
vn -1 0 0
vn 1 0 0
vn 0 0 1
vn 0 0 -1
vn 0 -1 0
vn 0 1 0

# texcoords
vt 0.947266 0.5
vt 0.970703 0.5
vt 0.982422 0.5

# verts
v -0.2 -0.7 0.3
v -0.2 -0.7 0.1
v -0.2 -0.7 0
v -0.2 -0.7 -0.2
v -0.2 -0.5 0.3
v -0.2 -0.5 0.1
v -0.2 -0.5 0
v -0.2 -0.5 -0.2
v -0.1 -0.6 0.1
v -0.1 -0.6 0
v -0.1 -0.5 0.2
v -0.1 -0.5 0.1
v -0.1 -0.5 0
v -0.1 -0.5 -0.2
v -0.1 -0.4 0.2
v -0.1 -0.4 0.1
v -0.1 -0.4 -0.1
v -0.1 -0.4 -0.2
v -0.1 -0.3 0.1
v -0.1 -0.3 -0.1
v -0.1 -0.3 -0.2
v -0.1 -0.2 0.1
v -0.1 -0.2 -0.2
v 0 -0.7 -0.2
v 0 -0.7 -0.4
v 0 -0.6 0.4
v 0 -0.6 0.3
v 0 -0.5 0.3
v 0 -0.5 0.2
v 0 -0.5 -0.3
v 0 -0.5 -0.4
v 0 -0.4 0.4
v 0 -0.4 0.2
v 0 -0.4 0.1
v 0 -0.4 -0.1
v 0 -0.4 -0.2
v 0 -0.4 -0.3
v 0 -0.3 0.2
v 0 -0.3 0.1
v 0 -0.3 -0.1
v 0 -0.3 -0.2
v 0 -0.2 0.2
v 0 -0.2 0.1
v 0 -0.2 -0.2
v 0 0.6 0.1
v 0 0.6 -0.2
v 0.1 0.6 0.1
v 0.1 0.6 -0.2
v 0.1 0.7 0.1
v 0.1 0.7 -0.2
v 0 -0.7 0.3
v 0 -0.7 0.1
v 0 -0.7 0
v 0 -0.7 -0.2
v 0 -0.6 0.3
v 0 -0.6 0.2
v 0 -0.6 0.1
v 0 -0.6 0
v 0 -0.5 0.2
v 0 -0.5 -0.2
v 0.2 -0.7 -0.2
v 0.2 -0.7 -0.4
v 0.2 -0.6 0.4
v 0.2 -0.6 0.2
v 0.2 -0.5 0.2
v 0.2 -0.5 -0.1
v 0.2 -0.5 -0.2
v 0.2 -0.5 -0.3
v 0.2 -0.5 -0.4
v 0.2 -0.4 0.4
v 0.2 -0.4 0.2
v 0.2 -0.4 0.1
v 0.2 -0.4 -0.1
v 0.2 -0.4 -0.2
v 0.2 -0.4 -0.3
v 0.2 -0.3 0.2
v 0.2 -0.3 0.1
v 0.2 -0.3 -0.1
v 0.2 -0.3 -0.2
v 0.3 -0.5 0.2
v 0.3 -0.5 -0.1
v 0.3 -0.4 0.2
v 0.3 -0.4 0.1
v 0.3 -0.4 -0.1
v 0.3 -0.3 0.2
v 0.3 -0.3 0.1
v 0.3 -0.3 -0.1
v 0.3 -0.3 -0.2
v 0.3 -0.2 0.2
v 0.3 -0.2 0.1
v 0.3 -0.2 -0.2
v 0.3 0.7 0.1
v 0.3 0.7 -0.2
v 0 -0.6 0.4
v 0 -0.4 0.4
v 0.2 -0.6 0.4
v 0.2 -0.4 0.4
v -0.2 -0.7 0.3
v -0.2 -0.5 0.3
v 0 -0.7 0.3
v 0 -0.6 0.3
v 0 -0.5 0.3
v -0.1 -0.5 0.2
v -0.1 -0.4 0.2
v 0 -0.5 0.2
v 0 -0.4 0.2
v 0 -0.3 0.2
v 0 -0.2 0.2
v 0.2 -0.5 0.2
v 0.2 -0.4 0.2
v 0.2 -0.3 0.2
v 0.3 -0.5 0.2
v 0.3 -0.4 0.2
v 0.3 -0.3 0.2
v 0.3 -0.2 0.2
v -0.1 -0.4 0.1
v -0.1 -0.3 0.1
v -0.1 -0.2 0.1
v 0 -0.4 0.1
v 0 -0.3 0.1
v 0 -0.2 0.1
v 0 0.6 0.1
v 0.1 0.6 0.1
v 0.1 0.7 0.1
v 0.2 -0.4 0.1
v 0.2 -0.3 0.1
v 0.3 -0.4 0.1
v 0.3 -0.3 0.1
v 0.3 -0.2 0.1
v 0.3 0.7 0.1
v -0.2 -0.7 0
v -0.2 -0.5 0
v -0.1 -0.6 0
v -0.1 -0.5 0
v 0 -0.7 0
v 0 -0.6 0
v 0 -0.7 -0.2
v 0 -0.5 -0.2
v 0.2 -0.7 -0.2
v 0.2 -0.5 -0.2
v 0 -0.6 0.2
v 0 -0.5 0.2
v 0.2 -0.6 0.2
v 0.2 -0.5 0.2
v -0.2 -0.7 0.1
v -0.2 -0.5 0.1
v -0.1 -0.6 0.1
v -0.1 -0.5 0.1
v 0 -0.7 0.1
v 0 -0.6 0.1
v -0.1 -0.4 -0.1
v -0.1 -0.3 -0.1
v 0 -0.4 -0.1
v 0 -0.3 -0.1
v 0.2 -0.5 -0.1
v 0.2 -0.4 -0.1
v 0.2 -0.3 -0.1
v 0.3 -0.5 -0.1
v 0.3 -0.4 -0.1
v 0.3 -0.3 -0.1
v -0.2 -0.7 -0.2
v -0.2 -0.5 -0.2
v -0.1 -0.5 -0.2
v -0.1 -0.4 -0.2
v -0.1 -0.3 -0.2
v -0.1 -0.2 -0.2
v 0 -0.7 -0.2
v 0 -0.4 -0.2
v 0 -0.3 -0.2
v 0 -0.2 -0.2
v 0 0.6 -0.2
v 0.1 0.6 -0.2
v 0.1 0.7 -0.2
v 0.2 -0.4 -0.2
v 0.2 -0.3 -0.2
v 0.3 -0.3 -0.2
v 0.3 -0.2 -0.2
v 0.3 0.7 -0.2
v 0 -0.5 -0.3
v 0 -0.4 -0.3
v 0.2 -0.5 -0.3
v 0.2 -0.4 -0.3
v 0 -0.7 -0.4
v 0 -0.5 -0.4
v 0.2 -0.7 -0.4
v 0.2 -0.5 -0.4
v -0.2 -0.7 0.3
v 0 -0.7 0.3
v -0.2 -0.7 0.1
v 0 -0.7 0.1
v -0.2 -0.7 0
v 0 -0.7 0
v -0.2 -0.7 -0.2
v 0 -0.7 -0.2
v 0.2 -0.7 -0.2
v 0 -0.7 -0.4
v 0.2 -0.7 -0.4
v 0 -0.6 0.4
v 0.2 -0.6 0.4
v 0 -0.6 0.3
v 0 -0.6 0.2
v 0.2 -0.6 0.2
v -0.1 -0.6 0.1
v 0 -0.6 0.1
v -0.1 -0.6 0
v 0 -0.6 0
v 0 -0.5 0.2
v 0.2 -0.5 0.2
v 0.3 -0.5 0.2
v 0.2 -0.5 -0.1
v 0.3 -0.5 -0.1
v 0 -0.5 -0.2
v 0.2 -0.5 -0.2
v 0.2 -0.3 0.2
v 0.3 -0.3 0.2
v 0.2 -0.3 0.1
v 0.3 -0.3 0.1
v -0.1 -0.3 -0.1
v 0 -0.3 -0.1
v 0.2 -0.3 -0.1
v 0.3 -0.3 -0.1
v -0.1 -0.3 -0.2
v 0 -0.3 -0.2
v 0.2 -0.3 -0.2
v 0.3 -0.3 -0.2
v -0.2 -0.5 0.3
v 0 -0.5 0.3
v -0.1 -0.5 0.2
v 0 -0.5 0.2
v -0.2 -0.5 0.1
v -0.1 -0.5 0.1
v -0.2 -0.5 0
v -0.1 -0.5 0
v -0.2 -0.5 -0.2
v -0.1 -0.5 -0.2
v 0 -0.5 -0.3
v 0.2 -0.5 -0.3
v 0 -0.5 -0.4
v 0.2 -0.5 -0.4
v 0 -0.4 0.4
v 0.2 -0.4 0.4
v -0.1 -0.4 0.2
v 0 -0.4 0.2
v 0.2 -0.4 0.2
v 0.3 -0.4 0.2
v -0.1 -0.4 0.1
v 0 -0.4 0.1
v 0.2 -0.4 0.1
v 0.3 -0.4 0.1
v -0.1 -0.4 -0.1
v 0 -0.4 -0.1
v -0.1 -0.4 -0.2
v 0 -0.4 -0.2
v 0.2 -0.4 -0.2
v 0 -0.4 -0.3
v 0.2 -0.4 -0.3
v 0 -0.2 0.2
v 0.3 -0.2 0.2
v -0.1 -0.2 0.1
v 0 -0.2 0.1
v 0.3 -0.2 0.1
v -0.1 -0.2 -0.2
v 0 -0.2 -0.2
v 0 0.6 0.1
v 0.1 0.6 0.1
v 0 0.6 -0.2
v 0.1 0.6 -0.2
v 0.1 0.7 0.1
v 0.3 0.7 0.1
v 0.1 0.7 -0.2
v 0.3 0.7 -0.2

# faces
f 5/1/1 2/1/1 1/1/1
f 6/1/1 2/1/1 5/1/1
f 7/1/1 4/1/1 3/1/1
f 8/1/1 4/1/1 7/1/1
f 12/1/1 10/1/1 9/1/1
f 13/1/1 10/1/1 12/1/1
f 15/1/1 12/1/1 11/1/1
f 15/1/1 14/1/1 13/1/1
f 15/1/1 13/1/1 12/1/1
f 16/1/1 14/1/1 15/1/1
f 17/1/1 14/1/1 16/1/1
f 18/1/1 14/1/1 17/1/1
f 19/3/1 17/3/1 16/3/1
f 20/3/1 17/3/1 19/3/1
f 22/1/1 20/1/1 19/1/1
f 22/1/1 21/1/1 20/1/1
f 23/1/1 21/1/1 22/1/1
f 28/1/1 27/1/1 26/1/1
f 30/1/1 25/1/1 24/1/1
f 31/1/1 25/1/1 30/1/1
f 32/1/1 29/1/1 28/1/1
f 32/1/1 28/1/1 26/1/1
f 33/1/1 29/1/1 32/1/1
f 36/1/1 30/1/1 24/1/1
f 37/1/1 30/1/1 36/1/1
f 38/3/1 34/3/1 33/3/1
f 39/3/1 34/3/1 38/3/1
f 40/3/1 36/3/1 35/3/1
f 41/3/1 36/3/1 40/3/1
f 42/1/1 39/1/1 38/1/1
f 43/1/1 39/1/1 42/1/1
f 45/2/1 44/2/1 43/2/1
f 46/2/1 44/2/1 45/2/1
f 49/2/1 48/2/1 47/2/1
f 50/2/1 48/2/1 49/2/1
f 51/1/2 52/1/2 55/1/2
f 55/1/2 52/1/2 56/1/2
f 56/1/2 52/1/2 57/1/2
f 53/1/2 54/1/2 58/1/2
f 56/1/2 57/1/2 59/1/2
f 57/1/2 58/1/2 59/1/2
f 58/1/2 54/1/2 60/1/2
f 59/1/2 58/1/2 60/1/2
f 63/1/2 64/1/2 65/1/2
f 61/1/2 62/1/2 67/1/2
f 67/1/2 62/1/2 68/1/2
f 68/1/2 62/1/2 69/1/2
f 63/1/2 65/1/2 70/1/2
f 70/1/2 65/1/2 71/1/2
f 66/1/2 67/1/2 73/1/2
f 67/1/2 68/1/2 73/1/2
f 73/1/2 68/1/2 74/1/2
f 74/1/2 68/1/2 75/1/2
f 71/3/2 72/3/2 76/3/2
f 76/3/2 72/3/2 77/3/2
f 73/3/2 74/3/2 78/3/2
f 78/3/2 74/3/2 79/3/2
f 80/1/2 81/1/2 82/1/2
f 82/1/2 81/1/2 83/1/2
f 83/1/2 81/1/2 84/1/2
f 83/3/2 84/3/2 86/3/2
f 86/3/2 84/3/2 87/3/2
f 86/1/2 87/1/2 89/1/2
f 87/1/2 88/1/2 89/1/2
f 85/1/2 86/1/2 89/1/2
f 89/1/2 88/1/2 90/1/2
f 90/1/2 88/1/2 91/1/2
f 90/2/2 91/2/2 92/2/2
f 92/2/2 91/2/2 93/2/2
f 96/1/3 95/1/3 94/1/3
f 97/1/3 95/1/3 96/1/3
f 100/1/3 99/1/3 98/1/3
f 101/1/3 99/1/3 100/1/3
f 102/1/3 99/1/3 101/1/3
f 105/1/3 104/1/3 103/1/3
f 106/1/3 104/1/3 105/1/3
f 110/3/3 107/3/3 106/3/3
f 111/1/3 108/1/3 107/1/3
f 111/3/3 107/3/3 110/3/3
f 112/1/3 110/1/3 109/1/3
f 113/1/3 110/1/3 112/1/3
f 114/1/3 108/1/3 111/1/3
f 115/1/3 108/1/3 114/1/3
f 119/3/3 117/3/3 116/3/3
f 120/1/3 118/1/3 117/1/3
f 120/3/3 117/3/3 119/3/3
f 121/1/3 118/1/3 120/1/3
f 123/2/3 122/2/3 121/2/3
f 127/3/3 126/3/3 125/3/3
f 128/3/3 126/3/3 127/3/3
f 129/2/3 123/2/3 121/2/3
f 129/2/3 124/2/3 123/2/3
f 130/2/3 124/2/3 129/2/3
f 133/1/3 132/1/3 131/1/3
f 134/1/3 132/1/3 133/1/3
f 135/1/3 133/1/3 131/1/3
f 136/1/3 133/1/3 135/1/3
f 139/1/3 138/1/3 137/1/3
f 140/1/3 138/1/3 139/1/3
f 141/1/4 142/1/4 143/1/4
f 143/1/4 142/1/4 144/1/4
f 145/1/4 146/1/4 147/1/4
f 147/1/4 146/1/4 148/1/4
f 145/1/4 147/1/4 149/1/4
f 149/1/4 147/1/4 150/1/4
f 151/3/4 152/3/4 153/3/4
f 153/3/4 152/3/4 154/3/4
f 155/1/4 156/1/4 158/1/4
f 156/3/4 157/3/4 159/3/4
f 158/1/4 156/1/4 159/1/4
f 159/3/4 157/3/4 160/3/4
f 161/1/4 162/1/4 163/1/4
f 161/1/4 163/1/4 167/1/4
f 163/1/4 164/1/4 167/1/4
f 167/1/4 164/1/4 168/1/4
f 165/1/4 166/1/4 169/1/4
f 169/1/4 166/1/4 170/1/4
f 170/2/4 171/2/4 172/2/4
f 168/3/4 169/3/4 174/3/4
f 169/1/4 170/1/4 175/1/4
f 174/3/4 169/3/4 175/3/4
f 175/1/4 170/1/4 176/1/4
f 172/2/4 173/2/4 177/2/4
f 176/1/4 170/1/4 177/1/4
f 170/2/4 172/2/4 177/2/4
f 177/2/4 173/2/4 178/2/4
f 179/1/4 180/1/4 181/1/4
f 181/1/4 180/1/4 182/1/4
f 183/1/4 184/1/4 185/1/4
f 185/1/4 184/1/4 186/1/4
f 189/1/5 188/1/5 187/1/5
f 190/1/5 188/1/5 189/1/5
f 193/1/5 192/1/5 191/1/5
f 194/1/5 192/1/5 193/1/5
f 196/1/5 195/1/5 194/1/5
f 197/1/5 195/1/5 196/1/5
f 200/1/5 199/1/5 198/1/5
f 201/1/5 199/1/5 200/1/5
f 202/1/5 199/1/5 201/1/5
f 205/1/5 204/1/5 203/1/5
f 206/1/5 204/1/5 205/1/5
f 210/1/5 208/1/5 207/1/5
f 210/1/5 209/1/5 208/1/5
f 211/1/5 209/1/5 210/1/5
f 212/1/5 210/1/5 207/1/5
f 213/1/5 210/1/5 212/1/5
f 216/1/5 215/1/5 214/1/5
f 217/1/5 215/1/5 216/1/5
f 222/1/5 219/1/5 218/1/5
f 223/1/5 219/1/5 222/1/5
f 224/1/5 221/1/5 220/1/5
f 225/1/5 221/1/5 224/1/5
f 226/1/6 227/1/6 228/1/6
f 228/1/6 227/1/6 229/1/6
f 226/1/6 228/1/6 230/1/6
f 230/1/6 228/1/6 231/1/6
f 232/1/6 233/1/6 234/1/6
f 234/1/6 233/1/6 235/1/6
f 236/1/6 237/1/6 238/1/6
f 238/1/6 237/1/6 239/1/6
f 240/1/6 241/1/6 243/1/6
f 243/1/6 241/1/6 244/1/6
f 242/1/6 243/1/6 246/1/6
f 246/1/6 243/1/6 247/1/6
f 244/1/6 245/1/6 248/1/6
f 248/1/6 245/1/6 249/1/6
f 250/1/6 251/1/6 252/1/6
f 252/1/6 251/1/6 253/1/6
f 253/1/6 254/1/6 255/1/6
f 255/1/6 254/1/6 256/1/6
f 257/1/6 258/1/6 260/1/6
f 260/1/6 258/1/6 261/1/6
f 259/1/6 260/1/6 262/1/6
f 262/1/6 260/1/6 263/1/6
f 264/2/6 265/2/6 266/2/6
f 266/2/6 265/2/6 267/2/6
f 268/2/6 269/2/6 270/2/6
f 270/2/6 269/2/6 271/2/6
