# MagicaVoxel @ Ephtracy

# group
o 

# material
mtllib Technar-2.mtl
usemtl palette

# normals
vn -1 0 0
vn 1 0 0
vn 0 0 1
vn 0 0 -1
vn 0 -1 0
vn 0 1 0

# texcoords
vt 0.626953 0.5
vt 0.630859 0.5
vt 0.951172 0.5
vt 0.966797 0.5

# verts
v -0.2 -0.1 0.1
v -0.2 -0.1 -0.4
v -0.2 0.1 0.1
v -0.2 0.1 -0.4
v -0.1 -0.5 0.4
v -0.1 -0.5 -0.3
v -0.1 -0.3 0.1
v -0.1 -0.3 0
v -0.1 -0.2 0.4
v -0.1 -0.2 0.1
v -0.1 -0.1 0.2
v -0.1 -0.1 0.1
v -0.1 -0.1 0
v -0.1 -0.1 -0.3
v -0.1 -0.1 -0.4
v -0.1 -0.1 -0.5
v -0.1 0.1 0.2
v -0.1 0.1 0.1
v -0.1 0.1 -0.4
v -0.1 0.1 -0.5
v -0.1 0.4 0.1
v -0.1 0.4 -0.4
v -0.1 0.5 0.1
v -0.1 0.5 -0.4
v 0.2 -0.5 0.4
v 0.2 -0.5 -0.3
v 0.2 -0.3 0.1
v 0.2 -0.3 0
v 0.2 -0.2 0.4
v 0.2 -0.2 0.1
v 0.2 -0.1 0.2
v 0.2 -0.1 0.1
v 0.2 -0.1 0
v 0.2 -0.1 -0.3
v 0.2 -0.1 -0.4
v 0.2 -0.1 -0.5
v 0.2 0.1 0.2
v 0.2 0.1 0.1
v 0.2 0.1 -0.4
v 0.2 0.1 -0.5
v 0.2 0.5 0.1
v 0.2 0.5 -0.4
v 0.3 -0.1 0.1
v 0.3 -0.1 -0.4
v 0.3 0.1 0.1
v 0.3 0.1 -0.4
v -0.1 -0.5 0.4
v -0.1 -0.2 0.4
v 0.2 -0.5 0.4
v 0.2 -0.2 0.4
v -0.1 -0.1 0.2
v -0.1 0.1 0.2
v 0.2 -0.1 0.2
v 0.2 0.1 0.2
v -0.2 -0.1 0.1
v -0.2 0.1 0.1
v -0.1 -0.1 0.1
v -0.1 0.1 0.1
v -0.1 0.4 0.1
v -0.1 0.5 0.1
v 0 0.4 0.1
v 0 0.5 0.1
v 0.2 -0.1 0.1
v 0.2 0.1 0.1
v 0.2 0.5 0.1
v 0.3 -0.1 0.1
v 0.3 0.1 0.1
v -0.1 -0.3 0
v -0.1 -0.1 0
v 0.2 -0.3 0
v 0.2 -0.1 0
v -0.1 -0.3 0.1
v -0.1 -0.2 0.1
v 0.2 -0.3 0.1
v 0.2 -0.2 0.1
v -0.1 -0.5 -0.3
v -0.1 -0.1 -0.3
v 0.2 -0.5 -0.3
v 0.2 -0.1 -0.3
v -0.2 -0.1 -0.4
v -0.2 0.1 -0.4
v -0.1 -0.1 -0.4
v -0.1 0.1 -0.4
v -0.1 0.4 -0.4
v -0.1 0.5 -0.4
v 0 0.4 -0.4
v 0 0.5 -0.4
v 0.2 -0.1 -0.4
v 0.2 0.1 -0.4
v 0.2 0.5 -0.4
v 0.3 -0.1 -0.4
v 0.3 0.1 -0.4
v -0.1 -0.1 -0.5
v -0.1 0.1 -0.5
v 0.2 -0.1 -0.5
v 0.2 0.1 -0.5
v -0.1 -0.5 0.4
v 0.2 -0.5 0.4
v -0.1 -0.5 -0.3
v 0.2 -0.5 -0.3
v -0.1 -0.1 0.2
v 0.2 -0.1 0.2
v -0.2 -0.1 0.1
v -0.1 -0.1 0.1
v 0.2 -0.1 0.1
v 0.3 -0.1 0.1
v -0.1 -0.1 0
v 0.2 -0.1 0
v -0.1 -0.1 -0.3
v 0.2 -0.1 -0.3
v -0.2 -0.1 -0.4
v -0.1 -0.1 -0.4
v 0.2 -0.1 -0.4
v 0.3 -0.1 -0.4
v -0.1 -0.1 -0.5
v 0.2 -0.1 -0.5
v -0.1 -0.3 0.1
v 0.2 -0.3 0.1
v -0.1 -0.3 0
v 0.2 -0.3 0
v -0.1 -0.2 0.4
v 0.2 -0.2 0.4
v -0.1 -0.2 0.1
v 0.2 -0.2 0.1
v -0.1 0.1 0.2
v 0.2 0.1 0.2
v -0.2 0.1 0.1
v -0.1 0.1 0.1
v 0.2 0.1 0.1
v 0.3 0.1 0.1
v -0.2 0.1 -0.4
v -0.1 0.1 -0.4
v 0.2 0.1 -0.4
v 0.3 0.1 -0.4
v -0.1 0.1 -0.5
v 0.2 0.1 -0.5
v -0.1 0.5 0.1
v 0 0.5 0.1
v 0.2 0.5 0.1
v -0.1 0.5 -0.4
v 0 0.5 -0.4
v 0.2 0.5 -0.4

# faces
f 3/1/1 2/1/1 1/1/1
f 4/1/1 2/1/1 3/1/1
f 7/4/1 6/4/1 5/4/1
f 8/4/1 6/4/1 7/4/1
f 9/4/1 7/4/1 5/4/1
f 10/4/1 7/4/1 9/4/1
f 13/4/1 6/4/1 8/4/1
f 14/4/1 6/4/1 13/4/1
f 17/1/1 12/1/1 11/1/1
f 18/1/1 12/1/1 17/1/1
f 19/1/1 16/1/1 15/1/1
f 20/1/1 16/1/1 19/1/1
f 21/1/1 19/1/1 18/1/1
f 22/1/1 19/1/1 21/1/1
f 23/2/1 22/2/1 21/2/1
f 24/2/1 22/2/1 23/2/1
f 25/4/2 26/4/2 27/4/2
f 27/4/2 26/4/2 28/4/2
f 25/4/2 27/4/2 29/4/2
f 29/4/2 27/4/2 30/4/2
f 28/4/2 26/4/2 33/4/2
f 33/4/2 26/4/2 34/4/2
f 31/1/2 32/1/2 37/1/2
f 37/1/2 32/1/2 38/1/2
f 35/1/2 36/1/2 39/1/2
f 39/1/2 36/1/2 40/1/2
f 38/1/2 39/1/2 41/1/2
f 41/1/2 39/1/2 42/1/2
f 43/1/2 44/1/2 45/1/2
f 45/1/2 44/1/2 46/1/2
f 49/4/3 48/4/3 47/4/3
f 50/4/3 48/4/3 49/4/3
f 53/1/3 52/1/3 51/1/3
f 54/1/3 52/1/3 53/1/3
f 57/1/3 56/1/3 55/1/3
f 58/1/3 56/1/3 57/1/3
f 61/2/3 60/2/3 59/2/3
f 61/1/3 59/1/3 58/1/3
f 62/2/3 60/2/3 61/2/3
f 64/1/3 61/1/3 58/1/3
f 64/1/3 62/1/3 61/1/3
f 65/1/3 62/1/3 64/1/3
f 66/1/3 64/1/3 63/1/3
f 67/1/3 64/1/3 66/1/3
f 70/4/3 69/4/3 68/4/3
f 71/4/3 69/4/3 70/4/3
f 72/4/4 73/4/4 74/4/4
f 74/4/4 73/4/4 75/4/4
f 76/4/4 77/4/4 78/4/4
f 78/4/4 77/4/4 79/4/4
f 80/1/4 81/1/4 82/1/4
f 82/1/4 81/1/4 83/1/4
f 84/2/4 85/2/4 86/2/4
f 83/1/4 84/1/4 86/1/4
f 86/2/4 85/2/4 87/2/4
f 83/1/4 86/1/4 89/1/4
f 86/1/4 87/1/4 89/1/4
f 89/1/4 87/1/4 90/1/4
f 88/1/4 89/1/4 91/1/4
f 91/1/4 89/1/4 92/1/4
f 93/1/4 94/1/4 95/1/4
f 95/1/4 94/1/4 96/1/4
f 99/4/5 98/4/5 97/4/5
f 100/4/5 98/4/5 99/4/5
f 104/1/5 102/1/5 101/1/5
f 105/1/5 102/1/5 104/1/5
f 107/1/5 104/1/5 103/1/5
f 107/1/5 106/1/5 105/1/5
f 107/1/5 105/1/5 104/1/5
f 108/1/5 106/1/5 107/1/5
f 109/1/5 107/1/5 103/1/5
f 110/1/5 106/1/5 108/1/5
f 111/1/5 109/1/5 103/1/5
f 111/1/5 110/1/5 109/1/5
f 112/1/5 110/1/5 111/1/5
f 113/1/5 106/1/5 110/1/5
f 113/1/5 110/1/5 112/1/5
f 114/1/5 106/1/5 113/1/5
f 115/1/5 113/1/5 112/1/5
f 116/1/5 113/1/5 115/1/5
f 117/4/6 118/4/6 119/4/6
f 119/4/6 118/4/6 120/4/6
f 121/4/6 122/4/6 123/4/6
f 123/4/6 122/4/6 124/4/6
f 125/1/6 126/1/6 128/1/6
f 128/1/6 126/1/6 129/1/6
f 127/1/6 128/1/6 131/1/6
f 131/1/6 128/1/6 132/1/6
f 129/1/6 130/1/6 133/1/6
f 133/1/6 130/1/6 134/1/6
f 132/1/6 133/1/6 135/1/6
f 135/1/6 133/1/6 136/1/6
f 137/2/6 138/2/6 140/2/6
f 138/1/6 139/1/6 141/1/6
f 140/2/6 138/2/6 141/2/6
f 141/1/6 139/1/6 142/1/6
