# MagicaVoxel @ Ephtracy

# group
o 

# material
mtllib hammer.mtl
usemtl palette

# normals
vn -1 0 0
vn 1 0 0
vn 0 0 1
vn 0 0 -1
vn 0 -1 0
vn 0 1 0

# texcoords
vt 0.232422 0.5
vt 0.244141 0.5
vt 0.498047 0.5
vt 0.560547 0.5
vt 0.591797 0.5
vt 0.623047 0.5
vt 0.748047 0.5
vt 0.775391 0.5
vt 0.779297 0.5
vt 0.810547 0.5
vt 0.853516 0.5

# verts
v -0.3 0.1 -0.2
v -0.3 0.1 -0.3
v -0.3 0.2 0
v -0.3 0.2 -0.1
v -0.3 0.2 -0.2
v -0.3 0.2 -0.3
v -0.3 0.2 -0.4
v -0.3 0.2 -0.5
v -0.3 0.3 0.3
v -0.3 0.3 0.2
v -0.3 0.3 0
v -0.3 0.3 -0.1
v -0.3 0.3 -0.2
v -0.3 0.3 -0.3
v -0.3 0.3 -0.4
v -0.3 0.3 -0.5
v -0.3 0.3 -0.7
v -0.3 0.3 -0.8
v -0.3 0.4 0.3
v -0.3 0.4 0.2
v -0.3 0.4 0
v -0.3 0.4 -0.1
v -0.3 0.4 -0.2
v -0.3 0.4 -0.3
v -0.3 0.4 -0.4
v -0.3 0.4 -0.7
v -0.3 0.4 -0.8
v -0.3 0.5 0.3
v -0.3 0.5 0.2
v -0.3 0.5 0.1
v -0.3 0.5 0
v -0.3 0.5 -0.2
v -0.3 0.5 -0.4
v -0.3 0.5 -0.6
v -0.3 0.5 -0.7
v -0.3 0.5 -0.8
v -0.3 0.6 0.1
v -0.3 0.6 0
v -0.3 0.6 -0.1
v -0.3 0.6 -0.4
v -0.3 0.6 -0.6
v -0.2 -0.5 -0.2
v -0.2 -0.5 -0.3
v -0.2 0.1 -0.1
v -0.2 0.1 -0.2
v -0.2 0.1 -0.3
v -0.2 0.1 -0.4
v -0.2 0.2 0.3
v -0.2 0.2 0.2
v -0.2 0.2 0
v -0.2 0.2 -0.1
v -0.2 0.2 -0.2
v -0.2 0.2 -0.3
v -0.2 0.2 -0.4
v -0.2 0.2 -0.5
v -0.2 0.2 -0.7
v -0.2 0.2 -0.8
v -0.2 0.3 0.3
v -0.2 0.3 0.2
v -0.2 0.3 0
v -0.2 0.3 -0.5
v -0.2 0.3 -0.7
v -0.2 0.3 -0.8
v -0.2 0.5 0.3
v -0.2 0.5 0.2
v -0.2 0.5 0.1
v -0.2 0.5 -0.6
v -0.2 0.5 -0.7
v -0.2 0.5 -0.8
v -0.2 0.6 0.3
v -0.2 0.6 0.2
v -0.2 0.6 0.1
v -0.2 0.6 0
v -0.2 0.6 -0.1
v -0.2 0.6 -0.2
v -0.2 0.6 -0.3
v -0.2 0.6 -0.4
v -0.2 0.6 -0.5
v -0.2 0.6 -0.6
v -0.2 0.6 -0.7
v -0.2 0.6 -0.8
v -0.2 0.7 0.1
v -0.2 0.7 0
v -0.2 0.7 -0.1
v -0.2 0.7 -0.2
v -0.2 0.7 -0.3
v -0.2 0.7 -0.5
v -0.2 0.7 -0.6
v -0.1 -0.5 -0.1
v -0.1 -0.5 -0.2
v -0.1 -0.5 -0.3
v -0.1 -0.5 -0.4
v -0.1 -0.4 -0.1
v -0.1 -0.4 -0.2
v -0.1 -0.4 -0.3
v -0.1 -0.4 -0.4
v -0.1 -0.2 -0.1
v -0.1 -0.2 -0.2
v -0.1 0 -0.1
v -0.1 0 -0.2
v -0.1 0.1 0
v -0.1 0.1 -0.1
v -0.1 0.1 -0.2
v -0.1 0.1 -0.3
v -0.1 0.1 -0.4
v -0.1 0.1 -0.5
v -0.1 0.2 0
v -0.1 0.2 -0.1
v -0.1 0.2 -0.4
v -0.1 0.2 -0.5
v -0.1 0.6 -0.6
v -0.1 0.6 -0.7
v -0.1 0.7 -0.6
v -0.1 0.7 -0.7
v 0 -0.5 -0.1
v 0 -0.5 -0.2
v 0 -0.5 -0.3
v 0 -0.5 -0.4
v 0 -0.4 -0.1
v 0 -0.4 -0.2
v 0 -0.4 -0.3
v 0 -0.4 -0.4
v 0 -0.2 -0.1
v 0 -0.2 -0.2
v 0 -0.1 -0.2
v 0 -0.1 -0.3
v 0 0 -0.1
v 0 0 -0.2
v 0 0 -0.3
v 0 0.1 0
v 0 0.1 -0.1
v 0 0.1 -0.2
v 0 0.1 -0.3
v 0 0.1 -0.4
v 0 0.1 -0.5
v 0 0.2 0
v 0 0.2 -0.1
v 0 0.2 -0.4
v 0 0.2 -0.5
v 0 0.6 -0.6
v 0 0.6 -0.7
v 0 0.7 -0.6
v 0 0.7 -0.7
v 0.1 -0.5 -0.2
v 0.1 -0.5 -0.3
v 0.1 -0.1 -0.2
v 0.1 -0.1 -0.3
v 0.1 0 -0.2
v 0.1 0 -0.3
v 0.1 0.1 -0.1
v 0.1 0.1 -0.2
v 0.1 0.1 -0.3
v 0.1 0.1 -0.4
v 0.1 0.2 0.3
v 0.1 0.2 0.2
v 0.1 0.2 0
v 0.1 0.2 -0.1
v 0.1 0.2 -0.2
v 0.1 0.2 -0.3
v 0.1 0.2 -0.4
v 0.1 0.2 -0.5
v 0.1 0.2 -0.7
v 0.1 0.2 -0.8
v 0.1 0.3 0.3
v 0.1 0.3 0.2
v 0.1 0.3 0
v 0.1 0.3 -0.5
v 0.1 0.3 -0.7
v 0.1 0.3 -0.8
v 0.1 0.5 0.3
v 0.1 0.5 0.2
v 0.1 0.5 0.1
v 0.1 0.5 -0.6
v 0.1 0.5 -0.7
v 0.1 0.5 -0.8
v 0.1 0.6 0.3
v 0.1 0.6 0.2
v 0.1 0.6 0.1
v 0.1 0.6 0
v 0.1 0.6 -0.1
v 0.1 0.6 -0.2
v 0.1 0.6 -0.3
v 0.1 0.6 -0.4
v 0.1 0.6 -0.5
v 0.1 0.6 -0.6
v 0.1 0.6 -0.7
v 0.1 0.6 -0.8
v 0.1 0.7 0.1
v 0.1 0.7 0
v 0.1 0.7 -0.1
v 0.1 0.7 -0.3
v 0.1 0.7 -0.4
v 0.1 0.7 -0.5
v 0.1 0.7 -0.6
v 0.2 0.1 -0.2
v 0.2 0.1 -0.3
v 0.2 0.2 0
v 0.2 0.2 -0.1
v 0.2 0.2 -0.2
v 0.2 0.2 -0.3
v 0.2 0.2 -0.4
v 0.2 0.2 -0.5
v 0.2 0.3 0.3
v 0.2 0.3 0.2
v 0.2 0.3 0
v 0.2 0.3 -0.1
v 0.2 0.3 -0.2
v 0.2 0.3 -0.3
v 0.2 0.3 -0.5
v 0.2 0.3 -0.7
v 0.2 0.3 -0.8
v 0.2 0.4 0.3
v 0.2 0.4 0.2
v 0.2 0.4 0
v 0.2 0.4 -0.2
v 0.2 0.4 -0.3
v 0.2 0.4 -0.4
v 0.2 0.4 -0.7
v 0.2 0.4 -0.8
v 0.2 0.5 0.3
v 0.2 0.5 0.2
v 0.2 0.5 0.1
v 0.2 0.5 0
v 0.2 0.5 -0.1
v 0.2 0.5 -0.2
v 0.2 0.5 -0.3
v 0.2 0.5 -0.4
v 0.2 0.5 -0.5
v 0.2 0.5 -0.6
v 0.2 0.5 -0.7
v 0.2 0.5 -0.8
v 0.2 0.6 0.1
v 0.2 0.6 0
v 0.2 0.6 -0.1
v 0.2 0.6 -0.2
v 0.2 0.6 -0.4
v 0.2 0.6 -0.5
v 0.2 0.6 -0.6
v -0.3 0.3 0.3
v -0.3 0.4 0.3
v -0.3 0.5 0.3
v -0.2 0.2 0.3
v -0.2 0.3 0.3
v -0.2 0.4 0.3
v -0.2 0.5 0.3
v -0.2 0.6 0.3
v -0.1 0.4 0.3
v -0.1 0.5 0.3
v -0.1 0.6 0.3
v 0 0.2 0.3
v 0 0.3 0.3
v 0 0.4 0.3
v 0 0.5 0.3
v 0 0.6 0.3
v 0.1 0.2 0.3
v 0.1 0.3 0.3
v 0.1 0.4 0.3
v 0.1 0.5 0.3
v 0.1 0.6 0.3
v 0.2 0.3 0.3
v 0.2 0.4 0.3
v 0.2 0.5 0.3
v -0.3 0.5 0.1
v -0.3 0.6 0.1
v -0.2 0.5 0.1
v -0.2 0.6 0.1
v -0.2 0.7 0.1
v -0.1 0.6 0.1
v -0.1 0.7 0.1
v 0 0.6 0.1
v 0 0.7 0.1
v 0.1 0.5 0.1
v 0.1 0.6 0.1
v 0.1 0.7 0.1
v 0.2 0.5 0.1
v 0.2 0.6 0.1
v -0.3 0.2 0
v -0.3 0.3 0
v -0.2 0.2 0
v -0.2 0.3 0
v -0.1 0.1 0
v -0.1 0.2 0
v 0 0.1 0
v 0 0.2 0
v 0.1 0.2 0
v 0.1 0.3 0
v 0.2 0.2 0
v 0.2 0.3 0
v -0.2 0.1 -0.1
v -0.2 0.2 -0.1
v -0.1 -0.5 -0.1
v -0.1 -0.4 -0.1
v -0.1 -0.2 -0.1
v -0.1 0 -0.1
v -0.1 0.1 -0.1
v -0.1 0.2 -0.1
v 0 -0.5 -0.1
v 0 -0.4 -0.1
v 0 -0.2 -0.1
v 0 0 -0.1
v 0 0.1 -0.1
v 0 0.2 -0.1
v 0.1 0.1 -0.1
v 0.1 0.2 -0.1
v -0.3 0.1 -0.2
v -0.3 0.2 -0.2
v -0.2 -0.5 -0.2
v -0.2 0.1 -0.2
v -0.2 0.2 -0.2
v -0.1 -0.5 -0.2
v -0.1 -0.4 -0.2
v -0.1 -0.2 -0.2
v -0.1 0 -0.2
v -0.1 0.1 -0.2
v 0 -0.5 -0.2
v 0 -0.4 -0.2
v 0 -0.2 -0.2
v 0 -0.1 -0.2
v 0 0 -0.2
v 0 0.1 -0.2
v 0.1 -0.5 -0.2
v 0.1 -0.1 -0.2
v 0.1 0 -0.2
v 0.1 0.1 -0.2
v 0.1 0.2 -0.2
v 0.2 0.1 -0.2
v 0.2 0.2 -0.2
v -0.3 0.1 -0.3
v -0.3 0.2 -0.3
v -0.2 -0.5 -0.3
v -0.2 0.1 -0.3
v -0.2 0.2 -0.3
v -0.1 -0.5 -0.3
v -0.1 -0.4 -0.3
v -0.1 0.1 -0.3
v 0 -0.5 -0.3
v 0 -0.4 -0.3
v 0 -0.1 -0.3
v 0 0 -0.3
v 0 0.1 -0.3
v 0.1 -0.5 -0.3
v 0.1 -0.1 -0.3
v 0.1 0 -0.3
v 0.1 0.1 -0.3
v 0.1 0.2 -0.3
v 0.2 0.1 -0.3
v 0.2 0.2 -0.3
v -0.2 0.1 -0.4
v -0.2 0.2 -0.4
v -0.1 -0.5 -0.4
v -0.1 -0.4 -0.4
v -0.1 0.1 -0.4
v -0.1 0.2 -0.4
v 0 -0.5 -0.4
v 0 -0.4 -0.4
v 0 0.1 -0.4
v 0 0.2 -0.4
v 0.1 0.1 -0.4
v 0.1 0.2 -0.4
v -0.3 0.2 -0.5
v -0.3 0.3 -0.5
v -0.2 0.2 -0.5
v -0.2 0.3 -0.5
v -0.1 0.1 -0.5
v -0.1 0.2 -0.5
v 0 0.1 -0.5
v 0 0.2 -0.5
v 0.1 0.2 -0.5
v 0.1 0.3 -0.5
v 0.2 0.2 -0.5
v 0.2 0.3 -0.5
v -0.3 0.5 -0.6
v -0.3 0.6 -0.6
v -0.2 0.5 -0.6
v -0.2 0.6 -0.6
v -0.2 0.7 -0.6
v -0.1 0.6 -0.6
v -0.1 0.7 -0.6
v 0 0.6 -0.6
v 0 0.7 -0.6
v 0.1 0.5 -0.6
v 0.1 0.6 -0.6
v 0.1 0.7 -0.6
v 0.2 0.5 -0.6
v 0.2 0.6 -0.6
v -0.1 0.6 -0.7
v -0.1 0.7 -0.7
v 0 0.6 -0.7
v 0 0.7 -0.7
v -0.3 0.3 -0.8
v -0.3 0.4 -0.8
v -0.3 0.5 -0.8
v -0.2 0.2 -0.8
v -0.2 0.3 -0.8
v -0.2 0.4 -0.8
v -0.2 0.5 -0.8
v -0.2 0.6 -0.8
v -0.1 0.2 -0.8
v -0.1 0.3 -0.8
v -0.1 0.4 -0.8
v -0.1 0.5 -0.8
v -0.1 0.6 -0.8
v 0 0.2 -0.8
v 0 0.3 -0.8
v 0 0.4 -0.8
v 0.1 0.2 -0.8
v 0.1 0.3 -0.8
v 0.1 0.4 -0.8
v 0.1 0.5 -0.8
v 0.1 0.6 -0.8
v 0.2 0.3 -0.8
v 0.2 0.4 -0.8
v 0.2 0.5 -0.8
v -0.1 -0.5 -0.1
v 0 -0.5 -0.1
v -0.2 -0.5 -0.2
v -0.1 -0.5 -0.2
v 0 -0.5 -0.2
v 0.1 -0.5 -0.2
v -0.2 -0.5 -0.3
v -0.1 -0.5 -0.3
v 0 -0.5 -0.3
v 0.1 -0.5 -0.3
v -0.1 -0.5 -0.4
v 0 -0.5 -0.4
v -0.1 0.1 0
v 0 0.1 0
v -0.2 0.1 -0.1
v -0.1 0.1 -0.1
v 0 0.1 -0.1
v 0.1 0.1 -0.1
v -0.3 0.1 -0.2
v -0.2 0.1 -0.2
v -0.1 0.1 -0.2
v 0 0.1 -0.2
v 0.1 0.1 -0.2
v 0.2 0.1 -0.2
v -0.3 0.1 -0.3
v -0.2 0.1 -0.3
v -0.1 0.1 -0.3
v 0 0.1 -0.3
v 0.1 0.1 -0.3
v 0.2 0.1 -0.3
v -0.2 0.1 -0.4
v -0.1 0.1 -0.4
v 0 0.1 -0.4
v 0.1 0.1 -0.4
v -0.1 0.1 -0.5
v 0 0.1 -0.5
v -0.2 0.2 0.3
v 0 0.2 0.3
v 0.1 0.2 0.3
v -0.2 0.2 0.2
v 0 0.2 0.2
v 0.1 0.2 0.2
v -0.3 0.2 0
v -0.2 0.2 0
v -0.1 0.2 0
v 0 0.2 0
v 0.1 0.2 0
v 0.2 0.2 0
v -0.3 0.2 -0.1
v -0.2 0.2 -0.1
v -0.1 0.2 -0.1
v 0 0.2 -0.1
v 0.1 0.2 -0.1
v 0.2 0.2 -0.1
v -0.3 0.2 -0.2
v -0.2 0.2 -0.2
v 0.1 0.2 -0.2
v 0.2 0.2 -0.2
v -0.3 0.2 -0.3
v -0.2 0.2 -0.3
v 0.1 0.2 -0.3
v 0.2 0.2 -0.3
v -0.3 0.2 -0.4
v -0.2 0.2 -0.4
v -0.1 0.2 -0.4
v 0 0.2 -0.4
v 0.1 0.2 -0.4
v 0.2 0.2 -0.4
v -0.3 0.2 -0.5
v -0.2 0.2 -0.5
v -0.1 0.2 -0.5
v 0 0.2 -0.5
v 0.1 0.2 -0.5
v 0.2 0.2 -0.5
v -0.2 0.2 -0.7
v -0.1 0.2 -0.7
v 0 0.2 -0.7
v 0.1 0.2 -0.7
v -0.2 0.2 -0.8
v -0.1 0.2 -0.8
v 0 0.2 -0.8
v 0.1 0.2 -0.8
v -0.3 0.3 0.3
v -0.2 0.3 0.3
v 0.1 0.3 0.3
v 0.2 0.3 0.3
v -0.3 0.3 0.2
v -0.2 0.3 0.2
v 0.1 0.3 0.2
v 0.2 0.3 0.2
v -0.3 0.3 0
v -0.2 0.3 0
v 0.1 0.3 0
v 0.2 0.3 0
v -0.3 0.3 -0.5
v -0.2 0.3 -0.5
v 0.1 0.3 -0.5
v 0.2 0.3 -0.5
v -0.3 0.3 -0.7
v -0.2 0.3 -0.7
v 0.1 0.3 -0.7
v 0.2 0.3 -0.7
v -0.3 0.3 -0.8
v -0.2 0.3 -0.8
v 0.1 0.3 -0.8
v 0.2 0.3 -0.8
v -0.3 0.5 0.3
v -0.2 0.5 0.3
v 0.1 0.5 0.3
v 0.2 0.5 0.3
v -0.3 0.5 0.2
v -0.2 0.5 0.2
v 0.1 0.5 0.2
v 0.2 0.5 0.2
v -0.3 0.5 0.1
v -0.2 0.5 0.1
v 0.1 0.5 0.1
v 0.2 0.5 0.1
v -0.3 0.5 -0.6
v -0.2 0.5 -0.6
v 0.1 0.5 -0.6
v 0.2 0.5 -0.6
v -0.3 0.5 -0.7
v -0.2 0.5 -0.7
v 0.1 0.5 -0.7
v 0.2 0.5 -0.7
v -0.3 0.5 -0.8
v -0.2 0.5 -0.8
v 0.1 0.5 -0.8
v 0.2 0.5 -0.8
v -0.2 0.6 0.3
v -0.1 0.6 0.3
v 0 0.6 0.3
v 0.1 0.6 0.3
v -0.2 0.6 0.2
v -0.1 0.6 0.2
v 0 0.6 0.2
v 0.1 0.6 0.2
v -0.3 0.6 0.1
v -0.2 0.6 0.1
v -0.1 0.6 0.1
v 0 0.6 0.1
v 0.1 0.6 0.1
v 0.2 0.6 0.1
v -0.3 0.6 0
v -0.2 0.6 0
v 0.1 0.6 0
v 0.2 0.6 0
v -0.3 0.6 -0.1
v -0.2 0.6 -0.1
v 0.1 0.6 -0.1
v 0.2 0.6 -0.1
v -0.2 0.6 -0.2
v 0.1 0.6 -0.2
v 0.2 0.6 -0.2
v -0.2 0.6 -0.3
v 0.1 0.6 -0.3
v -0.3 0.6 -0.4
v -0.2 0.6 -0.4
v 0.1 0.6 -0.4
v 0.2 0.6 -0.4
v -0.2 0.6 -0.5
v 0.1 0.6 -0.5
v 0.2 0.6 -0.5
v -0.3 0.6 -0.6
v -0.2 0.6 -0.6
v -0.1 0.6 -0.6
v 0 0.6 -0.6
v 0.1 0.6 -0.6
v 0.2 0.6 -0.6
v -0.2 0.6 -0.7
v -0.1 0.6 -0.7
v 0 0.6 -0.7
v 0.1 0.6 -0.7
v -0.2 0.6 -0.8
v -0.1 0.6 -0.8
v 0.1 0.6 -0.8
v -0.2 0.7 0.1
v -0.1 0.7 0.1
v 0 0.7 0.1
v 0.1 0.7 0.1
v -0.2 0.7 0
v -0.1 0.7 0
v 0 0.7 0
v 0.1 0.7 0
v -0.2 0.7 -0.1
v 0 0.7 -0.1
v 0.1 0.7 -0.1
v -0.2 0.7 -0.2
v 0 0.7 -0.2
v -0.2 0.7 -0.3
v -0.1 0.7 -0.3
v 0 0.7 -0.3
v 0.1 0.7 -0.3
v 0 0.7 -0.4
v 0.1 0.7 -0.4
v -0.2 0.7 -0.5
v -0.1 0.7 -0.5
v 0 0.7 -0.5
v 0.1 0.7 -0.5
v -0.2 0.7 -0.6
v -0.1 0.7 -0.6
v 0 0.7 -0.6
v 0.1 0.7 -0.6
v -0.1 0.7 -0.7
v 0 0.7 -0.7

# faces
f 5/8/1 2/8/1 1/8/1
f 6/8/1 2/8/1 5/8/1
f 11/3/1 4/3/1 3/3/1
f 12/10/1 5/10/1 4/10/1
f 12/10/1 6/10/1 5/10/1
f 12/3/1 4/3/1 11/3/1
f 12/10/1 7/10/1 6/10/1
f 13/10/1 7/10/1 12/10/1
f 14/10/1 7/10/1 13/10/1
f 15/3/1 8/3/1 7/3/1
f 15/10/1 7/10/1 14/10/1
f 16/3/1 8/3/1 15/3/1
f 19/9/1 10/9/1 9/9/1
f 20/10/1 11/10/1 10/10/1
f 20/9/1 10/9/1 19/9/1
f 21/4/1 12/4/1 11/4/1
f 21/10/1 11/10/1 20/10/1
f 22/10/1 13/10/1 12/10/1
f 22/4/1 12/4/1 21/4/1
f 23/6/1 14/6/1 13/6/1
f 23/10/1 13/10/1 22/10/1
f 24/10/1 15/10/1 14/10/1
f 24/6/1 14/6/1 23/6/1
f 24/10/1 16/10/1 15/10/1
f 24/10/1 17/10/1 16/10/1
f 25/10/1 17/10/1 24/10/1
f 26/7/1 18/7/1 17/7/1
f 26/10/1 17/10/1 25/10/1
f 27/7/1 18/7/1 26/7/1
f 28/4/1 20/4/1 19/4/1
f 29/10/1 21/10/1 20/10/1
f 29/4/1 20/4/1 28/4/1
f 30/10/1 21/10/1 29/10/1
f 31/6/1 22/6/1 21/6/1
f 31/10/1 21/10/1 30/10/1
f 32/4/1 25/4/1 24/4/1
f 32/10/1 23/10/1 22/10/1
f 32/4/1 24/4/1 23/4/1
f 33/10/1 26/10/1 25/10/1
f 33/4/1 25/4/1 32/4/1
f 34/10/1 26/10/1 33/10/1
f 35/4/1 27/4/1 26/4/1
f 35/10/1 26/10/1 34/10/1
f 36/4/1 27/4/1 35/4/1
f 37/3/1 31/3/1 30/3/1
f 38/6/1 22/6/1 31/6/1
f 38/3/1 31/3/1 37/3/1
f 39/10/1 33/10/1 32/10/1
f 39/6/1 22/6/1 38/6/1
f 39/10/1 32/10/1 22/10/1
f 40/3/1 34/3/1 33/3/1
f 40/10/1 33/10/1 39/10/1
f 41/3/1 34/3/1 40/3/1
f 45/11/1 43/11/1 42/11/1
f 46/11/1 43/11/1 45/11/1
f 51/8/1 45/8/1 44/8/1
f 52/8/1 45/8/1 51/8/1
f 53/8/1 47/8/1 46/8/1
f 54/8/1 47/8/1 53/8/1
f 58/7/1 49/7/1 48/7/1
f 59/10/1 50/10/1 49/10/1
f 59/7/1 49/7/1 58/7/1
f 60/10/1 50/10/1 59/10/1
f 61/10/1 56/10/1 55/10/1
f 62/9/1 57/9/1 56/9/1
f 62/10/1 56/10/1 61/10/1
f 63/9/1 57/9/1 62/9/1
f 70/9/1 65/9/1 64/9/1
f 71/10/1 66/10/1 65/10/1
f 71/9/1 65/9/1 70/9/1
f 72/10/1 66/10/1 71/10/1
f 79/10/1 68/10/1 67/10/1
f 80/4/1 69/4/1 68/4/1
f 80/10/1 68/10/1 79/10/1
f 81/4/1 69/4/1 80/4/1
f 82/3/1 73/3/1 72/3/1
f 83/10/1 74/10/1 73/10/1
f 83/3/1 73/3/1 82/3/1
f 84/3/1 75/3/1 74/3/1
f 84/10/1 74/10/1 83/10/1
f 85/10/1 76/10/1 75/10/1
f 85/3/1 75/3/1 84/3/1
f 86/6/1 78/6/1 77/6/1
f 86/10/1 76/10/1 85/10/1
f 86/6/1 77/6/1 76/6/1
f 87/3/1 79/3/1 78/3/1
f 87/6/1 78/6/1 86/6/1
f 88/3/1 79/3/1 87/3/1
f 93/11/1 90/11/1 89/11/1
f 94/11/1 90/11/1 93/11/1
f 95/2/1 92/2/1 91/2/1
f 96/2/1 92/2/1 95/2/1
f 97/2/1 94/2/1 93/2/1
f 98/2/1 94/2/1 97/2/1
f 99/11/1 98/11/1 97/11/1
f 100/11/1 98/11/1 99/11/1
f 102/2/1 100/2/1 99/2/1
f 103/2/1 100/2/1 102/2/1
f 104/11/1 96/11/1 95/11/1
f 105/11/1 96/11/1 104/11/1
f 107/8/1 102/8/1 101/8/1
f 108/8/1 102/8/1 107/8/1
f 109/1/1 106/1/1 105/1/1
f 110/1/1 106/1/1 109/1/1
f 113/10/1 112/10/1 111/10/1
f 114/10/1 112/10/1 113/10/1
f 115/11/2 116/11/2 119/11/2
f 119/11/2 116/11/2 120/11/2
f 117/2/2 118/2/2 121/2/2
f 121/2/2 118/2/2 122/2/2
f 119/2/2 120/2/2 123/2/2
f 123/2/2 120/2/2 124/2/2
f 123/11/2 124/11/2 125/11/2
f 121/11/2 122/11/2 126/11/2
f 123/11/2 125/11/2 127/11/2
f 127/11/2 125/11/2 128/11/2
f 126/11/2 122/11/2 129/11/2
f 127/2/2 128/2/2 131/2/2
f 131/2/2 128/2/2 132/2/2
f 129/11/2 122/11/2 133/11/2
f 133/11/2 122/11/2 134/11/2
f 130/8/2 131/8/2 136/8/2
f 136/8/2 131/8/2 137/8/2
f 134/1/2 135/1/2 138/1/2
f 138/1/2 135/1/2 139/1/2
f 140/10/2 141/10/2 142/10/2
f 142/10/2 141/10/2 143/10/2
f 144/11/2 145/11/2 146/11/2
f 146/11/2 145/11/2 147/11/2
f 146/2/2 147/2/2 148/2/2
f 148/2/2 147/2/2 149/2/2
f 148/11/2 149/11/2 151/11/2
f 151/11/2 149/11/2 152/11/2
f 150/1/2 151/1/2 157/1/2
f 157/1/2 151/1/2 158/1/2
f 152/8/2 153/8/2 159/8/2
f 159/8/2 153/8/2 160/8/2
f 154/9/2 155/9/2 164/9/2
f 155/10/2 156/10/2 165/10/2
f 164/9/2 155/9/2 165/9/2
f 165/10/2 156/10/2 166/10/2
f 161/10/2 162/10/2 167/10/2
f 162/9/2 163/9/2 168/9/2
f 167/10/2 162/10/2 168/10/2
f 168/9/2 163/9/2 169/9/2
f 170/7/2 171/7/2 176/7/2
f 171/10/2 172/10/2 177/10/2
f 176/7/2 171/7/2 177/7/2
f 177/10/2 172/10/2 178/10/2
f 173/10/2 174/10/2 185/10/2
f 174/9/2 175/9/2 186/9/2
f 185/10/2 174/10/2 186/10/2
f 186/9/2 175/9/2 187/9/2
f 178/3/2 179/3/2 188/3/2
f 179/10/2 180/10/2 189/10/2
f 188/3/2 179/3/2 189/3/2
f 180/6/2 181/6/2 190/6/2
f 189/10/2 180/10/2 190/10/2
f 181/6/2 182/6/2 190/6/2
f 182/10/2 183/10/2 191/10/2
f 190/6/2 182/6/2 191/6/2
f 183/6/2 184/6/2 192/6/2
f 191/10/2 183/10/2 192/10/2
f 184/3/2 185/3/2 193/3/2
f 192/6/2 184/6/2 193/6/2
f 193/3/2 185/3/2 194/3/2
f 195/8/2 196/8/2 199/8/2
f 199/8/2 196/8/2 200/8/2
f 197/3/2 198/3/2 205/3/2
f 198/10/2 199/10/2 206/10/2
f 199/10/2 200/10/2 206/10/2
f 205/3/2 198/3/2 206/3/2
f 200/10/2 201/10/2 206/10/2
f 206/10/2 201/10/2 207/10/2
f 207/10/2 201/10/2 208/10/2
f 201/3/2 202/3/2 209/3/2
f 203/4/2 204/4/2 212/4/2
f 204/10/2 205/10/2 213/10/2
f 212/4/2 204/4/2 213/4/2
f 205/10/2 206/10/2 213/10/2
f 206/10/2 207/10/2 213/10/2
f 213/10/2 207/10/2 214/10/2
f 207/6/2 208/6/2 215/6/2
f 214/10/2 207/10/2 215/10/2
f 208/10/2 201/10/2 216/10/2
f 215/6/2 208/6/2 216/6/2
f 201/3/2 209/3/2 217/3/2
f 216/10/2 201/10/2 217/10/2
f 210/5/2 211/5/2 218/5/2
f 209/10/2 210/10/2 218/10/2
f 218/5/2 211/5/2 219/5/2
f 212/9/2 213/9/2 220/9/2
f 213/10/2 214/10/2 221/10/2
f 220/9/2 213/9/2 221/9/2
f 221/10/2 214/10/2 222/10/2
f 214/3/2 215/3/2 223/3/2
f 222/10/2 214/10/2 223/10/2
f 223/3/2 215/3/2 224/3/2
f 215/10/2 216/10/2 225/10/2
f 224/3/2 215/3/2 225/3/2
f 216/6/2 217/6/2 226/6/2
f 225/10/2 216/10/2 226/10/2
f 217/3/2 209/3/2 227/3/2
f 226/6/2 217/6/2 227/6/2
f 209/10/2 218/10/2 228/10/2
f 227/3/2 209/3/2 228/3/2
f 228/10/2 218/10/2 229/10/2
f 218/9/2 219/9/2 230/9/2
f 229/10/2 218/10/2 230/10/2
f 230/9/2 219/9/2 231/9/2
f 222/3/2 223/3/2 232/3/2
f 223/10/2 224/10/2 233/10/2
f 232/3/2 223/3/2 233/3/2
f 224/6/2 225/6/2 234/6/2
f 233/10/2 224/10/2 234/10/2
f 225/3/2 226/3/2 235/3/2
f 234/6/2 225/6/2 235/6/2
f 226/3/2 227/3/2 235/3/2
f 227/6/2 228/6/2 236/6/2
f 235/3/2 227/3/2 236/3/2
f 228/3/2 229/3/2 237/3/2
f 236/6/2 228/6/2 237/6/2
f 237/3/2 229/3/2 238/3/2
f 243/9/3 240/9/3 239/9/3
f 244/4/3 241/4/3 240/4/3
f 244/9/3 240/9/3 243/9/3
f 245/4/3 241/4/3 244/4/3
f 247/9/3 244/9/3 243/9/3
f 247/7/3 245/7/3 244/7/3
f 248/9/3 246/9/3 245/9/3
f 248/7/3 245/7/3 247/7/3
f 249/9/3 246/9/3 248/9/3
f 250/7/3 243/7/3 242/7/3
f 251/9/3 247/9/3 243/9/3
f 251/7/3 243/7/3 250/7/3
f 251/9/3 248/9/3 247/9/3
f 252/9/3 248/9/3 251/9/3
f 253/3/3 249/3/3 248/3/3
f 253/9/3 248/9/3 252/9/3
f 254/3/3 249/3/3 253/3/3
f 255/9/3 251/9/3 250/9/3
f 256/7/3 252/7/3 251/7/3
f 256/9/3 251/9/3 255/9/3
f 257/9/3 253/9/3 252/9/3
f 257/7/3 252/7/3 256/7/3
f 258/7/3 254/7/3 253/7/3
f 258/9/3 253/9/3 257/9/3
f 259/7/3 254/7/3 258/7/3
f 260/4/3 257/4/3 256/4/3
f 261/9/3 258/9/3 257/9/3
f 261/4/3 257/4/3 260/4/3
f 262/9/3 258/9/3 261/9/3
f 265/3/3 264/3/3 263/3/3
f 266/3/3 264/3/3 265/3/3
f 268/3/3 267/3/3 266/3/3
f 269/3/3 267/3/3 268/3/3
f 270/6/3 269/6/3 268/6/3
f 271/6/3 269/6/3 270/6/3
f 273/3/3 271/3/3 270/3/3
f 274/3/3 271/3/3 273/3/3
f 275/3/3 273/3/3 272/3/3
f 276/3/3 273/3/3 275/3/3
f 279/3/3 278/3/3 277/3/3
f 280/3/3 278/3/3 279/3/3
f 283/8/3 282/8/3 281/8/3
f 284/8/3 282/8/3 283/8/3
f 287/3/3 286/3/3 285/3/3
f 288/3/3 286/3/3 287/3/3
f 295/8/3 290/8/3 289/8/3
f 296/8/3 290/8/3 295/8/3
f 297/11/3 292/11/3 291/11/3
f 298/2/3 293/2/3 292/2/3
f 298/11/3 292/11/3 297/11/3
f 299/11/3 294/11/3 293/11/3
f 299/2/3 293/2/3 298/2/3
f 300/2/3 295/2/3 294/2/3
f 300/11/3 294/11/3 299/11/3
f 301/2/3 295/2/3 300/2/3
f 303/1/3 302/1/3 301/1/3
f 304/1/3 302/1/3 303/1/3
f 308/8/3 306/8/3 305/8/3
f 309/8/3 306/8/3 308/8/3
f 310/11/3 308/11/3 307/11/3
f 311/11/3 308/11/3 310/11/3
f 312/11/3 308/11/3 311/11/3
f 313/11/3 308/11/3 312/11/3
f 314/11/3 308/11/3 313/11/3
f 321/11/3 316/11/3 315/11/3
f 321/11/3 317/11/3 316/11/3
f 321/11/3 318/11/3 317/11/3
f 322/2/3 319/2/3 318/2/3
f 322/11/3 318/11/3 321/11/3
f 323/11/3 320/11/3 319/11/3
f 323/2/3 319/2/3 322/2/3
f 324/11/3 320/11/3 323/11/3
f 326/8/3 325/8/3 324/8/3
f 327/8/3 325/8/3 326/8/3
f 328/8/4 329/8/4 331/8/4
f 331/8/4 329/8/4 332/8/4
f 330/11/4 331/11/4 333/11/4
f 333/11/4 331/11/4 334/11/4
f 334/11/4 331/11/4 335/11/4
f 336/11/4 337/11/4 341/11/4
f 337/11/4 338/11/4 341/11/4
f 338/2/4 339/2/4 342/2/4
f 341/11/4 338/11/4 342/11/4
f 339/11/4 340/11/4 343/11/4
f 342/2/4 339/2/4 343/2/4
f 343/11/4 340/11/4 344/11/4
f 344/8/4 345/8/4 346/8/4
f 346/8/4 345/8/4 347/8/4
f 348/8/4 349/8/4 352/8/4
f 352/8/4 349/8/4 353/8/4
f 350/2/4 351/2/4 354/2/4
f 351/11/4 352/11/4 355/11/4
f 354/2/4 351/2/4 355/2/4
f 355/11/4 352/11/4 356/11/4
f 356/8/4 357/8/4 358/8/4
f 358/8/4 357/8/4 359/8/4
f 360/3/4 361/3/4 362/3/4
f 362/3/4 361/3/4 363/3/4
f 364/1/4 365/1/4 366/1/4
f 366/1/4 365/1/4 367/1/4
f 368/3/4 369/3/4 370/3/4
f 370/3/4 369/3/4 371/3/4
f 372/3/4 373/3/4 374/3/4
f 374/3/4 373/3/4 375/3/4
f 375/3/4 376/3/4 377/3/4
f 377/3/4 376/3/4 378/3/4
f 379/3/4 380/3/4 382/3/4
f 382/3/4 380/3/4 383/3/4
f 381/3/4 382/3/4 384/3/4
f 384/3/4 382/3/4 385/3/4
f 386/10/4 387/10/4 388/10/4
f 388/10/4 387/10/4 389/10/4
f 390/7/4 391/7/4 394/7/4
f 391/4/4 392/4/4 395/4/4
f 394/7/4 391/7/4 395/7/4
f 395/4/4 392/4/4 396/4/4
f 393/9/4 394/9/4 398/9/4
f 394/7/4 395/7/4 399/7/4
f 398/9/4 394/9/4 399/9/4
f 395/9/4 396/9/4 400/9/4
f 399/7/4 395/7/4 400/7/4
f 396/4/4 397/4/4 401/4/4
f 400/9/4 396/9/4 401/9/4
f 401/4/4 397/4/4 402/4/4
f 398/7/4 399/7/4 403/7/4
f 399/9/4 400/9/4 404/9/4
f 403/7/4 399/7/4 404/7/4
f 400/7/4 401/7/4 405/7/4
f 404/9/4 400/9/4 405/9/4
f 403/9/4 404/9/4 406/9/4
f 404/5/4 405/5/4 407/5/4
f 406/9/4 404/9/4 407/9/4
f 405/7/4 401/7/4 408/7/4
f 407/5/4 405/5/4 408/5/4
f 401/9/4 402/9/4 409/9/4
f 408/7/4 401/7/4 409/7/4
f 409/9/4 402/9/4 410/9/4
f 407/5/4 408/5/4 411/5/4
f 408/9/4 409/9/4 412/9/4
f 411/5/4 408/5/4 412/5/4
f 412/9/4 409/9/4 413/9/4
f 417/11/5 415/11/5 414/11/5
f 418/11/5 415/11/5 417/11/5
f 420/11/5 417/11/5 416/11/5
f 420/11/5 419/11/5 418/11/5
f 420/11/5 418/11/5 417/11/5
f 421/11/5 419/11/5 420/11/5
f 422/11/5 419/11/5 421/11/5
f 423/11/5 419/11/5 422/11/5
f 424/2/5 422/2/5 421/2/5
f 425/2/5 422/2/5 424/2/5
f 429/8/5 427/8/5 426/8/5
f 430/8/5 427/8/5 429/8/5
f 433/8/5 429/8/5 428/8/5
f 434/8/5 429/8/5 433/8/5
f 435/1/5 431/1/5 430/1/5
f 436/1/5 431/1/5 435/1/5
f 438/8/5 433/8/5 432/8/5
f 439/8/5 433/8/5 438/8/5
f 442/8/5 437/8/5 436/8/5
f 443/8/5 437/8/5 442/8/5
f 444/8/5 440/8/5 439/8/5
f 445/8/5 440/8/5 444/8/5
f 446/8/5 442/8/5 441/8/5
f 447/8/5 442/8/5 446/8/5
f 448/1/5 446/1/5 445/1/5
f 449/1/5 446/1/5 448/1/5
f 453/7/5 451/7/5 450/7/5
f 454/9/5 452/9/5 451/9/5
f 454/7/5 451/7/5 453/7/5
f 455/9/5 452/9/5 454/9/5
f 457/10/5 454/10/5 453/10/5
f 457/10/5 455/10/5 454/10/5
f 458/10/5 455/10/5 457/10/5
f 459/10/5 455/10/5 458/10/5
f 460/10/5 455/10/5 459/10/5
f 462/3/5 457/3/5 456/3/5
f 463/10/5 458/10/5 457/10/5
f 463/3/5 457/3/5 462/3/5
f 464/10/5 458/10/5 463/10/5
f 465/10/5 460/10/5 459/10/5
f 466/3/5 461/3/5 460/3/5
f 466/10/5 460/10/5 465/10/5
f 467/3/5 461/3/5 466/3/5
f 468/10/5 463/10/5 462/10/5
f 469/10/5 463/10/5 468/10/5
f 470/10/5 467/10/5 466/10/5
f 471/10/5 467/10/5 470/10/5
f 476/10/5 473/10/5 472/10/5
f 477/10/5 473/10/5 476/10/5
f 480/10/5 475/10/5 474/10/5
f 481/10/5 475/10/5 480/10/5
f 482/3/5 477/3/5 476/3/5
f 483/10/5 478/10/5 477/10/5
f 483/3/5 477/3/5 482/3/5
f 484/10/5 478/10/5 483/10/5
f 485/10/5 480/10/5 479/10/5
f 486/3/5 481/3/5 480/3/5
f 486/10/5 480/10/5 485/10/5
f 487/3/5 481/3/5 486/3/5
f 488/10/5 484/10/5 483/10/5
f 488/10/5 485/10/5 484/10/5
f 488/10/5 486/10/5 485/10/5
f 489/10/5 486/10/5 488/10/5
f 490/10/5 486/10/5 489/10/5
f 491/10/5 486/10/5 490/10/5
f 492/9/5 489/9/5 488/9/5
f 493/7/5 490/7/5 489/7/5
f 493/9/5 489/9/5 492/9/5
f 494/9/5 491/9/5 490/9/5
f 494/7/5 490/7/5 493/7/5
f 495/9/5 491/9/5 494/9/5
f 500/9/5 497/9/5 496/9/5
f 501/9/5 497/9/5 500/9/5
f 502/4/5 499/4/5 498/4/5
f 503/4/5 499/4/5 502/4/5
f 504/10/5 501/10/5 500/10/5
f 505/10/5 501/10/5 504/10/5
f 506/10/5 503/10/5 502/10/5
f 507/10/5 503/10/5 506/10/5
f 512/10/5 509/10/5 508/10/5
f 513/10/5 509/10/5 512/10/5
f 514/10/5 511/10/5 510/10/5
f 515/10/5 511/10/5 514/10/5
f 516/7/5 513/7/5 512/7/5
f 517/7/5 513/7/5 516/7/5
f 518/5/5 515/5/5 514/5/5
f 519/5/5 515/5/5 518/5/5
f 520/4/6 521/4/6 524/4/6
f 524/4/6 521/4/6 525/4/6
f 522/9/6 523/9/6 526/9/6
f 526/9/6 523/9/6 527/9/6
f 524/10/6 525/10/6 528/10/6
f 528/10/6 525/10/6 529/10/6
f 526/10/6 527/10/6 530/10/6
f 530/10/6 527/10/6 531/10/6
f 532/10/6 533/10/6 536/10/6
f 536/10/6 533/10/6 537/10/6
f 534/10/6 535/10/6 538/10/6
f 538/10/6 535/10/6 539/10/6
f 536/4/6 537/4/6 540/4/6
f 540/4/6 537/4/6 541/4/6
f 538/9/6 539/9/6 542/9/6
f 542/9/6 539/9/6 543/9/6
f 544/9/6 545/9/6 548/9/6
f 545/3/6 546/3/6 549/3/6
f 548/9/6 545/9/6 549/9/6
f 546/7/6 547/7/6 550/7/6
f 549/3/6 546/3/6 550/3/6
f 550/7/6 547/7/6 551/7/6
f 548/10/6 549/10/6 553/10/6
f 549/10/6 550/10/6 553/10/6
f 550/10/6 551/10/6 553/10/6
f 553/10/6 551/10/6 554/10/6
f 554/10/6 551/10/6 555/10/6
f 555/10/6 551/10/6 556/10/6
f 552/3/6 553/3/6 558/3/6
f 558/3/6 553/3/6 559/3/6
f 556/3/6 557/3/6 560/3/6
f 560/3/6 557/3/6 561/3/6
f 558/6/6 559/6/6 562/6/6
f 562/6/6 559/6/6 563/6/6
f 560/10/6 561/10/6 564/10/6
f 564/10/6 561/10/6 565/10/6
f 562/10/6 563/10/6 566/10/6
f 564/6/6 565/6/6 567/6/6
f 567/6/6 565/6/6 568/6/6
f 562/10/6 566/10/6 569/10/6
f 567/3/6 568/3/6 570/3/6
f 562/10/6 569/10/6 571/10/6
f 571/10/6 569/10/6 572/10/6
f 570/3/6 568/3/6 573/3/6
f 573/3/6 568/3/6 574/3/6
f 571/3/6 572/3/6 575/3/6
f 573/6/6 574/6/6 576/6/6
f 576/6/6 574/6/6 577/6/6
f 571/3/6 575/3/6 578/3/6
f 578/3/6 575/3/6 579/3/6
f 576/3/6 577/3/6 582/3/6
f 582/3/6 577/3/6 583/3/6
f 579/10/6 580/10/6 584/10/6
f 584/10/6 580/10/6 585/10/6
f 581/10/6 582/10/6 586/10/6
f 586/10/6 582/10/6 587/10/6
f 584/4/6 585/4/6 588/4/6
f 585/9/6 586/9/6 589/9/6
f 588/4/6 585/4/6 589/4/6
f 586/9/6 587/9/6 589/9/6
f 589/9/6 587/9/6 590/9/6
f 591/3/6 592/3/6 595/3/6
f 592/6/6 593/6/6 596/6/6
f 595/3/6 592/3/6 596/3/6
f 593/3/6 594/3/6 597/3/6
f 596/6/6 593/6/6 597/6/6
f 597/3/6 594/3/6 598/3/6
f 595/10/6 596/10/6 599/10/6
f 596/10/6 597/10/6 599/10/6
f 597/10/6 598/10/6 599/10/6
f 599/10/6 598/10/6 600/10/6
f 600/10/6 598/10/6 601/10/6
f 599/3/6 600/3/6 602/3/6
f 600/6/6 601/6/6 603/6/6
f 602/3/6 600/3/6 603/3/6
f 602/10/6 603/10/6 604/10/6
f 604/10/6 603/10/6 605/10/6
f 603/6/6 601/6/6 606/6/6
f 605/10/6 603/10/6 606/10/6
f 606/6/6 601/6/6 607/6/6
f 605/10/6 606/10/6 608/10/6
f 606/10/6 607/10/6 608/10/6
f 608/10/6 607/10/6 609/10/6
f 604/6/6 605/6/6 610/6/6
f 605/10/6 608/10/6 611/10/6
f 610/6/6 605/6/6 611/6/6
f 608/6/6 609/6/6 612/6/6
f 611/10/6 608/10/6 612/10/6
f 612/6/6 609/6/6 613/6/6
f 610/3/6 611/3/6 614/3/6
f 611/10/6 612/10/6 615/10/6
f 614/3/6 611/3/6 615/3/6
f 612/3/6 613/3/6 616/3/6
f 615/10/6 612/10/6 616/10/6
f 616/3/6 613/3/6 617/3/6
f 615/10/6 616/10/6 618/10/6
f 618/10/6 616/10/6 619/10/6
