# MagicaVoxel @ Ephtracy

# group
o 

# material
mtllib parrot-2.mtl
usemtl palette

# normals
vn -1 0 0
vn 1 0 0
vn 0 0 1
vn 0 0 -1
vn 0 -1 0
vn 0 1 0

# texcoords
vt 0.767578 0.5
vt 0.794922 0.5
vt 0.904297 0.5

# verts
v -0.2 -0.2 0.3
v -0.2 -0.2 0.1
v -0.2 -0.1 0.4
v -0.2 -0.1 0.3
v -0.2 -0.1 0.1
v -0.2 -0.1 0
v -0.2 0 0
v -0.2 0 -0.1
v -0.2 0.3 0.4
v -0.2 0.3 0
v -0.2 0.3 -0.1
v -0.1 -0.2 0.4
v -0.1 -0.2 0.3
v -0.1 -0.2 0.1
v -0.1 -0.2 0
v -0.1 -0.1 0.4
v -0.1 -0.1 0.3
v -0.1 -0.1 0.1
v -0.1 -0.1 0
v -0.1 -0.1 -0.3
v -0.1 0 0
v -0.1 0 -0.1
v -0.1 0 -0.2
v -0.1 0 -0.3
v -0.1 0.1 0.5
v -0.1 0.1 0.4
v -0.1 0.1 -0.2
v -0.1 0.1 -0.3
v -0.1 0.3 0.5
v -0.1 0.3 0.4
v 0 -0.2 -0.2
v 0 -0.2 -0.4
v 0 -0.2 -0.5
v 0 -0.1 0.5
v 0 -0.1 0.4
v 0 -0.1 -0.2
v 0 -0.1 -0.3
v 0 -0.1 -0.4
v 0 -0.1 -0.5
v 0 0 0.5
v 0 0 0.4
v 0 0 -0.1
v 0 0 -0.2
v 0 0 -0.3
v 0 0 -0.4
v 0 0.1 0.5
v 0 0.1 0.4
v 0 0.1 -0.1
v 0 0.1 -0.2
v 0 0.2 -0.1
v 0 0.2 -0.2
v 0.1 -0.2 -0.2
v 0.1 -0.2 -0.3
v 0.1 -0.1 0.5
v 0.1 -0.1 0.4
v 0.1 -0.1 -0.2
v 0.1 -0.1 -0.3
v 0.1 0 0.5
v 0.1 0 0.4
v 0.1 0 -0.2
v 0.1 0 -0.3
v 0.1 0.1 0.5
v 0.1 0.1 0.4
v 0.1 0.1 -0.1
v 0.1 0.1 -0.2
v 0.1 0.1 -0.3
v 0.1 0.2 -0.1
v 0.1 0.2 -0.2
v 0.2 -0.2 0.4
v 0.2 -0.2 0.3
v 0.2 -0.2 0.1
v 0.2 -0.2 0
v 0.2 -0.1 0.4
v 0.2 -0.1 0.3
v 0.2 -0.1 0.1
v 0.2 -0.1 0
v 0.2 -0.1 -0.3
v 0.2 -0.1 -0.4
v 0.2 0 0
v 0.2 0 -0.1
v 0.2 0 -0.2
v 0.2 0 -0.3
v 0.2 0 -0.4
v 0.2 0.1 0.5
v 0.2 0.1 0.4
v 0.2 0.1 -0.1
v 0.2 0.1 -0.2
v 0.2 0.3 0.5
v 0.2 0.3 0.4
v 0.3 -0.2 0.3
v 0.3 -0.2 0.1
v 0.3 -0.2 -0.3
v 0.3 -0.2 -0.4
v 0.3 -0.2 -0.5
v 0.3 -0.1 0.4
v 0.3 -0.1 0.3
v 0.3 -0.1 0.1
v 0.3 -0.1 0
v 0.3 -0.1 -0.3
v 0.3 -0.1 -0.4
v 0.3 -0.1 -0.5
v 0.3 0 0
v 0.3 0 -0.1
v 0.3 0.3 0.4
v 0.3 0.3 0
v 0.3 0.3 -0.1
v -0.1 0.1 0.5
v -0.1 0.3 0.5
v 0 -0.1 0.5
v 0 0 0.5
v 0 0.1 0.5
v 0.1 -0.1 0.5
v 0.1 0 0.5
v 0.1 0.1 0.5
v 0.2 0.1 0.5
v 0.2 0.3 0.5
v -0.2 -0.1 0.4
v -0.2 0.3 0.4
v -0.1 -0.2 0.4
v -0.1 -0.1 0.4
v -0.1 0.1 0.4
v -0.1 0.3 0.4
v 0 -0.1 0.4
v 0 0 0.4
v 0 0.1 0.4
v 0.1 -0.1 0.4
v 0.1 0 0.4
v 0.1 0.1 0.4
v 0.2 -0.2 0.4
v 0.2 -0.1 0.4
v 0.2 0.1 0.4
v 0.2 0.3 0.4
v 0.3 -0.1 0.4
v 0.3 0.3 0.4
v -0.2 -0.2 0.3
v -0.2 -0.1 0.3
v -0.1 -0.2 0.3
v -0.1 -0.1 0.3
v 0.2 -0.2 0.3
v 0.2 -0.1 0.3
v 0.3 -0.2 0.3
v 0.3 -0.1 0.3
v -0.1 0 -0.2
v -0.1 0.1 -0.2
v 0 -0.2 -0.2
v 0 -0.1 -0.2
v 0 0 -0.2
v 0 0.1 -0.2
v 0.1 -0.2 -0.2
v 0.1 -0.1 -0.2
v 0.1 -0.2 -0.3
v 0.1 -0.1 -0.3
v 0.2 -0.1 -0.3
v 0.3 -0.2 -0.3
v 0.3 -0.1 -0.3
v -0.2 -0.2 0.1
v -0.2 -0.1 0.1
v -0.1 -0.2 0.1
v -0.1 -0.1 0.1
v 0.2 -0.2 0.1
v 0.2 -0.1 0.1
v 0.3 -0.2 0.1
v 0.3 -0.1 0.1
v -0.2 -0.1 0
v -0.2 0 0
v -0.1 -0.2 0
v -0.1 -0.1 0
v -0.1 0 0
v 0.2 -0.2 0
v 0.2 -0.1 0
v 0.2 0 0
v 0.3 -0.1 0
v 0.3 0 0
v -0.2 0 -0.1
v -0.2 0.3 -0.1
v -0.1 0 -0.1
v -0.1 0.1 -0.1
v 0 0 -0.1
v 0 0.1 -0.1
v 0 0.2 -0.1
v 0.1 0.1 -0.1
v 0.1 0.2 -0.1
v 0.2 0 -0.1
v 0.2 0.1 -0.1
v 0.3 0 -0.1
v 0.3 0.3 -0.1
v 0 0.1 -0.2
v 0 0.2 -0.2
v 0.1 0 -0.2
v 0.1 0.1 -0.2
v 0.1 0.2 -0.2
v 0.2 0 -0.2
v 0.2 0.1 -0.2
v -0.1 -0.1 -0.3
v -0.1 0 -0.3
v -0.1 0.1 -0.3
v 0 -0.1 -0.3
v 0 0 -0.3
v 0.1 0 -0.3
v 0.1 0.1 -0.3
v 0 -0.1 -0.4
v 0 0 -0.4
v 0.2 -0.1 -0.4
v 0.2 0 -0.4
v 0 -0.2 -0.5
v 0 -0.1 -0.5
v 0.3 -0.2 -0.5
v 0.3 -0.1 -0.5
v -0.1 -0.2 0.4
v 0.2 -0.2 0.4
v -0.2 -0.2 0.3
v -0.1 -0.2 0.3
v 0.2 -0.2 0.3
v 0.3 -0.2 0.3
v -0.2 -0.2 0.1
v -0.1 -0.2 0.1
v 0.2 -0.2 0.1
v 0.3 -0.2 0.1
v -0.1 -0.2 0
v 0.2 -0.2 0
v 0 -0.2 -0.2
v 0.1 -0.2 -0.2
v 0.1 -0.2 -0.3
v 0.3 -0.2 -0.3
v 0 -0.2 -0.4
v 0.3 -0.2 -0.4
v 0 -0.2 -0.5
v 0.3 -0.2 -0.5
v 0 -0.1 0.5
v 0.1 -0.1 0.5
v -0.2 -0.1 0.4
v -0.1 -0.1 0.4
v 0 -0.1 0.4
v 0.1 -0.1 0.4
v 0.2 -0.1 0.4
v 0.3 -0.1 0.4
v -0.2 -0.1 0.3
v -0.1 -0.1 0.3
v 0.2 -0.1 0.3
v 0.3 -0.1 0.3
v -0.2 -0.1 0.1
v -0.1 -0.1 0.1
v 0.2 -0.1 0.1
v 0.3 -0.1 0.1
v -0.2 -0.1 0
v -0.1 -0.1 0
v 0.2 -0.1 0
v 0.3 -0.1 0
v 0 -0.1 -0.2
v 0.1 -0.1 -0.2
v -0.1 -0.1 -0.3
v 0 -0.1 -0.3
v 0.1 -0.1 -0.3
v 0.2 -0.1 -0.3
v -0.2 0 0
v -0.1 0 0
v 0.2 0 0
v 0.3 0 0
v -0.2 0 -0.1
v -0.1 0 -0.1
v 0.2 0 -0.1
v 0.3 0 -0.1
v -0.1 0.1 0.5
v 0 0.1 0.5
v 0.1 0.1 0.5
v 0.2 0.1 0.5
v -0.1 0.1 0.4
v 0 0.1 0.4
v 0.1 0.1 0.4
v 0.2 0.1 0.4
v 0.2 -0.1 -0.3
v 0.3 -0.1 -0.3
v 0 -0.1 -0.4
v 0.2 -0.1 -0.4
v 0.3 -0.1 -0.4
v 0 -0.1 -0.5
v 0.3 -0.1 -0.5
v -0.1 0 -0.1
v 0 0 -0.1
v -0.1 0 -0.2
v 0 0 -0.2
v 0.1 0 -0.2
v 0.2 0 -0.2
v 0 0 -0.3
v 0.1 0 -0.3
v 0.2 0 -0.3
v 0 0 -0.4
v 0.2 0 -0.4
v 0.1 0.1 -0.1
v 0.2 0.1 -0.1
v -0.1 0.1 -0.2
v 0 0.1 -0.2
v 0.1 0.1 -0.2
v 0.2 0.1 -0.2
v -0.1 0.1 -0.3
v 0.1 0.1 -0.3
v 0 0.2 -0.1
v 0.1 0.2 -0.1
v 0 0.2 -0.2
v 0.1 0.2 -0.2
v -0.1 0.3 0.5
v 0.2 0.3 0.5
v -0.2 0.3 0.4
v -0.1 0.3 0.4
v 0.2 0.3 0.4
v 0.3 0.3 0.4
v -0.2 0.3 0
v 0.3 0.3 0
v -0.2 0.3 -0.1
v 0.3 0.3 -0.1

# faces
f 4/2/1 2/2/1 1/2/1
f 5/2/1 2/2/1 4/2/1
f 7/2/1 4/2/1 3/2/1
f 7/2/1 6/2/1 5/2/1
f 7/2/1 5/2/1 4/2/1
f 9/2/1 7/2/1 3/2/1
f 10/3/1 8/3/1 7/3/1
f 10/2/1 7/2/1 9/2/1
f 11/3/1 8/3/1 10/3/1
f 16/2/1 13/2/1 12/2/1
f 17/2/1 13/2/1 16/2/1
f 18/2/1 15/2/1 14/2/1
f 19/2/1 15/2/1 18/2/1
f 21/2/1 20/2/1 19/2/1
f 22/2/1 20/2/1 21/2/1
f 23/2/1 20/2/1 22/2/1
f 24/2/1 20/2/1 23/2/1
f 27/3/1 24/3/1 23/3/1
f 28/3/1 24/3/1 27/3/1
f 29/1/1 26/1/1 25/1/1
f 30/1/1 26/1/1 29/1/1
f 36/2/1 32/2/1 31/2/1
f 37/2/1 32/2/1 36/2/1
f 38/3/1 33/3/1 32/3/1
f 38/2/1 32/2/1 37/2/1
f 39/3/1 33/3/1 38/3/1
f 40/3/1 35/3/1 34/3/1
f 41/3/1 35/3/1 40/3/1
f 44/3/1 38/3/1 37/3/1
f 45/3/1 38/3/1 44/3/1
f 46/1/1 41/1/1 40/1/1
f 47/1/1 41/1/1 46/1/1
f 48/2/1 43/2/1 42/2/1
f 49/2/1 43/2/1 48/2/1
f 50/3/1 49/3/1 48/3/1
f 51/3/1 49/3/1 50/3/1
f 52/2/2 53/2/2 56/2/2
f 56/2/2 53/2/2 57/2/2
f 54/3/2 55/3/2 58/3/2
f 58/3/2 55/3/2 59/3/2
f 58/1/2 59/1/2 62/1/2
f 62/1/2 59/1/2 63/1/2
f 60/3/2 61/3/2 65/3/2
f 65/3/2 61/3/2 66/3/2
f 64/3/2 65/3/2 67/3/2
f 67/3/2 65/3/2 68/3/2
f 69/2/2 70/2/2 73/2/2
f 73/2/2 70/2/2 74/2/2
f 71/2/2 72/2/2 75/2/2
f 75/2/2 72/2/2 76/2/2
f 76/2/2 77/2/2 79/2/2
f 79/2/2 77/2/2 80/2/2
f 80/2/2 77/2/2 81/2/2
f 77/3/2 78/3/2 82/3/2
f 81/2/2 77/2/2 82/2/2
f 82/3/2 78/3/2 83/3/2
f 80/3/2 81/3/2 86/3/2
f 86/3/2 81/3/2 87/3/2
f 84/1/2 85/1/2 88/1/2
f 88/1/2 85/1/2 89/1/2
f 90/2/2 91/2/2 96/2/2
f 96/2/2 91/2/2 97/2/2
f 92/2/2 93/2/2 99/2/2
f 93/3/2 94/3/2 100/3/2
f 99/2/2 93/2/2 100/2/2
f 100/3/2 94/3/2 101/3/2
f 97/2/2 98/2/2 102/2/2
f 95/2/2 96/2/2 102/2/2
f 96/2/2 97/2/2 102/2/2
f 95/2/2 102/2/2 104/2/2
f 102/3/2 103/3/2 105/3/2
f 104/2/2 102/2/2 105/2/2
f 105/3/2 103/3/2 106/3/2
f 111/1/3 108/1/3 107/1/3
f 112/3/3 110/3/3 109/3/3
f 113/1/3 111/1/3 110/1/3
f 113/3/3 110/3/3 112/3/3
f 114/1/3 108/1/3 111/1/3
f 114/1/3 111/1/3 113/1/3
f 115/1/3 108/1/3 114/1/3
f 116/1/3 108/1/3 115/1/3
f 120/2/3 118/2/3 117/2/3
f 121/2/3 118/2/3 120/2/3
f 122/2/3 118/2/3 121/2/3
f 123/2/3 120/2/3 119/2/3
f 123/2/3 121/2/3 120/2/3
f 124/2/3 121/2/3 123/2/3
f 125/2/3 121/2/3 124/2/3
f 126/2/3 123/2/3 119/2/3
f 129/2/3 126/2/3 119/2/3
f 129/2/3 128/2/3 127/2/3
f 129/2/3 127/2/3 126/2/3
f 130/2/3 128/2/3 129/2/3
f 131/2/3 128/2/3 130/2/3
f 133/2/3 131/2/3 130/2/3
f 133/2/3 132/2/3 131/2/3
f 134/2/3 132/2/3 133/2/3
f 137/2/3 136/2/3 135/2/3
f 138/2/3 136/2/3 137/2/3
f 141/2/3 140/2/3 139/2/3
f 142/2/3 140/2/3 141/2/3
f 147/3/3 144/3/3 143/3/3
f 148/3/3 144/3/3 147/3/3
f 149/2/3 146/2/3 145/2/3
f 150/2/3 146/2/3 149/2/3
f 153/2/3 152/2/3 151/2/3
f 154/2/3 153/2/3 151/2/3
f 155/2/3 153/2/3 154/2/3
f 156/2/4 157/2/4 158/2/4
f 158/2/4 157/2/4 159/2/4
f 160/2/4 161/2/4 162/2/4
f 162/2/4 161/2/4 163/2/4
f 164/2/4 165/2/4 167/2/4
f 167/2/4 165/2/4 168/2/4
f 166/2/4 167/2/4 169/2/4
f 169/2/4 167/2/4 170/2/4
f 170/2/4 171/2/4 172/2/4
f 172/2/4 171/2/4 173/2/4
f 174/3/4 175/3/4 176/3/4
f 176/3/4 175/3/4 177/3/4
f 176/2/4 177/2/4 178/2/4
f 177/3/4 175/3/4 179/3/4
f 178/2/4 177/2/4 179/2/4
f 179/3/4 175/3/4 180/3/4
f 180/3/4 175/3/4 182/3/4
f 181/3/4 182/3/4 184/3/4
f 183/3/4 184/3/4 185/3/4
f 182/3/4 175/3/4 186/3/4
f 185/3/4 184/3/4 186/3/4
f 184/3/4 182/3/4 186/3/4
f 187/3/4 188/3/4 190/3/4
f 190/3/4 188/3/4 191/3/4
f 189/3/4 190/3/4 192/3/4
f 192/3/4 190/3/4 193/3/4
f 194/2/4 195/2/4 197/2/4
f 195/3/4 196/3/4 198/3/4
f 197/2/4 195/2/4 198/2/4
f 198/3/4 196/3/4 199/3/4
f 199/3/4 196/3/4 200/3/4
f 201/3/4 202/3/4 203/3/4
f 203/3/4 202/3/4 204/3/4
f 205/3/4 206/3/4 207/3/4
f 207/3/4 206/3/4 208/3/4
f 212/2/5 210/2/5 209/2/5
f 213/2/5 210/2/5 212/2/5
f 215/2/5 212/2/5 211/2/5
f 215/2/5 214/2/5 213/2/5
f 215/2/5 213/2/5 212/2/5
f 216/2/5 214/2/5 215/2/5
f 217/2/5 214/2/5 216/2/5
f 218/2/5 214/2/5 217/2/5
f 219/2/5 217/2/5 216/2/5
f 220/2/5 217/2/5 219/2/5
f 223/2/5 222/2/5 221/2/5
f 225/2/5 223/2/5 221/2/5
f 225/2/5 224/2/5 223/2/5
f 226/2/5 224/2/5 225/2/5
f 227/3/5 226/3/5 225/3/5
f 228/3/5 226/3/5 227/3/5
f 233/3/5 230/3/5 229/3/5
f 234/3/5 230/3/5 233/3/5
f 237/2/5 232/2/5 231/2/5
f 238/2/5 232/2/5 237/2/5
f 239/2/5 236/2/5 235/2/5
f 240/2/5 236/2/5 239/2/5
f 245/2/5 242/2/5 241/2/5
f 246/2/5 242/2/5 245/2/5
f 247/2/5 244/2/5 243/2/5
f 248/2/5 244/2/5 247/2/5
f 249/2/5 247/2/5 246/2/5
f 250/2/5 247/2/5 249/2/5
f 251/2/5 249/2/5 246/2/5
f 252/2/5 249/2/5 251/2/5
f 253/2/5 247/2/5 250/2/5
f 254/2/5 247/2/5 253/2/5
f 259/3/5 256/3/5 255/3/5
f 260/3/5 256/3/5 259/3/5
f 261/3/5 258/3/5 257/3/5
f 262/3/5 258/3/5 261/3/5
f 267/1/5 264/1/5 263/1/5
f 268/1/5 264/1/5 267/1/5
f 269/1/5 266/1/5 265/1/5
f 270/1/5 266/1/5 269/1/5
f 271/2/6 272/2/6 274/2/6
f 274/2/6 272/2/6 275/2/6
f 273/3/6 274/3/6 276/3/6
f 274/3/6 275/3/6 276/3/6
f 276/3/6 275/3/6 277/3/6
f 278/2/6 279/2/6 280/2/6
f 280/2/6 279/2/6 281/2/6
f 282/2/6 283/2/6 285/2/6
f 285/2/6 283/2/6 286/2/6
f 284/3/6 285/3/6 287/3/6
f 285/3/6 286/3/6 287/3/6
f 287/3/6 286/3/6 288/3/6
f 289/3/6 290/3/6 293/3/6
f 293/3/6 290/3/6 294/3/6
f 291/3/6 292/3/6 295/3/6
f 292/3/6 293/3/6 295/3/6
f 295/3/6 293/3/6 296/3/6
f 297/3/6 298/3/6 299/3/6
f 299/3/6 298/3/6 300/3/6
f 301/1/6 302/1/6 304/1/6
f 304/1/6 302/1/6 305/1/6
f 303/2/6 304/2/6 307/2/6
f 305/2/6 306/2/6 307/2/6
f 304/2/6 305/2/6 307/2/6
f 307/2/6 306/2/6 308/2/6
f 307/3/6 308/3/6 309/3/6
f 309/3/6 308/3/6 310/3/6
