# MagicaVoxel @ Ephtracy

# group
o 

# material
mtllib parrot-3.mtl
usemtl palette

# normals
vn -1 0 0
vn 1 0 0
vn 0 0 1
vn 0 0 -1
vn 0 -1 0
vn 0 1 0

# texcoords
vt 0.0605469 0.5
vt 0.701172 0.5
vt 0.794922 0.5
vt 0.876953 0.5
vt 0.900391 0.5
vt 0.904297 0.5
vt 0.966797 0.5

# verts
v -0.2 -0.4 -0.1
v -0.2 -0.4 -0.3
v -0.2 -0.3 0
v -0.2 -0.3 -0.1
v -0.2 -0.3 -0.3
v -0.2 0 0
v -0.2 0 -0.1
v -0.2 0 -0.3
v -0.2 0 -0.4
v -0.2 0.1 0.2
v -0.2 0.1 0
v -0.2 0.1 -0.1
v -0.2 0.1 -0.3
v -0.2 0.1 -0.4
v -0.2 0.1 -0.5
v -0.2 0.2 0
v -0.2 0.2 -0.1
v -0.2 0.2 -0.3
v -0.2 0.2 -0.5
v -0.2 0.2 -0.6
v -0.2 0.3 0.2
v -0.2 0.3 0
v -0.2 0.3 -0.5
v -0.2 0.3 -0.6
v -0.1 -0.4 0
v -0.1 -0.4 -0.1
v -0.1 -0.4 -0.3
v -0.1 -0.4 -0.4
v -0.1 -0.3 0.3
v -0.1 -0.3 0
v -0.1 -0.3 -0.1
v -0.1 -0.3 -0.3
v -0.1 -0.3 -0.4
v -0.1 -0.2 0.4
v -0.1 -0.2 0.3
v -0.1 -0.2 0.1
v -0.1 -0.2 0
v -0.1 -0.1 0.4
v -0.1 -0.1 0.1
v -0.1 -0.1 0
v -0.1 0 0.1
v -0.1 0 0
v -0.1 0 -0.3
v -0.1 0 -0.4
v -0.1 0 -0.5
v -0.1 0.1 0.3
v -0.1 0.1 0.2
v -0.1 0.1 0.1
v -0.1 0.1 0
v -0.1 0.1 -0.4
v -0.1 0.1 -0.5
v -0.1 0.2 0.3
v -0.1 0.2 0.2
v -0.1 0.3 0.3
v -0.1 0.3 0.2
v -0.1 0.3 0.1
v -0.1 0.4 0.2
v -0.1 0.4 0.1
v 0 -0.4 0.3
v 0 -0.4 0
v 0 -0.4 -0.4
v 0 -0.4 -0.5
v 0 -0.3 0.4
v 0 -0.3 0.3
v 0 -0.3 0
v 0 -0.3 -0.4
v 0 -0.3 -0.5
v 0 -0.2 0.5
v 0 -0.2 0.4
v 0 -0.2 0.3
v 0 -0.1 0.5
v 0 -0.1 0.4
v 0 -0.1 0.2
v 0 -0.1 0.1
v 0 0 0.3
v 0 0 0.2
v 0 0 0.1
v 0 0.1 0.4
v 0 0.1 0.3
v 0 0.1 0.2
v 0 0.1 0.1
v 0 0.2 0.4
v 0 0.2 0.3
v 0 0.3 0.4
v 0 0.3 0.3
v 0 0.3 0.2
v 0 0.3 0.1
v 0 0.3 0
v 0 0.4 0.3
v 0 0.4 0.2
v 0 0.4 0.1
v 0 0.5 0.1
v 0 0.5 0
v 0.2 0.1 0
v 0.2 0.1 -0.1
v 0.2 0.1 -0.3
v 0.2 0.1 -0.4
v 0.2 0.2 0.2
v 0.2 0.2 0
v 0.2 0.2 -0.1
v 0.2 0.2 -0.3
v 0.2 0.2 -0.4
v 0.2 0.3 0.2
v 0.2 0.3 0.1
v 0.2 0.3 0
v -0.1 0.1 0
v -0.1 0.1 -0.1
v -0.1 0.1 -0.3
v -0.1 0.1 -0.4
v -0.1 0.2 0.1
v -0.1 0.2 0
v -0.1 0.2 -0.1
v -0.1 0.2 -0.3
v -0.1 0.2 -0.4
v -0.1 0.3 0.1
v -0.1 0.3 0
v 0.1 -0.4 0.3
v 0.1 -0.4 0
v 0.1 -0.4 -0.4
v 0.1 -0.4 -0.5
v 0.1 -0.3 0.4
v 0.1 -0.3 0.3
v 0.1 -0.3 0
v 0.1 -0.3 -0.4
v 0.1 -0.3 -0.5
v 0.1 -0.2 0.5
v 0.1 -0.2 0.4
v 0.1 -0.2 0.3
v 0.1 -0.1 0.5
v 0.1 -0.1 0.4
v 0.1 -0.1 0.2
v 0.1 -0.1 0.1
v 0.1 0 0.3
v 0.1 0 0.2
v 0.1 0 0.1
v 0.1 0.1 0.4
v 0.1 0.1 0.3
v 0.1 0.1 0.2
v 0.1 0.1 0.1
v 0.1 0.2 0.4
v 0.1 0.2 0.3
v 0.1 0.2 0.2
v 0.1 0.2 0.1
v 0.1 0.3 0.4
v 0.1 0.3 0.3
v 0.1 0.3 0.2
v 0.1 0.3 0.1
v 0.1 0.3 0
v 0.1 0.4 0.3
v 0.1 0.4 0.2
v 0.1 0.4 0.1
v 0.1 0.5 0.1
v 0.1 0.5 0
v 0.2 -0.4 0
v 0.2 -0.4 -0.1
v 0.2 -0.4 -0.3
v 0.2 -0.4 -0.4
v 0.2 -0.3 0.3
v 0.2 -0.3 0
v 0.2 -0.3 -0.1
v 0.2 -0.3 -0.3
v 0.2 -0.3 -0.4
v 0.2 -0.2 0.4
v 0.2 -0.2 0.3
v 0.2 -0.2 0.1
v 0.2 -0.2 0
v 0.2 -0.1 0.4
v 0.2 -0.1 0.1
v 0.2 -0.1 0
v 0.2 0 0.1
v 0.2 0 0
v 0.2 0 -0.3
v 0.2 0 -0.4
v 0.2 0 -0.5
v 0.2 0.1 0.3
v 0.2 0.1 0.2
v 0.2 0.1 0.1
v 0.2 0.1 -0.4
v 0.2 0.1 -0.5
v 0.2 0.2 0.3
v 0.2 0.2 0.2
v 0.2 0.2 0.1
v 0.2 0.2 0
v 0.2 0.3 0.3
v 0.2 0.3 0.2
v 0.2 0.3 0.1
v 0.2 0.4 0.2
v 0.2 0.4 0.1
v 0.3 -0.4 -0.1
v 0.3 -0.4 -0.3
v 0.3 -0.3 0
v 0.3 -0.3 -0.1
v 0.3 -0.3 -0.3
v 0.3 0 0
v 0.3 0 -0.1
v 0.3 0 -0.3
v 0.3 0 -0.4
v 0.3 0.1 0.2
v 0.3 0.1 0.1
v 0.3 0.1 -0.1
v 0.3 0.1 -0.3
v 0.3 0.1 -0.4
v 0.3 0.1 -0.5
v 0.3 0.2 0.1
v 0.3 0.2 0
v 0.3 0.2 -0.1
v 0.3 0.2 -0.3
v 0.3 0.2 -0.5
v 0.3 0.2 -0.6
v 0.3 0.3 0.2
v 0.3 0.3 0
v 0.3 0.3 -0.5
v 0.3 0.3 -0.6
v 0 -0.2 0.5
v 0 -0.1 0.5
v 0.1 -0.2 0.5
v 0.1 -0.1 0.5
v -0.1 -0.2 0.4
v -0.1 -0.1 0.4
v 0 -0.3 0.4
v 0 -0.2 0.4
v 0 -0.1 0.4
v 0 0.1 0.4
v 0 0.2 0.4
v 0 0.3 0.4
v 0.1 -0.3 0.4
v 0.1 -0.2 0.4
v 0.1 -0.1 0.4
v 0.1 0.1 0.4
v 0.1 0.2 0.4
v 0.1 0.3 0.4
v 0.2 -0.2 0.4
v 0.2 -0.1 0.4
v -0.1 -0.3 0.3
v -0.1 -0.2 0.3
v -0.1 0.1 0.3
v -0.1 0.2 0.3
v -0.1 0.3 0.3
v 0 -0.4 0.3
v 0 -0.3 0.3
v 0 -0.2 0.3
v 0 0 0.3
v 0 0.1 0.3
v 0 0.2 0.3
v 0 0.3 0.3
v 0 0.4 0.3
v 0.1 -0.4 0.3
v 0.1 -0.3 0.3
v 0.1 -0.2 0.3
v 0.1 0 0.3
v 0.1 0.1 0.3
v 0.1 0.2 0.3
v 0.1 0.3 0.3
v 0.1 0.4 0.3
v 0.2 -0.3 0.3
v 0.2 -0.2 0.3
v 0.2 0.1 0.3
v 0.2 0.2 0.3
v 0.2 0.3 0.3
v -0.2 0.1 0.2
v -0.2 0.3 0.2
v -0.1 0.1 0.2
v -0.1 0.2 0.2
v -0.1 0.3 0.2
v -0.1 0.4 0.2
v 0 -0.1 0.2
v 0 0 0.2
v 0 0.3 0.2
v 0 0.4 0.2
v 0.1 -0.1 0.2
v 0.1 0 0.2
v 0.1 0.3 0.2
v 0.1 0.4 0.2
v 0.2 0.1 0.2
v 0.2 0.2 0.2
v 0.2 0.3 0.2
v 0.2 0.4 0.2
v 0.3 0.1 0.2
v 0.3 0.3 0.2
v -0.1 -0.1 0.1
v -0.1 0 0.1
v -0.1 0.1 0.1
v 0 -0.1 0.1
v 0 0 0.1
v 0 0.1 0.1
v 0 0.4 0.1
v 0 0.5 0.1
v 0.1 -0.1 0.1
v 0.1 0 0.1
v 0.1 0.1 0.1
v 0.1 0.4 0.1
v 0.1 0.5 0.1
v 0.2 -0.1 0.1
v 0.2 0 0.1
v 0.2 0.1 0.1
v -0.2 -0.3 0
v -0.2 0 0
v -0.2 0.1 0
v -0.1 -0.4 0
v -0.1 -0.3 0
v -0.1 -0.2 0
v -0.1 -0.1 0
v -0.1 0 0
v -0.1 0.1 0
v 0 -0.4 0
v 0 -0.3 0
v 0.1 -0.4 0
v 0.1 -0.3 0
v 0.2 -0.4 0
v 0.2 -0.3 0
v 0.2 -0.2 0
v 0.2 -0.1 0
v 0.2 0 0
v 0.2 0.2 0
v 0.3 -0.3 0
v 0.3 0 0
v 0.3 0.2 0
v -0.2 -0.4 -0.1
v -0.2 -0.3 -0.1
v -0.1 -0.4 -0.1
v -0.1 -0.3 -0.1
v 0.2 -0.4 -0.1
v 0.2 -0.3 -0.1
v 0.3 -0.4 -0.1
v 0.3 -0.3 -0.1
v -0.2 0.1 -0.3
v -0.2 0.2 -0.3
v -0.1 0.1 -0.3
v -0.1 0.2 -0.3
v 0.2 0.1 -0.3
v 0.2 0.2 -0.3
v 0.3 0.1 -0.3
v 0.3 0.2 -0.3
v -0.1 0.1 -0.4
v -0.1 0.2 -0.4
v 0.2 0.1 -0.4
v 0.2 0.2 -0.4
v -0.2 0.2 -0.5
v -0.2 0.3 -0.5
v 0.3 0.2 -0.5
v 0.3 0.3 -0.5
v 0.1 0.2 0.2
v 0.1 0.3 0.2
v 0.2 0.2 0.2
v 0.2 0.3 0.2
v -0.1 0.2 0.1
v -0.1 0.3 0.1
v -0.1 0.4 0.1
v 0 0.3 0.1
v 0 0.4 0.1
v 0.1 0.2 0.1
v 0.1 0.3 0.1
v 0.1 0.4 0.1
v 0.2 0.1 0.1
v 0.2 0.2 0.1
v 0.2 0.3 0.1
v 0.2 0.4 0.1
v 0.3 0.1 0.1
v 0.3 0.2 0.1
v -0.2 0.2 0
v -0.2 0.3 0
v -0.1 0.1 0
v -0.1 0.2 0
v -0.1 0.3 0
v 0 0.3 0
v 0 0.5 0
v 0.1 0.3 0
v 0.1 0.5 0
v 0.2 0.1 0
v 0.2 0.2 0
v 0.2 0.3 0
v 0.3 0.2 0
v 0.3 0.3 0
v -0.2 0.1 -0.1
v -0.2 0.2 -0.1
v -0.1 0.1 -0.1
v -0.1 0.2 -0.1
v 0.2 0.1 -0.1
v 0.2 0.2 -0.1
v 0.3 0.1 -0.1
v 0.3 0.2 -0.1
v -0.2 -0.4 -0.3
v -0.2 -0.3 -0.3
v -0.2 0 -0.3
v -0.1 -0.4 -0.3
v -0.1 -0.3 -0.3
v -0.1 0 -0.3
v 0.2 -0.4 -0.3
v 0.2 -0.3 -0.3
v 0.2 0 -0.3
v 0.3 -0.4 -0.3
v 0.3 -0.3 -0.3
v 0.3 0 -0.3
v -0.2 0 -0.4
v -0.2 0.1 -0.4
v -0.1 -0.4 -0.4
v -0.1 -0.3 -0.4
v -0.1 0 -0.4
v -0.1 0.1 -0.4
v 0 -0.4 -0.4
v 0 -0.3 -0.4
v 0.1 -0.4 -0.4
v 0.1 -0.3 -0.4
v 0.2 -0.4 -0.4
v 0.2 -0.3 -0.4
v 0.2 0 -0.4
v 0.2 0.1 -0.4
v 0.3 0 -0.4
v 0.3 0.1 -0.4
v -0.2 0.1 -0.5
v -0.2 0.2 -0.5
v -0.1 0 -0.5
v -0.1 0.1 -0.5
v 0 -0.4 -0.5
v 0 -0.3 -0.5
v 0.1 -0.4 -0.5
v 0.1 -0.3 -0.5
v 0.2 0 -0.5
v 0.2 0.1 -0.5
v 0.3 0.1 -0.5
v 0.3 0.2 -0.5
v -0.2 0.2 -0.6
v -0.2 0.3 -0.6
v 0.3 0.2 -0.6
v 0.3 0.3 -0.6
v 0 -0.4 0.3
v 0.1 -0.4 0.3
v -0.1 -0.4 0
v 0 -0.4 0
v 0.1 -0.4 0
v 0.2 -0.4 0
v -0.2 -0.4 -0.1
v -0.1 -0.4 -0.1
v 0 -0.4 -0.1
v 0.2 -0.4 -0.1
v 0.3 -0.4 -0.1
v -0.2 -0.4 -0.3
v -0.1 -0.4 -0.3
v 0.2 -0.4 -0.3
v 0.3 -0.4 -0.3
v -0.1 -0.4 -0.4
v 0 -0.4 -0.4
v 0.1 -0.4 -0.4
v 0.2 -0.4 -0.4
v 0 -0.4 -0.5
v 0.1 -0.4 -0.5
v 0 -0.3 0.4
v 0.1 -0.3 0.4
v -0.1 -0.3 0.3
v 0 -0.3 0.3
v 0.1 -0.3 0.3
v 0.2 -0.3 0.3
v -0.2 -0.3 0
v -0.1 -0.3 0
v 0 -0.3 0
v 0.1 -0.3 0
v 0.2 -0.3 0
v 0.3 -0.3 0
v -0.2 -0.3 -0.1
v -0.1 -0.3 -0.1
v 0.2 -0.3 -0.1
v 0.3 -0.3 -0.1
v 0 -0.2 0.5
v 0.1 -0.2 0.5
v -0.1 -0.2 0.4
v 0 -0.2 0.4
v 0.1 -0.2 0.4
v 0.2 -0.2 0.4
v -0.1 -0.2 0.3
v 0 -0.2 0.3
v 0.1 -0.2 0.3
v 0.2 -0.2 0.3
v 0 0 0.3
v 0.1 0 0.3
v 0 0 0.2
v 0.1 0 0.2
v -0.2 0 -0.3
v -0.1 0 -0.3
v 0.2 0 -0.3
v 0.3 0 -0.3
v -0.2 0 -0.4
v -0.1 0 -0.4
v 0.2 0 -0.4
v 0.3 0 -0.4
v -0.1 0 -0.5
v 0.2 0 -0.5
v 0 0.1 0.4
v 0.1 0.1 0.4
v -0.1 0.1 0.3
v 0 0.1 0.3
v 0.1 0.1 0.3
v 0.2 0.1 0.3
v -0.2 0.1 0.2
v -0.1 0.1 0.2
v 0 0.1 0.2
v 0.1 0.1 0.2
v 0.2 0.1 0.2
v 0.3 0.1 0.2
v -0.1 0.1 0.1
v 0 0.1 0.1
v 0.1 0.1 0.1
v 0.2 0.1 0.1
v 0.3 0.1 0.1
v -0.2 0.1 0
v -0.1 0.1 0
v -0.2 0.1 -0.4
v -0.1 0.1 -0.4
v 0.2 0.1 -0.4
v 0.3 0.1 -0.4
v -0.2 0.1 -0.5
v -0.1 0.1 -0.5
v 0.2 0.1 -0.5
v 0.3 0.1 -0.5
v 0.2 0.2 0.1
v 0.3 0.2 0.1
v 0.2 0.2 0
v 0.3 0.2 0
v -0.2 0.2 -0.5
v 0.3 0.2 -0.5
v -0.2 0.2 -0.6
v 0.3 0.2 -0.6
v 0.1 0.3 0.2
v 0.2 0.3 0.2
v 0 0.3 0.1
v 0.1 0.3 0.1
v 0.2 0.3 0.1
v 0 0.3 0
v 0.1 0.3 0
v 0 -0.3 -0.4
v 0.1 -0.3 -0.4
v 0 -0.3 -0.5
v 0.1 -0.3 -0.5
v 0 -0.1 0.5
v 0.1 -0.1 0.5
v -0.1 -0.1 0.4
v 0 -0.1 0.4
v 0.1 -0.1 0.4
v 0.2 -0.1 0.4
v 0 -0.1 0.2
v 0.1 -0.1 0.2
v -0.1 -0.1 0.1
v 0 -0.1 0.1
v 0.1 -0.1 0.1
v 0.2 -0.1 0.1
v -0.1 0.1 0
v 0.2 0.1 0
v -0.2 0.1 -0.1
v -0.1 0.1 -0.1
v 0.2 0.1 -0.1
v 0.3 0.1 -0.1
v -0.2 0.1 -0.3
v -0.1 0.1 -0.3
v 0.2 0.1 -0.3
v 0.3 0.1 -0.3
v -0.1 0.1 -0.4
v 0.2 0.1 -0.4
v 0.1 0.2 0.2
v 0.2 0.2 0.2
v -0.1 0.2 0.1
v 0.1 0.2 0.1
v -0.2 0.2 0
v -0.1 0.2 0
v 0.2 0.2 0
v 0.3 0.2 0
v -0.2 0.2 -0.1
v -0.1 0.2 -0.1
v 0.2 0.2 -0.1
v 0.3 0.2 -0.1
v -0.2 0.2 -0.3
v -0.1 0.2 -0.3
v 0.2 0.2 -0.3
v 0.3 0.2 -0.3
v -0.1 0.2 -0.4
v 0.2 0.2 -0.4
v -0.2 0.2 -0.5
v 0.3 0.2 -0.5
v 0 0.3 0.4
v 0.1 0.3 0.4
v -0.1 0.3 0.3
v 0 0.3 0.3
v 0.1 0.3 0.3
v 0.2 0.3 0.3
v -0.2 0.3 0.2
v -0.1 0.3 0.2
v 0 0.3 0.2
v 0.1 0.3 0.2
v 0.2 0.3 0.2
v 0.3 0.3 0.2
v -0.1 0.3 0.1
v 0.2 0.3 0.1
v -0.2 0.3 0
v -0.1 0.3 0
v 0.2 0.3 0
v 0.3 0.3 0
v -0.2 0.3 -0.5
v 0.3 0.3 -0.5
v -0.2 0.3 -0.6
v 0.3 0.3 -0.6
v 0 0.4 0.3
v 0.1 0.4 0.3
v -0.1 0.4 0.2
v 0 0.4 0.2
v 0.1 0.4 0.2
v 0.2 0.4 0.2
v -0.1 0.4 0.1
v 0 0.4 0.1
v 0.1 0.4 0.1
v 0.2 0.4 0.1
v 0 0.5 0.1
v 0.1 0.5 0.1
v 0 0.5 0
v 0.1 0.5 0

# faces
f 4/3/1 2/3/1 1/3/1
f 5/3/1 2/3/1 4/3/1
f 6/6/1 4/6/1 3/6/1
f 7/5/1 5/5/1 4/5/1
f 7/6/1 4/6/1 6/6/1
f 8/5/1 5/5/1 7/5/1
f 11/4/1 8/4/1 7/4/1
f 11/4/1 9/4/1 8/4/1
f 11/4/1 7/4/1 6/4/1
f 12/4/1 9/4/1 11/4/1
f 13/4/1 9/4/1 12/4/1
f 14/4/1 9/4/1 13/4/1
f 16/4/1 11/4/1 10/4/1
f 16/4/1 12/4/1 11/4/1
f 17/4/1 12/4/1 16/4/1
f 18/4/1 15/4/1 14/4/1
f 18/4/1 14/4/1 13/4/1
f 19/4/1 15/4/1 18/4/1
f 21/4/1 16/4/1 10/4/1
f 22/4/1 16/4/1 21/4/1
f 23/4/1 20/4/1 19/4/1
f 24/4/1 20/4/1 23/4/1
f 30/6/1 26/6/1 25/6/1
f 31/6/1 26/6/1 30/6/1
f 32/3/1 28/3/1 27/3/1
f 33/3/1 28/3/1 32/3/1
f 35/1/1 30/1/1 29/1/1
f 36/1/1 30/1/1 35/1/1
f 37/1/1 30/1/1 36/1/1
f 38/1/1 35/1/1 34/1/1
f 38/1/1 36/1/1 35/1/1
f 39/5/1 37/5/1 36/5/1
f 39/1/1 36/1/1 38/1/1
f 40/5/1 37/5/1 39/5/1
f 41/2/1 40/2/1 39/2/1
f 42/2/1 40/2/1 41/2/1
f 43/5/1 33/5/1 32/5/1
f 44/5/1 33/5/1 43/5/1
f 48/4/1 42/4/1 41/4/1
f 49/4/1 42/4/1 48/4/1
f 50/4/1 45/4/1 44/4/1
f 51/4/1 45/4/1 50/4/1
f 52/7/1 47/7/1 46/7/1
f 53/7/1 47/7/1 52/7/1
f 54/4/1 53/4/1 52/4/1
f 55/4/1 53/4/1 54/4/1
f 57/7/1 56/7/1 55/7/1
f 58/7/1 56/7/1 57/7/1
f 64/1/1 60/1/1 59/1/1
f 65/1/1 60/1/1 64/1/1
f 66/6/1 62/6/1 61/6/1
f 67/6/1 62/6/1 66/6/1
f 69/1/1 64/1/1 63/1/1
f 70/1/1 64/1/1 69/1/1
f 71/1/1 69/1/1 68/1/1
f 72/1/1 69/1/1 71/1/1
f 76/5/1 74/5/1 73/5/1
f 77/5/1 74/5/1 76/5/1
f 79/4/1 76/4/1 75/4/1
f 79/4/1 77/4/1 76/4/1
f 80/4/1 77/4/1 79/4/1
f 81/4/1 77/4/1 80/4/1
f 82/4/1 79/4/1 78/4/1
f 83/4/1 79/4/1 82/4/1
f 84/7/1 83/7/1 82/7/1
f 85/7/1 83/7/1 84/7/1
f 89/4/1 86/4/1 85/4/1
f 90/4/1 86/4/1 89/4/1
f 91/4/1 88/4/1 87/4/1
f 92/4/1 88/4/1 91/4/1
f 93/4/1 88/4/1 92/4/1
f 99/4/1 95/4/1 94/4/1
f 100/4/1 95/4/1 99/4/1
f 101/4/1 97/4/1 96/4/1
f 102/4/1 97/4/1 101/4/1
f 103/4/1 99/4/1 98/4/1
f 104/4/1 99/4/1 103/4/1
f 105/4/1 99/4/1 104/4/1
f 106/4/2 107/4/2 111/4/2
f 111/4/2 107/4/2 112/4/2
f 108/4/2 109/4/2 113/4/2
f 113/4/2 109/4/2 114/4/2
f 110/4/2 111/4/2 115/4/2
f 115/4/2 111/4/2 116/4/2
f 117/1/2 118/1/2 122/1/2
f 122/1/2 118/1/2 123/1/2
f 119/6/2 120/6/2 124/6/2
f 124/6/2 120/6/2 125/6/2
f 121/1/2 122/1/2 127/1/2
f 127/1/2 122/1/2 128/1/2
f 126/1/2 127/1/2 129/1/2
f 129/1/2 127/1/2 130/1/2
f 131/5/2 132/5/2 134/5/2
f 134/5/2 132/5/2 135/5/2
f 133/4/2 134/4/2 137/4/2
f 134/4/2 135/4/2 137/4/2
f 137/4/2 135/4/2 138/4/2
f 138/4/2 135/4/2 139/4/2
f 136/4/2 137/4/2 140/4/2
f 140/4/2 137/4/2 141/4/2
f 140/7/2 141/7/2 144/7/2
f 144/7/2 141/7/2 145/7/2
f 142/4/2 143/4/2 146/4/2
f 146/4/2 143/4/2 147/4/2
f 145/4/2 146/4/2 149/4/2
f 149/4/2 146/4/2 150/4/2
f 147/4/2 148/4/2 151/4/2
f 151/4/2 148/4/2 152/4/2
f 152/4/2 148/4/2 153/4/2
f 154/3/2 155/3/2 159/3/2
f 159/3/2 155/3/2 160/3/2
f 156/3/2 157/3/2 161/3/2
f 161/3/2 157/3/2 162/3/2
f 158/1/2 159/1/2 164/1/2
f 164/1/2 159/1/2 165/1/2
f 165/1/2 159/1/2 166/1/2
f 163/1/2 164/1/2 167/1/2
f 164/1/2 165/1/2 167/1/2
f 165/5/2 166/5/2 168/5/2
f 167/1/2 165/1/2 168/1/2
f 168/5/2 166/5/2 169/5/2
f 168/2/2 169/2/2 170/2/2
f 170/2/2 169/2/2 171/2/2
f 161/5/2 162/5/2 172/5/2
f 172/5/2 162/5/2 173/5/2
f 170/4/2 171/4/2 177/4/2
f 173/4/2 174/4/2 178/4/2
f 178/4/2 174/4/2 179/4/2
f 175/7/2 176/7/2 180/7/2
f 180/7/2 176/7/2 181/7/2
f 177/4/2 171/4/2 182/4/2
f 182/4/2 171/4/2 183/4/2
f 180/4/2 181/4/2 184/4/2
f 184/4/2 181/4/2 185/4/2
f 185/7/2 186/7/2 187/7/2
f 187/7/2 186/7/2 188/7/2
f 189/3/2 190/3/2 192/3/2
f 192/3/2 190/3/2 193/3/2
f 191/6/2 192/6/2 194/6/2
f 192/5/2 193/5/2 195/5/2
f 194/6/2 192/6/2 195/6/2
f 195/5/2 193/5/2 196/5/2
f 195/4/2 196/4/2 200/4/2
f 194/4/2 195/4/2 200/4/2
f 196/4/2 197/4/2 200/4/2
f 200/4/2 197/4/2 201/4/2
f 201/4/2 197/4/2 202/4/2
f 198/4/2 199/4/2 204/4/2
f 194/4/2 200/4/2 205/4/2
f 205/4/2 200/4/2 206/4/2
f 202/4/2 203/4/2 207/4/2
f 201/4/2 202/4/2 207/4/2
f 207/4/2 203/4/2 208/4/2
f 198/4/2 204/4/2 210/4/2
f 204/4/2 205/4/2 210/4/2
f 210/4/2 205/4/2 211/4/2
f 208/4/2 209/4/2 212/4/2
f 212/4/2 209/4/2 213/4/2
f 216/1/3 215/1/3 214/1/3
f 217/1/3 215/1/3 216/1/3
f 221/1/3 219/1/3 218/1/3
f 222/1/3 219/1/3 221/1/3
f 226/1/3 221/1/3 220/1/3
f 227/1/3 221/1/3 226/1/3
f 229/4/3 224/4/3 223/4/3
f 230/7/3 225/7/3 224/7/3
f 230/4/3 224/4/3 229/4/3
f 231/7/3 225/7/3 230/7/3
f 232/1/3 228/1/3 227/1/3
f 233/1/3 228/1/3 232/1/3
f 240/1/3 235/1/3 234/1/3
f 241/1/3 235/1/3 240/1/3
f 243/7/3 237/7/3 236/7/3
f 244/4/3 238/4/3 237/4/3
f 244/7/3 237/7/3 243/7/3
f 245/4/3 238/4/3 244/4/3
f 247/1/3 240/1/3 239/1/3
f 248/1/3 240/1/3 247/1/3
f 250/4/3 243/4/3 242/4/3
f 251/4/3 243/4/3 250/4/3
f 253/4/3 246/4/3 245/4/3
f 254/4/3 246/4/3 253/4/3
f 255/1/3 249/1/3 248/1/3
f 256/1/3 249/1/3 255/1/3
f 257/7/3 252/7/3 251/7/3
f 258/4/3 253/4/3 252/4/3
f 258/7/3 252/7/3 257/7/3
f 259/4/3 253/4/3 258/4/3
f 262/4/3 261/4/3 260/4/3
f 263/4/3 261/4/3 262/4/3
f 264/4/3 261/4/3 263/4/3
f 268/7/3 265/7/3 264/7/3
f 269/7/3 265/7/3 268/7/3
f 270/5/3 267/5/3 266/5/3
f 271/5/3 267/5/3 270/5/3
f 276/7/3 273/7/3 272/7/3
f 277/7/3 273/7/3 276/7/3
f 278/4/3 275/4/3 274/4/3
f 278/4/3 276/4/3 275/4/3
f 279/4/3 276/4/3 278/4/3
f 283/2/3 281/2/3 280/2/3
f 284/4/3 282/4/3 281/4/3
f 284/2/3 281/2/3 283/2/3
f 285/4/3 282/4/3 284/4/3
f 291/4/3 287/4/3 286/4/3
f 292/4/3 287/4/3 291/4/3
f 293/2/3 289/2/3 288/2/3
f 294/4/3 290/4/3 289/4/3
f 294/2/3 289/2/3 293/2/3
f 295/4/3 290/4/3 294/4/3
f 300/6/3 297/6/3 296/6/3
f 301/6/3 297/6/3 300/6/3
f 302/6/3 297/6/3 301/6/3
f 303/4/3 298/4/3 297/4/3
f 303/6/3 297/6/3 302/6/3
f 304/4/3 298/4/3 303/4/3
f 305/6/3 300/6/3 299/6/3
f 306/6/3 300/6/3 305/6/3
f 309/3/3 308/3/3 307/3/3
f 310/3/3 308/3/3 309/3/3
f 315/6/3 313/6/3 312/6/3
f 315/6/3 312/6/3 311/6/3
f 315/6/3 311/6/3 310/6/3
f 316/4/3 314/4/3 313/4/3
f 316/6/3 313/6/3 315/6/3
f 317/4/3 314/4/3 316/4/3
f 320/3/3 319/3/3 318/3/3
f 321/3/3 319/3/3 320/3/3
f 324/3/3 323/3/3 322/3/3
f 325/3/3 323/3/3 324/3/3
f 328/4/3 327/4/3 326/4/3
f 329/4/3 327/4/3 328/4/3
f 332/4/3 331/4/3 330/4/3
f 333/4/3 331/4/3 332/4/3
f 336/4/3 335/4/3 334/4/3
f 337/4/3 335/4/3 336/4/3
f 340/4/3 339/4/3 338/4/3
f 341/4/3 339/4/3 340/4/3
f 342/4/4 343/4/4 344/4/4
f 344/4/4 343/4/4 345/4/4
f 346/4/4 347/4/4 349/4/4
f 347/7/4 348/7/4 349/7/4
f 349/7/4 348/7/4 350/7/4
f 346/4/4 349/4/4 351/4/4
f 351/4/4 349/4/4 352/4/4
f 352/7/4 353/7/4 356/7/4
f 356/7/4 353/7/4 357/7/4
f 354/4/4 355/4/4 358/4/4
f 358/4/4 355/4/4 359/4/4
f 360/4/4 361/4/4 363/4/4
f 363/4/4 361/4/4 364/4/4
f 365/4/4 366/4/4 367/4/4
f 367/4/4 366/4/4 368/4/4
f 362/4/4 363/4/4 369/4/4
f 369/4/4 363/4/4 370/4/4
f 370/4/4 371/4/4 372/4/4
f 372/4/4 371/4/4 373/4/4
f 374/4/4 375/4/4 376/4/4
f 376/4/4 375/4/4 377/4/4
f 378/4/4 379/4/4 380/4/4
f 380/4/4 379/4/4 381/4/4
f 382/3/4 383/3/4 385/3/4
f 383/5/4 384/5/4 386/5/4
f 385/3/4 383/3/4 386/3/4
f 386/5/4 384/5/4 387/5/4
f 388/3/4 389/3/4 391/3/4
f 389/5/4 390/5/4 392/5/4
f 391/3/4 389/3/4 392/3/4
f 392/5/4 390/5/4 393/5/4
f 394/4/4 395/4/4 398/4/4
f 398/4/4 395/4/4 399/4/4
f 396/3/4 397/3/4 400/3/4
f 397/5/4 398/5/4 401/5/4
f 400/3/4 397/3/4 401/3/4
f 401/5/4 398/5/4 403/5/4
f 402/3/4 403/3/4 404/3/4
f 403/5/4 398/5/4 405/5/4
f 404/3/4 403/3/4 405/3/4
f 405/5/4 398/5/4 406/5/4
f 406/4/4 407/4/4 408/4/4
f 408/4/4 407/4/4 409/4/4
f 410/4/4 411/4/4 413/4/4
f 414/6/4 415/6/4 416/6/4
f 416/6/4 415/6/4 417/6/4
f 412/4/4 413/4/4 418/4/4
f 413/4/4 411/4/4 419/4/4
f 418/4/4 413/4/4 419/4/4
f 419/4/4 411/4/4 420/4/4
f 420/4/4 411/4/4 421/4/4
f 422/4/4 423/4/4 424/4/4
f 424/4/4 423/4/4 425/4/4
f 429/1/5 427/1/5 426/1/5
f 430/1/5 427/1/5 429/1/5
f 433/6/5 429/6/5 428/6/5
f 434/3/5 431/3/5 430/3/5
f 434/3/5 430/3/5 429/3/5
f 434/6/5 429/6/5 433/6/5
f 435/3/5 431/3/5 434/3/5
f 437/3/5 433/3/5 432/3/5
f 437/3/5 436/3/5 435/3/5
f 437/3/5 435/3/5 434/3/5
f 437/3/5 434/3/5 433/3/5
f 438/3/5 436/3/5 437/3/5
f 439/3/5 436/3/5 438/3/5
f 440/3/5 436/3/5 439/3/5
f 441/3/5 439/3/5 438/3/5
f 442/3/5 439/3/5 441/3/5
f 443/3/5 439/3/5 442/3/5
f 444/3/5 439/3/5 443/3/5
f 445/6/5 443/6/5 442/6/5
f 446/6/5 443/6/5 445/6/5
f 450/1/5 448/1/5 447/1/5
f 451/1/5 448/1/5 450/1/5
f 454/1/5 450/1/5 449/1/5
f 455/1/5 450/1/5 454/1/5
f 456/1/5 452/1/5 451/1/5
f 457/1/5 452/1/5 456/1/5
f 459/6/5 454/6/5 453/6/5
f 460/6/5 454/6/5 459/6/5
f 461/6/5 458/6/5 457/6/5
f 462/6/5 458/6/5 461/6/5
f 466/1/5 464/1/5 463/1/5
f 467/1/5 464/1/5 466/1/5
f 469/1/5 466/1/5 465/1/5
f 470/1/5 466/1/5 469/1/5
f 471/1/5 468/1/5 467/1/5
f 472/1/5 468/1/5 471/1/5
f 475/4/5 474/4/5 473/4/5
f 476/4/5 474/4/5 475/4/5
f 481/4/5 478/4/5 477/4/5
f 482/4/5 478/4/5 481/4/5
f 483/4/5 480/4/5 479/4/5
f 484/4/5 480/4/5 483/4/5
f 485/4/5 483/4/5 482/4/5
f 486/4/5 483/4/5 485/4/5
f 490/4/5 488/4/5 487/4/5
f 491/4/5 488/4/5 490/4/5
f 494/7/5 490/7/5 489/7/5
f 495/7/5 490/7/5 494/7/5
f 496/7/5 492/7/5 491/7/5
f 497/7/5 492/7/5 496/7/5
f 499/4/5 495/4/5 494/4/5
f 499/4/5 494/4/5 493/4/5
f 500/4/5 495/4/5 499/4/5
f 501/4/5 498/4/5 497/4/5
f 501/4/5 497/4/5 496/4/5
f 502/4/5 498/4/5 501/4/5
f 503/4/5 498/4/5 502/4/5
f 504/4/5 499/4/5 493/4/5
f 505/4/5 499/4/5 504/4/5
f 510/4/5 507/4/5 506/4/5
f 511/4/5 507/4/5 510/4/5
f 512/4/5 509/4/5 508/4/5
f 513/4/5 509/4/5 512/4/5
f 516/4/5 515/4/5 514/4/5
f 517/4/5 515/4/5 516/4/5
f 520/4/5 519/4/5 518/4/5
f 521/4/5 519/4/5 520/4/5
f 525/7/5 523/7/5 522/7/5
f 526/7/5 523/7/5 525/7/5
f 527/4/5 525/4/5 524/4/5
f 528/4/5 525/4/5 527/4/5
f 529/6/6 530/6/6 531/6/6
f 531/6/6 530/6/6 532/6/6
f 533/1/6 534/1/6 536/1/6
f 536/1/6 534/1/6 537/1/6
f 535/1/6 536/1/6 539/1/6
f 537/1/6 538/1/6 539/1/6
f 536/1/6 537/1/6 539/1/6
f 539/1/6 538/1/6 540/1/6
f 535/1/6 539/1/6 541/1/6
f 541/1/6 539/1/6 542/1/6
f 540/1/6 538/1/6 543/1/6
f 543/1/6 538/1/6 544/1/6
f 545/4/6 546/4/6 548/4/6
f 548/4/6 546/4/6 549/4/6
f 547/4/6 548/4/6 551/4/6
f 549/4/6 550/4/6 551/4/6
f 548/4/6 549/4/6 551/4/6
f 551/4/6 550/4/6 552/4/6
f 552/4/6 550/4/6 553/4/6
f 553/4/6 550/4/6 554/4/6
f 552/4/6 553/4/6 555/4/6
f 555/4/6 553/4/6 556/4/6
f 557/4/6 558/4/6 560/4/6
f 559/4/6 560/4/6 562/4/6
f 560/4/6 558/4/6 563/4/6
f 562/4/6 560/4/6 563/4/6
f 561/4/6 562/4/6 565/4/6
f 565/4/6 562/4/6 566/4/6
f 563/4/6 564/4/6 567/4/6
f 567/4/6 564/4/6 568/4/6
f 569/4/6 570/4/6 573/4/6
f 571/4/6 572/4/6 574/4/6
f 569/4/6 573/4/6 575/4/6
f 573/4/6 574/4/6 575/4/6
f 574/4/6 572/4/6 576/4/6
f 575/4/6 574/4/6 576/4/6
f 577/7/6 578/7/6 580/7/6
f 580/7/6 578/7/6 581/7/6
f 579/4/6 580/4/6 584/4/6
f 584/4/6 580/4/6 585/4/6
f 581/4/6 582/4/6 586/4/6
f 586/4/6 582/4/6 587/4/6
f 583/4/6 584/4/6 589/4/6
f 587/4/6 588/4/6 590/4/6
f 583/4/6 589/4/6 591/4/6
f 591/4/6 589/4/6 592/4/6
f 590/4/6 588/4/6 593/4/6
f 593/4/6 588/4/6 594/4/6
f 595/4/6 596/4/6 597/4/6
f 597/4/6 596/4/6 598/4/6
f 599/4/6 600/4/6 602/4/6
f 602/4/6 600/4/6 603/4/6
f 601/7/6 602/7/6 605/7/6
f 602/4/6 603/4/6 606/4/6
f 605/7/6 602/7/6 606/7/6
f 603/7/6 604/7/6 607/7/6
f 606/4/6 603/4/6 607/4/6
f 607/7/6 604/7/6 608/7/6
f 609/4/6 610/4/6 611/4/6
f 611/4/6 610/4/6 612/4/6
