# MagicaVoxel @ Ephtracy

# group
o 

# material
mtllib Capitain-1.mtl
usemtl palette

# normals
vn -1 0 0
vn 1 0 0
vn 0 0 1
vn 0 0 -1
vn 0 -1 0
vn 0 1 0

# texcoords
vt 0.845703 0.5
vt 0.849609 0.5
vt 0.970703 0.5

# verts
v -0.1 -0.4 0.3
v -0.1 -0.4 -0.4
v -0.1 -0.2 0.3
v -0.1 -0.2 0
v -0.1 0.2 0
v -0.1 0.2 -0.4
v -0.1 0.3 0
v -0.1 0.3 -0.4
v -0.1 0.4 0
v -0.1 0.4 -0.4
v 0.1 -0.4 0.3
v 0.1 -0.4 0.2
v 0.1 -0.3 0.3
v 0.1 -0.3 0.2
v 0 -0.4 0.3
v 0 -0.4 0.2
v 0 -0.2 0.3
v 0 -0.2 0.2
v 0.2 -0.4 0.3
v 0.2 -0.4 -0.4
v 0.2 -0.3 0.3
v 0.2 -0.3 0.2
v 0.2 -0.2 0.2
v 0.2 -0.2 0
v 0.2 0.2 0
v 0.2 0.2 -0.4
v 0.2 0.3 0
v 0.2 0.3 -0.4
v 0.2 0.4 0
v 0.2 0.4 -0.4
v -0.1 -0.4 0.3
v -0.1 -0.2 0.3
v 0 -0.4 0.3
v 0 -0.2 0.3
v 0.1 -0.4 0.3
v 0.1 -0.3 0.3
v 0.2 -0.4 0.3
v 0.2 -0.3 0.3
v 0 -0.4 0.2
v 0 -0.2 0.2
v 0.1 -0.4 0.2
v 0.1 -0.3 0.2
v 0.2 -0.3 0.2
v 0.2 -0.2 0.2
v -0.1 -0.2 0
v -0.1 0.2 0
v -0.1 0.3 0
v -0.1 0.4 0
v 0.2 -0.2 0
v 0.2 0.2 0
v 0.2 0.3 0
v 0.2 0.4 0
v -0.1 -0.4 -0.4
v -0.1 0.2 -0.4
v -0.1 0.3 -0.4
v -0.1 0.4 -0.4
v 0.2 -0.4 -0.4
v 0.2 0.2 -0.4
v 0.2 0.3 -0.4
v 0.2 0.4 -0.4
v -0.1 -0.4 0.3
v 0 -0.4 0.3
v 0.1 -0.4 0.3
v 0.2 -0.4 0.3
v 0 -0.4 0.2
v 0.1 -0.4 0.2
v -0.1 -0.4 -0.4
v 0.2 -0.4 -0.4
v 0.1 -0.3 0.3
v 0.2 -0.3 0.3
v 0.1 -0.3 0.2
v 0.2 -0.3 0.2
v -0.1 -0.2 0.3
v 0 -0.2 0.3
v 0 -0.2 0.2
v 0.2 -0.2 0.2
v -0.1 -0.2 0
v 0.2 -0.2 0
v -0.1 0.4 0
v 0.2 0.4 0
v -0.1 0.4 -0.4
v 0.2 0.4 -0.4

# faces
f 3/3/1 2/3/1 1/3/1
f 4/3/1 2/3/1 3/3/1
f 5/3/1 2/3/1 4/3/1
f 6/3/1 2/3/1 5/3/1
f 7/1/1 6/1/1 5/1/1
f 8/1/1 6/1/1 7/1/1
f 9/2/1 8/2/1 7/2/1
f 10/2/1 8/2/1 9/2/1
f 13/3/1 12/3/1 11/3/1
f 14/3/1 12/3/1 13/3/1
f 15/3/2 16/3/2 17/3/2
f 17/3/2 16/3/2 18/3/2
f 19/3/2 20/3/2 21/3/2
f 21/3/2 20/3/2 22/3/2
f 22/3/2 20/3/2 23/3/2
f 23/3/2 20/3/2 24/3/2
f 24/3/2 20/3/2 25/3/2
f 25/3/2 20/3/2 26/3/2
f 25/1/2 26/1/2 27/1/2
f 27/1/2 26/1/2 28/1/2
f 27/2/2 28/2/2 29/2/2
f 29/2/2 28/2/2 30/2/2
f 33/3/3 32/3/3 31/3/3
f 34/3/3 32/3/3 33/3/3
f 37/3/3 36/3/3 35/3/3
f 38/3/3 36/3/3 37/3/3
f 41/3/3 40/3/3 39/3/3
f 42/3/3 40/3/3 41/3/3
f 43/3/3 40/3/3 42/3/3
f 44/3/3 40/3/3 43/3/3
f 49/3/3 46/3/3 45/3/3
f 50/1/3 47/1/3 46/1/3
f 50/3/3 46/3/3 49/3/3
f 51/2/3 48/2/3 47/2/3
f 51/1/3 47/1/3 50/1/3
f 52/2/3 48/2/3 51/2/3
f 53/3/4 54/3/4 57/3/4
f 54/1/4 55/1/4 58/1/4
f 57/3/4 54/3/4 58/3/4
f 55/2/4 56/2/4 59/2/4
f 58/1/4 55/1/4 59/1/4
f 59/2/4 56/2/4 60/2/4
f 65/3/5 62/3/5 61/3/5
f 66/3/5 64/3/5 63/3/5
f 67/3/5 65/3/5 61/3/5
f 67/3/5 66/3/5 65/3/5
f 68/3/5 64/3/5 66/3/5
f 68/3/5 66/3/5 67/3/5
f 69/3/6 70/3/6 71/3/6
f 71/3/6 70/3/6 72/3/6
f 73/3/6 74/3/6 75/3/6
f 73/3/6 75/3/6 77/3/6
f 75/3/6 76/3/6 77/3/6
f 77/3/6 76/3/6 78/3/6
f 79/2/6 80/2/6 81/2/6
f 81/2/6 80/2/6 82/2/6
