# MagicaVoxel @ Ephtracy

# group
o 

# material
mtllib GunnerV2-2.mtl
usemtl palette

# normals
vn -1 0 0
vn 1 0 0
vn 0 0 1
vn 0 0 -1
vn 0 -1 0
vn 0 1 0

# texcoords
vt 0.908203 0.5
vt 0.955078 0.5
vt 0.966797 0.5
vt 0.970703 0.5

# verts
v -0.2 -0.4 0.3
v -0.2 -0.4 0
v -0.2 -0.3 0.3
v -0.2 -0.3 0
v -0.2 0.3 0.1
v -0.2 0.3 -0.4
v -0.2 0.5 0.1
v -0.2 0.5 -0.4
v -0.1 -0.4 0
v -0.1 -0.4 -0.4
v -0.1 -0.3 0.1
v -0.1 -0.3 0
v -0.1 -0.3 -0.3
v -0.1 -0.3 -0.4
v -0.1 -0.2 0.1
v -0.1 -0.2 0
v -0.1 -0.2 -0.3
v -0.1 -0.2 -0.4
v -0.1 -0.1 0
v -0.1 -0.1 -0.1
v -0.1 0 0
v -0.1 0 -0.1
v -0.1 0 -0.3
v -0.1 0 -0.4
v -0.1 0.1 0
v -0.1 0.1 -0.1
v -0.1 0.1 -0.3
v -0.1 0.1 -0.4
v -0.1 0.2 0
v -0.1 0.2 -0.1
v -0.1 0.2 -0.4
v -0.1 0.3 0
v -0.1 0.3 -0.4
v -0.1 0.4 0.2
v -0.1 0.4 0.1
v -0.1 0.5 0.2
v -0.1 0.5 0.1
v 0 -0.4 0.3
v 0 -0.4 0.2
v 0 -0.3 0.3
v 0 -0.3 0.2
v 0.2 -0.4 0.4
v 0.2 -0.4 0.2
v 0.2 -0.3 0.4
v 0.2 -0.3 0.2
v -0.1 -0.4 0.3
v -0.1 -0.4 0.2
v -0.1 -0.3 0.3
v -0.1 -0.3 0.2
v 0.1 -0.4 0.3
v 0.1 -0.4 0.2
v 0.1 -0.3 0.3
v 0.1 -0.3 0.2
v 0.2 -0.4 0.2
v 0.2 -0.4 -0.4
v 0.2 -0.3 0.2
v 0.2 -0.3 0.1
v 0.2 -0.3 -0.3
v 0.2 -0.3 -0.4
v 0.2 -0.2 0.1
v 0.2 -0.2 0
v 0.2 -0.2 -0.2
v 0.2 -0.2 -0.3
v 0.2 -0.2 -0.4
v 0.2 -0.1 0
v 0.2 -0.1 -0.1
v 0.2 -0.1 -0.2
v 0.2 -0.1 -0.3
v 0.2 0 0
v 0.2 0 -0.1
v 0.2 0 -0.3
v 0.2 0 -0.4
v 0.2 0.1 0
v 0.2 0.1 -0.1
v 0.2 0.1 -0.3
v 0.2 0.1 -0.4
v 0.2 0.2 0
v 0.2 0.2 -0.1
v 0.2 0.2 -0.4
v 0.2 0.3 0
v 0.2 0.3 -0.4
v 0.2 0.4 0.2
v 0.2 0.4 0.1
v 0.2 0.5 0.2
v 0.2 0.5 0.1
v 0.3 -0.4 0.4
v 0.3 -0.4 0.2
v 0.3 -0.3 0.4
v 0.3 -0.3 0.2
v 0.3 0.3 0.1
v 0.3 0.3 -0.4
v 0.3 0.5 0.1
v 0.3 0.5 -0.4
v 0.2 -0.4 0.4
v 0.2 -0.3 0.4
v 0.3 -0.4 0.4
v 0.3 -0.3 0.4
v -0.2 -0.4 0.3
v -0.2 -0.3 0.3
v -0.1 -0.4 0.3
v -0.1 -0.3 0.3
v 0 -0.4 0.3
v 0 -0.3 0.3
v 0.1 -0.4 0.3
v 0.1 -0.3 0.3
v -0.1 -0.4 0.2
v -0.1 -0.3 0.2
v -0.1 0.4 0.2
v -0.1 0.5 0.2
v 0 -0.4 0.2
v 0 -0.3 0.2
v 0.1 -0.4 0.2
v 0.1 -0.3 0.2
v 0.2 -0.4 0.2
v 0.2 -0.3 0.2
v 0.2 0.4 0.2
v 0.2 0.5 0.2
v -0.2 0.3 0.1
v -0.2 0.5 0.1
v -0.1 -0.3 0.1
v -0.1 -0.2 0.1
v -0.1 0.4 0.1
v -0.1 0.5 0.1
v 0.2 -0.3 0.1
v 0.2 -0.2 0.1
v 0.2 0.4 0.1
v 0.2 0.5 0.1
v 0.3 0.3 0.1
v 0.3 0.5 0.1
v -0.1 -0.2 0
v -0.1 -0.1 0
v -0.1 0 0
v -0.1 0.1 0
v -0.1 0.2 0
v -0.1 0.3 0
v 0 -0.1 0
v 0 0 0
v 0 0.1 0
v 0 0.2 0
v 0.1 -0.1 0
v 0.1 0 0
v 0.1 0.1 0
v 0.1 0.2 0
v 0.2 -0.2 0
v 0.2 -0.1 0
v 0.2 0 0
v 0.2 0.1 0
v 0.2 0.2 0
v 0.2 0.3 0
v 0.2 -0.4 0.2
v 0.2 -0.3 0.2
v 0.3 -0.4 0.2
v 0.3 -0.3 0.2
v -0.2 -0.4 0
v -0.2 -0.3 0
v -0.1 -0.4 0
v -0.1 -0.3 0
v -0.2 0.3 -0.4
v -0.2 0.5 -0.4
v -0.1 -0.4 -0.4
v -0.1 -0.3 -0.4
v -0.1 -0.2 -0.4
v -0.1 0 -0.4
v -0.1 0.1 -0.4
v -0.1 0.2 -0.4
v -0.1 0.3 -0.4
v 0 -0.3 -0.4
v 0 -0.2 -0.4
v 0 0 -0.4
v 0 0.1 -0.4
v 0.1 -0.3 -0.4
v 0.1 -0.2 -0.4
v 0.1 0 -0.4
v 0.1 0.1 -0.4
v 0.2 -0.4 -0.4
v 0.2 -0.3 -0.4
v 0.2 -0.2 -0.4
v 0.2 0 -0.4
v 0.2 0.1 -0.4
v 0.2 0.2 -0.4
v 0.2 0.3 -0.4
v 0.3 0.3 -0.4
v 0.3 0.5 -0.4
v 0.2 -0.4 0.4
v 0.3 -0.4 0.4
v -0.2 -0.4 0.3
v -0.1 -0.4 0.3
v 0 -0.4 0.3
v 0.1 -0.4 0.3
v -0.1 -0.4 0.2
v 0 -0.4 0.2
v 0.1 -0.4 0.2
v 0.2 -0.4 0.2
v 0.3 -0.4 0.2
v -0.2 -0.4 0
v -0.1 -0.4 0
v -0.1 -0.4 -0.4
v 0.2 -0.4 -0.4
v -0.2 0.3 0.1
v 0.3 0.3 0.1
v -0.1 0.3 0
v 0.2 0.3 0
v -0.2 0.3 -0.4
v -0.1 0.3 -0.4
v 0.2 0.3 -0.4
v 0.3 0.3 -0.4
v -0.1 0.4 0.2
v 0.2 0.4 0.2
v -0.1 0.4 0.1
v 0.2 0.4 0.1
v 0.2 -0.3 0.4
v 0.3 -0.3 0.4
v -0.2 -0.3 0.3
v -0.1 -0.3 0.3
v 0 -0.3 0.3
v 0.1 -0.3 0.3
v -0.1 -0.3 0.2
v 0 -0.3 0.2
v 0.1 -0.3 0.2
v 0.2 -0.3 0.2
v 0.3 -0.3 0.2
v -0.1 -0.3 0.1
v 0.2 -0.3 0.1
v -0.2 -0.3 0
v -0.1 -0.3 0
v -0.1 -0.2 0.1
v 0.2 -0.2 0.1
v -0.1 -0.2 0
v 0.2 -0.2 0
v -0.1 0.5 0.2
v 0.2 0.5 0.2
v -0.2 0.5 0.1
v -0.1 0.5 0.1
v 0.2 0.5 0.1
v 0.3 0.5 0.1
v -0.2 0.5 -0.4
v 0.3 0.5 -0.4

# faces
f 3/4/1 2/4/1 1/4/1
f 4/4/1 2/4/1 3/4/1
f 7/3/1 6/3/1 5/3/1
f 8/3/1 6/3/1 7/3/1
f 12/4/1 10/4/1 9/4/1
f 13/4/1 10/4/1 12/4/1
f 14/4/1 10/4/1 13/4/1
f 15/4/1 12/4/1 11/4/1
f 15/4/1 13/4/1 12/4/1
f 16/4/1 13/4/1 15/4/1
f 17/1/1 14/1/1 13/1/1
f 17/4/1 13/4/1 16/4/1
f 18/1/1 14/1/1 17/1/1
f 19/4/1 17/4/1 16/4/1
f 19/4/1 18/4/1 17/4/1
f 20/4/1 18/4/1 19/4/1
f 21/1/1 20/1/1 19/1/1
f 22/4/1 18/4/1 20/4/1
f 22/1/1 20/1/1 21/1/1
f 23/4/1 18/4/1 22/4/1
f 24/4/1 18/4/1 23/4/1
f 25/4/1 22/4/1 21/4/1
f 25/4/1 23/4/1 22/4/1
f 26/4/1 23/4/1 25/4/1
f 27/1/1 24/1/1 23/1/1
f 27/4/1 23/4/1 26/4/1
f 28/1/1 24/1/1 27/1/1
f 29/1/1 26/1/1 25/1/1
f 30/4/1 27/4/1 26/4/1
f 30/1/1 26/1/1 29/1/1
f 30/4/1 28/4/1 27/4/1
f 31/4/1 28/4/1 30/4/1
f 32/3/1 30/3/1 29/3/1
f 32/3/1 31/3/1 30/3/1
f 33/3/1 31/3/1 32/3/1
f 36/3/1 35/3/1 34/3/1
f 37/3/1 35/3/1 36/3/1
f 40/4/1 39/4/1 38/4/1
f 41/4/1 39/4/1 40/4/1
f 44/4/1 43/4/1 42/4/1
f 45/4/1 43/4/1 44/4/1
f 46/4/2 47/4/2 48/4/2
f 48/4/2 47/4/2 49/4/2
f 50/4/2 51/4/2 52/4/2
f 52/4/2 51/4/2 53/4/2
f 54/4/2 55/4/2 56/4/2
f 56/4/2 55/4/2 57/4/2
f 57/4/2 55/4/2 58/4/2
f 58/4/2 55/4/2 59/4/2
f 57/4/2 58/4/2 60/4/2
f 60/4/2 58/4/2 61/4/2
f 61/4/2 58/4/2 62/4/2
f 58/1/2 59/1/2 63/1/2
f 62/4/2 58/4/2 63/4/2
f 63/1/2 59/1/2 64/1/2
f 61/4/2 62/4/2 65/4/2
f 65/4/2 62/4/2 66/4/2
f 62/1/2 63/1/2 67/1/2
f 66/4/2 62/4/2 67/4/2
f 63/4/2 64/4/2 68/4/2
f 67/1/2 63/1/2 68/1/2
f 65/1/2 66/1/2 69/1/2
f 66/4/2 67/4/2 70/4/2
f 69/1/2 66/1/2 70/1/2
f 67/4/2 68/4/2 70/4/2
f 68/4/2 64/4/2 71/4/2
f 70/4/2 68/4/2 71/4/2
f 71/4/2 64/4/2 72/4/2
f 69/4/2 70/4/2 73/4/2
f 70/4/2 71/4/2 73/4/2
f 73/4/2 71/4/2 74/4/2
f 71/1/2 72/1/2 75/1/2
f 74/4/2 71/4/2 75/4/2
f 75/1/2 72/1/2 76/1/2
f 73/1/2 74/1/2 77/1/2
f 74/4/2 75/4/2 78/4/2
f 77/1/2 74/1/2 78/1/2
f 75/4/2 76/4/2 78/4/2
f 78/4/2 76/4/2 79/4/2
f 77/3/2 78/3/2 80/3/2
f 78/3/2 79/3/2 80/3/2
f 80/3/2 79/3/2 81/3/2
f 82/3/2 83/3/2 84/3/2
f 84/3/2 83/3/2 85/3/2
f 86/4/2 87/4/2 88/4/2
f 88/4/2 87/4/2 89/4/2
f 90/3/2 91/3/2 92/3/2
f 92/3/2 91/3/2 93/3/2
f 96/4/3 95/4/3 94/4/3
f 97/4/3 95/4/3 96/4/3
f 100/4/3 99/4/3 98/4/3
f 101/4/3 99/4/3 100/4/3
f 104/4/3 103/4/3 102/4/3
f 105/4/3 103/4/3 104/4/3
f 110/4/3 107/4/3 106/4/3
f 111/4/3 107/4/3 110/4/3
f 114/4/3 113/4/3 112/4/3
f 115/4/3 113/4/3 114/4/3
f 116/3/3 109/3/3 108/3/3
f 117/3/3 109/3/3 116/3/3
f 122/3/3 119/3/3 118/3/3
f 123/3/3 119/3/3 122/3/3
f 124/4/3 121/4/3 120/4/3
f 125/4/3 121/4/3 124/4/3
f 126/3/3 122/3/3 118/3/3
f 128/3/3 127/3/3 126/3/3
f 128/3/3 126/3/3 118/3/3
f 129/3/3 127/3/3 128/3/3
f 136/4/3 131/4/3 130/4/3
f 136/1/3 132/1/3 131/1/3
f 137/4/3 133/4/3 132/4/3
f 137/1/3 132/1/3 136/1/3
f 138/1/3 134/1/3 133/1/3
f 138/4/3 133/4/3 137/4/3
f 139/3/3 135/3/3 134/3/3
f 139/1/3 134/1/3 138/1/3
f 140/4/3 138/4/3 137/4/3
f 140/4/3 137/4/3 136/4/3
f 140/4/3 139/4/3 138/4/3
f 140/4/3 136/4/3 130/4/3
f 141/4/3 139/4/3 140/4/3
f 142/4/3 139/4/3 141/4/3
f 143/3/3 135/3/3 139/3/3
f 143/4/3 139/4/3 142/4/3
f 144/4/3 140/4/3 130/4/3
f 145/1/3 141/1/3 140/1/3
f 145/4/3 140/4/3 144/4/3
f 146/4/3 142/4/3 141/4/3
f 146/1/3 141/1/3 145/1/3
f 147/1/3 143/1/3 142/1/3
f 147/4/3 142/4/3 146/4/3
f 148/3/3 135/3/3 143/3/3
f 148/1/3 143/1/3 147/1/3
f 149/3/3 135/3/3 148/3/3
f 150/4/4 151/4/4 152/4/4
f 152/4/4 151/4/4 153/4/4
f 154/4/4 155/4/4 156/4/4
f 156/4/4 155/4/4 157/4/4
f 158/3/4 159/3/4 166/3/4
f 160/4/4 161/4/4 167/4/4
f 161/1/4 162/1/4 167/1/4
f 162/4/4 163/4/4 168/4/4
f 167/1/4 162/1/4 168/1/4
f 163/1/4 164/1/4 169/1/4
f 168/4/4 163/4/4 169/4/4
f 164/4/4 165/4/4 170/4/4
f 169/1/4 164/1/4 170/1/4
f 168/4/4 169/4/4 171/4/4
f 160/4/4 167/4/4 171/4/4
f 169/4/4 170/4/4 171/4/4
f 167/4/4 168/4/4 171/4/4
f 171/4/4 170/4/4 172/4/4
f 172/4/4 170/4/4 173/4/4
f 170/4/4 165/4/4 174/4/4
f 173/4/4 170/4/4 174/4/4
f 160/4/4 171/4/4 175/4/4
f 171/1/4 172/1/4 176/1/4
f 175/4/4 171/4/4 176/4/4
f 172/4/4 173/4/4 177/4/4
f 176/1/4 172/1/4 177/1/4
f 173/1/4 174/1/4 178/1/4
f 177/4/4 173/4/4 178/4/4
f 174/4/4 165/4/4 179/4/4
f 178/1/4 174/1/4 179/1/4
f 165/3/4 166/3/4 180/3/4
f 179/4/4 165/4/4 180/4/4
f 166/3/4 159/3/4 181/3/4
f 180/3/4 166/3/4 181/3/4
f 181/3/4 159/3/4 182/3/4
f 182/3/4 159/3/4 183/3/4
f 190/4/5 187/4/5 186/4/5
f 191/4/5 189/4/5 188/4/5
f 192/4/5 189/4/5 191/4/5
f 193/4/5 185/4/5 184/4/5
f 194/4/5 185/4/5 193/4/5
f 195/4/5 192/4/5 191/4/5
f 195/4/5 190/4/5 186/4/5
f 195/4/5 193/4/5 192/4/5
f 195/4/5 191/4/5 190/4/5
f 196/4/5 193/4/5 195/4/5
f 197/4/5 193/4/5 196/4/5
f 198/4/5 193/4/5 197/4/5
f 201/3/5 200/3/5 199/3/5
f 202/3/5 200/3/5 201/3/5
f 203/3/5 201/3/5 199/3/5
f 204/3/5 201/3/5 203/3/5
f 205/3/5 200/3/5 202/3/5
f 206/3/5 200/3/5 205/3/5
f 209/3/5 208/3/5 207/3/5
f 210/3/5 208/3/5 209/3/5
f 213/4/6 214/4/6 217/4/6
f 215/4/6 216/4/6 218/4/6
f 218/4/6 216/4/6 219/4/6
f 211/4/6 212/4/6 220/4/6
f 220/4/6 212/4/6 221/4/6
f 218/4/6 219/4/6 222/4/6
f 213/4/6 217/4/6 222/4/6
f 219/4/6 220/4/6 222/4/6
f 217/4/6 218/4/6 222/4/6
f 222/4/6 220/4/6 223/4/6
f 213/4/6 222/4/6 224/4/6
f 224/4/6 222/4/6 225/4/6
f 226/4/6 227/4/6 228/4/6
f 228/4/6 227/4/6 229/4/6
f 230/3/6 231/3/6 233/3/6
f 233/3/6 231/3/6 234/3/6
f 232/3/6 233/3/6 236/3/6
f 234/3/6 235/3/6 236/3/6
f 233/3/6 234/3/6 236/3/6
f 236/3/6 235/3/6 237/3/6
