# MagicaVoxel @ Ephtracy

# group
o 

# material
mtllib GunnerV2-0.mtl
usemtl palette

# normals
vn -1 0 0
vn 1 0 0
vn 0 0 1
vn 0 0 -1
vn 0 -1 0
vn 0 1 0

# texcoords
vt 0.857422 0.5
vt 0.908203 0.5
vt 0.966797 0.5
vt 0.970703 0.5
vt 0.974609 0.5
vt 0.978516 0.5
vt 0.986328 0.5

# verts
v -0.5 -0.3 -0.1
v -0.5 -0.3 -0.3
v -0.5 -0.1 -0.1
v -0.5 -0.1 -0.2
v -0.5 -5.96046e-08 -0.2
v -0.5 -5.96046e-08 -0.3
v -0.5 0.2 0
v -0.5 0.2 -0.2
v -0.5 0.3 0.2
v -0.5 0.3 0
v -0.5 0.3 -0.2
v -0.5 0.3 -0.3
v -0.5 0.5 -0.1
v -0.5 0.5 -0.3
v -0.5 0.6 0.2
v -0.5 0.6 -0.1
v -0.4 -0.4 0
v -0.4 -0.4 -0.2
v -0.4 -0.3 0.1
v -0.4 -0.3 0
v -0.4 -0.3 -0.1
v -0.4 -0.3 -0.2
v -0.4 -0.1 0.1
v -0.4 -0.1 -0.1
v -0.4 -0.1 -0.2
v -0.4 -5.96046e-08 -0.1
v -0.4 -5.96046e-08 -0.2
v -0.4 -5.96046e-08 -0.3
v -0.4 0.1 0
v -0.4 0.1 -0.2
v -0.4 0.1 -0.3
v -0.4 0.2 0.2
v -0.4 0.2 0.1
v -0.4 0.2 0
v -0.4 0.2 -0.2
v -0.4 0.2 -0.3
v -0.4 0.3 0.2
v -0.4 0.3 0
v -0.4 0.3 -0.2
v -0.4 0.3 -0.3
v -0.4 0.5 -0.1
v -0.4 0.5 -0.3
v -0.4 0.6 -0.1
v -0.4 0.6 -0.3
v -0.3 -0.5 -0.1
v -0.3 -0.5 -0.2
v -0.3 -0.4 0.1
v -0.3 -0.4 0
v -0.3 -0.4 -0.1
v -0.3 -0.4 -0.2
v -0.3 -0.3 0.1
v -0.3 -0.3 0
v -0.3 0.1 0.2
v -0.3 0.1 0.1
v -0.3 0.2 0.2
v -0.3 0.2 0.1
v -0.3 0.5 0.3
v -0.3 0.5 0.2
v -0.3 0.6 0.2
v -0.3 0.6 -0.2
v -0.3 0.7 0.3
v -0.3 0.7 -0.2
v -0.2 -0.5 0
v -0.2 -0.5 -0.1
v -0.2 -0.4 0.2
v -0.2 -0.4 0.1
v -0.2 -0.4 0
v -0.2 -0.4 -0.1
v -0.2 -0.3 0.2
v -0.2 -0.3 0.1
v -0.1 -0.6 0
v -0.1 -0.6 -0.2
v -0.1 -0.5 0.1
v -0.1 -0.5 0
v -0.1 -0.5 -0.2
v -0.1 -0.4 0.1
v -0.1 -0.4 0
v -0.1 -0.3 0.2
v -0.1 -0.3 0.1
v -0.1 -0.2 0.1
v -0.1 -0.1 0.2
v -0.1 -0.1 0.1
v -0.1 0.4 0.3
v -0.1 0.4 0.2
v -0.1 0.6 0.2
v -0.1 0.6 -0.1
v -0.1 0.7 0.3
v -0.1 0.7 -0.1
v 0 -0.1 0.2
v 0 -0.1 0.1
v 0 0.1 0.2
v 0 0.1 0.1
v 0.1 -0.4 0.2
v 0.1 -0.4 0.1
v 0.1 -0.3 0.2
v 0.1 -0.3 0.1
v 0.1 -0.2 0.2
v 0.1 -0.2 0.1
v 0.1 -0.1 0.2
v 0.1 -0.1 0.1
v 0.3 0.3 0.2
v 0.3 0.3 0.1
v 0.3 0.4 0.2
v 0.3 0.4 0.1
v 0.3 0.6 0.2
v 0.3 0.6 -0.2
v 0.3 0.7 0.2
v 0.3 0.7 -0.2
v -0.3 0.3 0.2
v -0.3 0.3 0.1
v -0.3 0.4 0.2
v -0.3 0.4 0.1
v -0.2 0.5 0.3
v -0.2 0.5 0.2
v -0.2 0.6 0.2
v -0.2 0.6 -0.2
v -0.2 0.7 0.3
v -0.2 0.7 -0.2
v 0 -0.4 0.2
v 0 -0.4 0.1
v 0 -0.3 0.2
v 0 -0.3 0.1
v 0 -0.2 0.2
v 0 -0.2 0.1
v 0 -0.1 0.2
v 0 -0.1 0.1
v 0.1 -0.1 0.2
v 0.1 -0.1 0.1
v 0.1 0.1 0.2
v 0.1 0.1 0.1
v 0.1 0.4 0.3
v 0.1 0.4 0.2
v 0.1 0.5 0.3
v 0.1 0.5 0.2
v 0.2 -0.6 0
v 0.2 -0.6 -0.2
v 0.2 -0.5 0.1
v 0.2 -0.5 0
v 0.2 -0.5 -0.2
v 0.2 -0.4 0.1
v 0.2 -0.4 0
v 0.2 -0.3 0.2
v 0.2 -0.3 0.1
v 0.2 -0.2 0.1
v 0.2 -0.1 0.2
v 0.2 -0.1 0.1
v 0.2 0.5 0.3
v 0.2 0.5 0.2
v 0.2 0.6 0.2
v 0.2 0.6 -0.1
v 0.2 0.7 0.3
v 0.2 0.7 -0.1
v 0.3 -0.5 0
v 0.3 -0.5 -0.1
v 0.3 -0.4 0.2
v 0.3 -0.4 0.1
v 0.3 -0.4 0
v 0.3 -0.4 -0.1
v 0.3 -0.3 0.2
v 0.3 -0.3 0.1
v 0.4 -0.5 -0.1
v 0.4 -0.5 -0.2
v 0.4 -0.4 0.1
v 0.4 -0.4 0
v 0.4 -0.4 -0.1
v 0.4 -0.4 -0.2
v 0.4 -0.3 0.1
v 0.4 -0.3 0
v 0.4 0.1 0.2
v 0.4 0.1 0.1
v 0.4 0.2 0.2
v 0.4 0.2 0.1
v 0.5 -0.4 0
v 0.5 -0.4 -0.2
v 0.5 -0.3 0.1
v 0.5 -0.3 0
v 0.5 -0.3 -0.2
v 0.5 -0.2 0
v 0.5 -0.2 -0.1
v 0.5 -0.1 0.1
v 0.5 -0.1 -0.1
v 0.5 -0.1 -0.2
v 0.5 -5.96046e-08 -0.1
v 0.5 -5.96046e-08 -0.2
v 0.5 -5.96046e-08 -0.3
v 0.5 0.1 -0.1
v 0.5 0.1 -0.2
v 0.5 0.1 -0.3
v 0.5 0.2 0.2
v 0.5 0.2 0.1
v 0.5 0.2 -0.1
v 0.5 0.3 0.2
v 0.5 0.3 0.1
v 0.5 0.3 -0.2
v 0.5 0.5 0.1
v 0.5 0.5 -0.2
v 0.5 0.6 -0.2
v 0.5 0.7 0.2
v 0.5 0.7 -0.2
v 0.6 -0.3 0
v 0.6 -0.3 -0.3
v 0.6 -0.2 0
v 0.6 -0.2 -0.1
v 0.6 -0.1 -0.1
v 0.6 -0.1 -0.2
v 0.6 -5.96046e-08 -0.2
v 0.6 -5.96046e-08 -0.3
v 0.6 0.1 -0.2
v 0.6 0.1 -0.3
v 0.6 0.3 0.1
v 0.6 0.3 -0.2
v 0.6 0.5 0.1
v 0.6 0.5 -0.2
v 0.6 0.6 -0.2
v 0.6 0.6 -0.3
v -0.3 0.5 0.3
v -0.3 0.7 0.3
v -0.2 0.5 0.3
v -0.2 0.7 0.3
v -0.1 0.4 0.3
v -0.1 0.7 0.3
v 0.1 0.4 0.3
v 0.1 0.5 0.3
v 0.2 0.5 0.3
v 0.2 0.7 0.3
v -0.5 0.3 0.2
v -0.5 0.6 0.2
v -0.4 0.2 0.2
v -0.4 0.3 0.2
v -0.3 0.1 0.2
v -0.3 0.2 0.2
v -0.3 0.3 0.2
v -0.3 0.4 0.2
v -0.3 0.5 0.2
v -0.3 0.6 0.2
v -0.2 -0.4 0.2
v -0.2 -0.3 0.2
v -0.2 0.5 0.2
v -0.2 0.6 0.2
v -0.1 -0.3 0.2
v -0.1 -0.1 0.2
v -0.1 0.4 0.2
v -0.1 0.6 0.2
v 0 -0.4 0.2
v 0 -0.3 0.2
v 0 -0.2 0.2
v 0 -0.1 0.2
v 0 0.1 0.2
v 0 0.2 0.2
v 0.1 -0.4 0.2
v 0.1 -0.3 0.2
v 0.1 -0.2 0.2
v 0.1 -0.1 0.2
v 0.1 0.1 0.2
v 0.1 0.2 0.2
v 0.1 0.4 0.2
v 0.1 0.5 0.2
v 0.2 -0.3 0.2
v 0.2 -0.1 0.2
v 0.2 0.5 0.2
v 0.2 0.6 0.2
v 0.3 -0.4 0.2
v 0.3 -0.3 0.2
v 0.3 0.3 0.2
v 0.3 0.4 0.2
v 0.3 0.6 0.2
v 0.3 0.7 0.2
v 0.4 0.1 0.2
v 0.4 0.2 0.2
v 0.5 0.2 0.2
v 0.5 0.3 0.2
v 0.5 0.7 0.2
v -0.4 -0.3 0.1
v -0.4 -0.1 0.1
v -0.4 0.2 0.1
v -0.3 -0.4 0.1
v -0.3 -0.3 0.1
v -0.3 -0.2 0.1
v -0.3 -0.1 0.1
v -0.3 0.1 0.1
v -0.3 0.2 0.1
v -0.3 0.3 0.1
v -0.3 0.4 0.1
v -0.2 -0.4 0.1
v -0.2 -0.3 0.1
v -0.1 -0.5 0.1
v -0.1 -0.4 0.1
v -0.1 -0.3 0.1
v -0.1 -0.2 0.1
v -0.1 -0.1 0.1
v 0 -0.4 0.1
v 0 -0.3 0.1
v 0 -0.2 0.1
v 0 -0.1 0.1
v 0 0.1 0.1
v 0.1 -0.4 0.1
v 0.1 -0.3 0.1
v 0.1 -0.2 0.1
v 0.1 -0.1 0.1
v 0.1 0.1 0.1
v 0.2 -0.5 0.1
v 0.2 -0.4 0.1
v 0.2 -0.3 0.1
v 0.2 -0.2 0.1
v 0.2 -0.1 0.1
v 0.3 -0.4 0.1
v 0.3 -0.3 0.1
v 0.3 0.3 0.1
v 0.3 0.4 0.1
v 0.4 -0.4 0.1
v 0.4 -0.3 0.1
v 0.4 -0.2 0.1
v 0.4 -0.1 0.1
v 0.4 0.1 0.1
v 0.4 0.2 0.1
v 0.5 -0.3 0.1
v 0.5 -0.1 0.1
v 0.5 0.2 0.1
v 0.5 0.3 0.1
v 0.5 0.5 0.1
v 0.6 0.3 0.1
v 0.6 0.5 0.1
v -0.5 0.2 0
v -0.5 0.3 0
v -0.4 -0.4 0
v -0.4 -0.3 0
v -0.4 0.2 0
v -0.4 0.3 0
v -0.3 -0.4 0
v -0.3 -0.3 0
v -0.2 -0.5 0
v -0.2 -0.4 0
v -0.1 -0.6 0
v -0.1 -0.5 0
v -0.1 -0.4 0
v 0.2 -0.6 0
v 0.2 -0.5 0
v 0.2 -0.4 0
v 0.3 -0.5 0
v 0.3 -0.4 0
v 0.4 -0.4 0
v 0.4 -0.3 0
v 0.5 -0.4 0
v 0.5 -0.3 0
v 0.5 -0.2 0
v 0.6 -0.3 0
v 0.6 -0.2 0
v -0.5 -0.3 -0.1
v -0.5 -0.1 -0.1
v -0.4 -0.3 -0.1
v -0.4 -0.1 -0.1
v -0.3 -0.5 -0.1
v -0.3 -0.4 -0.1
v -0.2 -0.5 -0.1
v -0.2 -0.4 -0.1
v 0.3 -0.5 -0.1
v 0.3 -0.4 -0.1
v 0.4 -0.5 -0.1
v 0.4 -0.4 -0.1
v 0.5 -0.2 -0.1
v 0.5 -0.1 -0.1
v 0.6 -0.2 -0.1
v 0.6 -0.1 -0.1
v -0.5 -0.1 -0.2
v -0.5 -5.96046e-08 -0.2
v -0.4 -0.1 -0.2
v -0.4 -5.96046e-08 -0.2
v 0.5 -0.1 -0.2
v 0.5 -5.96046e-08 -0.2
v 0.5 0.1 -0.2
v 0.5 0.3 -0.2
v 0.5 0.5 -0.2
v 0.5 0.6 -0.2
v 0.6 -0.1 -0.2
v 0.6 -5.96046e-08 -0.2
v 0.6 0.1 -0.2
v 0.6 0.3 -0.2
v 0.6 0.5 -0.2
v 0.6 0.6 -0.2
v -0.5 0.5 -0.1
v -0.5 0.6 -0.1
v -0.4 0.5 -0.1
v -0.4 0.6 -0.1
v -0.1 0.6 -0.1
v -0.1 0.7 -0.1
v 0.2 0.6 -0.1
v 0.2 0.7 -0.1
v -0.5 0.2 -0.2
v -0.5 0.3 -0.2
v -0.4 -0.4 -0.2
v -0.4 -0.3 -0.2
v -0.4 0.2 -0.2
v -0.4 0.3 -0.2
v -0.3 -0.5 -0.2
v -0.3 -0.4 -0.2
v -0.3 0.6 -0.2
v -0.3 0.7 -0.2
v -0.2 0.6 -0.2
v -0.2 0.7 -0.2
v -0.1 -0.6 -0.2
v -0.1 -0.5 -0.2
v 0.2 -0.6 -0.2
v 0.2 -0.5 -0.2
v 0.3 0.6 -0.2
v 0.3 0.7 -0.2
v 0.4 -0.5 -0.2
v 0.4 -0.4 -0.2
v 0.5 -0.4 -0.2
v 0.5 -0.3 -0.2
v 0.5 0.6 -0.2
v 0.5 0.7 -0.2
v -0.5 -0.3 -0.3
v -0.5 -5.96046e-08 -0.3
v -0.5 0.3 -0.3
v -0.5 0.5 -0.3
v -0.4 -5.96046e-08 -0.3
v -0.4 0.1 -0.3
v -0.4 0.2 -0.3
v -0.4 0.3 -0.3
v -0.4 0.5 -0.3
v -0.4 0.6 -0.3
v -0.3 -0.2 -0.3
v -0.3 0.1 -0.3
v -0.3 0.2 -0.3
v -0.3 0.3 -0.3
v 0.4 -0.2 -0.3
v 0.4 0.1 -0.3
v 0.4 0.2 -0.3
v 0.4 0.3 -0.3
v 0.5 -5.96046e-08 -0.3
v 0.5 0.1 -0.3
v 0.5 0.2 -0.3
v 0.5 0.3 -0.3
v 0.5 0.5 -0.3
v 0.6 -0.3 -0.3
v 0.6 -5.96046e-08 -0.3
v 0.6 0.1 -0.3
v 0.6 0.6 -0.3
v -0.1 -0.6 0
v 0.2 -0.6 0
v -0.1 -0.6 -0.2
v 0.2 -0.6 -0.2
v -0.1 -0.5 0.1
v 0.2 -0.5 0.1
v -0.2 -0.5 0
v -0.1 -0.5 0
v 0.2 -0.5 0
v 0.3 -0.5 0
v -0.3 -0.5 -0.1
v -0.2 -0.5 -0.1
v 0.3 -0.5 -0.1
v 0.4 -0.5 -0.1
v -0.3 -0.5 -0.2
v -0.1 -0.5 -0.2
v 0.2 -0.5 -0.2
v 0.4 -0.5 -0.2
v -0.2 -0.4 0.2
v 0 -0.4 0.2
v 0.1 -0.4 0.2
v 0.3 -0.4 0.2
v -0.3 -0.4 0.1
v -0.2 -0.4 0.1
v -0.1 -0.4 0.1
v 0 -0.4 0.1
v 0.1 -0.4 0.1
v 0.2 -0.4 0.1
v 0.3 -0.4 0.1
v 0.4 -0.4 0.1
v -0.4 -0.4 0
v -0.3 -0.4 0
v -0.2 -0.4 0
v -0.1 -0.4 0
v 0.2 -0.4 0
v 0.3 -0.4 0
v 0.4 -0.4 0
v 0.5 -0.4 0
v -0.3 -0.4 -0.1
v -0.2 -0.4 -0.1
v 0.3 -0.4 -0.1
v 0.4 -0.4 -0.1
v -0.4 -0.4 -0.2
v -0.3 -0.4 -0.2
v 0.4 -0.4 -0.2
v 0.5 -0.4 -0.2
v 0 -0.3 0.2
v 0.1 -0.3 0.2
v -0.4 -0.3 0.1
v -0.3 -0.3 0.1
v 0 -0.3 0.1
v 0.1 -0.3 0.1
v 0.4 -0.3 0.1
v 0.5 -0.3 0.1
v -0.4 -0.3 0
v -0.3 -0.3 0
v 0.4 -0.3 0
v 0.5 -0.3 0
v 0.6 -0.3 0
v -0.5 -0.3 -0.1
v -0.4 -0.3 -0.1
v -0.4 -0.3 -0.2
v 0.5 -0.3 -0.2
v -0.5 -0.3 -0.3
v 0.6 -0.3 -0.3
v 0 -0.1 0.2
v 0.1 -0.1 0.2
v 0 -0.1 0.1
v 0.1 -0.1 0.1
v -0.3 0.1 0.2
v 0 0.1 0.2
v 0.1 0.1 0.2
v 0.4 0.1 0.2
v -0.3 0.1 0.1
v 0 0.1 0.1
v 0.1 0.1 0.1
v 0.4 0.1 0.1
v 0.5 0.1 -0.2
v 0.6 0.1 -0.2
v 0.5 0.1 -0.3
v 0.6 0.1 -0.3
v -0.4 0.2 0.2
v -0.3 0.2 0.2
v 0.4 0.2 0.2
v 0.5 0.2 0.2
v -0.4 0.2 0.1
v -0.3 0.2 0.1
v 0.4 0.2 0.1
v 0.5 0.2 0.1
v -0.5 0.2 0
v -0.4 0.2 0
v -0.5 0.2 -0.2
v -0.4 0.2 -0.2
v -0.5 0.3 0.2
v -0.4 0.3 0.2
v 0.5 0.3 0.1
v 0.6 0.3 0.1
v -0.5 0.3 0
v -0.4 0.3 0
v -0.5 0.3 -0.2
v -0.4 0.3 -0.2
v 0.5 0.3 -0.2
v 0.6 0.3 -0.2
v -0.5 0.3 -0.3
v -0.4 0.3 -0.3
v -0.1 0.4 0.3
v 0.1 0.4 0.3
v -0.3 0.4 0.2
v -0.1 0.4 0.2
v 0.1 0.4 0.2
v 0.3 0.4 0.2
v -0.3 0.4 0.1
v 0.3 0.4 0.1
v -0.3 0.5 0.3
v -0.2 0.5 0.3
v 0.1 0.5 0.3
v 0.2 0.5 0.3
v -0.3 0.5 0.2
v -0.2 0.5 0.2
v 0.1 0.5 0.2
v 0.2 0.5 0.2
v -0.2 -0.3 0.2
v -0.1 -0.3 0.2
v 0.2 -0.3 0.2
v 0.3 -0.3 0.2
v -0.2 -0.3 0.1
v -0.1 -0.3 0.1
v 0.2 -0.3 0.1
v 0.3 -0.3 0.1
v 0 -0.2 0.2
v 0.1 -0.2 0.2
v 0 -0.2 0.1
v 0.1 -0.2 0.1
v 0.5 -0.2 0
v 0.6 -0.2 0
v 0.5 -0.2 -0.1
v 0.6 -0.2 -0.1
v -0.1 -0.1 0.2
v 0 -0.1 0.2
v 0.1 -0.1 0.2
v 0.2 -0.1 0.2
v -0.1 -0.1 0.1
v 0 -0.1 0.1
v 0.1 -0.1 0.1
v 0.2 -0.1 0.1
v -0.5 -0.1 -0.1
v -0.4 -0.1 -0.1
v 0.5 -0.1 -0.1
v 0.6 -0.1 -0.1
v -0.5 -0.1 -0.2
v -0.4 -0.1 -0.2
v 0.5 -0.1 -0.2
v 0.6 -0.1 -0.2
v -0.5 -5.96046e-08 -0.2
v -0.4 -5.96046e-08 -0.2
v 0.5 -5.96046e-08 -0.2
v 0.6 -5.96046e-08 -0.2
v -0.5 -5.96046e-08 -0.3
v -0.4 -5.96046e-08 -0.3
v 0.5 -5.96046e-08 -0.3
v 0.6 -5.96046e-08 -0.3
v -0.3 0.3 0.2
v 0.3 0.3 0.2
v -0.3 0.3 0.1
v 0.3 0.3 0.1
v 0.5 0.5 0.1
v 0.6 0.5 0.1
v -0.5 0.5 -0.1
v -0.4 0.5 -0.1
v 0.5 0.5 -0.2
v 0.6 0.5 -0.2
v -0.5 0.5 -0.3
v -0.4 0.5 -0.3
v -0.5 0.6 0.2
v -0.3 0.6 0.2
v -0.2 0.6 0.2
v -0.1 0.6 0.2
v 0.2 0.6 0.2
v 0.3 0.6 0.2
v -0.5 0.6 -0.1
v -0.4 0.6 -0.1
v -0.1 0.6 -0.1
v 0.2 0.6 -0.1
v -0.3 0.6 -0.2
v -0.2 0.6 -0.2
v 0.3 0.6 -0.2
v 0.5 0.6 -0.2
v 0.6 0.6 -0.2
v -0.4 0.6 -0.3
v 0.6 0.6 -0.3
v -0.3 0.7 0.3
v -0.2 0.7 0.3
v -0.1 0.7 0.3
v 0.2 0.7 0.3
v 0.3 0.7 0.2
v 0.5 0.7 0.2
v -0.1 0.7 -0.1
v 0.2 0.7 -0.1
v -0.3 0.7 -0.2
v -0.2 0.7 -0.2
v 0.3 0.7 -0.2
v 0.5 0.7 -0.2

# faces
f 3/6/1 2/6/1 1/6/1
f 4/6/1 2/6/1 3/6/1
f 5/6/1 2/6/1 4/6/1
f 6/6/1 2/6/1 5/6/1
f 10/6/1 8/6/1 7/6/1
f 11/6/1 8/6/1 10/6/1
f 13/6/1 10/6/1 9/6/1
f 13/6/1 12/6/1 11/6/1
f 13/6/1 11/6/1 10/6/1
f 14/6/1 12/6/1 13/6/1
f 15/6/1 13/6/1 9/6/1
f 16/6/1 13/6/1 15/6/1
f 20/6/1 18/6/1 17/6/1
f 21/6/1 18/6/1 20/6/1
f 22/6/1 18/6/1 21/6/1
f 23/6/1 20/6/1 19/6/1
f 23/6/1 21/6/1 20/6/1
f 24/6/1 21/6/1 23/6/1
f 26/4/1 24/4/1 23/4/1
f 26/6/1 25/6/1 24/6/1
f 27/6/1 25/6/1 26/6/1
f 29/4/1 27/4/1 26/4/1
f 29/4/1 26/4/1 23/4/1
f 30/6/1 28/6/1 27/6/1
f 30/4/1 27/4/1 29/4/1
f 31/6/1 28/6/1 30/6/1
f 33/4/1 29/4/1 23/4/1
f 34/7/1 30/7/1 29/7/1
f 34/7/1 31/7/1 30/7/1
f 34/4/1 29/4/1 33/4/1
f 35/7/1 31/7/1 34/7/1
f 36/7/1 31/7/1 35/7/1
f 37/3/1 33/3/1 32/3/1
f 37/3/1 34/3/1 33/3/1
f 38/3/1 34/3/1 37/3/1
f 39/6/1 36/6/1 35/6/1
f 40/6/1 36/6/1 39/6/1
f 43/6/1 42/6/1 41/6/1
f 44/6/1 42/6/1 43/6/1
f 49/6/1 46/6/1 45/6/1
f 50/6/1 46/6/1 49/6/1
f 51/6/1 48/6/1 47/6/1
f 52/6/1 48/6/1 51/6/1
f 55/3/1 54/3/1 53/3/1
f 56/3/1 54/3/1 55/3/1
f 59/6/1 58/6/1 57/6/1
f 61/6/1 59/6/1 57/6/1
f 61/6/1 60/6/1 59/6/1
f 62/6/1 60/6/1 61/6/1
f 67/6/1 64/6/1 63/6/1
f 68/6/1 64/6/1 67/6/1
f 69/6/1 66/6/1 65/6/1
f 70/6/1 66/6/1 69/6/1
f 74/6/1 72/6/1 71/6/1
f 75/6/1 72/6/1 74/6/1
f 76/6/1 74/6/1 73/6/1
f 77/6/1 74/6/1 76/6/1
f 80/6/1 79/6/1 78/6/1
f 81/6/1 80/6/1 78/6/1
f 82/6/1 80/6/1 81/6/1
f 85/6/1 84/6/1 83/6/1
f 87/6/1 85/6/1 83/6/1
f 87/6/1 86/6/1 85/6/1
f 88/6/1 86/6/1 87/6/1
f 91/5/1 90/5/1 89/5/1
f 92/5/1 90/5/1 91/5/1
f 95/6/1 94/6/1 93/6/1
f 96/6/1 94/6/1 95/6/1
f 99/6/1 98/6/1 97/6/1
f 100/6/1 98/6/1 99/6/1
f 103/6/1 102/6/1 101/6/1
f 104/6/1 102/6/1 103/6/1
f 107/6/1 106/6/1 105/6/1
f 108/6/1 106/6/1 107/6/1
f 109/6/2 110/6/2 111/6/2
f 111/6/2 110/6/2 112/6/2
f 113/6/2 114/6/2 115/6/2
f 113/6/2 115/6/2 117/6/2
f 115/6/2 116/6/2 117/6/2
f 117/6/2 116/6/2 118/6/2
f 119/6/2 120/6/2 121/6/2
f 121/6/2 120/6/2 122/6/2
f 123/6/2 124/6/2 125/6/2
f 125/6/2 124/6/2 126/6/2
f 127/5/2 128/5/2 129/5/2
f 129/5/2 128/5/2 130/5/2
f 131/6/2 132/6/2 133/6/2
f 133/6/2 132/6/2 134/6/2
f 135/6/2 136/6/2 138/6/2
f 138/6/2 136/6/2 139/6/2
f 137/6/2 138/6/2 140/6/2
f 140/6/2 138/6/2 141/6/2
f 142/6/2 143/6/2 144/6/2
f 142/6/2 144/6/2 145/6/2
f 145/6/2 144/6/2 146/6/2
f 147/6/2 148/6/2 149/6/2
f 147/6/2 149/6/2 151/6/2
f 149/6/2 150/6/2 151/6/2
f 151/6/2 150/6/2 152/6/2
f 153/6/2 154/6/2 157/6/2
f 157/6/2 154/6/2 158/6/2
f 155/6/2 156/6/2 159/6/2
f 159/6/2 156/6/2 160/6/2
f 161/6/2 162/6/2 165/6/2
f 165/6/2 162/6/2 166/6/2
f 163/6/2 164/6/2 167/6/2
f 167/6/2 164/6/2 168/6/2
f 169/3/2 170/3/2 171/3/2
f 171/3/2 170/3/2 172/3/2
f 173/6/2 174/6/2 176/6/2
f 176/6/2 174/6/2 177/6/2
f 175/6/2 176/6/2 178/6/2
f 175/6/2 178/6/2 180/6/2
f 178/6/2 179/6/2 180/6/2
f 180/6/2 179/6/2 181/6/2
f 180/4/2 181/4/2 183/4/2
f 181/6/2 182/6/2 183/6/2
f 183/6/2 182/6/2 184/6/2
f 183/4/2 184/4/2 186/4/2
f 180/4/2 183/4/2 186/4/2
f 184/6/2 185/6/2 187/6/2
f 186/4/2 184/4/2 187/4/2
f 187/6/2 185/6/2 188/6/2
f 180/4/2 186/4/2 190/4/2
f 186/7/2 187/7/2 191/7/2
f 190/4/2 186/4/2 191/4/2
f 189/3/2 190/3/2 192/3/2
f 190/7/2 191/7/2 193/7/2
f 192/3/2 190/3/2 193/3/2
f 191/7/2 187/7/2 194/7/2
f 193/7/2 191/7/2 194/7/2
f 192/6/2 193/6/2 195/6/2
f 195/6/2 196/6/2 197/6/2
f 192/6/2 195/6/2 198/6/2
f 195/6/2 197/6/2 198/6/2
f 198/6/2 197/6/2 199/6/2
f 200/6/2 201/6/2 202/6/2
f 202/6/2 201/6/2 203/6/2
f 203/6/2 201/6/2 204/6/2
f 204/6/2 201/6/2 205/6/2
f 205/6/2 201/6/2 206/6/2
f 206/6/2 201/6/2 207/6/2
f 208/6/2 209/6/2 211/6/2
f 210/6/2 211/6/2 212/6/2
f 211/6/2 209/6/2 213/6/2
f 212/6/2 211/6/2 213/6/2
f 213/6/2 209/6/2 214/6/2
f 214/6/2 209/6/2 215/6/2
f 218/6/3 217/6/3 216/6/3
f 219/6/3 217/6/3 218/6/3
f 222/6/3 221/6/3 220/6/3
f 223/6/3 221/6/3 222/6/3
f 224/6/3 221/6/3 223/6/3
f 225/6/3 221/6/3 224/6/3
f 229/6/3 227/6/3 226/6/3
f 231/3/3 229/3/3 228/3/3
f 232/6/3 227/6/3 229/6/3
f 232/3/3 229/3/3 231/3/3
f 233/6/3 227/6/3 232/6/3
f 234/6/3 227/6/3 233/6/3
f 235/6/3 227/6/3 234/6/3
f 238/6/3 234/6/3 233/6/3
f 240/6/3 237/6/3 236/6/3
f 242/6/3 239/6/3 238/6/3
f 242/6/3 238/6/3 233/6/3
f 243/6/3 239/6/3 242/6/3
f 244/6/3 241/6/3 240/6/3
f 244/6/3 240/6/3 236/6/3
f 245/6/3 241/6/3 244/6/3
f 246/6/3 241/6/3 245/6/3
f 247/6/3 241/6/3 246/6/3
f 248/3/3 231/3/3 230/3/3
f 248/3/3 232/3/3 231/3/3
f 249/3/3 232/3/3 248/3/3
f 251/6/3 246/6/3 245/6/3
f 252/6/3 246/6/3 251/6/3
f 253/5/3 248/5/3 247/5/3
f 253/5/3 249/5/3 248/5/3
f 254/5/3 249/5/3 253/5/3
f 255/3/3 232/3/3 249/3/3
f 255/5/3 249/5/3 254/5/3
f 258/6/3 252/6/3 251/6/3
f 258/6/3 251/6/3 250/6/3
f 258/6/3 253/6/3 252/6/3
f 259/6/3 253/6/3 258/6/3
f 260/6/3 257/6/3 256/6/3
f 262/6/3 258/6/3 250/6/3
f 263/6/3 258/6/3 262/6/3
f 264/3/3 232/3/3 255/3/3
f 264/3/3 255/3/3 254/3/3
f 265/6/3 261/6/3 260/6/3
f 265/6/3 260/6/3 256/6/3
f 266/6/3 261/6/3 265/6/3
f 268/3/3 264/3/3 254/3/3
f 269/3/3 264/3/3 268/3/3
f 270/3/3 264/3/3 269/3/3
f 271/6/3 267/6/3 266/6/3
f 271/3/3 264/3/3 270/3/3
f 271/6/3 266/6/3 265/6/3
f 271/6/3 265/6/3 264/6/3
f 272/6/3 267/6/3 271/6/3
f 277/6/3 274/6/3 273/6/3
f 278/6/3 274/6/3 277/6/3
f 279/4/3 275/4/3 274/4/3
f 279/6/3 274/6/3 278/6/3
f 280/4/3 275/4/3 279/4/3
f 281/4/3 275/4/3 280/4/3
f 284/6/3 278/6/3 277/6/3
f 284/6/3 277/6/3 276/6/3
f 285/6/3 278/6/3 284/6/3
f 288/6/3 278/6/3 285/6/3
f 289/4/3 280/4/3 279/4/3
f 289/6/3 278/6/3 288/6/3
f 289/4/3 279/4/3 278/4/3
f 290/4/3 280/4/3 289/4/3
f 291/6/3 287/6/3 286/6/3
f 294/4/3 280/4/3 290/4/3
f 295/4/3 280/4/3 294/4/3
f 296/6/3 292/6/3 291/6/3
f 296/6/3 291/6/3 286/6/3
f 297/6/3 292/6/3 296/6/3
f 298/4/3 294/4/3 293/4/3
f 299/4/3 294/4/3 298/4/3
f 301/6/3 296/6/3 286/6/3
f 302/6/3 296/6/3 301/6/3
f 305/4/3 300/4/3 299/4/3
f 307/6/3 304/6/3 303/6/3
f 308/4/3 283/4/3 282/4/3
f 309/4/3 283/4/3 308/4/3
f 310/6/3 307/6/3 306/6/3
f 311/6/3 304/6/3 307/6/3
f 311/6/3 307/6/3 310/6/3
f 312/4/3 305/4/3 304/4/3
f 312/6/3 304/6/3 311/6/3
f 313/4/3 300/4/3 305/4/3
f 313/4/3 305/4/3 312/4/3
f 314/4/3 300/4/3 313/4/3
f 316/6/3 312/6/3 311/6/3
f 316/6/3 313/6/3 312/6/3
f 317/4/3 315/4/3 314/4/3
f 317/6/3 313/6/3 316/6/3
f 317/4/3 314/4/3 313/4/3
f 318/4/3 315/4/3 317/4/3
f 321/6/3 320/6/3 319/6/3
f 322/6/3 320/6/3 321/6/3
f 327/6/3 324/6/3 323/6/3
f 328/6/3 324/6/3 327/6/3
f 329/6/3 326/6/3 325/6/3
f 330/6/3 326/6/3 329/6/3
f 334/6/3 332/6/3 331/6/3
f 335/6/3 332/6/3 334/6/3
f 336/6/3 334/6/3 333/6/3
f 337/6/3 334/6/3 336/6/3
f 339/6/3 338/6/3 337/6/3
f 340/6/3 338/6/3 339/6/3
f 343/6/3 342/6/3 341/6/3
f 344/6/3 342/6/3 343/6/3
f 346/6/3 345/6/3 344/6/3
f 347/6/3 345/6/3 346/6/3
f 350/6/3 349/6/3 348/6/3
f 351/6/3 349/6/3 350/6/3
f 354/6/3 353/6/3 352/6/3
f 355/6/3 353/6/3 354/6/3
f 358/6/3 357/6/3 356/6/3
f 359/6/3 357/6/3 358/6/3
f 362/6/3 361/6/3 360/6/3
f 363/6/3 361/6/3 362/6/3
f 366/6/3 365/6/3 364/6/3
f 367/6/3 365/6/3 366/6/3
f 374/6/3 369/6/3 368/6/3
f 375/6/3 369/6/3 374/6/3
f 376/6/3 371/6/3 370/6/3
f 377/6/3 371/6/3 376/6/3
f 378/6/3 373/6/3 372/6/3
f 379/6/3 373/6/3 378/6/3
f 380/6/4 381/6/4 382/6/4
f 382/6/4 381/6/4 383/6/4
f 384/6/4 385/6/4 386/6/4
f 386/6/4 385/6/4 387/6/4
f 388/6/4 389/6/4 392/6/4
f 392/6/4 389/6/4 393/6/4
f 390/6/4 391/6/4 395/6/4
f 396/6/4 397/6/4 398/6/4
f 398/6/4 397/6/4 399/6/4
f 394/6/4 395/6/4 401/6/4
f 400/6/4 401/6/4 402/6/4
f 401/6/4 395/6/4 403/6/4
f 402/6/4 401/6/4 403/6/4
f 403/6/4 395/6/4 406/6/4
f 395/6/4 391/6/4 407/6/4
f 406/6/4 395/6/4 407/6/4
f 407/6/4 391/6/4 408/6/4
f 408/6/4 391/6/4 409/6/4
f 404/6/4 405/6/4 410/6/4
f 410/6/4 405/6/4 411/6/4
f 412/6/4 413/6/4 416/6/4
f 414/6/4 415/6/4 419/6/4
f 419/6/4 415/6/4 420/6/4
f 412/6/4 416/6/4 422/6/4
f 416/6/4 417/6/4 422/6/4
f 417/7/4 418/7/4 423/7/4
f 422/6/4 417/6/4 423/6/4
f 418/6/4 419/6/4 424/6/4
f 423/7/4 418/7/4 424/7/4
f 419/4/4 420/4/4 425/4/4
f 424/6/4 419/6/4 425/6/4
f 412/6/4 422/6/4 426/6/4
f 423/4/4 424/4/4 426/4/4
f 424/4/4 425/4/4 426/4/4
f 422/4/4 423/4/4 426/4/4
f 426/4/4 425/4/4 427/4/4
f 427/4/4 425/4/4 428/4/4
f 425/4/4 420/4/4 429/4/4
f 428/4/4 425/4/4 429/4/4
f 426/6/4 427/6/4 430/6/4
f 427/3/4 428/3/4 431/3/4
f 430/6/4 427/6/4 431/6/4
f 428/1/4 429/1/4 432/1/4
f 431/3/4 428/3/4 432/3/4
f 429/4/4 420/4/4 433/4/4
f 432/1/4 429/1/4 433/1/4
f 420/6/4 421/6/4 434/6/4
f 433/4/4 420/4/4 434/4/4
f 426/6/4 430/6/4 435/6/4
f 412/6/4 426/6/4 435/6/4
f 435/6/4 430/6/4 436/6/4
f 432/6/4 433/6/4 437/6/4
f 433/6/4 434/6/4 437/6/4
f 431/6/4 432/6/4 437/6/4
f 434/6/4 421/6/4 438/6/4
f 437/6/4 434/6/4 438/6/4
f 441/6/5 440/6/5 439/6/5
f 442/6/5 440/6/5 441/6/5
f 446/6/5 444/6/5 443/6/5
f 447/6/5 444/6/5 446/6/5
f 450/6/5 446/6/5 445/6/5
f 451/6/5 448/6/5 447/6/5
f 453/6/5 450/6/5 449/6/5
f 454/6/5 446/6/5 450/6/5
f 454/6/5 450/6/5 453/6/5
f 455/6/5 452/6/5 451/6/5
f 455/6/5 451/6/5 447/6/5
f 456/6/5 452/6/5 455/6/5
f 462/6/5 458/6/5 457/6/5
f 463/6/5 458/6/5 462/6/5
f 464/6/5 458/6/5 463/6/5
f 465/6/5 460/6/5 459/6/5
f 466/6/5 460/6/5 465/6/5
f 467/6/5 460/6/5 466/6/5
f 470/6/5 462/6/5 461/6/5
f 470/6/5 463/6/5 462/6/5
f 471/6/5 463/6/5 470/6/5
f 472/6/5 463/6/5 471/6/5
f 473/6/5 468/6/5 467/6/5
f 473/6/5 467/6/5 466/6/5
f 474/6/5 468/6/5 473/6/5
f 475/6/5 468/6/5 474/6/5
f 477/6/5 471/6/5 470/6/5
f 477/6/5 470/6/5 469/6/5
f 478/6/5 471/6/5 477/6/5
f 479/6/5 476/6/5 475/6/5
f 479/6/5 475/6/5 474/6/5
f 480/6/5 476/6/5 479/6/5
f 481/6/5 477/6/5 469/6/5
f 482/6/5 477/6/5 481/6/5
f 483/6/5 476/6/5 480/6/5
f 484/6/5 476/6/5 483/6/5
f 489/6/5 486/6/5 485/6/5
f 490/6/5 486/6/5 489/6/5
f 493/6/5 488/6/5 487/6/5
f 494/6/5 488/6/5 493/6/5
f 495/6/5 492/6/5 491/6/5
f 496/6/5 492/6/5 495/6/5
f 500/6/5 499/6/5 498/6/5
f 501/6/5 497/6/5 496/6/5
f 502/6/5 500/6/5 498/6/5
f 502/6/5 501/6/5 500/6/5
f 503/6/5 497/6/5 501/6/5
f 503/6/5 501/6/5 502/6/5
f 506/5/5 505/5/5 504/5/5
f 507/5/5 505/5/5 506/5/5
f 512/3/5 509/3/5 508/3/5
f 513/3/5 509/3/5 512/3/5
f 514/3/5 511/3/5 510/3/5
f 515/3/5 511/3/5 514/3/5
f 518/6/5 517/6/5 516/6/5
f 519/6/5 517/6/5 518/6/5
f 524/3/5 521/3/5 520/3/5
f 525/3/5 521/3/5 524/3/5
f 526/3/5 523/3/5 522/3/5
f 527/3/5 523/3/5 526/3/5
f 530/6/5 529/6/5 528/6/5
f 531/6/5 529/6/5 530/6/5
f 536/6/5 533/6/5 532/6/5
f 537/6/5 533/6/5 536/6/5
f 540/6/5 535/6/5 534/6/5
f 541/6/5 535/6/5 540/6/5
f 542/6/5 539/6/5 538/6/5
f 543/6/5 539/6/5 542/6/5
f 547/6/5 545/6/5 544/6/5
f 548/6/5 545/6/5 547/6/5
f 550/6/5 547/6/5 546/6/5
f 550/6/5 549/6/5 548/6/5
f 550/6/5 548/6/5 547/6/5
f 551/6/5 549/6/5 550/6/5
f 556/6/5 553/6/5 552/6/5
f 557/6/5 553/6/5 556/6/5
f 558/6/5 555/6/5 554/6/5
f 559/6/5 555/6/5 558/6/5
f 560/6/6 561/6/6 564/6/6
f 564/6/6 561/6/6 565/6/6
f 562/6/6 563/6/6 566/6/6
f 566/6/6 563/6/6 567/6/6
f 568/6/6 569/6/6 570/6/6
f 570/6/6 569/6/6 571/6/6
f 572/6/6 573/6/6 574/6/6
f 574/6/6 573/6/6 575/6/6
f 576/6/6 577/6/6 580/6/6
f 580/6/6 577/6/6 581/6/6
f 578/6/6 579/6/6 582/6/6
f 582/6/6 579/6/6 583/6/6
f 584/6/6 585/6/6 588/6/6
f 588/6/6 585/6/6 589/6/6
f 586/6/6 587/6/6 590/6/6
f 590/6/6 587/6/6 591/6/6
f 592/6/6 593/6/6 596/6/6
f 596/6/6 593/6/6 597/6/6
f 594/6/6 595/6/6 598/6/6
f 598/6/6 595/6/6 599/6/6
f 600/3/6 601/3/6 602/3/6
f 602/3/6 601/3/6 603/3/6
f 604/6/6 605/6/6 608/6/6
f 608/6/6 605/6/6 609/6/6
f 606/6/6 607/6/6 610/6/6
f 610/6/6 607/6/6 611/6/6
f 612/6/6 613/6/6 618/6/6
f 618/6/6 613/6/6 619/6/6
f 614/6/6 615/6/6 620/6/6
f 616/6/6 617/6/6 621/6/6
f 619/6/6 613/6/6 622/6/6
f 614/6/6 620/6/6 623/6/6
f 620/6/6 621/6/6 623/6/6
f 621/6/6 617/6/6 624/6/6
f 623/6/6 621/6/6 624/6/6
f 619/6/6 622/6/6 627/6/6
f 625/6/6 626/6/6 627/6/6
f 624/6/6 625/6/6 627/6/6
f 623/6/6 624/6/6 627/6/6
f 622/6/6 623/6/6 627/6/6
f 627/6/6 626/6/6 628/6/6
f 631/6/6 632/6/6 635/6/6
f 635/6/6 632/6/6 636/6/6
f 629/6/6 630/6/6 637/6/6
f 637/6/6 630/6/6 638/6/6
f 633/6/6 634/6/6 639/6/6
f 639/6/6 634/6/6 640/6/6
