# MagicaVoxel @ Ephtracy

# group
o 

# material
mtllib GunnerV2-1.mtl
usemtl palette

# normals
vn -1 0 0
vn 1 0 0
vn 0 0 1
vn 0 0 -1
vn 0 -1 0
vn 0 1 0

# texcoords
vt 0.908203 0.5
vt 0.966797 0.5
vt 0.970703 0.5

# verts
v -0.2 -0.4 0.4
v -0.2 -0.4 0.2
v -0.2 -0.3 0.4
v -0.2 -0.3 0.2
v -0.2 0.3 0.1
v -0.2 0.3 -0.4
v -0.2 0.5 0.1
v -0.2 0.5 -0.4
v -0.1 -0.4 0.2
v -0.1 -0.4 -0.4
v -0.1 -0.3 0.2
v -0.1 -0.3 0.1
v -0.1 -0.3 -0.3
v -0.1 -0.3 -0.4
v -0.1 -0.2 0.1
v -0.1 -0.2 0
v -0.1 -0.2 -0.1
v -0.1 -0.2 -0.3
v -0.1 -0.2 -0.4
v -0.1 -0.1 0
v -0.1 -0.1 -0.1
v -0.1 0 -0.2
v -0.1 0 -0.3
v -0.1 0.1 -0.2
v -0.1 0.1 -0.3
v -0.1 0.2 0
v -0.1 0.2 -0.4
v -0.1 0.3 0
v -0.1 0.3 -0.4
v -0.1 0.4 0.2
v -0.1 0.4 0.1
v -0.1 0.5 0.2
v -0.1 0.5 0.1
v 0 -0.4 0.3
v 0 -0.4 0.2
v 0 -0.3 0.3
v 0 -0.3 0.2
v 0.2 -0.4 0.3
v 0.2 -0.4 0.2
v 0.2 -0.3 0.3
v 0.2 -0.3 0.2
v -0.1 -0.4 0.4
v -0.1 -0.4 0.2
v -0.1 -0.3 0.4
v -0.1 -0.3 0.2
v 0.1 -0.4 0.3
v 0.1 -0.4 0.2
v 0.1 -0.3 0.3
v 0.1 -0.3 0.2
v 0.1 0.4 0.2
v 0.1 0.4 0.1
v 0.1 0.5 0.2
v 0.1 0.5 0.1
v 0.2 -0.4 0
v 0.2 -0.4 -0.4
v 0.2 -0.3 0.1
v 0.2 -0.3 0
v 0.2 -0.2 0.1
v 0.2 -0.2 0
v 0.2 -0.2 -0.1
v 0.2 -0.2 -0.2
v 0.2 -0.1 -0.1
v 0.2 -0.1 -0.2
v 0.2 -0.1 -0.3
v 0.2 -0.1 -0.4
v 0.2 0 0
v 0.2 0 -0.1
v 0.2 0 -0.3
v 0.2 0 -0.4
v 0.2 0.1 0
v 0.2 0.1 -0.1
v 0.2 0.2 0
v 0.2 0.2 -0.4
v 0.2 0.3 0
v 0.2 0.3 -0.4
v 0.3 -0.4 0.3
v 0.3 -0.4 0
v 0.3 -0.3 0.3
v 0.3 -0.3 0
v 0.3 0.3 0.1
v 0.3 0.3 -0.4
v 0.3 0.5 0.1
v 0.3 0.5 -0.4
v -0.2 -0.4 0.4
v -0.2 -0.3 0.4
v -0.1 -0.4 0.4
v -0.1 -0.3 0.4
v 0 -0.4 0.3
v 0 -0.3 0.3
v 0.1 -0.4 0.3
v 0.1 -0.3 0.3
v 0.2 -0.4 0.3
v 0.2 -0.3 0.3
v 0.3 -0.4 0.3
v 0.3 -0.3 0.3
v -0.1 -0.4 0.2
v -0.1 -0.3 0.2
v -0.1 0.4 0.2
v -0.1 0.5 0.2
v 0 -0.4 0.2
v 0 -0.3 0.2
v 0.1 -0.4 0.2
v 0.1 -0.3 0.2
v 0.1 0.4 0.2
v 0.1 0.5 0.2
v 0.2 -0.4 0.2
v 0.2 -0.3 0.2
v -0.2 0.3 0.1
v -0.2 0.5 0.1
v -0.1 -0.3 0.1
v -0.1 -0.2 0.1
v -0.1 0.4 0.1
v -0.1 0.5 0.1
v 0.1 0.4 0.1
v 0.1 0.5 0.1
v 0.2 -0.3 0.1
v 0.2 -0.2 0.1
v 0.3 0.3 0.1
v 0.3 0.5 0.1
v -0.1 -0.2 0
v -0.1 -0.1 0
v -0.1 0.2 0
v -0.1 0.3 0
v 0 -0.2 0
v 0 -0.1 0
v 0.1 0 0
v 0.1 0.1 0
v 0.2 -0.2 0
v 0.2 0 0
v 0.2 0.1 0
v 0.2 0.2 0
v 0.2 0.3 0
v -0.2 -0.4 0.2
v -0.2 -0.3 0.2
v -0.1 -0.4 0.2
v -0.1 -0.3 0.2
v 0.2 -0.4 0
v 0.2 -0.3 0
v 0.3 -0.4 0
v 0.3 -0.3 0
v -0.2 0.3 -0.4
v -0.2 0.5 -0.4
v -0.1 -0.4 -0.4
v -0.1 -0.3 -0.4
v -0.1 -0.2 -0.4
v -0.1 0.2 -0.4
v -0.1 0.3 -0.4
v 0 -0.3 -0.4
v 0 -0.2 -0.4
v 0 -0.1 -0.4
v 0 0.1 -0.4
v 0 0.2 -0.4
v 0.1 -0.2 -0.4
v 0.1 -0.1 -0.4
v 0.1 0 -0.4
v 0.1 0.1 -0.4
v 0.1 0.2 -0.4
v 0.2 -0.4 -0.4
v 0.2 -0.1 -0.4
v 0.2 0 -0.4
v 0.2 0.2 -0.4
v 0.2 0.3 -0.4
v 0.3 0.3 -0.4
v 0.3 0.5 -0.4
v -0.2 -0.4 0.4
v -0.1 -0.4 0.4
v 0 -0.4 0.3
v 0.1 -0.4 0.3
v 0.2 -0.4 0.3
v 0.3 -0.4 0.3
v -0.2 -0.4 0.2
v -0.1 -0.4 0.2
v 0 -0.4 0.2
v 0.1 -0.4 0.2
v 0.2 -0.4 0.2
v 0.2 -0.4 0
v 0.3 -0.4 0
v -0.1 -0.4 -0.4
v 0.2 -0.4 -0.4
v -0.2 0.3 0.1
v 0.3 0.3 0.1
v -0.1 0.3 0
v 0.2 0.3 0
v -0.2 0.3 -0.4
v -0.1 0.3 -0.4
v 0.2 0.3 -0.4
v 0.3 0.3 -0.4
v -0.1 0.4 0.2
v 0.1 0.4 0.2
v -0.1 0.4 0.1
v 0.1 0.4 0.1
v -0.2 -0.3 0.4
v -0.1 -0.3 0.4
v 0 -0.3 0.3
v 0.1 -0.3 0.3
v 0.2 -0.3 0.3
v 0.3 -0.3 0.3
v -0.2 -0.3 0.2
v -0.1 -0.3 0.2
v 0 -0.3 0.2
v 0.1 -0.3 0.2
v 0.2 -0.3 0.2
v -0.1 -0.3 0.1
v 0.2 -0.3 0.1
v 0.2 -0.3 0
v 0.3 -0.3 0
v -0.1 -0.2 0.1
v 0.2 -0.2 0.1
v -0.1 -0.2 0
v 0 -0.2 0
v 0.2 -0.2 0
v -0.1 0.5 0.2
v 0.1 0.5 0.2
v -0.2 0.5 0.1
v -0.1 0.5 0.1
v 0.1 0.5 0.1
v 0.3 0.5 0.1
v -0.2 0.5 -0.4
v 0.3 0.5 -0.4

# faces
f 3/3/1 2/3/1 1/3/1
f 4/3/1 2/3/1 3/3/1
f 7/2/1 6/2/1 5/2/1
f 8/2/1 6/2/1 7/2/1
f 11/3/1 10/3/1 9/3/1
f 12/3/1 10/3/1 11/3/1
f 13/3/1 10/3/1 12/3/1
f 14/3/1 10/3/1 13/3/1
f 15/3/1 13/3/1 12/3/1
f 16/3/1 13/3/1 15/3/1
f 17/3/1 13/3/1 16/3/1
f 18/1/1 14/1/1 13/1/1
f 18/3/1 13/3/1 17/3/1
f 19/1/1 14/1/1 18/1/1
f 20/1/1 17/1/1 16/1/1
f 21/3/1 19/3/1 18/3/1
f 21/1/1 17/1/1 20/1/1
f 21/3/1 18/3/1 17/3/1
f 22/3/1 21/3/1 20/3/1
f 22/3/1 19/3/1 21/3/1
f 23/3/1 19/3/1 22/3/1
f 24/3/1 22/3/1 20/3/1
f 24/1/1 23/1/1 22/1/1
f 25/3/1 19/3/1 23/3/1
f 25/1/1 23/1/1 24/1/1
f 26/3/1 24/3/1 20/3/1
f 26/3/1 25/3/1 24/3/1
f 27/3/1 19/3/1 25/3/1
f 27/3/1 25/3/1 26/3/1
f 28/2/1 27/2/1 26/2/1
f 29/2/1 27/2/1 28/2/1
f 32/2/1 31/2/1 30/2/1
f 33/2/1 31/2/1 32/2/1
f 36/3/1 35/3/1 34/3/1
f 37/3/1 35/3/1 36/3/1
f 40/3/1 39/3/1 38/3/1
f 41/3/1 39/3/1 40/3/1
f 42/3/2 43/3/2 44/3/2
f 44/3/2 43/3/2 45/3/2
f 46/3/2 47/3/2 48/3/2
f 48/3/2 47/3/2 49/3/2
f 50/2/2 51/2/2 52/2/2
f 52/2/2 51/2/2 53/2/2
f 54/3/2 55/3/2 57/3/2
f 56/3/2 57/3/2 58/3/2
f 57/3/2 55/3/2 59/3/2
f 58/3/2 57/3/2 59/3/2
f 59/3/2 55/3/2 60/3/2
f 60/3/2 55/3/2 61/3/2
f 59/3/2 60/3/2 62/3/2
f 60/1/2 61/1/2 62/1/2
f 61/3/2 55/3/2 63/3/2
f 62/1/2 61/1/2 63/1/2
f 63/3/2 55/3/2 64/3/2
f 64/3/2 55/3/2 65/3/2
f 59/3/2 62/3/2 66/3/2
f 62/3/2 63/3/2 66/3/2
f 63/3/2 64/3/2 66/3/2
f 66/3/2 64/3/2 67/3/2
f 64/1/2 65/1/2 68/1/2
f 67/3/2 64/3/2 68/3/2
f 68/1/2 65/1/2 69/1/2
f 66/1/2 67/1/2 70/1/2
f 67/3/2 68/3/2 71/3/2
f 70/1/2 67/1/2 71/1/2
f 68/3/2 69/3/2 71/3/2
f 70/3/2 71/3/2 72/3/2
f 71/3/2 69/3/2 73/3/2
f 72/3/2 71/3/2 73/3/2
f 72/2/2 73/2/2 74/2/2
f 74/2/2 73/2/2 75/2/2
f 76/3/2 77/3/2 78/3/2
f 78/3/2 77/3/2 79/3/2
f 80/2/2 81/2/2 82/2/2
f 82/2/2 81/2/2 83/2/2
f 86/3/3 85/3/3 84/3/3
f 87/3/3 85/3/3 86/3/3
f 90/3/3 89/3/3 88/3/3
f 91/3/3 89/3/3 90/3/3
f 94/3/3 93/3/3 92/3/3
f 95/3/3 93/3/3 94/3/3
f 100/3/3 97/3/3 96/3/3
f 101/3/3 97/3/3 100/3/3
f 104/2/3 99/2/3 98/2/3
f 105/2/3 99/2/3 104/2/3
f 106/3/3 103/3/3 102/3/3
f 107/3/3 103/3/3 106/3/3
f 112/2/3 109/2/3 108/2/3
f 113/2/3 109/2/3 112/2/3
f 114/2/3 112/2/3 108/2/3
f 116/3/3 111/3/3 110/3/3
f 117/3/3 111/3/3 116/3/3
f 118/2/3 115/2/3 114/2/3
f 118/2/3 114/2/3 108/2/3
f 119/2/3 115/2/3 118/2/3
f 124/1/3 121/1/3 120/1/3
f 125/3/3 122/3/3 121/3/3
f 125/1/3 121/1/3 124/1/3
f 126/3/3 125/3/3 124/3/3
f 126/3/3 122/3/3 125/3/3
f 127/3/3 122/3/3 126/3/3
f 128/3/3 126/3/3 124/3/3
f 129/1/3 127/1/3 126/1/3
f 129/3/3 126/3/3 128/3/3
f 130/3/3 122/3/3 127/3/3
f 130/1/3 127/1/3 129/1/3
f 131/2/3 123/2/3 122/2/3
f 131/3/3 122/3/3 130/3/3
f 132/2/3 123/2/3 131/2/3
f 133/3/4 134/3/4 135/3/4
f 135/3/4 134/3/4 136/3/4
f 137/3/4 138/3/4 139/3/4
f 139/3/4 138/3/4 140/3/4
f 141/2/4 142/2/4 147/2/4
f 143/3/4 144/3/4 148/3/4
f 144/1/4 145/1/4 148/1/4
f 145/3/4 146/3/4 149/3/4
f 148/1/4 145/1/4 149/1/4
f 149/3/4 146/3/4 150/3/4
f 150/3/4 146/3/4 151/3/4
f 146/2/4 147/2/4 152/2/4
f 151/3/4 146/3/4 152/3/4
f 148/3/4 149/3/4 153/3/4
f 149/1/4 150/1/4 153/1/4
f 150/3/4 151/3/4 154/3/4
f 153/1/4 150/1/4 154/1/4
f 154/3/4 151/3/4 155/3/4
f 151/1/4 152/1/4 156/1/4
f 155/3/4 151/3/4 156/3/4
f 152/2/4 147/2/4 157/2/4
f 156/1/4 152/1/4 157/1/4
f 143/3/4 148/3/4 158/3/4
f 148/3/4 153/3/4 158/3/4
f 153/3/4 154/3/4 158/3/4
f 154/1/4 155/1/4 159/1/4
f 158/3/4 154/3/4 159/3/4
f 156/3/4 157/3/4 160/3/4
f 159/1/4 155/1/4 160/1/4
f 155/3/4 156/3/4 160/3/4
f 157/2/4 147/2/4 161/2/4
f 160/3/4 157/3/4 161/3/4
f 147/2/4 142/2/4 162/2/4
f 161/2/4 147/2/4 162/2/4
f 162/2/4 142/2/4 163/2/4
f 163/2/4 142/2/4 164/2/4
f 171/3/5 166/3/5 165/3/5
f 172/3/5 166/3/5 171/3/5
f 173/3/5 168/3/5 167/3/5
f 174/3/5 168/3/5 173/3/5
f 175/3/5 170/3/5 169/3/5
f 176/3/5 174/3/5 173/3/5
f 176/3/5 175/3/5 174/3/5
f 176/3/5 170/3/5 175/3/5
f 176/3/5 173/3/5 172/3/5
f 177/3/5 170/3/5 176/3/5
f 178/3/5 176/3/5 172/3/5
f 179/3/5 176/3/5 178/3/5
f 182/2/5 181/2/5 180/2/5
f 183/2/5 181/2/5 182/2/5
f 184/2/5 182/2/5 180/2/5
f 185/2/5 182/2/5 184/2/5
f 186/2/5 181/2/5 183/2/5
f 187/2/5 181/2/5 186/2/5
f 190/2/5 189/2/5 188/2/5
f 191/2/5 189/2/5 190/2/5
f 192/3/6 193/3/6 198/3/6
f 198/3/6 193/3/6 199/3/6
f 194/3/6 195/3/6 200/3/6
f 200/3/6 195/3/6 201/3/6
f 196/3/6 197/3/6 202/3/6
f 200/3/6 201/3/6 203/3/6
f 201/3/6 202/3/6 203/3/6
f 199/3/6 200/3/6 203/3/6
f 202/3/6 197/3/6 204/3/6
f 203/3/6 202/3/6 204/3/6
f 204/3/6 197/3/6 205/3/6
f 205/3/6 197/3/6 206/3/6
f 207/3/6 208/3/6 209/3/6
f 209/3/6 208/3/6 210/3/6
f 210/3/6 208/3/6 211/3/6
f 212/2/6 213/2/6 215/2/6
f 215/2/6 213/2/6 216/2/6
f 214/2/6 215/2/6 218/2/6
f 216/2/6 217/2/6 218/2/6
f 215/2/6 216/2/6 218/2/6
f 218/2/6 217/2/6 219/2/6
