# MagicaVoxel @ Ephtracy

# group
o 

# material
mtllib GunnerV2-6.mtl
usemtl palette

# normals
vn -1 0 0
vn 1 0 0
vn 0 0 1
vn 0 0 -1
vn 0 -1 0
vn 0 1 0

# texcoords
vt 0.630859 0.5
vt 0.693359 0.5
vt 0.857422 0.5
vt 0.908203 0.5
vt 0.939453 0.5
vt 0.955078 0.5
vt 0.966797 0.5
vt 0.970703 0.5
vt 0.974609 0.5
vt 0.978516 0.5
vt 0.982422 0.5
vt 0.986328 0.5

# verts
v -1.2 -0.9 0.1
v -1.2 -0.9 -0.1
v -1.2 -0.9 -0.2
v -1.2 -0.9 -0.4
v -1.2 -0.9 -0.5
v -1.2 -0.9 -0.7
v -1.2 -0.8 -0.1
v -1.2 -0.8 -0.2
v -1.2 -0.8 -0.4
v -1.2 -0.8 -0.5
v -1.2 -0.6 0.1
v -1.2 -0.6 0
v -1.2 -0.6 -0.6
v -1.2 -0.6 -0.7
v -1.2 -0.5 0
v -1.2 -0.5 -0.6
v -1.2 -0.3 0
v -1.2 -0.3 -0.6
v -1.2 0 0
v -1.2 0 -0.6
v -1.2 0.2 0
v -1.2 0.2 -0.5
v -1.2 0.3 0.1
v -1.2 0.3 0
v -1.2 0.3 -0.5
v -1.2 0.3 -0.6
v -1.2 0.5 0.1
v -1.2 0.5 0
v -1.2 0.5 -0.5
v -1.2 0.5 -0.6
v -1.2 0.6 0
v -1.2 0.6 -0.5
v -1.1 -0.5 0
v -1.1 -0.5 -0.6
v -1.1 -0.3 0.1
v -1.1 -0.3 0
v -1.1 -0.3 -0.6
v -1.1 -0.3 -0.7
v -1.1 0 0.1
v -1.1 0 0
v -1.1 0 -0.6
v -1.1 0 -0.7
v -1.1 0.1 0
v -1.1 0.1 -0.6
v -1.1 0.2 0.1
v -1.1 0.2 0
v -1.1 0.2 -0.5
v -1.1 0.3 0.2
v -1.1 0.3 0.1
v -1.1 0.3 0
v -1.1 0.3 -0.5
v -1.1 0.3 -0.6
v -1.1 0.3 -0.7
v -1.1 0.5 0.2
v -1.1 0.5 0.1
v -1.1 0.5 0
v -1.1 0.5 -0.5
v -1.1 0.5 -0.6
v -1.1 0.5 -0.7
v -1.1 0.6 0.1
v -1.1 0.6 0
v -1.1 0.6 -0.5
v -1.1 0.7 0
v -1.1 0.7 -0.6
v -1.1 0.9 0
v -1.1 0.9 -0.6
v -1.1 1.1 0
v -1.1 1.1 -0.6
v -1 -0.8 0.2
v -1 -0.8 0.1
v -1 -0.6 0.1
v -1 -0.6 0
v -1 -0.5 0.2
v -1 -0.5 0.1
v -1 -0.3 0.1
v -1 -0.3 0
v -0.9 1.1 0
v -0.9 1.1 -0.6
v -0.9 1.3 0
v -0.9 1.3 -0.6
v -0.7 1.3 0
v -0.7 1.3 -0.6
v -0.7 1.4 0
v -0.7 1.4 -0.6
v -0.6 -0.2 0
v -0.6 -0.2 -0.6
v -0.6 -0.1 0
v -0.6 -0.1 -0.6
v -0.6 0.1 0
v -0.6 0.1 -0.6
v -0.6 0.3 0
v -0.6 0.3 -0.6
v -0.6 0.5 0
v -0.6 0.5 -0.6
v -0.6 0.6 0
v -0.6 0.6 -0.6
v -0.6 0.7 -0.6
v -0.6 0.7 -0.7
v -0.6 0.9 -0.6
v -0.6 0.9 -0.7
v -0.6 1.1 -0.6
v -0.6 1.1 -0.7
v -0.6 1.2 -0.6
v -0.6 1.2 -0.7
v -0.6 1.4 0
v -0.6 1.4 -0.5
v -0.6 1.5 0
v -0.6 1.5 -0.5
v -0.5 -1.6 0.1
v -0.5 -1.6 -0.2
v -0.5 -1.5 0.1
v -0.5 -1.5 -0.2
v -0.5 -0.9 -0.1
v -0.5 -0.9 -0.6
v -0.5 -0.7 0
v -0.5 -0.7 -0.1
v -0.5 -0.5 0
v -0.5 -0.5 -0.6
v -0.5 -0.4 0
v -0.5 -0.4 -0.6
v -0.5 -0.3 0
v -0.5 -0.3 -0.6
v -0.5 -0.2 0
v -0.5 -0.2 -0.6
v -0.5 -0.2 -0.7
v -0.5 -0.1 -0.6
v -0.5 -0.1 -0.7
v -0.5 0 0.1
v -0.5 0 0
v -0.5 0.1 0.1
v -0.5 0.1 0
v -0.5 0.1 -0.6
v -0.5 0.1 -0.7
v -0.5 0.3 0.1
v -0.5 0.3 0
v -0.5 0.3 -0.6
v -0.5 0.3 -0.7
v -0.5 0.5 0.1
v -0.5 0.5 0
v -0.5 0.5 -0.6
v -0.5 0.5 -0.7
v -0.5 0.6 0.2
v -0.5 0.6 0.1
v -0.5 0.6 0
v -0.5 0.7 0
v -0.5 0.7 -0.6
v -0.5 0.7 -0.7
v -0.5 0.8 0.2
v -0.5 0.8 0.1
v -0.5 0.9 0.1
v -0.5 0.9 0
v -0.5 1.1 0.3
v -0.5 1.1 0.1
v -0.5 1.2 0.5
v -0.5 1.2 0.3
v -0.5 1.2 0.1
v -0.5 1.2 0
v -0.5 1.3 0
v -0.5 1.4 0.2
v -0.5 1.4 0
v -0.5 1.5 0.5
v -0.5 1.5 0.2
v -0.4 -1.6 -0.2
v -0.4 -1.6 -0.6
v -0.4 -1.5 -0.1
v -0.4 -1.5 -0.2
v -0.4 -1.5 -0.5
v -0.4 -1.5 -0.6
v -0.4 -1.4 -0.1
v -0.4 -1.4 -0.2
v -0.4 -1.4 -0.5
v -0.4 -1.4 -0.6
v -0.4 -1.3 -0.2
v -0.4 -1.3 -0.3
v -0.4 -1.2 -0.2
v -0.4 -1.2 -0.3
v -0.4 -1.2 -0.5
v -0.4 -1.2 -0.6
v -0.4 -1.1 -0.2
v -0.4 -1.1 -0.3
v -0.4 -1.1 -0.5
v -0.4 -1.1 -0.6
v -0.4 -1 -0.2
v -0.4 -1 -0.3
v -0.4 -1 -0.6
v -0.4 -0.9 -0.2
v -0.4 -0.9 -0.6
v -0.4 -0.8 0
v -0.4 -0.8 -0.1
v -0.4 -0.7 0
v -0.4 -0.7 -0.1
v -0.4 -0.6 0.1
v -0.4 -0.6 0
v -0.4 -0.5 0.1
v -0.4 -0.5 0
v -0.4 -0.4 0.1
v -0.4 -0.4 0
v -0.4 -0.3 0.1
v -0.4 -0.3 0
v -0.4 -0.1 0.1
v -0.4 -0.1 0
v -0.4 0 0.1
v -0.4 0 0
v -0.4 0.2 0.1
v -0.4 0.2 0
v -0.4 0.3 0.2
v -0.4 0.3 0.1
v -0.4 0.3 0
v -0.4 0.4 0.2
v -0.4 0.4 0.1
v -0.4 0.5 0.3
v -0.4 0.5 0.1
v -0.4 0.6 0.4
v -0.4 0.6 0.3
v -0.4 0.6 0.2
v -0.4 0.6 0.1
v -0.4 0.8 0.4
v -0.4 0.8 0.2
v -0.4 0.8 0.1
v -0.4 0.9 0.2
v -0.4 0.9 0.1
v -0.4 0.9 0
v -0.4 1 0.3
v -0.4 1 0.1
v -0.4 1 0
v -0.4 1.1 0.5
v -0.4 1.1 0.4
v -0.4 1.1 0.3
v -0.4 1.1 0.1
v -0.4 1.1 0
v -0.4 1.1 -0.1
v -0.4 1.2 0.5
v -0.4 1.2 0.3
v -0.4 1.2 0.1
v -0.4 1.2 0
v -0.4 1.2 -0.1
v -0.4 1.4 0.2
v -0.4 1.4 0
v -0.4 1.5 0.2
v -0.4 1.5 0
v -0.3 -1.6 0.1
v -0.3 -1.6 0
v -0.3 -1.5 0.1
v -0.3 -1.5 0
v -0.3 -0.7 0.1
v -0.3 -0.7 0
v -0.3 -0.6 0.1
v -0.3 -0.6 0
v -0.3 -0.4 0.2
v -0.3 -0.4 0.1
v -0.3 -0.3 0.2
v -0.3 -0.3 0.1
v -0.3 -0.1 0.2
v -0.3 -0.1 0.1
v -0.3 0.1 0.1
v -0.3 0.1 0
v -0.3 0.2 0.1
v -0.3 0.2 0
v -0.3 0.4 0.2
v -0.3 0.4 0.1
v -0.3 0.5 0.4
v -0.3 0.5 0.3
v -0.3 0.5 0.2
v -0.3 0.5 0.1
v -0.3 0.6 0.4
v -0.3 0.6 0.3
v -0.3 1 0.5
v -0.3 1 0.4
v -0.3 1.1 0.5
v -0.3 1.1 0.4
v -0.3 1.4 0.6
v -0.3 1.4 0.5
v -0.3 1.5 0.5
v -0.3 1.5 0.1
v -0.3 1.6 0.6
v -0.3 1.6 0.1
v -0.2 -0.6 0.2
v -0.2 -0.6 0.1
v -0.2 -0.5 0.2
v -0.2 -0.5 0.1
v -0.2 -0.4 0.2
v -0.2 -0.4 0.1
v -0.2 -0.1 0.2
v -0.2 -0.1 0.1
v -0.2 0 0.2
v -0.2 0 0.1
v -0.2 0.4 0.3
v -0.2 0.4 0.2
v -0.2 0.5 0.5
v -0.2 0.5 0.4
v -0.2 0.5 0.3
v -0.2 0.5 0.2
v -0.2 0.6 0.5
v -0.2 0.6 0.4
v -0.1 -1.6 0.2
v -0.1 -1.6 0
v -0.1 -1.5 0.2
v -0.1 -1.5 0
v -0.1 0.3 0.3
v -0.1 0.3 0.1
v -0.1 0.4 0.4
v -0.1 0.4 0.3
v -0.1 0.4 0.1
v -0.1 0.5 0.4
v -0.1 0.5 0.3
v -0.1 0.6 0.5
v -0.1 0.6 0.4
v -0.1 0.7 0.4
v -0.1 0.8 0.5
v -0.1 0.8 0.4
v -0.1 1.3 0.6
v -0.1 1.3 0.5
v -0.1 1.5 0.5
v -0.1 1.5 0.2
v -0.1 1.6 0.6
v -0.1 1.6 0.2
v 0 0.8 0.5
v 0 0.8 0.4
v 0 1 0.5
v 0 1 0.4
v 0.0999999 -1.6 0.2
v 0.0999999 -1.6 0
v 0.0999999 -1.5 0.2
v 0.0999999 -1.5 0
v 0.0999999 -0.9 -0.1
v 0.0999999 -0.9 -0.6
v 0.0999999 -0.7 -0.1
v 0.0999999 -0.7 -0.6
v 0.0999999 -0.5 0.2
v 0.0999999 -0.5 0.1
v 0.0999999 -0.4 0.2
v 0.0999999 -0.4 0.1
v 0.0999999 0.5 0.5
v 0.0999999 0.5 0.4
v 0.0999999 0.6 0.5
v 0.0999999 0.6 0.4
v 0.0999999 0.7 0.5
v 0.0999999 0.7 0.4
v 0.0999999 0.8 0.5
v 0.0999999 0.8 0.4
v 0.2 -1.6 0
v 0.2 -1.6 -0.6
v 0.2 -1.5 0
v 0.2 -1.5 -0.1
v 0.2 -1.5 -0.5
v 0.2 -1.5 -0.6
v 0.2 -1.4 -0.1
v 0.2 -1.4 -0.2
v 0.2 -1.4 -0.3
v 0.2 -1.4 -0.5
v 0.2 -1.4 -0.6
v 0.2 -1.3 -0.2
v 0.2 -1.3 -0.3
v 0.2 -1.2 -0.4
v 0.2 -1.2 -0.5
v 0.2 -1.1 -0.4
v 0.2 -1.1 -0.5
v 0.2 -1 -0.2
v 0.2 -1 -0.6
v 0.2 -0.9 -0.2
v 0.2 -0.9 -0.6
v 0.2 -0.8 0
v 0.2 -0.8 -0.1
v 0.2 -0.7 0
v 0.2 -0.7 -0.1
v 0.2 0.4 0.1
v 0.2 0.4 0
v 0.2 0.5 0.1
v 0.2 0.5 0
v 0.3 -1.6 0.1
v 0.3 -1.6 0
v 0.3 -1.5 0.1
v 0.3 -1.5 0
v 0.3 0.2 0.1
v 0.3 0.2 0
v 0.3 0.3 0.1
v 0.3 0.3 0
v 0.3 0.4 0.1
v 0.3 0.4 0
v 0.3 1.2 0.5
v 0.3 1.2 0.4
v 0.3 1.3 0.5
v 0.3 1.3 0.4
v 0.3 1.5 0.5
v 0.3 1.5 0.1
v 0.3 1.6 0.5
v 0.3 1.6 0.1
v 0.4 0.3 0.2
v 0.4 0.3 0.1
v 0.4 0.4 0.2
v 0.4 0.4 0.1
v 0.5 -1.6 0.1
v 0.5 -1.6 0
v 0.5 -1.5 0.1
v 0.5 -1.5 0
v 0.8 -0.8 -0.1
v 0.8 -0.8 -0.5
v 0.8 -0.7 0
v 0.8 -0.7 -0.1
v 0.8 -0.7 -0.5
v 0.8 -0.7 -0.6
v 0.8 0 0
v 0.8 0 -0.6
v 0.8 0.2 0
v 0.8 0.2 -0.5
v 0.8 0.3 0.1
v 0.8 0.3 0
v 0.8 0.3 -0.5
v 0.8 0.3 -0.6
v 0.8 0.5 0.1
v 0.8 0.5 -0.6
v 0.9 -0.8 0.2
v 0.9 -0.8 0
v 0.9 -0.7 0
v 0.9 -0.5 0.2
v 0.9 -0.5 0.1
v 0.9 -0.3 -0.6
v 0.9 -0.3 -0.7
v 0.9 0 0.1
v 0.9 0 0
v 0.9 0 -0.6
v 0.9 0 -0.7
v 0.9 0.1 0
v 0.9 0.1 -0.6
v 0.9 0.2 0.1
v 0.9 0.2 0
v 0.9 0.2 -0.5
v 0.9 0.3 0.2
v 0.9 0.3 0.1
v 0.9 0.3 0
v 0.9 0.3 -0.5
v 0.9 0.3 -0.6
v 0.9 0.3 -0.7
v 0.9 0.5 0.2
v 0.9 0.5 0.1
v 0.9 0.5 -0.6
v 0.9 0.5 -0.7
v 0.9 0.6 0.1
v 0.9 0.6 0
v 0.9 0.6 -0.6
v 1.1 -0.9 0.1
v 1.1 -0.9 -0.1
v 1.1 -0.9 -0.2
v 1.1 -0.9 -0.4
v 1.1 -0.9 -0.5
v 1.1 -0.9 -0.7
v 1.1 -0.8 0.1
v 1.1 -0.8 0
v 1.1 -0.8 -0.1
v 1.1 -0.8 -0.2
v 1.1 -0.8 -0.4
v 1.1 -0.8 -0.5
v 1.1 -0.7 0
v 1.1 -0.7 -0.1
v 1.1 -0.7 -0.5
v 1.1 -0.7 -0.6
v 1.1 -0.6 -0.6
v 1.1 -0.6 -0.7
v -1 -0.9 0.1
v -1 -0.9 -0.1
v -1 -0.9 -0.2
v -1 -0.9 -0.4
v -1 -0.9 -0.5
v -1 -0.9 -0.7
v -1 -0.8 0.1
v -1 -0.8 0
v -1 -0.8 -0.1
v -1 -0.8 -0.2
v -1 -0.8 -0.4
v -1 -0.8 -0.5
v -1 -0.7 0
v -1 -0.7 -0.1
v -1 -0.7 -0.5
v -1 -0.7 -0.6
v -1 -0.6 -0.6
v -1 -0.6 -0.7
v -0.8 -0.8 0.2
v -0.8 -0.8 0
v -0.8 -0.7 0
v -0.8 -0.5 0.2
v -0.8 -0.5 0.1
v -0.8 -0.3 -0.6
v -0.8 -0.3 -0.7
v -0.8 0 0.1
v -0.8 0 0
v -0.8 0 -0.6
v -0.8 0 -0.7
v -0.8 0.1 0
v -0.8 0.1 -0.6
v -0.8 0.2 0.1
v -0.8 0.2 0
v -0.8 0.2 -0.5
v -0.8 0.3 0.2
v -0.8 0.3 0.1
v -0.8 0.3 0
v -0.8 0.3 -0.5
v -0.8 0.3 -0.6
v -0.8 0.3 -0.7
v -0.8 0.5 0.2
v -0.8 0.5 0.1
v -0.8 0.5 -0.6
v -0.8 0.5 -0.7
v -0.8 0.6 0.1
v -0.8 0.6 0
v -0.8 0.6 -0.6
v -0.7 -0.8 -0.1
v -0.7 -0.8 -0.5
v -0.7 -0.7 0
v -0.7 -0.7 -0.1
v -0.7 -0.7 -0.5
v -0.7 -0.7 -0.6
v -0.7 0 0
v -0.7 0 -0.6
v -0.7 0.2 0
v -0.7 0.2 -0.5
v -0.7 0.3 0.1
v -0.7 0.3 0
v -0.7 0.3 -0.5
v -0.7 0.3 -0.6
v -0.7 0.5 0.1
v -0.7 0.5 -0.6
v -0.5 1.1 0
v -0.5 1.1 -0.1
v -0.5 1.2 0
v -0.5 1.2 -0.1
v -0.4 -1.6 0.1
v -0.4 -1.6 0
v -0.4 -1.5 0.1
v -0.4 -1.5 0
v -0.3 0.3 0.2
v -0.3 0.3 0.1
v -0.3 0.4 0.2
v -0.3 0.4 0.1
v -0.3 1.2 0.5
v -0.3 1.2 0.4
v -0.3 1.3 0.5
v -0.3 1.3 0.4
v -0.2 -1.6 0.1
v -0.2 -1.6 0
v -0.2 -1.5 0.1
v -0.2 -1.5 0
v -0.2 0.3 0.1
v -0.2 0.3 0
v -0.2 0.4 0.1
v -0.2 0.5 0.1
v -0.2 0.5 0
v -0.2 1.4 0.6
v -0.2 1.4 0.5
v -0.2 1.5 0.5
v -0.2 1.5 0.1
v -0.2 1.6 0.6
v -0.2 1.6 0.1
v -0.1 -1.6 0
v -0.1 -1.6 -0.6
v -0.1 -1.5 0
v -0.1 -1.5 -0.1
v -0.1 -1.5 -0.5
v -0.1 -1.5 -0.6
v -0.1 -1.4 -0.1
v -0.1 -1.4 -0.2
v -0.1 -1.4 -0.4
v -0.1 -1.4 -0.5
v -0.1 -1.4 -0.6
v -0.1 -1.3 -0.2
v -0.1 -1.3 -0.3
v -0.1 -1.3 -0.4
v -0.1 -1.3 -0.5
v -0.1 -1.2 -0.2
v -0.1 -1.2 -0.3
v -0.1 -1.2 -0.5
v -0.1 -1.2 -0.6
v -0.1 -1.1 -0.2
v -0.1 -1.1 -0.3
v -0.1 -1.1 -0.5
v -0.1 -1.1 -0.6
v -0.1 -1 -0.2
v -0.1 -1 -0.3
v -0.1 -1 -0.6
v -0.1 -0.9 -0.2
v -0.1 -0.9 -0.6
v -0.1 -0.8 0
v -0.1 -0.8 -0.1
v -0.1 -0.7 0
v -0.1 -0.7 -0.1
v -0.1 0.2 0.1
v -0.1 0.2 0
v -0.1 0.3 0.1
v -0.1 0.3 0
v 0 -1.6 0.2
v 0 -1.6 0
v 0 -1.5 0.2
v 0 -1.5 0
v 0 -0.9 -0.1
v 0 -0.9 -0.6
v 0 -0.7 -0.1
v 0 -0.7 -0.6
v 0 -0.5 0.2
v 0 -0.5 0.1
v 0 -0.4 0.2
v 0 -0.4 0.1
v 0 0.5 0.5
v 0 0.5 0.4
v 0 0.6 0.5
v 0 0.6 0.4
v 0 0.7 0.5
v 0 0.7 0.4
v 0 0.8 0.5
v 0 0.8 0.4
v 0.0999999 0.8 0.5
v 0.0999999 0.8 0.4
v 0.0999999 1 0.5
v 0.0999999 1 0.4
v 0.0999999 1.3 0.6
v 0.0999999 1.3 0.5
v 0.0999999 1.4 0.6
v 0.0999999 1.4 0.5
v 0.2 -1.6 0.2
v 0.2 -1.6 0
v 0.2 -1.5 0.2
v 0.2 -1.5 0
v 0.2 0.3 0.3
v 0.2 0.3 0.1
v 0.2 0.4 0.4
v 0.2 0.4 0.3
v 0.2 0.4 0.1
v 0.2 0.5 0.4
v 0.2 0.5 0.3
v 0.2 0.6 0.5
v 0.2 0.6 0.4
v 0.2 0.7 0.4
v 0.2 0.8 0.5
v 0.2 0.8 0.4
v 0.2 1.4 0.6
v 0.2 1.4 0.5
v 0.2 1.5 0.5
v 0.2 1.5 0.2
v 0.2 1.6 0.6
v 0.2 1.6 0.2
v 0.3 -0.6 0.2
v 0.3 -0.6 0.1
v 0.3 -0.5 0.2
v 0.3 -0.5 0.1
v 0.3 -0.4 0.2
v 0.3 -0.4 0.1
v 0.3 -0.1 0.2
v 0.3 -0.1 0.1
v 0.3 0 0.2
v 0.3 0 0.1
v 0.3 0.4 0.3
v 0.3 0.4 0.2
v 0.3 0.5 0.5
v 0.3 0.5 0.4
v 0.3 0.5 0.3
v 0.3 0.5 0.2
v 0.3 0.6 0.5
v 0.3 0.6 0.4
v 0.4 -1.6 0.1
v 0.4 -1.6 0
v 0.4 -1.5 0.1
v 0.4 -1.5 0
v 0.4 -0.8 0
v 0.4 -0.8 -0.1
v 0.4 -0.7 0.1
v 0.4 -0.7 0
v 0.4 -0.7 -0.1
v 0.4 -0.6 0.1
v 0.4 -0.6 0
v 0.4 -0.4 0.2
v 0.4 -0.4 0.1
v 0.4 -0.3 0.2
v 0.4 -0.3 0.1
v 0.4 -0.1 0.2
v 0.4 -0.1 0.1
v 0.4 0.1 0.1
v 0.4 0.1 0
v 0.4 0.2 0.1
v 0.4 0.2 0
v 0.4 0.4 0.2
v 0.4 0.4 0.1
v 0.4 0.5 0.4
v 0.4 0.5 0.3
v 0.4 0.5 0.2
v 0.4 0.5 0.1
v 0.4 0.6 0.4
v 0.4 0.6 0.3
v 0.4 1 0.5
v 0.4 1 0.4
v 0.4 1.1 0.5
v 0.4 1.1 0.4
v 0.5 -1.6 -0.2
v 0.5 -1.6 -0.6
v 0.5 -1.5 -0.1
v 0.5 -1.5 -0.2
v 0.5 -1.4 -0.1
v 0.5 -1.4 -0.2
v 0.5 -1.4 -0.3
v 0.5 -1.4 -0.4
v 0.5 -1.3 -0.3
v 0.5 -1.3 -0.4
v 0.5 -1.3 -0.5
v 0.5 -1.3 -0.6
v 0.5 -1.2 -0.2
v 0.5 -1.2 -0.3
v 0.5 -1.2 -0.5
v 0.5 -1.2 -0.6
v 0.5 -1.1 -0.2
v 0.5 -1.1 -0.3
v 0.5 -1 -0.2
v 0.5 -1 -0.6
v 0.5 -0.9 -0.2
v 0.5 -0.9 -0.6
v 0.5 -0.7 0
v 0.5 -0.7 -0.1
v 0.5 -0.6 0.1
v 0.5 -0.6 0
v 0.5 -0.5 0.1
v 0.5 -0.5 0
v 0.5 -0.5 -0.1
v 0.5 -0.4 0.1
v 0.5 -0.4 0
v 0.5 -0.3 0.1
v 0.5 -0.3 0
v 0.5 -0.1 0.1
v 0.5 -0.1 0
v 0.5 0 0.1
v 0.5 0 0
v 0.5 0.2 0.1
v 0.5 0.2 0
v 0.5 0.3 0.2
v 0.5 0.3 0.1
v 0.5 0.3 0
v 0.5 0.4 0.2
v 0.5 0.4 0.1
v 0.5 0.5 0.3
v 0.5 0.5 0.1
v 0.5 0.6 0.4
v 0.5 0.6 0.3
v 0.5 0.6 0.1
v 0.5 0.7 0.3
v 0.5 0.7 0.2
v 0.5 0.8 0.4
v 0.5 0.8 0.2
v 0.5 0.8 0.1
v 0.5 0.9 0.2
v 0.5 0.9 0.1
v 0.5 0.9 0
v 0.5 1 0.2
v 0.5 1 0.1
v 0.5 1 0
v 0.5 1.1 0.5
v 0.5 1.1 0.4
v 0.5 1.1 0.2
v 0.5 1.2 0.5
v 0.5 1.2 0.4
v 0.5 1.2 0.1
v 0.5 1.4 0.4
v 0.5 1.4 0.1
v 0.5 1.5 0.1
v 0.5 1.6 0.5
v 0.5 1.6 0.1
v 0.6 -1.6 0.1
v 0.6 -1.6 -0.2
v 0.6 -1.5 0.1
v 0.6 -1.5 -0.2
v 0.6 -0.9 -0.1
v 0.6 -0.9 -0.6
v 0.6 -0.5 0
v 0.6 -0.5 -0.1
v 0.6 -0.5 -0.6
v 0.6 -0.4 0
v 0.6 -0.4 -0.6
v 0.6 -0.3 0
v 0.6 -0.3 -0.6
v 0.6 -0.2 0
v 0.6 -0.2 -0.6
v 0.6 -0.2 -0.7
v 0.6 -0.1 -0.6
v 0.6 -0.1 -0.7
v 0.6 0 0.1
v 0.6 0 0
v 0.6 0.1 0.1
v 0.6 0.1 0
v 0.6 0.1 -0.6
v 0.6 0.1 -0.7
v 0.6 0.3 0.1
v 0.6 0.3 0
v 0.6 0.3 -0.6
v 0.6 0.3 -0.7
v 0.6 0.5 0.1
v 0.6 0.5 0
v 0.6 0.5 -0.6
v 0.6 0.5 -0.7
v 0.6 0.6 0.3
v 0.6 0.6 0.1
v 0.6 0.6 0
v 0.6 0.7 0.3
v 0.6 0.7 0.2
v 0.6 0.7 0
v 0.6 0.7 -0.6
v 0.6 0.7 -0.7
v 0.6 0.8 0.2
v 0.6 0.8 0.1
v 0.6 0.9 0.1
v 0.6 0.9 0
v 0.6 1 0.1
v 0.6 1 0
v 0.6 1.1 0
v 0.6 1.2 0.4
v 0.6 1.2 0.1
v 0.6 1.3 0
v 0.6 1.4 0.4
v 0.6 1.4 0.1
v 0.6 1.5 0.1
v 0.6 1.5 0
v 0.7 -0.2 0
v 0.7 -0.2 -0.6
v 0.7 -0.1 0
v 0.7 -0.1 -0.6
v 0.7 0.1 0
v 0.7 0.1 -0.6
v 0.7 0.3 0
v 0.7 0.3 -0.6
v 0.7 0.5 0
v 0.7 0.5 -0.6
v 0.7 0.6 0
v 0.7 0.6 -0.6
v 0.7 0.7 -0.6
v 0.7 0.7 -0.7
v 0.7 0.9 -0.6
v 0.7 0.9 -0.7
v 0.7 1.1 -0.6
v 0.7 1.1 -0.7
v 0.7 1.2 -0.6
v 0.7 1.2 -0.7
v 0.7 1.4 0
v 0.7 1.4 -0.5
v 0.7 1.5 0
v 0.7 1.5 -0.5
v 0.8 1.3 0
v 0.8 1.3 -0.6
v 0.8 1.4 0
v 0.8 1.4 -0.6
v 1 1.1 0
v 1 1.1 -0.6
v 1 1.3 0
v 1 1.3 -0.6
v 1.1 -0.8 0.2
v 1.1 -0.8 0.1
v 1.1 -0.6 0.1
v 1.1 -0.6 0
v 1.1 -0.5 0.2
v 1.1 -0.5 0.1
v 1.1 -0.3 0.1
v 1.1 -0.3 0
v 1.2 -0.5 0
v 1.2 -0.5 -0.6
v 1.2 -0.3 0.1
v 1.2 -0.3 0
v 1.2 -0.3 -0.6
v 1.2 -0.3 -0.7
v 1.2 0 0.1
v 1.2 0 0
v 1.2 0 -0.6
v 1.2 0 -0.7
v 1.2 0.1 0
v 1.2 0.1 -0.6
v 1.2 0.2 0.1
v 1.2 0.2 0
v 1.2 0.2 -0.5
v 1.2 0.3 0.2
v 1.2 0.3 0.1
v 1.2 0.3 0
v 1.2 0.3 -0.5
v 1.2 0.3 -0.6
v 1.2 0.3 -0.7
v 1.2 0.5 0.2
v 1.2 0.5 0.1
v 1.2 0.5 0
v 1.2 0.5 -0.5
v 1.2 0.5 -0.6
v 1.2 0.5 -0.7
v 1.2 0.6 0.1
v 1.2 0.6 0
v 1.2 0.6 -0.5
v 1.2 0.7 0
v 1.2 0.7 -0.6
v 1.2 0.9 0
v 1.2 0.9 -0.6
v 1.2 1.1 0
v 1.2 1.1 -0.6
v 1.3 -0.9 0.1
v 1.3 -0.9 -0.1
v 1.3 -0.9 -0.2
v 1.3 -0.9 -0.4
v 1.3 -0.9 -0.5
v 1.3 -0.9 -0.7
v 1.3 -0.8 -0.1
v 1.3 -0.8 -0.2
v 1.3 -0.8 -0.4
v 1.3 -0.8 -0.5
v 1.3 -0.6 0.1
v 1.3 -0.6 0
v 1.3 -0.6 -0.6
v 1.3 -0.6 -0.7
v 1.3 -0.5 0
v 1.3 -0.5 -0.6
v 1.3 -0.3 0
v 1.3 -0.3 -0.6
v 1.3 0 0
v 1.3 0 -0.6
v 1.3 0.2 0
v 1.3 0.2 -0.5
v 1.3 0.3 0.1
v 1.3 0.3 0
v 1.3 0.3 -0.5
v 1.3 0.3 -0.6
v 1.3 0.5 0.1
v 1.3 0.5 0
v 1.3 0.5 -0.5
v 1.3 0.5 -0.6
v 1.3 0.6 0
v 1.3 0.6 -0.5
v -0.3 1.4 0.6
v -0.3 1.6 0.6
v -0.2 1.4 0.6
v -0.2 1.6 0.6
v -0.1 1.3 0.6
v -0.1 1.6 0.6
v 0.0999999 1.3 0.6
v 0.0999999 1.4 0.6
v 0.2 1.4 0.6
v 0.2 1.6 0.6
v -0.5 1.2 0.5
v -0.5 1.5 0.5
v -0.4 1.1 0.5
v -0.4 1.2 0.5
v -0.3 1 0.5
v -0.3 1.1 0.5
v -0.3 1.2 0.5
v -0.3 1.3 0.5
v -0.3 1.4 0.5
v -0.3 1.5 0.5
v -0.2 0.5 0.5
v -0.2 0.6 0.5
v -0.2 1.4 0.5
v -0.2 1.5 0.5
v -0.1 0.6 0.5
v -0.1 0.8 0.5
v -0.1 1.3 0.5
v -0.1 1.5 0.5
v 0 0.5 0.5
v 0 0.6 0.5
v 0 0.7 0.5
v 0 0.8 0.5
v 0 1 0.5
v 0 1.1 0.5
v 0.0999999 0.5 0.5
v 0.0999999 0.6 0.5
v 0.0999999 0.7 0.5
v 0.0999999 0.8 0.5
v 0.0999999 1 0.5
v 0.0999999 1.1 0.5
v 0.0999999 1.3 0.5
v 0.0999999 1.4 0.5
v 0.2 0.6 0.5
v 0.2 0.8 0.5
v 0.2 1.4 0.5
v 0.2 1.5 0.5
v 0.3 0.5 0.5
v 0.3 0.6 0.5
v 0.3 1.2 0.5
v 0.3 1.3 0.5
v 0.3 1.5 0.5
v 0.3 1.6 0.5
v 0.4 1 0.5
v 0.4 1.1 0.5
v 0.5 1.1 0.5
v 0.5 1.2 0.5
v 0.5 1.6 0.5
v -0.4 0.6 0.4
v -0.4 0.8 0.4
v -0.4 1.1 0.4
v -0.3 0.5 0.4
v -0.3 0.6 0.4
v -0.3 0.7 0.4
v -0.3 0.8 0.4
v -0.3 1 0.4
v -0.3 1.1 0.4
v -0.3 1.2 0.4
v -0.3 1.3 0.4
v -0.2 0.5 0.4
v -0.2 0.6 0.4
v -0.1 0.4 0.4
v -0.1 0.5 0.4
v -0.1 0.6 0.4
v -0.1 0.7 0.4
v -0.1 0.8 0.4
v 0 0.5 0.4
v 0 0.6 0.4
v 0 0.7 0.4
v 0 0.8 0.4
v 0 1 0.4
v 0.0999999 0.5 0.4
v 0.0999999 0.6 0.4
v 0.0999999 0.7 0.4
v 0.0999999 0.8 0.4
v 0.0999999 1 0.4
v 0.2 0.4 0.4
v 0.2 0.5 0.4
v 0.2 0.6 0.4
v 0.2 0.7 0.4
v 0.2 0.8 0.4
v 0.3 0.5 0.4
v 0.3 0.6 0.4
v 0.3 1.2 0.4
v 0.3 1.3 0.4
v 0.4 0.5 0.4
v 0.4 0.6 0.4
v 0.4 0.7 0.4
v 0.4 0.8 0.4
v 0.4 1 0.4
v 0.4 1.1 0.4
v 0.5 0.6 0.4
v 0.5 0.8 0.4
v 0.5 1.1 0.4
v 0.5 1.2 0.4
v 0.5 1.4 0.4
v 0.6 1.2 0.4
v 0.6 1.4 0.4
v -0.5 1.1 0.3
v -0.5 1.2 0.3
v -0.4 0.5 0.3
v -0.4 0.6 0.3
v -0.4 1.1 0.3
v -0.4 1.2 0.3
v -0.3 0.5 0.3
v -0.3 0.6 0.3
v -0.2 0.4 0.3
v -0.2 0.5 0.3
v -0.1 0.3 0.3
v -0.1 0.4 0.3
v -0.1 0.5 0.3
v 0.2 0.3 0.3
v 0.2 0.4 0.3
v 0.2 0.5 0.3
v 0.3 0.4 0.3
v 0.3 0.5 0.3
v 0.4 0.5 0.3
v 0.4 0.6 0.3
v 0.5 0.5 0.3
v 0.5 0.6 0.3
v 0.5 0.7 0.3
v 0.6 0.6 0.3
v 0.6 0.7 0.3
v -1.1 0.3 0.2
v -1.1 0.5 0.2
v -1 -0.8 0.2
v -1 -0.5 0.2
v -0.8 -0.8 0.2
v -0.8 -0.5 0.2
v -0.8 0.3 0.2
v -0.8 0.5 0.2
v -0.5 0.6 0.2
v -0.5 0.8 0.2
v -0.4 0.3 0.2
v -0.4 0.4 0.2
v -0.4 0.6 0.2
v -0.4 0.8 0.2
v -0.3 -0.4 0.2
v -0.3 -0.3 0.2
v -0.3 -0.1 0.2
v -0.3 0.3 0.2
v -0.3 0.4 0.2
v -0.3 0.5 0.2
v -0.2 -0.6 0.2
v -0.2 -0.5 0.2
v -0.2 -0.4 0.2
v -0.2 -0.1 0.2
v -0.2 0 0.2
v -0.2 0.4 0.2
v -0.2 0.5 0.2
v -0.1 -1.6 0.2
v -0.1 -1.5 0.2
v -0.1 -0.5 0.2
v -0.1 -0.4 0.2
v -0.1 -0.3 0.2
v -0.1 -0.2 0.2
v -0.1 -0.1 0.2
v -0.1 0 0.2
v 0 -1.6 0.2
v 0 -1.5 0.2
v 0 -0.5 0.2
v 0 -0.4 0.2
v 0 -0.3 0.2
v 0 -0.2 0.2
v 0 0 0.2
v 0.0999999 -1.6 0.2
v 0.0999999 -1.5 0.2
v 0.0999999 -0.5 0.2
v 0.0999999 -0.4 0.2
v 0.0999999 -0.2 0.2
v 0.0999999 0 0.2
v 0.2 -1.6 0.2
v 0.2 -1.5 0.2
v 0.2 -0.5 0.2
v 0.2 -0.4 0.2
v 0.2 -0.3 0.2
v 0.2 -0.2 0.2
v 0.2 -0.1 0.2
v 0.2 0 0.2
v 0.3 -0.6 0.2
v 0.3 -0.5 0.2
v 0.3 -0.4 0.2
v 0.3 -0.1 0.2
v 0.3 0 0.2
v 0.3 0.4 0.2
v 0.3 0.5 0.2
v 0.4 -0.4 0.2
v 0.4 -0.3 0.2
v 0.4 -0.1 0.2
v 0.4 0.3 0.2
v 0.4 0.4 0.2
v 0.4 0.5 0.2
v 0.5 0.3 0.2
v 0.5 0.4 0.2
v 0.5 0.7 0.2
v 0.5 0.8 0.2
v 0.6 0.7 0.2
v 0.6 0.8 0.2
v 0.9 -0.8 0.2
v 0.9 -0.5 0.2
v 0.9 0.3 0.2
v 0.9 0.5 0.2
v 1.1 -0.8 0.2
v 1.1 -0.5 0.2
v 1.2 0.3 0.2
v 1.2 0.5 0.2
v -1.2 -0.9 0.1
v -1.2 -0.6 0.1
v -1.2 0.3 0.1
v -1.2 0.5 0.1
v -1.1 -0.3 0.1
v -1.1 0 0.1
v -1.1 0.2 0.1
v -1.1 0.3 0.1
v -1.1 0.5 0.1
v -1.1 0.6 0.1
v -1 -0.9 0.1
v -1 -0.8 0.1
v -1 -0.6 0.1
v -1 -0.5 0.1
v -1 -0.3 0.1
v -0.8 -0.5 0.1
v -0.8 0 0.1
v -0.8 0.2 0.1
v -0.8 0.3 0.1
v -0.8 0.5 0.1
v -0.8 0.6 0.1
v -0.7 0.3 0.1
v -0.7 0.5 0.1
v -0.5 -1.6 0.1
v -0.5 -1.5 0.1
v -0.5 0 0.1
v -0.5 0.1 0.1
v -0.5 0.3 0.1
v -0.5 0.5 0.1
v -0.5 0.6 0.1
v -0.5 0.8 0.1
v -0.5 0.9 0.1
v -0.4 -1.6 0.1
v -0.4 -1.5 0.1
v -0.4 -0.6 0.1
v -0.4 -0.5 0.1
v -0.4 -0.4 0.1
v -0.4 -0.3 0.1
v -0.4 -0.1 0.1
v -0.4 0 0.1
v -0.4 0.2 0.1
v -0.4 0.3 0.1
v -0.4 0.4 0.1
v -0.4 0.5 0.1
v -0.4 0.6 0.1
v -0.4 0.8 0.1
v -0.4 0.9 0.1
v -0.3 -1.6 0.1
v -0.3 -1.5 0.1
v -0.3 -0.7 0.1
v -0.3 -0.6 0.1
v -0.3 -0.4 0.1
v -0.3 -0.3 0.1
v -0.3 -0.1 0.1
v -0.3 0.1 0.1
v -0.3 0.2 0.1
v -0.3 0.3 0.1
v -0.3 0.4 0.1
v -0.3 0.5 0.1
v -0.2 -1.6 0.1
v -0.2 -1.5 0.1
v -0.2 -0.6 0.1
v -0.2 -0.5 0.1
v -0.2 -0.4 0.1
v -0.2 -0.1 0.1
v -0.2 0 0.1
v -0.2 0.3 0.1
v -0.2 0.4 0.1
v -0.1 0 0.1
v -0.1 0.1 0.1
v -0.1 0.2 0.1
v -0.1 0.3 0.1
v 0 -0.5 0.1
v 0 -0.4 0.1
v 0 0 0.1
v 0 0.2 0.1
v 0.0999999 -0.5 0.1
v 0.0999999 -0.4 0.1
v 0.0999999 0 0.1
v 0.0999999 0.1 0.1
v 0.2 0 0.1
v 0.2 0.1 0.1
v 0.2 0.2 0.1
v 0.3 -1.6 0.1
v 0.3 -1.5 0.1
v 0.3 -0.6 0.1
v 0.3 -0.5 0.1
v 0.3 -0.4 0.1
v 0.3 -0.1 0.1
v 0.3 0 0.1
v 0.3 0.2 0.1
v 0.3 0.3 0.1
v 0.3 0.4 0.1
v 0.4 -1.6 0.1
v 0.4 -1.5 0.1
v 0.4 -0.7 0.1
v 0.4 -0.6 0.1
v 0.4 -0.4 0.1
v 0.4 -0.3 0.1
v 0.4 -0.1 0.1
v 0.4 0.1 0.1
v 0.4 0.2 0.1
v 0.4 0.3 0.1
v 0.4 0.4 0.1
v 0.4 0.5 0.1
v 0.5 -1.6 0.1
v 0.5 -1.5 0.1
v 0.5 -0.6 0.1
v 0.5 -0.5 0.1
v 0.5 -0.4 0.1
v 0.5 -0.3 0.1
v 0.5 -0.1 0.1
v 0.5 0 0.1
v 0.5 0.2 0.1
v 0.5 0.3 0.1
v 0.5 0.4 0.1
v 0.5 0.5 0.1
v 0.5 0.6 0.1
v 0.5 0.8 0.1
v 0.5 0.9 0.1
v 0.5 1 0.1
v 0.5 1.2 0.1
v 0.5 1.4 0.1
v 0.5 1.5 0.1
v 0.6 -1.6 0.1
v 0.6 -1.5 0.1
v 0.6 0 0.1
v 0.6 0.1 0.1
v 0.6 0.3 0.1
v 0.6 0.5 0.1
v 0.6 0.6 0.1
v 0.6 0.8 0.1
v 0.6 0.9 0.1
v 0.6 1 0.1
v 0.6 1.2 0.1
v 0.6 1.4 0.1
v 0.6 1.5 0.1
v 0.8 0.3 0.1
v 0.8 0.5 0.1
v 0.9 -0.5 0.1
v 0.9 0 0.1
v 0.9 0.2 0.1
v 0.9 0.3 0.1
v 0.9 0.5 0.1
v 0.9 0.6 0.1
v 1.1 -0.9 0.1
v 1.1 -0.8 0.1
v 1.1 -0.6 0.1
v 1.1 -0.5 0.1
v 1.1 -0.3 0.1
v 1.2 -0.3 0.1
v 1.2 0 0.1
v 1.2 0.2 0.1
v 1.2 0.3 0.1
v 1.2 0.5 0.1
v 1.2 0.6 0.1
v 1.3 -0.9 0.1
v 1.3 -0.6 0.1
v 1.3 0.3 0.1
v 1.3 0.5 0.1
v -1.2 -0.6 0
v -1.2 -0.5 0
v -1.2 -0.3 0
v -1.2 0 0
v -1.2 0.2 0
v -1.2 0.3 0
v -1.2 0.5 0
v -1.2 0.6 0
v -1.1 -0.5 0
v -1.1 -0.3 0
v -1.1 0 0
v -1.1 0.1 0
v -1.1 0.2 0
v -1.1 0.3 0
v -1.1 0.5 0
v -1.1 0.6 0
v -1.1 0.7 0
v -1.1 0.9 0
v -1.1 1.1 0
v -1 -0.6 0
v -1 -0.3 0
v -0.9 1.1 0
v -0.9 1.3 0
v -0.8 -0.7 0
v -0.8 0 0
v -0.8 0.1 0
v -0.8 0.2 0
v -0.8 0.3 0
v -0.8 0.6 0
v -0.7 -0.7 0
v -0.7 0 0
v -0.7 0.2 0
v -0.7 0.3 0
v -0.7 1.3 0
v -0.7 1.4 0
v -0.6 -0.2 0
v -0.6 -0.1 0
v -0.6 0.1 0
v -0.6 0.3 0
v -0.6 0.5 0
v -0.6 0.6 0
v -0.6 1.4 0
v -0.6 1.5 0
v -0.5 -0.7 0
v -0.5 -0.5 0
v -0.5 -0.4 0
v -0.5 -0.3 0
v -0.5 -0.2 0
v -0.5 0 0
v -0.5 0.1 0
v -0.5 0.3 0
v -0.5 0.5 0
v -0.5 0.6 0
v -0.5 0.7 0
v -0.5 0.9 0
v -0.5 1.1 0
v -0.5 1.2 0
v -0.5 1.3 0
v -0.5 1.4 0
v -0.4 -1.6 0
v -0.4 -1.5 0
v -0.4 -0.8 0
v -0.4 -0.7 0
v -0.4 -0.6 0
v -0.4 -0.5 0
v -0.4 -0.4 0
v -0.4 -0.3 0
v -0.4 -0.1 0
v -0.4 0 0
v -0.4 0.2 0
v -0.4 0.3 0
v -0.4 0.9 0
v -0.4 1 0
v -0.4 1.1 0
v -0.4 1.4 0
v -0.4 1.5 0
v -0.3 -1.6 0
v -0.3 -1.5 0
v -0.3 -0.7 0
v -0.3 -0.6 0
v -0.3 0.1 0
v -0.3 0.2 0
v -0.2 -1.6 0
v -0.2 -1.5 0
v -0.2 0.3 0
v -0.2 0.5 0
v -0.1 -1.6 0
v -0.1 -1.5 0
v -0.1 -0.8 0
v -0.1 -0.7 0
v -0.1 0.2 0
v -0.1 0.3 0
v -0.1 0.4 0
v 0 0.2 0
v 0 0.4 0
v 0.0999999 0.2 0
v 0.0999999 0.5 0
v 0.2 -1.6 0
v 0.2 -1.5 0
v 0.2 -0.8 0
v 0.2 -0.7 0
v 0.2 0.2 0
v 0.2 0.3 0
v 0.2 0.4 0
v 0.2 0.5 0
v 0.3 -1.6 0
v 0.3 -1.5 0
v 0.3 0.2 0
v 0.3 0.3 0
v 0.3 0.4 0
v 0.4 -1.6 0
v 0.4 -1.5 0
v 0.4 -0.8 0
v 0.4 -0.7 0
v 0.4 -0.6 0
v 0.4 0.1 0
v 0.4 0.2 0
v 0.5 -1.6 0
v 0.5 -1.5 0
v 0.5 -0.7 0
v 0.5 -0.6 0
v 0.5 -0.5 0
v 0.5 -0.4 0
v 0.5 -0.3 0
v 0.5 -0.1 0
v 0.5 0 0
v 0.5 0.2 0
v 0.5 0.3 0
v 0.5 0.9 0
v 0.5 1 0
v 0.6 -0.5 0
v 0.6 -0.4 0
v 0.6 -0.3 0
v 0.6 -0.2 0
v 0.6 0 0
v 0.6 0.1 0
v 0.6 0.3 0
v 0.6 0.5 0
v 0.6 0.6 0
v 0.6 0.7 0
v 0.6 0.9 0
v 0.6 1 0
v 0.6 1.1 0
v 0.6 1.3 0
v 0.6 1.5 0
v 0.7 -0.2 0
v 0.7 -0.1 0
v 0.7 0.1 0
v 0.7 0.3 0
v 0.7 0.5 0
v 0.7 0.6 0
v 0.7 1.4 0
v 0.7 1.5 0
v 0.8 -0.7 0
v 0.8 0 0
v 0.8 0.2 0
v 0.8 0.3 0
v 0.8 1.3 0
v 0.8 1.4 0
v 0.9 -0.7 0
v 0.9 0 0
v 0.9 0.1 0
v 0.9 0.2 0
v 0.9 0.3 0
v 0.9 0.6 0
v 1 1.1 0
v 1 1.3 0
v 1.1 -0.6 0
v 1.1 -0.3 0
v 1.2 -0.5 0
v 1.2 -0.3 0
v 1.2 0 0
v 1.2 0.1 0
v 1.2 0.2 0
v 1.2 0.3 0
v 1.2 0.5 0
v 1.2 0.6 0
v 1.2 0.7 0
v 1.2 0.9 0
v 1.2 1.1 0
v 1.3 -0.6 0
v 1.3 -0.5 0
v 1.3 -0.3 0
v 1.3 0 0
v 1.3 0.2 0
v 1.3 0.3 0
v 1.3 0.5 0
v 1.3 0.6 0
v -1 -0.8 -0.1
v -1 -0.7 -0.1
v -0.7 -0.8 -0.1
v -0.7 -0.7 -0.1
v -0.5 -0.9 -0.1
v -0.5 -0.7 -0.1
v -0.5 1.1 -0.1
v -0.5 1.2 -0.1
v -0.4 -1.5 -0.1
v -0.4 -1.4 -0.1
v -0.4 -0.8 -0.1
v -0.4 -0.7 -0.1
v -0.4 1.1 -0.1
v -0.4 1.2 -0.1
v -0.1 -1.5 -0.1
v -0.1 -1.4 -0.1
v -0.1 -0.8 -0.1
v -0.1 -0.7 -0.1
v 0 -0.9 -0.1
v 0 -0.7 -0.1
v 0.0999999 -0.9 -0.1
v 0.0999999 -0.7 -0.1
v 0.2 -1.5 -0.1
v 0.2 -1.4 -0.1
v 0.2 -0.8 -0.1
v 0.2 -0.7 -0.1
v 0.4 -0.8 -0.1
v 0.4 -0.7 -0.1
v 0.5 -1.5 -0.1
v 0.5 -1.4 -0.1
v 0.5 -0.7 -0.1
v 0.5 -0.5 -0.1
v 0.6 -0.9 -0.1
v 0.6 -0.5 -0.1
v 0.8 -0.8 -0.1
v 0.8 -0.7 -0.1
v 1.1 -0.8 -0.1
v 1.1 -0.7 -0.1
v -1.2 -0.9 -0.2
v -1.2 -0.8 -0.2
v -1 -0.9 -0.2
v -1 -0.8 -0.2
v -0.4 -1.4 -0.2
v -0.4 -1.3 -0.2
v -0.4 -1.2 -0.2
v -0.4 -1.1 -0.2
v -0.4 -1 -0.2
v -0.4 -0.9 -0.2
v -0.3 -1.3 -0.2
v -0.3 -1.2 -0.2
v -0.3 -1.1 -0.2
v -0.3 -1 -0.2
v -0.2 -1.3 -0.2
v -0.2 -1.2 -0.2
v -0.2 -1.1 -0.2
v -0.2 -1 -0.2
v -0.1 -1.4 -0.2
v -0.1 -1.3 -0.2
v -0.1 -1.2 -0.2
v -0.1 -1.1 -0.2
v -0.1 -1 -0.2
v -0.1 -0.9 -0.2
v 0.2 -1.4 -0.2
v 0.2 -1.3 -0.2
v 0.2 -1 -0.2
v 0.2 -0.9 -0.2
v 0.3 -1.4 -0.2
v 0.3 -1.3 -0.2
v 0.4 -1.2 -0.2
v 0.4 -1.1 -0.2
v 0.5 -1.4 -0.2
v 0.5 -1.2 -0.2
v 0.5 -1.1 -0.2
v 0.5 -1 -0.2
v 0.5 -0.9 -0.2
v 1.1 -0.9 -0.2
v 1.1 -0.8 -0.2
v 1.3 -0.9 -0.2
v 1.3 -0.8 -0.2
v -1.2 -0.9 -0.5
v -1.2 -0.8 -0.5
v -1 -0.9 -0.5
v -1 -0.8 -0.5
v 1.1 -0.9 -0.5
v 1.1 -0.8 -0.5
v 1.3 -0.9 -0.5
v 1.3 -0.8 -0.5
v -0.5 1.4 0.2
v -0.5 1.5 0.2
v -0.4 1.4 0.2
v -0.4 1.5 0.2
v -0.1 1.5 0.2
v -0.1 1.6 0.2
v 0.2 1.5 0.2
v 0.2 1.6 0.2
v -0.5 1.1 0.1
v -0.5 1.2 0.1
v -0.4 1.1 0.1
v -0.4 1.2 0.1
v -0.3 1.5 0.1
v -0.3 1.6 0.1
v -0.2 0.4 0.1
v -0.2 0.5 0.1
v -0.2 1.5 0.1
v -0.2 1.6 0.1
v -0.1 0.3 0.1
v -0.1 0.4 0.1
v 0.2 0.3 0.1
v 0.2 0.4 0.1
v 0.2 0.5 0.1
v 0.3 1.5 0.1
v 0.3 1.6 0.1
v 0.5 1.5 0.1
v 0.5 1.6 0.1
v -1 -0.8 0
v -1 -0.7 0
v -0.8 -0.8 0
v -0.8 -0.7 0
v -0.1 -1.6 0
v -0.1 -1.5 0
v 0 -1.6 0
v 0 -1.5 0
v 0.0999999 -1.6 0
v 0.0999999 -1.5 0
v 0.2 -1.6 0
v 0.2 -1.5 0
v 0.9 -0.8 0
v 0.9 -0.7 0
v 1.1 -0.8 0
v 1.1 -0.7 0
v -1.2 -0.9 -0.1
v -1.2 -0.8 -0.1
v -1 -0.9 -0.1
v -1 -0.8 -0.1
v 1.1 -0.9 -0.1
v 1.1 -0.8 -0.1
v 1.3 -0.9 -0.1
v 1.3 -0.8 -0.1
v -0.5 -1.6 -0.2
v -0.5 -1.5 -0.2
v -0.4 -1.6 -0.2
v -0.4 -1.5 -0.2
v 0.5 -1.6 -0.2
v 0.5 -1.5 -0.2
v 0.6 -1.6 -0.2
v 0.6 -1.5 -0.2
v -1.2 -0.9 -0.4
v -1.2 -0.8 -0.4
v -1 -0.9 -0.4
v -1 -0.8 -0.4
v 1.1 -0.9 -0.4
v 1.1 -0.8 -0.4
v 1.3 -0.9 -0.4
v 1.3 -0.8 -0.4
v -1.2 0.2 -0.5
v -1.2 0.3 -0.5
v -1.2 0.5 -0.5
v -1.2 0.6 -0.5
v -1.1 0.2 -0.5
v -1.1 0.3 -0.5
v -1.1 0.5 -0.5
v -1.1 0.6 -0.5
v -1 -0.8 -0.5
v -1 -0.7 -0.5
v -0.8 0.2 -0.5
v -0.8 0.3 -0.5
v -0.7 -0.8 -0.5
v -0.7 -0.7 -0.5
v -0.7 0.2 -0.5
v -0.7 0.3 -0.5
v -0.6 1.4 -0.5
v -0.6 1.5 -0.5
v 0.7 1.4 -0.5
v 0.7 1.5 -0.5
v 0.8 -0.8 -0.5
v 0.8 -0.7 -0.5
v 0.8 0.2 -0.5
v 0.8 0.3 -0.5
v 0.9 0.2 -0.5
v 0.9 0.3 -0.5
v 1.1 -0.8 -0.5
v 1.1 -0.7 -0.5
v 1.2 0.2 -0.5
v 1.2 0.3 -0.5
v 1.2 0.5 -0.5
v 1.2 0.6 -0.5
v 1.3 0.2 -0.5
v 1.3 0.3 -0.5
v 1.3 0.5 -0.5
v 1.3 0.6 -0.5
v -1.2 -0.6 -0.6
v -1.2 -0.5 -0.6
v -1.2 -0.3 -0.6
v -1.2 0 -0.6
v -1.2 0.3 -0.6
v -1.2 0.5 -0.6
v -1.1 -0.5 -0.6
v -1.1 -0.3 -0.6
v -1.1 0 -0.6
v -1.1 0.1 -0.6
v -1.1 0.3 -0.6
v -1.1 0.5 -0.6
v -1.1 0.7 -0.6
v -1.1 0.9 -0.6
v -1.1 1.1 -0.6
v -1 -0.7 -0.6
v -1 -0.6 -0.6
v -0.9 1.1 -0.6
v -0.9 1.3 -0.6
v -0.8 -0.3 -0.6
v -0.8 0 -0.6
v -0.8 0.1 -0.6
v -0.8 0.3 -0.6
v -0.8 0.5 -0.6
v -0.8 0.6 -0.6
v -0.7 -0.7 -0.6
v -0.7 0 -0.6
v -0.7 0.3 -0.6
v -0.7 0.5 -0.6
v -0.7 1.3 -0.6
v -0.7 1.4 -0.6
v -0.6 -0.2 -0.6
v -0.6 -0.1 -0.6
v -0.6 0.1 -0.6
v -0.6 0.3 -0.6
v -0.6 0.5 -0.6
v -0.6 0.6 -0.6
v -0.6 0.7 -0.6
v -0.6 0.9 -0.6
v -0.6 1.1 -0.6
v -0.6 1.2 -0.6
v -0.5 -0.9 -0.6
v -0.5 -0.5 -0.6
v -0.5 -0.4 -0.6
v -0.5 -0.3 -0.6
v -0.5 -0.2 -0.6
v -0.5 -0.1 -0.6
v -0.5 0.1 -0.6
v -0.5 0.3 -0.6
v -0.5 0.5 -0.6
v -0.5 0.7 -0.6
v -0.4 -1.6 -0.6
v -0.4 -1.5 -0.6
v -0.4 -1.4 -0.6
v -0.4 -1.2 -0.6
v -0.4 -1.1 -0.6
v -0.4 -1 -0.6
v -0.4 -0.9 -0.6
v -0.3 -1.5 -0.6
v -0.3 -1.4 -0.6
v -0.3 -1.2 -0.6
v -0.3 -1.1 -0.6
v -0.2 -1.5 -0.6
v -0.2 -1.4 -0.6
v -0.2 -1.2 -0.6
v -0.2 -1.1 -0.6
v -0.1 -1.6 -0.6
v -0.1 -1.5 -0.6
v -0.1 -1.4 -0.6
v -0.1 -1.2 -0.6
v -0.1 -1.1 -0.6
v -0.1 -1 -0.6
v -0.1 -0.9 -0.6
v 0 -0.9 -0.6
v 0 -0.7 -0.6
v 0.0999999 -0.9 -0.6
v 0.0999999 -0.7 -0.6
v 0.2 -1.6 -0.6
v 0.2 -1.5 -0.6
v 0.2 -1.4 -0.6
v 0.2 -1 -0.6
v 0.2 -0.9 -0.6
v 0.3 -1.5 -0.6
v 0.3 -1.4 -0.6
v 0.3 -1.3 -0.6
v 0.3 -1.1 -0.6
v 0.3 -1 -0.6
v 0.4 -1.4 -0.6
v 0.4 -1.3 -0.6
v 0.4 -1.2 -0.6
v 0.4 -1.1 -0.6
v 0.4 -1 -0.6
v 0.5 -1.6 -0.6
v 0.5 -1.3 -0.6
v 0.5 -1.2 -0.6
v 0.5 -1 -0.6
v 0.5 -0.9 -0.6
v 0.6 -0.9 -0.6
v 0.6 -0.5 -0.6
v 0.6 -0.4 -0.6
v 0.6 -0.3 -0.6
v 0.6 -0.2 -0.6
v 0.6 -0.1 -0.6
v 0.6 0.1 -0.6
v 0.6 0.3 -0.6
v 0.6 0.5 -0.6
v 0.6 0.7 -0.6
v 0.7 -0.2 -0.6
v 0.7 -0.1 -0.6
v 0.7 0.1 -0.6
v 0.7 0.3 -0.6
v 0.7 0.5 -0.6
v 0.7 0.6 -0.6
v 0.7 0.7 -0.6
v 0.7 0.9 -0.6
v 0.7 1.1 -0.6
v 0.7 1.2 -0.6
v 0.8 -0.7 -0.6
v 0.8 0 -0.6
v 0.8 0.3 -0.6
v 0.8 0.5 -0.6
v 0.8 1.3 -0.6
v 0.8 1.4 -0.6
v 0.9 -0.3 -0.6
v 0.9 0 -0.6
v 0.9 0.1 -0.6
v 0.9 0.3 -0.6
v 0.9 0.5 -0.6
v 0.9 0.6 -0.6
v 1 1.1 -0.6
v 1 1.3 -0.6
v 1.1 -0.7 -0.6
v 1.1 -0.6 -0.6
v 1.2 -0.5 -0.6
v 1.2 -0.3 -0.6
v 1.2 0 -0.6
v 1.2 0.1 -0.6
v 1.2 0.3 -0.6
v 1.2 0.5 -0.6
v 1.2 0.7 -0.6
v 1.2 0.9 -0.6
v 1.2 1.1 -0.6
v 1.3 -0.6 -0.6
v 1.3 -0.5 -0.6
v 1.3 -0.3 -0.6
v 1.3 0 -0.6
v 1.3 0.3 -0.6
v 1.3 0.5 -0.6
v -1.2 -0.9 -0.7
v -1.2 -0.6 -0.7
v -1.1 -0.3 -0.7
v -1.1 0 -0.7
v -1.1 0.3 -0.7
v -1.1 0.5 -0.7
v -1 -0.9 -0.7
v -1 -0.6 -0.7
v -0.8 -0.3 -0.7
v -0.8 0 -0.7
v -0.8 0.3 -0.7
v -0.8 0.5 -0.7
v -0.6 0.7 -0.7
v -0.6 0.9 -0.7
v -0.6 1.1 -0.7
v -0.6 1.2 -0.7
v -0.5 -0.2 -0.7
v -0.5 -0.1 -0.7
v -0.5 0.1 -0.7
v -0.5 0.3 -0.7
v -0.5 0.5 -0.7
v -0.5 0.7 -0.7
v 0.6 -0.2 -0.7
v 0.6 -0.1 -0.7
v 0.6 0.1 -0.7
v 0.6 0.3 -0.7
v 0.6 0.5 -0.7
v 0.6 0.7 -0.7
v 0.7 0.7 -0.7
v 0.7 0.9 -0.7
v 0.7 1.1 -0.7
v 0.7 1.2 -0.7
v 0.9 -0.3 -0.7
v 0.9 0 -0.7
v 0.9 0.3 -0.7
v 0.9 0.5 -0.7
v 1.1 -0.9 -0.7
v 1.1 -0.6 -0.7
v 1.2 -0.3 -0.7
v 1.2 0 -0.7
v 1.2 0.3 -0.7
v 1.2 0.5 -0.7
v 1.3 -0.9 -0.7
v 1.3 -0.6 -0.7
v -0.1 -1.6 0.2
v 0 -1.6 0.2
v 0.0999999 -1.6 0.2
v 0.2 -1.6 0.2
v -0.5 -1.6 0.1
v -0.4 -1.6 0.1
v -0.3 -1.6 0.1
v -0.2 -1.6 0.1
v 0.3 -1.6 0.1
v 0.4 -1.6 0.1
v 0.5 -1.6 0.1
v 0.6 -1.6 0.1
v -0.4 -1.6 0
v -0.3 -1.6 0
v -0.2 -1.6 0
v -0.1 -1.6 0
v 0 -1.6 0
v 0.0999999 -1.6 0
v 0.2 -1.6 0
v 0.3 -1.6 0
v 0.4 -1.6 0
v 0.5 -1.6 0
v -0.5 -1.6 -0.2
v -0.4 -1.6 -0.2
v 0.5 -1.6 -0.2
v 0.6 -1.6 -0.2
v -0.4 -1.6 -0.6
v -0.1 -1.6 -0.6
v 0.2 -1.6 -0.6
v 0.5 -1.6 -0.6
v -1.2 -0.9 0.1
v -1 -0.9 0.1
v 1.1 -0.9 0.1
v 1.3 -0.9 0.1
v -1.2 -0.9 -0.1
v -1 -0.9 -0.1
v -0.5 -0.9 -0.1
v 0 -0.9 -0.1
v 0.0999999 -0.9 -0.1
v 0.6 -0.9 -0.1
v 1.1 -0.9 -0.1
v 1.3 -0.9 -0.1
v -1.2 -0.9 -0.2
v -1 -0.9 -0.2
v -0.4 -0.9 -0.2
v -0.1 -0.9 -0.2
v 0.2 -0.9 -0.2
v 0.5 -0.9 -0.2
v 1.1 -0.9 -0.2
v 1.3 -0.9 -0.2
v -1.2 -0.9 -0.4
v -1 -0.9 -0.4
v 1.1 -0.9 -0.4
v 1.3 -0.9 -0.4
v -1.2 -0.9 -0.5
v -1 -0.9 -0.5
v 1.1 -0.9 -0.5
v 1.3 -0.9 -0.5
v -0.5 -0.9 -0.6
v -0.4 -0.9 -0.6
v -0.1 -0.9 -0.6
v 0 -0.9 -0.6
v 0.0999999 -0.9 -0.6
v 0.2 -0.9 -0.6
v 0.5 -0.9 -0.6
v 0.6 -0.9 -0.6
v -1.2 -0.9 -0.7
v -1 -0.9 -0.7
v 1.1 -0.9 -0.7
v 1.3 -0.9 -0.7
v -1 -0.8 0.2
v -0.8 -0.8 0.2
v 0.9 -0.8 0.2
v 1.1 -0.8 0.2
v -1 -0.8 0.1
v 1.1 -0.8 0.1
v -1 -0.8 0
v -0.8 -0.8 0
v -0.4 -0.8 0
v -0.1 -0.8 0
v 0.2 -0.8 0
v 0.4 -0.8 0
v 0.9 -0.8 0
v 1.1 -0.8 0
v -1.2 -0.8 -0.1
v -1 -0.8 -0.1
v -0.7 -0.8 -0.1
v -0.4 -0.8 -0.1
v -0.1 -0.8 -0.1
v 0.2 -0.8 -0.1
v 0.4 -0.8 -0.1
v 0.8 -0.8 -0.1
v 1.1 -0.8 -0.1
v 1.3 -0.8 -0.1
v -1.2 -0.8 -0.2
v -1 -0.8 -0.2
v 1.1 -0.8 -0.2
v 1.3 -0.8 -0.2
v -1.2 -0.8 -0.4
v -1 -0.8 -0.4
v 1.1 -0.8 -0.4
v 1.3 -0.8 -0.4
v -1.2 -0.8 -0.5
v -1 -0.8 -0.5
v -0.7 -0.8 -0.5
v 0.8 -0.8 -0.5
v 1.1 -0.8 -0.5
v 1.3 -0.8 -0.5
v -0.3 -0.7 0.1
v 0.4 -0.7 0.1
v -1 -0.7 0
v -0.8 -0.7 0
v -0.7 -0.7 0
v -0.5 -0.7 0
v -0.4 -0.7 0
v -0.3 -0.7 0
v -0.1 -0.7 0
v 0.2 -0.7 0
v 0.4 -0.7 0
v 0.5 -0.7 0
v 0.8 -0.7 0
v 0.9 -0.7 0
v 1.1 -0.7 0
v -1 -0.7 -0.1
v -0.7 -0.7 -0.1
v -0.5 -0.7 -0.1
v -0.4 -0.7 -0.1
v -0.1 -0.7 -0.1
v 0 -0.7 -0.1
v 0.0999999 -0.7 -0.1
v 0.2 -0.7 -0.1
v 0.4 -0.7 -0.1
v 0.5 -0.7 -0.1
v 0.8 -0.7 -0.1
v 1.1 -0.7 -0.1
v -1 -0.7 -0.5
v -0.7 -0.7 -0.5
v 0.8 -0.7 -0.5
v 1.1 -0.7 -0.5
v -1 -0.7 -0.6
v -0.7 -0.7 -0.6
v 0 -0.7 -0.6
v 0.0999999 -0.7 -0.6
v 0.8 -0.7 -0.6
v 1.1 -0.7 -0.6
v -0.2 -0.6 0.2
v 0.3 -0.6 0.2
v -0.4 -0.6 0.1
v -0.3 -0.6 0.1
v -0.2 -0.6 0.1
v 0.3 -0.6 0.1
v 0.4 -0.6 0.1
v 0.5 -0.6 0.1
v -0.4 -0.6 0
v -0.3 -0.6 0
v 0.4 -0.6 0
v 0.5 -0.6 0
v 0.5 -0.5 0
v 0.6 -0.5 0
v 0.5 -0.5 -0.1
v 0.6 -0.5 -0.1
v -0.3 -0.4 0.2
v -0.2 -0.4 0.2
v 0 -0.4 0.2
v 0.0999999 -0.4 0.2
v 0.3 -0.4 0.2
v 0.4 -0.4 0.2
v -0.3 -0.4 0.1
v -0.2 -0.4 0.1
v 0 -0.4 0.1
v 0.0999999 -0.4 0.1
v 0.3 -0.4 0.1
v 0.4 -0.4 0.1
v -1.1 -0.3 0.1
v -1 -0.3 0.1
v 1.1 -0.3 0.1
v 1.2 -0.3 0.1
v -1.2 -0.3 0
v -1.1 -0.3 0
v -1 -0.3 0
v 1.1 -0.3 0
v 1.2 -0.3 0
v 1.3 -0.3 0
v -1.2 -0.3 -0.6
v -1.1 -0.3 -0.6
v -0.8 -0.3 -0.6
v 0.9 -0.3 -0.6
v 1.2 -0.3 -0.6
v 1.3 -0.3 -0.6
v -1.1 -0.3 -0.7
v -0.8 -0.3 -0.7
v 0.9 -0.3 -0.7
v 1.2 -0.3 -0.7
v -0.6 -0.2 0
v -0.5 -0.2 0
v 0.6 -0.2 0
v 0.7 -0.2 0
v -0.6 -0.2 -0.6
v -0.5 -0.2 -0.6
v 0.6 -0.2 -0.6
v 0.7 -0.2 -0.6
v -0.5 -0.2 -0.7
v 0.6 -0.2 -0.7
v -0.5 0 0.1
v -0.4 0 0.1
v 0.5 0 0.1
v 0.6 0 0.1
v -0.5 0 0
v -0.4 0 0
v 0.5 0 0
v 0.6 0 0
v -1.1 0.2 0.1
v -0.8 0.2 0.1
v -0.4 0.2 0.1
v -0.3 0.2 0.1
v 0.4 0.2 0.1
v 0.5 0.2 0.1
v 0.9 0.2 0.1
v 1.2 0.2 0.1
v -1.2 0.2 0
v -1.1 0.2 0
v -0.8 0.2 0
v -0.7 0.2 0
v -0.4 0.2 0
v -0.3 0.2 0
v 0.4 0.2 0
v 0.5 0.2 0
v 0.8 0.2 0
v 0.9 0.2 0
v 1.2 0.2 0
v 1.3 0.2 0
v -1.2 0.2 -0.5
v -1.1 0.2 -0.5
v -0.8 0.2 -0.5
v -0.7 0.2 -0.5
v 0.8 0.2 -0.5
v 0.9 0.2 -0.5
v 1.2 0.2 -0.5
v 1.3 0.2 -0.5
v -0.1 0.3 0.3
v 0.2 0.3 0.3
v -1.1 0.3 0.2
v -0.8 0.3 0.2
v -0.4 0.3 0.2
v -0.3 0.3 0.2
v 0.4 0.3 0.2
v 0.5 0.3 0.2
v 0.9 0.3 0.2
v 1.2 0.3 0.2
v -1.2 0.3 0.1
v -1.1 0.3 0.1
v -0.8 0.3 0.1
v -0.7 0.3 0.1
v -0.5 0.3 0.1
v -0.4 0.3 0.1
v -0.3 0.3 0.1
v -0.1 0.3 0.1
v 0.2 0.3 0.1
v 0.4 0.3 0.1
v 0.5 0.3 0.1
v 0.6 0.3 0.1
v 0.8 0.3 0.1
v 0.9 0.3 0.1
v 1.2 0.3 0.1
v 1.3 0.3 0.1
v -1.2 0.3 0
v -1.1 0.3 0
v -0.8 0.3 0
v -0.7 0.3 0
v -0.5 0.3 0
v -0.4 0.3 0
v 0.5 0.3 0
v 0.6 0.3 0
v 0.8 0.3 0
v 0.9 0.3 0
v 1.2 0.3 0
v 1.3 0.3 0
v -1.2 0.3 -0.5
v -1.1 0.3 -0.5
v -0.8 0.3 -0.5
v -0.7 0.3 -0.5
v 0.8 0.3 -0.5
v 0.9 0.3 -0.5
v 1.2 0.3 -0.5
v 1.3 0.3 -0.5
v -1.2 0.3 -0.6
v -1.1 0.3 -0.6
v -0.8 0.3 -0.6
v -0.7 0.3 -0.6
v 0.8 0.3 -0.6
v 0.9 0.3 -0.6
v 1.2 0.3 -0.6
v 1.3 0.3 -0.6
v -1.1 0.3 -0.7
v -0.8 0.3 -0.7
v 0.9 0.3 -0.7
v 1.2 0.3 -0.7
v -0.1 0.4 0.4
v 0.2 0.4 0.4
v -0.2 0.4 0.3
v -0.1 0.4 0.3
v 0.2 0.4 0.3
v 0.3 0.4 0.3
v -0.3 0.4 0.2
v -0.2 0.4 0.2
v 0.3 0.4 0.2
v 0.4 0.4 0.2
v -0.3 0.4 0.1
v -0.2 0.4 0.1
v -0.1 0.4 0.1
v 0.2 0.4 0.1
v 0.3 0.4 0.1
v 0.4 0.4 0.1
v 0.2 0.4 0
v 0.3 0.4 0
v -0.2 0.5 0.5
v 0 0.5 0.5
v 0.0999999 0.5 0.5
v 0.3 0.5 0.5
v -0.3 0.5 0.4
v -0.2 0.5 0.4
v -0.1 0.5 0.4
v 0 0.5 0.4
v 0.0999999 0.5 0.4
v 0.2 0.5 0.4
v 0.3 0.5 0.4
v 0.4 0.5 0.4
v -0.4 0.5 0.3
v -0.3 0.5 0.3
v -0.2 0.5 0.3
v -0.1 0.5 0.3
v 0.2 0.5 0.3
v 0.3 0.5 0.3
v 0.4 0.5 0.3
v 0.5 0.5 0.3
v -0.3 0.5 0.2
v -0.2 0.5 0.2
v 0.3 0.5 0.2
v 0.4 0.5 0.2
v -0.4 0.5 0.1
v -0.3 0.5 0.1
v -0.2 0.5 0.1
v 0.2 0.5 0.1
v 0.4 0.5 0.1
v 0.5 0.5 0.1
v -0.2 0.5 0
v 0.0999999 0.5 0
v 0.2 0.5 0
v 0 0.6 0.5
v 0.0999999 0.6 0.5
v -0.4 0.6 0.4
v -0.3 0.6 0.4
v 0 0.6 0.4
v 0.0999999 0.6 0.4
v 0.4 0.6 0.4
v 0.5 0.6 0.4
v -0.4 0.6 0.3
v -0.3 0.6 0.3
v 0.4 0.6 0.3
v 0.5 0.6 0.3
v 0.6 0.6 0.3
v -0.5 0.6 0.2
v -0.4 0.6 0.2
v -0.5 0.6 0.1
v -0.4 0.6 0.1
v 0.5 0.6 0.1
v 0.6 0.6 0.1
v -0.8 0.6 0
v -0.6 0.6 0
v 0.7 0.6 0
v 0.9 0.6 0
v -0.8 0.6 -0.6
v -0.6 0.6 -0.6
v 0.7 0.6 -0.6
v 0.9 0.6 -0.6
v -0.6 0.7 -0.6
v -0.5 0.7 -0.6
v 0.6 0.7 -0.6
v 0.7 0.7 -0.6
v -0.6 0.7 -0.7
v -0.5 0.7 -0.7
v 0.6 0.7 -0.7
v 0.7 0.7 -0.7
v 0 0.8 0.5
v 0.0999999 0.8 0.5
v 0 0.8 0.4
v 0.0999999 0.8 0.4
v -0.3 1 0.5
v 0 1 0.5
v 0.0999999 1 0.5
v 0.4 1 0.5
v -0.3 1 0.4
v 0 1 0.4
v 0.0999999 1 0.4
v 0.4 1 0.4
v 0.5 1 0.1
v 0.6 1 0.1
v 0.5 1 0
v 0.6 1 0
v -0.4 1.1 0.5
v -0.3 1.1 0.5
v 0.4 1.1 0.5
v 0.5 1.1 0.5
v -0.4 1.1 0.4
v -0.3 1.1 0.4
v 0.4 1.1 0.4
v 0.5 1.1 0.4
v -0.5 1.1 0.3
v -0.4 1.1 0.3
v -0.5 1.1 0.1
v -0.4 1.1 0.1
v -0.5 1.2 0.5
v -0.4 1.2 0.5
v 0.5 1.2 0.4
v 0.6 1.2 0.4
v -0.5 1.2 0.3
v -0.4 1.2 0.3
v -0.5 1.2 0.1
v -0.4 1.2 0.1
v 0.5 1.2 0.1
v 0.6 1.2 0.1
v -0.5 1.2 0
v -0.4 1.2 0
v -0.5 1.2 -0.1
v -0.4 1.2 -0.1
v -0.1 1.3 0.6
v 0.0999999 1.3 0.6
v -0.3 1.3 0.5
v -0.1 1.3 0.5
v 0.0999999 1.3 0.5
v 0.3 1.3 0.5
v -0.3 1.3 0.4
v 0.3 1.3 0.4
v -0.3 1.4 0.6
v -0.2 1.4 0.6
v 0.0999999 1.4 0.6
v 0.2 1.4 0.6
v -0.3 1.4 0.5
v -0.2 1.4 0.5
v 0.0999999 1.4 0.5
v 0.2 1.4 0.5
v -0.1 -1.5 0.2
v 0 -1.5 0.2
v 0.0999999 -1.5 0.2
v 0.2 -1.5 0.2
v -0.5 -1.5 0.1
v -0.4 -1.5 0.1
v -0.3 -1.5 0.1
v -0.2 -1.5 0.1
v 0.3 -1.5 0.1
v 0.4 -1.5 0.1
v 0.5 -1.5 0.1
v 0.6 -1.5 0.1
v -0.4 -1.5 0
v -0.3 -1.5 0
v -0.2 -1.5 0
v -0.1 -1.5 0
v 0 -1.5 0
v 0.0999999 -1.5 0
v 0.2 -1.5 0
v 0.3 -1.5 0
v 0.4 -1.5 0
v 0.5 -1.5 0
v -0.4 -1.5 -0.1
v -0.1 -1.5 -0.1
v 0.2 -1.5 -0.1
v 0.5 -1.5 -0.1
v -0.5 -1.5 -0.2
v -0.4 -1.5 -0.2
v 0.5 -1.5 -0.2
v 0.6 -1.5 -0.2
v -0.4 -1.4 -0.1
v -0.1 -1.4 -0.1
v 0.2 -1.4 -0.1
v 0.5 -1.4 -0.1
v -0.4 -1.4 -0.2
v -0.1 -1.4 -0.2
v 0.2 -1.4 -0.2
v 0.3 -1.4 -0.2
v 0.5 -1.4 -0.2
v -1.2 -0.6 0.1
v -1 -0.6 0.1
v 1.1 -0.6 0.1
v 1.3 -0.6 0.1
v -1.2 -0.6 0
v -1 -0.6 0
v 1.1 -0.6 0
v 1.3 -0.6 0
v -1.2 -0.6 -0.6
v -1 -0.6 -0.6
v 1.1 -0.6 -0.6
v 1.3 -0.6 -0.6
v -1.2 -0.6 -0.7
v -1 -0.6 -0.7
v 1.1 -0.6 -0.7
v 1.3 -0.6 -0.7
v -1 -0.5 0.2
v -0.8 -0.5 0.2
v 0 -0.5 0.2
v 0.0999999 -0.5 0.2
v 0.9 -0.5 0.2
v 1.1 -0.5 0.2
v -1 -0.5 0.1
v -0.8 -0.5 0.1
v 0 -0.5 0.1
v 0.0999999 -0.5 0.1
v 0.9 -0.5 0.1
v 1.1 -0.5 0.1
v -1.2 -0.5 0
v -1.1 -0.5 0
v 1.2 -0.5 0
v 1.3 -0.5 0
v -1.2 -0.5 -0.6
v -1.1 -0.5 -0.6
v 1.2 -0.5 -0.6
v 1.3 -0.5 -0.6
v -0.3 -0.1 0.2
v -0.2 -0.1 0.2
v 0.3 -0.1 0.2
v 0.4 -0.1 0.2
v -0.3 -0.1 0.1
v -0.2 -0.1 0.1
v 0.3 -0.1 0.1
v 0.4 -0.1 0.1
v -0.2 0 0.2
v -0.1 0 0.2
v 0 0 0.2
v 0.0999999 0 0.2
v 0.2 0 0.2
v 0.3 0 0.2
v -1.1 0 0.1
v -0.8 0 0.1
v -0.2 0 0.1
v -0.1 0 0.1
v 0 0 0.1
v 0.0999999 0 0.1
v 0.2 0 0.1
v 0.3 0 0.1
v 0.9 0 0.1
v 1.2 0 0.1
v -1.2 0 0
v -1.1 0 0
v -0.8 0 0
v -0.7 0 0
v 0.8 0 0
v 0.9 0 0
v 1.2 0 0
v 1.3 0 0
v -1.2 0 -0.6
v -1.1 0 -0.6
v -0.8 0 -0.6
v -0.7 0 -0.6
v 0.8 0 -0.6
v 0.9 0 -0.6
v 1.2 0 -0.6
v 1.3 0 -0.6
v -1.1 0 -0.7
v -0.8 0 -0.7
v 0.9 0 -0.7
v 1.2 0 -0.7
v -0.5 0.1 0.1
v -0.3 0.1 0.1
v 0.4 0.1 0.1
v 0.6 0.1 0.1
v -0.5 0.1 0
v -0.3 0.1 0
v 0.4 0.1 0
v 0.6 0.1 0
v -0.1 0.2 0.1
v 0 0.2 0.1
v 0.2 0.2 0.1
v 0.3 0.2 0.1
v -0.1 0.2 0
v 0 0.2 0
v 0.0999999 0.2 0
v 0.2 0.2 0
v 0.3 0.2 0
v -0.2 0.3 0.1
v -0.1 0.3 0.1
v -0.2 0.3 0
v -0.1 0.3 0
v -0.4 0.4 0.2
v -0.3 0.4 0.2
v 0.4 0.4 0.2
v 0.5 0.4 0.2
v -0.4 0.4 0.1
v -0.3 0.4 0.1
v 0.4 0.4 0.1
v 0.5 0.4 0.1
v -1.1 0.5 0.2
v -0.8 0.5 0.2
v 0.9 0.5 0.2
v 1.2 0.5 0.2
v -1.2 0.5 0.1
v -1.1 0.5 0.1
v -0.8 0.5 0.1
v -0.7 0.5 0.1
v 0.8 0.5 0.1
v 0.9 0.5 0.1
v 1.2 0.5 0.1
v 1.3 0.5 0.1
v -1.2 0.5 0
v -1.1 0.5 0
v 1.2 0.5 0
v 1.3 0.5 0
v -1.2 0.5 -0.5
v -1.1 0.5 -0.5
v 1.2 0.5 -0.5
v 1.3 0.5 -0.5
v -1.2 0.5 -0.6
v -1.1 0.5 -0.6
v -0.8 0.5 -0.6
v -0.7 0.5 -0.6
v 0.8 0.5 -0.6
v 0.9 0.5 -0.6
v 1.2 0.5 -0.6
v 1.3 0.5 -0.6
v -1.1 0.5 -0.7
v -0.8 0.5 -0.7
v 0.9 0.5 -0.7
v 1.2 0.5 -0.7
v -0.2 0.6 0.5
v -0.1 0.6 0.5
v 0.2 0.6 0.5
v 0.3 0.6 0.5
v -0.2 0.6 0.4
v -0.1 0.6 0.4
v 0.2 0.6 0.4
v 0.3 0.6 0.4
v -1.1 0.6 0.1
v -0.8 0.6 0.1
v 0.9 0.6 0.1
v 1.2 0.6 0.1
v -1.2 0.6 0
v -1.1 0.6 0
v -0.8 0.6 0
v 0.9 0.6 0
v 1.2 0.6 0
v 1.3 0.6 0
v -1.2 0.6 -0.5
v -1.1 0.6 -0.5
v 1.2 0.6 -0.5
v 1.3 0.6 -0.5
v 0 0.7 0.5
v 0.0999999 0.7 0.5
v 0 0.7 0.4
v 0.0999999 0.7 0.4
v 0.5 0.7 0.3
v 0.6 0.7 0.3
v 0.5 0.7 0.2
v 0.6 0.7 0.2
v -0.1 0.8 0.5
v 0 0.8 0.5
v 0.0999999 0.8 0.5
v 0.2 0.8 0.5
v -0.1 0.8 0.4
v 0 0.8 0.4
v 0.0999999 0.8 0.4
v 0.2 0.8 0.4
v -0.5 0.8 0.2
v -0.4 0.8 0.2
v 0.5 0.8 0.2
v 0.6 0.8 0.2
v -0.5 0.8 0.1
v -0.4 0.8 0.1
v 0.5 0.8 0.1
v 0.6 0.8 0.1
v -0.5 0.9 0.1
v -0.4 0.9 0.1
v 0.5 0.9 0.1
v 0.6 0.9 0.1
v -0.5 0.9 0
v -0.4 0.9 0
v 0.5 0.9 0
v 0.6 0.9 0
v -1.1 1.1 0
v -0.9 1.1 0
v -0.5 1.1 0
v -0.4 1.1 0
v 1 1.1 0
v 1.2 1.1 0
v -0.5 1.1 -0.1
v -0.4 1.1 -0.1
v -1.1 1.1 -0.6
v -0.9 1.1 -0.6
v 1 1.1 -0.6
v 1.2 1.1 -0.6
v -0.3 1.2 0.5
v 0.3 1.2 0.5
v -0.3 1.2 0.4
v 0.3 1.2 0.4
v -0.6 1.2 -0.6
v 0.7 1.2 -0.6
v -0.6 1.2 -0.7
v 0.7 1.2 -0.7
v -0.9 1.3 0
v -0.7 1.3 0
v 0.8 1.3 0
v 1 1.3 0
v -0.9 1.3 -0.6
v -0.7 1.3 -0.6
v 0.8 1.3 -0.6
v 1 1.3 -0.6
v 0.5 1.4 0.4
v 0.6 1.4 0.4
v -0.5 1.4 0.2
v -0.4 1.4 0.2
v 0.5 1.4 0.1
v 0.6 1.4 0.1
v -0.7 1.4 0
v -0.6 1.4 0
v -0.5 1.4 0
v -0.4 1.4 0
v 0.7 1.4 0
v 0.8 1.4 0
v -0.6 1.4 -0.5
v 0.7 1.4 -0.5
v -0.7 1.4 -0.6
v 0.8 1.4 -0.6
v -0.5 1.5 0.5
v -0.3 1.5 0.5
v -0.2 1.5 0.5
v -0.1 1.5 0.5
v 0.2 1.5 0.5
v 0.3 1.5 0.5
v -0.5 1.5 0.2
v -0.4 1.5 0.2
v -0.1 1.5 0.2
v 0.2 1.5 0.2
v -0.3 1.5 0.1
v -0.2 1.5 0.1
v 0.3 1.5 0.1
v 0.5 1.5 0.1
v 0.6 1.5 0.1
v -0.6 1.5 0
v -0.4 1.5 0
v 0.6 1.5 0
v 0.7 1.5 0
v -0.6 1.5 -0.5
v 0.7 1.5 -0.5
v -0.3 1.6 0.6
v -0.2 1.6 0.6
v -0.1 1.6 0.6
v 0.2 1.6 0.6
v 0.3 1.6 0.5
v 0.5 1.6 0.5
v -0.1 1.6 0.2
v 0.2 1.6 0.2
v -0.3 1.6 0.1
v -0.2 1.6 0.1
v 0.3 1.6 0.1
v 0.5 1.6 0.1

# faces
f 7/8/1 2/8/1 1/8/1
f 8/8/1 4/8/1 3/8/1
f 9/8/1 4/8/1 8/8/1
f 10/8/1 6/8/1 5/8/1
f 11/8/1 9/8/1 8/8/1
f 11/8/1 10/8/1 9/8/1
f 11/8/1 7/8/1 1/8/1
f 11/8/1 8/8/1 7/8/1
f 12/8/1 10/8/1 11/8/1
f 13/8/1 6/8/1 10/8/1
f 13/8/1 10/8/1 12/8/1
f 14/8/1 6/8/1 13/8/1
f 15/8/1 13/8/1 12/8/1
f 16/8/1 13/8/1 15/8/1
f 19/8/1 18/8/1 17/8/1
f 20/8/1 18/8/1 19/8/1
f 24/11/1 22/11/1 21/11/1
f 25/11/1 22/11/1 24/11/1
f 27/2/1 24/2/1 23/2/1
f 27/2/1 26/2/1 25/2/1
f 27/2/1 25/2/1 24/2/1
f 28/2/1 26/2/1 27/2/1
f 29/2/1 26/2/1 28/2/1
f 30/2/1 26/2/1 29/2/1
f 31/11/1 29/11/1 28/11/1
f 32/11/1 29/11/1 31/11/1
f 36/8/1 34/8/1 33/8/1
f 37/8/1 34/8/1 36/8/1
f 39/8/1 36/8/1 35/8/1
f 40/8/1 36/8/1 39/8/1
f 41/8/1 38/8/1 37/8/1
f 42/8/1 38/8/1 41/8/1
f 43/2/1 41/2/1 40/2/1
f 44/2/1 41/2/1 43/2/1
f 46/11/1 44/11/1 43/11/1
f 47/11/1 44/11/1 46/11/1
f 49/11/1 46/11/1 45/11/1
f 50/11/1 46/11/1 49/11/1
f 51/11/1 44/11/1 47/11/1
f 52/11/1 44/11/1 51/11/1
f 54/2/1 49/2/1 48/2/1
f 55/2/1 49/2/1 54/2/1
f 58/2/1 53/2/1 52/2/1
f 59/2/1 53/2/1 58/2/1
f 60/11/1 56/11/1 55/11/1
f 61/11/1 56/11/1 60/11/1
f 62/11/1 58/11/1 57/11/1
f 63/11/1 62/11/1 61/11/1
f 64/11/1 58/11/1 62/11/1
f 64/11/1 62/11/1 63/11/1
f 65/2/1 64/2/1 63/2/1
f 66/2/1 64/2/1 65/2/1
f 67/11/1 66/11/1 65/11/1
f 68/11/1 66/11/1 67/11/1
f 71/8/1 70/8/1 69/8/1
f 73/8/1 71/8/1 69/8/1
f 73/8/1 72/8/1 71/8/1
f 74/8/1 72/8/1 73/8/1
f 75/8/1 72/8/1 74/8/1
f 76/8/1 72/8/1 75/8/1
f 79/2/1 78/2/1 77/2/1
f 80/2/1 78/2/1 79/2/1
f 83/11/1 82/11/1 81/11/1
f 84/11/1 82/11/1 83/11/1
f 87/11/1 86/11/1 85/11/1
f 88/11/1 86/11/1 87/11/1
f 89/2/1 88/2/1 87/2/1
f 90/2/1 88/2/1 89/2/1
f 91/11/1 90/11/1 89/11/1
f 92/11/1 90/11/1 91/11/1
f 93/2/1 92/2/1 91/2/1
f 94/2/1 92/2/1 93/2/1
f 95/11/1 94/11/1 93/11/1
f 96/11/1 94/11/1 95/11/1
f 99/2/1 98/2/1 97/2/1
f 100/2/1 98/2/1 99/2/1
f 101/11/1 100/11/1 99/11/1
f 102/11/1 100/11/1 101/11/1
f 103/2/1 102/2/1 101/2/1
f 104/2/1 102/2/1 103/2/1
f 107/11/1 106/11/1 105/11/1
f 108/11/1 106/11/1 107/11/1
f 111/8/1 110/8/1 109/8/1
f 112/8/1 110/8/1 111/8/1
f 116/7/1 114/7/1 113/7/1
f 117/7/1 116/7/1 115/7/1
f 118/7/1 114/7/1 116/7/1
f 118/7/1 116/7/1 117/7/1
f 119/5/1 118/5/1 117/5/1
f 120/5/1 118/5/1 119/5/1
f 121/2/1 120/2/1 119/2/1
f 122/2/1 120/2/1 121/2/1
f 123/11/1 122/11/1 121/11/1
f 124/11/1 122/11/1 123/11/1
f 126/11/1 125/11/1 124/11/1
f 127/11/1 125/11/1 126/11/1
f 130/2/1 129/2/1 128/2/1
f 131/2/1 129/2/1 130/2/1
f 132/2/1 127/2/1 126/2/1
f 133/2/1 127/2/1 132/2/1
f 136/11/1 133/11/1 132/11/1
f 137/11/1 133/11/1 136/11/1
f 138/2/1 135/2/1 134/2/1
f 139/2/1 135/2/1 138/2/1
f 140/2/1 137/2/1 136/2/1
f 141/2/1 137/2/1 140/2/1
f 143/11/1 139/11/1 138/11/1
f 144/11/1 139/11/1 143/11/1
f 145/10/1 143/10/1 142/10/1
f 145/10/1 144/10/1 143/10/1
f 146/11/1 141/11/1 140/11/1
f 147/11/1 141/11/1 146/11/1
f 148/10/1 145/10/1 142/10/1
f 149/10/1 145/10/1 148/10/1
f 150/10/1 145/10/1 149/10/1
f 151/10/1 145/10/1 150/10/1
f 155/10/1 153/10/1 152/10/1
f 156/10/1 153/10/1 155/10/1
f 158/10/1 155/10/1 154/10/1
f 158/10/1 157/10/1 156/10/1
f 158/10/1 156/10/1 155/10/1
f 159/10/1 158/10/1 154/10/1
f 160/10/1 158/10/1 159/10/1
f 161/10/1 159/10/1 154/10/1
f 162/10/1 159/10/1 161/10/1
f 166/8/1 164/8/1 163/8/1
f 167/8/1 164/8/1 166/8/1
f 168/8/1 164/8/1 167/8/1
f 169/8/1 166/8/1 165/8/1
f 169/8/1 167/8/1 166/8/1
f 170/8/1 167/8/1 169/8/1
f 171/4/1 168/4/1 167/4/1
f 171/8/1 167/8/1 170/8/1
f 172/4/1 168/4/1 171/4/1
f 173/8/1 171/8/1 170/8/1
f 173/8/1 172/8/1 171/8/1
f 174/8/1 172/8/1 173/8/1
f 175/4/1 174/4/1 173/4/1
f 176/8/1 172/8/1 174/8/1
f 176/4/1 174/4/1 175/4/1
f 177/8/1 172/8/1 176/8/1
f 178/8/1 172/8/1 177/8/1
f 179/8/1 176/8/1 175/8/1
f 179/8/1 177/8/1 176/8/1
f 180/8/1 177/8/1 179/8/1
f 181/4/1 178/4/1 177/4/1
f 181/8/1 177/8/1 180/8/1
f 182/4/1 178/4/1 181/4/1
f 183/4/1 180/4/1 179/4/1
f 184/8/1 181/8/1 180/8/1
f 184/4/1 180/4/1 183/4/1
f 184/8/1 182/8/1 181/8/1
f 185/8/1 182/8/1 184/8/1
f 186/7/1 184/7/1 183/7/1
f 186/7/1 185/7/1 184/7/1
f 187/7/1 185/7/1 186/7/1
f 190/7/1 189/7/1 188/7/1
f 191/7/1 189/7/1 190/7/1
f 194/8/1 193/8/1 192/8/1
f 195/8/1 193/8/1 194/8/1
f 196/5/1 195/5/1 194/5/1
f 197/5/1 195/5/1 196/5/1
f 198/2/1 197/2/1 196/2/1
f 199/2/1 197/2/1 198/2/1
f 200/11/1 199/11/1 198/11/1
f 201/11/1 199/11/1 200/11/1
f 202/2/1 201/2/1 200/2/1
f 203/2/1 201/2/1 202/2/1
f 207/11/1 205/11/1 204/11/1
f 208/11/1 205/11/1 207/11/1
f 209/2/1 207/2/1 206/2/1
f 210/2/1 207/2/1 209/2/1
f 214/10/1 212/10/1 211/10/1
f 215/10/1 212/10/1 214/10/1
f 216/10/1 212/10/1 215/10/1
f 217/10/1 214/10/1 213/10/1
f 217/10/1 215/10/1 214/10/1
f 218/10/1 215/10/1 217/10/1
f 220/8/1 218/8/1 217/8/1
f 220/10/1 219/10/1 218/10/1
f 221/10/1 219/10/1 220/10/1
f 223/8/1 221/8/1 220/8/1
f 223/8/1 220/8/1 217/8/1
f 224/10/1 222/10/1 221/10/1
f 224/8/1 221/8/1 223/8/1
f 225/10/1 222/10/1 224/10/1
f 227/8/1 223/8/1 217/8/1
f 228/12/1 224/12/1 223/12/1
f 228/12/1 225/12/1 224/12/1
f 228/8/1 223/8/1 227/8/1
f 229/12/1 225/12/1 228/12/1
f 230/12/1 225/12/1 229/12/1
f 232/7/1 228/7/1 227/7/1
f 232/7/1 227/7/1 226/7/1
f 233/7/1 228/7/1 232/7/1
f 234/10/1 230/10/1 229/10/1
f 234/10/1 231/10/1 230/10/1
f 235/10/1 231/10/1 234/10/1
f 236/10/1 231/10/1 235/10/1
f 239/10/1 238/10/1 237/10/1
f 240/10/1 238/10/1 239/10/1
f 243/8/1 242/8/1 241/8/1
f 244/8/1 242/8/1 243/8/1
f 247/8/1 246/8/1 245/8/1
f 248/8/1 246/8/1 247/8/1
f 251/2/1 250/2/1 249/2/1
f 252/2/1 250/2/1 251/2/1
f 253/11/1 252/11/1 251/11/1
f 254/11/1 252/11/1 253/11/1
f 257/11/1 256/11/1 255/11/1
f 258/11/1 256/11/1 257/11/1
f 263/10/1 260/10/1 259/10/1
f 264/10/1 260/10/1 263/10/1
f 265/10/1 262/10/1 261/10/1
f 266/10/1 262/10/1 265/10/1
f 269/7/1 268/7/1 267/7/1
f 270/7/1 268/7/1 269/7/1
f 273/10/1 272/10/1 271/10/1
f 275/10/1 273/10/1 271/10/1
f 275/10/1 274/10/1 273/10/1
f 276/10/1 274/10/1 275/10/1
f 279/8/1 278/8/1 277/8/1
f 280/8/1 278/8/1 279/8/1
f 281/5/1 280/5/1 279/5/1
f 282/5/1 280/5/1 281/5/1
f 285/2/1 284/2/1 283/2/1
f 286/2/1 284/2/1 285/2/1
f 291/10/1 288/10/1 287/10/1
f 292/10/1 288/10/1 291/10/1
f 293/10/1 290/10/1 289/10/1
f 294/10/1 290/10/1 293/10/1
f 297/8/1 296/8/1 295/8/1
f 298/8/1 296/8/1 297/8/1
f 302/10/1 300/10/1 299/10/1
f 303/10/1 300/10/1 302/10/1
f 304/10/1 302/10/1 301/10/1
f 305/10/1 302/10/1 304/10/1
f 308/10/1 307/10/1 306/10/1
f 309/10/1 308/10/1 306/10/1
f 310/10/1 308/10/1 309/10/1
f 313/10/1 312/10/1 311/10/1
f 315/10/1 313/10/1 311/10/1
f 315/10/1 314/10/1 313/10/1
f 316/10/1 314/10/1 315/10/1
f 319/9/1 318/9/1 317/9/1
f 320/9/1 318/9/1 319/9/1
f 323/8/1 322/8/1 321/8/1
f 324/8/1 322/8/1 323/8/1
f 327/7/1 326/7/1 325/7/1
f 328/7/1 326/7/1 327/7/1
f 331/8/1 330/8/1 329/8/1
f 332/8/1 330/8/1 331/8/1
f 335/10/1 334/10/1 333/10/1
f 336/10/1 334/10/1 335/10/1
f 339/10/1 338/10/1 337/10/1
f 340/10/1 338/10/1 339/10/1
f 343/8/1 342/8/1 341/8/1
f 344/8/1 342/8/1 343/8/1
f 345/8/1 342/8/1 344/8/1
f 346/8/1 342/8/1 345/8/1
f 347/8/1 345/8/1 344/8/1
f 348/8/1 345/8/1 347/8/1
f 349/8/1 345/8/1 348/8/1
f 350/4/1 346/4/1 345/4/1
f 350/8/1 345/8/1 349/8/1
f 351/4/1 346/4/1 350/4/1
f 352/4/1 349/4/1 348/4/1
f 353/8/1 351/8/1 350/8/1
f 353/4/1 349/4/1 352/4/1
f 353/8/1 350/8/1 349/8/1
f 354/8/1 353/8/1 352/8/1
f 354/8/1 351/8/1 353/8/1
f 355/8/1 351/8/1 354/8/1
f 356/8/1 354/8/1 352/8/1
f 356/4/1 355/4/1 354/4/1
f 357/8/1 351/8/1 355/8/1
f 357/4/1 355/4/1 356/4/1
f 358/8/1 356/8/1 352/8/1
f 358/8/1 357/8/1 356/8/1
f 359/8/1 351/8/1 357/8/1
f 359/8/1 357/8/1 358/8/1
f 360/7/1 359/7/1 358/7/1
f 361/7/1 359/7/1 360/7/1
f 364/7/1 363/7/1 362/7/1
f 365/7/1 363/7/1 364/7/1
f 368/2/1 367/2/1 366/2/1
f 369/2/1 367/2/1 368/2/1
f 372/8/1 371/8/1 370/8/1
f 373/8/1 371/8/1 372/8/1
f 376/11/1 375/11/1 374/11/1
f 377/11/1 375/11/1 376/11/1
f 378/2/1 377/2/1 376/2/1
f 379/2/1 377/2/1 378/2/1
f 382/10/1 381/10/1 380/10/1
f 383/10/1 381/10/1 382/10/1
f 386/10/1 385/10/1 384/10/1
f 387/10/1 385/10/1 386/10/1
f 390/2/1 389/2/1 388/2/1
f 391/2/1 389/2/1 390/2/1
f 394/8/1 393/8/1 392/8/1
f 395/8/1 393/8/1 394/8/1
f 399/8/1 397/8/1 396/8/1
f 400/8/1 397/8/1 399/8/1
f 402/8/1 399/8/1 398/8/1
f 402/8/1 401/8/1 400/8/1
f 402/8/1 400/8/1 399/8/1
f 403/8/1 401/8/1 402/8/1
f 407/11/1 405/11/1 404/11/1
f 408/11/1 405/11/1 407/11/1
f 410/2/1 407/2/1 406/2/1
f 410/2/1 409/2/1 408/2/1
f 410/2/1 408/2/1 407/2/1
f 411/2/1 409/2/1 410/2/1
f 414/8/1 413/8/1 412/8/1
f 415/8/1 414/8/1 412/8/1
f 416/8/1 414/8/1 415/8/1
f 419/8/1 414/8/1 416/8/1
f 420/8/1 414/8/1 419/8/1
f 421/8/1 418/8/1 417/8/1
f 422/8/1 418/8/1 421/8/1
f 423/2/1 421/2/1 420/2/1
f 424/2/1 421/2/1 423/2/1
f 426/11/1 424/11/1 423/11/1
f 427/11/1 424/11/1 426/11/1
f 429/11/1 426/11/1 425/11/1
f 430/11/1 426/11/1 429/11/1
f 431/11/1 424/11/1 427/11/1
f 432/11/1 424/11/1 431/11/1
f 434/2/1 429/2/1 428/2/1
f 435/2/1 429/2/1 434/2/1
f 436/2/1 433/2/1 432/2/1
f 437/2/1 433/2/1 436/2/1
f 438/11/1 436/11/1 435/11/1
f 439/11/1 436/11/1 438/11/1
f 440/11/1 436/11/1 439/11/1
f 447/8/1 442/8/1 441/8/1
f 448/8/1 442/8/1 447/8/1
f 449/8/1 442/8/1 448/8/1
f 450/8/1 444/8/1 443/8/1
f 451/8/1 444/8/1 450/8/1
f 452/8/1 446/8/1 445/8/1
f 453/8/1 449/8/1 448/8/1
f 454/8/1 449/8/1 453/8/1
f 455/8/1 446/8/1 452/8/1
f 456/8/1 446/8/1 455/8/1
f 457/8/1 446/8/1 456/8/1
f 458/8/1 446/8/1 457/8/1
f 459/8/2 460/8/2 465/8/2
f 465/8/2 460/8/2 466/8/2
f 466/8/2 460/8/2 467/8/2
f 461/8/2 462/8/2 468/8/2
f 468/8/2 462/8/2 469/8/2
f 463/8/2 464/8/2 470/8/2
f 466/8/2 467/8/2 471/8/2
f 471/8/2 467/8/2 472/8/2
f 470/8/2 464/8/2 473/8/2
f 473/8/2 464/8/2 474/8/2
f 474/8/2 464/8/2 475/8/2
f 475/8/2 464/8/2 476/8/2
f 477/8/2 478/8/2 479/8/2
f 477/8/2 479/8/2 480/8/2
f 480/8/2 479/8/2 481/8/2
f 481/8/2 479/8/2 484/8/2
f 484/8/2 479/8/2 485/8/2
f 482/8/2 483/8/2 486/8/2
f 486/8/2 483/8/2 487/8/2
f 485/2/2 486/2/2 488/2/2
f 488/2/2 486/2/2 489/2/2
f 488/11/2 489/11/2 491/11/2
f 491/11/2 489/11/2 492/11/2
f 490/11/2 491/11/2 494/11/2
f 494/11/2 491/11/2 495/11/2
f 492/11/2 489/11/2 496/11/2
f 496/11/2 489/11/2 497/11/2
f 493/2/2 494/2/2 499/2/2
f 499/2/2 494/2/2 500/2/2
f 497/2/2 498/2/2 501/2/2
f 501/2/2 498/2/2 502/2/2
f 500/11/2 501/11/2 503/11/2
f 503/11/2 501/11/2 504/11/2
f 504/11/2 501/11/2 505/11/2
f 506/8/2 507/8/2 509/8/2
f 509/8/2 507/8/2 510/8/2
f 508/8/2 509/8/2 512/8/2
f 510/8/2 511/8/2 512/8/2
f 509/8/2 510/8/2 512/8/2
f 512/8/2 511/8/2 513/8/2
f 514/11/2 515/11/2 517/11/2
f 517/11/2 515/11/2 518/11/2
f 516/2/2 517/2/2 520/2/2
f 518/2/2 519/2/2 520/2/2
f 517/2/2 518/2/2 520/2/2
f 520/2/2 519/2/2 521/2/2
f 522/2/2 523/2/2 524/2/2
f 524/2/2 523/2/2 525/2/2
f 526/8/2 527/8/2 528/8/2
f 528/8/2 527/8/2 529/8/2
f 530/2/2 531/2/2 532/2/2
f 532/2/2 531/2/2 533/2/2
f 534/10/2 535/10/2 536/10/2
f 536/10/2 535/10/2 537/10/2
f 538/8/2 539/8/2 540/8/2
f 540/8/2 539/8/2 541/8/2
f 542/2/2 543/2/2 544/2/2
f 544/2/2 543/2/2 545/2/2
f 545/2/2 543/2/2 546/2/2
f 547/10/2 548/10/2 549/10/2
f 547/10/2 549/10/2 551/10/2
f 549/10/2 550/10/2 551/10/2
f 551/10/2 550/10/2 552/10/2
f 553/8/2 554/8/2 555/8/2
f 555/8/2 554/8/2 556/8/2
f 556/8/2 554/8/2 557/8/2
f 557/8/2 554/8/2 558/8/2
f 556/8/2 557/8/2 559/8/2
f 559/8/2 557/8/2 560/8/2
f 560/8/2 557/8/2 561/8/2
f 557/4/2 558/4/2 562/4/2
f 561/8/2 557/8/2 562/8/2
f 562/4/2 558/4/2 563/4/2
f 560/8/2 561/8/2 564/8/2
f 564/8/2 561/8/2 565/8/2
f 561/4/2 562/4/2 566/4/2
f 565/8/2 561/8/2 566/8/2
f 562/8/2 563/8/2 567/8/2
f 566/4/2 562/4/2 567/4/2
f 564/4/2 565/4/2 568/4/2
f 565/8/2 566/8/2 569/8/2
f 568/4/2 565/4/2 569/4/2
f 566/8/2 567/8/2 569/8/2
f 567/8/2 563/8/2 570/8/2
f 569/8/2 567/8/2 570/8/2
f 570/8/2 563/8/2 571/8/2
f 568/8/2 569/8/2 572/8/2
f 569/8/2 570/8/2 572/8/2
f 572/8/2 570/8/2 573/8/2
f 570/4/2 571/4/2 574/4/2
f 573/8/2 570/8/2 574/8/2
f 574/4/2 571/4/2 575/4/2
f 572/4/2 573/4/2 576/4/2
f 573/8/2 574/8/2 577/8/2
f 576/4/2 573/4/2 577/4/2
f 574/8/2 575/8/2 577/8/2
f 577/8/2 575/8/2 578/8/2
f 576/7/2 577/7/2 579/7/2
f 577/7/2 578/7/2 579/7/2
f 579/7/2 578/7/2 580/7/2
f 581/7/2 582/7/2 583/7/2
f 583/7/2 582/7/2 584/7/2
f 585/11/2 586/11/2 587/11/2
f 587/11/2 586/11/2 588/11/2
f 589/8/2 590/8/2 591/8/2
f 591/8/2 590/8/2 592/8/2
f 593/7/2 594/7/2 595/7/2
f 595/7/2 594/7/2 596/7/2
f 597/8/2 598/8/2 599/8/2
f 599/8/2 598/8/2 600/8/2
f 601/10/2 602/10/2 603/10/2
f 603/10/2 602/10/2 604/10/2
f 605/10/2 606/10/2 607/10/2
f 607/10/2 606/10/2 608/10/2
f 609/9/2 610/9/2 611/9/2
f 611/9/2 610/9/2 612/9/2
f 613/10/2 614/10/2 615/10/2
f 615/10/2 614/10/2 616/10/2
f 617/8/2 618/8/2 619/8/2
f 619/8/2 618/8/2 620/8/2
f 621/10/2 622/10/2 624/10/2
f 624/10/2 622/10/2 625/10/2
f 623/10/2 624/10/2 626/10/2
f 626/10/2 624/10/2 627/10/2
f 628/10/2 629/10/2 630/10/2
f 628/10/2 630/10/2 631/10/2
f 631/10/2 630/10/2 632/10/2
f 633/10/2 634/10/2 635/10/2
f 633/10/2 635/10/2 637/10/2
f 635/10/2 636/10/2 637/10/2
f 637/10/2 636/10/2 638/10/2
f 639/8/2 640/8/2 641/8/2
f 641/8/2 640/8/2 642/8/2
f 641/5/2 642/5/2 643/5/2
f 643/5/2 642/5/2 644/5/2
f 645/2/2 646/2/2 647/2/2
f 647/2/2 646/2/2 648/2/2
f 649/10/2 650/10/2 653/10/2
f 653/10/2 650/10/2 654/10/2
f 651/10/2 652/10/2 655/10/2
f 655/10/2 652/10/2 656/10/2
f 657/8/2 658/8/2 659/8/2
f 659/8/2 658/8/2 660/8/2
f 661/7/2 662/7/2 664/7/2
f 664/7/2 662/7/2 665/7/2
f 663/8/2 664/8/2 666/8/2
f 666/8/2 664/8/2 667/8/2
f 668/2/2 669/2/2 670/2/2
f 670/2/2 669/2/2 671/2/2
f 670/11/2 671/11/2 672/11/2
f 672/11/2 671/11/2 673/11/2
f 674/11/2 675/11/2 676/11/2
f 676/11/2 675/11/2 677/11/2
f 678/10/2 679/10/2 682/10/2
f 682/10/2 679/10/2 683/10/2
f 680/10/2 681/10/2 684/10/2
f 684/10/2 681/10/2 685/10/2
f 686/7/2 687/7/2 688/7/2
f 688/7/2 687/7/2 689/7/2
f 690/8/2 691/8/2 693/8/2
f 692/8/2 693/8/2 694/8/2
f 693/8/2 691/8/2 695/8/2
f 694/8/2 693/8/2 695/8/2
f 695/8/2 691/8/2 696/8/2
f 696/8/2 691/8/2 697/8/2
f 695/8/2 696/8/2 698/8/2
f 696/4/2 697/4/2 698/4/2
f 697/8/2 691/8/2 699/8/2
f 698/4/2 697/4/2 699/4/2
f 699/8/2 691/8/2 700/8/2
f 700/8/2 691/8/2 701/8/2
f 695/8/2 698/8/2 702/8/2
f 698/8/2 699/8/2 702/8/2
f 699/8/2 700/8/2 702/8/2
f 702/8/2 700/8/2 703/8/2
f 700/4/2 701/4/2 704/4/2
f 703/8/2 700/8/2 704/8/2
f 704/4/2 701/4/2 705/4/2
f 702/4/2 703/4/2 706/4/2
f 703/8/2 704/8/2 707/8/2
f 706/4/2 703/4/2 707/4/2
f 704/8/2 705/8/2 707/8/2
f 706/8/2 707/8/2 708/8/2
f 707/8/2 705/8/2 709/8/2
f 708/8/2 707/8/2 709/8/2
f 708/7/2 709/7/2 710/7/2
f 710/7/2 709/7/2 711/7/2
f 712/7/2 713/7/2 715/7/2
f 714/8/2 715/8/2 716/8/2
f 715/7/2 713/7/2 717/7/2
f 716/8/2 715/8/2 717/8/2
f 717/7/2 713/7/2 718/7/2
f 716/5/2 717/5/2 719/5/2
f 719/5/2 717/5/2 720/5/2
f 719/2/2 720/2/2 721/2/2
f 721/2/2 720/2/2 722/2/2
f 721/11/2 722/11/2 723/11/2
f 723/11/2 722/11/2 724/11/2
f 723/2/2 724/2/2 725/2/2
f 725/2/2 724/2/2 726/2/2
f 727/11/2 728/11/2 730/11/2
f 730/11/2 728/11/2 731/11/2
f 729/2/2 730/2/2 732/2/2
f 732/2/2 730/2/2 733/2/2
f 734/10/2 735/10/2 737/10/2
f 737/10/2 735/10/2 738/10/2
f 736/10/2 737/10/2 739/10/2
f 736/10/2 739/10/2 741/10/2
f 739/10/2 740/10/2 741/10/2
f 741/10/2 740/10/2 742/10/2
f 741/8/2 742/8/2 744/8/2
f 742/10/2 743/10/2 744/10/2
f 744/10/2 743/10/2 745/10/2
f 744/8/2 745/8/2 747/8/2
f 741/8/2 744/8/2 747/8/2
f 745/10/2 746/10/2 748/10/2
f 747/8/2 745/8/2 748/8/2
f 748/10/2 746/10/2 749/10/2
f 741/8/2 747/8/2 751/8/2
f 747/12/2 748/12/2 752/12/2
f 751/8/2 747/8/2 752/8/2
f 750/7/2 751/7/2 753/7/2
f 751/12/2 752/12/2 754/12/2
f 753/7/2 751/7/2 754/7/2
f 752/12/2 748/12/2 755/12/2
f 754/12/2 752/12/2 755/12/2
f 753/10/2 754/10/2 756/10/2
f 756/10/2 757/10/2 758/10/2
f 753/10/2 756/10/2 759/10/2
f 756/10/2 758/10/2 759/10/2
f 759/10/2 758/10/2 760/10/2
f 761/8/2 762/8/2 763/8/2
f 763/8/2 762/8/2 764/8/2
f 765/7/2 766/7/2 768/7/2
f 768/7/2 766/7/2 769/7/2
f 767/5/2 768/5/2 770/5/2
f 768/5/2 769/5/2 770/5/2
f 770/5/2 769/5/2 771/5/2
f 770/2/2 771/2/2 772/2/2
f 772/2/2 771/2/2 773/2/2
f 772/11/2 773/11/2 774/11/2
f 774/11/2 773/11/2 775/11/2
f 775/11/2 776/11/2 777/11/2
f 777/11/2 776/11/2 778/11/2
f 779/2/2 780/2/2 781/2/2
f 781/2/2 780/2/2 782/2/2
f 777/2/2 778/2/2 783/2/2
f 783/2/2 778/2/2 784/2/2
f 783/11/2 784/11/2 787/11/2
f 787/11/2 784/11/2 788/11/2
f 785/2/2 786/2/2 789/2/2
f 789/2/2 786/2/2 790/2/2
f 787/2/2 788/2/2 791/2/2
f 791/2/2 788/2/2 792/2/2
f 789/11/2 790/11/2 794/11/2
f 794/11/2 790/11/2 795/11/2
f 793/10/2 794/10/2 796/10/2
f 794/10/2 795/10/2 796/10/2
f 796/10/2 795/10/2 797/10/2
f 797/10/2 795/10/2 798/10/2
f 791/11/2 792/11/2 799/11/2
f 799/11/2 792/11/2 800/11/2
f 797/10/2 798/10/2 801/10/2
f 801/10/2 798/10/2 802/10/2
f 802/10/2 798/10/2 803/10/2
f 803/10/2 798/10/2 804/10/2
f 805/10/2 806/10/2 807/10/2
f 805/10/2 807/10/2 809/10/2
f 809/10/2 807/10/2 810/10/2
f 808/10/2 809/10/2 810/10/2
f 808/10/2 810/10/2 811/10/2
f 811/10/2 810/10/2 812/10/2
f 812/10/2 810/10/2 813/10/2
f 813/10/2 810/10/2 814/10/2
f 815/11/2 816/11/2 817/11/2
f 817/11/2 816/11/2 818/11/2
f 817/2/2 818/2/2 819/2/2
f 819/2/2 818/2/2 820/2/2
f 819/11/2 820/11/2 821/11/2
f 821/11/2 820/11/2 822/11/2
f 821/2/2 822/2/2 823/2/2
f 823/2/2 822/2/2 824/2/2
f 823/11/2 824/11/2 825/11/2
f 825/11/2 824/11/2 826/11/2
f 827/2/2 828/2/2 829/2/2
f 829/2/2 828/2/2 830/2/2
f 829/11/2 830/11/2 831/11/2
f 831/11/2 830/11/2 832/11/2
f 831/2/2 832/2/2 833/2/2
f 833/2/2 832/2/2 834/2/2
f 835/11/2 836/11/2 837/11/2
f 837/11/2 836/11/2 838/11/2
f 839/11/2 840/11/2 841/11/2
f 841/11/2 840/11/2 842/11/2
f 843/2/2 844/2/2 845/2/2
f 845/2/2 844/2/2 846/2/2
f 847/8/2 848/8/2 849/8/2
f 847/8/2 849/8/2 851/8/2
f 849/8/2 850/8/2 851/8/2
f 851/8/2 850/8/2 852/8/2
f 852/8/2 850/8/2 853/8/2
f 853/8/2 850/8/2 854/8/2
f 855/8/2 856/8/2 858/8/2
f 858/8/2 856/8/2 859/8/2
f 857/8/2 858/8/2 861/8/2
f 861/8/2 858/8/2 862/8/2
f 859/8/2 860/8/2 863/8/2
f 863/8/2 860/8/2 864/8/2
f 862/2/2 863/2/2 865/2/2
f 865/2/2 863/2/2 866/2/2
f 865/11/2 866/11/2 868/11/2
f 868/11/2 866/11/2 869/11/2
f 867/11/2 868/11/2 871/11/2
f 871/11/2 868/11/2 872/11/2
f 869/11/2 866/11/2 873/11/2
f 873/11/2 866/11/2 874/11/2
f 870/2/2 871/2/2 876/2/2
f 876/2/2 871/2/2 877/2/2
f 874/2/2 875/2/2 880/2/2
f 880/2/2 875/2/2 881/2/2
f 877/11/2 878/11/2 882/11/2
f 882/11/2 878/11/2 883/11/2
f 879/11/2 880/11/2 884/11/2
f 883/11/2 884/11/2 885/11/2
f 884/11/2 880/11/2 886/11/2
f 885/11/2 884/11/2 886/11/2
f 885/2/2 886/2/2 887/2/2
f 887/2/2 886/2/2 888/2/2
f 887/11/2 888/11/2 889/11/2
f 889/11/2 888/11/2 890/11/2
f 891/8/2 892/8/2 897/8/2
f 893/8/2 894/8/2 898/8/2
f 898/8/2 894/8/2 899/8/2
f 895/8/2 896/8/2 900/8/2
f 898/8/2 899/8/2 901/8/2
f 899/8/2 900/8/2 901/8/2
f 891/8/2 897/8/2 901/8/2
f 897/8/2 898/8/2 901/8/2
f 901/8/2 900/8/2 902/8/2
f 900/8/2 896/8/2 903/8/2
f 902/8/2 900/8/2 903/8/2
f 903/8/2 896/8/2 904/8/2
f 902/8/2 903/8/2 905/8/2
f 905/8/2 903/8/2 906/8/2
f 907/8/2 908/8/2 909/8/2
f 909/8/2 908/8/2 910/8/2
f 911/11/2 912/11/2 914/11/2
f 914/11/2 912/11/2 915/11/2
f 913/2/2 914/2/2 917/2/2
f 915/2/2 916/2/2 917/2/2
f 914/2/2 915/2/2 917/2/2
f 917/2/2 916/2/2 918/2/2
f 918/2/2 916/2/2 919/2/2
f 919/2/2 916/2/2 920/2/2
f 918/11/2 919/11/2 921/11/2
f 921/11/2 919/11/2 922/11/2
f 925/10/3 924/10/3 923/10/3
f 926/10/3 924/10/3 925/10/3
f 929/10/3 928/10/3 927/10/3
f 930/10/3 928/10/3 929/10/3
f 931/10/3 928/10/3 930/10/3
f 932/10/3 928/10/3 931/10/3
f 936/10/3 934/10/3 933/10/3
f 938/7/3 936/7/3 935/7/3
f 939/10/3 934/10/3 936/10/3
f 939/7/3 936/7/3 938/7/3
f 940/10/3 934/10/3 939/10/3
f 941/10/3 934/10/3 940/10/3
f 942/10/3 934/10/3 941/10/3
f 945/10/3 941/10/3 940/10/3
f 947/10/3 944/10/3 943/10/3
f 949/10/3 946/10/3 945/10/3
f 949/10/3 945/10/3 940/10/3
f 950/10/3 946/10/3 949/10/3
f 951/10/3 948/10/3 947/10/3
f 951/10/3 947/10/3 943/10/3
f 952/10/3 948/10/3 951/10/3
f 953/10/3 948/10/3 952/10/3
f 954/10/3 948/10/3 953/10/3
f 955/7/3 938/7/3 937/7/3
f 955/7/3 939/7/3 938/7/3
f 956/7/3 939/7/3 955/7/3
f 958/10/3 953/10/3 952/10/3
f 959/10/3 953/10/3 958/10/3
f 960/9/3 955/9/3 954/9/3
f 960/9/3 956/9/3 955/9/3
f 961/9/3 956/9/3 960/9/3
f 962/7/3 939/7/3 956/7/3
f 962/9/3 956/9/3 961/9/3
f 965/10/3 959/10/3 958/10/3
f 965/10/3 958/10/3 957/10/3
f 965/10/3 960/10/3 959/10/3
f 966/10/3 960/10/3 965/10/3
f 967/10/3 964/10/3 963/10/3
f 969/10/3 965/10/3 957/10/3
f 970/10/3 965/10/3 969/10/3
f 971/7/3 939/7/3 962/7/3
f 971/7/3 962/7/3 961/7/3
f 972/10/3 968/10/3 967/10/3
f 972/10/3 967/10/3 963/10/3
f 973/10/3 968/10/3 972/10/3
f 975/7/3 971/7/3 961/7/3
f 976/7/3 971/7/3 975/7/3
f 977/7/3 971/7/3 976/7/3
f 978/10/3 974/10/3 973/10/3
f 978/7/3 971/7/3 977/7/3
f 978/10/3 973/10/3 972/10/3
f 978/10/3 972/10/3 971/10/3
f 979/10/3 974/10/3 978/10/3
f 984/10/3 981/10/3 980/10/3
f 985/10/3 981/10/3 984/10/3
f 986/8/3 982/8/3 981/8/3
f 986/10/3 981/10/3 985/10/3
f 987/8/3 982/8/3 986/8/3
f 988/8/3 982/8/3 987/8/3
f 991/10/3 985/10/3 984/10/3
f 991/10/3 984/10/3 983/10/3
f 992/10/3 985/10/3 991/10/3
f 995/10/3 985/10/3 992/10/3
f 996/8/3 987/8/3 986/8/3
f 996/10/3 985/10/3 995/10/3
f 996/8/3 986/8/3 985/8/3
f 997/8/3 987/8/3 996/8/3
f 998/10/3 994/10/3 993/10/3
f 1001/8/3 987/8/3 997/8/3
f 1002/8/3 987/8/3 1001/8/3
f 1003/10/3 999/10/3 998/10/3
f 1003/10/3 998/10/3 993/10/3
f 1004/10/3 999/10/3 1003/10/3
f 1005/8/3 1001/8/3 1000/8/3
f 1006/8/3 1001/8/3 1005/8/3
f 1008/10/3 1003/10/3 993/10/3
f 1009/10/3 1003/10/3 1008/10/3
f 1012/8/3 1007/8/3 1006/8/3
f 1014/10/3 1011/10/3 1010/10/3
f 1015/8/3 990/8/3 989/8/3
f 1016/8/3 990/8/3 1015/8/3
f 1017/10/3 1014/10/3 1013/10/3
f 1018/10/3 1011/10/3 1014/10/3
f 1018/10/3 1014/10/3 1017/10/3
f 1019/8/3 1012/8/3 1011/8/3
f 1019/10/3 1011/10/3 1018/10/3
f 1020/8/3 1007/8/3 1012/8/3
f 1020/8/3 1012/8/3 1019/8/3
f 1021/8/3 1007/8/3 1020/8/3
f 1023/10/3 1019/10/3 1018/10/3
f 1023/10/3 1020/10/3 1019/10/3
f 1024/8/3 1022/8/3 1021/8/3
f 1024/10/3 1020/10/3 1023/10/3
f 1024/8/3 1021/8/3 1020/8/3
f 1025/8/3 1022/8/3 1024/8/3
f 1028/10/3 1027/10/3 1026/10/3
f 1029/10/3 1027/10/3 1028/10/3
f 1034/10/3 1031/10/3 1030/10/3
f 1035/10/3 1031/10/3 1034/10/3
f 1036/10/3 1033/10/3 1032/10/3
f 1037/10/3 1033/10/3 1036/10/3
f 1041/10/3 1039/10/3 1038/10/3
f 1042/10/3 1039/10/3 1041/10/3
f 1043/10/3 1041/10/3 1040/10/3
f 1044/10/3 1041/10/3 1043/10/3
f 1046/10/3 1045/10/3 1044/10/3
f 1047/10/3 1045/10/3 1046/10/3
f 1050/10/3 1049/10/3 1048/10/3
f 1051/10/3 1049/10/3 1050/10/3
f 1053/10/3 1052/10/3 1051/10/3
f 1054/10/3 1052/10/3 1053/10/3
f 1059/8/3 1058/8/3 1057/8/3
f 1060/8/3 1058/8/3 1059/8/3
f 1061/2/3 1056/2/3 1055/2/3
f 1062/2/3 1056/2/3 1061/2/3
f 1067/10/3 1064/10/3 1063/10/3
f 1068/10/3 1064/10/3 1067/10/3
f 1072/2/3 1066/2/3 1065/2/3
f 1073/2/3 1066/2/3 1072/2/3
f 1077/2/3 1070/2/3 1069/2/3
f 1078/11/3 1071/11/3 1070/11/3
f 1080/10/3 1074/10/3 1073/10/3
f 1081/10/3 1074/10/3 1080/10/3
f 1084/5/3 1077/5/3 1076/5/3
f 1084/8/3 1076/8/3 1075/8/3
f 1085/2/3 1070/2/3 1077/2/3
f 1085/5/3 1077/5/3 1084/5/3
f 1086/11/3 1078/11/3 1070/11/3
f 1086/2/3 1070/2/3 1085/2/3
f 1087/11/3 1078/11/3 1086/11/3
f 1088/2/3 1079/2/3 1078/2/3
f 1088/11/3 1078/11/3 1087/11/3
f 1089/2/3 1079/2/3 1088/2/3
f 1090/8/3 1083/8/3 1082/8/3
f 1091/8/3 1083/8/3 1090/8/3
f 1092/8/3 1084/8/3 1075/8/3
f 1092/8/3 1085/8/3 1084/8/3
f 1093/5/3 1086/5/3 1085/5/3
f 1093/8/3 1085/8/3 1092/8/3
f 1094/8/3 1087/8/3 1086/8/3
f 1094/5/3 1086/5/3 1093/5/3
f 1095/5/3 1088/5/3 1087/5/3
f 1095/8/3 1087/8/3 1094/8/3
f 1095/5/3 1089/5/3 1088/5/3
f 1096/5/3 1089/5/3 1095/5/3
f 1099/8/3 1092/8/3 1075/8/3
f 1100/8/3 1096/8/3 1095/8/3
f 1100/8/3 1094/8/3 1093/8/3
f 1100/8/3 1095/8/3 1094/8/3
f 1101/8/3 1096/8/3 1100/8/3
f 1102/8/3 1096/8/3 1101/8/3
f 1103/8/3 1098/8/3 1097/8/3
f 1104/8/3 1098/8/3 1103/8/3
f 1105/8/3 1099/8/3 1075/8/3
f 1105/8/3 1100/8/3 1099/8/3
f 1105/8/3 1101/8/3 1100/8/3
f 1106/8/3 1101/8/3 1105/8/3
f 1107/8/3 1101/8/3 1106/8/3
f 1108/5/3 1102/5/3 1101/5/3
f 1108/8/3 1101/8/3 1107/8/3
f 1109/5/3 1102/5/3 1108/5/3
f 1110/5/3 1102/5/3 1109/5/3
f 1111/8/3 1105/8/3 1075/8/3
f 1112/5/3 1106/5/3 1105/5/3
f 1112/8/3 1105/8/3 1111/8/3
f 1113/2/3 1107/2/3 1106/2/3
f 1113/5/3 1106/5/3 1112/5/3
f 1114/2/3 1110/2/3 1109/2/3
f 1114/11/3 1108/11/3 1107/11/3
f 1114/11/3 1109/11/3 1108/11/3
f 1115/2/3 1110/2/3 1114/2/3
f 1118/2/3 1107/2/3 1113/2/3
f 1119/11/3 1114/11/3 1107/11/3
f 1119/2/3 1107/2/3 1118/2/3
f 1120/11/3 1114/11/3 1119/11/3
f 1122/10/3 1117/10/3 1116/10/3
f 1123/10/3 1117/10/3 1122/10/3
f 1124/2/3 1122/2/3 1121/2/3
f 1125/2/3 1122/2/3 1124/2/3
f 1128/10/3 1127/10/3 1126/10/3
f 1129/10/3 1127/10/3 1128/10/3
f 1134/8/3 1131/8/3 1130/8/3
f 1135/8/3 1131/8/3 1134/8/3
f 1136/2/3 1133/2/3 1132/2/3
f 1137/2/3 1133/2/3 1136/2/3
f 1145/2/3 1141/2/3 1140/2/3
f 1146/2/3 1141/2/3 1145/2/3
f 1148/8/3 1139/8/3 1138/8/3
f 1149/8/3 1139/8/3 1148/8/3
f 1150/8/3 1139/8/3 1149/8/3
f 1152/8/3 1143/8/3 1142/8/3
f 1153/8/3 1152/8/3 1151/8/3
f 1154/8/3 1143/8/3 1152/8/3
f 1154/8/3 1152/8/3 1153/8/3
f 1155/11/3 1145/11/3 1144/11/3
f 1156/11/3 1145/11/3 1155/11/3
f 1157/11/3 1147/11/3 1146/11/3
f 1158/11/3 1147/11/3 1157/11/3
f 1159/2/3 1157/2/3 1156/2/3
f 1160/2/3 1157/2/3 1159/2/3
f 1170/8/3 1162/8/3 1161/8/3
f 1171/8/3 1162/8/3 1170/8/3
f 1177/2/3 1164/2/3 1163/2/3
f 1179/2/3 1166/2/3 1165/2/3
f 1180/2/3 1166/2/3 1179/2/3
f 1181/11/3 1167/11/3 1166/11/3
f 1181/2/3 1166/2/3 1180/2/3
f 1182/11/3 1167/11/3 1181/11/3
f 1183/10/3 1169/10/3 1168/10/3
f 1184/10/3 1169/10/3 1183/10/3
f 1188/8/3 1173/8/3 1172/8/3
f 1189/5/3 1174/5/3 1173/5/3
f 1189/2/3 1175/2/3 1174/2/3
f 1190/11/3 1176/11/3 1175/11/3
f 1190/2/3 1175/2/3 1189/2/3
f 1191/2/3 1177/2/3 1176/2/3
f 1191/11/3 1176/11/3 1190/11/3
f 1192/2/3 1164/2/3 1177/2/3
f 1192/2/3 1177/2/3 1191/2/3
f 1193/11/3 1179/11/3 1178/11/3
f 1194/11/3 1179/11/3 1193/11/3
f 1195/2/3 1181/2/3 1180/2/3
f 1196/2/3 1181/2/3 1195/2/3
f 1197/8/3 1186/8/3 1185/8/3
f 1198/8/3 1186/8/3 1197/8/3
f 1199/8/3 1188/8/3 1187/8/3
f 1199/8/3 1173/8/3 1188/8/3
f 1200/5/3 1189/5/3 1173/5/3
f 1200/8/3 1173/8/3 1199/8/3
f 1201/5/3 1189/5/3 1200/5/3
f 1202/2/3 1192/2/3 1191/2/3
f 1203/2/3 1192/2/3 1202/2/3
f 1204/11/3 1194/11/3 1193/11/3
f 1204/2/3 1195/2/3 1194/2/3
f 1204/11/3 1193/11/3 1192/11/3
f 1205/2/3 1195/2/3 1204/2/3
f 1206/2/3 1192/2/3 1203/2/3
f 1207/11/3 1204/11/3 1192/11/3
f 1207/2/3 1192/2/3 1206/2/3
f 1208/11/3 1204/11/3 1207/11/3
f 1209/11/3 1204/11/3 1208/11/3
f 1212/5/3 1207/5/3 1206/5/3
f 1212/5/3 1208/5/3 1207/5/3
f 1213/5/3 1208/5/3 1212/5/3
f 1214/4/3 1211/4/3 1210/4/3
f 1215/4/3 1211/4/3 1214/4/3
f 1216/8/3 1213/8/3 1212/8/3
f 1217/8/3 1213/8/3 1216/8/3
f 1218/2/3 1217/2/3 1216/2/3
f 1219/8/3 1213/8/3 1217/8/3
f 1219/2/3 1217/2/3 1218/2/3
f 1220/8/3 1213/8/3 1219/8/3
f 1223/8/3 1199/8/3 1187/8/3
f 1227/2/3 1219/2/3 1218/2/3
f 1228/11/3 1220/11/3 1219/11/3
f 1231/8/3 1222/8/3 1221/8/3
f 1232/8/3 1222/8/3 1231/8/3
f 1233/8/3 1223/8/3 1187/8/3
f 1233/8/3 1224/8/3 1223/8/3
f 1234/8/3 1224/8/3 1233/8/3
f 1235/5/3 1225/5/3 1224/5/3
f 1237/2/3 1227/2/3 1226/2/3
f 1238/11/3 1228/11/3 1219/11/3
f 1238/11/3 1229/11/3 1228/11/3
f 1238/2/3 1227/2/3 1237/2/3
f 1238/2/3 1219/2/3 1227/2/3
f 1239/11/3 1229/11/3 1238/11/3
f 1240/2/3 1230/2/3 1229/2/3
f 1240/11/3 1229/11/3 1239/11/3
f 1241/2/3 1230/2/3 1240/2/3
f 1245/8/3 1224/8/3 1234/8/3
f 1246/5/3 1235/5/3 1224/5/3
f 1246/8/3 1224/8/3 1245/8/3
f 1247/2/3 1236/2/3 1235/2/3
f 1247/5/3 1235/5/3 1246/5/3
f 1248/11/3 1237/11/3 1236/11/3
f 1248/2/3 1236/2/3 1247/2/3
f 1249/2/3 1238/2/3 1237/2/3
f 1249/11/3 1237/11/3 1248/11/3
f 1250/2/3 1238/2/3 1249/2/3
f 1251/11/3 1240/11/3 1239/11/3
f 1252/11/3 1240/11/3 1251/11/3
f 1253/2/3 1242/2/3 1241/2/3
f 1254/2/3 1242/2/3 1253/2/3
f 1262/8/3 1244/8/3 1243/8/3
f 1263/8/3 1244/8/3 1262/8/3
f 1264/2/3 1238/2/3 1250/2/3
f 1265/2/3 1238/2/3 1264/2/3
f 1266/2/3 1254/2/3 1253/2/3
f 1266/2/3 1253/2/3 1252/2/3
f 1267/11/3 1255/11/3 1254/11/3
f 1267/2/3 1254/2/3 1266/2/3
f 1268/11/3 1255/11/3 1267/11/3
f 1269/10/3 1257/10/3 1256/10/3
f 1270/10/3 1257/10/3 1269/10/3
f 1271/10/3 1259/10/3 1258/10/3
f 1272/10/3 1259/10/3 1271/10/3
f 1273/10/3 1261/10/3 1260/10/3
f 1274/10/3 1261/10/3 1273/10/3
f 1280/2/3 1276/2/3 1275/2/3
f 1281/2/3 1276/2/3 1280/2/3
f 1286/8/3 1278/8/3 1277/8/3
f 1287/8/3 1278/8/3 1286/8/3
f 1288/8/3 1278/8/3 1287/8/3
f 1289/8/3 1278/8/3 1288/8/3
f 1290/11/3 1280/11/3 1279/11/3
f 1291/11/3 1280/11/3 1290/11/3
f 1292/11/3 1282/11/3 1281/11/3
f 1293/11/3 1282/11/3 1292/11/3
f 1294/8/3 1285/8/3 1284/8/3
f 1294/8/3 1284/8/3 1283/8/3
f 1295/8/3 1285/8/3 1294/8/3
f 1296/2/3 1292/2/3 1291/2/3
f 1297/2/3 1292/2/3 1296/2/3
f 1306/8/3 1299/8/3 1298/8/3
f 1307/8/3 1301/8/3 1300/8/3
f 1308/8/3 1301/8/3 1307/8/3
f 1310/11/3 1303/11/3 1302/11/3
f 1311/11/3 1303/11/3 1310/11/3
f 1312/11/3 1305/11/3 1304/11/3
f 1313/11/3 1305/11/3 1312/11/3
f 1317/8/3 1306/8/3 1298/8/3
f 1317/8/3 1307/8/3 1306/8/3
f 1318/8/3 1307/8/3 1317/8/3
f 1319/11/3 1316/11/3 1315/11/3
f 1322/2/3 1309/2/3 1308/2/3
f 1323/11/3 1310/11/3 1309/11/3
f 1323/2/3 1309/2/3 1322/2/3
f 1324/11/3 1310/11/3 1323/11/3
f 1326/11/3 1314/11/3 1313/11/3
f 1327/8/3 1322/8/3 1321/8/3
f 1328/8/3 1322/8/3 1327/8/3
f 1329/11/3 1325/11/3 1324/11/3
f 1330/11/3 1325/11/3 1329/11/3
f 1331/2/3 1320/2/3 1319/2/3
f 1338/11/3 1314/11/3 1326/11/3
f 1339/11/3 1332/11/3 1331/11/3
f 1345/11/3 1334/11/3 1333/11/3
f 1346/2/3 1335/2/3 1334/2/3
f 1347/11/3 1336/11/3 1335/11/3
f 1347/2/3 1335/2/3 1346/2/3
f 1348/2/3 1337/2/3 1336/2/3
f 1348/11/3 1336/11/3 1347/11/3
f 1349/11/3 1338/11/3 1337/11/3
f 1349/2/3 1337/2/3 1348/2/3
f 1350/11/3 1314/11/3 1338/11/3
f 1350/11/3 1338/11/3 1349/11/3
f 1351/2/3 1315/2/3 1314/2/3
f 1351/11/3 1314/11/3 1350/11/3
f 1352/11/3 1319/11/3 1315/11/3
f 1352/2/3 1315/2/3 1351/2/3
f 1353/2/3 1331/2/3 1319/2/3
f 1353/11/3 1319/11/3 1352/11/3
f 1354/2/3 1331/2/3 1353/2/3
f 1355/11/3 1339/11/3 1331/11/3
f 1355/2/3 1331/2/3 1354/2/3
f 1355/11/3 1340/11/3 1339/11/3
f 1356/11/3 1340/11/3 1355/11/3
f 1360/7/3 1342/7/3 1341/7/3
f 1361/7/3 1342/7/3 1360/7/3
f 1362/5/3 1343/5/3 1342/5/3
f 1362/7/3 1342/7/3 1361/7/3
f 1363/2/3 1344/2/3 1343/2/3
f 1363/5/3 1343/5/3 1362/5/3
f 1364/11/3 1345/11/3 1344/11/3
f 1364/2/3 1344/2/3 1363/2/3
f 1365/11/3 1334/11/3 1345/11/3
f 1365/11/3 1345/11/3 1364/11/3
f 1365/2/3 1346/2/3 1334/2/3
f 1366/2/3 1346/2/3 1365/2/3
f 1367/11/3 1348/11/3 1347/11/3
f 1368/11/3 1348/11/3 1367/11/3
f 1369/11/3 1353/11/3 1352/11/3
f 1370/11/3 1353/11/3 1369/11/3
f 1371/11/3 1353/11/3 1370/11/3
f 1372/11/3 1340/11/3 1356/11/3
f 1373/11/3 1340/11/3 1372/11/3
f 1374/8/3 1358/8/3 1357/8/3
f 1375/8/3 1358/8/3 1374/8/3
f 1376/7/3 1361/7/3 1360/7/3
f 1376/7/3 1360/7/3 1359/7/3
f 1377/7/3 1361/7/3 1376/7/3
f 1378/11/3 1367/11/3 1347/11/3
f 1379/11/3 1367/11/3 1378/11/3
f 1384/8/3 1381/8/3 1380/8/3
f 1385/8/3 1381/8/3 1384/8/3
f 1386/7/3 1376/7/3 1359/7/3
f 1387/7/3 1376/7/3 1386/7/3
f 1389/8/3 1383/8/3 1382/8/3
f 1390/8/3 1383/8/3 1389/8/3
f 1391/5/3 1390/5/3 1389/5/3
f 1391/5/3 1389/5/3 1388/5/3
f 1392/8/3 1383/8/3 1390/8/3
f 1392/5/3 1390/5/3 1391/5/3
f 1393/8/3 1392/8/3 1391/8/3
f 1394/8/3 1383/8/3 1392/8/3
f 1394/8/3 1392/8/3 1393/8/3
f 1399/5/3 1394/5/3 1393/5/3
f 1400/5/3 1394/5/3 1399/5/3
f 1401/5/3 1394/5/3 1400/5/3
f 1402/5/3 1394/5/3 1401/5/3
f 1403/8/3 1396/8/3 1395/8/3
f 1404/8/3 1396/8/3 1403/8/3
f 1405/11/3 1400/11/3 1399/11/3
f 1406/2/3 1401/2/3 1400/2/3
f 1406/11/3 1400/11/3 1405/11/3
f 1407/2/3 1401/2/3 1406/2/3
f 1410/7/3 1398/7/3 1397/7/3
f 1411/7/3 1398/7/3 1410/7/3
f 1415/8/3 1409/8/3 1408/8/3
f 1416/8/3 1409/8/3 1415/8/3
f 1417/7/3 1412/7/3 1411/7/3
f 1418/7/3 1412/7/3 1417/7/3
f 1424/11/3 1414/11/3 1413/11/3
f 1428/5/3 1420/5/3 1419/5/3
f 1429/2/3 1421/2/3 1420/2/3
f 1429/5/3 1420/5/3 1428/5/3
f 1430/11/3 1422/11/3 1421/11/3
f 1430/2/3 1421/2/3 1429/2/3
f 1431/11/3 1422/11/3 1430/11/3
f 1432/2/3 1423/2/3 1422/2/3
f 1433/11/3 1425/11/3 1424/11/3
f 1433/11/3 1424/11/3 1413/11/3
f 1434/11/3 1425/11/3 1433/11/3
f 1438/11/3 1427/11/3 1426/11/3
f 1439/11/3 1427/11/3 1438/11/3
f 1443/11/3 1422/11/3 1431/11/3
f 1444/2/3 1432/2/3 1422/2/3
f 1444/11/3 1422/11/3 1443/11/3
f 1444/2/3 1433/2/3 1432/2/3
f 1445/11/3 1434/11/3 1433/11/3
f 1445/2/3 1433/2/3 1444/2/3
f 1446/2/3 1435/2/3 1434/2/3
f 1446/11/3 1434/11/3 1445/11/3
f 1447/11/3 1437/11/3 1436/11/3
f 1447/2/3 1435/2/3 1446/2/3
f 1447/11/3 1436/11/3 1435/11/3
f 1448/11/3 1437/11/3 1447/11/3
f 1449/11/3 1442/11/3 1441/11/3
f 1450/11/3 1442/11/3 1449/11/3
f 1455/2/3 1441/2/3 1440/2/3
f 1455/11/3 1449/11/3 1441/11/3
f 1456/11/3 1449/11/3 1455/11/3
f 1457/8/3 1452/8/3 1451/8/3
f 1458/8/3 1452/8/3 1457/8/3
f 1460/11/3 1454/11/3 1453/11/3
f 1461/11/3 1454/11/3 1460/11/3
f 1462/11/3 1437/11/3 1448/11/3
f 1463/11/3 1440/11/3 1439/11/3
f 1463/11/3 1439/11/3 1438/11/3
f 1463/2/3 1455/2/3 1440/2/3
f 1464/2/3 1455/2/3 1463/2/3
f 1467/8/3 1466/8/3 1465/8/3
f 1468/8/3 1466/8/3 1467/8/3
f 1469/2/3 1459/2/3 1458/2/3
f 1470/11/3 1460/11/3 1459/11/3
f 1470/2/3 1459/2/3 1469/2/3
f 1471/11/3 1460/11/3 1470/11/3
f 1474/11/3 1437/11/3 1462/11/3
f 1475/2/3 1438/2/3 1437/2/3
f 1475/11/3 1437/11/3 1474/11/3
f 1476/11/3 1463/11/3 1438/11/3
f 1476/2/3 1438/2/3 1475/2/3
f 1477/11/3 1463/11/3 1476/11/3
f 1478/8/3 1467/8/3 1465/8/3
f 1479/8/3 1467/8/3 1478/8/3
f 1480/8/3 1469/8/3 1468/8/3
f 1481/8/3 1469/8/3 1480/8/3
f 1482/11/3 1472/11/3 1471/11/3
f 1483/11/3 1472/11/3 1482/11/3
f 1484/11/3 1474/11/3 1473/11/3
f 1485/11/3 1474/11/3 1484/11/3
f 1488/8/3 1487/8/3 1486/8/3
f 1489/8/3 1487/8/3 1488/8/3
f 1496/7/3 1491/7/3 1490/7/3
f 1497/7/3 1491/7/3 1496/7/3
f 1498/2/3 1493/2/3 1492/2/3
f 1499/2/3 1493/2/3 1498/2/3
f 1500/8/3 1495/8/3 1494/8/3
f 1501/8/3 1495/8/3 1500/8/3
f 1502/7/3 1496/7/3 1490/7/3
f 1504/7/3 1503/7/3 1502/7/3
f 1504/7/3 1502/7/3 1490/7/3
f 1505/7/3 1503/7/3 1504/7/3
f 1510/7/3 1507/7/3 1506/7/3
f 1511/7/3 1507/7/3 1510/7/3
f 1512/7/3 1510/7/3 1506/7/3
f 1514/8/3 1509/8/3 1508/8/3
f 1515/8/3 1509/8/3 1514/8/3
f 1516/7/3 1513/7/3 1512/7/3
f 1518/7/3 1516/7/3 1512/7/3
f 1518/7/3 1517/7/3 1516/7/3
f 1518/7/3 1512/7/3 1506/7/3
f 1519/7/3 1517/7/3 1518/7/3
f 1522/8/3 1521/8/3 1520/8/3
f 1523/8/3 1521/8/3 1522/8/3
f 1526/8/3 1525/8/3 1524/8/3
f 1527/8/3 1525/8/3 1526/8/3
f 1534/8/3 1529/8/3 1528/8/3
f 1534/4/3 1530/4/3 1529/4/3
f 1535/8/3 1531/8/3 1530/8/3
f 1535/4/3 1530/4/3 1534/4/3
f 1536/4/3 1532/4/3 1531/4/3
f 1536/8/3 1531/8/3 1535/8/3
f 1537/7/3 1533/7/3 1532/7/3
f 1537/4/3 1532/4/3 1536/4/3
f 1538/8/3 1536/8/3 1535/8/3
f 1538/8/3 1535/8/3 1534/8/3
f 1538/8/3 1537/8/3 1536/8/3
f 1538/8/3 1534/8/3 1528/8/3
f 1539/8/3 1537/8/3 1538/8/3
f 1540/8/3 1537/8/3 1539/8/3
f 1541/7/3 1533/7/3 1537/7/3
f 1541/8/3 1537/8/3 1540/8/3
f 1542/8/3 1538/8/3 1528/8/3
f 1543/4/3 1539/4/3 1538/4/3
f 1543/8/3 1538/8/3 1542/8/3
f 1544/8/3 1540/8/3 1539/8/3
f 1544/4/3 1539/4/3 1543/4/3
f 1545/4/3 1541/4/3 1540/4/3
f 1545/8/3 1540/8/3 1544/8/3
f 1546/7/3 1533/7/3 1541/7/3
f 1546/4/3 1541/4/3 1545/4/3
f 1547/7/3 1533/7/3 1546/7/3
f 1552/4/3 1549/4/3 1548/4/3
f 1553/8/3 1550/8/3 1549/8/3
f 1553/4/3 1549/4/3 1552/4/3
f 1554/8/3 1553/8/3 1552/8/3
f 1554/8/3 1550/8/3 1553/8/3
f 1555/8/3 1550/8/3 1554/8/3
f 1556/8/3 1554/8/3 1552/8/3
f 1557/4/3 1555/4/3 1554/4/3
f 1557/8/3 1554/8/3 1556/8/3
f 1558/8/3 1550/8/3 1555/8/3
f 1558/4/3 1555/4/3 1557/4/3
f 1559/7/3 1551/7/3 1550/7/3
f 1559/8/3 1550/8/3 1558/8/3
f 1560/7/3 1551/7/3 1559/7/3
f 1563/8/3 1562/8/3 1561/8/3
f 1564/8/3 1562/8/3 1563/8/3
f 1567/8/3 1566/8/3 1565/8/3
f 1568/8/3 1566/8/3 1567/8/3
f 1571/8/3 1570/8/3 1569/8/3
f 1572/8/3 1570/8/3 1571/8/3
f 1573/10/4 1574/10/4 1575/10/4
f 1575/10/4 1574/10/4 1576/10/4
f 1577/10/4 1578/10/4 1579/10/4
f 1579/10/4 1578/10/4 1580/10/4
f 1581/10/4 1582/10/4 1583/10/4
f 1583/10/4 1582/10/4 1584/10/4
f 1585/10/4 1586/10/4 1589/10/4
f 1589/10/4 1586/10/4 1590/10/4
f 1587/10/4 1588/10/4 1592/10/4
f 1591/10/4 1592/10/4 1593/10/4
f 1592/10/4 1588/10/4 1594/10/4
f 1593/10/4 1592/10/4 1594/10/4
f 1594/10/4 1588/10/4 1595/10/4
f 1596/10/4 1597/10/4 1598/10/4
f 1598/10/4 1597/10/4 1599/10/4
f 1600/8/4 1601/8/4 1602/8/4
f 1602/8/4 1601/8/4 1603/8/4
f 1604/8/4 1605/8/4 1606/8/4
f 1606/8/4 1605/8/4 1607/8/4
f 1608/8/4 1609/8/4 1610/8/4
f 1610/8/4 1609/8/4 1611/8/4
f 1612/8/4 1613/8/4 1614/8/4
f 1614/8/4 1613/8/4 1615/8/4
f 1616/8/4 1617/8/4 1618/8/4
f 1618/8/4 1617/8/4 1619/8/4
f 1620/8/4 1621/8/4 1622/8/4
f 1622/8/4 1621/8/4 1623/8/4
f 1624/8/4 1625/8/4 1626/8/4
f 1626/8/4 1625/8/4 1627/8/4
f 1628/8/4 1629/8/4 1630/8/4
f 1630/8/4 1629/8/4 1631/8/4
f 1632/8/4 1633/8/4 1634/8/4
f 1634/8/4 1633/8/4 1635/8/4
f 1636/8/4 1637/8/4 1638/8/4
f 1638/8/4 1637/8/4 1639/8/4
f 1640/11/4 1641/11/4 1644/11/4
f 1644/11/4 1641/11/4 1645/11/4
f 1642/11/4 1643/11/4 1646/11/4
f 1646/11/4 1643/11/4 1647/11/4
f 1648/8/4 1649/8/4 1652/8/4
f 1652/8/4 1649/8/4 1653/8/4
f 1650/11/4 1651/11/4 1654/11/4
f 1654/11/4 1651/11/4 1655/11/4
f 1656/11/4 1657/11/4 1658/11/4
f 1658/11/4 1657/11/4 1659/11/4
f 1662/11/4 1663/11/4 1664/11/4
f 1664/11/4 1663/11/4 1665/11/4
f 1660/8/4 1661/8/4 1666/8/4
f 1666/8/4 1661/8/4 1667/8/4
f 1668/11/4 1669/11/4 1672/11/4
f 1672/11/4 1669/11/4 1673/11/4
f 1670/11/4 1671/11/4 1674/11/4
f 1674/11/4 1671/11/4 1675/11/4
f 1676/8/4 1677/8/4 1682/8/4
f 1678/8/4 1679/8/4 1683/8/4
f 1683/8/4 1679/8/4 1684/8/4
f 1680/2/4 1681/2/4 1686/2/4
f 1686/2/4 1681/2/4 1687/2/4
f 1676/8/4 1682/8/4 1692/8/4
f 1682/8/4 1683/8/4 1692/8/4
f 1689/11/4 1690/11/4 1693/11/4
f 1691/8/4 1692/8/4 1695/8/4
f 1692/8/4 1683/8/4 1695/8/4
f 1684/2/4 1685/2/4 1696/2/4
f 1685/11/4 1686/11/4 1697/11/4
f 1696/2/4 1685/2/4 1697/2/4
f 1697/11/4 1686/11/4 1698/11/4
f 1687/11/4 1688/11/4 1699/11/4
f 1699/11/4 1688/11/4 1700/11/4
f 1691/8/4 1695/8/4 1701/8/4
f 1695/8/4 1696/8/4 1701/8/4
f 1701/8/4 1696/8/4 1702/8/4
f 1698/2/4 1699/2/4 1703/2/4
f 1703/2/4 1699/2/4 1704/2/4
f 1693/2/4 1694/2/4 1705/2/4
f 1700/11/4 1688/11/4 1712/11/4
f 1688/2/4 1689/2/4 1713/2/4
f 1712/11/4 1688/11/4 1713/11/4
f 1689/11/4 1693/11/4 1714/11/4
f 1713/2/4 1689/2/4 1714/2/4
f 1693/2/4 1705/2/4 1715/2/4
f 1714/11/4 1693/11/4 1715/11/4
f 1715/2/4 1705/2/4 1716/2/4
f 1707/11/4 1708/11/4 1721/11/4
f 1708/2/4 1709/2/4 1722/2/4
f 1721/11/4 1708/11/4 1722/11/4
f 1709/11/4 1710/11/4 1723/11/4
f 1722/2/4 1709/2/4 1723/2/4
f 1710/2/4 1711/2/4 1724/2/4
f 1723/11/4 1710/11/4 1724/11/4
f 1711/11/4 1712/11/4 1725/11/4
f 1724/2/4 1711/2/4 1725/2/4
f 1712/11/4 1713/11/4 1725/11/4
f 1725/11/4 1713/11/4 1726/11/4
f 1717/7/4 1718/7/4 1733/7/4
f 1727/8/4 1728/8/4 1734/8/4
f 1728/4/4 1729/4/4 1734/4/4
f 1729/8/4 1730/8/4 1735/8/4
f 1734/4/4 1729/4/4 1735/4/4
f 1730/4/4 1731/4/4 1736/4/4
f 1735/8/4 1730/8/4 1736/8/4
f 1731/8/4 1732/8/4 1737/8/4
f 1736/4/4 1731/4/4 1737/4/4
f 1735/8/4 1736/8/4 1738/8/4
f 1727/8/4 1734/8/4 1738/8/4
f 1736/8/4 1737/8/4 1738/8/4
f 1734/8/4 1735/8/4 1738/8/4
f 1738/8/4 1737/8/4 1739/8/4
f 1739/8/4 1737/8/4 1740/8/4
f 1737/8/4 1732/8/4 1741/8/4
f 1740/8/4 1737/8/4 1741/8/4
f 1727/8/4 1738/8/4 1742/8/4
f 1738/4/4 1739/4/4 1743/4/4
f 1742/8/4 1738/8/4 1743/8/4
f 1739/8/4 1740/8/4 1744/8/4
f 1743/4/4 1739/4/4 1744/4/4
f 1740/4/4 1741/4/4 1745/4/4
f 1744/8/4 1740/8/4 1745/8/4
f 1741/8/4 1732/8/4 1746/8/4
f 1745/4/4 1741/4/4 1746/4/4
f 1732/7/4 1733/7/4 1747/7/4
f 1746/8/4 1732/8/4 1747/8/4
f 1733/7/4 1718/7/4 1748/7/4
f 1747/7/4 1733/7/4 1748/7/4
f 1748/7/4 1718/7/4 1749/7/4
f 1749/7/4 1718/7/4 1750/7/4
f 1750/7/4 1718/7/4 1752/7/4
f 1751/7/4 1752/7/4 1757/7/4
f 1753/8/4 1754/8/4 1758/8/4
f 1754/4/4 1755/4/4 1758/4/4
f 1755/8/4 1756/8/4 1759/8/4
f 1758/4/4 1755/4/4 1759/4/4
f 1759/8/4 1756/8/4 1760/8/4
f 1760/8/4 1756/8/4 1761/8/4
f 1756/7/4 1757/7/4 1762/7/4
f 1761/8/4 1756/8/4 1762/8/4
f 1758/8/4 1759/8/4 1763/8/4
f 1759/4/4 1760/4/4 1763/4/4
f 1760/8/4 1761/8/4 1764/8/4
f 1763/4/4 1760/4/4 1764/4/4
f 1764/8/4 1761/8/4 1765/8/4
f 1761/4/4 1762/4/4 1766/4/4
f 1765/8/4 1761/8/4 1766/8/4
f 1762/7/4 1757/7/4 1767/7/4
f 1766/4/4 1762/4/4 1767/4/4
f 1753/8/4 1758/8/4 1768/8/4
f 1758/8/4 1763/8/4 1768/8/4
f 1763/8/4 1764/8/4 1768/8/4
f 1764/4/4 1765/4/4 1769/4/4
f 1768/8/4 1764/8/4 1769/8/4
f 1766/8/4 1767/8/4 1770/8/4
f 1769/4/4 1765/4/4 1770/4/4
f 1765/8/4 1766/8/4 1770/8/4
f 1767/7/4 1757/7/4 1771/7/4
f 1770/8/4 1767/8/4 1771/8/4
f 1757/7/4 1752/7/4 1772/7/4
f 1771/7/4 1757/7/4 1772/7/4
f 1772/7/4 1752/7/4 1773/7/4
f 1718/5/4 1719/5/4 1774/5/4
f 1773/7/4 1752/7/4 1774/7/4
f 1752/7/4 1718/7/4 1774/7/4
f 1719/2/4 1720/2/4 1775/2/4
f 1774/5/4 1719/5/4 1775/5/4
f 1720/11/4 1721/11/4 1776/11/4
f 1775/2/4 1720/2/4 1776/2/4
f 1776/11/4 1721/11/4 1777/11/4
f 1777/11/4 1778/11/4 1783/11/4
f 1778/2/4 1779/2/4 1784/2/4
f 1783/11/4 1778/11/4 1784/11/4
f 1779/11/4 1780/11/4 1785/11/4
f 1784/2/4 1779/2/4 1785/2/4
f 1780/2/4 1781/2/4 1786/2/4
f 1785/11/4 1780/11/4 1786/11/4
f 1781/11/4 1782/11/4 1787/11/4
f 1786/2/4 1781/2/4 1787/2/4
f 1787/11/4 1782/11/4 1788/11/4
f 1788/11/4 1782/11/4 1789/11/4
f 1716/2/4 1705/2/4 1792/2/4
f 1705/11/4 1706/11/4 1797/11/4
f 1791/2/4 1792/2/4 1797/2/4
f 1792/2/4 1705/2/4 1797/2/4
f 1797/11/4 1706/11/4 1798/11/4
f 1793/8/4 1794/8/4 1799/8/4
f 1799/8/4 1794/8/4 1800/8/4
f 1795/2/4 1796/2/4 1802/2/4
f 1802/2/4 1796/2/4 1803/2/4
f 1788/11/4 1789/11/4 1804/11/4
f 1790/11/4 1791/11/4 1805/11/4
f 1791/2/4 1797/2/4 1805/2/4
f 1805/2/4 1797/2/4 1806/2/4
f 1793/8/4 1799/8/4 1807/8/4
f 1807/8/4 1799/8/4 1808/8/4
f 1808/8/4 1799/8/4 1809/8/4
f 1809/8/4 1799/8/4 1810/8/4
f 1800/2/4 1801/2/4 1811/2/4
f 1801/11/4 1802/11/4 1812/11/4
f 1811/2/4 1801/2/4 1812/2/4
f 1812/11/4 1802/11/4 1813/11/4
f 1803/11/4 1804/11/4 1814/11/4
f 1804/11/4 1789/11/4 1815/11/4
f 1789/2/4 1790/2/4 1815/2/4
f 1814/11/4 1804/11/4 1815/11/4
f 1790/11/4 1805/11/4 1816/11/4
f 1815/2/4 1790/2/4 1816/2/4
f 1816/11/4 1805/11/4 1817/11/4
f 1808/8/4 1809/8/4 1818/8/4
f 1818/8/4 1809/8/4 1819/8/4
f 1810/8/4 1811/8/4 1820/8/4
f 1820/8/4 1811/8/4 1821/8/4
f 1813/2/4 1814/2/4 1822/2/4
f 1822/2/4 1814/2/4 1823/2/4
f 1824/8/4 1825/8/4 1830/8/4
f 1830/8/4 1825/8/4 1831/8/4
f 1826/8/4 1827/8/4 1832/8/4
f 1832/8/4 1827/8/4 1833/8/4
f 1828/2/4 1829/2/4 1834/2/4
f 1834/2/4 1829/2/4 1835/2/4
f 1836/2/4 1837/2/4 1845/2/4
f 1840/11/4 1841/11/4 1846/11/4
f 1841/2/4 1842/2/4 1847/2/4
f 1846/11/4 1841/11/4 1847/11/4
f 1842/11/4 1843/11/4 1848/11/4
f 1847/2/4 1842/2/4 1848/2/4
f 1843/2/4 1844/2/4 1849/2/4
f 1848/11/4 1843/11/4 1849/11/4
f 1844/11/4 1845/11/4 1850/11/4
f 1849/2/4 1844/2/4 1850/2/4
f 1845/2/4 1837/2/4 1851/2/4
f 1850/11/4 1845/11/4 1851/11/4
f 1851/2/4 1837/2/4 1852/2/4
f 1837/11/4 1838/11/4 1853/11/4
f 1852/2/4 1837/2/4 1853/2/4
f 1838/2/4 1839/2/4 1854/2/4
f 1853/11/4 1838/11/4 1854/11/4
f 1854/2/4 1839/2/4 1855/2/4
f 1856/8/4 1857/8/4 1862/8/4
f 1862/8/4 1857/8/4 1863/8/4
f 1858/2/4 1859/2/4 1864/2/4
f 1864/2/4 1859/2/4 1865/2/4
f 1860/8/4 1861/8/4 1866/8/4
f 1866/8/4 1861/8/4 1867/8/4
f 1880/8/5 1873/8/5 1872/8/5
f 1881/8/5 1875/8/5 1874/8/5
f 1882/8/5 1875/8/5 1881/8/5
f 1883/8/5 1869/8/5 1868/8/5
f 1884/8/5 1869/8/5 1883/8/5
f 1885/8/5 1871/8/5 1870/8/5
f 1886/8/5 1871/8/5 1885/8/5
f 1887/8/5 1877/8/5 1876/8/5
f 1888/8/5 1877/8/5 1887/8/5
f 1889/8/5 1879/8/5 1878/8/5
f 1890/8/5 1882/8/5 1881/8/5
f 1890/8/5 1880/8/5 1872/8/5
f 1890/8/5 1881/8/5 1880/8/5
f 1890/8/5 1883/8/5 1882/8/5
f 1891/8/5 1883/8/5 1890/8/5
f 1892/8/5 1889/8/5 1888/8/5
f 1892/8/5 1879/8/5 1889/8/5
f 1892/8/5 1888/8/5 1887/8/5
f 1892/8/5 1887/8/5 1886/8/5
f 1893/8/5 1879/8/5 1892/8/5
f 1894/8/5 1883/8/5 1891/8/5
f 1895/8/5 1883/8/5 1894/8/5
f 1896/8/5 1892/8/5 1886/8/5
f 1897/8/5 1892/8/5 1896/8/5
f 1902/8/5 1899/8/5 1898/8/5
f 1903/8/5 1899/8/5 1902/8/5
f 1908/8/5 1901/8/5 1900/8/5
f 1909/8/5 1901/8/5 1908/8/5
f 1912/7/5 1905/7/5 1904/7/5
f 1913/7/5 1905/7/5 1912/7/5
f 1914/7/5 1907/7/5 1906/7/5
f 1915/7/5 1907/7/5 1914/7/5
f 1918/8/5 1911/8/5 1910/8/5
f 1919/8/5 1911/8/5 1918/8/5
f 1920/8/5 1917/8/5 1916/8/5
f 1921/8/5 1917/8/5 1920/8/5
f 1926/7/5 1912/7/5 1904/7/5
f 1927/7/5 1912/7/5 1926/7/5
f 1928/7/5 1905/7/5 1913/7/5
f 1929/7/5 1905/7/5 1928/7/5
f 1930/7/5 1914/7/5 1906/7/5
f 1931/7/5 1914/7/5 1930/7/5
f 1932/7/5 1907/7/5 1915/7/5
f 1933/7/5 1907/7/5 1932/7/5
f 1934/8/5 1923/8/5 1922/8/5
f 1935/8/5 1923/8/5 1934/8/5
f 1936/8/5 1925/8/5 1924/8/5
f 1937/8/5 1925/8/5 1936/8/5
f 1942/8/5 1939/8/5 1938/8/5
f 1943/8/5 1941/8/5 1940/8/5
f 1944/8/5 1939/8/5 1942/8/5
f 1945/8/5 1939/8/5 1944/8/5
f 1950/8/5 1943/8/5 1940/8/5
f 1951/8/5 1943/8/5 1950/8/5
f 1955/7/5 1947/7/5 1946/7/5
f 1956/7/5 1947/7/5 1955/7/5
f 1957/7/5 1949/7/5 1948/7/5
f 1958/7/5 1949/7/5 1957/7/5
f 1962/8/5 1954/8/5 1953/8/5
f 1962/8/5 1953/8/5 1952/8/5
f 1963/8/5 1954/8/5 1962/8/5
f 1964/8/5 1960/8/5 1959/8/5
f 1964/8/5 1961/8/5 1960/8/5
f 1965/8/5 1961/8/5 1964/8/5
f 1967/8/5 1954/8/5 1963/8/5
f 1968/8/5 1964/8/5 1959/8/5
f 1970/8/5 1967/8/5 1966/8/5
f 1971/8/5 1954/8/5 1967/8/5
f 1971/8/5 1967/8/5 1970/8/5
f 1972/8/5 1954/8/5 1971/8/5
f 1973/8/5 1969/8/5 1968/8/5
f 1973/8/5 1968/8/5 1959/8/5
f 1974/8/5 1969/8/5 1973/8/5
f 1975/8/5 1969/8/5 1974/8/5
f 1983/8/5 1977/8/5 1976/8/5
f 1984/8/5 1977/8/5 1983/8/5
f 1985/8/5 1977/8/5 1984/8/5
f 1986/8/5 1977/8/5 1985/8/5
f 1991/8/5 1979/8/5 1978/8/5
f 1991/8/5 1980/8/5 1979/8/5
f 1992/8/5 1980/8/5 1991/8/5
f 1993/7/5 1982/7/5 1981/7/5
f 1994/7/5 1982/7/5 1993/7/5
f 1995/7/5 1985/7/5 1984/7/5
f 1996/7/5 1985/7/5 1995/7/5
f 1997/7/5 1985/7/5 1996/7/5
f 1998/7/5 1985/7/5 1997/7/5
f 1999/7/5 1987/7/5 1986/7/5
f 2000/7/5 1987/7/5 1999/7/5
f 2001/8/5 1990/8/5 1989/8/5
f 2001/8/5 1989/8/5 1988/8/5
f 2002/8/5 1990/8/5 2001/8/5
f 2007/8/5 2004/8/5 2003/8/5
f 2008/8/5 2004/8/5 2007/8/5
f 2009/7/5 1997/7/5 1996/7/5
f 2010/7/5 1997/7/5 2009/7/5
f 2011/8/5 2006/8/5 2005/8/5
f 2012/8/5 2006/8/5 2011/8/5
f 2017/8/5 2014/8/5 2013/8/5
f 2018/8/5 2014/8/5 2017/8/5
f 2021/8/5 2016/8/5 2015/8/5
f 2022/8/5 2016/8/5 2021/8/5
f 2023/8/5 2020/8/5 2019/8/5
f 2024/8/5 2020/8/5 2023/8/5
f 2027/5/5 2026/5/5 2025/5/5
f 2028/5/5 2026/5/5 2027/5/5
f 2035/2/5 2030/2/5 2029/2/5
f 2036/2/5 2030/2/5 2035/2/5
f 2037/8/5 2032/8/5 2031/8/5
f 2038/8/5 2032/8/5 2037/8/5
f 2039/2/5 2034/2/5 2033/2/5
f 2040/2/5 2034/2/5 2039/2/5
f 2046/8/5 2042/8/5 2041/8/5
f 2047/8/5 2042/8/5 2046/8/5
f 2048/8/5 2044/8/5 2043/8/5
f 2049/8/5 2044/8/5 2048/8/5
f 2051/8/5 2046/8/5 2045/8/5
f 2052/8/5 2046/8/5 2051/8/5
f 2055/8/5 2050/8/5 2049/8/5
f 2056/8/5 2050/8/5 2055/8/5
f 2057/8/5 2053/8/5 2052/8/5
f 2058/8/5 2053/8/5 2057/8/5
f 2059/8/5 2055/8/5 2054/8/5
f 2060/8/5 2055/8/5 2059/8/5
f 2065/11/5 2062/11/5 2061/11/5
f 2066/11/5 2062/11/5 2065/11/5
f 2067/11/5 2064/11/5 2063/11/5
f 2068/11/5 2064/11/5 2067/11/5
f 2069/11/5 2067/11/5 2066/11/5
f 2070/11/5 2067/11/5 2069/11/5
f 2075/2/5 2072/2/5 2071/2/5
f 2076/2/5 2072/2/5 2075/2/5
f 2077/2/5 2074/2/5 2073/2/5
f 2078/2/5 2074/2/5 2077/2/5
f 2088/11/5 2080/11/5 2079/11/5
f 2089/11/5 2080/11/5 2088/11/5
f 2091/11/5 2082/11/5 2081/11/5
f 2092/11/5 2082/11/5 2091/11/5
f 2093/11/5 2084/11/5 2083/11/5
f 2094/11/5 2084/11/5 2093/11/5
f 2096/11/5 2086/11/5 2085/11/5
f 2097/11/5 2086/11/5 2096/11/5
f 2099/11/5 2088/11/5 2087/11/5
f 2100/11/5 2088/11/5 2099/11/5
f 2101/11/5 2090/11/5 2089/11/5
f 2102/11/5 2090/11/5 2101/11/5
f 2103/11/5 2096/11/5 2095/11/5
f 2104/11/5 2096/11/5 2103/11/5
f 2105/11/5 2098/11/5 2097/11/5
f 2106/11/5 2098/11/5 2105/11/5
f 2118/2/5 2110/2/5 2109/2/5
f 2119/2/5 2110/2/5 2118/2/5
f 2122/2/5 2112/2/5 2111/2/5
f 2123/2/5 2112/2/5 2122/2/5
f 2124/10/5 2108/10/5 2107/10/5
f 2125/10/5 2108/10/5 2124/10/5
f 2126/2/5 2114/2/5 2113/2/5
f 2127/2/5 2114/2/5 2126/2/5
f 2130/2/5 2116/2/5 2115/2/5
f 2131/2/5 2116/2/5 2130/2/5
f 2133/2/5 2118/2/5 2117/2/5
f 2134/2/5 2118/2/5 2133/2/5
f 2135/2/5 2120/2/5 2119/2/5
f 2136/2/5 2120/2/5 2135/2/5
f 2137/2/5 2122/2/5 2121/2/5
f 2138/2/5 2122/2/5 2137/2/5
f 2139/2/5 2128/2/5 2127/2/5
f 2140/2/5 2128/2/5 2139/2/5
f 2141/2/5 2130/2/5 2129/2/5
f 2142/2/5 2130/2/5 2141/2/5
f 2143/2/5 2132/2/5 2131/2/5
f 2144/2/5 2132/2/5 2143/2/5
f 2153/2/5 2146/2/5 2145/2/5
f 2154/2/5 2146/2/5 2153/2/5
f 2155/2/5 2148/2/5 2147/2/5
f 2156/2/5 2148/2/5 2155/2/5
f 2157/2/5 2150/2/5 2149/2/5
f 2158/2/5 2150/2/5 2157/2/5
f 2159/2/5 2152/2/5 2151/2/5
f 2160/2/5 2152/2/5 2159/2/5
f 2161/2/5 2155/2/5 2154/2/5
f 2162/2/5 2155/2/5 2161/2/5
f 2163/2/5 2159/2/5 2158/2/5
f 2164/2/5 2159/2/5 2163/2/5
f 2168/10/5 2166/10/5 2165/10/5
f 2169/10/5 2166/10/5 2168/10/5
f 2172/10/5 2168/10/5 2167/10/5
f 2173/10/5 2170/10/5 2169/10/5
f 2175/10/5 2172/10/5 2171/10/5
f 2176/10/5 2168/10/5 2172/10/5
f 2176/10/5 2172/10/5 2175/10/5
f 2177/10/5 2168/10/5 2176/10/5
f 2178/10/5 2174/10/5 2173/10/5
f 2178/10/5 2173/10/5 2169/10/5
f 2179/10/5 2174/10/5 2178/10/5
f 2180/10/5 2174/10/5 2179/10/5
f 2181/2/5 2179/2/5 2178/2/5
f 2182/2/5 2179/2/5 2181/2/5
f 2188/10/5 2184/10/5 2183/10/5
f 2189/10/5 2184/10/5 2188/10/5
f 2190/10/5 2184/10/5 2189/10/5
f 2191/10/5 2186/10/5 2185/10/5
f 2192/10/5 2186/10/5 2191/10/5
f 2193/10/5 2186/10/5 2192/10/5
f 2196/10/5 2188/10/5 2187/10/5
f 2196/10/5 2189/10/5 2188/10/5
f 2197/10/5 2189/10/5 2196/10/5
f 2198/10/5 2189/10/5 2197/10/5
f 2199/10/5 2194/10/5 2193/10/5
f 2199/10/5 2193/10/5 2192/10/5
f 2200/10/5 2194/10/5 2199/10/5
f 2201/10/5 2194/10/5 2200/10/5
f 2203/10/5 2197/10/5 2196/10/5
f 2203/10/5 2196/10/5 2195/10/5
f 2204/10/5 2197/10/5 2203/10/5
f 2205/10/5 2202/10/5 2201/10/5
f 2205/10/5 2201/10/5 2200/10/5
f 2206/10/5 2202/10/5 2205/10/5
f 2207/10/5 2203/10/5 2195/10/5
f 2208/10/5 2203/10/5 2207/10/5
f 2211/10/5 2202/10/5 2206/10/5
f 2212/10/5 2202/10/5 2211/10/5
f 2213/10/5 2210/10/5 2209/10/5
f 2214/10/5 2210/10/5 2213/10/5
f 2215/10/5 2210/10/5 2214/10/5
f 2220/10/5 2217/10/5 2216/10/5
f 2221/10/5 2217/10/5 2220/10/5
f 2224/10/5 2219/10/5 2218/10/5
f 2225/10/5 2219/10/5 2224/10/5
f 2226/10/5 2223/10/5 2222/10/5
f 2227/10/5 2223/10/5 2226/10/5
f 2231/10/5 2230/10/5 2229/10/5
f 2232/10/5 2230/10/5 2231/10/5
f 2233/10/5 2228/10/5 2227/10/5
f 2234/10/5 2228/10/5 2233/10/5
f 2239/11/5 2236/11/5 2235/11/5
f 2240/11/5 2236/11/5 2239/11/5
f 2241/11/5 2238/11/5 2237/11/5
f 2242/11/5 2238/11/5 2241/11/5
f 2247/2/5 2244/2/5 2243/2/5
f 2248/2/5 2244/2/5 2247/2/5
f 2249/2/5 2246/2/5 2245/2/5
f 2250/2/5 2246/2/5 2249/2/5
f 2253/9/5 2252/9/5 2251/9/5
f 2254/9/5 2252/9/5 2253/9/5
f 2259/7/5 2256/7/5 2255/7/5
f 2260/7/5 2256/7/5 2259/7/5
f 2261/7/5 2258/7/5 2257/7/5
f 2262/7/5 2258/7/5 2261/7/5
f 2265/10/5 2264/10/5 2263/10/5
f 2266/10/5 2264/10/5 2265/10/5
f 2271/7/5 2268/7/5 2267/7/5
f 2272/7/5 2268/7/5 2271/7/5
f 2273/7/5 2270/7/5 2269/7/5
f 2274/7/5 2270/7/5 2273/7/5
f 2277/10/5 2276/10/5 2275/10/5
f 2278/10/5 2276/10/5 2277/10/5
f 2283/10/5 2280/10/5 2279/10/5
f 2284/10/5 2280/10/5 2283/10/5
f 2287/10/5 2282/10/5 2281/10/5
f 2288/10/5 2282/10/5 2287/10/5
f 2289/10/5 2286/10/5 2285/10/5
f 2290/10/5 2286/10/5 2289/10/5
f 2291/2/5 2290/2/5 2289/2/5
f 2292/2/5 2290/2/5 2291/2/5
f 2296/10/5 2294/10/5 2293/10/5
f 2297/10/5 2294/10/5 2296/10/5
f 2299/10/5 2296/10/5 2295/10/5
f 2299/10/5 2298/10/5 2297/10/5
f 2299/10/5 2297/10/5 2296/10/5
f 2300/10/5 2298/10/5 2299/10/5
f 2305/10/5 2302/10/5 2301/10/5
f 2306/10/5 2302/10/5 2305/10/5
f 2307/10/5 2304/10/5 2303/10/5
f 2308/10/5 2304/10/5 2307/10/5
f 2313/8/6 2314/8/6 2321/8/6
f 2315/8/6 2316/8/6 2322/8/6
f 2322/8/6 2316/8/6 2323/8/6
f 2309/8/6 2310/8/6 2324/8/6
f 2324/8/6 2310/8/6 2325/8/6
f 2311/8/6 2312/8/6 2326/8/6
f 2326/8/6 2312/8/6 2327/8/6
f 2317/8/6 2318/8/6 2328/8/6
f 2328/8/6 2318/8/6 2329/8/6
f 2319/8/6 2320/8/6 2330/8/6
f 2322/8/6 2323/8/6 2331/8/6
f 2313/8/6 2321/8/6 2331/8/6
f 2321/8/6 2322/8/6 2331/8/6
f 2323/8/6 2324/8/6 2331/8/6
f 2331/8/6 2324/8/6 2332/8/6
f 2329/8/6 2330/8/6 2333/8/6
f 2328/8/6 2329/8/6 2333/8/6
f 2327/8/6 2328/8/6 2333/8/6
f 2330/8/6 2320/8/6 2334/8/6
f 2333/8/6 2330/8/6 2334/8/6
f 2313/8/6 2331/8/6 2335/8/6
f 2335/8/6 2331/8/6 2336/8/6
f 2334/8/6 2320/8/6 2337/8/6
f 2337/8/6 2320/8/6 2338/8/6
f 2339/8/6 2340/8/6 2343/8/6
f 2343/8/6 2340/8/6 2344/8/6
f 2341/8/6 2342/8/6 2345/8/6
f 2345/8/6 2342/8/6 2346/8/6
f 2346/8/6 2342/8/6 2347/8/6
f 2348/8/6 2349/8/6 2352/8/6
f 2352/8/6 2349/8/6 2353/8/6
f 2350/8/6 2351/8/6 2354/8/6
f 2354/8/6 2351/8/6 2355/8/6
f 2356/8/6 2357/8/6 2360/8/6
f 2360/8/6 2357/8/6 2361/8/6
f 2358/8/6 2359/8/6 2362/8/6
f 2362/8/6 2359/8/6 2363/8/6
f 2364/8/6 2365/8/6 2370/8/6
f 2370/8/6 2365/8/6 2371/8/6
f 2366/8/6 2367/8/6 2372/8/6
f 2372/8/6 2367/8/6 2373/8/6
f 2368/8/6 2369/8/6 2374/8/6
f 2374/8/6 2369/8/6 2375/8/6
f 2376/8/6 2377/8/6 2380/8/6
f 2380/8/6 2377/8/6 2381/8/6
f 2378/8/6 2379/8/6 2382/8/6
f 2382/8/6 2379/8/6 2383/8/6
f 2384/11/6 2385/11/6 2388/11/6
f 2388/11/6 2385/11/6 2389/11/6
f 2386/11/6 2387/11/6 2390/11/6
f 2390/11/6 2387/11/6 2391/11/6
f 2392/2/6 2393/2/6 2400/2/6
f 2393/5/6 2394/5/6 2401/5/6
f 2400/2/6 2393/2/6 2401/2/6
f 2394/8/6 2395/8/6 2402/8/6
f 2401/5/6 2394/5/6 2402/5/6
f 2395/5/6 2396/5/6 2403/5/6
f 2402/8/6 2395/8/6 2403/8/6
f 2396/2/6 2397/2/6 2404/2/6
f 2403/5/6 2396/5/6 2404/5/6
f 2404/2/6 2397/2/6 2405/2/6
f 2398/8/6 2399/8/6 2409/8/6
f 2409/8/6 2399/8/6 2410/8/6
f 2406/8/6 2407/8/6 2413/8/6
f 2413/8/6 2407/8/6 2414/8/6
f 2408/8/6 2409/8/6 2416/8/6
f 2416/8/6 2409/8/6 2417/8/6
f 2410/8/6 2411/8/6 2418/8/6
f 2418/8/6 2411/8/6 2419/8/6
f 2412/8/6 2413/8/6 2420/8/6
f 2420/8/6 2413/8/6 2421/8/6
f 2414/8/6 2415/8/6 2422/8/6
f 2422/8/6 2415/8/6 2423/8/6
f 2417/8/6 2418/8/6 2424/8/6
f 2424/8/6 2418/8/6 2425/8/6
f 2421/8/6 2422/8/6 2426/8/6
f 2426/8/6 2422/8/6 2427/8/6
f 2428/2/6 2429/2/6 2432/2/6
f 2432/2/6 2429/2/6 2433/2/6
f 2430/2/6 2431/2/6 2434/2/6
f 2434/2/6 2431/2/6 2435/2/6
f 2436/5/6 2437/5/6 2440/5/6
f 2437/8/6 2438/8/6 2441/8/6
f 2440/5/6 2437/5/6 2441/5/6
f 2441/8/6 2438/8/6 2442/8/6
f 2438/11/6 2439/11/6 2443/11/6
f 2442/8/6 2438/8/6 2443/8/6
f 2443/11/6 2439/11/6 2444/11/6
f 2445/11/6 2446/11/6 2447/11/6
f 2447/11/6 2446/11/6 2448/11/6
f 2449/2/6 2450/2/6 2453/2/6
f 2453/2/6 2450/2/6 2454/2/6
f 2451/2/6 2452/2/6 2455/2/6
f 2455/2/6 2452/2/6 2456/2/6
f 2457/2/6 2458/2/6 2462/2/6
f 2462/2/6 2458/2/6 2463/2/6
f 2459/2/6 2460/2/6 2466/2/6
f 2466/2/6 2460/2/6 2467/2/6
f 2461/2/6 2462/2/6 2469/2/6
f 2469/2/6 2462/2/6 2470/2/6
f 2467/2/6 2468/2/6 2471/2/6
f 2471/2/6 2468/2/6 2472/2/6
f 2473/2/6 2474/2/6 2477/2/6
f 2477/2/6 2474/2/6 2478/2/6
f 2463/2/6 2464/2/6 2479/2/6
f 2479/2/6 2464/2/6 2480/2/6
f 2465/2/6 2466/2/6 2481/2/6
f 2481/2/6 2466/2/6 2482/2/6
f 2475/2/6 2476/2/6 2483/2/6
f 2483/2/6 2476/2/6 2484/2/6
f 2478/2/6 2479/2/6 2485/2/6
f 2485/2/6 2479/2/6 2486/2/6
f 2482/2/6 2483/2/6 2487/2/6
f 2487/2/6 2483/2/6 2488/2/6
f 2489/10/6 2490/10/6 2493/10/6
f 2493/10/6 2490/10/6 2494/10/6
f 2491/10/6 2492/10/6 2495/10/6
f 2495/10/6 2492/10/6 2496/10/6
f 2497/11/6 2498/11/6 2502/11/6
f 2502/11/6 2498/11/6 2503/11/6
f 2499/11/6 2500/11/6 2504/11/6
f 2504/11/6 2500/11/6 2505/11/6
f 2501/11/6 2502/11/6 2507/11/6
f 2507/11/6 2502/11/6 2508/11/6
f 2505/11/6 2506/11/6 2509/11/6
f 2509/11/6 2506/11/6 2510/11/6
f 2511/10/6 2512/10/6 2513/10/6
f 2513/10/6 2512/10/6 2514/10/6
f 2515/10/6 2516/10/6 2517/10/6
f 2517/10/6 2516/10/6 2518/10/6
f 2519/10/6 2520/10/6 2523/10/6
f 2523/10/6 2520/10/6 2524/10/6
f 2521/10/6 2522/10/6 2525/10/6
f 2525/10/6 2522/10/6 2526/10/6
f 2527/10/6 2528/10/6 2531/10/6
f 2531/10/6 2528/10/6 2532/10/6
f 2529/10/6 2530/10/6 2533/10/6
f 2533/10/6 2530/10/6 2534/10/6
f 2535/10/6 2536/10/6 2539/10/6
f 2539/10/6 2536/10/6 2540/10/6
f 2537/10/6 2538/10/6 2541/10/6
f 2541/10/6 2538/10/6 2542/10/6
f 2545/11/6 2546/11/6 2549/11/6
f 2549/11/6 2546/11/6 2550/11/6
f 2543/11/6 2544/11/6 2551/11/6
f 2551/11/6 2544/11/6 2552/11/6
f 2547/11/6 2548/11/6 2553/11/6
f 2553/11/6 2548/11/6 2554/11/6
f 2555/7/6 2556/7/6 2557/7/6
f 2557/7/6 2556/7/6 2558/7/6
f 2559/2/6 2560/2/6 2561/2/6
f 2561/2/6 2560/2/6 2562/2/6
f 2563/2/6 2564/2/6 2567/2/6
f 2567/2/6 2564/2/6 2568/2/6
f 2565/2/6 2566/2/6 2569/2/6
f 2569/2/6 2566/2/6 2570/2/6
f 2571/10/6 2572/10/6 2575/10/6
f 2575/10/6 2572/10/6 2576/10/6
f 2573/10/6 2574/10/6 2579/10/6
f 2579/10/6 2574/10/6 2580/10/6
f 2577/11/6 2578/11/6 2583/11/6
f 2581/11/6 2582/11/6 2584/11/6
f 2577/11/6 2583/11/6 2585/11/6
f 2583/11/6 2584/11/6 2585/11/6
f 2584/11/6 2582/11/6 2586/11/6
f 2585/11/6 2584/11/6 2586/11/6
f 2587/10/6 2588/10/6 2593/10/6
f 2593/10/6 2588/10/6 2594/10/6
f 2589/10/6 2590/10/6 2595/10/6
f 2591/10/6 2592/10/6 2596/10/6
f 2594/10/6 2588/10/6 2597/10/6
f 2589/10/6 2595/10/6 2598/10/6
f 2595/10/6 2596/10/6 2598/10/6
f 2596/10/6 2592/10/6 2599/10/6
f 2598/10/6 2596/10/6 2599/10/6
f 2594/10/6 2597/10/6 2603/10/6
f 2600/10/6 2601/10/6 2603/10/6
f 2599/10/6 2600/10/6 2603/10/6
f 2598/10/6 2599/10/6 2603/10/6
f 2597/10/6 2598/10/6 2603/10/6
f 2603/10/6 2601/10/6 2604/10/6
f 2602/11/6 2603/11/6 2606/11/6
f 2604/11/6 2605/11/6 2606/11/6
f 2603/11/6 2604/11/6 2606/11/6
f 2606/11/6 2605/11/6 2607/11/6
f 2610/10/6 2611/10/6 2614/10/6
f 2614/10/6 2611/10/6 2615/10/6
f 2608/10/6 2609/10/6 2616/10/6
f 2616/10/6 2609/10/6 2617/10/6
f 2612/10/6 2613/10/6 2618/10/6
f 2618/10/6 2613/10/6 2619/10/6
