# MagicaVoxel @ Ephtracy

# group
o 

# material
mtllib Френки-5.mtl
usemtl palette

# normals
vn -1 0 0
vn 1 0 0
vn 0 0 1
vn 0 0 -1
vn 0 -1 0
vn 0 1 0

# texcoords
vt 0.908203 0.5
vt 0.955078 0.5
vt 0.970703 0.5

# verts
v -0.2 -0.4 0.3
v -0.2 -0.4 0
v -0.2 -0.3 0.3
v -0.2 -0.3 0
v -0.1 -0.4 0
v -0.1 -0.4 -0.4
v -0.1 -0.3 0.1
v -0.1 -0.3 0
v -0.1 -0.3 -0.3
v -0.1 -0.3 -0.4
v -0.1 -0.2 0.1
v -0.1 -0.2 0
v -0.1 -0.2 -0.3
v -0.1 -0.2 -0.4
v -0.1 -0.1 0
v -0.1 -0.1 -0.1
v -0.1 0 0
v -0.1 0 -0.1
v -0.1 0 -0.3
v -0.1 0 -0.4
v -0.1 0.1 0
v -0.1 0.1 -0.1
v -0.1 0.1 -0.3
v -0.1 0.1 -0.4
v -0.1 0.2 0
v -0.1 0.2 -0.1
v -0.1 0.2 -0.2
v -0.1 0.3 -0.1
v -0.1 0.3 -0.2
v -0.1 0.3 -0.3
v -0.1 0.3 -0.4
v -0.1 0.4 -0.3
v -0.1 0.4 -0.4
v -0.1 0.5 0
v -0.1 0.5 -0.4
v 0 -0.4 0.3
v 0 -0.4 0.2
v 0 -0.3 0.3
v 0 -0.3 0.2
v 0.2 -0.4 0.4
v 0.2 -0.4 0.2
v 0.2 -0.3 0.4
v 0.2 -0.3 0.2
v -0.1 -0.4 0.3
v -0.1 -0.4 0.2
v -0.1 -0.3 0.3
v -0.1 -0.3 0.2
v 0.1 -0.4 0.3
v 0.1 -0.4 0.2
v 0.1 -0.3 0.3
v 0.1 -0.3 0.2
v 0.2 -0.4 0.2
v 0.2 -0.4 -0.4
v 0.2 -0.3 0.2
v 0.2 -0.3 0.1
v 0.2 -0.3 -0.3
v 0.2 -0.3 -0.4
v 0.2 -0.2 0.1
v 0.2 -0.2 0
v 0.2 -0.2 -0.2
v 0.2 -0.2 -0.3
v 0.2 -0.2 -0.4
v 0.2 -0.1 0
v 0.2 -0.1 -0.1
v 0.2 -0.1 -0.2
v 0.2 -0.1 -0.3
v 0.2 0 0
v 0.2 0 -0.1
v 0.2 0 -0.3
v 0.2 0 -0.4
v 0.2 0.1 0
v 0.2 0.1 -0.1
v 0.2 0.1 -0.3
v 0.2 0.1 -0.4
v 0.2 0.2 0
v 0.2 0.2 -0.1
v 0.2 0.3 -0.3
v 0.2 0.3 -0.4
v 0.2 0.4 -0.3
v 0.2 0.4 -0.4
v 0.2 0.5 0
v 0.2 0.5 -0.4
v 0.3 -0.4 0.4
v 0.3 -0.4 0.2
v 0.3 -0.3 0.4
v 0.3 -0.3 0.2
v 0.2 -0.4 0.4
v 0.2 -0.3 0.4
v 0.3 -0.4 0.4
v 0.3 -0.3 0.4
v -0.2 -0.4 0.3
v -0.2 -0.3 0.3
v -0.1 -0.4 0.3
v -0.1 -0.3 0.3
v 0 -0.4 0.3
v 0 -0.3 0.3
v 0.1 -0.4 0.3
v 0.1 -0.3 0.3
v -0.1 -0.4 0.2
v -0.1 -0.3 0.2
v 0 -0.4 0.2
v 0 -0.3 0.2
v 0.1 -0.4 0.2
v 0.1 -0.3 0.2
v 0.2 -0.4 0.2
v 0.2 -0.3 0.2
v -0.1 -0.3 0.1
v -0.1 -0.2 0.1
v 0.2 -0.3 0.1
v 0.2 -0.2 0.1
v -0.1 -0.2 0
v -0.1 -0.1 0
v -0.1 0 0
v -0.1 0.1 0
v -0.1 0.2 0
v -0.1 0.5 0
v 0 -0.1 0
v 0 0 0
v 0 0.1 0
v 0 0.2 0
v 0 0.3 0
v 0 0.4 0
v 0.1 -0.1 0
v 0.1 0 0
v 0.1 0.1 0
v 0.1 0.2 0
v 0.1 0.3 0
v 0.1 0.4 0
v 0.2 -0.2 0
v 0.2 -0.1 0
v 0.2 0 0
v 0.2 0.1 0
v 0.2 0.2 0
v 0.2 0.5 0
v 0.2 -0.4 0.2
v 0.2 -0.3 0.2
v 0.3 -0.4 0.2
v 0.3 -0.3 0.2
v -0.2 -0.4 0
v -0.2 -0.3 0
v -0.1 -0.4 0
v -0.1 -0.3 0
v -0.1 -0.4 -0.4
v -0.1 -0.3 -0.4
v -0.1 -0.2 -0.4
v -0.1 0 -0.4
v -0.1 0.1 -0.4
v -0.1 0.3 -0.4
v -0.1 0.4 -0.4
v -0.1 0.5 -0.4
v 0 -0.3 -0.4
v 0 -0.2 -0.4
v 0 0 -0.4
v 0 0.1 -0.4
v 0 0.3 -0.4
v 0 0.4 -0.4
v 0.1 -0.3 -0.4
v 0.1 -0.2 -0.4
v 0.1 0 -0.4
v 0.1 0.1 -0.4
v 0.1 0.3 -0.4
v 0.1 0.4 -0.4
v 0.2 -0.4 -0.4
v 0.2 -0.3 -0.4
v 0.2 -0.2 -0.4
v 0.2 0 -0.4
v 0.2 0.1 -0.4
v 0.2 0.3 -0.4
v 0.2 0.4 -0.4
v 0.2 0.5 -0.4
v 0.2 -0.4 0.4
v 0.3 -0.4 0.4
v -0.2 -0.4 0.3
v -0.1 -0.4 0.3
v 0 -0.4 0.3
v 0.1 -0.4 0.3
v -0.1 -0.4 0.2
v 0 -0.4 0.2
v 0.1 -0.4 0.2
v 0.2 -0.4 0.2
v 0.3 -0.4 0.2
v -0.2 -0.4 0
v -0.1 -0.4 0
v -0.1 -0.4 -0.4
v 0.2 -0.4 -0.4
v 0.2 -0.3 0.4
v 0.3 -0.3 0.4
v -0.2 -0.3 0.3
v -0.1 -0.3 0.3
v 0 -0.3 0.3
v 0.1 -0.3 0.3
v -0.1 -0.3 0.2
v 0 -0.3 0.2
v 0.1 -0.3 0.2
v 0.2 -0.3 0.2
v 0.3 -0.3 0.2
v -0.1 -0.3 0.1
v 0.2 -0.3 0.1
v -0.2 -0.3 0
v -0.1 -0.3 0
v -0.1 -0.2 0.1
v 0.2 -0.2 0.1
v -0.1 -0.2 0
v 0.2 -0.2 0
v -0.1 0.5 0
v 0.2 0.5 0
v -0.1 0.5 -0.4
v 0.2 0.5 -0.4

# faces
f 3/3/1 2/3/1 1/3/1
f 4/3/1 2/3/1 3/3/1
f 8/3/1 6/3/1 5/3/1
f 9/3/1 6/3/1 8/3/1
f 10/3/1 6/3/1 9/3/1
f 11/3/1 8/3/1 7/3/1
f 11/3/1 9/3/1 8/3/1
f 12/3/1 9/3/1 11/3/1
f 13/1/1 10/1/1 9/1/1
f 13/3/1 9/3/1 12/3/1
f 14/1/1 10/1/1 13/1/1
f 15/3/1 13/3/1 12/3/1
f 15/3/1 14/3/1 13/3/1
f 16/3/1 14/3/1 15/3/1
f 17/1/1 16/1/1 15/1/1
f 18/3/1 14/3/1 16/3/1
f 18/1/1 16/1/1 17/1/1
f 19/3/1 14/3/1 18/3/1
f 20/3/1 14/3/1 19/3/1
f 21/3/1 18/3/1 17/3/1
f 21/3/1 19/3/1 18/3/1
f 22/3/1 19/3/1 21/3/1
f 23/1/1 20/1/1 19/1/1
f 23/3/1 19/3/1 22/3/1
f 24/1/1 20/1/1 23/1/1
f 25/1/1 22/1/1 21/1/1
f 26/3/1 23/3/1 22/3/1
f 26/1/1 22/1/1 25/1/1
f 26/3/1 24/3/1 23/3/1
f 27/3/1 24/3/1 26/3/1
f 28/3/1 26/3/1 25/3/1
f 28/1/1 27/1/1 26/1/1
f 29/3/1 24/3/1 27/3/1
f 29/1/1 27/1/1 28/1/1
f 30/3/1 24/3/1 29/3/1
f 31/3/1 24/3/1 30/3/1
f 32/3/1 29/3/1 28/3/1
f 32/3/1 30/3/1 29/3/1
f 32/1/1 31/1/1 30/1/1
f 33/1/1 31/1/1 32/1/1
f 34/3/1 28/3/1 25/3/1
f 34/3/1 32/3/1 28/3/1
f 34/3/1 33/3/1 32/3/1
f 35/3/1 33/3/1 34/3/1
f 38/3/1 37/3/1 36/3/1
f 39/3/1 37/3/1 38/3/1
f 42/3/1 41/3/1 40/3/1
f 43/3/1 41/3/1 42/3/1
f 44/3/2 45/3/2 46/3/2
f 46/3/2 45/3/2 47/3/2
f 48/3/2 49/3/2 50/3/2
f 50/3/2 49/3/2 51/3/2
f 52/3/2 53/3/2 54/3/2
f 54/3/2 53/3/2 55/3/2
f 55/3/2 53/3/2 56/3/2
f 56/3/2 53/3/2 57/3/2
f 55/3/2 56/3/2 58/3/2
f 58/3/2 56/3/2 59/3/2
f 59/3/2 56/3/2 60/3/2
f 56/1/2 57/1/2 61/1/2
f 60/3/2 56/3/2 61/3/2
f 61/1/2 57/1/2 62/1/2
f 59/3/2 60/3/2 63/3/2
f 63/3/2 60/3/2 64/3/2
f 60/1/2 61/1/2 65/1/2
f 64/3/2 60/3/2 65/3/2
f 61/3/2 62/3/2 66/3/2
f 65/1/2 61/1/2 66/1/2
f 63/1/2 64/1/2 67/1/2
f 64/3/2 65/3/2 68/3/2
f 67/1/2 64/1/2 68/1/2
f 65/3/2 66/3/2 68/3/2
f 66/3/2 62/3/2 69/3/2
f 68/3/2 66/3/2 69/3/2
f 69/3/2 62/3/2 70/3/2
f 67/3/2 68/3/2 71/3/2
f 68/3/2 69/3/2 71/3/2
f 71/3/2 69/3/2 72/3/2
f 69/1/2 70/1/2 73/1/2
f 72/3/2 69/3/2 73/3/2
f 73/1/2 70/1/2 74/1/2
f 71/1/2 72/1/2 75/1/2
f 72/3/2 73/3/2 76/3/2
f 75/1/2 72/1/2 76/1/2
f 73/3/2 74/3/2 76/3/2
f 75/3/2 76/3/2 77/3/2
f 76/3/2 74/3/2 77/3/2
f 77/3/2 74/3/2 78/3/2
f 75/3/2 77/3/2 79/3/2
f 77/1/2 78/1/2 79/1/2
f 79/1/2 78/1/2 80/1/2
f 75/3/2 79/3/2 81/3/2
f 79/3/2 80/3/2 81/3/2
f 81/3/2 80/3/2 82/3/2
f 83/3/2 84/3/2 85/3/2
f 85/3/2 84/3/2 86/3/2
f 89/3/3 88/3/3 87/3/3
f 90/3/3 88/3/3 89/3/3
f 93/3/3 92/3/3 91/3/3
f 94/3/3 92/3/3 93/3/3
f 97/3/3 96/3/3 95/3/3
f 98/3/3 96/3/3 97/3/3
f 101/3/3 100/3/3 99/3/3
f 102/3/3 100/3/3 101/3/3
f 105/3/3 104/3/3 103/3/3
f 106/3/3 104/3/3 105/3/3
f 109/3/3 108/3/3 107/3/3
f 110/3/3 108/3/3 109/3/3
f 117/3/3 112/3/3 111/3/3
f 117/1/3 113/1/3 112/1/3
f 118/3/3 114/3/3 113/3/3
f 118/1/3 113/1/3 117/1/3
f 119/1/3 115/1/3 114/1/3
f 119/3/3 114/3/3 118/3/3
f 120/3/3 116/3/3 115/3/3
f 120/1/3 115/1/3 119/1/3
f 121/3/3 116/3/3 120/3/3
f 122/3/3 116/3/3 121/3/3
f 123/3/3 119/3/3 118/3/3
f 123/3/3 118/3/3 117/3/3
f 123/3/3 117/3/3 111/3/3
f 123/3/3 121/3/3 120/3/3
f 123/3/3 120/3/3 119/3/3
f 124/3/3 121/3/3 123/3/3
f 125/3/3 121/3/3 124/3/3
f 126/3/3 121/3/3 125/3/3
f 127/1/3 122/1/3 121/1/3
f 127/3/3 121/3/3 126/3/3
f 128/3/3 116/3/3 122/3/3
f 128/1/3 122/1/3 127/1/3
f 129/3/3 123/3/3 111/3/3
f 130/1/3 124/1/3 123/1/3
f 130/3/3 123/3/3 129/3/3
f 131/3/3 125/3/3 124/3/3
f 131/1/3 124/1/3 130/1/3
f 132/1/3 126/1/3 125/1/3
f 132/3/3 125/3/3 131/3/3
f 133/3/3 127/3/3 126/3/3
f 133/1/3 126/1/3 132/1/3
f 133/3/3 128/3/3 127/3/3
f 134/3/3 116/3/3 128/3/3
f 134/3/3 128/3/3 133/3/3
f 135/3/4 136/3/4 137/3/4
f 137/3/4 136/3/4 138/3/4
f 139/3/4 140/3/4 141/3/4
f 141/3/4 140/3/4 142/3/4
f 143/3/4 144/3/4 151/3/4
f 144/1/4 145/1/4 151/1/4
f 145/3/4 146/3/4 152/3/4
f 151/1/4 145/1/4 152/1/4
f 146/1/4 147/1/4 153/1/4
f 152/3/4 146/3/4 153/3/4
f 147/3/4 148/3/4 154/3/4
f 153/1/4 147/1/4 154/1/4
f 148/1/4 149/1/4 155/1/4
f 154/3/4 148/3/4 155/3/4
f 149/3/4 150/3/4 156/3/4
f 155/1/4 149/1/4 156/1/4
f 154/3/4 155/3/4 157/3/4
f 153/3/4 154/3/4 157/3/4
f 155/3/4 156/3/4 157/3/4
f 152/3/4 153/3/4 157/3/4
f 151/3/4 152/3/4 157/3/4
f 143/3/4 151/3/4 157/3/4
f 157/3/4 156/3/4 158/3/4
f 158/3/4 156/3/4 159/3/4
f 159/3/4 156/3/4 160/3/4
f 160/3/4 156/3/4 161/3/4
f 156/3/4 150/3/4 162/3/4
f 161/3/4 156/3/4 162/3/4
f 143/3/4 157/3/4 163/3/4
f 157/1/4 158/1/4 164/1/4
f 163/3/4 157/3/4 164/3/4
f 158/3/4 159/3/4 165/3/4
f 164/1/4 158/1/4 165/1/4
f 159/1/4 160/1/4 166/1/4
f 165/3/4 159/3/4 166/3/4
f 160/3/4 161/3/4 167/3/4
f 166/1/4 160/1/4 167/1/4
f 161/1/4 162/1/4 168/1/4
f 167/3/4 161/3/4 168/3/4
f 162/3/4 150/3/4 169/3/4
f 168/1/4 162/1/4 169/1/4
f 169/3/4 150/3/4 170/3/4
f 177/3/5 174/3/5 173/3/5
f 178/3/5 176/3/5 175/3/5
f 179/3/5 176/3/5 178/3/5
f 180/3/5 172/3/5 171/3/5
f 181/3/5 172/3/5 180/3/5
f 182/3/5 179/3/5 178/3/5
f 182/3/5 177/3/5 173/3/5
f 182/3/5 180/3/5 179/3/5
f 182/3/5 178/3/5 177/3/5
f 183/3/5 180/3/5 182/3/5
f 184/3/5 180/3/5 183/3/5
f 185/3/5 180/3/5 184/3/5
f 188/3/6 189/3/6 192/3/6
f 190/3/6 191/3/6 193/3/6
f 193/3/6 191/3/6 194/3/6
f 186/3/6 187/3/6 195/3/6
f 195/3/6 187/3/6 196/3/6
f 193/3/6 194/3/6 197/3/6
f 188/3/6 192/3/6 197/3/6
f 194/3/6 195/3/6 197/3/6
f 192/3/6 193/3/6 197/3/6
f 197/3/6 195/3/6 198/3/6
f 188/3/6 197/3/6 199/3/6
f 199/3/6 197/3/6 200/3/6
f 201/3/6 202/3/6 203/3/6
f 203/3/6 202/3/6 204/3/6
f 205/3/6 206/3/6 207/3/6
f 207/3/6 206/3/6 208/3/6
