# MagicaVoxel @ Ephtracy

# group
o 

# material
mtllib vrach-2.mtl
usemtl palette

# normals
vn -1 0 0
vn 1 0 0
vn 0 0 1
vn 0 0 -1
vn 0 -1 0
vn 0 1 0

# texcoords
vt 0.615234 0.5
vt 0.673828 0.5
vt 0.677734 0.5
vt 0.798828 0.5
vt 0.830078 0.5
vt 0.966797 0.5
vt 0.970703 0.5

# verts
v -0.2 -0.3 0.3
v -0.2 -0.3 -0.4
v -0.2 -0.2 0.3
v -0.2 -0.2 0.2
v -0.2 -0.1 0.2
v -0.2 -0.1 0
v -0.2 -0.1 -0.1
v -0.2 -0.1 -0.3
v -0.2 -0.1 -0.4
v -0.2 0.4 0
v -0.2 0.4 -0.1
v -0.2 0.4 -0.3
v -0.2 0.4 -0.4
v -0.1 -0.3 0.4
v -0.1 -0.3 0.3
v -0.1 -0.2 0.4
v -0.1 -0.2 0.3
v -0.1 -0.2 0.2
v -0.1 -0.1 0.3
v -0.1 -0.1 0.2
v 0.2 -0.3 0.4
v 0.2 -0.3 0.3
v 0.2 -0.3 -0.4
v 0.2 -0.2 0.4
v 0.2 -0.2 0.3
v 0.2 -0.2 0.2
v 0.2 -0.1 0.3
v 0.2 -0.1 0.2
v 0.2 -0.1 0
v 0.2 -0.1 -0.1
v 0.2 -0.1 -0.3
v 0.2 -0.1 -0.4
v 0.2 0.4 0
v 0.2 0.4 -0.1
v 0.2 0.4 -0.3
v 0.2 0.4 -0.4
v -0.1 -0.3 0.4
v -0.1 -0.2 0.4
v 0.2 -0.3 0.4
v 0.2 -0.2 0.4
v -0.2 -0.3 0.3
v -0.2 -0.2 0.3
v -0.1 -0.3 0.3
v -0.1 -0.2 0.3
v -0.1 -0.1 0.3
v 0 -0.2 0.3
v 0 -0.1 0.3
v 0.1 -0.2 0.3
v 0.1 -0.1 0.3
v 0.2 -0.2 0.3
v 0.2 -0.1 0.3
v -0.2 -0.2 0.2
v -0.2 -0.1 0.2
v -0.1 -0.2 0.2
v -0.1 -0.1 0.2
v -0.2 -0.1 0
v -0.2 0.4 0
v -0.1 -0.1 0
v -0.1 0.1 0
v -0.1 0.2 0
v -0.1 0.4 0
v 0 0 0
v 0 0.1 0
v 0 0.2 0
v 0.1 -0.1 0
v 0.1 0 0
v 0.1 0.1 0
v 0.1 0.4 0
v 0.2 -0.1 0
v 0.2 0.4 0
v -0.2 -0.3 -0.4
v -0.2 -0.1 -0.4
v -0.2 0.4 -0.4
v -0.1 -0.1 -0.4
v -0.1 0.4 -0.4
v 0.1 -0.1 -0.4
v 0.1 0.4 -0.4
v 0.2 -0.3 -0.4
v 0.2 -0.1 -0.4
v 0.2 0.4 -0.4
v -0.1 -0.3 0.4
v 0.2 -0.3 0.4
v -0.2 -0.3 0.3
v -0.1 -0.3 0.3
v 0.2 -0.3 0.3
v -0.2 -0.3 -0.4
v 0.2 -0.3 -0.4
v -0.1 -0.2 0.4
v 0.2 -0.2 0.4
v -0.2 -0.2 0.3
v -0.1 -0.2 0.3
v 0 -0.2 0.3
v 0.1 -0.2 0.3
v 0.2 -0.2 0.3
v -0.2 -0.2 0.2
v -0.1 -0.2 0.2
v -0.1 -0.1 0.3
v 0 -0.1 0.3
v 0.1 -0.1 0.3
v 0.2 -0.1 0.3
v -0.2 -0.1 0.2
v -0.1 -0.1 0.2
v 0 -0.1 0.2
v 0.1 -0.1 0.2
v 0.2 -0.1 0.2
v -0.2 -0.1 0
v -0.1 -0.1 0
v 0.1 -0.1 0
v 0.2 -0.1 0
v -0.2 0.4 0
v -0.1 0.4 0
v 0.1 0.4 0
v 0.2 0.4 0
v -0.2 0.4 -0.1
v -0.1 0.4 -0.1
v 0 0.4 -0.1
v 0.1 0.4 -0.1
v 0.2 0.4 -0.1
v -0.2 0.4 -0.3
v -0.1 0.4 -0.3
v 0 0.4 -0.3
v 0.1 0.4 -0.3
v 0.2 0.4 -0.3
v -0.2 0.4 -0.4
v -0.1 0.4 -0.4
v 0.1 0.4 -0.4
v 0.2 0.4 -0.4

# faces
f 3/6/1 2/6/1 1/6/1
f 4/6/1 2/6/1 3/6/1
f 5/6/1 2/6/1 4/6/1
f 6/6/1 2/6/1 5/6/1
f 7/6/1 2/6/1 6/6/1
f 8/6/1 2/6/1 7/6/1
f 9/6/1 2/6/1 8/6/1
f 10/5/1 7/5/1 6/5/1
f 11/4/1 8/4/1 7/4/1
f 11/5/1 7/5/1 10/5/1
f 12/5/1 9/5/1 8/5/1
f 12/4/1 8/4/1 11/4/1
f 13/5/1 9/5/1 12/5/1
f 16/1/1 15/1/1 14/1/1
f 17/1/1 15/1/1 16/1/1
f 19/3/1 18/3/1 17/3/1
f 20/3/1 18/3/1 19/3/1
f 21/1/2 22/1/2 24/1/2
f 22/6/2 23/6/2 25/6/2
f 24/1/2 22/1/2 25/1/2
f 25/6/2 23/6/2 26/6/2
f 25/3/2 26/3/2 27/3/2
f 26/6/2 23/6/2 28/6/2
f 27/3/2 26/3/2 28/3/2
f 28/6/2 23/6/2 29/6/2
f 29/6/2 23/6/2 30/6/2
f 30/6/2 23/6/2 31/6/2
f 31/6/2 23/6/2 32/6/2
f 29/5/2 30/5/2 33/5/2
f 30/4/2 31/4/2 34/4/2
f 33/5/2 30/5/2 34/5/2
f 31/5/2 32/5/2 35/5/2
f 34/4/2 31/4/2 35/4/2
f 35/5/2 32/5/2 36/5/2
f 39/1/3 38/1/3 37/1/3
f 40/1/3 38/1/3 39/1/3
f 43/6/3 42/6/3 41/6/3
f 44/6/3 42/6/3 43/6/3
f 46/3/3 45/3/3 44/3/3
f 47/3/3 45/3/3 46/3/3
f 48/6/3 47/6/3 46/6/3
f 49/6/3 47/6/3 48/6/3
f 50/3/3 49/3/3 48/3/3
f 51/3/3 49/3/3 50/3/3
f 54/6/3 53/6/3 52/6/3
f 55/6/3 53/6/3 54/6/3
f 58/5/3 57/5/3 56/5/3
f 59/5/3 57/5/3 58/5/3
f 60/5/3 57/5/3 59/5/3
f 61/5/3 57/5/3 60/5/3
f 62/4/3 59/4/3 58/4/3
f 63/2/3 60/2/3 59/2/3
f 63/4/3 59/4/3 62/4/3
f 64/4/3 61/4/3 60/4/3
f 64/2/3 60/2/3 63/2/3
f 65/4/3 62/4/3 58/4/3
f 66/2/3 63/2/3 62/2/3
f 66/4/3 62/4/3 65/4/3
f 67/4/3 64/4/3 63/4/3
f 67/2/3 63/2/3 66/2/3
f 68/4/3 61/4/3 64/4/3
f 68/4/3 64/4/3 67/4/3
f 69/5/3 67/5/3 66/5/3
f 69/5/3 66/5/3 65/5/3
f 69/5/3 68/5/3 67/5/3
f 70/5/3 68/5/3 69/5/3
f 71/6/4 72/6/4 74/6/4
f 72/5/4 73/5/4 74/5/4
f 74/5/4 73/5/4 75/5/4
f 71/6/4 74/6/4 76/6/4
f 74/4/4 75/4/4 76/4/4
f 76/4/4 75/4/4 77/4/4
f 71/6/4 76/6/4 78/6/4
f 76/5/4 77/5/4 79/5/4
f 78/6/4 76/6/4 79/6/4
f 79/5/4 77/5/4 80/5/4
f 84/1/5 82/1/5 81/1/5
f 85/1/5 82/1/5 84/1/5
f 86/6/5 84/6/5 83/6/5
f 86/6/5 85/6/5 84/6/5
f 87/6/5 85/6/5 86/6/5
f 88/1/6 89/1/6 91/1/6
f 91/1/6 89/1/6 92/1/6
f 92/1/6 89/1/6 93/1/6
f 93/1/6 89/1/6 94/1/6
f 90/6/6 91/6/6 95/6/6
f 95/6/6 91/6/6 96/6/6
f 97/3/6 98/3/6 102/3/6
f 98/6/6 99/6/6 103/6/6
f 102/3/6 98/3/6 103/3/6
f 99/3/6 100/3/6 104/3/6
f 103/6/6 99/6/6 104/6/6
f 104/3/6 100/3/6 105/3/6
f 102/6/6 103/6/6 106/6/6
f 101/6/6 102/6/6 106/6/6
f 104/6/6 105/6/6 106/6/6
f 103/6/6 104/6/6 106/6/6
f 106/6/6 105/6/6 107/6/6
f 107/6/6 105/6/6 108/6/6
f 108/6/6 105/6/6 109/6/6
f 110/5/6 111/5/6 114/5/6
f 111/4/6 112/4/6 115/4/6
f 114/5/6 111/5/6 115/5/6
f 115/4/6 112/4/6 116/4/6
f 112/5/6 113/5/6 117/5/6
f 116/4/6 112/4/6 117/4/6
f 117/5/6 113/5/6 118/5/6
f 115/4/6 116/4/6 119/4/6
f 114/4/6 115/4/6 119/4/6
f 119/4/6 116/4/6 120/4/6
f 116/7/6 117/7/6 121/7/6
f 120/4/6 116/4/6 121/4/6
f 117/4/6 118/4/6 122/4/6
f 121/7/6 117/7/6 122/7/6
f 122/4/6 118/4/6 123/4/6
f 119/5/6 120/5/6 124/5/6
f 120/4/6 121/4/6 125/4/6
f 124/5/6 120/5/6 125/5/6
f 121/4/6 122/4/6 125/4/6
f 122/5/6 123/5/6 126/5/6
f 125/4/6 122/4/6 126/4/6
f 126/5/6 123/5/6 127/5/6
