# MagicaVoxel @ Ephtracy

# group
o 

# material
mtllib vrach-4.mtl
usemtl palette

# normals
vn -1 0 0
vn 1 0 0
vn 0 0 1
vn 0 0 -1
vn 0 -1 0
vn 0 1 0

# texcoords
vt 0.857422 0.5
vt 0.927734 0.5
vt 0.966797 0.5
vt 0.970703 0.5
vt 0.978516 0.5
vt 0.986328 0.5

# verts
v -0.3 0 -0.1
v -0.3 0 -0.2
v -0.3 0.2 -0.1
v -0.3 0.2 -0.2
v -0.3 0.2 -0.3
v -0.3 0.3 0
v -0.3 0.3 -0.2
v -0.3 0.4 0.1
v -0.3 0.4 0
v -0.3 0.4 -0.3
v -0.3 0.4 -0.4
v -0.3 0.6 0.1
v -0.3 0.6 0
v -0.3 0.7 0
v -0.3 0.7 -0.1
v -0.3 0.8 -0.1
v -0.3 0.8 -0.4
v -0.2 -0.3 0
v -0.2 -0.3 -0.4
v -0.2 -0.2 -0.4
v -0.2 -0.2 -0.5
v -0.2 -0.1 0.1
v -0.2 -0.1 0
v -0.2 -0.1 -0.4
v -0.2 -0.1 -0.5
v -0.2 0 0.1
v -0.2 0 0
v -0.2 0 -0.1
v -0.2 0 -0.2
v -0.2 0.1 -0.4
v -0.2 0.1 -0.5
v -0.2 0.2 -0.1
v -0.2 0.2 -0.2
v -0.2 0.2 -0.3
v -0.2 0.2 -0.4
v -0.2 0.2 -0.5
v -0.2 0.3 0.1
v -0.2 0.3 0
v -0.2 0.3 -0.2
v -0.2 0.4 0.1
v -0.2 0.4 0
v -0.2 0.4 -0.3
v -0.2 0.4 -0.4
v -0.2 0.4 -0.5
v -0.2 0.5 -0.4
v -0.2 0.5 -0.5
v -0.2 0.6 -0.4
v -0.2 0.6 -0.5
v -0.2 0.7 0
v -0.2 0.7 -0.1
v -0.2 0.8 0
v -0.2 0.8 -0.1
v -0.1 -0.6 0.3
v -0.1 -0.6 0.2
v -0.1 -0.6 0
v -0.1 -0.6 -0.1
v -0.1 -0.6 -0.3
v -0.1 -0.6 -0.4
v -0.1 -0.5 0.3
v -0.1 -0.5 0.2
v -0.1 -0.4 -0.1
v -0.1 -0.4 -0.3
v -0.1 -0.3 0.1
v -0.1 -0.3 0
v -0.1 -0.3 -0.4
v -0.1 -0.3 -0.5
v -0.1 -0.2 -0.4
v -0.1 -0.2 -0.5
v -0.1 -0.1 0.1
v -0.1 -0.1 0
v -0.1 0.4 -0.4
v -0.1 0.4 -0.5
v -0.1 0.5 -0.4
v -0.1 0.5 -0.5
v -0.1 0.6 0.1
v -0.1 0.6 0
v -0.1 0.7 0.1
v -0.1 0.7 0
v 0 -0.7 0.3
v 0 -0.7 0.2
v 0 -0.7 0
v 0 -0.7 -0.1
v 0 -0.7 -0.2
v 0 -0.7 -0.3
v 0 -0.6 0.5
v 0 -0.6 0.3
v 0 -0.6 0.2
v 0 -0.6 0.1
v 0 -0.6 0
v 0 -0.6 -0.1
v 0 -0.6 -0.2
v 0 -0.6 -0.3
v 0 -0.6 -0.4
v 0 -0.6 -0.5
v 0 -0.5 0.5
v 0 -0.5 0.3
v 0 -0.5 0.2
v 0 -0.5 0.1
v 0 -0.5 0
v 0 -0.5 -0.1
v 0 -0.5 -0.2
v 0 -0.5 -0.3
v 0 -0.5 -0.4
v 0 -0.5 -0.5
v 0 -0.5 -0.6
v 0 -0.4 0.3
v 0 -0.4 0.2
v 0 -0.4 -0.5
v 0 -0.4 -0.6
v 0.1 -0.5 0
v 0.1 -0.5 -0.1
v 0.1 -0.5 -0.2
v 0.1 -0.5 -0.3
v 0.1 -0.4 0
v 0.1 -0.4 -0.1
v 0.1 -0.4 -0.2
v 0.1 -0.4 -0.3
v -0.1 0.6 -0.3
v -0.1 0.6 -0.4
v -0.1 0.7 -0.3
v -0.1 0.7 -0.4
v -0.1 0.8 -0.3
v -0.1 0.8 -0.4
v 0 -0.5 0
v 0 -0.5 -0.1
v 0 -0.4 0
v 0 -0.4 -0.1
v 0 -0.3 -0.4
v 0 -0.3 -0.5
v 0 -0.2 -0.4
v 0 -0.2 -0.5
v 0 0 -0.4
v 0 0 -0.5
v 0 0.1 -0.4
v 0 0.2 -0.4
v 0 0.3 -0.4
v 0 0.4 -0.4
v 0 0.4 -0.5
v 0 0.5 0.1
v 0 0.5 0
v 0 0.5 -0.3
v 0 0.5 -0.4
v 0 0.5 -0.5
v 0 0.6 0.1
v 0 0.6 0
v 0 0.6 -0.3
v 0 0.6 -0.5
v 0 0.7 0.1
v 0 0.7 0
v 0 0.8 0
v 0 0.8 -0.3
v 0.1 -0.7 0.3
v 0.1 -0.7 0.2
v 0.1 -0.6 0.5
v 0.1 -0.6 0.3
v 0.1 -0.6 0.2
v 0.1 -0.6 0.1
v 0.1 -0.6 0
v 0.1 -0.6 -0.1
v 0.1 -0.6 -0.2
v 0.1 -0.6 -0.3
v 0.1 -0.6 -0.4
v 0.1 -0.6 -0.5
v 0.1 -0.5 0.5
v 0.1 -0.5 0.3
v 0.1 -0.5 0.2
v 0.1 -0.5 0.1
v 0.1 -0.5 0
v 0.1 -0.5 -0.1
v 0.1 -0.5 -0.2
v 0.1 -0.5 -0.3
v 0.1 -0.5 -0.4
v 0.1 -0.5 -0.5
v 0.1 -0.5 -0.6
v 0.1 -0.4 0.3
v 0.1 -0.4 0.2
v 0.1 -0.4 -0.5
v 0.1 -0.4 -0.6
v 0.1 -0.3 -0.3
v 0.1 -0.3 -0.4
v 0.1 -0.2 -0.3
v 0.1 -0.2 -0.4
v 0.1 -0.1 -0.3
v 0.1 -0.1 -0.4
v 0.1 0 -0.3
v 0.1 0 -0.4
v 0.1 0.1 0.1
v 0.1 0.1 0
v 0.1 0.1 -0.1
v 0.1 0.1 -0.3
v 0.1 0.1 -0.4
v 0.1 0.2 -0.1
v 0.1 0.2 -0.2
v 0.1 0.2 -0.3
v 0.1 0.2 -0.4
v 0.1 0.3 0
v 0.1 0.3 -0.1
v 0.1 0.3 -0.3
v 0.1 0.3 -0.4
v 0.1 0.4 0
v 0.1 0.4 -0.1
v 0.1 0.4 -0.2
v 0.1 0.4 -0.3
v 0.1 0.5 0.1
v 0.1 0.5 0
v 0.1 0.5 -0.3
v 0.1 0.5 -0.4
v 0.1 0.6 0
v 0.1 0.6 -0.3
v 0.2 -0.7 0
v 0.2 -0.7 -0.1
v 0.2 -0.7 -0.2
v 0.2 -0.7 -0.3
v 0.2 -0.6 0.3
v 0.2 -0.6 0.2
v 0.2 -0.5 0.3
v 0.2 -0.5 0.2
v 0.2 -0.4 -0.1
v 0.2 -0.4 -0.2
v 0.2 -0.3 0.1
v 0.2 -0.3 0
v 0.2 -0.3 -0.2
v 0.2 -0.3 -0.3
v 0.2 -0.2 0.1
v 0.2 -0.2 0
v 0.2 -0.2 -0.2
v 0.2 -0.2 -0.3
v 0.2 -0.2 -0.4
v 0.2 -0.1 0.1
v 0.2 -0.1 0
v 0.2 -0.1 -0.1
v 0.2 -0.1 -0.2
v 0.2 -0.1 -0.3
v 0.2 -0.1 -0.4
v 0.2 0 0.1
v 0.2 0 0
v 0.2 0 -0.1
v 0.2 0 -0.2
v 0.2 0.1 0.1
v 0.2 0.1 0
v 0.2 0.1 -0.1
v 0.2 0.1 -0.2
v 0.2 0.2 -0.1
v 0.2 0.2 -0.2
v 0.2 0.4 -0.2
v 0.2 0.4 -0.3
v 0.3 -0.3 0
v 0.3 -0.3 -0.2
v 0.3 -0.2 -0.2
v 0.3 -0.2 -0.3
v 0.3 -0.1 0
v 0.3 -0.1 -0.1
v 0.3 -0.1 -0.2
v 0.3 -0.1 -0.3
v 0.3 0 -0.1
v 0.3 0 -0.2
v 0 -0.6 0.5
v 0 -0.5 0.5
v 0.1 -0.6 0.5
v 0.1 -0.5 0.5
v -0.1 -0.6 0.3
v -0.1 -0.5 0.3
v 0 -0.7 0.3
v 0 -0.6 0.3
v 0 -0.5 0.3
v 0 -0.4 0.3
v 0.1 -0.7 0.3
v 0.1 -0.6 0.3
v 0.1 -0.5 0.3
v 0.1 -0.4 0.3
v 0.2 -0.6 0.3
v 0.2 -0.5 0.3
v -0.3 0.4 0.1
v -0.3 0.6 0.1
v -0.2 -0.1 0.1
v -0.2 0 0.1
v -0.2 0.3 0.1
v -0.2 0.4 0.1
v -0.2 0.6 0.1
v -0.1 -0.3 0.1
v -0.1 -0.1 0.1
v -0.1 0.6 0.1
v -0.1 0.7 0.1
v 0 -0.2 0.1
v 0 -0.1 0.1
v 0 0 0.1
v 0 0.3 0.1
v 0 0.4 0.1
v 0 0.5 0.1
v 0 0.6 0.1
v 0 0.7 0.1
v 0.1 0 0.1
v 0.1 0.1 0.1
v 0.1 0.5 0.1
v 0.2 -0.3 0.1
v 0.2 -0.2 0.1
v 0.2 -0.1 0.1
v 0.2 0 0.1
v 0.2 0.1 0.1
v -0.3 0.3 0
v -0.3 0.4 0
v -0.3 0.6 0
v -0.3 0.7 0
v -0.2 -0.3 0
v -0.2 -0.1 0
v -0.2 0.3 0
v -0.2 0.4 0
v -0.2 0.6 0
v -0.2 0.7 0
v -0.2 0.8 0
v -0.1 -0.6 0
v -0.1 -0.3 0
v -0.1 -0.1 0
v -0.1 0.6 0
v -0.1 0.7 0
v 0 -0.7 0
v 0 -0.6 0
v 0 -0.5 0
v 0 -0.4 0
v 0 0.5 0
v 0 0.6 0
v 0 0.7 0
v 0 0.8 0
v 0.1 -0.6 0
v 0.1 -0.5 0
v 0.1 -0.4 0
v 0.1 0.5 0
v 0.1 0.6 0
v 0.2 -0.7 0
v 0.2 -0.3 0
v 0.2 -0.2 0
v 0.2 -0.1 0
v 0.3 -0.3 0
v 0.3 -0.1 0
v -0.3 0 -0.1
v -0.3 0.2 -0.1
v -0.3 0.7 -0.1
v -0.3 0.8 -0.1
v -0.2 0 -0.1
v -0.2 0.2 -0.1
v -0.2 0.7 -0.1
v -0.2 0.8 -0.1
v 0.1 0.1 -0.1
v 0.1 0.2 -0.1
v 0.2 -0.1 -0.1
v 0.2 0 -0.1
v 0.2 0.1 -0.1
v 0.2 0.2 -0.1
v 0.3 -0.1 -0.1
v 0.3 0 -0.1
v -0.3 0.2 -0.2
v -0.3 0.3 -0.2
v -0.2 0.2 -0.2
v -0.2 0.3 -0.2
v 0 -0.7 -0.2
v 0 -0.6 -0.2
v 0.1 -0.6 -0.2
v 0.1 -0.5 -0.2
v 0.1 -0.4 -0.2
v 0.1 0.2 -0.2
v 0.1 0.4 -0.2
v 0.2 -0.7 -0.2
v 0.2 -0.4 -0.2
v 0.2 0.2 -0.2
v 0.2 0.4 -0.2
v -0.1 -0.6 -0.3
v -0.1 -0.4 -0.3
v 0 -0.6 -0.3
v 0 -0.5 -0.3
v 0.1 -0.5 -0.3
v 0.1 -0.4 -0.3
v 0 -0.5 -0.5
v 0 -0.4 -0.5
v 0.1 -0.5 -0.5
v 0.1 -0.4 -0.5
v -0.1 -0.6 0.2
v -0.1 -0.5 0.2
v 0 -0.7 0.2
v 0 -0.6 0.2
v 0 -0.5 0.2
v 0 -0.4 0.2
v 0.1 -0.7 0.2
v 0.1 -0.6 0.2
v 0.1 -0.5 0.2
v 0.1 -0.4 0.2
v 0.2 -0.6 0.2
v 0.2 -0.5 0.2
v -0.1 -0.6 -0.1
v -0.1 -0.4 -0.1
v 0 -0.7 -0.1
v 0 -0.6 -0.1
v 0 -0.5 -0.1
v 0 -0.4 -0.1
v 0.1 -0.6 -0.1
v 0.1 -0.5 -0.1
v 0.1 -0.4 -0.1
v 0.2 -0.7 -0.1
v 0.2 -0.4 -0.1
v -0.3 0 -0.2
v -0.3 0.2 -0.2
v -0.2 0 -0.2
v -0.2 0.2 -0.2
v 0.2 -0.3 -0.2
v 0.2 -0.2 -0.2
v 0.2 -0.1 -0.2
v 0.2 0 -0.2
v 0.3 -0.3 -0.2
v 0.3 -0.2 -0.2
v 0.3 -0.1 -0.2
v 0.3 0 -0.2
v -0.3 0.2 -0.3
v -0.3 0.4 -0.3
v -0.2 0.2 -0.3
v -0.2 0.4 -0.3
v -0.1 0.6 -0.3
v -0.1 0.7 -0.3
v -0.1 0.8 -0.3
v 0 -0.7 -0.3
v 0 -0.6 -0.3
v 0 0.5 -0.3
v 0 0.6 -0.3
v 0 0.8 -0.3
v 0.1 -0.6 -0.3
v 0.1 -0.5 -0.3
v 0.1 -0.3 -0.3
v 0.1 -0.2 -0.3
v 0.1 -0.1 -0.3
v 0.1 0 -0.3
v 0.1 0.1 -0.3
v 0.1 0.2 -0.3
v 0.1 0.3 -0.3
v 0.1 0.4 -0.3
v 0.1 0.5 -0.3
v 0.1 0.6 -0.3
v 0.2 -0.7 -0.3
v 0.2 -0.3 -0.3
v 0.2 -0.2 -0.3
v 0.2 -0.1 -0.3
v 0.2 0.4 -0.3
v 0.3 -0.2 -0.3
v 0.3 -0.1 -0.3
v -0.3 0.4 -0.4
v -0.3 0.8 -0.4
v -0.2 -0.3 -0.4
v -0.2 -0.2 -0.4
v -0.2 0.4 -0.4
v -0.2 0.5 -0.4
v -0.2 0.6 -0.4
v -0.2 0.7 -0.4
v -0.2 0.8 -0.4
v -0.1 -0.6 -0.4
v -0.1 -0.3 -0.4
v -0.1 -0.2 -0.4
v -0.1 0.4 -0.4
v -0.1 0.5 -0.4
v -0.1 0.6 -0.4
v -0.1 0.7 -0.4
v -0.1 0.8 -0.4
v 0 -0.6 -0.4
v 0 -0.5 -0.4
v 0 -0.3 -0.4
v 0 -0.2 -0.4
v 0 0 -0.4
v 0 0.1 -0.4
v 0 0.2 -0.4
v 0 0.3 -0.4
v 0 0.4 -0.4
v 0 0.5 -0.4
v 0.1 -0.5 -0.4
v 0.1 -0.3 -0.4
v 0.1 -0.2 -0.4
v 0.1 -0.1 -0.4
v 0.1 0 -0.4
v 0.1 0.1 -0.4
v 0.1 0.2 -0.4
v 0.1 0.3 -0.4
v 0.1 0.5 -0.4
v 0.2 -0.2 -0.4
v 0.2 -0.1 -0.4
v -0.2 -0.2 -0.5
v -0.2 -0.1 -0.5
v -0.2 0.1 -0.5
v -0.2 0.2 -0.5
v -0.2 0.4 -0.5
v -0.2 0.5 -0.5
v -0.2 0.6 -0.5
v -0.1 -0.3 -0.5
v -0.1 -0.2 -0.5
v -0.1 -0.1 -0.5
v -0.1 0 -0.5
v -0.1 0.1 -0.5
v -0.1 0.2 -0.5
v -0.1 0.4 -0.5
v -0.1 0.5 -0.5
v 0 -0.6 -0.5
v 0 -0.5 -0.5
v 0 -0.3 -0.5
v 0 -0.2 -0.5
v 0 0 -0.5
v 0 0.4 -0.5
v 0 0.5 -0.5
v 0 0.6 -0.5
v 0.1 -0.6 -0.5
v 0.1 -0.5 -0.5
v 0 -0.5 -0.6
v 0 -0.4 -0.6
v 0.1 -0.5 -0.6
v 0.1 -0.4 -0.6
v 0 -0.7 0.3
v 0.1 -0.7 0.3
v 0 -0.7 0.2
v 0.1 -0.7 0.2
v 0 -0.7 0
v 0.2 -0.7 0
v 0 -0.7 -0.1
v 0.2 -0.7 -0.1
v 0 -0.7 -0.2
v 0.2 -0.7 -0.2
v 0 -0.7 -0.3
v 0.2 -0.7 -0.3
v 0 -0.6 0.5
v 0.1 -0.6 0.5
v -0.1 -0.6 0.3
v 0 -0.6 0.3
v 0.1 -0.6 0.3
v 0.2 -0.6 0.3
v -0.1 -0.6 0.2
v 0 -0.6 0.2
v 0.1 -0.6 0.2
v 0.2 -0.6 0.2
v 0 -0.6 0.1
v 0.1 -0.6 0.1
v -0.1 -0.6 0
v 0 -0.6 0
v 0.1 -0.6 0
v -0.1 -0.6 -0.1
v 0 -0.6 -0.1
v 0.1 -0.6 -0.1
v 0 -0.6 -0.2
v 0.1 -0.6 -0.2
v -0.1 -0.6 -0.3
v 0 -0.6 -0.3
v 0.1 -0.6 -0.3
v -0.1 -0.6 -0.4
v 0 -0.6 -0.4
v 0.1 -0.6 -0.4
v 0 -0.6 -0.5
v 0.1 -0.6 -0.5
v 0 -0.5 -0.5
v 0.1 -0.5 -0.5
v 0 -0.5 -0.6
v 0.1 -0.5 -0.6
v 0 -0.4 0
v 0.1 -0.4 0
v -0.1 -0.4 -0.1
v 0 -0.4 -0.1
v 0.1 -0.4 -0.1
v 0.2 -0.4 -0.1
v 0.1 -0.4 -0.2
v 0.2 -0.4 -0.2
v -0.1 -0.4 -0.3
v 0.1 -0.4 -0.3
v -0.1 -0.3 0.1
v 0.2 -0.3 0.1
v -0.2 -0.3 0
v -0.1 -0.3 0
v 0.2 -0.3 0
v 0.3 -0.3 0
v 0.2 -0.3 -0.2
v 0.3 -0.3 -0.2
v -0.2 -0.3 -0.4
v -0.1 -0.3 -0.4
v 0 -0.3 -0.4
v -0.1 -0.3 -0.5
v 0 -0.3 -0.5
v 0.2 -0.2 -0.2
v 0.3 -0.2 -0.2
v 0.1 -0.2 -0.3
v 0.2 -0.2 -0.3
v 0.3 -0.2 -0.3
v -0.2 -0.2 -0.4
v -0.1 -0.2 -0.4
v 0.1 -0.2 -0.4
v 0.2 -0.2 -0.4
v -0.2 -0.2 -0.5
v -0.1 -0.2 -0.5
v -0.2 -0.1 0.1
v -0.1 -0.1 0.1
v -0.2 -0.1 0
v -0.1 -0.1 0
v -0.3 0 -0.1
v -0.2 0 -0.1
v -0.3 0 -0.2
v -0.2 0 -0.2
v -0.3 0.2 -0.2
v -0.2 0.2 -0.2
v -0.3 0.2 -0.3
v -0.2 0.2 -0.3
v -0.3 0.3 0
v -0.2 0.3 0
v -0.3 0.3 -0.2
v -0.2 0.3 -0.2
v -0.3 0.4 0.1
v -0.2 0.4 0.1
v -0.3 0.4 0
v -0.2 0.4 0
v -0.3 0.4 -0.3
v -0.2 0.4 -0.3
v -0.3 0.4 -0.4
v -0.2 0.4 -0.4
v -0.2 0.5 -0.4
v -0.1 0.5 -0.4
v -0.2 0.5 -0.5
v -0.1 0.5 -0.5
v 0 -0.5 0.5
v 0.1 -0.5 0.5
v -0.1 -0.5 0.3
v 0 -0.5 0.3
v 0.1 -0.5 0.3
v 0.2 -0.5 0.3
v -0.1 -0.5 0.2
v 0 -0.5 0.2
v 0.1 -0.5 0.2
v 0.2 -0.5 0.2
v 0 -0.5 0.1
v 0.1 -0.5 0.1
v 0 -0.5 0
v 0.1 -0.5 0
v 0 -0.5 -0.1
v 0.1 -0.5 -0.1
v 0 -0.5 -0.2
v 0.1 -0.5 -0.2
v 0 -0.5 -0.3
v 0.1 -0.5 -0.3
v 0 -0.5 -0.4
v 0.1 -0.5 -0.4
v 0 -0.5 -0.5
v 0.1 -0.5 -0.5
v 0 -0.4 0.3
v 0.1 -0.4 0.3
v 0 -0.4 0.2
v 0.1 -0.4 0.2
v 0 -0.4 -0.5
v 0.1 -0.4 -0.5
v 0 -0.4 -0.6
v 0.1 -0.4 -0.6
v 0.2 -0.1 0
v 0.3 -0.1 0
v 0.2 -0.1 -0.1
v 0.3 -0.1 -0.1
v 0.2 -0.1 -0.2
v 0.3 -0.1 -0.2
v 0.1 -0.1 -0.3
v 0.2 -0.1 -0.3
v 0.3 -0.1 -0.3
v 0.1 -0.1 -0.4
v 0.2 -0.1 -0.4
v 0.2 0 -0.1
v 0.3 0 -0.1
v 0.2 0 -0.2
v 0.3 0 -0.2
v 0.1 0.1 0.1
v 0.2 0.1 0.1
v 0.1 0.1 0
v 0.2 0.1 0
v 0.1 0.1 -0.1
v 0.2 0.1 -0.1
v -0.3 0.2 -0.1
v -0.2 0.2 -0.1
v 0.1 0.2 -0.1
v 0.2 0.2 -0.1
v -0.3 0.2 -0.2
v -0.2 0.2 -0.2
v 0.1 0.2 -0.2
v 0.2 0.2 -0.2
v 0.1 0.4 -0.2
v 0.2 0.4 -0.2
v 0.1 0.4 -0.3
v 0.2 0.4 -0.3
v -0.2 0.4 -0.4
v -0.1 0.4 -0.4
v -0.2 0.4 -0.5
v -0.1 0.4 -0.5
v 0 0.5 0.1
v 0.1 0.5 0.1
v 0 0.5 0
v 0.1 0.5 0
v 0 0.5 -0.3
v 0.1 0.5 -0.3
v 0 0.5 -0.4
v 0.1 0.5 -0.4
v -0.3 0.6 0.1
v -0.2 0.6 0.1
v -0.1 0.6 0.1
v -0.3 0.6 0
v -0.2 0.6 0
v -0.1 0.6 0
v 0 0.6 0
v 0.1 0.6 0
v -0.1 0.6 -0.3
v 0 0.6 -0.3
v 0.1 0.6 -0.3
v -0.2 0.6 -0.4
v -0.1 0.6 -0.4
v -0.2 0.6 -0.5
v 0 0.6 -0.5
v -0.1 0.7 0.1
v 0 0.7 0.1
v -0.3 0.7 0
v -0.2 0.7 0
v -0.1 0.7 0
v 0 0.7 0
v -0.3 0.7 -0.1
v -0.2 0.7 -0.1
v -0.2 0.8 0
v 0 0.8 0
v -0.3 0.8 -0.1
v -0.2 0.8 -0.1
v -0.2 0.8 -0.3
v -0.1 0.8 -0.3
v 0 0.8 -0.3
v -0.3 0.8 -0.4
v -0.2 0.8 -0.4
v -0.1 0.8 -0.4

# faces
f 3/5/1 2/5/1 1/5/1
f 4/5/1 2/5/1 3/5/1
f 7/5/1 5/5/1 4/5/1
f 9/5/1 7/5/1 6/5/1
f 10/5/1 5/5/1 7/5/1
f 10/5/1 7/5/1 9/5/1
f 12/5/1 9/5/1 8/5/1
f 12/5/1 11/5/1 10/5/1
f 12/5/1 10/5/1 9/5/1
f 13/5/1 11/5/1 12/5/1
f 14/5/1 11/5/1 13/5/1
f 15/5/1 11/5/1 14/5/1
f 16/5/1 11/5/1 15/5/1
f 17/5/1 11/5/1 16/5/1
f 20/5/1 19/5/1 18/5/1
f 23/5/1 20/5/1 18/5/1
f 24/2/1 21/2/1 20/2/1
f 24/5/1 20/5/1 23/5/1
f 25/2/1 21/2/1 24/2/1
f 26/5/1 23/5/1 22/5/1
f 26/5/1 24/5/1 23/5/1
f 26/5/1 25/5/1 24/5/1
f 27/5/1 25/5/1 26/5/1
f 28/5/1 25/5/1 27/5/1
f 29/5/1 25/5/1 28/5/1
f 30/5/1 25/5/1 29/5/1
f 31/5/1 25/5/1 30/5/1
f 32/5/1 28/5/1 27/5/1
f 33/5/1 30/5/1 29/5/1
f 34/5/1 30/5/1 33/5/1
f 35/2/1 31/2/1 30/2/1
f 35/5/1 30/5/1 34/5/1
f 36/2/1 31/2/1 35/2/1
f 37/2/1 27/2/1 26/2/1
f 38/5/1 32/5/1 27/5/1
f 38/2/1 27/2/1 37/2/1
f 38/5/1 33/5/1 32/5/1
f 39/5/1 33/5/1 38/5/1
f 40/5/1 38/5/1 37/5/1
f 41/5/1 38/5/1 40/5/1
f 42/5/1 36/5/1 35/5/1
f 42/5/1 35/5/1 34/5/1
f 43/5/1 36/5/1 42/5/1
f 44/5/1 36/5/1 43/5/1
f 47/5/1 46/5/1 45/5/1
f 48/5/1 46/5/1 47/5/1
f 51/5/1 50/5/1 49/5/1
f 52/5/1 50/5/1 51/5/1
f 59/6/1 54/6/1 53/6/1
f 60/6/1 54/6/1 59/6/1
f 61/4/1 56/4/1 55/4/1
f 62/4/1 58/4/1 57/4/1
f 64/4/1 61/4/1 55/4/1
f 64/4/1 62/4/1 61/4/1
f 65/4/1 58/4/1 62/4/1
f 65/4/1 62/4/1 64/4/1
f 67/5/1 66/5/1 65/5/1
f 68/5/1 66/5/1 67/5/1
f 69/5/1 64/5/1 63/5/1
f 70/5/1 64/5/1 69/5/1
f 73/2/1 72/2/1 71/2/1
f 74/2/1 72/2/1 73/2/1
f 77/5/1 76/5/1 75/5/1
f 78/5/1 76/5/1 77/5/1
f 86/6/1 80/6/1 79/6/1
f 87/6/1 80/6/1 86/6/1
f 89/4/1 82/4/1 81/4/1
f 90/4/1 82/4/1 89/4/1
f 91/4/1 84/4/1 83/4/1
f 92/4/1 84/4/1 91/4/1
f 95/6/1 86/6/1 85/6/1
f 96/6/1 86/6/1 95/6/1
f 97/6/1 88/6/1 87/6/1
f 98/1/1 89/1/1 88/1/1
f 98/6/1 88/6/1 97/6/1
f 99/1/1 89/1/1 98/1/1
f 100/5/1 91/5/1 90/5/1
f 101/6/1 92/6/1 91/6/1
f 101/5/1 91/5/1 100/5/1
f 102/6/1 92/6/1 101/6/1
f 103/3/1 94/3/1 93/3/1
f 104/3/1 94/3/1 103/3/1
f 106/6/1 97/6/1 96/6/1
f 107/6/1 97/6/1 106/6/1
f 108/3/1 105/3/1 104/3/1
f 109/3/1 105/3/1 108/3/1
f 114/4/1 111/4/1 110/4/1
f 115/4/1 111/4/1 114/4/1
f 116/4/1 113/4/1 112/4/1
f 117/4/1 113/4/1 116/4/1
f 118/5/2 119/5/2 120/5/2
f 120/5/2 119/5/2 121/5/2
f 120/2/2 121/2/2 122/2/2
f 122/2/2 121/2/2 123/2/2
f 124/4/2 125/4/2 126/4/2
f 126/4/2 125/4/2 127/4/2
f 128/5/2 129/5/2 130/5/2
f 130/5/2 129/5/2 131/5/2
f 130/2/2 131/2/2 132/2/2
f 132/2/2 131/2/2 133/2/2
f 132/5/2 133/5/2 134/5/2
f 134/5/2 133/5/2 135/5/2
f 135/5/2 133/5/2 136/5/2
f 136/5/2 133/5/2 137/5/2
f 137/5/2 133/5/2 138/5/2
f 137/2/2 138/2/2 142/2/2
f 142/2/2 138/2/2 143/2/2
f 139/2/2 140/2/2 144/2/2
f 144/2/2 140/2/2 145/2/2
f 141/5/2 142/5/2 146/5/2
f 142/5/2 143/5/2 146/5/2
f 146/5/2 143/5/2 147/5/2
f 144/5/2 145/5/2 148/5/2
f 145/5/2 146/5/2 148/5/2
f 148/5/2 146/5/2 149/5/2
f 149/5/2 146/5/2 150/5/2
f 150/5/2 146/5/2 151/5/2
f 152/6/2 153/6/2 155/6/2
f 155/6/2 153/6/2 156/6/2
f 154/6/2 155/6/2 164/6/2
f 164/6/2 155/6/2 165/6/2
f 156/6/2 157/6/2 166/6/2
f 157/1/2 158/1/2 167/1/2
f 166/6/2 157/6/2 167/6/2
f 167/1/2 158/1/2 168/1/2
f 159/5/2 160/5/2 169/5/2
f 169/5/2 160/5/2 170/5/2
f 161/6/2 162/6/2 171/6/2
f 162/3/2 163/3/2 172/3/2
f 171/6/2 162/6/2 172/6/2
f 172/3/2 163/3/2 173/3/2
f 165/6/2 166/6/2 175/6/2
f 175/6/2 166/6/2 176/6/2
f 173/3/2 174/3/2 177/3/2
f 177/3/2 174/3/2 178/3/2
f 171/4/2 172/4/2 179/4/2
f 179/4/2 172/4/2 180/4/2
f 179/5/2 180/5/2 181/5/2
f 181/5/2 180/5/2 182/5/2
f 183/5/2 184/5/2 185/5/2
f 185/5/2 184/5/2 186/5/2
f 185/2/2 186/2/2 190/2/2
f 190/2/2 186/2/2 191/2/2
f 188/5/2 189/5/2 192/5/2
f 187/5/2 188/5/2 192/5/2
f 190/5/2 191/5/2 194/5/2
f 194/5/2 191/5/2 195/5/2
f 192/5/2 193/5/2 196/5/2
f 187/5/2 192/5/2 196/5/2
f 196/5/2 193/5/2 197/5/2
f 194/2/2 195/2/2 198/2/2
f 198/2/2 195/2/2 199/2/2
f 187/5/2 196/5/2 200/5/2
f 196/2/2 197/2/2 200/2/2
f 197/5/2 193/5/2 201/5/2
f 200/2/2 197/2/2 201/2/2
f 201/5/2 193/5/2 202/5/2
f 198/5/2 199/5/2 203/5/2
f 187/5/2 200/5/2 204/5/2
f 202/5/2 203/5/2 204/5/2
f 201/5/2 202/5/2 204/5/2
f 200/5/2 201/5/2 204/5/2
f 204/5/2 203/5/2 205/5/2
f 203/5/2 199/5/2 206/5/2
f 205/5/2 203/5/2 206/5/2
f 206/5/2 199/5/2 207/5/2
f 205/5/2 206/5/2 208/5/2
f 208/5/2 206/5/2 209/5/2
f 214/6/2 215/6/2 216/6/2
f 216/6/2 215/6/2 217/6/2
f 210/4/2 211/4/2 218/4/2
f 212/4/2 213/4/2 219/4/2
f 210/4/2 218/4/2 221/4/2
f 218/4/2 219/4/2 221/4/2
f 219/4/2 213/4/2 222/4/2
f 221/4/2 219/4/2 222/4/2
f 222/4/2 213/4/2 223/4/2
f 220/5/2 221/5/2 224/5/2
f 224/5/2 221/5/2 225/5/2
f 222/5/2 223/5/2 226/5/2
f 226/5/2 223/5/2 227/5/2
f 224/2/2 225/2/2 229/2/2
f 229/2/2 225/2/2 230/2/2
f 227/5/2 228/5/2 233/5/2
f 233/5/2 228/5/2 234/5/2
f 230/5/2 231/5/2 235/5/2
f 229/5/2 230/5/2 235/5/2
f 235/5/2 231/5/2 236/5/2
f 236/5/2 231/5/2 237/5/2
f 232/5/2 233/5/2 238/5/2
f 235/2/2 236/2/2 239/2/2
f 236/5/2 237/5/2 240/5/2
f 239/2/2 236/2/2 240/2/2
f 237/5/2 238/5/2 240/5/2
f 240/5/2 238/5/2 241/5/2
f 238/5/2 233/5/2 242/5/2
f 241/5/2 238/5/2 242/5/2
f 241/2/2 242/2/2 243/2/2
f 242/5/2 233/5/2 244/5/2
f 243/2/2 242/2/2 244/2/2
f 244/5/2 233/5/2 245/5/2
f 245/5/2 233/5/2 246/5/2
f 247/5/2 248/5/2 249/5/2
f 247/5/2 249/5/2 251/5/2
f 249/5/2 250/5/2 251/5/2
f 251/5/2 250/5/2 252/5/2
f 252/5/2 250/5/2 253/5/2
f 253/5/2 250/5/2 254/5/2
f 252/5/2 253/5/2 255/5/2
f 255/5/2 253/5/2 256/5/2
f 259/6/3 258/6/3 257/6/3
f 260/6/3 258/6/3 259/6/3
f 264/6/3 262/6/3 261/6/3
f 265/6/3 262/6/3 264/6/3
f 267/6/3 264/6/3 263/6/3
f 268/6/3 264/6/3 267/6/3
f 269/6/3 266/6/3 265/6/3
f 270/6/3 266/6/3 269/6/3
f 271/6/3 269/6/3 268/6/3
f 272/6/3 269/6/3 271/6/3
f 278/5/3 274/5/3 273/5/3
f 279/5/3 274/5/3 278/5/3
f 281/5/3 276/5/3 275/5/3
f 282/2/3 279/2/3 278/2/3
f 284/5/3 281/5/3 280/5/3
f 285/5/3 276/5/3 281/5/3
f 285/5/3 281/5/3 284/5/3
f 286/2/3 277/2/3 276/2/3
f 286/5/3 276/5/3 285/5/3
f 287/5/3 278/5/3 277/5/3
f 287/2/3 277/2/3 286/2/3
f 288/2/3 282/2/3 278/2/3
f 288/5/3 278/5/3 287/5/3
f 289/2/3 282/2/3 288/2/3
f 290/5/3 283/5/3 282/5/3
f 290/2/3 282/2/3 289/2/3
f 291/5/3 283/5/3 290/5/3
f 292/5/3 287/5/3 286/5/3
f 292/5/3 286/5/3 285/5/3
f 292/5/3 288/5/3 287/5/3
f 292/5/3 289/5/3 288/5/3
f 293/5/3 289/5/3 292/5/3
f 294/5/3 289/5/3 293/5/3
f 295/5/3 284/5/3 280/5/3
f 296/2/3 285/2/3 284/2/3
f 296/5/3 284/5/3 295/5/3
f 297/5/3 292/5/3 285/5/3
f 297/2/3 285/2/3 296/2/3
f 298/2/3 293/2/3 292/2/3
f 298/5/3 292/5/3 297/5/3
f 299/2/3 293/2/3 298/2/3
f 306/5/3 301/5/3 300/5/3
f 307/5/3 301/5/3 306/5/3
f 308/5/3 303/5/3 302/5/3
f 309/5/3 303/5/3 308/5/3
f 312/5/3 305/5/3 304/5/3
f 313/5/3 305/5/3 312/5/3
f 314/2/3 309/2/3 308/2/3
f 315/5/3 310/5/3 309/5/3
f 315/2/3 309/2/3 314/2/3
f 317/4/3 312/4/3 311/4/3
f 318/4/3 312/4/3 317/4/3
f 319/4/3 312/4/3 318/4/3
f 322/5/3 310/5/3 315/5/3
f 323/5/3 310/5/3 322/5/3
f 324/4/3 317/4/3 316/4/3
f 326/4/3 312/4/3 319/4/3
f 327/5/3 321/5/3 320/5/3
f 328/5/3 321/5/3 327/5/3
f 329/4/3 326/4/3 325/4/3
f 329/4/3 325/4/3 324/4/3
f 329/4/3 324/4/3 316/4/3
f 330/4/3 312/4/3 326/4/3
f 330/4/3 326/4/3 329/4/3
f 333/5/3 332/5/3 331/5/3
f 333/5/3 331/5/3 330/5/3
f 334/5/3 332/5/3 333/5/3
f 339/5/3 336/5/3 335/5/3
f 340/5/3 336/5/3 339/5/3
f 341/5/3 338/5/3 337/5/3
f 342/5/3 338/5/3 341/5/3
f 347/2/3 344/2/3 343/2/3
f 348/2/3 344/2/3 347/2/3
f 349/5/3 346/5/3 345/5/3
f 350/5/3 346/5/3 349/5/3
f 353/5/3 352/5/3 351/5/3
f 354/5/3 352/5/3 353/5/3
f 357/4/3 356/4/3 355/4/3
f 362/4/3 359/4/3 358/4/3
f 362/4/3 357/4/3 355/4/3
f 362/4/3 358/4/3 357/4/3
f 363/4/3 359/4/3 362/4/3
f 364/5/3 361/5/3 360/5/3
f 365/5/3 361/5/3 364/5/3
f 368/4/3 367/4/3 366/4/3
f 369/4/3 367/4/3 368/4/3
f 370/4/3 367/4/3 369/4/3
f 371/4/3 367/4/3 370/4/3
f 374/3/3 373/3/3 372/3/3
f 375/3/3 373/3/3 374/3/3
f 376/6/4 377/6/4 379/6/4
f 379/6/4 377/6/4 380/6/4
f 378/6/4 379/6/4 382/6/4
f 382/6/4 379/6/4 383/6/4
f 380/6/4 381/6/4 384/6/4
f 384/6/4 381/6/4 385/6/4
f 383/6/4 384/6/4 386/6/4
f 386/6/4 384/6/4 387/6/4
f 388/4/4 389/4/4 391/4/4
f 391/4/4 389/4/4 392/4/4
f 392/4/4 389/4/4 393/4/4
f 390/4/4 391/4/4 394/4/4
f 390/4/4 394/4/4 397/4/4
f 395/4/4 396/4/4 397/4/4
f 394/4/4 395/4/4 397/4/4
f 397/4/4 396/4/4 398/4/4
f 399/5/4 400/5/4 401/5/4
f 401/5/4 400/5/4 402/5/4
f 403/5/4 404/5/4 407/5/4
f 407/5/4 404/5/4 408/5/4
f 405/5/4 406/5/4 409/5/4
f 409/5/4 406/5/4 410/5/4
f 411/5/4 412/5/4 413/5/4
f 413/5/4 412/5/4 414/5/4
f 415/5/4 416/5/4 421/5/4
f 416/5/4 417/5/4 421/5/4
f 421/5/4 417/5/4 422/5/4
f 418/4/4 419/4/4 423/4/4
f 420/5/4 421/5/4 433/5/4
f 433/5/4 421/5/4 434/5/4
f 418/4/4 423/4/4 435/4/4
f 423/4/4 424/4/4 435/4/4
f 424/4/4 425/4/4 435/4/4
f 425/5/4 426/5/4 436/5/4
f 435/4/4 425/4/4 436/4/4
f 436/5/4 426/5/4 437/5/4
f 431/5/4 432/5/4 438/5/4
f 430/5/4 431/5/4 438/5/4
f 427/5/4 428/5/4 438/5/4
f 429/5/4 430/5/4 438/5/4
f 428/5/4 429/5/4 438/5/4
f 438/5/4 432/5/4 439/5/4
f 437/5/4 438/5/4 440/5/4
f 440/5/4 438/5/4 441/5/4
f 442/5/4 443/5/4 446/5/4
f 446/5/4 443/5/4 447/5/4
f 447/5/4 443/5/4 448/5/4
f 448/5/4 443/5/4 449/5/4
f 449/5/4 443/5/4 450/5/4
f 444/5/4 445/5/4 452/5/4
f 452/5/4 445/5/4 453/5/4
f 446/5/4 447/5/4 454/5/4
f 454/5/4 447/5/4 455/5/4
f 448/5/4 449/5/4 456/5/4
f 449/2/4 450/2/4 457/2/4
f 456/5/4 449/5/4 457/5/4
f 457/2/4 450/2/4 458/2/4
f 451/4/4 452/4/4 459/4/4
f 459/4/4 452/4/4 460/4/4
f 460/4/4 452/4/4 461/4/4
f 460/4/4 461/4/4 469/4/4
f 461/5/4 462/5/4 470/5/4
f 469/4/4 461/4/4 470/4/4
f 462/5/4 463/5/4 470/5/4
f 470/5/4 463/5/4 471/5/4
f 471/5/4 463/5/4 472/5/4
f 463/2/4 464/2/4 473/2/4
f 472/5/4 463/5/4 473/5/4
f 464/5/4 465/5/4 474/5/4
f 473/2/4 464/2/4 474/2/4
f 465/2/4 466/2/4 475/2/4
f 474/5/4 465/5/4 475/5/4
f 467/5/4 468/5/4 476/5/4
f 475/2/4 466/2/4 476/2/4
f 466/5/4 467/5/4 476/5/4
f 476/5/4 468/5/4 477/5/4
f 471/5/4 472/5/4 478/5/4
f 478/5/4 472/5/4 479/5/4
f 480/2/4 481/2/4 488/2/4
f 481/5/4 482/5/4 489/5/4
f 488/2/4 481/2/4 489/2/4
f 489/5/4 482/5/4 490/5/4
f 482/2/4 483/2/4 491/2/4
f 490/5/4 482/5/4 491/5/4
f 483/5/4 484/5/4 492/5/4
f 491/2/4 483/2/4 492/2/4
f 492/5/4 484/5/4 493/5/4
f 485/5/4 486/5/4 494/5/4
f 487/5/4 488/5/4 497/5/4
f 489/2/4 490/2/4 498/2/4
f 497/5/4 488/5/4 498/5/4
f 488/2/4 489/2/4 498/2/4
f 492/5/4 493/5/4 499/5/4
f 498/2/4 490/2/4 499/2/4
f 490/5/4 491/5/4 499/5/4
f 491/5/4 492/5/4 499/5/4
f 493/2/4 494/2/4 500/2/4
f 499/5/4 493/5/4 500/5/4
f 494/5/4 486/5/4 501/5/4
f 500/2/4 494/2/4 501/2/4
f 501/5/4 486/5/4 502/5/4
f 495/3/4 496/3/4 503/3/4
f 503/3/4 496/3/4 504/3/4
f 505/3/4 506/3/4 507/3/4
f 507/3/4 506/3/4 508/3/4
f 511/6/5 510/6/5 509/6/5
f 512/6/5 510/6/5 511/6/5
f 515/4/5 514/4/5 513/4/5
f 516/4/5 514/4/5 515/4/5
f 519/4/5 518/4/5 517/4/5
f 520/4/5 518/4/5 519/4/5
f 524/6/5 522/6/5 521/6/5
f 525/6/5 522/6/5 524/6/5
f 527/6/5 524/6/5 523/6/5
f 528/6/5 524/6/5 527/6/5
f 529/6/5 526/6/5 525/6/5
f 530/6/5 526/6/5 529/6/5
f 531/6/5 529/6/5 528/6/5
f 532/6/5 529/6/5 531/6/5
f 534/1/5 532/1/5 531/1/5
f 535/1/5 532/1/5 534/1/5
f 536/4/5 534/4/5 533/4/5
f 537/4/5 534/4/5 536/4/5
f 539/5/5 538/5/5 537/5/5
f 540/5/5 538/5/5 539/5/5
f 544/4/5 542/4/5 541/4/5
f 545/6/5 543/6/5 542/6/5
f 545/4/5 542/4/5 544/4/5
f 546/6/5 543/6/5 545/6/5
f 547/3/5 546/3/5 545/3/5
f 548/3/5 546/3/5 547/3/5
f 551/3/5 550/3/5 549/3/5
f 552/3/5 550/3/5 551/3/5
f 556/4/5 554/4/5 553/4/5
f 557/4/5 554/4/5 556/4/5
f 559/4/5 556/4/5 555/4/5
f 559/4/5 558/4/5 557/4/5
f 559/4/5 557/4/5 556/4/5
f 560/4/5 558/4/5 559/4/5
f 561/4/5 559/4/5 555/4/5
f 562/4/5 559/4/5 561/4/5
f 566/5/5 564/5/5 563/5/5
f 567/5/5 564/5/5 566/5/5
f 569/5/5 568/5/5 567/5/5
f 570/5/5 568/5/5 569/5/5
f 571/5/5 566/5/5 565/5/5
f 572/5/5 566/5/5 571/5/5
f 574/5/5 573/5/5 572/5/5
f 575/5/5 573/5/5 574/5/5
f 579/5/5 577/5/5 576/5/5
f 580/5/5 577/5/5 579/5/5
f 583/5/5 579/5/5 578/5/5
f 584/5/5 579/5/5 583/5/5
f 585/2/5 582/2/5 581/2/5
f 586/2/5 582/2/5 585/2/5
f 589/5/5 588/5/5 587/5/5
f 590/5/5 588/5/5 589/5/5
f 593/5/5 592/5/5 591/5/5
f 594/5/5 592/5/5 593/5/5
f 597/5/5 596/5/5 595/5/5
f 598/5/5 596/5/5 597/5/5
f 601/5/5 600/5/5 599/5/5
f 602/5/5 600/5/5 601/5/5
f 605/5/5 604/5/5 603/5/5
f 606/5/5 604/5/5 605/5/5
f 609/5/5 608/5/5 607/5/5
f 610/5/5 608/5/5 609/5/5
f 613/5/5 612/5/5 611/5/5
f 614/5/5 612/5/5 613/5/5
f 615/6/6 616/6/6 618/6/6
f 618/6/6 616/6/6 619/6/6
f 617/6/6 618/6/6 621/6/6
f 621/6/6 618/6/6 622/6/6
f 619/6/6 620/6/6 623/6/6
f 623/6/6 620/6/6 624/6/6
f 622/6/6 623/6/6 625/6/6
f 625/6/6 623/6/6 626/6/6
f 625/1/6 626/1/6 627/1/6
f 627/1/6 626/1/6 628/1/6
f 627/1/6 628/1/6 629/1/6
f 629/1/6 628/1/6 630/1/6
f 629/5/6 630/5/6 631/5/6
f 631/5/6 630/5/6 632/5/6
f 631/6/6 632/6/6 633/6/6
f 633/6/6 632/6/6 634/6/6
f 635/3/6 636/3/6 637/3/6
f 637/3/6 636/3/6 638/3/6
f 639/6/6 640/6/6 641/6/6
f 641/6/6 640/6/6 642/6/6
f 643/3/6 644/3/6 645/3/6
f 645/3/6 644/3/6 646/3/6
f 647/5/6 648/5/6 649/5/6
f 649/5/6 648/5/6 650/5/6
f 651/5/6 652/5/6 654/5/6
f 654/5/6 652/5/6 655/5/6
f 653/5/6 654/5/6 656/5/6
f 656/5/6 654/5/6 657/5/6
f 658/5/6 659/5/6 660/5/6
f 660/5/6 659/5/6 661/5/6
f 662/2/6 663/2/6 664/2/6
f 664/2/6 663/2/6 665/2/6
f 664/5/6 665/5/6 666/5/6
f 666/5/6 665/5/6 667/5/6
f 668/5/6 669/5/6 672/5/6
f 672/5/6 669/5/6 673/5/6
f 670/2/6 671/2/6 674/2/6
f 674/2/6 671/2/6 675/2/6
f 676/5/6 677/5/6 678/5/6
f 678/5/6 677/5/6 679/5/6
f 680/5/6 681/5/6 682/5/6
f 682/5/6 681/5/6 683/5/6
f 684/5/6 685/5/6 686/5/6
f 686/5/6 685/5/6 687/5/6
f 688/5/6 689/5/6 690/5/6
f 690/5/6 689/5/6 691/5/6
f 692/5/6 693/5/6 695/5/6
f 693/2/6 694/2/6 696/2/6
f 695/5/6 693/5/6 696/5/6
f 696/2/6 694/2/6 697/2/6
f 698/5/6 699/5/6 701/5/6
f 701/5/6 699/5/6 702/5/6
f 700/5/6 701/5/6 704/5/6
f 703/5/6 704/5/6 705/5/6
f 704/5/6 701/5/6 706/5/6
f 705/5/6 704/5/6 706/5/6
f 707/5/6 708/5/6 711/5/6
f 711/5/6 708/5/6 712/5/6
f 709/5/6 710/5/6 713/5/6
f 713/5/6 710/5/6 714/5/6
f 715/5/6 716/5/6 718/5/6
f 718/5/6 716/5/6 719/5/6
f 717/5/6 718/5/6 719/5/6
f 719/5/6 716/5/6 720/5/6
f 720/5/6 716/5/6 721/5/6
f 717/5/6 719/5/6 722/5/6
f 719/2/6 720/2/6 723/2/6
f 722/5/6 719/5/6 723/5/6
f 723/2/6 720/2/6 724/2/6
