# MagicaVoxel @ Ephtracy

# group
o 

# material
mtllib Mechanic-6.mtl
usemtl palette

# normals
vn -1 0 0
vn 1 0 0
vn 0 0 1
vn 0 0 -1
vn 0 -1 0
vn 0 1 0

# texcoords
vt 0.626953 0.5
vt 0.630859 0.5
vt 0.720703 0.5
vt 0.908203 0.5
vt 0.947266 0.5
vt 0.951172 0.5
vt 0.966797 0.5
vt 0.970703 0.5
vt 0.978516 0.5
vt 0.982422 0.5

# verts
v -1 -1.1 0
v -1 -1.1 -0.2
v -1 -1.1 -0.3
v -1 -1.1 -0.5
v -1 -0.9 0
v -1 -0.9 -0.2
v -1 -0.9 -0.3
v -1 -0.9 -0.5
v -0.9 -1 -0.2
v -0.9 -1 -0.3
v -0.9 -0.9 -0.1
v -0.9 -0.9 -0.2
v -0.9 -0.9 -0.3
v -0.9 -0.9 -0.5
v -0.9 -0.8 -0.1
v -0.9 -0.8 -0.2
v -0.9 -0.8 -0.4
v -0.9 -0.8 -0.5
v -0.9 -0.7 -0.2
v -0.9 -0.7 -0.4
v -0.9 -0.7 -0.5
v -0.9 -0.6 -0.2
v -0.9 -0.6 -0.5
v -0.8 -1.1 -0.5
v -0.8 -1.1 -0.7
v -0.8 -1 0.1
v -0.8 -1 0
v -0.8 -0.9 0
v -0.8 -0.9 -0.1
v -0.8 -0.9 -0.6
v -0.8 -0.9 -0.7
v -0.8 -0.8 0.1
v -0.8 -0.8 -0.1
v -0.8 -0.8 -0.2
v -0.8 -0.8 -0.4
v -0.8 -0.8 -0.5
v -0.8 -0.8 -0.6
v -0.8 -0.7 -0.1
v -0.8 -0.7 -0.2
v -0.8 -0.7 -0.4
v -0.8 -0.7 -0.5
v -0.8 -0.6 -0.1
v -0.8 -0.6 -0.2
v -0.8 -0.6 -0.5
v -0.8 0.2 -0.2
v -0.8 0.2 -0.5
v -0.7 0.2 -0.2
v -0.7 0.2 -0.5
v -0.7 0.3 -0.2
v -0.7 0.3 -0.5
v -0.5 -1.6 -0.1
v -0.5 -1.6 -0.6
v -0.5 -1.5 -0.1
v -0.5 -1.5 -0.6
v -0.5 -1.4 -0.1
v -0.5 -1.4 -0.6
v -0.5 -1 -0.1
v -0.5 -1 -0.6
v -0.5 -0.9 -0.1
v -0.5 -0.9 -0.3
v -0.5 -0.9 -0.6
v -0.5 -0.8 -0.1
v -0.5 -0.8 -0.2
v -0.5 -0.8 -0.3
v -0.5 -0.8 -0.4
v -0.5 -0.7 -0.1
v -0.5 -0.7 -0.2
v -0.5 -0.7 -0.4
v -0.5 -0.7 -0.5
v -0.5 -0.7 -0.6
v -0.5 2.38419e-07 0.2
v -0.5 2.38419e-07 0
v -0.5 2.38419e-07 -0.5
v -0.5 2.38419e-07 -0.6
v -0.5 0.3 -0.2
v -0.5 0.3 -0.5
v -0.5 0.4 0
v -0.5 0.4 -0.1
v -0.5 0.4 -0.2
v -0.5 0.4 -0.6
v -0.5 0.5 0.2
v -0.5 0.5 0
v -0.5 0.7 0
v -0.5 0.7 -0.1
v -0.5 0.9 0.2
v -0.5 0.9 0
v -0.5 1 -0.1
v -0.5 1 -0.4
v -0.5 1.1 0.2
v -0.5 1.1 0
v -0.5 1.2 -0.1
v -0.5 1.2 -0.4
v -0.4 -2 0.2
v -0.4 -2 -0.5
v -0.4 -1.8 -0.1
v -0.4 -1.8 -0.2
v -0.4 -1.7 0.2
v -0.4 -1.7 -0.1
v -0.4 -1.6 0
v -0.4 -1.6 -0.1
v -0.4 -1.6 -0.2
v -0.4 -1.6 -0.5
v -0.4 -1.6 -0.6
v -0.4 -1.6 -0.7
v -0.4 -1.5 0
v -0.4 -1.5 -0.1
v -0.4 -1.5 -0.6
v -0.4 -1.5 -0.7
v -0.4 -1.4 0
v -0.4 -1.4 -0.1
v -0.4 -1.4 -0.6
v -0.4 -1.4 -0.7
v -0.4 -1 0
v -0.4 -1 -0.1
v -0.4 -1 -0.6
v -0.4 -1 -0.7
v -0.4 -0.9 0
v -0.4 -0.9 -0.1
v -0.4 -0.9 -0.6
v -0.4 -0.9 -0.7
v -0.4 -0.7 -0.1
v -0.4 -0.7 -0.2
v -0.4 -0.7 -0.5
v -0.4 -0.7 -0.6
v -0.4 -0.6 -0.2
v -0.4 -0.6 -0.5
v -0.4 -0.4 0
v -0.4 -0.4 -0.2
v -0.4 -0.4 -0.5
v -0.4 -0.4 -0.7
v -0.4 -0.3 -0.2
v -0.4 -0.3 -0.5
v -0.4 -0.0999999 -0.2
v -0.4 -0.0999999 -0.3
v -0.4 -0.0999999 -0.4
v -0.4 -0.0999999 -0.5
v -0.4 2.38419e-07 -0.1
v -0.4 2.38419e-07 -0.2
v -0.4 2.38419e-07 -0.3
v -0.4 2.38419e-07 -0.4
v -0.4 2.38419e-07 -0.5
v -0.4 0.3 0
v -0.4 0.3 -0.1
v -0.4 0.3 -0.2
v -0.4 0.4 0
v -0.4 0.4 -0.1
v -0.4 0.4 -0.2
v -0.4 0.4 -0.6
v -0.4 0.5 0.2
v -0.4 0.5 0
v -0.4 0.5 -0.1
v -0.4 0.5 -0.4
v -0.4 0.5 -0.6
v -0.4 0.6 -0.4
v -0.4 0.6 -0.5
v -0.4 0.7 0
v -0.4 0.7 -0.1
v -0.4 0.9 0.2
v -0.4 0.9 0
v -0.4 0.9 -0.2
v -0.4 0.9 -0.5
v -0.4 1 -0.1
v -0.4 1 -0.2
v -0.4 1 -0.4
v -0.4 1 -0.5
v -0.4 1.1 0.1
v -0.4 1.1 0
v -0.4 1.2 0.1
v -0.4 1.2 -0.1
v -0.4 1.2 -0.4
v -0.4 1.2 -0.5
v -0.3 -0.8 -0.7
v -0.3 -0.8 -0.8
v -0.3 -0.6 -0.7
v -0.3 -0.6 -0.8
v -0.3 -0.4 -0.1
v -0.3 -0.4 -0.2
v -0.3 -0.4 -0.5
v -0.3 -0.4 -0.6
v -0.3 -0.3 -0.2
v -0.3 -0.3 -0.5
v -0.3 -0.0999999 -0.2
v -0.3 -0.0999999 -0.3
v -0.3 -0.0999999 -0.4
v -0.3 -0.0999999 -0.5
v -0.3 -0.0999999 -0.6
v -0.3 -0.0999999 -0.7
v -0.3 2.38419e-07 -0.1
v -0.3 2.38419e-07 -0.2
v -0.3 2.38419e-07 -0.3
v -0.3 2.38419e-07 -0.4
v -0.3 2.38419e-07 -0.5
v -0.3 2.38419e-07 -0.6
v -0.3 0.2 0
v -0.3 0.2 -0.1
v -0.3 0.3 0
v -0.3 0.3 -0.1
v -0.3 0.3 -0.6
v -0.3 0.4 0.3
v -0.3 0.4 0.2
v -0.3 0.4 -0.6
v -0.3 0.4 -0.7
v -0.3 0.5 -0.4
v -0.3 0.5 -0.6
v -0.3 0.6 0.3
v -0.3 0.6 0.2
v -0.3 0.6 -0.4
v -0.3 0.6 -0.5
v -0.3 0.8 -0.5
v -0.3 0.8 -0.6
v -0.3 0.9 -0.2
v -0.3 0.9 -0.5
v -0.3 1 -0.2
v -0.3 1 -0.5
v -0.3 1.1 0.2
v -0.3 1.1 0.1
v -0.3 1.2 0.2
v -0.3 1.2 0.1
v -0.2 -0.9 -0.7
v -0.2 -0.9 -0.8
v -0.2 -0.8 0.1
v -0.2 -0.8 0
v -0.2 -0.8 -0.7
v -0.2 -0.8 -0.8
v -0.2 -0.6 -0.7
v -0.2 -0.6 -0.8
v -0.2 -0.5 0.1
v -0.2 -0.5 0
v -0.2 -0.5 -0.7
v -0.2 -0.5 -0.8
v -0.2 -0.4 -0.6
v -0.2 -0.4 -0.7
v -0.2 -0.3 0
v -0.2 -0.3 -0.1
v -0.2 -0.3 -0.6
v -0.2 -0.3 -0.7
v -0.2 -0.2 0
v -0.2 -0.2 -0.1
v -0.2 -0.0999999 0
v -0.2 -0.0999999 -0.1
v -0.2 2.38419e-07 -0.1
v -0.2 0.2 0
v -0.2 0.2 -0.1
v -0.2 0.3 0.3
v -0.2 0.3 0.2
v -0.2 0.3 0
v -0.2 0.4 0.3
v -0.2 0.4 0.2
v -0.2 0.4 0
v -0.2 0.7 0.3
v -0.2 0.7 0.2
v -0.2 0.8 0.3
v -0.2 0.8 0.2
v -0.2 0.8 -0.5
v -0.2 0.8 -0.6
v -0.2 0.9 0.3
v -0.2 0.9 0.2
v -0.2 0.9 -0.5
v -0.2 0.9 -0.6
v -0.2 1 -0.5
v -0.2 1 -0.6
v -0.2 1.1 -0.6
v -0.2 1.1 -0.7
v -0.2 1.2 -0.3
v -0.2 1.2 -0.5
v -0.2 1.2 -0.6
v -0.2 1.2 -0.7
v -0.2 1.3 -0.3
v -0.2 1.3 -0.6
v -0.1 -0.9 0.1
v -0.1 -0.9 0
v -0.1 -0.8 0.2
v -0.1 -0.8 0.1
v -0.1 -0.8 0
v -0.1 -0.5 0.2
v -0.1 -0.5 0.1
v -0.1 -0.5 -0.7
v -0.1 -0.5 -0.8
v -0.1 -0.4 0
v -0.1 -0.4 -0.1
v -0.1 -0.4 -0.7
v -0.1 -0.4 -0.8
v -0.1 -0.3 0
v -0.1 -0.3 -0.1
v -0.1 -0.3 -0.6
v -0.1 -0.3 -0.7
v -0.1 -0.2 -0.6
v -0.1 -0.2 -0.7
v -0.1 0.1 -0.7
v -0.1 0.1 -0.8
v -0.1 0.3 -0.7
v -0.1 0.3 -0.8
v -0.1 0.4 -0.6
v -0.1 0.4 -0.7
v -0.1 0.5 -0.6
v -0.1 0.7 -0.6
v -0.1 0.7 -0.7
v -0.1 0.8 -0.4
v -0.1 0.8 -0.5
v -0.1 0.9 -0.4
v -0.1 0.9 -0.5
v -0.1 0.9 -0.6
v -0.1 0.9 -0.7
v -0.1 1 -0.5
v -0.1 1 -0.6
v -0.1 1.1 -0.6
v -0.1 1.1 -0.7
v -0.1 1.1 -0.8
v -0.1 1.2 -0.2
v -0.1 1.2 -0.3
v -0.1 1.2 -0.6
v -0.1 1.2 -0.7
v -0.1 1.3 -0.2
v -0.1 1.3 -0.3
v -0.1 1.3 -0.4
v -0.1 1.3 -0.6
v -0.1 1.3 -0.8
v -0.1 1.4 -0.4
v -0.1 1.4 -0.6
v 0 -0.4 -0.7
v 0 -0.4 -0.8
v 0 -0.3 -0.7
v 0 -0.3 -0.8
v 0 0.3 -0.7
v 0 0.3 -0.8
v 0 0.4 0.4
v 0 0.4 0.3
v 0 0.5 0.3
v 0 0.6 0.3
v 0 0.6 0.2
v 0 0.6 -0.7
v 0 0.6 -0.8
v 0 0.7 0.4
v 0 0.7 0.3
v 0 0.7 0.2
v 0 0.7 -0.6
v 0 0.7 -0.7
v 0 0.8 -0.6
v 0 0.8 -0.7
v 0 1 -0.7
v 0 1 -0.8
v 0 1.1 -0.7
v 0 1.1 -0.8
v 0 1.3 -0.3
v 0 1.3 -0.4
v 0 1.3 -0.6
v 0 1.3 -0.7
v 0 1.4 -0.3
v 0 1.4 -0.4
v 0 1.4 -0.6
v 0 1.4 -0.7
v 0.1 -1.6 -0.1
v 0.1 -1.6 -0.6
v 0.1 -1.5 -0.1
v 0.1 -1.5 -0.6
v 0.1 -1.4 -0.1
v 0.1 -1.4 -0.6
v 0.1 -1.1 -0.2
v 0.1 -1.1 -0.5
v 0.1 -1 -0.2
v 0.1 -1 -0.5
v 0.1 0.8 0.3
v 0.1 0.8 0.2
v 0.1 0.9 0.3
v 0.1 0.9 0.2
v 0.1 0.9 -0.6
v 0.1 0.9 -0.7
v 0.1 1 -0.6
v 0.1 1 -0.7
v 0.2 -2 0.2
v 0.2 -2 -0.5
v 0.2 -1.8 -0.1
v 0.2 -1.8 -0.2
v 0.2 -1.7 0.2
v 0.2 -1.7 -0.1
v 0.2 -1.6 0
v 0.2 -1.6 -0.1
v 0.2 -1.6 -0.2
v 0.2 -1.6 -0.5
v 0.2 -1.6 -0.6
v 0.2 -1.6 -0.7
v 0.2 -1.5 0
v 0.2 -1.5 -0.1
v 0.2 -1.5 -0.6
v 0.2 -1.5 -0.7
v 0.2 -1.4 0
v 0.2 -1.4 -0.1
v 0.2 -1.4 -0.6
v 0.2 -1.4 -0.7
v 0.2 -1.1 -0.1
v 0.2 -1.1 -0.2
v 0.2 -1.1 -0.5
v 0.2 -1.1 -0.6
v 0.2 -1 -0.1
v 0.2 -1 -0.2
v 0.2 -1 -0.5
v 0.2 -1 -0.6
v 0.2 -0.7 0.1
v 0.2 -0.7 0
v 0.2 -0.5 0.1
v 0.2 -0.5 0
v 0.2 -0.3 0
v 0.2 -0.3 -0.1
v 0.2 -0.2 0
v 0.2 -0.2 -0.1
v 0.2 -0.0999999 0
v 0.2 -0.0999999 -0.1
v 0.2 -0.0999999 -0.6
v 0.2 -0.0999999 -0.7
v 0.2 2.38419e-07 -0.1
v 0.2 0.1 -0.7
v 0.2 0.2 -0.6
v 0.2 0.2 -0.7
v 0.2 0.3 0
v 0.2 0.3 -0.1
v 0.3 0.4 0.3
v 0.3 0.4 0.2
v 0.3 0.5 0.3
v 0.3 0.5 0.2
v 0.3 0.8 -0.4
v 0.3 0.8 -0.5
v 0.3 0.9 -0.4
v 0.3 0.9 -0.5
v 0.4 0.2 0.2
v 0.4 0.2 0
v 0.4 0.4 0.2
v 0.4 0.4 0
v 0.5 2.38419e-07 0.2
v 0.5 2.38419e-07 0
v 0.5 0.2 0.2
v 0.5 0.2 0
v 0.6 -0.7 -0.1
v 0.6 -0.7 -0.2
v 0.6 -0.6 -0.1
v 0.6 -0.6 -0.2
v 0.6 -0.6 -0.5
v 0.6 -0.2 -0.2
v 0.6 -0.2 -0.5
v 0.6 -0.0999999 -0.2
v 0.6 -0.0999999 -0.5
v 0.6 2.38419e-07 -0.2
v 0.6 2.38419e-07 -0.5
v 0.7 -1.1 -0.5
v 0.7 -1.1 -0.7
v 0.7 -1 0.1
v 0.7 -1 -0.1
v 0.7 -0.9 -0.1
v 0.7 -0.9 -0.4
v 0.7 -0.9 -0.5
v 0.7 -0.9 -0.6
v 0.7 -0.9 -0.7
v 0.7 -0.8 0.1
v 0.7 -0.8 -0.1
v 0.7 -0.8 -0.2
v 0.7 -0.8 -0.4
v 0.7 -0.8 -0.5
v 0.7 -0.8 -0.6
v 0.7 -0.7 -0.1
v 0.7 -0.7 -0.2
v 0.7 -0.7 -0.4
v 0.7 -0.7 -0.5
v 0.9 -1.1 0
v 0.9 -1.1 -0.2
v 0.9 -1.1 -0.3
v 0.9 -1.1 -0.5
v 0.9 -1 0
v 0.9 -1 -0.1
v 0.9 -1 -0.2
v 0.9 -1 -0.3
v 0.9 -0.9 -0.1
v 0.9 -0.9 -0.5
v -0.8 -1.1 0
v -0.8 -1.1 -0.2
v -0.8 -1.1 -0.3
v -0.8 -1.1 -0.5
v -0.8 -1 0
v -0.8 -1 -0.1
v -0.8 -1 -0.2
v -0.8 -1 -0.3
v -0.8 -0.9 -0.1
v -0.8 -0.9 -0.5
v -0.6 -1.1 -0.5
v -0.6 -1.1 -0.7
v -0.6 -1 0.1
v -0.6 -1 -0.1
v -0.6 -0.9 -0.1
v -0.6 -0.9 -0.3
v -0.6 -0.9 -0.5
v -0.6 -0.9 -0.6
v -0.6 -0.9 -0.7
v -0.6 -0.8 0.1
v -0.6 -0.8 -0.1
v -0.6 -0.8 -0.2
v -0.6 -0.8 -0.3
v -0.6 -0.8 -0.4
v -0.6 -0.8 -0.5
v -0.6 -0.8 -0.6
v -0.6 -0.7 -0.1
v -0.6 -0.7 -0.2
v -0.6 -0.7 -0.4
v -0.6 -0.7 -0.5
v -0.5 -0.7 -0.1
v -0.5 -0.7 -0.2
v -0.5 -0.6 -0.1
v -0.5 -0.6 -0.2
v -0.5 -0.6 -0.5
v -0.5 2.38419e-07 -0.2
v -0.5 2.38419e-07 -0.5
v -0.4 2.38419e-07 0.2
v -0.4 2.38419e-07 0
v -0.4 0.2 0.2
v -0.4 0.2 0
v -0.3 0.2 0.2
v -0.3 0.2 0
v -0.3 0.4 0.2
v -0.3 0.4 0
v -0.2 0.4 0.3
v -0.2 0.4 0.2
v -0.2 0.5 0.3
v -0.2 0.5 0.2
v -0.2 0.8 -0.4
v -0.2 0.8 -0.5
v -0.2 0.9 -0.4
v -0.2 0.9 -0.5
v -0.1 -2 0.2
v -0.1 -2 -0.5
v -0.1 -1.8 -0.1
v -0.1 -1.8 -0.2
v -0.1 -1.7 0.2
v -0.1 -1.7 -0.1
v -0.1 -1.6 0
v -0.1 -1.6 -0.1
v -0.1 -1.6 -0.2
v -0.1 -1.6 -0.5
v -0.1 -1.6 -0.6
v -0.1 -1.6 -0.7
v -0.1 -1.5 0
v -0.1 -1.5 -0.1
v -0.1 -1.5 -0.6
v -0.1 -1.5 -0.7
v -0.1 -1.4 0
v -0.1 -1.4 -0.1
v -0.1 -1.4 -0.6
v -0.1 -1.4 -0.7
v -0.1 -1.1 -0.1
v -0.1 -1.1 -0.2
v -0.1 -1.1 -0.5
v -0.1 -1.1 -0.6
v -0.1 -1 -0.1
v -0.1 -1 -0.2
v -0.1 -1 -0.5
v -0.1 -1 -0.6
v -0.1 -0.7 0.1
v -0.1 -0.7 0
v -0.1 -0.5 0.1
v -0.1 -0.5 0
v -0.1 -0.3 0
v -0.1 -0.3 -0.1
v -0.1 -0.2 0
v -0.1 -0.2 -0.1
v -0.1 -0.0999999 0
v -0.1 -0.0999999 -0.1
v -0.1 -0.0999999 -0.6
v -0.1 -0.0999999 -0.7
v -0.1 2.38419e-07 -0.1
v -0.1 0.1 -0.7
v -0.1 0.2 -0.6
v -0.1 0.2 -0.7
v -0.1 0.3 0
v -0.1 0.3 -0.1
v 0 -1.6 -0.1
v 0 -1.6 -0.6
v 0 -1.5 -0.1
v 0 -1.5 -0.6
v 0 -1.4 -0.1
v 0 -1.4 -0.6
v 0 -1.1 -0.2
v 0 -1.1 -0.5
v 0 -1 -0.2
v 0 -1 -0.5
v 0 0.8 0.3
v 0 0.8 0.2
v 0 0.9 0.3
v 0 0.9 0.2
v 0 0.9 -0.6
v 0 0.9 -0.7
v 0 1 -0.6
v 0 1 -0.7
v 0.1 -0.4 -0.7
v 0.1 -0.4 -0.8
v 0.1 -0.3 -0.7
v 0.1 -0.3 -0.8
v 0.1 0.3 -0.7
v 0.1 0.3 -0.8
v 0.1 0.4 0.4
v 0.1 0.4 0.3
v 0.1 0.5 0.3
v 0.1 0.6 0.3
v 0.1 0.6 0.2
v 0.1 0.6 -0.7
v 0.1 0.6 -0.8
v 0.1 0.7 0.4
v 0.1 0.7 0.3
v 0.1 0.7 0.2
v 0.1 0.7 -0.6
v 0.1 0.7 -0.7
v 0.1 0.8 -0.6
v 0.1 0.8 -0.7
v 0.1 1 -0.7
v 0.1 1 -0.8
v 0.1 1.1 -0.7
v 0.1 1.1 -0.8
v 0.1 1.3 -0.3
v 0.1 1.3 -0.4
v 0.1 1.3 -0.6
v 0.1 1.3 -0.7
v 0.1 1.4 -0.3
v 0.1 1.4 -0.4
v 0.1 1.4 -0.6
v 0.1 1.4 -0.7
v 0.2 -0.9 0.1
v 0.2 -0.9 0
v 0.2 -0.8 0.2
v 0.2 -0.8 0.1
v 0.2 -0.8 0
v 0.2 -0.5 0.2
v 0.2 -0.5 0.1
v 0.2 -0.5 -0.7
v 0.2 -0.5 -0.8
v 0.2 -0.4 0
v 0.2 -0.4 -0.1
v 0.2 -0.4 -0.7
v 0.2 -0.4 -0.8
v 0.2 -0.3 0
v 0.2 -0.3 -0.1
v 0.2 -0.3 -0.6
v 0.2 -0.3 -0.7
v 0.2 -0.2 -0.6
v 0.2 -0.2 -0.7
v 0.2 0.1 -0.7
v 0.2 0.1 -0.8
v 0.2 0.3 -0.7
v 0.2 0.3 -0.8
v 0.2 0.4 -0.6
v 0.2 0.4 -0.7
v 0.2 0.5 -0.6
v 0.2 0.7 -0.6
v 0.2 0.7 -0.7
v 0.2 0.8 -0.4
v 0.2 0.8 -0.5
v 0.2 0.9 -0.4
v 0.2 0.9 -0.5
v 0.2 0.9 -0.6
v 0.2 0.9 -0.7
v 0.2 1 -0.5
v 0.2 1 -0.6
v 0.2 1.1 -0.6
v 0.2 1.1 -0.7
v 0.2 1.1 -0.8
v 0.2 1.2 -0.2
v 0.2 1.2 -0.3
v 0.2 1.2 -0.6
v 0.2 1.2 -0.7
v 0.2 1.3 -0.2
v 0.2 1.3 -0.3
v 0.2 1.3 -0.4
v 0.2 1.3 -0.6
v 0.2 1.3 -0.8
v 0.2 1.4 -0.4
v 0.2 1.4 -0.6
v 0.3 -0.9 -0.7
v 0.3 -0.9 -0.8
v 0.3 -0.8 0.1
v 0.3 -0.8 0
v 0.3 -0.8 -0.7
v 0.3 -0.8 -0.8
v 0.3 -0.6 -0.7
v 0.3 -0.6 -0.8
v 0.3 -0.5 0.1
v 0.3 -0.5 0
v 0.3 -0.5 -0.7
v 0.3 -0.5 -0.8
v 0.3 -0.4 -0.6
v 0.3 -0.4 -0.7
v 0.3 -0.3 0
v 0.3 -0.3 -0.1
v 0.3 -0.3 -0.6
v 0.3 -0.3 -0.7
v 0.3 -0.2 0
v 0.3 -0.2 -0.1
v 0.3 -0.0999999 0
v 0.3 -0.0999999 -0.1
v 0.3 2.38419e-07 -0.1
v 0.3 0.2 0
v 0.3 0.2 -0.1
v 0.3 0.3 0.3
v 0.3 0.3 0.2
v 0.3 0.3 0
v 0.3 0.4 0.3
v 0.3 0.4 0.2
v 0.3 0.4 0
v 0.3 0.7 0.3
v 0.3 0.7 0.2
v 0.3 0.8 0.3
v 0.3 0.8 0.2
v 0.3 0.8 -0.5
v 0.3 0.8 -0.6
v 0.3 0.9 0.3
v 0.3 0.9 0.2
v 0.3 0.9 -0.5
v 0.3 0.9 -0.6
v 0.3 1 -0.5
v 0.3 1 -0.6
v 0.3 1.1 -0.6
v 0.3 1.1 -0.7
v 0.3 1.2 -0.3
v 0.3 1.2 -0.5
v 0.3 1.2 -0.6
v 0.3 1.2 -0.7
v 0.3 1.3 -0.3
v 0.3 1.3 -0.6
v 0.4 -0.8 -0.7
v 0.4 -0.8 -0.8
v 0.4 -0.6 -0.7
v 0.4 -0.6 -0.8
v 0.4 -0.4 -0.1
v 0.4 -0.4 -0.2
v 0.4 -0.4 -0.5
v 0.4 -0.4 -0.6
v 0.4 -0.3 -0.2
v 0.4 -0.3 -0.5
v 0.4 -0.0999999 -0.2
v 0.4 -0.0999999 -0.3
v 0.4 -0.0999999 -0.4
v 0.4 -0.0999999 -0.5
v 0.4 -0.0999999 -0.6
v 0.4 -0.0999999 -0.7
v 0.4 2.38419e-07 -0.1
v 0.4 2.38419e-07 -0.2
v 0.4 2.38419e-07 -0.3
v 0.4 2.38419e-07 -0.4
v 0.4 2.38419e-07 -0.5
v 0.4 2.38419e-07 -0.6
v 0.4 0.2 0
v 0.4 0.2 -0.1
v 0.4 0.3 0
v 0.4 0.3 -0.1
v 0.4 0.3 -0.6
v 0.4 0.4 0.3
v 0.4 0.4 0.2
v 0.4 0.4 -0.6
v 0.4 0.4 -0.7
v 0.4 0.5 -0.4
v 0.4 0.5 -0.6
v 0.4 0.6 0.3
v 0.4 0.6 0.2
v 0.4 0.6 -0.4
v 0.4 0.6 -0.5
v 0.4 0.8 -0.5
v 0.4 0.8 -0.6
v 0.4 0.9 -0.2
v 0.4 0.9 -0.5
v 0.4 1 -0.2
v 0.4 1 -0.5
v 0.4 1.1 0.2
v 0.4 1.1 0.1
v 0.4 1.2 0.2
v 0.4 1.2 0.1
v 0.5 -2 0.2
v 0.5 -2 -0.5
v 0.5 -1.8 -0.1
v 0.5 -1.8 -0.2
v 0.5 -1.7 0.2
v 0.5 -1.7 -0.1
v 0.5 -1.6 0
v 0.5 -1.6 -0.1
v 0.5 -1.6 -0.2
v 0.5 -1.6 -0.5
v 0.5 -1.6 -0.6
v 0.5 -1.6 -0.7
v 0.5 -1.5 0
v 0.5 -1.5 -0.1
v 0.5 -1.5 -0.6
v 0.5 -1.5 -0.7
v 0.5 -1.4 0
v 0.5 -1.4 -0.1
v 0.5 -1.4 -0.6
v 0.5 -1.4 -0.7
v 0.5 -1 0
v 0.5 -1 -0.1
v 0.5 -1 -0.6
v 0.5 -1 -0.7
v 0.5 -0.9 0
v 0.5 -0.9 -0.1
v 0.5 -0.9 -0.6
v 0.5 -0.9 -0.7
v 0.5 -0.7 -0.1
v 0.5 -0.7 -0.2
v 0.5 -0.7 -0.5
v 0.5 -0.7 -0.6
v 0.5 -0.6 -0.2
v 0.5 -0.6 -0.5
v 0.5 -0.4 0
v 0.5 -0.4 -0.2
v 0.5 -0.4 -0.5
v 0.5 -0.4 -0.7
v 0.5 -0.3 -0.2
v 0.5 -0.3 -0.5
v 0.5 -0.0999999 -0.2
v 0.5 -0.0999999 -0.3
v 0.5 -0.0999999 -0.4
v 0.5 -0.0999999 -0.5
v 0.5 2.38419e-07 -0.1
v 0.5 2.38419e-07 -0.2
v 0.5 2.38419e-07 -0.3
v 0.5 2.38419e-07 -0.4
v 0.5 2.38419e-07 -0.5
v 0.5 0.3 0
v 0.5 0.3 -0.1
v 0.5 0.3 -0.2
v 0.5 0.4 0
v 0.5 0.4 -0.1
v 0.5 0.4 -0.2
v 0.5 0.4 -0.6
v 0.5 0.5 0.2
v 0.5 0.5 0
v 0.5 0.5 -0.1
v 0.5 0.5 -0.4
v 0.5 0.5 -0.6
v 0.5 0.6 -0.4
v 0.5 0.6 -0.5
v 0.5 0.7 0
v 0.5 0.7 -0.1
v 0.5 0.9 0.2
v 0.5 0.9 0
v 0.5 0.9 -0.2
v 0.5 0.9 -0.5
v 0.5 1 -0.1
v 0.5 1 -0.2
v 0.5 1 -0.4
v 0.5 1 -0.5
v 0.5 1.1 0.1
v 0.5 1.1 0
v 0.5 1.2 0.1
v 0.5 1.2 -0.1
v 0.5 1.2 -0.4
v 0.5 1.2 -0.5
v 0.6 -1.6 -0.1
v 0.6 -1.6 -0.6
v 0.6 -1.5 -0.1
v 0.6 -1.5 -0.6
v 0.6 -1.4 -0.1
v 0.6 -1.4 -0.6
v 0.6 -1 -0.1
v 0.6 -1 -0.6
v 0.6 -0.9 -0.1
v 0.6 -0.9 -0.4
v 0.6 -0.9 -0.6
v 0.6 -0.8 -0.1
v 0.6 -0.8 -0.2
v 0.6 -0.8 -0.4
v 0.6 -0.7 -0.1
v 0.6 -0.7 -0.2
v 0.6 -0.7 -0.4
v 0.6 -0.7 -0.5
v 0.6 -0.7 -0.6
v 0.6 2.38419e-07 0.2
v 0.6 2.38419e-07 0
v 0.6 2.38419e-07 -0.5
v 0.6 2.38419e-07 -0.6
v 0.6 0.3 -0.2
v 0.6 0.3 -0.5
v 0.6 0.4 0
v 0.6 0.4 -0.1
v 0.6 0.4 -0.2
v 0.6 0.4 -0.6
v 0.6 0.5 0.2
v 0.6 0.5 0
v 0.6 0.7 0
v 0.6 0.7 -0.1
v 0.6 0.9 0.2
v 0.6 0.9 0
v 0.6 1 -0.1
v 0.6 1 -0.4
v 0.6 1.1 0.2
v 0.6 1.1 0
v 0.6 1.2 -0.1
v 0.6 1.2 -0.4
v 0.8 0.2 -0.2
v 0.8 0.2 -0.5
v 0.8 0.3 -0.2
v 0.8 0.3 -0.5
v 0.9 -1.1 -0.5
v 0.9 -1.1 -0.7
v 0.9 -1 0.1
v 0.9 -1 0
v 0.9 -0.9 0
v 0.9 -0.9 -0.1
v 0.9 -0.9 -0.6
v 0.9 -0.9 -0.7
v 0.9 -0.8 0.1
v 0.9 -0.8 -0.1
v 0.9 -0.8 -0.2
v 0.9 -0.8 -0.4
v 0.9 -0.8 -0.5
v 0.9 -0.8 -0.6
v 0.9 -0.7 -0.1
v 0.9 -0.7 -0.2
v 0.9 -0.7 -0.4
v 0.9 -0.7 -0.5
v 0.9 -0.6 -0.1
v 0.9 -0.6 -0.2
v 0.9 -0.6 -0.5
v 0.9 -0.2 -0.2
v 0.9 -0.2 -0.5
v 0.9 -0.0999999 -0.2
v 0.9 -0.0999999 -0.5
v 0.9 0.2 -0.2
v 0.9 0.2 -0.5
v 1 -1 -0.2
v 1 -1 -0.3
v 1 -0.9 -0.1
v 1 -0.9 -0.2
v 1 -0.9 -0.3
v 1 -0.9 -0.5
v 1 -0.8 -0.1
v 1 -0.8 -0.2
v 1 -0.8 -0.4
v 1 -0.8 -0.5
v 1 -0.7 -0.2
v 1 -0.7 -0.4
v 1 -0.7 -0.5
v 1 -0.6 -0.2
v 1 -0.6 -0.5
v 1.1 -1.1 0
v 1.1 -1.1 -0.2
v 1.1 -1.1 -0.3
v 1.1 -1.1 -0.5
v 1.1 -0.9 0
v 1.1 -0.9 -0.2
v 1.1 -0.9 -0.3
v 1.1 -0.9 -0.5
v 0 0.4 0.4
v 0 0.7 0.4
v 0.1 0.4 0.4
v 0.1 0.7 0.4
v -0.3 0.4 0.3
v -0.3 0.6 0.3
v -0.2 0.3 0.3
v -0.2 0.4 0.3
v -0.2 0.5 0.3
v -0.2 0.7 0.3
v -0.2 0.8 0.3
v -0.2 0.9 0.3
v -0.1 0.7 0.3
v -0.1 0.8 0.3
v 0 0.4 0.3
v 0 0.5 0.3
v 0 0.6 0.3
v 0 0.7 0.3
v 0 0.8 0.3
v 0 0.9 0.3
v 0.1 0.4 0.3
v 0.1 0.5 0.3
v 0.1 0.6 0.3
v 0.1 0.7 0.3
v 0.1 0.8 0.3
v 0.1 0.9 0.3
v 0.2 0.7 0.3
v 0.2 0.8 0.3
v 0.3 0.3 0.3
v 0.3 0.4 0.3
v 0.3 0.5 0.3
v 0.3 0.7 0.3
v 0.3 0.8 0.3
v 0.3 0.9 0.3
v 0.4 0.4 0.3
v 0.4 0.6 0.3
v -0.5 2.38419e-07 0.2
v -0.5 0.5 0.2
v -0.5 0.9 0.2
v -0.5 1.1 0.2
v -0.4 -2 0.2
v -0.4 -1.7 0.2
v -0.4 2.38419e-07 0.2
v -0.4 0.2 0.2
v -0.4 0.5 0.2
v -0.4 0.9 0.2
v -0.3 0.2 0.2
v -0.3 0.4 0.2
v -0.3 0.6 0.2
v -0.3 0.9 0.2
v -0.3 1 0.2
v -0.3 1.1 0.2
v -0.3 1.2 0.2
v -0.2 0.4 0.2
v -0.2 0.5 0.2
v -0.2 0.7 0.2
v -0.2 0.8 0.2
v -0.2 0.9 0.2
v -0.2 1 0.2
v -0.2 1.1 0.2
v -0.1 -2 0.2
v -0.1 -1.7 0.2
v -0.1 -0.8 0.2
v -0.1 -0.5 0.2
v -0.1 0.7 0.2
v -0.1 1 0.2
v -0.1 1.1 0.2
v 0 0.6 0.2
v 0 0.7 0.2
v 0 0.8 0.2
v 0 0.9 0.2
v 0 1 0.2
v 0.1 0.6 0.2
v 0.1 0.7 0.2
v 0.1 0.8 0.2
v 0.1 0.9 0.2
v 0.1 1 0.2
v 0.2 -2 0.2
v 0.2 -1.7 0.2
v 0.2 -0.8 0.2
v 0.2 -0.5 0.2
v 0.2 0.7 0.2
v 0.2 1 0.2
v 0.2 1.1 0.2
v 0.3 0.4 0.2
v 0.3 0.5 0.2
v 0.3 0.7 0.2
v 0.3 0.8 0.2
v 0.3 0.9 0.2
v 0.3 1 0.2
v 0.3 1.1 0.2
v 0.4 0.2 0.2
v 0.4 0.4 0.2
v 0.4 0.6 0.2
v 0.4 0.9 0.2
v 0.4 1 0.2
v 0.4 1.1 0.2
v 0.4 1.2 0.2
v 0.5 -2 0.2
v 0.5 -1.7 0.2
v 0.5 2.38419e-07 0.2
v 0.5 0.2 0.2
v 0.5 0.5 0.2
v 0.5 0.9 0.2
v 0.6 2.38419e-07 0.2
v 0.6 0.5 0.2
v 0.6 0.9 0.2
v 0.6 1.1 0.2
v -0.8 -1 0.1
v -0.8 -0.8 0.1
v -0.6 -1 0.1
v -0.6 -0.8 0.1
v -0.4 1.1 0.1
v -0.4 1.2 0.1
v -0.3 1.1 0.1
v -0.3 1.2 0.1
v -0.2 -0.8 0.1
v -0.2 -0.5 0.1
v -0.1 -0.9 0.1
v -0.1 -0.8 0.1
v -0.1 -0.5 0.1
v 0.2 -0.9 0.1
v 0.2 -0.8 0.1
v 0.2 -0.5 0.1
v 0.3 -0.8 0.1
v 0.3 -0.5 0.1
v 0.4 1.1 0.1
v 0.4 1.2 0.1
v 0.5 1.1 0.1
v 0.5 1.2 0.1
v 0.7 -1 0.1
v 0.7 -0.8 0.1
v 0.9 -1 0.1
v 0.9 -0.8 0.1
v -1 -1.1 0
v -1 -0.9 0
v -0.8 -1.1 0
v -0.8 -1 0
v -0.8 -0.9 0
v -0.5 0.5 0
v -0.5 0.7 0
v -0.4 -1.6 0
v -0.4 -1.5 0
v -0.4 -1.4 0
v -0.4 -1 0
v -0.4 -0.9 0
v -0.4 -0.4 0
v -0.4 0.5 0
v -0.4 0.7 0
v -0.3 0.2 0
v -0.3 0.4 0
v -0.2 -1 0
v -0.2 -0.9 0
v -0.2 -0.8 0
v -0.2 -0.5 0
v -0.2 -0.3 0
v -0.2 -0.2 0
v -0.2 -0.0999999 0
v -0.2 0.2 0
v -0.2 0.3 0
v -0.2 0.4 0
v -0.1 -1.6 0
v -0.1 -1.5 0
v -0.1 -1.4 0
v -0.1 -0.9 0
v -0.1 -0.8 0
v -0.1 -0.7 0
v -0.1 -0.5 0
v -0.1 -0.4 0
v -0.1 -0.3 0
v -0.1 -0.2 0
v -0.1 -0.0999999 0
v -0.1 0.3 0
v 0.2 -1.6 0
v 0.2 -1.5 0
v 0.2 -1.4 0
v 0.2 -0.9 0
v 0.2 -0.8 0
v 0.2 -0.7 0
v 0.2 -0.5 0
v 0.2 -0.4 0
v 0.2 -0.3 0
v 0.2 -0.2 0
v 0.2 -0.0999999 0
v 0.2 0.3 0
v 0.3 -1 0
v 0.3 -0.9 0
v 0.3 -0.8 0
v 0.3 -0.5 0
v 0.3 -0.3 0
v 0.3 -0.2 0
v 0.3 -0.0999999 0
v 0.3 0.2 0
v 0.3 0.3 0
v 0.3 0.4 0
v 0.4 0.2 0
v 0.4 0.4 0
v 0.5 -1.6 0
v 0.5 -1.5 0
v 0.5 -1.4 0
v 0.5 -1 0
v 0.5 -0.9 0
v 0.5 -0.4 0
v 0.5 0.5 0
v 0.5 0.7 0
v 0.6 0.5 0
v 0.6 0.7 0
v 0.9 -1.1 0
v 0.9 -1 0
v 0.9 -0.9 0
v 1.1 -1.1 0
v 1.1 -0.9 0
v -0.9 -0.9 -0.1
v -0.9 -0.8 -0.1
v -0.8 -0.9 -0.1
v -0.8 -0.8 -0.1
v -0.8 -0.7 -0.1
v -0.8 -0.6 -0.1
v -0.6 -0.9 -0.1
v -0.6 -0.8 -0.1
v -0.6 -0.7 -0.1
v -0.5 -1.6 -0.1
v -0.5 -1.5 -0.1
v -0.5 -1.4 -0.1
v -0.5 -1 -0.1
v -0.5 -0.9 -0.1
v -0.5 -0.8 -0.1
v -0.5 -0.7 -0.1
v -0.5 -0.6 -0.1
v -0.5 1 -0.1
v -0.5 1.2 -0.1
v -0.4 -1.6 -0.1
v -0.4 -1.5 -0.1
v -0.4 -1.4 -0.1
v -0.4 -1 -0.1
v -0.4 -0.9 -0.1
v -0.4 -0.7 -0.1
v -0.4 2.38419e-07 -0.1
v -0.4 0.3 -0.1
v -0.4 1 -0.1
v -0.4 1.2 -0.1
v -0.3 -0.4 -0.1
v -0.3 2.38419e-07 -0.1
v -0.3 0.2 -0.1
v -0.3 0.3 -0.1
v -0.2 -1.1 -0.1
v -0.2 -1 -0.1
v -0.2 -0.3 -0.1
v -0.2 -0.2 -0.1
v -0.2 -0.0999999 -0.1
v -0.2 2.38419e-07 -0.1
v -0.2 0.2 -0.1
v -0.1 -1.6 -0.1
v -0.1 -1.5 -0.1
v -0.1 -1.4 -0.1
v -0.1 -1.1 -0.1
v -0.1 -1 -0.1
v -0.1 -0.4 -0.1
v -0.1 -0.3 -0.1
v -0.1 -0.2 -0.1
v -0.1 -0.0999999 -0.1
v -0.1 2.38419e-07 -0.1
v -0.1 0.3 -0.1
v 0 -1.6 -0.1
v 0 -1.5 -0.1
v 0 -1.4 -0.1
v 0 -0.2 -0.1
v 0 -0.0999999 -0.1
v 0 2.38419e-07 -0.1
v 0.1 -1.6 -0.1
v 0.1 -1.5 -0.1
v 0.1 -1.4 -0.1
v 0.1 -0.2 -0.1
v 0.1 -0.0999999 -0.1
v 0.1 2.38419e-07 -0.1
v 0.2 -1.6 -0.1
v 0.2 -1.5 -0.1
v 0.2 -1.4 -0.1
v 0.2 -1.1 -0.1
v 0.2 -1 -0.1
v 0.2 -0.4 -0.1
v 0.2 -0.3 -0.1
v 0.2 -0.2 -0.1
v 0.2 -0.0999999 -0.1
v 0.2 2.38419e-07 -0.1
v 0.2 0.3 -0.1
v 0.3 -1.1 -0.1
v 0.3 -1 -0.1
v 0.3 -0.3 -0.1
v 0.3 -0.2 -0.1
v 0.3 -0.0999999 -0.1
v 0.3 2.38419e-07 -0.1
v 0.3 0.2 -0.1
v 0.4 -0.4 -0.1
v 0.4 2.38419e-07 -0.1
v 0.4 0.2 -0.1
v 0.4 0.3 -0.1
v 0.5 -1.6 -0.1
v 0.5 -1.5 -0.1
v 0.5 -1.4 -0.1
v 0.5 -1 -0.1
v 0.5 -0.9 -0.1
v 0.5 -0.7 -0.1
v 0.5 2.38419e-07 -0.1
v 0.5 0.3 -0.1
v 0.5 1 -0.1
v 0.5 1.2 -0.1
v 0.6 -1.6 -0.1
v 0.6 -1.5 -0.1
v 0.6 -1.4 -0.1
v 0.6 -1 -0.1
v 0.6 -0.9 -0.1
v 0.6 -0.8 -0.1
v 0.6 -0.7 -0.1
v 0.6 -0.6 -0.1
v 0.6 1 -0.1
v 0.6 1.2 -0.1
v 0.7 -0.9 -0.1
v 0.7 -0.8 -0.1
v 0.7 -0.7 -0.1
v 0.9 -0.9 -0.1
v 0.9 -0.8 -0.1
v 0.9 -0.7 -0.1
v 0.9 -0.6 -0.1
v 1 -0.9 -0.1
v 1 -0.8 -0.1
v -0.9 -0.8 -0.2
v -0.9 -0.7 -0.2
v -0.9 -0.6 -0.2
v -0.8 -0.8 -0.2
v -0.8 -0.7 -0.2
v -0.8 -0.6 -0.2
v -0.8 0.2 -0.2
v -0.7 0.2 -0.2
v -0.7 0.3 -0.2
v -0.6 -0.8 -0.2
v -0.6 -0.7 -0.2
v -0.5 -0.8 -0.2
v -0.5 -0.7 -0.2
v -0.5 -0.6 -0.2
v -0.5 2.38419e-07 -0.2
v -0.5 0.3 -0.2
v -0.5 0.4 -0.2
v -0.4 -1.8 -0.2
v -0.4 -1.6 -0.2
v -0.4 -0.7 -0.2
v -0.4 -0.6 -0.2
v -0.4 -0.4 -0.2
v -0.4 -0.3 -0.2
v -0.4 -0.0999999 -0.2
v -0.4 2.38419e-07 -0.2
v -0.4 0.3 -0.2
v -0.4 0.4 -0.2
v -0.3 -0.4 -0.2
v -0.3 -0.3 -0.2
v -0.3 -0.0999999 -0.2
v -0.3 2.38419e-07 -0.2
v -0.1 -1.8 -0.2
v -0.1 -1.6 -0.2
v -0.1 -1.1 -0.2
v -0.1 -1 -0.2
v -0.1 1.2 -0.2
v -0.1 1.3 -0.2
v 0 -1.1 -0.2
v 0 -1 -0.2
v 0.1 -1.1 -0.2
v 0.1 -1 -0.2
v 0.2 -1.8 -0.2
v 0.2 -1.6 -0.2
v 0.2 -1.1 -0.2
v 0.2 -1 -0.2
v 0.2 1.2 -0.2
v 0.2 1.3 -0.2
v 0.4 -0.4 -0.2
v 0.4 -0.3 -0.2
v 0.4 -0.0999999 -0.2
v 0.4 2.38419e-07 -0.2
v 0.5 -1.8 -0.2
v 0.5 -1.6 -0.2
v 0.5 -0.7 -0.2
v 0.5 -0.6 -0.2
v 0.5 -0.4 -0.2
v 0.5 -0.3 -0.2
v 0.5 -0.0999999 -0.2
v 0.5 2.38419e-07 -0.2
v 0.5 0.3 -0.2
v 0.5 0.4 -0.2
v 0.6 -0.8 -0.2
v 0.6 -0.7 -0.2
v 0.6 -0.6 -0.2
v 0.6 -0.2 -0.2
v 0.6 -0.0999999 -0.2
v 0.6 2.38419e-07 -0.2
v 0.6 0.3 -0.2
v 0.6 0.4 -0.2
v 0.7 -0.8 -0.2
v 0.7 -0.7 -0.2
v 0.8 0.2 -0.2
v 0.8 0.3 -0.2
v 0.9 -0.8 -0.2
v 0.9 -0.7 -0.2
v 0.9 -0.6 -0.2
v 0.9 -0.2 -0.2
v 0.9 -0.0999999 -0.2
v 0.9 0.2 -0.2
v 1 -0.8 -0.2
v 1 -0.7 -0.2
v 1 -0.6 -0.2
v -1 -1.1 -0.3
v -1 -0.9 -0.3
v -0.9 -1 -0.3
v -0.9 -0.9 -0.3
v -0.8 -1.1 -0.3
v -0.8 -1 -0.3
v -0.2 1.2 -0.3
v -0.2 1.3 -0.3
v -0.1 1.2 -0.3
v -0.1 1.3 -0.3
v 0 1.3 -0.3
v 0 1.4 -0.3
v 0.1 1.3 -0.3
v 0.1 1.4 -0.3
v 0.2 1.2 -0.3
v 0.2 1.3 -0.3
v 0.3 1.2 -0.3
v 0.3 1.3 -0.3
v 0.9 -1.1 -0.3
v 0.9 -1 -0.3
v 1 -1 -0.3
v 1 -0.9 -0.3
v 1.1 -1.1 -0.3
v 1.1 -0.9 -0.3
v -0.4 -0.0999999 -0.4
v -0.4 2.38419e-07 -0.4
v -0.3 -0.0999999 -0.4
v -0.3 2.38419e-07 -0.4
v -0.1 1.3 -0.4
v -0.1 1.4 -0.4
v 0 1.3 -0.4
v 0 1.4 -0.4
v 0.1 1.3 -0.4
v 0.1 1.4 -0.4
v 0.2 1.3 -0.4
v 0.2 1.4 -0.4
v 0.4 -0.0999999 -0.4
v 0.4 2.38419e-07 -0.4
v 0.5 -0.0999999 -0.4
v 0.5 2.38419e-07 -0.4
v -0.8 -1.1 -0.5
v -0.8 -0.9 -0.5
v -0.6 -1.1 -0.5
v -0.6 -0.9 -0.5
v -0.2 0.8 -0.5
v -0.2 0.9 -0.5
v -0.1 0.8 -0.5
v -0.1 0.9 -0.5
v 0.2 0.8 -0.5
v 0.2 0.9 -0.5
v 0.3 0.8 -0.5
v 0.3 0.9 -0.5
v 0.7 -1.1 -0.5
v 0.7 -0.9 -0.5
v 0.9 -1.1 -0.5
v 0.9 -0.9 -0.5
v -0.1 0.1 -0.7
v -0.1 0.2 -0.7
v 0.2 0.1 -0.7
v 0.2 0.2 -0.7
v 0 0.4 0.3
v 0 0.5 0.3
v 0.1 0.4 0.3
v 0.1 0.5 0.3
v -0.1 -0.7 0.1
v -0.1 -0.5 0.1
v 0.2 -0.7 0.1
v 0.2 -0.5 0.1
v -0.5 2.38419e-07 0
v -0.5 0.4 0
v -0.5 0.9 0
v -0.5 1.1 0
v -0.4 2.38419e-07 0
v -0.4 0.2 0
v -0.4 0.3 0
v -0.4 0.4 0
v -0.4 0.9 0
v -0.4 1.1 0
v -0.3 0.2 0
v -0.3 0.3 0
v 0.4 0.2 0
v 0.4 0.3 0
v 0.5 2.38419e-07 0
v 0.5 0.2 0
v 0.5 0.3 0
v 0.5 0.4 0
v 0.5 0.9 0
v 0.5 1.1 0
v 0.6 2.38419e-07 0
v 0.6 0.4 0
v 0.6 0.9 0
v 0.6 1.1 0
v -0.8 -1 -0.1
v -0.8 -0.9 -0.1
v -0.6 -1 -0.1
v -0.6 -0.9 -0.1
v -0.5 0.4 -0.1
v -0.5 0.7 -0.1
v -0.4 -1.8 -0.1
v -0.4 -1.7 -0.1
v -0.4 0.4 -0.1
v -0.4 0.5 -0.1
v -0.4 0.7 -0.1
v -0.1 -1.8 -0.1
v -0.1 -1.7 -0.1
v 0.2 -1.8 -0.1
v 0.2 -1.7 -0.1
v 0.5 -1.8 -0.1
v 0.5 -1.7 -0.1
v 0.5 0.4 -0.1
v 0.5 0.5 -0.1
v 0.5 0.7 -0.1
v 0.6 0.4 -0.1
v 0.6 0.7 -0.1
v 0.7 -1 -0.1
v 0.7 -0.9 -0.1
v 0.9 -1 -0.1
v 0.9 -0.9 -0.1
v -1 -1.1 -0.2
v -1 -0.9 -0.2
v -0.9 -1 -0.2
v -0.9 -0.9 -0.2
v -0.8 -1.1 -0.2
v -0.8 -1 -0.2
v -0.4 0.9 -0.2
v -0.4 1 -0.2
v -0.3 0.9 -0.2
v -0.3 1 -0.2
v 0.4 0.9 -0.2
v 0.4 1 -0.2
v 0.5 0.9 -0.2
v 0.5 1 -0.2
v 0.9 -1.1 -0.2
v 0.9 -1 -0.2
v 1 -1 -0.2
v 1 -0.9 -0.2
v 1.1 -1.1 -0.2
v 1.1 -0.9 -0.2
v -0.6 -0.9 -0.3
v -0.6 -0.8 -0.3
v -0.5 -0.9 -0.3
v -0.5 -0.8 -0.3
v -0.4 -0.0999999 -0.3
v -0.4 2.38419e-07 -0.3
v -0.3 -0.0999999 -0.3
v -0.3 2.38419e-07 -0.3
v 0.4 -0.0999999 -0.3
v 0.4 2.38419e-07 -0.3
v 0.5 -0.0999999 -0.3
v 0.5 2.38419e-07 -0.3
v -0.9 -0.8 -0.4
v -0.9 -0.7 -0.4
v -0.8 -0.8 -0.4
v -0.8 -0.7 -0.4
v -0.6 -0.8 -0.4
v -0.6 -0.7 -0.4
v -0.5 -0.8 -0.4
v -0.5 -0.7 -0.4
v -0.5 1 -0.4
v -0.5 1.2 -0.4
v -0.4 0.5 -0.4
v -0.4 0.6 -0.4
v -0.4 1 -0.4
v -0.4 1.2 -0.4
v -0.3 0.5 -0.4
v -0.3 0.6 -0.4
v -0.2 0.8 -0.4
v -0.2 0.9 -0.4
v -0.1 0.8 -0.4
v -0.1 0.9 -0.4
v 0.2 0.8 -0.4
v 0.2 0.9 -0.4
v 0.3 0.8 -0.4
v 0.3 0.9 -0.4
v 0.4 0.5 -0.4
v 0.4 0.6 -0.4
v 0.5 0.5 -0.4
v 0.5 0.6 -0.4
v 0.5 1 -0.4
v 0.5 1.2 -0.4
v 0.6 -0.9 -0.4
v 0.6 -0.8 -0.4
v 0.6 -0.7 -0.4
v 0.6 1 -0.4
v 0.6 1.2 -0.4
v 0.7 -0.9 -0.4
v 0.7 -0.8 -0.4
v 0.7 -0.7 -0.4
v 0.9 -0.8 -0.4
v 0.9 -0.7 -0.4
v 1 -0.8 -0.4
v 1 -0.7 -0.4
v -1 -1.1 -0.5
v -1 -0.9 -0.5
v -0.9 -0.9 -0.5
v -0.9 -0.8 -0.5
v -0.9 -0.7 -0.5
v -0.9 -0.6 -0.5
v -0.8 -1.1 -0.5
v -0.8 -0.8 -0.5
v -0.8 -0.7 -0.5
v -0.8 -0.6 -0.5
v -0.8 0.2 -0.5
v -0.7 0.2 -0.5
v -0.7 0.3 -0.5
v -0.6 -0.8 -0.5
v -0.6 -0.7 -0.5
v -0.5 -0.7 -0.5
v -0.5 -0.6 -0.5
v -0.5 2.38419e-07 -0.5
v -0.5 0.3 -0.5
v -0.4 -2 -0.5
v -0.4 -1.6 -0.5
v -0.4 -0.7 -0.5
v -0.4 -0.6 -0.5
v -0.4 -0.4 -0.5
v -0.4 -0.3 -0.5
v -0.4 -0.0999999 -0.5
v -0.4 2.38419e-07 -0.5
v -0.4 0.6 -0.5
v -0.4 0.9 -0.5
v -0.4 1 -0.5
v -0.4 1.2 -0.5
v -0.3 -0.4 -0.5
v -0.3 -0.3 -0.5
v -0.3 -0.0999999 -0.5
v -0.3 2.38419e-07 -0.5
v -0.3 0.6 -0.5
v -0.3 0.8 -0.5
v -0.3 0.9 -0.5
v -0.3 1 -0.5
v -0.2 0.8 -0.5
v -0.2 0.9 -0.5
v -0.2 1 -0.5
v -0.2 1.2 -0.5
v -0.1 -2 -0.5
v -0.1 -1.6 -0.5
v -0.1 -1.1 -0.5
v -0.1 -1 -0.5
v -0.1 0.9 -0.5
v -0.1 1 -0.5
v 0 -1.1 -0.5
v 0 -1 -0.5
v 0.1 -1.1 -0.5
v 0.1 -1 -0.5
v 0.2 -2 -0.5
v 0.2 -1.6 -0.5
v 0.2 -1.1 -0.5
v 0.2 -1 -0.5
v 0.2 0.9 -0.5
v 0.2 1 -0.5
v 0.3 0.8 -0.5
v 0.3 0.9 -0.5
v 0.3 1 -0.5
v 0.3 1.2 -0.5
v 0.4 -0.4 -0.5
v 0.4 -0.3 -0.5
v 0.4 -0.0999999 -0.5
v 0.4 2.38419e-07 -0.5
v 0.4 0.6 -0.5
v 0.4 0.8 -0.5
v 0.4 0.9 -0.5
v 0.4 1 -0.5
v 0.5 -2 -0.5
v 0.5 -1.6 -0.5
v 0.5 -0.7 -0.5
v 0.5 -0.6 -0.5
v 0.5 -0.4 -0.5
v 0.5 -0.3 -0.5
v 0.5 -0.0999999 -0.5
v 0.5 2.38419e-07 -0.5
v 0.5 0.6 -0.5
v 0.5 0.9 -0.5
v 0.5 1 -0.5
v 0.5 1.2 -0.5
v 0.6 -0.7 -0.5
v 0.6 -0.6 -0.5
v 0.6 -0.2 -0.5
v 0.6 -0.0999999 -0.5
v 0.6 2.38419e-07 -0.5
v 0.6 0.3 -0.5
v 0.7 -0.8 -0.5
v 0.7 -0.7 -0.5
v 0.8 0.2 -0.5
v 0.8 0.3 -0.5
v 0.9 -1.1 -0.5
v 0.9 -0.8 -0.5
v 0.9 -0.7 -0.5
v 0.9 -0.6 -0.5
v 0.9 -0.2 -0.5
v 0.9 -0.0999999 -0.5
v 0.9 0.2 -0.5
v 1 -0.9 -0.5
v 1 -0.8 -0.5
v 1 -0.7 -0.5
v 1 -0.6 -0.5
v 1.1 -1.1 -0.5
v 1.1 -0.9 -0.5
v -0.8 -0.9 -0.6
v -0.8 -0.8 -0.6
v -0.6 -0.9 -0.6
v -0.6 -0.8 -0.6
v -0.5 -1.6 -0.6
v -0.5 -1.5 -0.6
v -0.5 -1.4 -0.6
v -0.5 -1 -0.6
v -0.5 -0.9 -0.6
v -0.5 -0.7 -0.6
v -0.5 2.38419e-07 -0.6
v -0.5 0.4 -0.6
v -0.4 -1.6 -0.6
v -0.4 -1.5 -0.6
v -0.4 -1.4 -0.6
v -0.4 -1 -0.6
v -0.4 -0.9 -0.6
v -0.4 -0.7 -0.6
v -0.4 0.3 -0.6
v -0.4 0.4 -0.6
v -0.4 0.5 -0.6
v -0.3 -0.4 -0.6
v -0.3 -0.0999999 -0.6
v -0.3 2.38419e-07 -0.6
v -0.3 0.3 -0.6
v -0.3 0.4 -0.6
v -0.3 0.5 -0.6
v -0.3 0.8 -0.6
v -0.2 -1.1 -0.6
v -0.2 -1 -0.6
v -0.2 -0.4 -0.6
v -0.2 -0.3 -0.6
v -0.2 0.8 -0.6
v -0.2 0.9 -0.6
v -0.2 1 -0.6
v -0.2 1.1 -0.6
v -0.2 1.2 -0.6
v -0.2 1.3 -0.6
v -0.1 -1.6 -0.6
v -0.1 -1.5 -0.6
v -0.1 -1.4 -0.6
v -0.1 -1.1 -0.6
v -0.1 -1 -0.6
v -0.1 -0.3 -0.6
v -0.1 -0.2 -0.6
v -0.1 -0.0999999 -0.6
v -0.1 0.2 -0.6
v -0.1 0.4 -0.6
v -0.1 0.5 -0.6
v -0.1 0.7 -0.6
v -0.1 0.9 -0.6
v -0.1 1 -0.6
v -0.1 1.1 -0.6
v -0.1 1.2 -0.6
v -0.1 1.3 -0.6
v -0.1 1.4 -0.6
v 0 -1.6 -0.6
v 0 -1.5 -0.6
v 0 -1.4 -0.6
v 0 0.7 -0.6
v 0 0.8 -0.6
v 0 0.9 -0.6
v 0 1 -0.6
v 0 1.3 -0.6
v 0 1.4 -0.6
v 0.1 -1.6 -0.6
v 0.1 -1.5 -0.6
v 0.1 -1.4 -0.6
v 0.1 0.7 -0.6
v 0.1 0.8 -0.6
v 0.1 0.9 -0.6
v 0.1 1 -0.6
v 0.1 1.3 -0.6
v 0.1 1.4 -0.6
v 0.2 -1.6 -0.6
v 0.2 -1.5 -0.6
v 0.2 -1.4 -0.6
v 0.2 -1.1 -0.6
v 0.2 -1 -0.6
v 0.2 -0.3 -0.6
v 0.2 -0.2 -0.6
v 0.2 -0.0999999 -0.6
v 0.2 0.2 -0.6
v 0.2 0.4 -0.6
v 0.2 0.5 -0.6
v 0.2 0.7 -0.6
v 0.2 0.9 -0.6
v 0.2 1 -0.6
v 0.2 1.1 -0.6
v 0.2 1.2 -0.6
v 0.2 1.3 -0.6
v 0.2 1.4 -0.6
v 0.3 -1.1 -0.6
v 0.3 -1 -0.6
v 0.3 -0.4 -0.6
v 0.3 -0.3 -0.6
v 0.3 0.8 -0.6
v 0.3 0.9 -0.6
v 0.3 1 -0.6
v 0.3 1.1 -0.6
v 0.3 1.2 -0.6
v 0.3 1.3 -0.6
v 0.4 -0.4 -0.6
v 0.4 -0.0999999 -0.6
v 0.4 2.38419e-07 -0.6
v 0.4 0.3 -0.6
v 0.4 0.4 -0.6
v 0.4 0.5 -0.6
v 0.4 0.8 -0.6
v 0.5 -1.6 -0.6
v 0.5 -1.5 -0.6
v 0.5 -1.4 -0.6
v 0.5 -1 -0.6
v 0.5 -0.9 -0.6
v 0.5 -0.7 -0.6
v 0.5 0.3 -0.6
v 0.5 0.4 -0.6
v 0.5 0.5 -0.6
v 0.6 -1.6 -0.6
v 0.6 -1.5 -0.6
v 0.6 -1.4 -0.6
v 0.6 -1 -0.6
v 0.6 -0.9 -0.6
v 0.6 -0.7 -0.6
v 0.6 2.38419e-07 -0.6
v 0.6 0.4 -0.6
v 0.7 -0.9 -0.6
v 0.7 -0.8 -0.6
v 0.9 -0.9 -0.6
v 0.9 -0.8 -0.6
v -0.8 -1.1 -0.7
v -0.8 -0.9 -0.7
v -0.6 -1.1 -0.7
v -0.6 -0.9 -0.7
v -0.4 -1.6 -0.7
v -0.4 -1.5 -0.7
v -0.4 -1.4 -0.7
v -0.4 -1 -0.7
v -0.4 -0.9 -0.7
v -0.4 -0.4 -0.7
v -0.3 -0.8 -0.7
v -0.3 -0.6 -0.7
v -0.3 -0.0999999 -0.7
v -0.3 0.4 -0.7
v -0.2 -1 -0.7
v -0.2 -0.9 -0.7
v -0.2 -0.8 -0.7
v -0.2 -0.6 -0.7
v -0.2 -0.5 -0.7
v -0.2 -0.4 -0.7
v -0.2 -0.3 -0.7
v -0.2 1.1 -0.7
v -0.2 1.2 -0.7
v -0.1 -1.6 -0.7
v -0.1 -1.5 -0.7
v -0.1 -1.4 -0.7
v -0.1 -0.5 -0.7
v -0.1 -0.4 -0.7
v -0.1 -0.3 -0.7
v -0.1 -0.2 -0.7
v -0.1 -0.0999999 -0.7
v -0.1 0.1 -0.7
v -0.1 0.3 -0.7
v -0.1 0.4 -0.7
v -0.1 0.7 -0.7
v -0.1 0.9 -0.7
v -0.1 1.1 -0.7
v -0.1 1.2 -0.7
v 0 -0.4 -0.7
v 0 -0.3 -0.7
v 0 0.3 -0.7
v 0 0.6 -0.7
v 0 0.7 -0.7
v 0 0.8 -0.7
v 0 0.9 -0.7
v 0 1 -0.7
v 0 1.1 -0.7
v 0 1.3 -0.7
v 0 1.4 -0.7
v 0.1 -0.4 -0.7
v 0.1 -0.3 -0.7
v 0.1 0.3 -0.7
v 0.1 0.6 -0.7
v 0.1 0.7 -0.7
v 0.1 0.8 -0.7
v 0.1 0.9 -0.7
v 0.1 1 -0.7
v 0.1 1.1 -0.7
v 0.1 1.3 -0.7
v 0.1 1.4 -0.7
v 0.2 -1.6 -0.7
v 0.2 -1.5 -0.7
v 0.2 -1.4 -0.7
v 0.2 -0.5 -0.7
v 0.2 -0.4 -0.7
v 0.2 -0.3 -0.7
v 0.2 -0.2 -0.7
v 0.2 -0.0999999 -0.7
v 0.2 0.1 -0.7
v 0.2 0.3 -0.7
v 0.2 0.4 -0.7
v 0.2 0.7 -0.7
v 0.2 0.9 -0.7
v 0.2 1.1 -0.7
v 0.2 1.2 -0.7
v 0.3 -1 -0.7
v 0.3 -0.9 -0.7
v 0.3 -0.8 -0.7
v 0.3 -0.6 -0.7
v 0.3 -0.5 -0.7
v 0.3 -0.4 -0.7
v 0.3 -0.3 -0.7
v 0.3 1.1 -0.7
v 0.3 1.2 -0.7
v 0.4 -0.8 -0.7
v 0.4 -0.6 -0.7
v 0.4 -0.0999999 -0.7
v 0.4 0.4 -0.7
v 0.5 -1.6 -0.7
v 0.5 -1.5 -0.7
v 0.5 -1.4 -0.7
v 0.5 -1 -0.7
v 0.5 -0.9 -0.7
v 0.5 -0.4 -0.7
v 0.7 -1.1 -0.7
v 0.7 -0.9 -0.7
v 0.9 -1.1 -0.7
v 0.9 -0.9 -0.7
v -0.3 -0.8 -0.8
v -0.3 -0.6 -0.8
v -0.2 -0.9 -0.8
v -0.2 -0.8 -0.8
v -0.2 -0.6 -0.8
v -0.2 -0.5 -0.8
v -0.1 -0.5 -0.8
v -0.1 -0.4 -0.8
v -0.1 0.1 -0.8
v -0.1 0.3 -0.8
v -0.1 1.1 -0.8
v -0.1 1.3 -0.8
v 0 -0.4 -0.8
v 0 -0.3 -0.8
v 0 0.3 -0.8
v 0 0.6 -0.8
v 0 1 -0.8
v 0 1.1 -0.8
v 0.1 -0.4 -0.8
v 0.1 -0.3 -0.8
v 0.1 0.3 -0.8
v 0.1 0.6 -0.8
v 0.1 1 -0.8
v 0.1 1.1 -0.8
v 0.2 -0.5 -0.8
v 0.2 -0.4 -0.8
v 0.2 0.1 -0.8
v 0.2 0.3 -0.8
v 0.2 1.1 -0.8
v 0.2 1.3 -0.8
v 0.3 -0.9 -0.8
v 0.3 -0.8 -0.8
v 0.3 -0.6 -0.8
v 0.3 -0.5 -0.8
v 0.4 -0.8 -0.8
v 0.4 -0.6 -0.8
v -0.4 -2 0.2
v -0.1 -2 0.2
v 0.2 -2 0.2
v 0.5 -2 0.2
v -0.4 -2 -0.5
v -0.1 -2 -0.5
v 0.2 -2 -0.5
v 0.5 -2 -0.5
v -0.4 -1.6 0
v -0.1 -1.6 0
v 0.2 -1.6 0
v 0.5 -1.6 0
v -0.5 -1.6 -0.1
v -0.4 -1.6 -0.1
v -0.1 -1.6 -0.1
v 0 -1.6 -0.1
v 0.1 -1.6 -0.1
v 0.2 -1.6 -0.1
v 0.5 -1.6 -0.1
v 0.6 -1.6 -0.1
v -0.4 -1.6 -0.2
v -0.1 -1.6 -0.2
v 0.2 -1.6 -0.2
v 0.5 -1.6 -0.2
v -0.4 -1.6 -0.5
v -0.1 -1.6 -0.5
v 0.2 -1.6 -0.5
v 0.5 -1.6 -0.5
v -0.5 -1.6 -0.6
v -0.4 -1.6 -0.6
v -0.1 -1.6 -0.6
v 0 -1.6 -0.6
v 0.1 -1.6 -0.6
v 0.2 -1.6 -0.6
v 0.5 -1.6 -0.6
v 0.6 -1.6 -0.6
v -0.4 -1.6 -0.7
v -0.1 -1.6 -0.7
v 0.2 -1.6 -0.7
v 0.5 -1.6 -0.7
v -1 -1.1 0
v -0.8 -1.1 0
v 0.9 -1.1 0
v 1.1 -1.1 0
v -1 -1.1 -0.2
v -0.8 -1.1 -0.2
v -0.1 -1.1 -0.2
v 0 -1.1 -0.2
v 0.1 -1.1 -0.2
v 0.2 -1.1 -0.2
v 0.9 -1.1 -0.2
v 1.1 -1.1 -0.2
v -1 -1.1 -0.3
v -0.8 -1.1 -0.3
v 0.9 -1.1 -0.3
v 1.1 -1.1 -0.3
v -1 -1.1 -0.5
v -0.8 -1.1 -0.5
v -0.6 -1.1 -0.5
v -0.1 -1.1 -0.5
v 0 -1.1 -0.5
v 0.1 -1.1 -0.5
v 0.2 -1.1 -0.5
v 0.7 -1.1 -0.5
v 0.9 -1.1 -0.5
v 1.1 -1.1 -0.5
v -0.8 -1.1 -0.7
v -0.6 -1.1 -0.7
v 0.7 -1.1 -0.7
v 0.9 -1.1 -0.7
v -0.8 -1 0.1
v -0.6 -1 0.1
v 0.7 -1 0.1
v 0.9 -1 0.1
v -0.8 -1 0
v -0.4 -1 0
v -0.2 -1 0
v 0.3 -1 0
v 0.5 -1 0
v 0.9 -1 0
v -0.8 -1 -0.1
v -0.6 -1 -0.1
v -0.5 -1 -0.1
v -0.4 -1 -0.1
v -0.2 -1 -0.1
v -0.1 -1 -0.1
v 0.2 -1 -0.1
v 0.3 -1 -0.1
v 0.5 -1 -0.1
v 0.6 -1 -0.1
v 0.7 -1 -0.1
v 0.9 -1 -0.1
v -0.9 -1 -0.2
v -0.8 -1 -0.2
v -0.1 -1 -0.2
v 0 -1 -0.2
v 0.1 -1 -0.2
v 0.2 -1 -0.2
v 0.9 -1 -0.2
v 1 -1 -0.2
v -0.9 -1 -0.3
v -0.8 -1 -0.3
v 0.9 -1 -0.3
v 1 -1 -0.3
v -0.1 -1 -0.5
v 0 -1 -0.5
v 0.1 -1 -0.5
v 0.2 -1 -0.5
v -0.5 -1 -0.6
v -0.4 -1 -0.6
v -0.2 -1 -0.6
v -0.1 -1 -0.6
v 0.2 -1 -0.6
v 0.3 -1 -0.6
v 0.5 -1 -0.6
v 0.6 -1 -0.6
v -0.4 -1 -0.7
v -0.2 -1 -0.7
v 0.3 -1 -0.7
v 0.5 -1 -0.7
v -0.1 -0.9 0.1
v 0.2 -0.9 0.1
v -0.1 -0.9 0
v 0.2 -0.9 0
v -0.8 -0.9 -0.1
v -0.6 -0.9 -0.1
v -0.5 -0.9 -0.1
v 0.6 -0.9 -0.1
v 0.7 -0.9 -0.1
v 0.9 -0.9 -0.1
v -0.6 -0.9 -0.3
v -0.5 -0.9 -0.3
v 0.6 -0.9 -0.4
v 0.7 -0.9 -0.4
v -0.8 -0.9 -0.5
v -0.6 -0.9 -0.5
v 0.7 -0.9 -0.5
v 0.9 -0.9 -0.5
v -0.2 -0.9 -0.7
v 0.3 -0.9 -0.7
v -0.2 -0.9 -0.8
v 0.3 -0.9 -0.8
v -0.1 -0.8 0.2
v 0.2 -0.8 0.2
v -0.2 -0.8 0.1
v -0.1 -0.8 0.1
v 0.2 -0.8 0.1
v 0.3 -0.8 0.1
v -0.2 -0.8 0
v -0.1 -0.8 0
v 0.2 -0.8 0
v 0.3 -0.8 0
v -0.6 -0.8 -0.3
v -0.5 -0.8 -0.3
v -0.6 -0.8 -0.4
v -0.5 -0.8 -0.4
v -0.3 -0.8 -0.7
v -0.2 -0.8 -0.7
v 0.3 -0.8 -0.7
v 0.4 -0.8 -0.7
v -0.3 -0.8 -0.8
v -0.2 -0.8 -0.8
v 0.3 -0.8 -0.8
v 0.4 -0.8 -0.8
v -0.6 -0.7 -0.1
v -0.5 -0.7 -0.1
v 0.6 -0.7 -0.1
v 0.7 -0.7 -0.1
v -0.6 -0.7 -0.2
v -0.5 -0.7 -0.2
v 0.6 -0.7 -0.2
v 0.7 -0.7 -0.2
v -0.9 -0.7 -0.4
v -0.8 -0.7 -0.4
v -0.6 -0.7 -0.4
v -0.5 -0.7 -0.4
v 0.6 -0.7 -0.4
v 0.7 -0.7 -0.4
v 0.9 -0.7 -0.4
v 1 -0.7 -0.4
v -0.9 -0.7 -0.5
v -0.8 -0.7 -0.5
v -0.6 -0.7 -0.5
v -0.5 -0.7 -0.5
v 0.6 -0.7 -0.5
v 0.7 -0.7 -0.5
v 0.9 -0.7 -0.5
v 1 -0.7 -0.5
v -0.2 -0.3 0
v -0.1 -0.3 0
v 0.2 -0.3 0
v 0.3 -0.3 0
v -0.2 -0.3 -0.1
v -0.1 -0.3 -0.1
v 0.2 -0.3 -0.1
v 0.3 -0.3 -0.1
v -0.2 -0.0999999 0
v -0.1 -0.0999999 0
v 0.2 -0.0999999 0
v 0.3 -0.0999999 0
v -0.2 -0.0999999 -0.1
v -0.1 -0.0999999 -0.1
v 0.2 -0.0999999 -0.1
v 0.3 -0.0999999 -0.1
v -0.4 -0.0999999 -0.2
v -0.3 -0.0999999 -0.2
v 0.4 -0.0999999 -0.2
v 0.5 -0.0999999 -0.2
v -0.4 -0.0999999 -0.3
v -0.3 -0.0999999 -0.3
v 0.4 -0.0999999 -0.3
v 0.5 -0.0999999 -0.3
v -0.4 -0.0999999 -0.4
v -0.3 -0.0999999 -0.4
v 0.4 -0.0999999 -0.4
v 0.5 -0.0999999 -0.4
v -0.4 -0.0999999 -0.5
v -0.3 -0.0999999 -0.5
v 0.4 -0.0999999 -0.5
v 0.5 -0.0999999 -0.5
v -0.3 -0.0999999 -0.6
v -0.1 -0.0999999 -0.6
v 0.2 -0.0999999 -0.6
v 0.4 -0.0999999 -0.6
v -0.3 -0.0999999 -0.7
v -0.1 -0.0999999 -0.7
v 0.2 -0.0999999 -0.7
v 0.4 -0.0999999 -0.7
v -0.5 2.38419e-07 0.2
v -0.4 2.38419e-07 0.2
v 0.5 2.38419e-07 0.2
v 0.6 2.38419e-07 0.2
v -0.5 2.38419e-07 0
v -0.4 2.38419e-07 0
v 0.5 2.38419e-07 0
v 0.6 2.38419e-07 0
v -0.4 2.38419e-07 -0.1
v -0.3 2.38419e-07 -0.1
v 0.4 2.38419e-07 -0.1
v 0.5 2.38419e-07 -0.1
v -0.5 2.38419e-07 -0.2
v -0.4 2.38419e-07 -0.2
v -0.3 2.38419e-07 -0.2
v 0.4 2.38419e-07 -0.2
v 0.5 2.38419e-07 -0.2
v 0.6 2.38419e-07 -0.2
v -0.4 2.38419e-07 -0.3
v -0.3 2.38419e-07 -0.3
v 0.4 2.38419e-07 -0.3
v 0.5 2.38419e-07 -0.3
v -0.4 2.38419e-07 -0.4
v -0.3 2.38419e-07 -0.4
v 0.4 2.38419e-07 -0.4
v 0.5 2.38419e-07 -0.4
v -0.5 2.38419e-07 -0.5
v -0.4 2.38419e-07 -0.5
v -0.3 2.38419e-07 -0.5
v 0.4 2.38419e-07 -0.5
v 0.5 2.38419e-07 -0.5
v 0.6 2.38419e-07 -0.5
v -0.5 2.38419e-07 -0.6
v -0.3 2.38419e-07 -0.6
v 0.4 2.38419e-07 -0.6
v 0.6 2.38419e-07 -0.6
v -0.1 0.1 -0.7
v 0.2 0.1 -0.7
v -0.1 0.1 -0.8
v 0.2 0.1 -0.8
v -0.4 0.2 0.2
v -0.3 0.2 0.2
v 0.4 0.2 0.2
v 0.5 0.2 0.2
v -0.4 0.2 0
v -0.3 0.2 0
v -0.2 0.2 0
v 0.3 0.2 0
v 0.4 0.2 0
v 0.5 0.2 0
v -0.3 0.2 -0.1
v -0.2 0.2 -0.1
v 0.3 0.2 -0.1
v 0.4 0.2 -0.1
v -0.1 0.2 -0.6
v 0.2 0.2 -0.6
v -0.1 0.2 -0.7
v 0.2 0.2 -0.7
v -0.2 0.3 0.3
v 0.3 0.3 0.3
v -0.2 0.3 0.2
v 0.3 0.3 0.2
v -0.4 0.3 0
v -0.3 0.3 0
v -0.2 0.3 0
v -0.1 0.3 0
v 0.2 0.3 0
v 0.3 0.3 0
v 0.4 0.3 0
v 0.5 0.3 0
v -0.4 0.3 -0.1
v -0.3 0.3 -0.1
v -0.1 0.3 -0.1
v 0.2 0.3 -0.1
v 0.4 0.3 -0.1
v 0.5 0.3 -0.1
v 0 0.4 0.4
v 0.1 0.4 0.4
v -0.3 0.4 0.3
v -0.2 0.4 0.3
v 0 0.4 0.3
v 0.1 0.4 0.3
v 0.3 0.4 0.3
v 0.4 0.4 0.3
v -0.3 0.4 0.2
v -0.2 0.4 0.2
v 0.3 0.4 0.2
v 0.4 0.4 0.2
v -0.5 0.4 0
v -0.4 0.4 0
v -0.3 0.4 0
v -0.2 0.4 0
v 0.3 0.4 0
v 0.4 0.4 0
v 0.5 0.4 0
v 0.6 0.4 0
v -0.5 0.4 -0.1
v -0.4 0.4 -0.1
v 0.5 0.4 -0.1
v 0.6 0.4 -0.1
v -0.2 0.5 0.3
v 0 0.5 0.3
v 0.1 0.5 0.3
v 0.3 0.5 0.3
v -0.2 0.5 0.2
v 0.3 0.5 0.2
v -0.4 0.6 -0.4
v -0.3 0.6 -0.4
v 0.4 0.6 -0.4
v 0.5 0.6 -0.4
v -0.4 0.6 -0.5
v -0.3 0.6 -0.5
v 0.4 0.6 -0.5
v 0.5 0.6 -0.5
v -0.2 0.7 0.3
v -0.1 0.7 0.3
v 0 0.7 0.3
v 0.1 0.7 0.3
v 0.2 0.7 0.3
v 0.3 0.7 0.3
v -0.2 0.7 0.2
v -0.1 0.7 0.2
v 0 0.7 0.2
v 0.1 0.7 0.2
v 0.2 0.7 0.2
v 0.3 0.7 0.2
v -0.5 0.9 0.2
v -0.4 0.9 0.2
v 0.5 0.9 0.2
v 0.6 0.9 0.2
v -0.5 0.9 0
v -0.4 0.9 0
v 0.5 0.9 0
v 0.6 0.9 0
v -0.2 0.9 -0.4
v -0.1 0.9 -0.4
v 0.2 0.9 -0.4
v 0.3 0.9 -0.4
v -0.2 0.9 -0.5
v -0.1 0.9 -0.5
v 0.2 0.9 -0.5
v 0.3 0.9 -0.5
v -0.1 0.9 -0.6
v 0 0.9 -0.6
v 0.1 0.9 -0.6
v 0.2 0.9 -0.6
v -0.1 0.9 -0.7
v 0 0.9 -0.7
v 0.1 0.9 -0.7
v 0.2 0.9 -0.7
v -0.5 1 -0.1
v -0.4 1 -0.1
v 0.5 1 -0.1
v 0.6 1 -0.1
v -0.4 1 -0.2
v -0.3 1 -0.2
v 0.4 1 -0.2
v 0.5 1 -0.2
v -0.5 1 -0.4
v -0.4 1 -0.4
v 0.5 1 -0.4
v 0.6 1 -0.4
v -0.4 1 -0.5
v -0.3 1 -0.5
v -0.2 1 -0.5
v -0.1 1 -0.5
v 0.2 1 -0.5
v 0.3 1 -0.5
v 0.4 1 -0.5
v 0.5 1 -0.5
v -0.2 1 -0.6
v -0.1 1 -0.6
v 0 1 -0.6
v 0.1 1 -0.6
v 0.2 1 -0.6
v 0.3 1 -0.6
v 0 1 -0.7
v 0.1 1 -0.7
v 0 1 -0.8
v 0.1 1 -0.8
v -0.2 1.1 -0.6
v -0.1 1.1 -0.6
v 0.2 1.1 -0.6
v 0.3 1.1 -0.6
v -0.2 1.1 -0.7
v -0.1 1.1 -0.7
v 0 1.1 -0.7
v 0.1 1.1 -0.7
v 0.2 1.1 -0.7
v 0.3 1.1 -0.7
v -0.1 1.1 -0.8
v 0 1.1 -0.8
v 0.1 1.1 -0.8
v 0.2 1.1 -0.8
v -0.4 -1.8 -0.1
v -0.1 -1.8 -0.1
v 0.2 -1.8 -0.1
v 0.5 -1.8 -0.1
v -0.4 -1.8 -0.2
v -0.1 -1.8 -0.2
v 0.2 -1.8 -0.2
v 0.5 -1.8 -0.2
v -0.4 -1.7 0.2
v -0.1 -1.7 0.2
v 0.2 -1.7 0.2
v 0.5 -1.7 0.2
v -0.4 -1.7 -0.1
v -0.1 -1.7 -0.1
v 0.2 -1.7 -0.1
v 0.5 -1.7 -0.1
v -0.4 -1.4 0
v -0.1 -1.4 0
v 0.2 -1.4 0
v 0.5 -1.4 0
v -0.5 -1.4 -0.1
v -0.4 -1.4 -0.1
v -0.1 -1.4 -0.1
v 0 -1.4 -0.1
v 0.1 -1.4 -0.1
v 0.2 -1.4 -0.1
v 0.5 -1.4 -0.1
v 0.6 -1.4 -0.1
v -0.5 -1.4 -0.6
v -0.4 -1.4 -0.6
v -0.1 -1.4 -0.6
v 0 -1.4 -0.6
v 0.1 -1.4 -0.6
v 0.2 -1.4 -0.6
v 0.5 -1.4 -0.6
v 0.6 -1.4 -0.6
v -0.4 -1.4 -0.7
v -0.1 -1.4 -0.7
v 0.2 -1.4 -0.7
v 0.5 -1.4 -0.7
v -1 -0.9 0
v -0.8 -0.9 0
v 0.9 -0.9 0
v 1.1 -0.9 0
v -0.9 -0.9 -0.1
v -0.8 -0.9 -0.1
v 0.9 -0.9 -0.1
v 1 -0.9 -0.1
v -1 -0.9 -0.2
v -0.9 -0.9 -0.2
v 1 -0.9 -0.2
v 1.1 -0.9 -0.2
v -1 -0.9 -0.3
v -0.9 -0.9 -0.3
v 1 -0.9 -0.3
v 1.1 -0.9 -0.3
v -1 -0.9 -0.5
v -0.9 -0.9 -0.5
v 1 -0.9 -0.5
v 1.1 -0.9 -0.5
v -0.8 -0.9 -0.6
v -0.6 -0.9 -0.6
v 0.7 -0.9 -0.6
v 0.9 -0.9 -0.6
v -0.8 -0.9 -0.7
v -0.6 -0.9 -0.7
v 0.7 -0.9 -0.7
v 0.9 -0.9 -0.7
v -0.8 -0.8 0.1
v -0.6 -0.8 0.1
v 0.7 -0.8 0.1
v 0.9 -0.8 0.1
v -0.9 -0.8 -0.1
v -0.8 -0.8 -0.1
v -0.6 -0.8 -0.1
v -0.5 -0.8 -0.1
v 0.6 -0.8 -0.1
v 0.7 -0.8 -0.1
v 0.9 -0.8 -0.1
v 1 -0.8 -0.1
v -0.9 -0.8 -0.2
v -0.8 -0.8 -0.2
v -0.6 -0.8 -0.2
v -0.5 -0.8 -0.2
v 0.6 -0.8 -0.2
v 0.7 -0.8 -0.2
v 0.9 -0.8 -0.2
v 1 -0.8 -0.2
v -0.9 -0.8 -0.4
v -0.8 -0.8 -0.4
v 0.9 -0.8 -0.4
v 1 -0.8 -0.4
v -0.9 -0.8 -0.5
v -0.8 -0.8 -0.5
v -0.6 -0.8 -0.5
v 0.7 -0.8 -0.5
v 0.9 -0.8 -0.5
v 1 -0.8 -0.5
v -0.8 -0.8 -0.6
v -0.6 -0.8 -0.6
v 0.7 -0.8 -0.6
v 0.9 -0.8 -0.6
v -0.1 -0.7 0.1
v 0.2 -0.7 0.1
v -0.1 -0.7 0
v 0.2 -0.7 0
v -0.5 -0.7 -0.1
v -0.4 -0.7 -0.1
v 0.5 -0.7 -0.1
v 0.6 -0.7 -0.1
v -0.5 -0.7 -0.2
v -0.4 -0.7 -0.2
v 0.5 -0.7 -0.2
v 0.6 -0.7 -0.2
v -0.5 -0.7 -0.5
v -0.4 -0.7 -0.5
v 0.5 -0.7 -0.5
v 0.6 -0.7 -0.5
v -0.5 -0.7 -0.6
v -0.4 -0.7 -0.6
v 0.5 -0.7 -0.6
v 0.6 -0.7 -0.6
v -0.8 -0.6 -0.1
v -0.5 -0.6 -0.1
v 0.6 -0.6 -0.1
v 0.9 -0.6 -0.1
v -0.9 -0.6 -0.2
v -0.8 -0.6 -0.2
v -0.5 -0.6 -0.2
v -0.4 -0.6 -0.2
v 0.5 -0.6 -0.2
v 0.6 -0.6 -0.2
v 0.9 -0.6 -0.2
v 1 -0.6 -0.2
v -0.9 -0.6 -0.5
v -0.8 -0.6 -0.5
v -0.5 -0.6 -0.5
v -0.4 -0.6 -0.5
v 0.5 -0.6 -0.5
v 0.6 -0.6 -0.5
v 0.9 -0.6 -0.5
v 1 -0.6 -0.5
v -0.3 -0.6 -0.7
v -0.2 -0.6 -0.7
v 0.3 -0.6 -0.7
v 0.4 -0.6 -0.7
v -0.3 -0.6 -0.8
v -0.2 -0.6 -0.8
v 0.3 -0.6 -0.8
v 0.4 -0.6 -0.8
v -0.1 -0.5 0.2
v 0.2 -0.5 0.2
v -0.2 -0.5 0.1
v -0.1 -0.5 0.1
v 0.2 -0.5 0.1
v 0.3 -0.5 0.1
v -0.2 -0.5 0
v -0.1 -0.5 0
v 0.2 -0.5 0
v 0.3 -0.5 0
v -0.2 -0.5 -0.7
v -0.1 -0.5 -0.7
v 0.2 -0.5 -0.7
v 0.3 -0.5 -0.7
v -0.2 -0.5 -0.8
v -0.1 -0.5 -0.8
v 0.2 -0.5 -0.8
v 0.3 -0.5 -0.8
v -0.4 -0.4 0
v -0.1 -0.4 0
v 0.2 -0.4 0
v 0.5 -0.4 0
v -0.3 -0.4 -0.1
v -0.1 -0.4 -0.1
v 0.2 -0.4 -0.1
v 0.4 -0.4 -0.1
v -0.4 -0.4 -0.2
v -0.3 -0.4 -0.2
v 0.4 -0.4 -0.2
v 0.5 -0.4 -0.2
v -0.4 -0.4 -0.5
v -0.3 -0.4 -0.5
v 0.4 -0.4 -0.5
v 0.5 -0.4 -0.5
v -0.3 -0.4 -0.6
v -0.2 -0.4 -0.6
v 0.3 -0.4 -0.6
v 0.4 -0.4 -0.6
v -0.4 -0.4 -0.7
v -0.2 -0.4 -0.7
v -0.1 -0.4 -0.7
v 0 -0.4 -0.7
v 0.1 -0.4 -0.7
v 0.2 -0.4 -0.7
v 0.3 -0.4 -0.7
v 0.5 -0.4 -0.7
v -0.1 -0.4 -0.8
v 0 -0.4 -0.8
v 0.1 -0.4 -0.8
v 0.2 -0.4 -0.8
v -0.1 -0.3 0
v 0.2 -0.3 0
v -0.1 -0.3 -0.1
v 0.2 -0.3 -0.1
v -0.4 -0.3 -0.2
v -0.3 -0.3 -0.2
v 0.4 -0.3 -0.2
v 0.5 -0.3 -0.2
v -0.4 -0.3 -0.5
v -0.3 -0.3 -0.5
v 0.4 -0.3 -0.5
v 0.5 -0.3 -0.5
v -0.2 -0.3 -0.6
v -0.1 -0.3 -0.6
v 0.2 -0.3 -0.6
v 0.3 -0.3 -0.6
v -0.2 -0.3 -0.7
v -0.1 -0.3 -0.7
v 0 -0.3 -0.7
v 0.1 -0.3 -0.7
v 0.2 -0.3 -0.7
v 0.3 -0.3 -0.7
v 0 -0.3 -0.8
v 0.1 -0.3 -0.8
v -0.2 -0.2 0
v -0.1 -0.2 0
v 0.2 -0.2 0
v 0.3 -0.2 0
v -0.2 -0.2 -0.1
v -0.1 -0.2 -0.1
v 0.2 -0.2 -0.1
v 0.3 -0.2 -0.1
v -0.1 -0.2 -0.6
v 0.2 -0.2 -0.6
v -0.1 -0.2 -0.7
v 0.2 -0.2 -0.7
v -0.8 0.2 -0.2
v -0.7 0.2 -0.2
v 0.8 0.2 -0.2
v 0.9 0.2 -0.2
v -0.8 0.2 -0.5
v -0.7 0.2 -0.5
v 0.8 0.2 -0.5
v 0.9 0.2 -0.5
v -0.7 0.3 -0.2
v -0.5 0.3 -0.2
v 0.6 0.3 -0.2
v 0.8 0.3 -0.2
v -0.7 0.3 -0.5
v -0.5 0.3 -0.5
v 0.6 0.3 -0.5
v 0.8 0.3 -0.5
v -0.1 0.3 -0.7
v 0 0.3 -0.7
v 0.1 0.3 -0.7
v 0.2 0.3 -0.7
v -0.1 0.3 -0.8
v 0 0.3 -0.8
v 0.1 0.3 -0.8
v 0.2 0.3 -0.8
v -0.2 0.4 0.3
v 0 0.4 0.3
v 0.1 0.4 0.3
v 0.3 0.4 0.3
v -0.2 0.4 0.2
v 0.3 0.4 0.2
v -0.5 0.4 -0.2
v -0.4 0.4 -0.2
v 0.5 0.4 -0.2
v 0.6 0.4 -0.2
v -0.5 0.4 -0.6
v -0.4 0.4 -0.6
v -0.3 0.4 -0.6
v -0.1 0.4 -0.6
v 0.2 0.4 -0.6
v 0.4 0.4 -0.6
v 0.5 0.4 -0.6
v 0.6 0.4 -0.6
v -0.3 0.4 -0.7
v -0.1 0.4 -0.7
v 0.2 0.4 -0.7
v 0.4 0.4 -0.7
v -0.5 0.5 0.2
v -0.4 0.5 0.2
v 0.5 0.5 0.2
v 0.6 0.5 0.2
v -0.5 0.5 0
v -0.4 0.5 0
v 0.5 0.5 0
v 0.6 0.5 0
v -0.4 0.5 -0.4
v -0.3 0.5 -0.4
v 0.4 0.5 -0.4
v 0.5 0.5 -0.4
v -0.4 0.5 -0.6
v -0.3 0.5 -0.6
v 0.4 0.5 -0.6
v 0.5 0.5 -0.6
v -0.3 0.6 0.3
v 0 0.6 0.3
v 0.1 0.6 0.3
v 0.4 0.6 0.3
v -0.3 0.6 0.2
v 0 0.6 0.2
v 0.1 0.6 0.2
v 0.4 0.6 0.2
v 0 0.6 -0.7
v 0.1 0.6 -0.7
v 0 0.6 -0.8
v 0.1 0.6 -0.8
v 0 0.7 0.4
v 0.1 0.7 0.4
v 0 0.7 0.3
v 0.1 0.7 0.3
v -0.5 0.7 0
v -0.4 0.7 0
v 0.5 0.7 0
v 0.6 0.7 0
v -0.5 0.7 -0.1
v -0.4 0.7 -0.1
v 0.5 0.7 -0.1
v 0.6 0.7 -0.1
v -0.1 0.7 -0.6
v 0 0.7 -0.6
v 0.1 0.7 -0.6
v 0.2 0.7 -0.6
v -0.1 0.7 -0.7
v 0 0.7 -0.7
v 0.1 0.7 -0.7
v 0.2 0.7 -0.7
v 0 0.8 0.3
v 0.1 0.8 0.3
v 0 0.8 0.2
v 0.1 0.8 0.2
v -0.2 0.8 -0.4
v -0.1 0.8 -0.4
v 0.2 0.8 -0.4
v 0.3 0.8 -0.4
v -0.3 0.8 -0.5
v -0.2 0.8 -0.5
v -0.1 0.8 -0.5
v 0.2 0.8 -0.5
v 0.3 0.8 -0.5
v 0.4 0.8 -0.5
v -0.3 0.8 -0.6
v -0.2 0.8 -0.6
v 0 0.8 -0.6
v 0.1 0.8 -0.6
v 0.3 0.8 -0.6
v 0.4 0.8 -0.6
v 0 0.8 -0.7
v 0.1 0.8 -0.7
v -0.2 0.9 0.3
v 0 0.9 0.3
v 0.1 0.9 0.3
v 0.3 0.9 0.3
v -0.2 0.9 0.2
v 0 0.9 0.2
v 0.1 0.9 0.2
v 0.3 0.9 0.2
v -0.4 0.9 -0.2
v -0.3 0.9 -0.2
v 0.4 0.9 -0.2
v 0.5 0.9 -0.2
v -0.4 0.9 -0.5
v -0.3 0.9 -0.5
v -0.2 0.9 -0.5
v -0.1 0.9 -0.5
v 0.2 0.9 -0.5
v 0.3 0.9 -0.5
v 0.4 0.9 -0.5
v 0.5 0.9 -0.5
v -0.2 0.9 -0.6
v -0.1 0.9 -0.6
v 0.2 0.9 -0.6
v 0.3 0.9 -0.6
v -0.5 1.1 0.2
v -0.3 1.1 0.2
v 0.4 1.1 0.2
v 0.6 1.1 0.2
v -0.4 1.1 0.1
v -0.3 1.1 0.1
v 0.4 1.1 0.1
v 0.5 1.1 0.1
v -0.5 1.1 0
v -0.4 1.1 0
v 0.5 1.1 0
v 0.6 1.1 0
v -0.3 1.2 0.2
v 0.4 1.2 0.2
v -0.4 1.2 0.1
v -0.3 1.2 0.1
v 0.4 1.2 0.1
v 0.5 1.2 0.1
v -0.5 1.2 -0.1
v -0.4 1.2 -0.1
v 0.5 1.2 -0.1
v 0.6 1.2 -0.1
v -0.1 1.2 -0.2
v 0.2 1.2 -0.2
v -0.3 1.2 -0.3
v -0.2 1.2 -0.3
v -0.1 1.2 -0.3
v 0.2 1.2 -0.3
v 0.3 1.2 -0.3
v 0.4 1.2 -0.3
v -0.5 1.2 -0.4
v -0.4 1.2 -0.4
v 0.5 1.2 -0.4
v 0.6 1.2 -0.4
v -0.4 1.2 -0.5
v -0.2 1.2 -0.5
v 0.3 1.2 -0.5
v 0.5 1.2 -0.5
v -0.2 1.2 -0.6
v -0.1 1.2 -0.6
v 0.2 1.2 -0.6
v 0.3 1.2 -0.6
v -0.2 1.2 -0.7
v -0.1 1.2 -0.7
v 0.2 1.2 -0.7
v 0.3 1.2 -0.7
v -0.1 1.3 -0.2
v 0.2 1.3 -0.2
v -0.2 1.3 -0.3
v -0.1 1.3 -0.3
v 0 1.3 -0.3
v 0.1 1.3 -0.3
v 0.2 1.3 -0.3
v 0.3 1.3 -0.3
v -0.1 1.3 -0.4
v 0 1.3 -0.4
v 0.1 1.3 -0.4
v 0.2 1.3 -0.4
v -0.2 1.3 -0.6
v -0.1 1.3 -0.6
v 0 1.3 -0.6
v 0.1 1.3 -0.6
v 0.2 1.3 -0.6
v 0.3 1.3 -0.6
v 0 1.3 -0.7
v 0.1 1.3 -0.7
v -0.1 1.3 -0.8
v 0.2 1.3 -0.8
v 0 1.4 -0.3
v 0.1 1.4 -0.3
v -0.1 1.4 -0.4
v 0 1.4 -0.4
v 0.1 1.4 -0.4
v 0.2 1.4 -0.4
v -0.1 1.4 -0.6
v 0 1.4 -0.6
v 0.1 1.4 -0.6
v 0.2 1.4 -0.6
v 0 1.4 -0.7
v 0.1 1.4 -0.7

# faces
f 5/5/1 2/5/1 1/5/1
f 6/5/1 2/5/1 5/5/1
f 7/5/1 4/5/1 3/5/1
f 8/5/1 4/5/1 7/5/1
f 12/5/1 10/5/1 9/5/1
f 13/5/1 10/5/1 12/5/1
f 15/5/1 12/5/1 11/5/1
f 15/5/1 14/5/1 13/5/1
f 15/5/1 13/5/1 12/5/1
f 16/5/1 14/5/1 15/5/1
f 17/5/1 14/5/1 16/5/1
f 18/5/1 14/5/1 17/5/1
f 19/10/1 17/10/1 16/10/1
f 20/10/1 17/10/1 19/10/1
f 22/5/1 20/5/1 19/5/1
f 22/5/1 21/5/1 20/5/1
f 23/5/1 21/5/1 22/5/1
f 28/5/1 27/5/1 26/5/1
f 30/5/1 25/5/1 24/5/1
f 31/5/1 25/5/1 30/5/1
f 32/5/1 29/5/1 28/5/1
f 32/5/1 28/5/1 26/5/1
f 33/5/1 29/5/1 32/5/1
f 36/5/1 30/5/1 24/5/1
f 37/5/1 30/5/1 36/5/1
f 38/10/1 34/10/1 33/10/1
f 39/10/1 34/10/1 38/10/1
f 40/10/1 36/10/1 35/10/1
f 41/10/1 36/10/1 40/10/1
f 42/5/1 39/5/1 38/5/1
f 43/5/1 39/5/1 42/5/1
f 45/8/1 44/8/1 43/8/1
f 46/8/1 44/8/1 45/8/1
f 49/8/1 48/8/1 47/8/1
f 50/8/1 48/8/1 49/8/1
f 53/2/1 52/2/1 51/2/1
f 54/2/1 52/2/1 53/2/1
f 55/1/1 54/1/1 53/1/1
f 56/1/1 54/1/1 55/1/1
f 59/2/1 58/2/1 57/2/1
f 60/2/1 58/2/1 59/2/1
f 61/2/1 58/2/1 60/2/1
f 64/1/1 61/1/1 60/1/1
f 65/1/1 61/1/1 64/1/1
f 66/1/1 63/1/1 62/1/1
f 67/1/1 63/1/1 66/1/1
f 68/1/1 61/1/1 65/1/1
f 69/1/1 61/1/1 68/1/1
f 70/1/1 61/1/1 69/1/1
f 76/8/1 74/8/1 73/8/1
f 77/7/1 72/7/1 71/7/1
f 79/8/1 76/8/1 75/8/1
f 80/8/1 74/8/1 76/8/1
f 80/8/1 76/8/1 79/8/1
f 81/7/1 78/7/1 77/7/1
f 81/7/1 77/7/1 71/7/1
f 82/7/1 78/7/1 81/7/1
f 83/7/1 78/7/1 82/7/1
f 84/7/1 78/7/1 83/7/1
f 89/7/1 86/7/1 85/7/1
f 90/7/1 86/7/1 89/7/1
f 91/7/1 88/7/1 87/7/1
f 92/7/1 88/7/1 91/7/1
f 95/6/1 94/6/1 93/6/1
f 96/6/1 94/6/1 95/6/1
f 97/6/1 95/6/1 93/6/1
f 98/6/1 95/6/1 97/6/1
f 101/6/1 94/6/1 96/6/1
f 102/6/1 94/6/1 101/6/1
f 105/2/1 100/2/1 99/2/1
f 106/2/1 100/2/1 105/2/1
f 107/2/1 104/2/1 103/2/1
f 108/2/1 104/2/1 107/2/1
f 109/1/1 106/1/1 105/1/1
f 110/1/1 106/1/1 109/1/1
f 111/1/1 108/1/1 107/1/1
f 112/1/1 108/1/1 111/1/1
f 114/1/1 111/1/1 110/1/1
f 115/1/1 111/1/1 114/1/1
f 117/2/1 114/2/1 113/2/1
f 118/2/1 114/2/1 117/2/1
f 119/2/1 116/2/1 115/2/1
f 120/2/1 116/2/1 119/2/1
f 121/1/1 118/1/1 117/1/1
f 124/1/1 120/1/1 119/1/1
f 125/1/1 122/1/1 121/1/1
f 126/1/1 124/1/1 123/1/1
f 127/1/1 125/1/1 121/1/1
f 127/1/1 126/1/1 125/1/1
f 127/1/1 121/1/1 117/1/1
f 128/1/1 126/1/1 127/1/1
f 129/1/1 124/1/1 126/1/1
f 129/1/1 126/1/1 128/1/1
f 130/1/1 120/1/1 124/1/1
f 130/1/1 124/1/1 129/1/1
f 131/1/1 129/1/1 128/1/1
f 132/1/1 129/1/1 131/1/1
f 138/7/1 134/7/1 133/7/1
f 139/7/1 134/7/1 138/7/1
f 140/7/1 136/7/1 135/7/1
f 141/7/1 136/7/1 140/7/1
f 143/8/1 138/8/1 137/8/1
f 144/8/1 138/8/1 143/8/1
f 145/1/1 143/1/1 142/1/1
f 145/1/1 144/1/1 143/1/1
f 146/1/1 144/1/1 145/1/1
f 147/1/1 144/1/1 146/1/1
f 151/1/1 147/1/1 146/1/1
f 151/1/1 148/1/1 147/1/1
f 152/1/1 148/1/1 151/1/1
f 153/1/1 148/1/1 152/1/1
f 154/7/1 152/7/1 151/7/1
f 156/7/1 150/7/1 149/7/1
f 157/7/1 155/7/1 154/7/1
f 157/7/1 154/7/1 151/7/1
f 158/7/1 156/7/1 149/7/1
f 158/7/1 157/7/1 156/7/1
f 159/7/1 157/7/1 158/7/1
f 160/7/1 155/7/1 157/7/1
f 160/7/1 157/7/1 159/7/1
f 161/7/1 155/7/1 160/7/1
f 162/7/1 160/7/1 159/7/1
f 163/7/1 160/7/1 162/7/1
f 167/7/1 162/7/1 159/7/1
f 168/7/1 167/7/1 166/7/1
f 169/7/1 162/7/1 167/7/1
f 169/7/1 167/7/1 168/7/1
f 170/7/1 165/7/1 164/7/1
f 171/7/1 165/7/1 170/7/1
f 174/1/1 173/1/1 172/1/1
f 175/1/1 173/1/1 174/1/1
f 180/1/1 177/1/1 176/1/1
f 181/1/1 179/1/1 178/1/1
f 182/1/1 180/1/1 176/1/1
f 182/1/1 181/1/1 180/1/1
f 183/1/1 181/1/1 182/1/1
f 184/1/1 181/1/1 183/1/1
f 185/1/1 179/1/1 181/1/1
f 185/1/1 181/1/1 184/1/1
f 186/1/1 179/1/1 185/1/1
f 188/1/1 182/1/1 176/1/1
f 189/1/1 182/1/1 188/1/1
f 190/1/1 184/1/1 183/1/1
f 191/1/1 184/1/1 190/1/1
f 192/1/1 187/1/1 186/1/1
f 192/1/1 186/1/1 185/1/1
f 193/1/1 187/1/1 192/1/1
f 196/1/1 195/1/1 194/1/1
f 197/1/1 195/1/1 196/1/1
f 198/1/1 187/1/1 193/1/1
f 201/1/1 187/1/1 198/1/1
f 202/1/1 187/1/1 201/1/1
f 205/3/1 200/3/1 199/3/1
f 206/3/1 200/3/1 205/3/1
f 207/7/1 204/7/1 203/7/1
f 208/7/1 204/7/1 207/7/1
f 209/7/1 204/7/1 208/7/1
f 210/7/1 204/7/1 209/7/1
f 213/7/1 212/7/1 211/7/1
f 214/7/1 212/7/1 213/7/1
f 217/8/1 216/8/1 215/8/1
f 218/8/1 216/8/1 217/8/1
f 223/1/1 220/1/1 219/1/1
f 224/1/1 220/1/1 223/1/1
f 227/2/1 222/2/1 221/2/1
f 228/2/1 222/2/1 227/2/1
f 229/1/1 226/1/1 225/1/1
f 230/1/1 226/1/1 229/1/1
f 235/1/1 232/1/1 231/1/1
f 236/1/1 232/1/1 235/1/1
f 237/2/1 234/2/1 233/2/1
f 238/2/1 234/2/1 237/2/1
f 241/1/1 240/1/1 239/1/1
f 242/1/1 241/1/1 239/1/1
f 243/1/1 241/1/1 242/1/1
f 247/3/1 245/3/1 244/3/1
f 248/8/1 246/8/1 245/8/1
f 248/3/1 245/3/1 247/3/1
f 249/8/1 246/8/1 248/8/1
f 252/7/1 251/7/1 250/7/1
f 253/7/1 251/7/1 252/7/1
f 256/9/1 253/9/1 252/9/1
f 257/9/1 253/9/1 256/9/1
f 258/7/1 255/7/1 254/7/1
f 259/7/1 255/7/1 258/7/1
f 262/7/1 261/7/1 260/7/1
f 265/7/1 262/7/1 260/7/1
f 265/7/1 263/7/1 262/7/1
f 266/7/1 263/7/1 265/7/1
f 267/7/1 263/7/1 266/7/1
f 268/7/1 265/7/1 264/7/1
f 268/7/1 266/7/1 265/7/1
f 269/7/1 266/7/1 268/7/1
f 273/2/1 271/2/1 270/2/1
f 274/2/1 271/2/1 273/2/1
f 275/1/1 273/1/1 272/1/1
f 276/1/1 273/1/1 275/1/1
f 281/1/1 278/1/1 277/1/1
f 282/1/1 278/1/1 281/1/1
f 283/2/1 280/2/1 279/2/1
f 284/2/1 280/2/1 283/2/1
f 287/1/1 286/1/1 285/1/1
f 288/1/1 286/1/1 287/1/1
f 291/7/1 290/7/1 289/7/1
f 292/7/1 290/7/1 291/7/1
f 295/7/1 294/7/1 293/7/1
f 296/7/1 294/7/1 295/7/1
f 297/7/1 294/7/1 296/7/1
f 300/7/1 299/7/1 298/7/1
f 301/7/1 299/7/1 300/7/1
f 304/7/1 303/7/1 302/7/1
f 304/7/1 302/7/1 301/7/1
f 305/7/1 303/7/1 304/7/1
f 306/7/1 303/7/1 305/7/1
f 307/7/1 303/7/1 306/7/1
f 312/7/1 308/7/1 307/7/1
f 313/7/1 310/7/1 309/7/1
f 314/7/1 310/7/1 313/7/1
f 316/7/1 312/7/1 311/7/1
f 317/7/1 308/7/1 312/7/1
f 317/7/1 312/7/1 316/7/1
f 318/7/1 316/7/1 315/7/1
f 319/7/1 316/7/1 318/7/1
f 322/1/1 321/1/1 320/1/1
f 323/1/1 321/1/1 322/1/1
f 328/3/1 327/3/1 326/3/1
f 329/3/1 328/3/1 326/3/1
f 331/7/1 325/7/1 324/7/1
f 332/7/1 325/7/1 331/7/1
f 333/3/1 330/3/1 329/3/1
f 333/3/1 329/3/1 326/3/1
f 334/3/1 330/3/1 333/3/1
f 335/3/1 330/3/1 334/3/1
f 338/7/1 337/7/1 336/7/1
f 339/7/1 337/7/1 338/7/1
f 342/7/1 341/7/1 340/7/1
f 343/7/1 341/7/1 342/7/1
f 348/7/1 345/7/1 344/7/1
f 349/7/1 345/7/1 348/7/1
f 350/7/1 347/7/1 346/7/1
f 351/7/1 347/7/1 350/7/1
f 354/2/1 353/2/1 352/2/1
f 355/2/1 353/2/1 354/2/1
f 356/1/1 355/1/1 354/1/1
f 357/1/1 355/1/1 356/1/1
f 360/2/1 359/2/1 358/2/1
f 361/2/1 359/2/1 360/2/1
f 364/9/1 363/9/1 362/9/1
f 365/9/1 363/9/1 364/9/1
f 368/7/1 367/7/1 366/7/1
f 369/7/1 367/7/1 368/7/1
f 372/6/1 371/6/1 370/6/1
f 373/6/1 371/6/1 372/6/1
f 374/6/1 372/6/1 370/6/1
f 375/6/1 372/6/1 374/6/1
f 378/6/1 371/6/1 373/6/1
f 379/6/1 371/6/1 378/6/1
f 382/2/1 377/2/1 376/2/1
f 383/2/1 377/2/1 382/2/1
f 384/2/1 381/2/1 380/2/1
f 385/2/1 381/2/1 384/2/1
f 386/1/1 383/1/1 382/1/1
f 387/1/1 383/1/1 386/1/1
f 388/1/1 385/1/1 384/1/1
f 389/1/1 385/1/1 388/1/1
f 390/1/1 388/1/1 387/1/1
f 391/1/1 388/1/1 390/1/1
f 392/1/1 388/1/1 391/1/1
f 393/1/1 388/1/1 392/1/1
f 394/2/1 391/2/1 390/2/1
f 395/2/1 391/2/1 394/2/1
f 396/2/1 393/2/1 392/2/1
f 397/2/1 393/2/1 396/2/1
f 400/2/1 399/2/1 398/2/1
f 401/2/1 399/2/1 400/2/1
f 404/2/1 403/2/1 402/2/1
f 405/2/1 403/2/1 404/2/1
f 410/1/1 407/1/1 406/1/1
f 411/1/1 409/1/1 408/1/1
f 412/1/1 411/1/1 408/1/1
f 413/1/1 411/1/1 412/1/1
f 414/1/1 410/1/1 406/1/1
f 415/1/1 410/1/1 414/1/1
f 418/3/1 417/3/1 416/3/1
f 419/3/1 417/3/1 418/3/1
f 422/7/1 421/7/1 420/7/1
f 423/7/1 421/7/1 422/7/1
f 426/7/1 425/7/1 424/7/1
f 427/7/1 425/7/1 426/7/1
f 430/7/1 429/7/1 428/7/1
f 431/7/1 429/7/1 430/7/1
f 434/5/1 433/5/1 432/5/1
f 435/5/1 433/5/1 434/5/1
f 437/8/1 436/8/1 435/8/1
f 438/8/1 436/8/1 437/8/1
f 439/5/1 438/5/1 437/5/1
f 440/5/1 438/5/1 439/5/1
f 441/8/1 440/8/1 439/8/1
f 442/8/1 440/8/1 441/8/1
f 447/5/1 446/5/1 445/5/1
f 449/5/1 444/5/1 443/5/1
f 450/5/1 444/5/1 449/5/1
f 451/5/1 444/5/1 450/5/1
f 452/5/1 447/5/1 445/5/1
f 453/5/1 447/5/1 452/5/1
f 455/5/1 449/5/1 448/5/1
f 455/5/1 450/5/1 449/5/1
f 456/5/1 450/5/1 455/5/1
f 457/5/1 450/5/1 456/5/1
f 458/10/1 454/10/1 453/10/1
f 459/10/1 454/10/1 458/10/1
f 460/10/1 456/10/1 455/10/1
f 461/10/1 456/10/1 460/10/1
f 466/5/1 463/5/1 462/5/1
f 467/5/1 463/5/1 466/5/1
f 468/5/1 463/5/1 467/5/1
f 469/5/1 465/5/1 464/5/1
f 470/5/1 468/5/1 467/5/1
f 470/5/1 469/5/1 468/5/1
f 471/5/1 465/5/1 469/5/1
f 471/5/1 469/5/1 470/5/1
f 472/5/2 473/5/2 476/5/2
f 476/5/2 473/5/2 477/5/2
f 477/5/2 473/5/2 478/5/2
f 474/5/2 475/5/2 479/5/2
f 477/5/2 478/5/2 480/5/2
f 478/5/2 479/5/2 480/5/2
f 479/5/2 475/5/2 481/5/2
f 480/5/2 479/5/2 481/5/2
f 484/5/2 485/5/2 486/5/2
f 482/5/2 483/5/2 488/5/2
f 488/5/2 483/5/2 489/5/2
f 489/5/2 483/5/2 490/5/2
f 484/5/2 486/5/2 491/5/2
f 491/5/2 486/5/2 492/5/2
f 487/5/2 488/5/2 494/5/2
f 488/5/2 489/5/2 494/5/2
f 494/5/2 489/5/2 495/5/2
f 495/5/2 489/5/2 496/5/2
f 496/5/2 489/5/2 497/5/2
f 492/10/2 493/10/2 498/10/2
f 498/10/2 493/10/2 499/10/2
f 495/10/2 496/10/2 500/10/2
f 500/10/2 496/10/2 501/10/2
f 502/5/2 503/5/2 504/5/2
f 504/5/2 503/5/2 505/5/2
f 505/8/2 506/8/2 507/8/2
f 507/8/2 506/8/2 508/8/2
f 509/7/2 510/7/2 511/7/2
f 511/7/2 510/7/2 512/7/2
f 513/7/2 514/7/2 515/7/2
f 515/7/2 514/7/2 516/7/2
f 517/3/2 518/3/2 519/3/2
f 519/3/2 518/3/2 520/3/2
f 521/7/2 522/7/2 523/7/2
f 523/7/2 522/7/2 524/7/2
f 525/6/2 526/6/2 527/6/2
f 527/6/2 526/6/2 528/6/2
f 525/6/2 527/6/2 529/6/2
f 529/6/2 527/6/2 530/6/2
f 528/6/2 526/6/2 533/6/2
f 533/6/2 526/6/2 534/6/2
f 531/2/2 532/2/2 537/2/2
f 537/2/2 532/2/2 538/2/2
f 535/2/2 536/2/2 539/2/2
f 539/2/2 536/2/2 540/2/2
f 537/1/2 538/1/2 541/1/2
f 541/1/2 538/1/2 542/1/2
f 539/1/2 540/1/2 543/1/2
f 543/1/2 540/1/2 544/1/2
f 542/1/2 543/1/2 545/1/2
f 545/1/2 543/1/2 546/1/2
f 546/1/2 543/1/2 547/1/2
f 547/1/2 543/1/2 548/1/2
f 545/2/2 546/2/2 549/2/2
f 549/2/2 546/2/2 550/2/2
f 547/2/2 548/2/2 551/2/2
f 551/2/2 548/2/2 552/2/2
f 553/2/2 554/2/2 555/2/2
f 555/2/2 554/2/2 556/2/2
f 557/2/2 558/2/2 559/2/2
f 559/2/2 558/2/2 560/2/2
f 561/1/2 562/1/2 565/1/2
f 563/1/2 564/1/2 566/1/2
f 563/1/2 566/1/2 567/1/2
f 567/1/2 566/1/2 568/1/2
f 561/1/2 565/1/2 569/1/2
f 569/1/2 565/1/2 570/1/2
f 571/2/2 572/2/2 573/2/2
f 573/2/2 572/2/2 574/2/2
f 573/1/2 574/1/2 575/1/2
f 575/1/2 574/1/2 576/1/2
f 577/2/2 578/2/2 579/2/2
f 579/2/2 578/2/2 580/2/2
f 581/9/2 582/9/2 583/9/2
f 583/9/2 582/9/2 584/9/2
f 585/7/2 586/7/2 587/7/2
f 587/7/2 586/7/2 588/7/2
f 589/1/2 590/1/2 591/1/2
f 591/1/2 590/1/2 592/1/2
f 595/3/2 596/3/2 597/3/2
f 595/3/2 597/3/2 598/3/2
f 593/7/2 594/7/2 600/7/2
f 600/7/2 594/7/2 601/7/2
f 598/3/2 599/3/2 602/3/2
f 595/3/2 598/3/2 602/3/2
f 602/3/2 599/3/2 603/3/2
f 603/3/2 599/3/2 604/3/2
f 605/7/2 606/7/2 607/7/2
f 607/7/2 606/7/2 608/7/2
f 609/7/2 610/7/2 611/7/2
f 611/7/2 610/7/2 612/7/2
f 613/7/2 614/7/2 617/7/2
f 617/7/2 614/7/2 618/7/2
f 615/7/2 616/7/2 619/7/2
f 619/7/2 616/7/2 620/7/2
f 621/2/2 622/2/2 624/2/2
f 624/2/2 622/2/2 625/2/2
f 623/1/2 624/1/2 626/1/2
f 626/1/2 624/1/2 627/1/2
f 628/1/2 629/1/2 632/1/2
f 632/1/2 629/1/2 633/1/2
f 630/2/2 631/2/2 634/2/2
f 634/2/2 631/2/2 635/2/2
f 636/1/2 637/1/2 638/1/2
f 638/1/2 637/1/2 639/1/2
f 640/7/2 641/7/2 642/7/2
f 642/7/2 641/7/2 643/7/2
f 644/7/2 645/7/2 646/7/2
f 646/7/2 645/7/2 647/7/2
f 647/7/2 645/7/2 648/7/2
f 649/7/2 650/7/2 651/7/2
f 651/7/2 650/7/2 652/7/2
f 653/7/2 654/7/2 655/7/2
f 652/7/2 653/7/2 655/7/2
f 655/7/2 654/7/2 656/7/2
f 656/7/2 654/7/2 657/7/2
f 657/7/2 654/7/2 658/7/2
f 658/7/2 659/7/2 663/7/2
f 660/7/2 661/7/2 664/7/2
f 664/7/2 661/7/2 665/7/2
f 662/7/2 663/7/2 667/7/2
f 663/7/2 659/7/2 668/7/2
f 667/7/2 663/7/2 668/7/2
f 666/7/2 667/7/2 669/7/2
f 669/7/2 667/7/2 670/7/2
f 671/1/2 672/1/2 675/1/2
f 675/1/2 672/1/2 676/1/2
f 673/2/2 674/2/2 679/2/2
f 679/2/2 674/2/2 680/2/2
f 677/1/2 678/1/2 681/1/2
f 681/1/2 678/1/2 682/1/2
f 683/1/2 684/1/2 687/1/2
f 687/1/2 684/1/2 688/1/2
f 685/2/2 686/2/2 689/2/2
f 689/2/2 686/2/2 690/2/2
f 691/1/2 692/1/2 693/1/2
f 691/1/2 693/1/2 694/1/2
f 694/1/2 693/1/2 695/1/2
f 696/3/2 697/3/2 699/3/2
f 697/8/2 698/8/2 700/8/2
f 699/3/2 697/3/2 700/3/2
f 700/8/2 698/8/2 701/8/2
f 702/7/2 703/7/2 704/7/2
f 704/7/2 703/7/2 705/7/2
f 704/9/2 705/9/2 708/9/2
f 708/9/2 705/9/2 709/9/2
f 706/7/2 707/7/2 710/7/2
f 710/7/2 707/7/2 711/7/2
f 712/7/2 713/7/2 714/7/2
f 712/7/2 714/7/2 717/7/2
f 714/7/2 715/7/2 717/7/2
f 717/7/2 715/7/2 718/7/2
f 718/7/2 715/7/2 719/7/2
f 716/7/2 717/7/2 720/7/2
f 717/7/2 718/7/2 720/7/2
f 720/7/2 718/7/2 721/7/2
f 722/1/2 723/1/2 724/1/2
f 724/1/2 723/1/2 725/1/2
f 726/1/2 727/1/2 730/1/2
f 728/1/2 729/1/2 731/1/2
f 726/1/2 730/1/2 732/1/2
f 730/1/2 731/1/2 732/1/2
f 732/1/2 731/1/2 733/1/2
f 733/1/2 731/1/2 734/1/2
f 731/1/2 729/1/2 735/1/2
f 734/1/2 731/1/2 735/1/2
f 735/1/2 729/1/2 736/1/2
f 726/1/2 732/1/2 738/1/2
f 738/1/2 732/1/2 739/1/2
f 733/1/2 734/1/2 740/1/2
f 740/1/2 734/1/2 741/1/2
f 736/1/2 737/1/2 742/1/2
f 735/1/2 736/1/2 742/1/2
f 742/1/2 737/1/2 743/1/2
f 744/1/2 745/1/2 746/1/2
f 746/1/2 745/1/2 747/1/2
f 743/1/2 737/1/2 748/1/2
f 748/1/2 737/1/2 751/1/2
f 751/1/2 737/1/2 752/1/2
f 749/3/2 750/3/2 755/3/2
f 755/3/2 750/3/2 756/3/2
f 753/7/2 754/7/2 757/7/2
f 757/7/2 754/7/2 758/7/2
f 758/7/2 754/7/2 759/7/2
f 759/7/2 754/7/2 760/7/2
f 761/7/2 762/7/2 763/7/2
f 763/7/2 762/7/2 764/7/2
f 765/8/2 766/8/2 767/8/2
f 767/8/2 766/8/2 768/8/2
f 769/6/2 770/6/2 771/6/2
f 771/6/2 770/6/2 772/6/2
f 769/6/2 771/6/2 773/6/2
f 773/6/2 771/6/2 774/6/2
f 772/6/2 770/6/2 777/6/2
f 777/6/2 770/6/2 778/6/2
f 775/2/2 776/2/2 781/2/2
f 781/2/2 776/2/2 782/2/2
f 779/2/2 780/2/2 783/2/2
f 783/2/2 780/2/2 784/2/2
f 781/1/2 782/1/2 785/1/2
f 785/1/2 782/1/2 786/1/2
f 783/1/2 784/1/2 787/1/2
f 787/1/2 784/1/2 788/1/2
f 786/1/2 787/1/2 790/1/2
f 790/1/2 787/1/2 791/1/2
f 789/2/2 790/2/2 793/2/2
f 793/2/2 790/2/2 794/2/2
f 791/2/2 792/2/2 795/2/2
f 795/2/2 792/2/2 796/2/2
f 793/1/2 794/1/2 797/1/2
f 795/1/2 796/1/2 800/1/2
f 797/1/2 798/1/2 801/1/2
f 799/1/2 800/1/2 802/1/2
f 797/1/2 801/1/2 803/1/2
f 801/1/2 802/1/2 803/1/2
f 793/1/2 797/1/2 803/1/2
f 803/1/2 802/1/2 804/1/2
f 802/1/2 800/1/2 805/1/2
f 804/1/2 802/1/2 805/1/2
f 800/1/2 796/1/2 806/1/2
f 805/1/2 800/1/2 806/1/2
f 804/1/2 805/1/2 807/1/2
f 807/1/2 805/1/2 808/1/2
f 809/7/2 810/7/2 814/7/2
f 814/7/2 810/7/2 815/7/2
f 811/7/2 812/7/2 816/7/2
f 816/7/2 812/7/2 817/7/2
f 813/8/2 814/8/2 819/8/2
f 819/8/2 814/8/2 820/8/2
f 818/1/2 819/1/2 821/1/2
f 819/1/2 820/1/2 821/1/2
f 821/1/2 820/1/2 822/1/2
f 822/1/2 820/1/2 823/1/2
f 822/1/2 823/1/2 827/1/2
f 823/1/2 824/1/2 827/1/2
f 827/1/2 824/1/2 828/1/2
f 828/1/2 824/1/2 829/1/2
f 827/7/2 828/7/2 830/7/2
f 825/7/2 826/7/2 832/7/2
f 830/7/2 831/7/2 833/7/2
f 827/7/2 830/7/2 833/7/2
f 825/7/2 832/7/2 834/7/2
f 832/7/2 833/7/2 834/7/2
f 834/7/2 833/7/2 835/7/2
f 833/7/2 831/7/2 836/7/2
f 835/7/2 833/7/2 836/7/2
f 836/7/2 831/7/2 837/7/2
f 835/7/2 836/7/2 838/7/2
f 838/7/2 836/7/2 839/7/2
f 835/7/2 838/7/2 843/7/2
f 842/7/2 843/7/2 844/7/2
f 843/7/2 838/7/2 845/7/2
f 844/7/2 843/7/2 845/7/2
f 840/7/2 841/7/2 846/7/2
f 846/7/2 841/7/2 847/7/2
f 848/2/2 849/2/2 850/2/2
f 850/2/2 849/2/2 851/2/2
f 850/1/2 851/1/2 852/1/2
f 852/1/2 851/1/2 853/1/2
f 854/2/2 855/2/2 856/2/2
f 856/2/2 855/2/2 857/2/2
f 857/2/2 855/2/2 858/2/2
f 857/1/2 858/1/2 861/1/2
f 859/1/2 860/1/2 862/1/2
f 862/1/2 860/1/2 863/1/2
f 861/1/2 858/1/2 864/1/2
f 864/1/2 858/1/2 865/1/2
f 865/1/2 858/1/2 866/1/2
f 869/8/2 870/8/2 872/8/2
f 867/7/2 868/7/2 873/7/2
f 871/8/2 872/8/2 875/8/2
f 872/8/2 870/8/2 876/8/2
f 875/8/2 872/8/2 876/8/2
f 873/7/2 874/7/2 877/7/2
f 867/7/2 873/7/2 877/7/2
f 877/7/2 874/7/2 878/7/2
f 878/7/2 874/7/2 879/7/2
f 879/7/2 874/7/2 880/7/2
f 881/7/2 882/7/2 885/7/2
f 885/7/2 882/7/2 886/7/2
f 883/7/2 884/7/2 887/7/2
f 887/7/2 884/7/2 888/7/2
f 889/8/2 890/8/2 891/8/2
f 891/8/2 890/8/2 892/8/2
f 895/5/2 896/5/2 897/5/2
f 893/5/2 894/5/2 899/5/2
f 899/5/2 894/5/2 900/5/2
f 897/5/2 898/5/2 901/5/2
f 895/5/2 897/5/2 901/5/2
f 901/5/2 898/5/2 902/5/2
f 893/5/2 899/5/2 905/5/2
f 905/5/2 899/5/2 906/5/2
f 902/10/2 903/10/2 907/10/2
f 907/10/2 903/10/2 908/10/2
f 904/10/2 905/10/2 909/10/2
f 909/10/2 905/10/2 910/10/2
f 907/5/2 908/5/2 911/5/2
f 911/5/2 908/5/2 912/5/2
f 912/8/2 913/8/2 914/8/2
f 914/8/2 913/8/2 915/8/2
f 914/5/2 915/5/2 916/5/2
f 916/5/2 915/5/2 917/5/2
f 916/8/2 917/8/2 918/8/2
f 918/8/2 917/8/2 919/8/2
f 920/5/2 921/5/2 923/5/2
f 923/5/2 921/5/2 924/5/2
f 922/5/2 923/5/2 926/5/2
f 924/5/2 925/5/2 926/5/2
f 923/5/2 924/5/2 926/5/2
f 926/5/2 925/5/2 927/5/2
f 927/5/2 925/5/2 928/5/2
f 928/5/2 925/5/2 929/5/2
f 927/10/2 928/10/2 930/10/2
f 930/10/2 928/10/2 931/10/2
f 930/5/2 931/5/2 933/5/2
f 931/5/2 932/5/2 933/5/2
f 933/5/2 932/5/2 934/5/2
f 935/5/2 936/5/2 939/5/2
f 939/5/2 936/5/2 940/5/2
f 937/5/2 938/5/2 941/5/2
f 941/5/2 938/5/2 942/5/2
f 945/3/3 944/3/3 943/3/3
f 946/3/3 944/3/3 945/3/3
f 950/3/3 948/3/3 947/3/3
f 951/3/3 948/3/3 950/3/3
f 955/7/3 953/7/3 952/7/3
f 956/9/3 954/9/3 953/9/3
f 956/7/3 953/7/3 955/7/3
f 957/3/3 950/3/3 949/3/3
f 958/3/3 948/3/3 951/3/3
f 959/3/3 948/3/3 958/3/3
f 960/9/3 956/9/3 955/9/3
f 961/9/3 954/9/3 956/9/3
f 961/9/3 956/9/3 960/9/3
f 962/9/3 954/9/3 961/9/3
f 963/3/3 957/3/3 949/3/3
f 966/3/3 961/3/3 960/3/3
f 967/3/3 961/3/3 966/3/3
f 969/9/3 967/9/3 966/9/3
f 969/9/3 968/9/3 967/9/3
f 970/9/3 968/9/3 969/9/3
f 971/3/3 963/3/3 949/3/3
f 972/3/3 963/3/3 971/3/3
f 973/3/3 965/3/3 964/3/3
f 974/7/3 970/7/3 969/7/3
f 975/9/3 968/9/3 970/9/3
f 975/7/3 970/7/3 974/7/3
f 976/9/3 968/9/3 975/9/3
f 977/3/3 973/3/3 972/3/3
f 978/3/3 965/3/3 973/3/3
f 978/3/3 973/3/3 977/3/3
f 985/7/3 980/7/3 979/7/3
f 986/7/3 980/7/3 985/7/3
f 987/7/3 980/7/3 986/7/3
f 988/7/3 982/7/3 981/7/3
f 989/7/3 987/7/3 986/7/3
f 989/7/3 988/7/3 987/7/3
f 990/7/3 988/7/3 989/7/3
f 991/7/3 988/7/3 990/7/3
f 992/7/3 982/7/3 988/7/3
f 992/7/3 988/7/3 991/7/3
f 993/7/3 982/7/3 992/7/3
f 994/7/3 982/7/3 993/7/3
f 998/8/3 992/8/3 991/8/3
f 999/8/3 992/8/3 998/8/3
f 1000/7/3 993/7/3 992/7/3
f 1000/8/3 992/8/3 999/8/3
f 1001/8/3 995/8/3 994/8/3
f 1001/7/3 993/7/3 1000/7/3
f 1001/8/3 994/8/3 993/8/3
f 1002/8/3 995/8/3 1001/8/3
f 1003/6/3 984/6/3 983/6/3
f 1004/6/3 984/6/3 1003/6/3
f 1007/8/3 998/8/3 991/8/3
f 1008/7/3 1002/7/3 1001/7/3
f 1008/7/3 1001/7/3 1000/7/3
f 1009/8/3 995/8/3 1002/8/3
f 1009/7/3 1002/7/3 1008/7/3
f 1010/8/3 1007/8/3 991/8/3
f 1011/8/3 1007/8/3 1010/8/3
f 1013/7/3 1008/7/3 1000/7/3
f 1014/8/3 1009/8/3 1008/8/3
f 1014/7/3 1008/7/3 1013/7/3
f 1017/8/3 1013/8/3 1012/8/3
f 1017/8/3 1014/8/3 1013/8/3
f 1018/8/3 1014/8/3 1017/8/3
f 1019/8/3 1009/8/3 1014/8/3
f 1019/8/3 1014/8/3 1018/8/3
f 1022/1/3 1006/1/3 1005/1/3
f 1023/1/3 1006/1/3 1022/1/3
f 1024/8/3 1016/8/3 1015/8/3
f 1025/8/3 1009/8/3 1019/8/3
f 1025/7/3 1019/7/3 1018/7/3
f 1026/8/3 995/8/3 1009/8/3
f 1026/8/3 1009/8/3 1025/8/3
f 1027/4/3 997/4/3 996/4/3
f 1028/4/3 997/4/3 1027/4/3
f 1029/8/3 1024/8/3 1015/8/3
f 1031/7/3 1025/7/3 1018/7/3
f 1031/7/3 1026/7/3 1025/7/3
f 1032/7/3 1026/7/3 1031/7/3
f 1033/8/3 995/8/3 1026/8/3
f 1033/7/3 1026/7/3 1032/7/3
f 1036/8/3 1030/8/3 1029/8/3
f 1036/8/3 1029/8/3 1015/8/3
f 1036/8/3 1031/8/3 1030/8/3
f 1037/7/3 1032/7/3 1031/7/3
f 1037/8/3 1031/8/3 1036/8/3
f 1038/8/3 1033/8/3 1032/8/3
f 1038/7/3 1032/7/3 1037/7/3
f 1039/8/3 995/8/3 1033/8/3
f 1039/8/3 1033/8/3 1038/8/3
f 1040/8/3 995/8/3 1039/8/3
f 1041/6/3 1021/6/3 1020/6/3
f 1042/6/3 1021/6/3 1041/6/3
f 1044/7/3 1038/7/3 1037/7/3
f 1044/7/3 1035/7/3 1034/7/3
f 1044/7/3 1036/7/3 1035/7/3
f 1044/7/3 1039/7/3 1038/7/3
f 1044/7/3 1037/7/3 1036/7/3
f 1045/7/3 1039/7/3 1044/7/3
f 1046/7/3 1039/7/3 1045/7/3
f 1047/7/3 1044/7/3 1043/7/3
f 1047/7/3 1045/7/3 1044/7/3
f 1048/7/3 1045/7/3 1047/7/3
f 1049/7/3 1039/7/3 1046/7/3
f 1050/7/3 1039/7/3 1049/7/3
f 1053/5/3 1052/5/3 1051/5/3
f 1054/5/3 1052/5/3 1053/5/3
f 1057/7/3 1056/7/3 1055/7/3
f 1058/7/3 1056/7/3 1057/7/3
f 1062/2/3 1060/2/3 1059/2/3
f 1063/2/3 1060/2/3 1062/2/3
f 1064/2/3 1062/2/3 1061/2/3
f 1065/2/3 1062/2/3 1064/2/3
f 1067/2/3 1066/2/3 1065/2/3
f 1068/2/3 1066/2/3 1067/2/3
f 1071/7/3 1070/7/3 1069/7/3
f 1072/7/3 1070/7/3 1071/7/3
f 1075/5/3 1074/5/3 1073/5/3
f 1076/5/3 1074/5/3 1075/5/3
f 1079/5/3 1078/5/3 1077/5/3
f 1080/5/3 1078/5/3 1079/5/3
f 1081/5/3 1078/5/3 1080/5/3
f 1090/7/3 1083/7/3 1082/7/3
f 1091/7/3 1083/7/3 1090/7/3
f 1094/2/3 1088/2/3 1087/2/3
f 1095/1/3 1089/1/3 1088/1/3
f 1095/2/3 1088/2/3 1094/2/3
f 1096/1/3 1089/1/3 1095/1/3
f 1097/1/3 1089/1/3 1096/1/3
f 1101/1/3 1093/1/3 1092/1/3
f 1102/1/3 1093/1/3 1101/1/3
f 1103/1/3 1093/1/3 1102/1/3
f 1104/2/3 1085/2/3 1084/2/3
f 1105/1/3 1086/1/3 1085/1/3
f 1105/2/3 1085/2/3 1104/2/3
f 1106/1/3 1086/1/3 1105/1/3
f 1107/1/3 1095/1/3 1094/1/3
f 1107/1/3 1096/1/3 1095/1/3
f 1108/1/3 1096/1/3 1107/1/3
f 1110/1/3 1089/1/3 1097/1/3
f 1111/1/3 1089/1/3 1110/1/3
f 1112/2/3 1099/2/3 1098/2/3
f 1113/2/3 1099/2/3 1112/2/3
f 1114/1/3 1102/1/3 1101/1/3
f 1114/1/3 1101/1/3 1100/1/3
f 1115/1/3 1102/1/3 1114/1/3
f 1119/1/3 1107/1/3 1094/1/3
f 1121/1/3 1111/1/3 1110/1/3
f 1121/1/3 1110/1/3 1109/1/3
f 1122/1/3 1111/1/3 1121/1/3
f 1123/2/3 1112/2/3 1111/2/3
f 1123/1/3 1111/1/3 1122/1/3
f 1124/2/3 1112/2/3 1123/2/3
f 1128/1/3 1120/1/3 1119/1/3
f 1128/1/3 1119/1/3 1094/1/3
f 1129/1/3 1120/1/3 1128/1/3
f 1130/1/3 1120/1/3 1129/1/3
f 1131/1/3 1123/1/3 1122/1/3
f 1132/2/3 1125/2/3 1124/2/3
f 1133/2/3 1125/2/3 1132/2/3
f 1134/1/3 1127/1/3 1126/1/3
f 1135/1/3 1127/1/3 1134/1/3
f 1136/1/3 1127/1/3 1135/1/3
f 1138/1/3 1137/1/3 1136/1/3
f 1138/1/3 1136/1/3 1135/1/3
f 1139/1/3 1137/1/3 1138/1/3
f 1140/2/3 1117/2/3 1116/2/3
f 1141/1/3 1118/1/3 1117/1/3
f 1141/2/3 1117/2/3 1140/2/3
f 1142/1/3 1118/1/3 1141/1/3
f 1143/2/3 1129/2/3 1128/2/3
f 1144/1/3 1131/1/3 1130/1/3
f 1144/2/3 1129/2/3 1143/2/3
f 1144/1/3 1130/1/3 1129/1/3
f 1145/1/3 1123/1/3 1131/1/3
f 1145/1/3 1131/1/3 1144/1/3
f 1148/7/3 1147/7/3 1146/7/3
f 1149/7/3 1147/7/3 1148/7/3
f 1153/5/3 1151/5/3 1150/5/3
f 1153/5/3 1152/5/3 1151/5/3
f 1154/5/3 1152/5/3 1153/5/3
f 1157/5/3 1156/5/3 1155/5/3
f 1158/5/3 1156/5/3 1157/5/3
f 1162/10/3 1159/10/3 1158/10/3
f 1163/5/3 1160/5/3 1159/5/3
f 1163/10/3 1159/10/3 1162/10/3
f 1168/5/3 1162/5/3 1161/5/3
f 1169/5/3 1162/5/3 1168/5/3
f 1170/5/3 1160/5/3 1163/5/3
f 1171/5/3 1160/5/3 1170/5/3
f 1174/2/3 1165/2/3 1164/2/3
f 1175/1/3 1166/1/3 1165/1/3
f 1175/2/3 1165/2/3 1174/2/3
f 1176/1/3 1166/1/3 1175/1/3
f 1177/2/3 1168/2/3 1167/2/3
f 1178/1/3 1169/1/3 1168/1/3
f 1178/1/3 1170/1/3 1169/1/3
f 1178/2/3 1168/2/3 1177/2/3
f 1179/1/3 1170/1/3 1178/1/3
f 1182/7/3 1173/7/3 1172/7/3
f 1183/7/3 1173/7/3 1182/7/3
f 1185/8/3 1181/8/3 1180/8/3
f 1186/8/3 1181/8/3 1185/8/3
f 1187/8/3 1181/8/3 1186/8/3
f 1188/1/3 1177/1/3 1176/1/3
f 1189/1/3 1177/1/3 1188/1/3
f 1190/1/3 1185/1/3 1184/1/3
f 1191/1/3 1185/1/3 1190/1/3
f 1192/1/3 1185/1/3 1191/1/3
f 1193/8/3 1186/8/3 1185/8/3
f 1193/1/3 1185/1/3 1192/1/3
f 1194/8/3 1186/8/3 1193/8/3
f 1197/1/3 1188/1/3 1176/1/3
f 1198/2/3 1189/2/3 1188/2/3
f 1198/1/3 1188/1/3 1197/1/3
f 1199/2/3 1189/2/3 1198/2/3
f 1200/1/3 1190/1/3 1184/1/3
f 1201/1/3 1190/1/3 1200/1/3
f 1202/1/3 1192/1/3 1191/1/3
f 1203/1/3 1192/1/3 1202/1/3
f 1206/2/3 1196/2/3 1195/2/3
f 1207/1/3 1197/1/3 1196/1/3
f 1207/2/3 1196/2/3 1206/2/3
f 1208/1/3 1197/1/3 1207/1/3
f 1209/1/3 1203/1/3 1202/1/3
f 1209/1/3 1202/1/3 1201/1/3
f 1210/3/3 1204/3/3 1203/3/3
f 1210/1/3 1203/1/3 1209/1/3
f 1211/8/3 1205/8/3 1204/8/3
f 1211/3/3 1204/3/3 1210/3/3
f 1215/8/3 1210/8/3 1209/8/3
f 1215/8/3 1211/8/3 1210/8/3
f 1215/1/3 1209/1/3 1201/1/3
f 1216/8/3 1211/8/3 1215/8/3
f 1217/8/3 1205/8/3 1211/8/3
f 1217/8/3 1211/8/3 1216/8/3
f 1218/2/3 1213/2/3 1212/2/3
f 1219/1/3 1214/1/3 1213/1/3
f 1219/2/3 1213/2/3 1218/2/3
f 1220/1/3 1214/1/3 1219/1/3
f 1224/1/3 1216/1/3 1215/1/3
f 1224/1/3 1215/1/3 1201/1/3
f 1225/1/3 1216/1/3 1224/1/3
f 1226/3/3 1217/3/3 1216/3/3
f 1226/1/3 1216/1/3 1225/1/3
f 1227/8/3 1205/8/3 1217/8/3
f 1227/3/3 1217/3/3 1226/3/3
f 1228/8/3 1205/8/3 1227/8/3
f 1229/2/3 1222/2/3 1221/2/3
f 1229/1/3 1221/1/3 1220/1/3
f 1230/2/3 1222/2/3 1229/2/3
f 1231/1/3 1224/1/3 1223/1/3
f 1232/1/3 1226/1/3 1225/1/3
f 1233/1/3 1226/1/3 1232/1/3
f 1236/1/3 1231/1/3 1223/1/3
f 1236/1/3 1232/1/3 1231/1/3
f 1236/1/3 1234/1/3 1233/1/3
f 1236/1/3 1233/1/3 1232/1/3
f 1237/8/3 1235/8/3 1234/8/3
f 1237/1/3 1234/1/3 1236/1/3
f 1238/8/3 1235/8/3 1237/8/3
f 1242/1/3 1230/1/3 1229/1/3
f 1242/1/3 1229/1/3 1220/1/3
f 1243/1/3 1230/1/3 1242/1/3
f 1246/8/3 1238/8/3 1237/8/3
f 1246/8/3 1239/8/3 1238/8/3
f 1247/8/3 1239/8/3 1246/8/3
f 1250/2/3 1241/2/3 1240/2/3
f 1251/1/3 1242/1/3 1241/1/3
f 1251/2/3 1241/2/3 1250/2/3
f 1252/1/3 1242/1/3 1251/1/3
f 1253/2/3 1244/2/3 1243/2/3
f 1254/1/3 1245/1/3 1244/1/3
f 1254/2/3 1244/2/3 1253/2/3
f 1255/1/3 1245/1/3 1254/1/3
f 1256/1/3 1245/1/3 1255/1/3
f 1258/7/3 1249/7/3 1248/7/3
f 1259/7/3 1249/7/3 1258/7/3
f 1260/5/3 1255/5/3 1254/5/3
f 1261/5/3 1255/5/3 1260/5/3
f 1262/5/3 1257/5/3 1256/5/3
f 1264/10/3 1262/10/3 1261/10/3
f 1265/5/3 1257/5/3 1262/5/3
f 1265/10/3 1262/10/3 1264/10/3
f 1266/5/3 1257/5/3 1265/5/3
f 1267/5/3 1264/5/3 1263/5/3
f 1268/5/3 1264/5/3 1267/5/3
f 1272/10/3 1270/10/3 1269/10/3
f 1273/5/3 1271/5/3 1270/5/3
f 1273/10/3 1270/10/3 1272/10/3
f 1274/5/3 1271/5/3 1273/5/3
f 1276/8/3 1275/8/3 1274/8/3
f 1280/10/3 1279/10/3 1278/10/3
f 1281/10/3 1279/10/3 1280/10/3
f 1282/8/3 1276/8/3 1274/8/3
f 1282/8/3 1277/8/3 1276/8/3
f 1283/8/3 1277/8/3 1282/8/3
f 1284/8/3 1277/8/3 1283/8/3
f 1288/1/3 1282/1/3 1281/1/3
f 1289/1/3 1282/1/3 1288/1/3
f 1293/8/3 1285/8/3 1284/8/3
f 1293/8/3 1284/8/3 1283/8/3
f 1294/8/3 1285/8/3 1293/8/3
f 1295/8/3 1285/8/3 1294/8/3
f 1296/1/3 1291/1/3 1290/1/3
f 1297/1/3 1291/1/3 1296/1/3
f 1298/7/3 1293/7/3 1292/7/3
f 1299/7/3 1293/7/3 1298/7/3
f 1300/6/3 1287/6/3 1286/6/3
f 1301/6/3 1287/6/3 1300/6/3
f 1306/2/3 1303/2/3 1302/2/3
f 1307/2/3 1303/2/3 1306/2/3
f 1312/2/3 1309/2/3 1308/2/3
f 1313/2/3 1309/2/3 1312/2/3
f 1314/7/3 1305/7/3 1304/7/3
f 1315/7/3 1305/7/3 1314/7/3
f 1320/6/3 1311/6/3 1310/6/3
f 1321/6/3 1311/6/3 1320/6/3
f 1324/1/3 1317/1/3 1316/1/3
f 1325/1/3 1317/1/3 1324/1/3
f 1326/7/3 1319/7/3 1318/7/3
f 1327/7/3 1319/7/3 1326/7/3
f 1331/1/3 1323/1/3 1322/1/3
f 1332/1/3 1323/1/3 1331/1/3
f 1335/8/3 1329/8/3 1328/8/3
f 1335/8/3 1328/8/3 1327/8/3
f 1336/8/3 1329/8/3 1335/8/3
f 1337/8/3 1329/8/3 1336/8/3
f 1338/10/3 1331/10/3 1330/10/3
f 1339/10/3 1331/10/3 1338/10/3
f 1340/8/3 1336/8/3 1335/8/3
f 1340/8/3 1335/8/3 1334/8/3
f 1341/8/3 1336/8/3 1340/8/3
f 1344/8/3 1333/8/3 1332/8/3
f 1345/5/3 1334/5/3 1333/5/3
f 1345/8/3 1333/8/3 1344/8/3
f 1346/8/3 1340/8/3 1334/8/3
f 1346/5/3 1334/5/3 1345/5/3
f 1347/8/3 1340/8/3 1346/8/3
f 1348/10/3 1343/10/3 1342/10/3
f 1349/5/3 1344/5/3 1343/5/3
f 1349/10/3 1343/10/3 1348/10/3
f 1350/5/3 1344/5/3 1349/5/3
f 1353/5/3 1352/5/3 1351/5/3
f 1354/5/3 1352/5/3 1353/5/3
f 1355/5/3 1353/5/3 1351/5/3
f 1356/5/3 1353/5/3 1355/5/3
f 1359/7/3 1358/7/3 1357/7/3
f 1360/7/3 1358/7/3 1359/7/3
f 1363/7/3 1362/7/3 1361/7/3
f 1364/7/3 1362/7/3 1363/7/3
f 1367/7/3 1366/7/3 1365/7/3
f 1368/7/3 1366/7/3 1367/7/3
f 1371/5/3 1370/5/3 1369/5/3
f 1373/5/3 1371/5/3 1369/5/3
f 1373/5/3 1372/5/3 1371/5/3
f 1374/5/3 1372/5/3 1373/5/3
f 1377/7/3 1376/7/3 1375/7/3
f 1378/7/3 1376/7/3 1377/7/3
f 1381/7/3 1380/7/3 1379/7/3
f 1382/7/3 1380/7/3 1381/7/3
f 1385/7/3 1384/7/3 1383/7/3
f 1386/7/3 1384/7/3 1385/7/3
f 1389/7/3 1388/7/3 1387/7/3
f 1390/7/3 1388/7/3 1389/7/3
f 1393/5/3 1392/5/3 1391/5/3
f 1394/5/3 1392/5/3 1393/5/3
f 1397/7/3 1396/7/3 1395/7/3
f 1398/7/3 1396/7/3 1397/7/3
f 1401/7/3 1400/7/3 1399/7/3
f 1402/7/3 1400/7/3 1401/7/3
f 1405/5/3 1404/5/3 1403/5/3
f 1406/5/3 1404/5/3 1405/5/3
f 1409/7/3 1408/7/3 1407/7/3
f 1410/7/3 1408/7/3 1409/7/3
f 1411/3/4 1412/3/4 1413/3/4
f 1413/3/4 1412/3/4 1414/3/4
f 1415/1/4 1416/1/4 1417/1/4
f 1417/1/4 1416/1/4 1418/1/4
f 1419/7/4 1420/7/4 1423/7/4
f 1423/7/4 1420/7/4 1424/7/4
f 1424/7/4 1420/7/4 1425/7/4
f 1425/7/4 1420/7/4 1426/7/4
f 1421/7/4 1422/7/4 1427/7/4
f 1427/7/4 1422/7/4 1428/7/4
f 1424/7/4 1425/7/4 1429/7/4
f 1429/7/4 1425/7/4 1430/7/4
f 1431/7/4 1432/7/4 1434/7/4
f 1434/7/4 1432/7/4 1435/7/4
f 1434/7/4 1435/7/4 1439/7/4
f 1433/7/4 1434/7/4 1439/7/4
f 1435/7/4 1436/7/4 1439/7/4
f 1439/7/4 1436/7/4 1440/7/4
f 1437/7/4 1438/7/4 1441/7/4
f 1441/7/4 1438/7/4 1442/7/4
f 1443/5/4 1444/5/4 1445/5/4
f 1445/5/4 1444/5/4 1446/5/4
f 1447/7/4 1448/7/4 1451/7/4
f 1451/7/4 1448/7/4 1452/7/4
f 1452/7/4 1448/7/4 1453/7/4
f 1449/6/4 1450/6/4 1454/6/4
f 1454/6/4 1450/6/4 1455/6/4
f 1456/6/4 1457/6/4 1458/6/4
f 1458/6/4 1457/6/4 1459/6/4
f 1461/7/4 1462/7/4 1463/7/4
f 1460/7/4 1461/7/4 1463/7/4
f 1463/7/4 1462/7/4 1464/7/4
f 1465/5/4 1466/5/4 1467/5/4
f 1467/5/4 1466/5/4 1468/5/4
f 1469/5/4 1470/5/4 1471/5/4
f 1471/5/4 1470/5/4 1472/5/4
f 1469/5/4 1471/5/4 1473/5/4
f 1473/5/4 1471/5/4 1474/5/4
f 1475/7/4 1476/7/4 1477/7/4
f 1477/7/4 1476/7/4 1478/7/4
f 1479/7/4 1480/7/4 1481/7/4
f 1481/7/4 1480/7/4 1482/7/4
f 1483/5/4 1484/5/4 1485/5/4
f 1483/5/4 1485/5/4 1487/5/4
f 1485/5/4 1486/5/4 1487/5/4
f 1487/5/4 1486/5/4 1488/5/4
f 1489/5/4 1490/5/4 1491/5/4
f 1491/5/4 1490/5/4 1492/5/4
f 1493/7/4 1494/7/4 1495/7/4
f 1495/7/4 1494/7/4 1496/7/4
f 1497/7/4 1498/7/4 1499/7/4
f 1499/7/4 1498/7/4 1500/7/4
f 1501/10/4 1502/10/4 1503/10/4
f 1503/10/4 1502/10/4 1504/10/4
f 1505/10/4 1506/10/4 1507/10/4
f 1507/10/4 1506/10/4 1508/10/4
f 1509/7/4 1510/7/4 1513/7/4
f 1513/7/4 1510/7/4 1514/7/4
f 1511/7/4 1512/7/4 1515/7/4
f 1515/7/4 1512/7/4 1516/7/4
f 1517/7/4 1518/7/4 1519/7/4
f 1519/7/4 1518/7/4 1520/7/4
f 1521/7/4 1522/7/4 1523/7/4
f 1523/7/4 1522/7/4 1524/7/4
f 1525/7/4 1526/7/4 1527/7/4
f 1527/7/4 1526/7/4 1528/7/4
f 1529/7/4 1530/7/4 1534/7/4
f 1534/7/4 1530/7/4 1535/7/4
f 1531/5/4 1532/5/4 1536/5/4
f 1532/10/4 1533/10/4 1537/10/4
f 1536/5/4 1532/5/4 1537/5/4
f 1537/10/4 1533/10/4 1538/10/4
f 1539/10/4 1540/10/4 1541/10/4
f 1541/10/4 1540/10/4 1542/10/4
f 1543/5/4 1544/5/4 1545/5/4
f 1543/5/4 1545/5/4 1549/5/4
f 1545/5/4 1546/5/4 1549/5/4
f 1549/5/4 1546/5/4 1550/5/4
f 1547/5/4 1548/5/4 1551/5/4
f 1551/5/4 1548/5/4 1552/5/4
f 1552/8/4 1553/8/4 1554/8/4
f 1550/10/4 1551/10/4 1556/10/4
f 1551/5/4 1552/5/4 1557/5/4
f 1556/10/4 1551/10/4 1557/10/4
f 1557/5/4 1552/5/4 1558/5/4
f 1554/8/4 1555/8/4 1559/8/4
f 1558/5/4 1552/5/4 1559/5/4
f 1552/8/4 1554/8/4 1559/8/4
f 1559/8/4 1555/8/4 1560/8/4
f 1560/8/4 1555/8/4 1561/8/4
f 1558/1/4 1559/1/4 1564/1/4
f 1564/1/4 1559/1/4 1565/1/4
f 1566/1/4 1567/1/4 1574/1/4
f 1574/1/4 1567/1/4 1575/1/4
f 1568/7/4 1569/7/4 1576/7/4
f 1576/7/4 1569/7/4 1577/7/4
f 1570/7/4 1571/7/4 1578/7/4
f 1578/7/4 1571/7/4 1579/7/4
f 1579/7/4 1571/7/4 1580/7/4
f 1572/7/4 1573/7/4 1581/7/4
f 1580/7/4 1581/7/4 1582/7/4
f 1579/7/4 1580/7/4 1582/7/4
f 1582/7/4 1581/7/4 1583/7/4
f 1581/7/4 1573/7/4 1584/7/4
f 1583/7/4 1581/7/4 1584/7/4
f 1584/7/4 1573/7/4 1585/7/4
f 1562/6/4 1563/6/4 1586/6/4
f 1586/6/4 1563/6/4 1587/6/4
f 1583/7/4 1584/7/4 1590/7/4
f 1590/7/4 1584/7/4 1591/7/4
f 1588/2/4 1589/2/4 1592/2/4
f 1592/2/4 1589/2/4 1593/2/4
f 1594/2/4 1595/2/4 1598/2/4
f 1598/2/4 1595/2/4 1599/2/4
f 1600/7/4 1601/7/4 1603/7/4
f 1603/7/4 1601/7/4 1604/7/4
f 1603/7/4 1604/7/4 1611/7/4
f 1602/7/4 1603/7/4 1611/7/4
f 1604/7/4 1605/7/4 1611/7/4
f 1611/7/4 1605/7/4 1612/7/4
f 1612/7/4 1605/7/4 1613/7/4
f 1596/6/4 1597/6/4 1614/6/4
f 1614/6/4 1597/6/4 1615/6/4
f 1606/1/4 1607/1/4 1618/1/4
f 1618/1/4 1607/1/4 1619/1/4
f 1608/7/4 1609/7/4 1620/7/4
f 1620/7/4 1609/7/4 1621/7/4
f 1610/7/4 1611/7/4 1622/7/4
f 1611/7/4 1612/7/4 1622/7/4
f 1622/7/4 1612/7/4 1623/7/4
f 1613/7/4 1605/7/4 1624/7/4
f 1624/7/4 1605/7/4 1625/7/4
f 1616/1/4 1617/1/4 1626/1/4
f 1626/1/4 1617/1/4 1627/1/4
f 1626/5/4 1627/5/4 1633/5/4
f 1630/8/4 1631/8/4 1634/8/4
f 1629/8/4 1630/8/4 1634/8/4
f 1634/8/4 1631/8/4 1635/8/4
f 1632/10/4 1633/10/4 1637/10/4
f 1633/5/4 1627/5/4 1638/5/4
f 1637/10/4 1633/10/4 1638/10/4
f 1627/8/4 1628/8/4 1639/8/4
f 1638/5/4 1627/5/4 1639/5/4
f 1628/5/4 1629/5/4 1640/5/4
f 1639/8/4 1628/8/4 1640/8/4
f 1629/8/4 1634/8/4 1641/8/4
f 1640/5/4 1629/5/4 1641/5/4
f 1641/8/4 1634/8/4 1642/8/4
f 1636/5/4 1637/5/4 1643/5/4
f 1643/5/4 1637/5/4 1644/5/4
f 1638/5/4 1639/5/4 1645/5/4
f 1645/5/4 1639/5/4 1646/5/4
f 1636/5/4 1643/5/4 1647/5/4
f 1647/5/4 1643/5/4 1648/5/4
f 1649/5/4 1650/5/4 1651/5/4
f 1651/5/4 1650/5/4 1652/5/4
f 1653/2/4 1654/2/4 1661/2/4
f 1654/1/4 1655/1/4 1662/1/4
f 1661/2/4 1654/2/4 1662/2/4
f 1662/1/4 1655/1/4 1663/1/4
f 1656/2/4 1657/2/4 1664/2/4
f 1657/1/4 1658/1/4 1665/1/4
f 1664/2/4 1657/2/4 1665/2/4
f 1665/1/4 1658/1/4 1666/1/4
f 1659/8/4 1660/8/4 1667/8/4
f 1667/8/4 1660/8/4 1668/8/4
f 1659/8/4 1667/8/4 1672/8/4
f 1668/1/4 1669/1/4 1673/1/4
f 1672/8/4 1667/8/4 1673/8/4
f 1667/1/4 1668/1/4 1673/1/4
f 1673/1/4 1669/1/4 1674/1/4
f 1674/1/4 1669/1/4 1675/1/4
f 1663/1/4 1664/1/4 1677/1/4
f 1677/1/4 1664/1/4 1678/1/4
f 1670/1/4 1671/1/4 1679/1/4
f 1679/1/4 1671/1/4 1680/1/4
f 1675/7/4 1676/7/4 1681/7/4
f 1663/1/4 1677/1/4 1689/1/4
f 1677/2/4 1678/2/4 1690/2/4
f 1689/1/4 1677/1/4 1690/1/4
f 1690/2/4 1678/2/4 1691/2/4
f 1680/1/4 1671/1/4 1692/1/4
f 1692/1/4 1671/1/4 1693/1/4
f 1693/1/4 1671/1/4 1694/1/4
f 1674/1/4 1675/1/4 1696/1/4
f 1675/7/4 1681/7/4 1697/7/4
f 1696/1/4 1675/1/4 1697/1/4
f 1681/7/4 1682/7/4 1697/7/4
f 1697/7/4 1682/7/4 1698/7/4
f 1698/7/4 1682/7/4 1699/7/4
f 1683/7/4 1684/7/4 1700/7/4
f 1700/7/4 1684/7/4 1701/7/4
f 1685/7/4 1686/7/4 1702/7/4
f 1702/7/4 1686/7/4 1703/7/4
f 1687/2/4 1688/2/4 1705/2/4
f 1688/1/4 1689/1/4 1706/1/4
f 1705/2/4 1688/2/4 1706/2/4
f 1706/1/4 1689/1/4 1707/1/4
f 1698/7/4 1699/7/4 1708/7/4
f 1708/7/4 1699/7/4 1709/7/4
f 1709/7/4 1699/7/4 1710/7/4
f 1703/7/4 1704/7/4 1712/7/4
f 1712/7/4 1704/7/4 1713/7/4
f 1710/7/4 1711/7/4 1718/7/4
f 1709/7/4 1710/7/4 1718/7/4
f 1718/7/4 1711/7/4 1719/7/4
f 1719/7/4 1711/7/4 1720/7/4
f 1714/2/4 1715/2/4 1723/2/4
f 1715/1/4 1716/1/4 1724/1/4
f 1723/2/4 1715/2/4 1724/2/4
f 1724/1/4 1716/1/4 1725/1/4
f 1693/1/4 1694/1/4 1729/1/4
f 1694/8/4 1695/8/4 1730/8/4
f 1729/1/4 1694/1/4 1730/1/4
f 1730/8/4 1695/8/4 1731/8/4
f 1717/7/4 1718/7/4 1734/7/4
f 1718/7/4 1719/7/4 1734/7/4
f 1734/7/4 1719/7/4 1735/7/4
f 1721/7/4 1722/7/4 1739/7/4
f 1739/7/4 1722/7/4 1740/7/4
f 1726/2/4 1727/2/4 1741/2/4
f 1725/1/4 1726/1/4 1741/1/4
f 1741/2/4 1727/2/4 1742/2/4
f 1728/1/4 1729/1/4 1744/1/4
f 1729/1/4 1730/1/4 1744/1/4
f 1734/7/4 1735/7/4 1745/7/4
f 1733/7/4 1734/7/4 1745/7/4
f 1745/7/4 1735/7/4 1746/7/4
f 1736/7/4 1737/7/4 1747/7/4
f 1747/7/4 1737/7/4 1748/7/4
f 1738/7/4 1739/7/4 1749/7/4
f 1749/7/4 1739/7/4 1750/7/4
f 1743/1/4 1744/1/4 1751/1/4
f 1744/1/4 1730/1/4 1752/1/4
f 1751/1/4 1744/1/4 1752/1/4
f 1732/1/4 1733/1/4 1755/1/4
f 1733/7/4 1745/7/4 1756/7/4
f 1755/1/4 1733/1/4 1756/1/4
f 1756/7/4 1745/7/4 1757/7/4
f 1741/1/4 1742/1/4 1760/1/4
f 1725/1/4 1741/1/4 1760/1/4
f 1760/1/4 1742/1/4 1761/1/4
f 1753/8/4 1754/8/4 1764/8/4
f 1755/1/4 1756/1/4 1764/1/4
f 1754/1/4 1755/1/4 1764/1/4
f 1764/1/4 1756/1/4 1765/1/4
f 1765/1/4 1756/1/4 1766/1/4
f 1758/2/4 1759/2/4 1767/2/4
f 1759/1/4 1760/1/4 1768/1/4
f 1767/2/4 1759/2/4 1768/2/4
f 1768/1/4 1760/1/4 1769/1/4
f 1761/2/4 1762/2/4 1770/2/4
f 1762/1/4 1763/1/4 1771/1/4
f 1770/2/4 1762/2/4 1771/2/4
f 1771/1/4 1763/1/4 1772/1/4
f 1764/8/4 1765/8/4 1773/8/4
f 1753/8/4 1764/8/4 1773/8/4
f 1773/8/4 1765/8/4 1774/8/4
f 1775/5/4 1776/5/4 1777/5/4
f 1777/5/4 1776/5/4 1778/5/4
f 1779/5/4 1780/5/4 1781/5/4
f 1781/5/4 1780/5/4 1782/5/4
f 1787/1/4 1788/1/4 1789/1/4
f 1789/1/4 1788/1/4 1790/1/4
f 1786/2/4 1787/2/4 1793/2/4
f 1787/1/4 1789/1/4 1794/1/4
f 1793/2/4 1787/2/4 1794/2/4
f 1794/1/4 1789/1/4 1795/1/4
f 1790/1/4 1788/1/4 1796/1/4
f 1796/1/4 1788/1/4 1797/1/4
f 1797/1/4 1788/1/4 1798/1/4
f 1783/2/4 1784/2/4 1802/2/4
f 1784/1/4 1785/1/4 1803/1/4
f 1802/2/4 1784/2/4 1803/2/4
f 1803/1/4 1785/1/4 1804/1/4
f 1798/1/4 1799/1/4 1805/1/4
f 1797/1/4 1798/1/4 1805/1/4
f 1805/1/4 1799/1/4 1806/1/4
f 1806/1/4 1799/1/4 1807/1/4
f 1791/1/4 1792/1/4 1809/1/4
f 1809/1/4 1792/1/4 1810/1/4
f 1810/1/4 1792/1/4 1811/1/4
f 1811/1/4 1792/1/4 1812/1/4
f 1800/7/4 1801/7/4 1815/7/4
f 1815/7/4 1801/7/4 1816/7/4
f 1807/1/4 1808/1/4 1817/1/4
f 1806/1/4 1807/1/4 1817/1/4
f 1817/1/4 1808/1/4 1818/1/4
f 1812/7/4 1813/7/4 1819/7/4
f 1811/7/4 1812/7/4 1819/7/4
f 1819/7/4 1813/7/4 1820/7/4
f 1820/7/4 1813/7/4 1821/7/4
f 1814/7/4 1815/7/4 1823/7/4
f 1823/7/4 1815/7/4 1824/7/4
f 1824/7/4 1815/7/4 1825/7/4
f 1818/1/4 1808/1/4 1829/1/4
f 1820/7/4 1821/7/4 1831/7/4
f 1821/7/4 1822/7/4 1831/7/4
f 1831/7/4 1822/7/4 1832/7/4
f 1832/7/4 1822/7/4 1833/7/4
f 1826/7/4 1827/7/4 1837/7/4
f 1837/7/4 1827/7/4 1838/7/4
f 1828/1/4 1829/1/4 1843/1/4
f 1829/1/4 1808/1/4 1844/1/4
f 1843/1/4 1829/1/4 1844/1/4
f 1844/1/4 1808/1/4 1845/1/4
f 1830/7/4 1831/7/4 1848/7/4
f 1831/7/4 1832/7/4 1848/7/4
f 1848/7/4 1832/7/4 1849/7/4
f 1849/7/4 1832/7/4 1850/7/4
f 1835/7/4 1836/7/4 1851/7/4
f 1834/7/4 1835/7/4 1851/7/4
f 1851/7/4 1836/7/4 1852/7/4
f 1793/1/4 1794/1/4 1854/1/4
f 1854/1/4 1794/1/4 1855/1/4
f 1842/1/4 1843/1/4 1858/1/4
f 1843/1/4 1844/1/4 1858/1/4
f 1858/1/4 1844/1/4 1859/1/4
f 1859/1/4 1844/1/4 1860/1/4
f 1852/7/4 1853/7/4 1861/7/4
f 1861/7/4 1853/7/4 1862/7/4
f 1855/1/4 1856/1/4 1863/1/4
f 1857/1/4 1858/1/4 1864/1/4
f 1858/1/4 1859/1/4 1864/1/4
f 1846/1/4 1847/1/4 1865/1/4
f 1847/1/4 1848/1/4 1865/1/4
f 1848/1/4 1849/1/4 1865/1/4
f 1865/1/4 1849/1/4 1866/1/4
f 1839/2/4 1840/2/4 1867/2/4
f 1840/1/4 1841/1/4 1868/1/4
f 1867/2/4 1840/2/4 1868/2/4
f 1868/1/4 1841/1/4 1869/1/4
f 1854/2/4 1855/2/4 1870/2/4
f 1863/1/4 1864/1/4 1871/1/4
f 1870/2/4 1855/2/4 1871/2/4
f 1855/1/4 1863/1/4 1871/1/4
f 1864/1/4 1859/1/4 1872/1/4
f 1871/1/4 1864/1/4 1872/1/4
f 1873/5/4 1874/5/4 1875/5/4
f 1875/5/4 1874/5/4 1876/5/4
f 1877/1/4 1878/1/4 1880/1/4
f 1880/1/4 1878/1/4 1881/1/4
f 1879/1/4 1880/1/4 1883/1/4
f 1881/1/4 1882/1/4 1883/1/4
f 1880/1/4 1881/1/4 1883/1/4
f 1883/1/4 1884/1/4 1889/1/4
f 1885/7/4 1886/7/4 1891/7/4
f 1887/7/4 1888/7/4 1894/7/4
f 1889/1/4 1890/1/4 1895/1/4
f 1883/1/4 1889/1/4 1895/1/4
f 1895/1/4 1890/1/4 1896/1/4
f 1891/7/4 1892/7/4 1897/7/4
f 1885/7/4 1891/7/4 1897/7/4
f 1897/7/4 1892/7/4 1898/7/4
f 1893/7/4 1894/7/4 1899/7/4
f 1894/7/4 1888/7/4 1900/7/4
f 1899/7/4 1894/7/4 1900/7/4
f 1879/1/4 1883/1/4 1901/1/4
f 1883/1/4 1895/1/4 1901/1/4
f 1901/1/4 1895/1/4 1902/1/4
f 1885/7/4 1897/7/4 1903/7/4
f 1903/7/4 1897/7/4 1904/7/4
f 1900/7/4 1888/7/4 1905/7/4
f 1905/7/4 1888/7/4 1906/7/4
f 1879/1/4 1901/1/4 1907/1/4
f 1907/1/4 1901/1/4 1908/1/4
f 1908/1/4 1901/1/4 1909/1/4
f 1909/1/4 1901/1/4 1910/1/4
f 1908/1/4 1909/1/4 1911/1/4
f 1911/1/4 1909/1/4 1912/1/4
f 1917/6/5 1914/6/5 1913/6/5
f 1918/6/5 1914/6/5 1917/6/5
f 1919/6/5 1916/6/5 1915/6/5
f 1920/6/5 1916/6/5 1919/6/5
f 1926/2/5 1922/2/5 1921/2/5
f 1927/2/5 1922/2/5 1926/2/5
f 1930/2/5 1924/2/5 1923/2/5
f 1931/2/5 1924/2/5 1930/2/5
f 1933/2/5 1928/2/5 1927/2/5
f 1933/2/5 1926/2/5 1925/2/5
f 1933/2/5 1927/2/5 1926/2/5
f 1934/2/5 1928/2/5 1933/2/5
f 1935/2/5 1932/2/5 1931/2/5
f 1935/2/5 1931/2/5 1930/2/5
f 1935/2/5 1930/2/5 1929/2/5
f 1936/2/5 1932/2/5 1935/2/5
f 1937/2/5 1933/2/5 1925/2/5
f 1938/2/5 1928/2/5 1934/2/5
f 1939/2/5 1935/2/5 1929/2/5
f 1940/2/5 1932/2/5 1936/2/5
f 1941/2/5 1937/2/5 1925/2/5
f 1941/2/5 1938/2/5 1937/2/5
f 1942/2/5 1938/2/5 1941/2/5
f 1943/2/5 1928/2/5 1938/2/5
f 1943/2/5 1938/2/5 1942/2/5
f 1944/2/5 1928/2/5 1943/2/5
f 1945/2/5 1940/2/5 1939/2/5
f 1945/2/5 1939/2/5 1929/2/5
f 1946/2/5 1940/2/5 1945/2/5
f 1947/2/5 1932/2/5 1940/2/5
f 1947/2/5 1940/2/5 1946/2/5
f 1948/2/5 1932/2/5 1947/2/5
f 1949/2/5 1943/2/5 1942/2/5
f 1950/2/5 1943/2/5 1949/2/5
f 1951/2/5 1947/2/5 1946/2/5
f 1952/2/5 1947/2/5 1951/2/5
f 1957/5/5 1954/5/5 1953/5/5
f 1958/5/5 1954/5/5 1957/5/5
f 1963/5/5 1956/5/5 1955/5/5
f 1964/5/5 1956/5/5 1963/5/5
f 1969/5/5 1966/5/5 1965/5/5
f 1970/5/5 1966/5/5 1969/5/5
f 1972/2/5 1960/2/5 1959/2/5
f 1973/2/5 1960/2/5 1972/2/5
f 1974/2/5 1962/2/5 1961/2/5
f 1975/2/5 1962/2/5 1974/2/5
f 1977/5/5 1968/5/5 1967/5/5
f 1978/5/5 1968/5/5 1977/5/5
f 1979/5/5 1971/5/5 1970/5/5
f 1980/5/5 1971/5/5 1979/5/5
f 1981/5/5 1977/5/5 1976/5/5
f 1982/5/5 1977/5/5 1981/5/5
f 1987/5/5 1984/5/5 1983/5/5
f 1992/5/5 1986/5/5 1985/5/5
f 1993/5/5 1984/5/5 1987/5/5
f 1994/5/5 1984/5/5 1993/5/5
f 1996/2/5 1989/2/5 1988/2/5
f 1997/1/5 1990/1/5 1989/1/5
f 1997/2/5 1989/2/5 1996/2/5
f 1998/1/5 1990/1/5 1997/1/5
f 1999/1/5 1990/1/5 1998/1/5
f 2000/2/5 1991/2/5 1990/2/5
f 2000/1/5 1990/1/5 1999/1/5
f 2001/2/5 1991/2/5 2000/2/5
f 2003/5/5 1992/5/5 1985/5/5
f 2004/5/5 1992/5/5 2003/5/5
f 2007/1/5 1999/1/5 1998/1/5
f 2008/1/5 1999/1/5 2007/1/5
f 2009/1/5 1999/1/5 2008/1/5
f 2010/1/5 1999/1/5 2009/1/5
f 2013/5/5 2006/5/5 2005/5/5
f 2014/5/5 2006/5/5 2013/5/5
f 2015/5/5 2012/5/5 2011/5/5
f 2016/5/5 2012/5/5 2015/5/5
f 2018/1/5 2009/1/5 2008/1/5
f 2019/1/5 2009/1/5 2018/1/5
f 2021/2/5 1996/2/5 1995/2/5
f 2022/2/5 1996/2/5 2021/2/5
f 2024/1/5 2020/1/5 2019/1/5
f 2024/1/5 2018/1/5 2017/1/5
f 2024/1/5 2019/1/5 2018/1/5
f 2025/1/5 2020/1/5 2024/1/5
f 2027/2/5 2002/2/5 2001/2/5
f 2028/2/5 2002/2/5 2027/2/5
f 2029/2/5 2023/2/5 2022/2/5
f 2030/1/5 2026/1/5 2025/1/5
f 2030/2/5 2023/2/5 2029/2/5
f 2030/1/5 2024/1/5 2023/1/5
f 2030/1/5 2025/1/5 2024/1/5
f 2031/2/5 2027/2/5 2026/2/5
f 2031/1/5 2026/1/5 2030/1/5
f 2032/2/5 2027/2/5 2031/2/5
f 2035/2/5 2034/2/5 2033/2/5
f 2036/2/5 2034/2/5 2035/2/5
f 2043/5/5 2039/5/5 2038/5/5
f 2043/5/5 2038/5/5 2037/5/5
f 2044/5/5 2039/5/5 2043/5/5
f 2045/5/5 2042/5/5 2041/5/5
f 2045/5/5 2041/5/5 2040/5/5
f 2046/5/5 2042/5/5 2045/5/5
f 2047/5/5 2043/5/5 2037/5/5
f 2048/5/5 2043/5/5 2047/5/5
f 2049/5/5 2042/5/5 2046/5/5
f 2050/5/5 2042/5/5 2049/5/5
f 2053/1/5 2052/1/5 2051/1/5
f 2054/1/5 2052/1/5 2053/1/5
f 2058/1/5 2056/1/5 2055/1/5
f 2059/1/5 2056/1/5 2058/1/5
f 2061/2/5 2058/2/5 2057/2/5
f 2062/2/5 2058/2/5 2061/2/5
f 2063/2/5 2060/2/5 2059/2/5
f 2064/2/5 2060/2/5 2063/2/5
f 2067/10/5 2066/10/5 2065/10/5
f 2068/10/5 2066/10/5 2067/10/5
f 2073/1/5 2070/1/5 2069/1/5
f 2074/1/5 2070/1/5 2073/1/5
f 2075/1/5 2072/1/5 2071/1/5
f 2076/1/5 2072/1/5 2075/1/5
f 2081/5/5 2078/5/5 2077/5/5
f 2082/5/5 2078/5/5 2081/5/5
f 2083/5/5 2080/5/5 2079/5/5
f 2084/5/5 2080/5/5 2083/5/5
f 2093/5/5 2086/5/5 2085/5/5
f 2094/5/5 2086/5/5 2093/5/5
f 2095/5/5 2088/5/5 2087/5/5
f 2096/5/5 2088/5/5 2095/5/5
f 2097/5/5 2090/5/5 2089/5/5
f 2098/5/5 2090/5/5 2097/5/5
f 2099/5/5 2092/5/5 2091/5/5
f 2100/5/5 2092/5/5 2099/5/5
f 2105/2/5 2102/2/5 2101/2/5
f 2106/2/5 2102/2/5 2105/2/5
f 2107/2/5 2104/2/5 2103/2/5
f 2108/2/5 2104/2/5 2107/2/5
f 2113/1/5 2110/1/5 2109/1/5
f 2114/1/5 2110/1/5 2113/1/5
f 2115/1/5 2112/1/5 2111/1/5
f 2116/1/5 2112/1/5 2115/1/5
f 2121/7/5 2118/7/5 2117/7/5
f 2122/7/5 2118/7/5 2121/7/5
f 2123/7/5 2120/7/5 2119/7/5
f 2124/7/5 2120/7/5 2123/7/5
f 2129/7/5 2126/7/5 2125/7/5
f 2130/7/5 2126/7/5 2129/7/5
f 2131/7/5 2128/7/5 2127/7/5
f 2132/7/5 2128/7/5 2131/7/5
f 2137/1/5 2134/1/5 2133/1/5
f 2138/1/5 2134/1/5 2137/1/5
f 2139/1/5 2136/1/5 2135/1/5
f 2140/1/5 2136/1/5 2139/1/5
f 2145/7/5 2142/7/5 2141/7/5
f 2146/7/5 2142/7/5 2145/7/5
f 2147/7/5 2144/7/5 2143/7/5
f 2148/7/5 2144/7/5 2147/7/5
f 2154/8/5 2150/8/5 2149/8/5
f 2155/8/5 2150/8/5 2154/8/5
f 2156/8/5 2152/8/5 2151/8/5
f 2157/8/5 2152/8/5 2156/8/5
f 2159/8/5 2154/8/5 2153/8/5
f 2162/8/5 2158/8/5 2157/8/5
f 2163/4/5 2160/4/5 2159/4/5
f 2163/8/5 2159/8/5 2153/8/5
f 2164/4/5 2160/4/5 2163/4/5
f 2165/4/5 2162/4/5 2161/4/5
f 2166/8/5 2158/8/5 2162/8/5
f 2166/4/5 2162/4/5 2165/4/5
f 2167/8/5 2163/8/5 2153/8/5
f 2168/8/5 2163/8/5 2167/8/5
f 2171/8/5 2158/8/5 2166/8/5
f 2172/8/5 2158/8/5 2171/8/5
f 2173/8/5 2169/8/5 2168/8/5
f 2173/8/5 2168/8/5 2167/8/5
f 2174/8/5 2169/8/5 2173/8/5
f 2175/8/5 2172/8/5 2171/8/5
f 2175/8/5 2171/8/5 2170/8/5
f 2176/8/5 2172/8/5 2175/8/5
f 2179/7/5 2178/7/5 2177/7/5
f 2180/7/5 2178/7/5 2179/7/5
f 2185/7/5 2182/7/5 2181/7/5
f 2186/7/5 2182/7/5 2185/7/5
f 2189/7/5 2184/7/5 2183/7/5
f 2190/7/5 2184/7/5 2189/7/5
f 2191/1/5 2187/1/5 2186/1/5
f 2192/1/5 2187/1/5 2191/1/5
f 2193/1/5 2189/1/5 2188/1/5
f 2194/1/5 2189/1/5 2193/1/5
f 2197/7/5 2196/7/5 2195/7/5
f 2198/7/5 2196/7/5 2197/7/5
f 2201/3/5 2200/3/5 2199/3/5
f 2202/3/5 2200/3/5 2201/3/5
f 2205/8/5 2202/8/5 2201/8/5
f 2206/8/5 2202/8/5 2205/8/5
f 2207/8/5 2202/8/5 2206/8/5
f 2208/8/5 2202/8/5 2207/8/5
f 2211/1/5 2204/1/5 2203/1/5
f 2212/1/5 2204/1/5 2211/1/5
f 2213/8/5 2207/8/5 2206/8/5
f 2214/8/5 2207/8/5 2213/8/5
f 2215/1/5 2210/1/5 2209/1/5
f 2216/1/5 2210/1/5 2215/1/5
f 2221/3/5 2218/3/5 2217/3/5
f 2222/3/5 2218/3/5 2221/3/5
f 2225/3/5 2220/3/5 2219/3/5
f 2226/3/5 2220/3/5 2225/3/5
f 2227/3/5 2224/3/5 2223/3/5
f 2228/3/5 2224/3/5 2227/3/5
f 2231/8/5 2226/8/5 2225/8/5
f 2232/8/5 2226/8/5 2231/8/5
f 2233/8/5 2228/8/5 2227/8/5
f 2234/8/5 2228/8/5 2233/8/5
f 2237/7/5 2230/7/5 2229/7/5
f 2238/7/5 2230/7/5 2237/7/5
f 2239/7/5 2236/7/5 2235/7/5
f 2240/7/5 2236/7/5 2239/7/5
f 2245/3/5 2242/3/5 2241/3/5
f 2245/3/5 2244/3/5 2243/3/5
f 2245/3/5 2243/3/5 2242/3/5
f 2246/3/5 2244/3/5 2245/3/5
f 2251/7/5 2248/7/5 2247/7/5
f 2252/7/5 2248/7/5 2251/7/5
f 2253/7/5 2250/7/5 2249/7/5
f 2254/7/5 2250/7/5 2253/7/5
f 2261/7/5 2256/7/5 2255/7/5
f 2262/9/5 2257/9/5 2256/9/5
f 2262/7/5 2256/7/5 2261/7/5
f 2263/9/5 2257/9/5 2262/9/5
f 2264/9/5 2259/9/5 2258/9/5
f 2265/7/5 2260/7/5 2259/7/5
f 2265/9/5 2259/9/5 2264/9/5
f 2266/7/5 2260/7/5 2265/7/5
f 2271/7/5 2268/7/5 2267/7/5
f 2272/7/5 2268/7/5 2271/7/5
f 2273/7/5 2270/7/5 2269/7/5
f 2274/7/5 2270/7/5 2273/7/5
f 2279/7/5 2276/7/5 2275/7/5
f 2280/7/5 2276/7/5 2279/7/5
f 2281/7/5 2278/7/5 2277/7/5
f 2282/7/5 2278/7/5 2281/7/5
f 2287/7/5 2284/7/5 2283/7/5
f 2288/7/5 2284/7/5 2287/7/5
f 2289/7/5 2286/7/5 2285/7/5
f 2290/7/5 2286/7/5 2289/7/5
f 2295/7/5 2292/7/5 2291/7/5
f 2298/7/5 2294/7/5 2293/7/5
f 2299/7/5 2296/7/5 2295/7/5
f 2299/7/5 2295/7/5 2291/7/5
f 2300/7/5 2296/7/5 2299/7/5
f 2301/7/5 2298/7/5 2297/7/5
f 2301/7/5 2294/7/5 2298/7/5
f 2302/7/5 2294/7/5 2301/7/5
f 2303/7/5 2296/7/5 2300/7/5
f 2304/7/5 2296/7/5 2303/7/5
f 2309/7/5 2301/7/5 2297/7/5
f 2310/7/5 2301/7/5 2309/7/5
f 2311/7/5 2306/7/5 2305/7/5
f 2312/7/5 2306/7/5 2311/7/5
f 2315/7/5 2308/7/5 2307/7/5
f 2316/7/5 2308/7/5 2315/7/5
f 2317/7/5 2314/7/5 2313/7/5
f 2318/7/5 2314/7/5 2317/7/5
f 2319/7/5 2318/7/5 2317/7/5
f 2320/7/5 2318/7/5 2319/7/5
f 2325/7/5 2322/7/5 2321/7/5
f 2326/7/5 2322/7/5 2325/7/5
f 2329/7/5 2324/7/5 2323/7/5
f 2330/7/5 2324/7/5 2329/7/5
f 2331/7/5 2327/7/5 2326/7/5
f 2332/7/5 2327/7/5 2331/7/5
f 2333/7/5 2329/7/5 2328/7/5
f 2334/7/5 2329/7/5 2333/7/5
f 2335/6/6 2336/6/6 2339/6/6
f 2339/6/6 2336/6/6 2340/6/6
f 2337/6/6 2338/6/6 2341/6/6
f 2341/6/6 2338/6/6 2342/6/6
f 2343/6/6 2344/6/6 2347/6/6
f 2347/6/6 2344/6/6 2348/6/6
f 2345/6/6 2346/6/6 2349/6/6
f 2349/6/6 2346/6/6 2350/6/6
f 2351/1/6 2352/1/6 2356/1/6
f 2356/1/6 2352/1/6 2357/1/6
f 2353/1/6 2354/1/6 2360/1/6
f 2360/1/6 2354/1/6 2361/1/6
f 2355/1/6 2356/1/6 2363/1/6
f 2363/1/6 2356/1/6 2364/1/6
f 2357/1/6 2358/1/6 2365/1/6
f 2365/1/6 2358/1/6 2366/1/6
f 2359/1/6 2360/1/6 2367/1/6
f 2367/1/6 2360/1/6 2368/1/6
f 2361/1/6 2362/1/6 2369/1/6
f 2369/1/6 2362/1/6 2370/1/6
f 2364/1/6 2365/1/6 2371/1/6
f 2371/1/6 2365/1/6 2372/1/6
f 2368/1/6 2369/1/6 2373/1/6
f 2373/1/6 2369/1/6 2374/1/6
f 2375/5/6 2376/5/6 2379/5/6
f 2379/5/6 2376/5/6 2380/5/6
f 2377/5/6 2378/5/6 2381/5/6
f 2381/5/6 2378/5/6 2382/5/6
f 2375/5/6 2379/5/6 2383/5/6
f 2383/5/6 2379/5/6 2384/5/6
f 2382/5/6 2378/5/6 2385/5/6
f 2385/5/6 2378/5/6 2386/5/6
f 2387/5/6 2388/5/6 2391/5/6
f 2391/5/6 2388/5/6 2392/5/6
f 2389/5/6 2390/5/6 2393/5/6
f 2393/5/6 2390/5/6 2394/5/6
f 2395/5/6 2396/5/6 2399/5/6
f 2399/5/6 2396/5/6 2400/5/6
f 2397/5/6 2398/5/6 2401/5/6
f 2401/5/6 2398/5/6 2402/5/6
f 2403/5/6 2404/5/6 2408/5/6
f 2408/5/6 2404/5/6 2409/5/6
f 2405/5/6 2406/5/6 2412/5/6
f 2412/5/6 2406/5/6 2413/5/6
f 2407/5/6 2408/5/6 2415/5/6
f 2415/5/6 2408/5/6 2416/5/6
f 2409/5/6 2410/5/6 2417/5/6
f 2417/5/6 2410/5/6 2418/5/6
f 2411/5/6 2412/5/6 2419/5/6
f 2419/5/6 2412/5/6 2420/5/6
f 2413/5/6 2414/5/6 2421/5/6
f 2421/5/6 2414/5/6 2422/5/6
f 2423/5/6 2424/5/6 2427/5/6
f 2427/5/6 2424/5/6 2428/5/6
f 2425/5/6 2426/5/6 2431/5/6
f 2431/5/6 2426/5/6 2432/5/6
f 2428/5/6 2429/5/6 2433/5/6
f 2433/5/6 2429/5/6 2434/5/6
f 2430/5/6 2431/5/6 2435/5/6
f 2435/5/6 2431/5/6 2436/5/6
f 2437/1/6 2438/1/6 2439/1/6
f 2439/1/6 2438/1/6 2440/1/6
f 2441/1/6 2442/1/6 2445/1/6
f 2445/1/6 2442/1/6 2446/1/6
f 2443/1/6 2444/1/6 2447/1/6
f 2447/1/6 2444/1/6 2448/1/6
f 2449/1/6 2450/1/6 2453/1/6
f 2453/1/6 2450/1/6 2454/1/6
f 2451/1/6 2452/1/6 2455/1/6
f 2455/1/6 2452/1/6 2456/1/6
f 2457/5/6 2458/5/6 2462/5/6
f 2462/5/6 2458/5/6 2463/5/6
f 2459/5/6 2460/5/6 2466/5/6
f 2466/5/6 2460/5/6 2467/5/6
f 2461/5/6 2462/5/6 2469/5/6
f 2469/5/6 2462/5/6 2470/5/6
f 2463/1/6 2464/1/6 2471/1/6
f 2471/1/6 2464/1/6 2472/1/6
f 2465/1/6 2466/1/6 2473/1/6
f 2473/1/6 2466/1/6 2474/1/6
f 2467/5/6 2468/5/6 2475/5/6
f 2475/5/6 2468/5/6 2476/5/6
f 2477/1/6 2478/1/6 2481/1/6
f 2481/1/6 2478/1/6 2482/1/6
f 2479/1/6 2480/1/6 2483/1/6
f 2483/1/6 2480/1/6 2484/1/6
f 2485/1/6 2486/1/6 2488/1/6
f 2488/1/6 2486/1/6 2489/1/6
f 2487/2/6 2488/2/6 2491/2/6
f 2491/2/6 2488/2/6 2492/2/6
f 2489/2/6 2490/2/6 2493/2/6
f 2493/2/6 2490/2/6 2494/2/6
f 2495/1/6 2496/1/6 2499/1/6
f 2499/1/6 2496/1/6 2500/1/6
f 2497/1/6 2498/1/6 2501/1/6
f 2501/1/6 2498/1/6 2502/1/6
f 2503/1/6 2504/1/6 2507/1/6
f 2507/1/6 2504/1/6 2508/1/6
f 2505/1/6 2506/1/6 2509/1/6
f 2509/1/6 2506/1/6 2510/1/6
f 2503/1/6 2507/1/6 2511/1/6
f 2511/1/6 2507/1/6 2512/1/6
f 2510/1/6 2506/1/6 2513/1/6
f 2513/1/6 2506/1/6 2514/1/6
f 2515/1/6 2516/1/6 2519/1/6
f 2517/1/6 2518/1/6 2522/1/6
f 2519/1/6 2520/1/6 2523/1/6
f 2515/1/6 2519/1/6 2523/1/6
f 2523/1/6 2520/1/6 2524/1/6
f 2521/1/6 2522/1/6 2529/1/6
f 2522/1/6 2518/1/6 2530/1/6
f 2529/1/6 2522/1/6 2530/1/6
f 2525/1/6 2526/1/6 2531/1/6
f 2531/1/6 2526/1/6 2532/1/6
f 2527/1/6 2528/1/6 2533/1/6
f 2533/1/6 2528/1/6 2534/1/6
f 2535/2/6 2536/2/6 2537/2/6
f 2537/2/6 2536/2/6 2538/2/6
f 2539/1/6 2540/1/6 2543/1/6
f 2543/1/6 2540/1/6 2544/1/6
f 2541/1/6 2542/1/6 2545/1/6
f 2545/1/6 2542/1/6 2546/1/6
f 2547/1/6 2548/1/6 2551/1/6
f 2551/1/6 2548/1/6 2552/1/6
f 2549/1/6 2550/1/6 2555/1/6
f 2555/1/6 2550/1/6 2556/1/6
f 2553/1/6 2554/1/6 2557/1/6
f 2557/1/6 2554/1/6 2558/1/6
f 2559/2/6 2560/2/6 2563/2/6
f 2563/2/6 2560/2/6 2564/2/6
f 2561/2/6 2562/2/6 2565/2/6
f 2565/2/6 2562/2/6 2566/2/6
f 2567/1/6 2568/1/6 2569/1/6
f 2569/1/6 2568/1/6 2570/1/6
f 2571/8/6 2572/8/6 2575/8/6
f 2575/8/6 2572/8/6 2576/8/6
f 2573/8/6 2574/8/6 2577/8/6
f 2577/8/6 2574/8/6 2578/8/6
f 2579/8/6 2580/8/6 2583/8/6
f 2583/8/6 2580/8/6 2584/8/6
f 2581/8/6 2582/8/6 2585/8/6
f 2585/8/6 2582/8/6 2586/8/6
f 2587/7/6 2588/7/6 2591/7/6
f 2591/7/6 2588/7/6 2592/7/6
f 2589/7/6 2590/7/6 2593/7/6
f 2593/7/6 2590/7/6 2594/7/6
f 2595/3/6 2596/3/6 2599/3/6
f 2597/3/6 2598/3/6 2599/3/6
f 2596/3/6 2597/3/6 2599/3/6
f 2599/3/6 2598/3/6 2600/3/6
f 2601/8/6 2602/8/6 2605/8/6
f 2605/8/6 2602/8/6 2606/8/6
f 2603/8/6 2604/8/6 2611/8/6
f 2611/8/6 2604/8/6 2612/8/6
f 2607/1/6 2608/1/6 2613/1/6
f 2613/1/6 2608/1/6 2614/1/6
f 2609/1/6 2610/1/6 2615/1/6
f 2615/1/6 2610/1/6 2616/1/6
f 2617/7/6 2618/7/6 2621/7/6
f 2621/7/6 2618/7/6 2622/7/6
f 2619/7/6 2620/7/6 2623/7/6
f 2623/7/6 2620/7/6 2624/7/6
f 2625/1/6 2626/1/6 2629/1/6
f 2629/1/6 2626/1/6 2630/1/6
f 2627/1/6 2628/1/6 2631/1/6
f 2631/1/6 2628/1/6 2632/1/6
f 2633/3/6 2634/3/6 2637/3/6
f 2637/3/6 2634/3/6 2638/3/6
f 2635/3/6 2636/3/6 2639/3/6
f 2639/3/6 2636/3/6 2640/3/6
f 2641/7/6 2642/7/6 2643/7/6
f 2643/7/6 2642/7/6 2644/7/6
f 2645/3/6 2646/3/6 2647/3/6
f 2647/3/6 2646/3/6 2648/3/6
f 2649/7/6 2650/7/6 2653/7/6
f 2653/7/6 2650/7/6 2654/7/6
f 2651/7/6 2652/7/6 2655/7/6
f 2655/7/6 2652/7/6 2656/7/6
f 2657/7/6 2658/7/6 2661/7/6
f 2661/7/6 2658/7/6 2662/7/6
f 2659/7/6 2660/7/6 2663/7/6
f 2663/7/6 2660/7/6 2664/7/6
f 2665/3/6 2666/3/6 2667/3/6
f 2667/3/6 2666/3/6 2668/3/6
f 2669/7/6 2670/7/6 2674/7/6
f 2674/7/6 2670/7/6 2675/7/6
f 2671/7/6 2672/7/6 2676/7/6
f 2676/7/6 2672/7/6 2677/7/6
f 2673/7/6 2674/7/6 2679/7/6
f 2679/7/6 2674/7/6 2680/7/6
f 2677/7/6 2678/7/6 2683/7/6
f 2683/7/6 2678/7/6 2684/7/6
f 2681/7/6 2682/7/6 2685/7/6
f 2685/7/6 2682/7/6 2686/7/6
f 2687/9/6 2688/9/6 2691/9/6
f 2691/9/6 2688/9/6 2692/9/6
f 2689/9/6 2690/9/6 2693/9/6
f 2693/9/6 2690/9/6 2694/9/6
f 2695/7/6 2696/7/6 2699/7/6
f 2699/7/6 2696/7/6 2700/7/6
f 2697/7/6 2698/7/6 2705/7/6
f 2705/7/6 2698/7/6 2706/7/6
f 2701/7/6 2702/7/6 2707/7/6
f 2707/7/6 2702/7/6 2708/7/6
f 2703/7/6 2704/7/6 2709/7/6
f 2709/7/6 2704/7/6 2710/7/6
f 2711/7/6 2712/7/6 2715/7/6
f 2715/7/6 2712/7/6 2716/7/6
f 2713/7/6 2714/7/6 2717/7/6
f 2717/7/6 2714/7/6 2718/7/6
f 2711/7/6 2715/7/6 2719/7/6
f 2719/7/6 2715/7/6 2720/7/6
f 2718/7/6 2714/7/6 2721/7/6
f 2721/7/6 2714/7/6 2722/7/6
f 2723/8/6 2724/8/6 2726/8/6
f 2726/8/6 2724/8/6 2727/8/6
f 2725/7/6 2726/7/6 2730/7/6
f 2727/7/6 2728/7/6 2731/7/6
f 2726/8/6 2727/8/6 2733/8/6
f 2733/8/6 2727/8/6 2734/8/6
f 2729/7/6 2730/7/6 2735/7/6
f 2730/7/6 2726/7/6 2735/7/6
f 2726/8/6 2733/8/6 2735/8/6
f 2735/8/6 2733/8/6 2736/8/6
f 2736/8/6 2733/8/6 2737/8/6
f 2734/8/6 2727/8/6 2738/8/6
f 2738/8/6 2727/8/6 2739/8/6
f 2731/7/6 2732/7/6 2740/7/6
f 2739/8/6 2727/8/6 2740/8/6
f 2727/7/6 2731/7/6 2740/7/6
f 2729/7/6 2735/7/6 2741/7/6
f 2735/7/6 2736/7/6 2741/7/6
f 2741/7/6 2736/7/6 2742/7/6
f 2740/7/6 2732/7/6 2743/7/6
f 2739/7/6 2740/7/6 2743/7/6
f 2743/7/6 2732/7/6 2744/7/6
f 2742/7/6 2736/7/6 2745/7/6
f 2745/7/6 2736/7/6 2746/7/6
f 2739/7/6 2743/7/6 2747/7/6
f 2747/7/6 2743/7/6 2748/7/6
f 2749/7/6 2750/7/6 2753/7/6
f 2753/7/6 2750/7/6 2754/7/6
f 2751/7/6 2752/7/6 2755/7/6
f 2755/7/6 2752/7/6 2756/7/6
f 2757/7/6 2758/7/6 2760/7/6
f 2760/7/6 2758/7/6 2761/7/6
f 2761/7/6 2758/7/6 2762/7/6
f 2762/7/6 2758/7/6 2763/7/6
f 2759/7/6 2760/7/6 2765/7/6
f 2760/7/6 2761/7/6 2765/7/6
f 2765/7/6 2761/7/6 2766/7/6
f 2763/7/6 2764/7/6 2767/7/6
f 2762/7/6 2763/7/6 2767/7/6
f 2767/7/6 2764/7/6 2768/7/6
f 2759/7/6 2765/7/6 2769/7/6
f 2769/7/6 2765/7/6 2770/7/6
f 2768/7/6 2764/7/6 2773/7/6
f 2773/7/6 2764/7/6 2774/7/6
f 2770/7/6 2771/7/6 2775/7/6
f 2772/7/6 2773/7/6 2776/7/6
f 2770/7/6 2775/7/6 2777/7/6
f 2775/7/6 2776/7/6 2777/7/6
f 2776/7/6 2773/7/6 2778/7/6
f 2777/7/6 2776/7/6 2778/7/6
f 2779/7/6 2780/7/6 2782/7/6
f 2782/7/6 2780/7/6 2783/7/6
f 2781/7/6 2782/7/6 2785/7/6
f 2783/7/6 2784/7/6 2785/7/6
f 2782/7/6 2783/7/6 2785/7/6
f 2785/7/6 2784/7/6 2786/7/6
f 2786/7/6 2784/7/6 2787/7/6
f 2787/7/6 2784/7/6 2788/7/6
f 2786/7/6 2787/7/6 2789/7/6
f 2789/7/6 2787/7/6 2790/7/6
