# MagicaVoxel @ Ephtracy

# group
o 

# material
mtllib Mechanic-0.mtl
usemtl palette

# normals
vn -1 0 0
vn 1 0 0
vn 0 0 1
vn 0 0 -1
vn 0 -1 0
vn 0 1 0

# texcoords
vt 0.626953 0.5
vt 0.630859 0.5
vt 0.951172 0.5

# verts
v -0.2 -0.1 0.1
v -0.2 -0.1 -0.4
v -0.2 0 0.1
v -0.2 0 -0.4
v -0.2 0.1 0.1
v -0.2 0.1 -0.4
v -0.2 0.4 0
v -0.2 0.4 -0.3
v -0.2 0.5 0
v -0.2 0.5 -0.3
v -0.1 -0.5 0.4
v -0.1 -0.5 -0.3
v -0.1 -0.3 0.1
v -0.1 -0.3 0
v -0.1 -0.2 0.4
v -0.1 -0.2 0.1
v -0.1 -0.1 0.2
v -0.1 -0.1 0.1
v -0.1 -0.1 0
v -0.1 -0.1 -0.3
v -0.1 -0.1 -0.4
v -0.1 -0.1 -0.5
v -0.1 0 0.2
v -0.1 0 0.1
v -0.1 0 -0.4
v -0.1 0 -0.5
v -0.1 0.1 0.2
v -0.1 0.1 0.1
v -0.1 0.1 -0.4
v -0.1 0.1 -0.5
v -0.1 0.4 0.1
v -0.1 0.4 0
v -0.1 0.4 -0.3
v -0.1 0.4 -0.4
v -0.1 0.5 0.1
v -0.1 0.5 0
v -0.1 0.5 -0.3
v -0.1 0.5 -0.4
v 0.2 -0.5 0.4
v 0.2 -0.5 -0.3
v 0.2 -0.3 0.1
v 0.2 -0.3 0
v 0.2 -0.2 0.4
v 0.2 -0.2 0.1
v 0.2 -0.1 0.2
v 0.2 -0.1 0.1
v 0.2 -0.1 0
v 0.2 -0.1 -0.3
v 0.2 -0.1 -0.4
v 0.2 -0.1 -0.5
v 0.2 0 0.2
v 0.2 0 0.1
v 0.2 0 -0.4
v 0.2 0 -0.5
v 0.2 0.1 0.2
v 0.2 0.1 0.1
v 0.2 0.1 -0.4
v 0.2 0.1 -0.5
v 0.2 0.5 0.1
v 0.2 0.5 -0.4
v 0.3 -0.1 0.1
v 0.3 -0.1 -0.4
v 0.3 0 0.1
v 0.3 0 -0.4
v 0.3 0.1 0.1
v 0.3 0.1 -0.4
v -0.1 -0.5 0.4
v -0.1 -0.2 0.4
v 0.2 -0.5 0.4
v 0.2 -0.2 0.4
v -0.1 -0.1 0.2
v -0.1 0 0.2
v -0.1 0.1 0.2
v 0.2 -0.1 0.2
v 0.2 0 0.2
v 0.2 0.1 0.2
v -0.2 -0.1 0.1
v -0.2 0 0.1
v -0.2 0.1 0.1
v -0.1 -0.1 0.1
v -0.1 0 0.1
v -0.1 0.1 0.1
v -0.1 0.4 0.1
v -0.1 0.5 0.1
v 0 0.4 0.1
v 0 0.5 0.1
v 0.2 -0.1 0.1
v 0.2 0 0.1
v 0.2 0.1 0.1
v 0.2 0.5 0.1
v 0.3 -0.1 0.1
v 0.3 0 0.1
v 0.3 0.1 0.1
v -0.2 0.4 0
v -0.2 0.5 0
v -0.1 -0.3 0
v -0.1 -0.1 0
v -0.1 0.4 0
v -0.1 0.5 0
v 0.2 -0.3 0
v 0.2 -0.1 0
v -0.1 -0.3 0.1
v -0.1 -0.2 0.1
v 0.2 -0.3 0.1
v 0.2 -0.2 0.1
v -0.2 0.4 -0.3
v -0.2 0.5 -0.3
v -0.1 -0.5 -0.3
v -0.1 -0.1 -0.3
v -0.1 0.4 -0.3
v -0.1 0.5 -0.3
v 0.2 -0.5 -0.3
v 0.2 -0.1 -0.3
v -0.2 -0.1 -0.4
v -0.2 0 -0.4
v -0.2 0.1 -0.4
v -0.1 -0.1 -0.4
v -0.1 0 -0.4
v -0.1 0.1 -0.4
v -0.1 0.4 -0.4
v -0.1 0.5 -0.4
v 0 0.4 -0.4
v 0 0.5 -0.4
v 0.2 -0.1 -0.4
v 0.2 0 -0.4
v 0.2 0.1 -0.4
v 0.2 0.5 -0.4
v 0.3 -0.1 -0.4
v 0.3 0 -0.4
v 0.3 0.1 -0.4
v -0.1 -0.1 -0.5
v -0.1 0 -0.5
v -0.1 0.1 -0.5
v 0.2 -0.1 -0.5
v 0.2 0 -0.5
v 0.2 0.1 -0.5
v -0.1 -0.5 0.4
v 0.2 -0.5 0.4
v -0.1 -0.5 -0.3
v 0.2 -0.5 -0.3
v -0.1 -0.1 0.2
v 0.2 -0.1 0.2
v -0.2 -0.1 0.1
v -0.1 -0.1 0.1
v 0.2 -0.1 0.1
v 0.3 -0.1 0.1
v -0.1 -0.1 0
v 0.2 -0.1 0
v -0.1 -0.1 -0.3
v 0.2 -0.1 -0.3
v -0.2 -0.1 -0.4
v -0.1 -0.1 -0.4
v 0.2 -0.1 -0.4
v 0.3 -0.1 -0.4
v -0.1 -0.1 -0.5
v 0.2 -0.1 -0.5
v -0.2 0.4 0
v -0.1 0.4 0
v -0.2 0.4 -0.3
v -0.1 0.4 -0.3
v -0.1 -0.3 0.1
v 0.2 -0.3 0.1
v -0.1 -0.3 0
v 0.2 -0.3 0
v -0.1 -0.2 0.4
v 0.2 -0.2 0.4
v -0.1 -0.2 0.1
v 0.2 -0.2 0.1
v -0.1 0.1 0.2
v 0.2 0.1 0.2
v -0.2 0.1 0.1
v -0.1 0.1 0.1
v 0.2 0.1 0.1
v 0.3 0.1 0.1
v -0.2 0.1 -0.4
v -0.1 0.1 -0.4
v 0.2 0.1 -0.4
v 0.3 0.1 -0.4
v -0.1 0.1 -0.5
v 0.2 0.1 -0.5
v -0.1 0.5 0.1
v 0 0.5 0.1
v 0.2 0.5 0.1
v -0.2 0.5 0
v -0.1 0.5 0
v -0.2 0.5 -0.3
v -0.1 0.5 -0.3
v -0.1 0.5 -0.4
v 0 0.5 -0.4
v 0.2 0.5 -0.4

# faces
f 3/2/1 2/2/1 1/2/1
f 4/2/1 2/2/1 3/2/1
f 5/1/1 4/1/1 3/1/1
f 6/1/1 4/1/1 5/1/1
f 9/2/1 8/2/1 7/2/1
f 10/2/1 8/2/1 9/2/1
f 13/3/1 12/3/1 11/3/1
f 14/3/1 12/3/1 13/3/1
f 15/3/1 13/3/1 11/3/1
f 16/3/1 13/3/1 15/3/1
f 19/3/1 12/3/1 14/3/1
f 20/3/1 12/3/1 19/3/1
f 23/2/1 18/2/1 17/2/1
f 24/2/1 18/2/1 23/2/1
f 25/2/1 22/2/1 21/2/1
f 26/2/1 22/2/1 25/2/1
f 27/1/1 24/1/1 23/1/1
f 28/1/1 24/1/1 27/1/1
f 29/1/1 26/1/1 25/1/1
f 30/1/1 26/1/1 29/1/1
f 31/1/1 29/1/1 28/1/1
f 32/1/1 29/1/1 31/1/1
f 33/1/1 29/1/1 32/1/1
f 34/1/1 29/1/1 33/1/1
f 35/2/1 32/2/1 31/2/1
f 36/2/1 32/2/1 35/2/1
f 37/2/1 34/2/1 33/2/1
f 38/2/1 34/2/1 37/2/1
f 39/3/2 40/3/2 41/3/2
f 41/3/2 40/3/2 42/3/2
f 39/3/2 41/3/2 43/3/2
f 43/3/2 41/3/2 44/3/2
f 42/3/2 40/3/2 47/3/2
f 47/3/2 40/3/2 48/3/2
f 45/2/2 46/2/2 51/2/2
f 51/2/2 46/2/2 52/2/2
f 49/2/2 50/2/2 53/2/2
f 53/2/2 50/2/2 54/2/2
f 51/1/2 52/1/2 55/1/2
f 55/1/2 52/1/2 56/1/2
f 53/1/2 54/1/2 57/1/2
f 57/1/2 54/1/2 58/1/2
f 56/1/2 57/1/2 59/1/2
f 59/1/2 57/1/2 60/1/2
f 61/2/2 62/2/2 63/2/2
f 63/2/2 62/2/2 64/2/2
f 63/1/2 64/1/2 65/1/2
f 65/1/2 64/1/2 66/1/2
f 69/3/3 68/3/3 67/3/3
f 70/3/3 68/3/3 69/3/3
f 74/2/3 72/2/3 71/2/3
f 75/1/3 73/1/3 72/1/3
f 75/2/3 72/2/3 74/2/3
f 76/1/3 73/1/3 75/1/3
f 80/2/3 78/2/3 77/2/3
f 81/1/3 79/1/3 78/1/3
f 81/2/3 78/2/3 80/2/3
f 82/1/3 79/1/3 81/1/3
f 85/2/3 84/2/3 83/2/3
f 85/1/3 83/1/3 82/1/3
f 86/2/3 84/2/3 85/2/3
f 89/1/3 85/1/3 82/1/3
f 89/1/3 86/1/3 85/1/3
f 90/1/3 86/1/3 89/1/3
f 91/2/3 88/2/3 87/2/3
f 92/1/3 89/1/3 88/1/3
f 92/2/3 88/2/3 91/2/3
f 93/1/3 89/1/3 92/1/3
f 98/2/3 95/2/3 94/2/3
f 99/2/3 95/2/3 98/2/3
f 100/3/3 97/3/3 96/3/3
f 101/3/3 97/3/3 100/3/3
f 102/3/4 103/3/4 104/3/4
f 104/3/4 103/3/4 105/3/4
f 106/2/4 107/2/4 110/2/4
f 110/2/4 107/2/4 111/2/4
f 108/3/4 109/3/4 112/3/4
f 112/3/4 109/3/4 113/3/4
f 114/2/4 115/2/4 117/2/4
f 115/1/4 116/1/4 118/1/4
f 117/2/4 115/2/4 118/2/4
f 118/1/4 116/1/4 119/1/4
f 120/2/4 121/2/4 122/2/4
f 119/1/4 120/1/4 122/1/4
f 122/2/4 121/2/4 123/2/4
f 119/1/4 122/1/4 126/1/4
f 122/1/4 123/1/4 126/1/4
f 126/1/4 123/1/4 127/1/4
f 124/2/4 125/2/4 128/2/4
f 125/1/4 126/1/4 129/1/4
f 128/2/4 125/2/4 129/2/4
f 129/1/4 126/1/4 130/1/4
f 131/2/4 132/2/4 134/2/4
f 132/1/4 133/1/4 135/1/4
f 134/2/4 132/2/4 135/2/4
f 135/1/4 133/1/4 136/1/4
f 139/3/5 138/3/5 137/3/5
f 140/3/5 138/3/5 139/3/5
f 144/2/5 142/2/5 141/2/5
f 145/2/5 142/2/5 144/2/5
f 147/2/5 144/2/5 143/2/5
f 147/2/5 146/2/5 145/2/5
f 147/2/5 145/2/5 144/2/5
f 148/2/5 146/2/5 147/2/5
f 149/2/5 147/2/5 143/2/5
f 150/2/5 146/2/5 148/2/5
f 151/2/5 149/2/5 143/2/5
f 151/2/5 150/2/5 149/2/5
f 152/2/5 150/2/5 151/2/5
f 153/2/5 146/2/5 150/2/5
f 153/2/5 150/2/5 152/2/5
f 154/2/5 146/2/5 153/2/5
f 155/2/5 153/2/5 152/2/5
f 156/2/5 153/2/5 155/2/5
f 159/2/5 158/2/5 157/2/5
f 160/2/5 158/2/5 159/2/5
f 161/3/6 162/3/6 163/3/6
f 163/3/6 162/3/6 164/3/6
f 165/3/6 166/3/6 167/3/6
f 167/3/6 166/3/6 168/3/6
f 169/1/6 170/1/6 172/1/6
f 172/1/6 170/1/6 173/1/6
f 171/1/6 172/1/6 175/1/6
f 175/1/6 172/1/6 176/1/6
f 173/1/6 174/1/6 177/1/6
f 177/1/6 174/1/6 178/1/6
f 176/1/6 177/1/6 179/1/6
f 179/1/6 177/1/6 180/1/6
f 181/2/6 182/2/6 185/2/6
f 184/2/6 185/2/6 186/2/6
f 185/2/6 182/2/6 187/2/6
f 186/2/6 185/2/6 187/2/6
f 187/2/6 182/2/6 188/2/6
f 182/1/6 183/1/6 189/1/6
f 188/2/6 182/2/6 189/2/6
f 189/1/6 183/1/6 190/1/6
