# MagicaVoxel @ Ephtracy

# group
o 

# material
mtllib Mechanic-3.mtl
usemtl palette

# normals
vn -1 0 0
vn 1 0 0
vn 0 0 1
vn 0 0 -1
vn 0 -1 0
vn 0 1 0

# texcoords
vt 0.626953 0.5
vt 0.630859 0.5
vt 0.951172 0.5

# verts
v -0.2 -0.1 0.1
v -0.2 -0.1 -0.4
v -0.2 0 0.1
v -0.2 0 -0.4
v -0.2 0.1 0.1
v -0.2 0.1 -0.4
v -0.1 -0.5 0.4
v -0.1 -0.5 -0.3
v -0.1 -0.3 0.1
v -0.1 -0.3 0
v -0.1 -0.2 0.4
v -0.1 -0.2 0.1
v -0.1 -0.1 0.2
v -0.1 -0.1 0.1
v -0.1 -0.1 0
v -0.1 -0.1 -0.3
v -0.1 -0.1 -0.4
v -0.1 -0.1 -0.5
v -0.1 0 0.2
v -0.1 0 0.1
v -0.1 0 -0.4
v -0.1 0 -0.5
v -0.1 0.1 0.2
v -0.1 0.1 0.1
v -0.1 0.1 -0.4
v -0.1 0.1 -0.5
v -0.1 0.5 0.1
v -0.1 0.5 -0.4
v 0.2 -0.5 0.4
v 0.2 -0.5 -0.3
v 0.2 -0.3 0.1
v 0.2 -0.3 0
v 0.2 -0.2 0.4
v 0.2 -0.2 0.1
v 0.2 -0.1 0.2
v 0.2 -0.1 0.1
v 0.2 -0.1 0
v 0.2 -0.1 -0.3
v 0.2 -0.1 -0.4
v 0.2 -0.1 -0.5
v 0.2 0 0.2
v 0.2 0 0.1
v 0.2 0 -0.4
v 0.2 0 -0.5
v 0.2 0.1 0.2
v 0.2 0.1 0.1
v 0.2 0.1 -0.4
v 0.2 0.1 -0.5
v 0.2 0.4 0.1
v 0.2 0.4 0
v 0.2 0.4 -0.3
v 0.2 0.4 -0.4
v 0.2 0.5 0.1
v 0.2 0.5 0
v 0.2 0.5 -0.3
v 0.2 0.5 -0.4
v 0.3 -0.1 0.1
v 0.3 -0.1 -0.4
v 0.3 0 0.1
v 0.3 0 -0.4
v 0.3 0.1 0.1
v 0.3 0.1 -0.4
v 0.3 0.4 0
v 0.3 0.4 -0.3
v 0.3 0.5 0
v 0.3 0.5 -0.3
v -0.1 -0.5 0.4
v -0.1 -0.2 0.4
v 0.2 -0.5 0.4
v 0.2 -0.2 0.4
v -0.1 -0.1 0.2
v -0.1 0 0.2
v -0.1 0.1 0.2
v 0.2 -0.1 0.2
v 0.2 0 0.2
v 0.2 0.1 0.2
v -0.2 -0.1 0.1
v -0.2 0 0.1
v -0.2 0.1 0.1
v -0.1 -0.1 0.1
v -0.1 0 0.1
v -0.1 0.1 0.1
v -0.1 0.5 0.1
v 0.1 0.4 0.1
v 0.1 0.5 0.1
v 0.2 -0.1 0.1
v 0.2 0 0.1
v 0.2 0.1 0.1
v 0.2 0.4 0.1
v 0.2 0.5 0.1
v 0.3 -0.1 0.1
v 0.3 0 0.1
v 0.3 0.1 0.1
v -0.1 -0.3 0
v -0.1 -0.1 0
v 0.2 -0.3 0
v 0.2 -0.1 0
v 0.2 0.4 0
v 0.2 0.5 0
v 0.3 0.4 0
v 0.3 0.5 0
v -0.1 -0.3 0.1
v -0.1 -0.2 0.1
v 0.2 -0.3 0.1
v 0.2 -0.2 0.1
v -0.1 -0.5 -0.3
v -0.1 -0.1 -0.3
v 0.2 -0.5 -0.3
v 0.2 -0.1 -0.3
v 0.2 0.4 -0.3
v 0.2 0.5 -0.3
v 0.3 0.4 -0.3
v 0.3 0.5 -0.3
v -0.2 -0.1 -0.4
v -0.2 0 -0.4
v -0.2 0.1 -0.4
v -0.1 -0.1 -0.4
v -0.1 0 -0.4
v -0.1 0.1 -0.4
v -0.1 0.5 -0.4
v 0.1 0.4 -0.4
v 0.1 0.5 -0.4
v 0.2 -0.1 -0.4
v 0.2 0 -0.4
v 0.2 0.1 -0.4
v 0.2 0.4 -0.4
v 0.2 0.5 -0.4
v 0.3 -0.1 -0.4
v 0.3 0 -0.4
v 0.3 0.1 -0.4
v -0.1 -0.1 -0.5
v -0.1 0 -0.5
v -0.1 0.1 -0.5
v 0.2 -0.1 -0.5
v 0.2 0 -0.5
v 0.2 0.1 -0.5
v -0.1 -0.5 0.4
v 0.2 -0.5 0.4
v -0.1 -0.5 -0.3
v 0.2 -0.5 -0.3
v -0.1 -0.1 0.2
v 0.2 -0.1 0.2
v -0.2 -0.1 0.1
v -0.1 -0.1 0.1
v 0.2 -0.1 0.1
v 0.3 -0.1 0.1
v -0.1 -0.1 0
v 0.2 -0.1 0
v -0.1 -0.1 -0.3
v 0.2 -0.1 -0.3
v -0.2 -0.1 -0.4
v -0.1 -0.1 -0.4
v 0.2 -0.1 -0.4
v 0.3 -0.1 -0.4
v -0.1 -0.1 -0.5
v 0.2 -0.1 -0.5
v 0.2 0.4 0
v 0.3 0.4 0
v 0.2 0.4 -0.3
v 0.3 0.4 -0.3
v -0.1 -0.3 0.1
v 0.2 -0.3 0.1
v -0.1 -0.3 0
v 0.2 -0.3 0
v -0.1 -0.2 0.4
v 0.2 -0.2 0.4
v -0.1 -0.2 0.1
v 0.2 -0.2 0.1
v -0.1 0.1 0.2
v 0.2 0.1 0.2
v -0.2 0.1 0.1
v -0.1 0.1 0.1
v 0.2 0.1 0.1
v 0.3 0.1 0.1
v -0.2 0.1 -0.4
v -0.1 0.1 -0.4
v 0.2 0.1 -0.4
v 0.3 0.1 -0.4
v -0.1 0.1 -0.5
v 0.2 0.1 -0.5
v -0.1 0.5 0.1
v 0.1 0.5 0.1
v 0.2 0.5 0.1
v 0.2 0.5 0
v 0.3 0.5 0
v 0.2 0.5 -0.3
v 0.3 0.5 -0.3
v -0.1 0.5 -0.4
v 0.1 0.5 -0.4
v 0.2 0.5 -0.4

# faces
f 3/2/1 2/2/1 1/2/1
f 4/2/1 2/2/1 3/2/1
f 5/1/1 4/1/1 3/1/1
f 6/1/1 4/1/1 5/1/1
f 9/3/1 8/3/1 7/3/1
f 10/3/1 8/3/1 9/3/1
f 11/3/1 9/3/1 7/3/1
f 12/3/1 9/3/1 11/3/1
f 15/3/1 8/3/1 10/3/1
f 16/3/1 8/3/1 15/3/1
f 19/2/1 14/2/1 13/2/1
f 20/2/1 14/2/1 19/2/1
f 21/2/1 18/2/1 17/2/1
f 22/2/1 18/2/1 21/2/1
f 23/1/1 20/1/1 19/1/1
f 24/1/1 20/1/1 23/1/1
f 25/1/1 22/1/1 21/1/1
f 26/1/1 22/1/1 25/1/1
f 27/1/1 25/1/1 24/1/1
f 28/1/1 25/1/1 27/1/1
f 29/3/2 30/3/2 31/3/2
f 31/3/2 30/3/2 32/3/2
f 29/3/2 31/3/2 33/3/2
f 33/3/2 31/3/2 34/3/2
f 32/3/2 30/3/2 37/3/2
f 37/3/2 30/3/2 38/3/2
f 35/2/2 36/2/2 41/2/2
f 41/2/2 36/2/2 42/2/2
f 39/2/2 40/2/2 43/2/2
f 43/2/2 40/2/2 44/2/2
f 41/1/2 42/1/2 45/1/2
f 45/1/2 42/1/2 46/1/2
f 43/1/2 44/1/2 47/1/2
f 47/1/2 44/1/2 48/1/2
f 46/1/2 47/1/2 49/1/2
f 49/1/2 47/1/2 50/1/2
f 50/1/2 47/1/2 51/1/2
f 51/1/2 47/1/2 52/1/2
f 49/2/2 50/2/2 53/2/2
f 53/2/2 50/2/2 54/2/2
f 51/2/2 52/2/2 55/2/2
f 55/2/2 52/2/2 56/2/2
f 57/2/2 58/2/2 59/2/2
f 59/2/2 58/2/2 60/2/2
f 59/1/2 60/1/2 61/1/2
f 61/1/2 60/1/2 62/1/2
f 63/2/2 64/2/2 65/2/2
f 65/2/2 64/2/2 66/2/2
f 69/3/3 68/3/3 67/3/3
f 70/3/3 68/3/3 69/3/3
f 74/2/3 72/2/3 71/2/3
f 75/1/3 73/1/3 72/1/3
f 75/2/3 72/2/3 74/2/3
f 76/1/3 73/1/3 75/1/3
f 80/2/3 78/2/3 77/2/3
f 81/1/3 79/1/3 78/1/3
f 81/2/3 78/2/3 80/2/3
f 82/1/3 79/1/3 81/1/3
f 84/1/3 83/1/3 82/1/3
f 85/1/3 83/1/3 84/1/3
f 88/1/3 84/1/3 82/1/3
f 89/2/3 85/2/3 84/2/3
f 89/1/3 84/1/3 88/1/3
f 90/2/3 85/2/3 89/2/3
f 91/2/3 87/2/3 86/2/3
f 92/1/3 88/1/3 87/1/3
f 92/2/3 87/2/3 91/2/3
f 93/1/3 88/1/3 92/1/3
f 96/3/3 95/3/3 94/3/3
f 97/3/3 95/3/3 96/3/3
f 100/2/3 99/2/3 98/2/3
f 101/2/3 99/2/3 100/2/3
f 102/3/4 103/3/4 104/3/4
f 104/3/4 103/3/4 105/3/4
f 106/3/4 107/3/4 108/3/4
f 108/3/4 107/3/4 109/3/4
f 110/2/4 111/2/4 112/2/4
f 112/2/4 111/2/4 113/2/4
f 114/2/4 115/2/4 117/2/4
f 115/1/4 116/1/4 118/1/4
f 117/2/4 115/2/4 118/2/4
f 118/1/4 116/1/4 119/1/4
f 119/1/4 120/1/4 121/1/4
f 121/1/4 120/1/4 122/1/4
f 119/1/4 121/1/4 125/1/4
f 121/2/4 122/2/4 126/2/4
f 125/1/4 121/1/4 126/1/4
f 126/2/4 122/2/4 127/2/4
f 123/2/4 124/2/4 128/2/4
f 124/1/4 125/1/4 129/1/4
f 128/2/4 124/2/4 129/2/4
f 129/1/4 125/1/4 130/1/4
f 131/2/4 132/2/4 134/2/4
f 132/1/4 133/1/4 135/1/4
f 134/2/4 132/2/4 135/2/4
f 135/1/4 133/1/4 136/1/4
f 139/3/5 138/3/5 137/3/5
f 140/3/5 138/3/5 139/3/5
f 144/2/5 142/2/5 141/2/5
f 145/2/5 142/2/5 144/2/5
f 147/2/5 144/2/5 143/2/5
f 147/2/5 146/2/5 145/2/5
f 147/2/5 145/2/5 144/2/5
f 148/2/5 146/2/5 147/2/5
f 149/2/5 147/2/5 143/2/5
f 150/2/5 146/2/5 148/2/5
f 151/2/5 149/2/5 143/2/5
f 151/2/5 150/2/5 149/2/5
f 152/2/5 150/2/5 151/2/5
f 153/2/5 146/2/5 150/2/5
f 153/2/5 150/2/5 152/2/5
f 154/2/5 146/2/5 153/2/5
f 155/2/5 153/2/5 152/2/5
f 156/2/5 153/2/5 155/2/5
f 159/2/5 158/2/5 157/2/5
f 160/2/5 158/2/5 159/2/5
f 161/3/6 162/3/6 163/3/6
f 163/3/6 162/3/6 164/3/6
f 165/3/6 166/3/6 167/3/6
f 167/3/6 166/3/6 168/3/6
f 169/1/6 170/1/6 172/1/6
f 172/1/6 170/1/6 173/1/6
f 171/1/6 172/1/6 175/1/6
f 175/1/6 172/1/6 176/1/6
f 173/1/6 174/1/6 177/1/6
f 177/1/6 174/1/6 178/1/6
f 176/1/6 177/1/6 179/1/6
f 179/1/6 177/1/6 180/1/6
f 182/2/6 183/2/6 184/2/6
f 182/2/6 184/2/6 186/2/6
f 184/2/6 185/2/6 186/2/6
f 186/2/6 185/2/6 187/2/6
f 181/1/6 182/1/6 188/1/6
f 182/2/6 186/2/6 189/2/6
f 188/1/6 182/1/6 189/1/6
f 189/2/6 186/2/6 190/2/6
