# MagicaVoxel @ Ephtracy

# group
o 

# material
mtllib Mechanic-1.mtl
usemtl palette

# normals
vn -1 0 0
vn 1 0 0
vn 0 0 1
vn 0 0 -1
vn 0 -1 0
vn 0 1 0

# texcoords
vt 0.626953 0.5
vt 0.630859 0.5
vt 0.720703 0.5
vt 0.908203 0.5
vt 0.966797 0.5
vt 0.970703 0.5

# verts
v -0.5 -1.2 0.2
v -0.5 -1.2 -0.3
v -0.5 -1.1 0.2
v -0.5 -1.1 -0.3
v -0.5 -0.9 0.2
v -0.5 -0.9 0.1
v -0.5 -0.9 -0.2
v -0.5 -0.9 -0.3
v -0.5 -0.8 0.1
v -0.5 -0.8 -0.2
v -0.5 -0.2 0.1
v -0.5 -0.2 -0.3
v -0.5 0.2 0.3
v -0.5 0.2 0.2
v -0.5 0.2 0.1
v -0.5 0.2 -0.3
v -0.5 0.5 0.3
v -0.5 0.5 0.2
v -0.5 0.8 0.2
v -0.5 0.8 -0.1
v -0.5 1 0.2
v -0.5 1 -0.1
v -0.4 -1.2 0.3
v -0.4 -1.2 0.2
v -0.4 -1.2 -0.3
v -0.4 -1.2 -0.4
v -0.4 -1.1 0.3
v -0.4 -1.1 0.2
v -0.4 -1.1 -0.3
v -0.4 -1.1 -0.4
v -0.4 -0.9 0.2
v -0.4 -0.9 0.1
v -0.4 -0.9 -0.2
v -0.4 -0.9 -0.3
v -0.4 -0.8 0.1
v -0.4 -0.8 -0.2
v -0.4 -0.6 0.3
v -0.4 -0.6 0.1
v -0.4 -0.6 -0.2
v -0.4 -0.6 -0.4
v -0.4 -0.5 0.1
v -0.4 -0.5 -0.2
v -0.4 -0.3 0.1
v -0.4 -0.3 0
v -0.4 -0.3 -0.1
v -0.4 -0.3 -0.2
v -0.4 -0.2 0.2
v -0.4 -0.2 0.1
v -0.4 -0.2 0
v -0.4 -0.2 -0.1
v -0.4 -0.2 -0.2
v -0.4 0.0999999 0.3
v -0.4 0.0999999 0.2
v -0.4 0.0999999 0.1
v -0.4 0.2 0.3
v -0.4 0.2 0.2
v -0.4 0.2 0.1
v -0.4 0.2 -0.3
v -0.4 0.3 0.2
v -0.4 0.3 -0.1
v -0.4 0.3 -0.3
v -0.4 0.4 -0.1
v -0.4 0.4 -0.2
v -0.4 0.5 0.3
v -0.4 0.5 0.2
v -0.4 0.7 0.1
v -0.4 0.7 -0.2
v -0.4 0.8 0.2
v -0.4 0.8 0.1
v -0.4 0.8 -0.1
v -0.4 0.8 -0.2
v -0.4 1 0.3
v -0.4 1 0.2
v -0.4 1 -0.1
v -0.4 1 -0.2
v -0.3 -1 -0.4
v -0.3 -1 -0.5
v -0.3 -0.8 -0.4
v -0.3 -0.8 -0.5
v -0.3 -0.6 0.2
v -0.3 -0.6 0.1
v -0.3 -0.6 -0.2
v -0.3 -0.6 -0.3
v -0.3 -0.5 0.1
v -0.3 -0.5 -0.2
v -0.3 -0.3 0.1
v -0.3 -0.3 0
v -0.3 -0.3 -0.1
v -0.3 -0.3 -0.2
v -0.3 -0.3 -0.3
v -0.3 -0.3 -0.4
v -0.3 -0.2 0.2
v -0.3 -0.2 0.1
v -0.3 -0.2 0
v -0.3 -0.2 -0.1
v -0.3 -0.2 -0.2
v -0.3 -0.2 -0.3
v -0.3 0 0.3
v -0.3 0 0.2
v -0.3 0.0999999 0.3
v -0.3 0.0999999 0.2
v -0.3 0.0999999 -0.3
v -0.3 0.2 -0.3
v -0.3 0.2 -0.4
v -0.3 0.3 -0.1
v -0.3 0.3 -0.3
v -0.3 0.4 -0.1
v -0.3 0.4 -0.2
v -0.3 0.6 -0.2
v -0.3 0.6 -0.3
v -0.3 0.7 0.1
v -0.3 0.7 -0.2
v -0.3 0.8 0.1
v -0.3 0.8 -0.2
v -0.2 -1.1 -0.4
v -0.2 -1.1 -0.5
v -0.2 -1 0.4
v -0.2 -1 0.3
v -0.2 -1 -0.4
v -0.2 -1 -0.5
v -0.2 -0.8 -0.4
v -0.2 -0.8 -0.5
v -0.2 -0.7 0.4
v -0.2 -0.7 0.3
v -0.2 -0.7 -0.4
v -0.2 -0.7 -0.5
v -0.2 -0.6 -0.3
v -0.2 -0.6 -0.4
v -0.2 -0.5 0.3
v -0.2 -0.5 0.2
v -0.2 -0.5 -0.3
v -0.2 -0.5 -0.4
v -0.2 -0.4 0.3
v -0.2 -0.4 0.2
v -0.2 -0.3 0.3
v -0.2 -0.3 0.2
v -0.2 -0.2 0.2
v -0.2 0 0.3
v -0.2 0 0.2
v -0.2 0.6 -0.2
v -0.2 0.6 -0.3
v -0.2 0.7 -0.2
v -0.2 0.7 -0.3
v -0.2 0.8 -0.2
v -0.2 0.8 -0.3
v -0.2 0.9 -0.3
v -0.2 0.9 -0.4
v -0.2 1 0
v -0.2 1 -0.2
v -0.2 1 -0.3
v -0.2 1 -0.4
v -0.2 1.1 0
v -0.2 1.1 -0.3
v -0.1 -1.1 0.4
v -0.1 -1.1 0.3
v -0.1 -1 0.5
v -0.1 -1 0.4
v -0.1 -1 0.3
v -0.1 -0.7 0.5
v -0.1 -0.7 0.4
v -0.1 -0.7 -0.4
v -0.1 -0.7 -0.5
v -0.1 -0.6 0.3
v -0.1 -0.6 0.2
v -0.1 -0.6 -0.4
v -0.1 -0.6 -0.5
v -0.1 -0.5 0.3
v -0.1 -0.5 0.2
v -0.1 -0.5 -0.3
v -0.1 -0.5 -0.4
v -0.1 -0.4 -0.3
v -0.1 -0.4 -0.4
v -0.1 -0.1 -0.4
v -0.1 -0.1 -0.5
v -0.1 0.0999999 -0.4
v -0.1 0.0999999 -0.5
v -0.1 0.2 -0.3
v -0.1 0.2 -0.4
v -0.1 0.3 -0.3
v -0.1 0.5 -0.3
v -0.1 0.5 -0.4
v -0.1 0.6 -0.1
v -0.1 0.6 -0.2
v -0.1 0.7 -0.1
v -0.1 0.7 -0.2
v -0.1 0.7 -0.3
v -0.1 0.7 -0.4
v -0.1 0.8 -0.2
v -0.1 0.8 -0.3
v -0.1 0.9 -0.3
v -0.1 0.9 -0.4
v -0.1 0.9 -0.5
v -0.1 1 0.1
v -0.1 1 0
v -0.1 1 -0.3
v -0.1 1 -0.4
v -0.1 1.1 0.1
v -0.1 1.1 0
v -0.1 1.1 -0.1
v -0.1 1.1 -0.3
v -0.1 1.1 -0.5
v -0.1 1.2 -0.1
v -0.1 1.2 -0.3
v 0 -0.6 -0.4
v 0 -0.6 -0.5
v 0 -0.5 -0.4
v 0 -0.5 -0.5
v 0 0.0999999 -0.4
v 0 0.0999999 -0.5
v 0 0.4 -0.4
v 0 0.4 -0.5
v 0 0.5 -0.3
v 0 0.5 -0.4
v 0 0.6 -0.3
v 0 0.6 -0.4
v 0 0.8 -0.4
v 0 0.8 -0.5
v 0 0.9 -0.4
v 0 0.9 -0.5
v 0 1.1 0
v 0 1.1 -0.1
v 0 1.1 -0.3
v 0 1.1 -0.4
v 0 1.2 0
v 0 1.2 -0.1
v 0 1.2 -0.3
v 0 1.2 -0.4
v 0.1 0.7 -0.3
v 0.1 0.7 -0.4
v 0.1 0.8 -0.3
v 0.1 0.8 -0.4
v 0.2 -1 0.4
v 0.2 -1 0.3
v 0.2 -0.7 0.4
v 0.2 -0.7 0.3
v 0.2 -0.5 0.3
v 0.2 -0.5 0.2
v 0.2 -0.4 0.3
v 0.2 -0.4 0.2
v 0.2 -0.3 0.3
v 0.2 -0.3 0.2
v 0.2 -0.3 -0.3
v 0.2 -0.3 -0.4
v 0.2 -0.2 0.2
v 0.2 -0.1 -0.4
v 0.2 0 -0.3
v 0.2 0 -0.4
v 0.2 0.0999999 0.3
v 0.2 0.0999999 0.2
v 0.3 0.6 -0.1
v 0.3 0.6 -0.2
v 0.3 0.7 -0.1
v 0.3 0.7 -0.2
v -0.2 0.6 -0.1
v -0.2 0.6 -0.2
v -0.2 0.7 -0.1
v -0.2 0.7 -0.2
v -0.1 -1 0.4
v -0.1 -1 0.3
v -0.1 -0.7 0.4
v -0.1 -0.7 0.3
v -0.1 -0.5 0.3
v -0.1 -0.5 0.2
v -0.1 -0.4 0.3
v -0.1 -0.4 0.2
v -0.1 -0.3 0.3
v -0.1 -0.3 0.2
v -0.1 -0.3 -0.3
v -0.1 -0.3 -0.4
v -0.1 -0.2 0.2
v -0.1 -0.1 -0.4
v -0.1 0 -0.3
v -0.1 0 -0.4
v -0.1 0.0999999 0.3
v -0.1 0.0999999 0.2
v 0 0.7 -0.3
v 0 0.7 -0.4
v 0 0.8 -0.3
v 0 0.8 -0.4
v 0.1 -0.6 -0.4
v 0.1 -0.6 -0.5
v 0.1 -0.5 -0.4
v 0.1 -0.5 -0.5
v 0.1 0.0999999 -0.4
v 0.1 0.0999999 -0.5
v 0.1 0.4 -0.4
v 0.1 0.4 -0.5
v 0.1 0.5 -0.3
v 0.1 0.5 -0.4
v 0.1 0.6 -0.3
v 0.1 0.6 -0.4
v 0.1 0.8 -0.4
v 0.1 0.8 -0.5
v 0.1 0.9 -0.4
v 0.1 0.9 -0.5
v 0.1 1.1 0
v 0.1 1.1 -0.1
v 0.1 1.1 -0.3
v 0.1 1.1 -0.4
v 0.1 1.2 0
v 0.1 1.2 -0.1
v 0.1 1.2 -0.3
v 0.1 1.2 -0.4
v 0.2 -1.1 0.4
v 0.2 -1.1 0.3
v 0.2 -1 0.5
v 0.2 -1 0.4
v 0.2 -1 0.3
v 0.2 -0.7 0.5
v 0.2 -0.7 0.4
v 0.2 -0.7 -0.4
v 0.2 -0.7 -0.5
v 0.2 -0.6 0.3
v 0.2 -0.6 0.2
v 0.2 -0.6 -0.4
v 0.2 -0.6 -0.5
v 0.2 -0.5 0.3
v 0.2 -0.5 0.2
v 0.2 -0.5 -0.3
v 0.2 -0.5 -0.4
v 0.2 -0.4 -0.3
v 0.2 -0.4 -0.4
v 0.2 -0.1 -0.4
v 0.2 -0.1 -0.5
v 0.2 0.0999999 -0.4
v 0.2 0.0999999 -0.5
v 0.2 0.2 -0.3
v 0.2 0.2 -0.4
v 0.2 0.3 -0.3
v 0.2 0.5 -0.3
v 0.2 0.5 -0.4
v 0.2 0.6 -0.1
v 0.2 0.6 -0.2
v 0.2 0.7 -0.1
v 0.2 0.7 -0.2
v 0.2 0.7 -0.3
v 0.2 0.7 -0.4
v 0.2 0.8 -0.2
v 0.2 0.8 -0.3
v 0.2 0.9 -0.3
v 0.2 0.9 -0.4
v 0.2 0.9 -0.5
v 0.2 1 0.1
v 0.2 1 0
v 0.2 1 -0.3
v 0.2 1 -0.4
v 0.2 1.1 0.1
v 0.2 1.1 0
v 0.2 1.1 -0.1
v 0.2 1.1 -0.3
v 0.2 1.1 -0.5
v 0.2 1.2 -0.1
v 0.2 1.2 -0.3
v 0.3 -1.1 -0.4
v 0.3 -1.1 -0.5
v 0.3 -1 0.4
v 0.3 -1 0.3
v 0.3 -1 -0.4
v 0.3 -1 -0.5
v 0.3 -0.8 -0.4
v 0.3 -0.8 -0.5
v 0.3 -0.7 0.4
v 0.3 -0.7 0.3
v 0.3 -0.7 -0.4
v 0.3 -0.7 -0.5
v 0.3 -0.6 -0.3
v 0.3 -0.6 -0.4
v 0.3 -0.5 0.3
v 0.3 -0.5 0.2
v 0.3 -0.5 -0.3
v 0.3 -0.5 -0.4
v 0.3 -0.4 0.3
v 0.3 -0.4 0.2
v 0.3 -0.3 0.3
v 0.3 -0.3 0.2
v 0.3 -0.2 0.2
v 0.3 0 0.3
v 0.3 0 0.2
v 0.3 0.6 -0.2
v 0.3 0.6 -0.3
v 0.3 0.7 -0.2
v 0.3 0.7 -0.3
v 0.3 0.8 -0.2
v 0.3 0.8 -0.3
v 0.3 0.9 -0.3
v 0.3 0.9 -0.4
v 0.3 1 0
v 0.3 1 -0.2
v 0.3 1 -0.3
v 0.3 1 -0.4
v 0.3 1.1 0
v 0.3 1.1 -0.3
v 0.4 -1 -0.4
v 0.4 -1 -0.5
v 0.4 -0.8 -0.4
v 0.4 -0.8 -0.5
v 0.4 -0.6 0.2
v 0.4 -0.6 0.1
v 0.4 -0.6 -0.2
v 0.4 -0.6 -0.3
v 0.4 -0.5 0.1
v 0.4 -0.5 -0.2
v 0.4 -0.3 0.1
v 0.4 -0.3 0
v 0.4 -0.3 -0.1
v 0.4 -0.3 -0.2
v 0.4 -0.3 -0.3
v 0.4 -0.3 -0.4
v 0.4 -0.2 0.2
v 0.4 -0.2 0.1
v 0.4 -0.2 0
v 0.4 -0.2 -0.1
v 0.4 -0.2 -0.2
v 0.4 -0.2 -0.3
v 0.4 0 0.3
v 0.4 0 0.2
v 0.4 0.0999999 0.3
v 0.4 0.0999999 0.2
v 0.4 0.0999999 -0.3
v 0.4 0.2 -0.3
v 0.4 0.2 -0.4
v 0.4 0.3 -0.1
v 0.4 0.3 -0.3
v 0.4 0.4 -0.1
v 0.4 0.4 -0.2
v 0.4 0.6 -0.2
v 0.4 0.6 -0.3
v 0.4 0.7 0.1
v 0.4 0.7 -0.2
v 0.4 0.8 0.1
v 0.4 0.8 -0.2
v 0.5 -1.2 0.3
v 0.5 -1.2 0.2
v 0.5 -1.2 -0.3
v 0.5 -1.2 -0.4
v 0.5 -1.1 0.3
v 0.5 -1.1 0.2
v 0.5 -1.1 -0.3
v 0.5 -1.1 -0.4
v 0.5 -0.9 0.2
v 0.5 -0.9 0.1
v 0.5 -0.9 -0.2
v 0.5 -0.9 -0.3
v 0.5 -0.8 0.1
v 0.5 -0.8 -0.2
v 0.5 -0.6 0.3
v 0.5 -0.6 0.1
v 0.5 -0.6 -0.2
v 0.5 -0.6 -0.4
v 0.5 -0.5 0.1
v 0.5 -0.5 -0.2
v 0.5 -0.3 0.1
v 0.5 -0.3 0
v 0.5 -0.3 -0.1
v 0.5 -0.3 -0.2
v 0.5 -0.2 0.2
v 0.5 -0.2 0.1
v 0.5 -0.2 0
v 0.5 -0.2 -0.1
v 0.5 -0.2 -0.2
v 0.5 0.0999999 0.3
v 0.5 0.0999999 0.2
v 0.5 0.0999999 0.1
v 0.5 0.2 0.3
v 0.5 0.2 0.2
v 0.5 0.2 0.1
v 0.5 0.2 -0.3
v 0.5 0.3 0.2
v 0.5 0.3 -0.1
v 0.5 0.3 -0.3
v 0.5 0.4 -0.1
v 0.5 0.4 -0.2
v 0.5 0.5 0.3
v 0.5 0.5 0.2
v 0.5 0.7 0.1
v 0.5 0.7 -0.2
v 0.5 0.8 0.2
v 0.5 0.8 0.1
v 0.5 0.8 -0.1
v 0.5 0.8 -0.2
v 0.5 1 0.3
v 0.5 1 0.2
v 0.5 1 -0.1
v 0.5 1 -0.2
v 0.6 -1.2 0.2
v 0.6 -1.2 -0.3
v 0.6 -1.1 0.2
v 0.6 -1.1 -0.3
v 0.6 -0.9 0.2
v 0.6 -0.9 0.1
v 0.6 -0.9 -0.2
v 0.6 -0.9 -0.3
v 0.6 -0.8 0.1
v 0.6 -0.8 -0.2
v 0.6 -0.2 0.1
v 0.6 -0.2 -0.3
v 0.6 0.2 0.3
v 0.6 0.2 0.2
v 0.6 0.2 0.1
v 0.6 0.2 -0.3
v 0.6 0.5 0.3
v 0.6 0.5 0.2
v 0.6 0.8 0.2
v 0.6 0.8 -0.1
v 0.6 1 0.2
v 0.6 1 -0.1
v -0.1 -1 0.5
v -0.1 -0.7 0.5
v 0.2 -1 0.5
v 0.2 -0.7 0.5
v -0.2 -1 0.4
v -0.2 -0.7 0.4
v -0.1 -1.1 0.4
v -0.1 -1 0.4
v -0.1 -0.7 0.4
v 0.2 -1.1 0.4
v 0.2 -1 0.4
v 0.2 -0.7 0.4
v 0.3 -1 0.4
v 0.3 -0.7 0.4
v -0.5 0.2 0.3
v -0.5 0.5 0.3
v -0.4 -1.2 0.3
v -0.4 -1.1 0.3
v -0.4 -0.6 0.3
v -0.4 0.0999999 0.3
v -0.4 0.2 0.3
v -0.4 0.5 0.3
v -0.4 1 0.3
v -0.3 0 0.3
v -0.3 0.0999999 0.3
v -0.3 0.2 0.3
v -0.3 1 0.3
v -0.2 -1.2 0.3
v -0.2 -1.1 0.3
v -0.2 -1 0.3
v -0.2 -0.7 0.3
v -0.2 -0.5 0.3
v -0.2 -0.4 0.3
v -0.2 -0.3 0.3
v -0.2 0 0.3
v -0.2 0.0999999 0.3
v -0.2 0.2 0.3
v -0.2 0.3 0.3
v -0.1 -1.1 0.3
v -0.1 -1 0.3
v -0.1 -0.7 0.3
v -0.1 -0.6 0.3
v -0.1 -0.5 0.3
v -0.1 -0.4 0.3
v -0.1 -0.3 0.3
v -0.1 0.0999999 0.3
v -0.1 0.3 0.3
v -0.1 0.6 0.3
v 0.2 -1.1 0.3
v 0.2 -1 0.3
v 0.2 -0.7 0.3
v 0.2 -0.6 0.3
v 0.2 -0.5 0.3
v 0.2 -0.4 0.3
v 0.2 -0.3 0.3
v 0.2 0.0999999 0.3
v 0.2 0.3 0.3
v 0.2 0.6 0.3
v 0.3 -1.2 0.3
v 0.3 -1.1 0.3
v 0.3 -1 0.3
v 0.3 -0.7 0.3
v 0.3 -0.5 0.3
v 0.3 -0.4 0.3
v 0.3 -0.3 0.3
v 0.3 0 0.3
v 0.3 0.0999999 0.3
v 0.3 0.2 0.3
v 0.3 0.3 0.3
v 0.4 0 0.3
v 0.4 0.0999999 0.3
v 0.4 0.2 0.3
v 0.4 1 0.3
v 0.5 -1.2 0.3
v 0.5 -1.1 0.3
v 0.5 -0.6 0.3
v 0.5 0.0999999 0.3
v 0.5 0.2 0.3
v 0.5 0.5 0.3
v 0.5 1 0.3
v 0.6 0.2 0.3
v 0.6 0.5 0.3
v -0.5 -1.2 0.2
v -0.5 -1.1 0.2
v -0.5 -0.9 0.2
v -0.5 0.8 0.2
v -0.5 1 0.2
v -0.4 -1.2 0.2
v -0.4 -1.1 0.2
v -0.4 -0.9 0.2
v -0.4 -0.2 0.2
v -0.4 0.0999999 0.2
v -0.4 0.8 0.2
v -0.4 1 0.2
v -0.3 -0.6 0.2
v -0.3 -0.2 0.2
v -0.3 0 0.2
v -0.3 0.0999999 0.2
v -0.2 -0.5 0.2
v -0.2 -0.4 0.2
v -0.2 -0.3 0.2
v -0.2 -0.2 0.2
v -0.2 0 0.2
v -0.1 -0.6 0.2
v -0.1 -0.5 0.2
v -0.1 -0.4 0.2
v -0.1 -0.3 0.2
v -0.1 -0.2 0.2
v -0.1 0.0999999 0.2
v 0 -0.4 0.2
v 0 -0.3 0.2
v 0 -0.2 0.2
v 0.1 -0.4 0.2
v 0.1 -0.3 0.2
v 0.1 -0.2 0.2
v 0.2 -0.6 0.2
v 0.2 -0.5 0.2
v 0.2 -0.4 0.2
v 0.2 -0.3 0.2
v 0.2 -0.2 0.2
v 0.2 0.0999999 0.2
v 0.3 -0.5 0.2
v 0.3 -0.4 0.2
v 0.3 -0.3 0.2
v 0.3 -0.2 0.2
v 0.3 0 0.2
v 0.4 -0.6 0.2
v 0.4 -0.2 0.2
v 0.4 0 0.2
v 0.4 0.0999999 0.2
v 0.5 -1.2 0.2
v 0.5 -1.1 0.2
v 0.5 -0.9 0.2
v 0.5 -0.2 0.2
v 0.5 0.0999999 0.2
v 0.5 0.8 0.2
v 0.5 1 0.2
v 0.6 -1.2 0.2
v 0.6 -1.1 0.2
v 0.6 -0.9 0.2
v 0.6 0.8 0.2
v 0.6 1 0.2
v -0.5 -0.9 0.1
v -0.5 -0.8 0.1
v -0.5 -0.2 0.1
v -0.5 0.2 0.1
v -0.4 -0.9 0.1
v -0.4 -0.8 0.1
v -0.4 -0.6 0.1
v -0.4 -0.5 0.1
v -0.4 -0.3 0.1
v -0.4 -0.2 0.1
v -0.4 0.0999999 0.1
v -0.4 0.2 0.1
v -0.3 -0.6 0.1
v -0.3 -0.5 0.1
v -0.3 -0.3 0.1
v -0.3 -0.2 0.1
v -0.1 1 0.1
v -0.1 1.1 0.1
v 0.2 1 0.1
v 0.2 1.1 0.1
v 0.4 -0.6 0.1
v 0.4 -0.5 0.1
v 0.4 -0.3 0.1
v 0.4 -0.2 0.1
v 0.5 -0.9 0.1
v 0.5 -0.8 0.1
v 0.5 -0.6 0.1
v 0.5 -0.5 0.1
v 0.5 -0.3 0.1
v 0.5 -0.2 0.1
v 0.5 0.0999999 0.1
v 0.5 0.2 0.1
v 0.6 -0.9 0.1
v 0.6 -0.8 0.1
v 0.6 -0.2 0.1
v 0.6 0.2 0.1
v -0.2 1 0
v -0.2 1.1 0
v -0.1 1 0
v -0.1 1.1 0
v 0 1.1 0
v 0 1.2 0
v 0.1 1.1 0
v 0.1 1.2 0
v 0.2 1 0
v 0.2 1.1 0
v 0.3 1 0
v 0.3 1.1 0
v -0.4 -0.3 -0.1
v -0.4 -0.2 -0.1
v -0.3 -0.3 -0.1
v -0.3 -0.2 -0.1
v -0.1 1.1 -0.1
v -0.1 1.2 -0.1
v 0 1.1 -0.1
v 0 1.2 -0.1
v 0.1 1.1 -0.1
v 0.1 1.2 -0.1
v 0.2 1.1 -0.1
v 0.2 1.2 -0.1
v 0.4 -0.3 -0.1
v 0.4 -0.2 -0.1
v 0.5 -0.3 -0.1
v 0.5 -0.2 -0.1
v -0.2 0.6 -0.2
v -0.2 0.7 -0.2
v -0.1 0.6 -0.2
v -0.1 0.7 -0.2
v 0.2 0.6 -0.2
v 0.2 0.7 -0.2
v 0.3 0.6 -0.2
v 0.3 0.7 -0.2
v -0.1 -0.1 -0.4
v -0.1 0 -0.4
v 0.2 -0.1 -0.4
v 0.2 0 -0.4
v -0.1 -1 0.4
v -0.1 -0.7 0.4
v 0.2 -1 0.4
v 0.2 -0.7 0.4
v -0.5 0.2 0.2
v -0.5 0.5 0.2
v -0.4 0.2 0.2
v -0.4 0.3 0.2
v -0.4 0.5 0.2
v 0.5 0.2 0.2
v 0.5 0.3 0.2
v 0.5 0.5 0.2
v 0.6 0.2 0.2
v 0.6 0.5 0.2
v -0.4 0.7 0.1
v -0.4 0.8 0.1
v -0.3 0.7 0.1
v -0.3 0.8 0.1
v 0.4 0.7 0.1
v 0.4 0.8 0.1
v 0.5 0.7 0.1
v 0.5 0.8 0.1
v -0.4 -0.3 0
v -0.4 -0.2 0
v -0.3 -0.3 0
v -0.3 -0.2 0
v 0.4 -0.3 0
v 0.4 -0.2 0
v 0.5 -0.3 0
v 0.5 -0.2 0
v -0.5 0.8 -0.1
v -0.5 1 -0.1
v -0.4 0.3 -0.1
v -0.4 0.4 -0.1
v -0.4 0.8 -0.1
v -0.4 1 -0.1
v -0.3 0.3 -0.1
v -0.3 0.4 -0.1
v -0.2 0.6 -0.1
v -0.2 0.7 -0.1
v -0.1 0.6 -0.1
v -0.1 0.7 -0.1
v 0.2 0.6 -0.1
v 0.2 0.7 -0.1
v 0.3 0.6 -0.1
v 0.3 0.7 -0.1
v 0.4 0.3 -0.1
v 0.4 0.4 -0.1
v 0.5 0.3 -0.1
v 0.5 0.4 -0.1
v 0.5 0.8 -0.1
v 0.5 1 -0.1
v 0.6 0.8 -0.1
v 0.6 1 -0.1
v -0.5 -0.9 -0.2
v -0.5 -0.8 -0.2
v -0.4 -0.9 -0.2
v -0.4 -0.8 -0.2
v -0.4 -0.6 -0.2
v -0.4 -0.5 -0.2
v -0.4 -0.3 -0.2
v -0.4 -0.2 -0.2
v -0.4 0.4 -0.2
v -0.4 0.7 -0.2
v -0.4 0.8 -0.2
v -0.4 1 -0.2
v -0.3 -0.6 -0.2
v -0.3 -0.5 -0.2
v -0.3 -0.3 -0.2
v -0.3 -0.2 -0.2
v -0.3 0.4 -0.2
v -0.3 0.6 -0.2
v -0.3 0.7 -0.2
v -0.3 0.8 -0.2
v -0.2 0.6 -0.2
v -0.2 0.7 -0.2
v -0.2 0.8 -0.2
v -0.2 1 -0.2
v -0.1 0.7 -0.2
v -0.1 0.8 -0.2
v 0.2 0.7 -0.2
v 0.2 0.8 -0.2
v 0.3 0.6 -0.2
v 0.3 0.7 -0.2
v 0.3 0.8 -0.2
v 0.3 1 -0.2
v 0.4 -0.6 -0.2
v 0.4 -0.5 -0.2
v 0.4 -0.3 -0.2
v 0.4 -0.2 -0.2
v 0.4 0.4 -0.2
v 0.4 0.6 -0.2
v 0.4 0.7 -0.2
v 0.4 0.8 -0.2
v 0.5 -0.9 -0.2
v 0.5 -0.8 -0.2
v 0.5 -0.6 -0.2
v 0.5 -0.5 -0.2
v 0.5 -0.3 -0.2
v 0.5 -0.2 -0.2
v 0.5 0.4 -0.2
v 0.5 0.7 -0.2
v 0.5 0.8 -0.2
v 0.5 1 -0.2
v 0.6 -0.9 -0.2
v 0.6 -0.8 -0.2
v -0.5 -1.2 -0.3
v -0.5 -1.1 -0.3
v -0.5 -0.9 -0.3
v -0.5 -0.2 -0.3
v -0.5 0.2 -0.3
v -0.4 -1.2 -0.3
v -0.4 -1.1 -0.3
v -0.4 -0.9 -0.3
v -0.4 0.0999999 -0.3
v -0.4 0.2 -0.3
v -0.4 0.3 -0.3
v -0.3 -0.6 -0.3
v -0.3 -0.3 -0.3
v -0.3 -0.2 -0.3
v -0.3 0.0999999 -0.3
v -0.3 0.2 -0.3
v -0.3 0.3 -0.3
v -0.3 0.6 -0.3
v -0.2 -0.6 -0.3
v -0.2 -0.5 -0.3
v -0.2 0.6 -0.3
v -0.2 0.7 -0.3
v -0.2 0.8 -0.3
v -0.2 0.9 -0.3
v -0.2 1 -0.3
v -0.2 1.1 -0.3
v -0.1 -0.5 -0.3
v -0.1 -0.4 -0.3
v -0.1 -0.3 -0.3
v -0.1 0 -0.3
v -0.1 0.2 -0.3
v -0.1 0.3 -0.3
v -0.1 0.5 -0.3
v -0.1 0.7 -0.3
v -0.1 0.8 -0.3
v -0.1 0.9 -0.3
v -0.1 1 -0.3
v -0.1 1.1 -0.3
v -0.1 1.2 -0.3
v 0 0.5 -0.3
v 0 0.6 -0.3
v 0 0.7 -0.3
v 0 0.8 -0.3
v 0 1.1 -0.3
v 0 1.2 -0.3
v 0.1 0.5 -0.3
v 0.1 0.6 -0.3
v 0.1 0.7 -0.3
v 0.1 0.8 -0.3
v 0.1 1.1 -0.3
v 0.1 1.2 -0.3
v 0.2 -0.5 -0.3
v 0.2 -0.4 -0.3
v 0.2 -0.3 -0.3
v 0.2 0 -0.3
v 0.2 0.2 -0.3
v 0.2 0.3 -0.3
v 0.2 0.5 -0.3
v 0.2 0.7 -0.3
v 0.2 0.8 -0.3
v 0.2 0.9 -0.3
v 0.2 1 -0.3
v 0.2 1.1 -0.3
v 0.2 1.2 -0.3
v 0.3 -0.6 -0.3
v 0.3 -0.5 -0.3
v 0.3 0.6 -0.3
v 0.3 0.7 -0.3
v 0.3 0.8 -0.3
v 0.3 0.9 -0.3
v 0.3 1 -0.3
v 0.3 1.1 -0.3
v 0.4 -0.6 -0.3
v 0.4 -0.3 -0.3
v 0.4 -0.2 -0.3
v 0.4 0.0999999 -0.3
v 0.4 0.2 -0.3
v 0.4 0.3 -0.3
v 0.4 0.6 -0.3
v 0.5 -1.2 -0.3
v 0.5 -1.1 -0.3
v 0.5 -0.9 -0.3
v 0.5 0.0999999 -0.3
v 0.5 0.2 -0.3
v 0.5 0.3 -0.3
v 0.6 -1.2 -0.3
v 0.6 -1.1 -0.3
v 0.6 -0.9 -0.3
v 0.6 -0.2 -0.3
v 0.6 0.2 -0.3
v -0.4 -1.2 -0.4
v -0.4 -1.1 -0.4
v -0.4 -0.6 -0.4
v -0.3 -1 -0.4
v -0.3 -0.8 -0.4
v -0.3 -0.3 -0.4
v -0.3 0.2 -0.4
v -0.2 -1.2 -0.4
v -0.2 -1.1 -0.4
v -0.2 -1 -0.4
v -0.2 -0.8 -0.4
v -0.2 -0.7 -0.4
v -0.2 -0.6 -0.4
v -0.2 -0.5 -0.4
v -0.2 0.9 -0.4
v -0.2 1 -0.4
v -0.1 -0.7 -0.4
v -0.1 -0.6 -0.4
v -0.1 -0.5 -0.4
v -0.1 -0.4 -0.4
v -0.1 -0.3 -0.4
v -0.1 -0.1 -0.4
v -0.1 0.0999999 -0.4
v -0.1 0.2 -0.4
v -0.1 0.5 -0.4
v -0.1 0.7 -0.4
v -0.1 0.9 -0.4
v -0.1 1 -0.4
v 0 -0.6 -0.4
v 0 -0.5 -0.4
v 0 0.0999999 -0.4
v 0 0.4 -0.4
v 0 0.5 -0.4
v 0 0.6 -0.4
v 0 0.7 -0.4
v 0 0.8 -0.4
v 0 0.9 -0.4
v 0 1.1 -0.4
v 0 1.2 -0.4
v 0.1 -0.6 -0.4
v 0.1 -0.5 -0.4
v 0.1 0.0999999 -0.4
v 0.1 0.4 -0.4
v 0.1 0.5 -0.4
v 0.1 0.6 -0.4
v 0.1 0.7 -0.4
v 0.1 0.8 -0.4
v 0.1 0.9 -0.4
v 0.1 1.1 -0.4
v 0.1 1.2 -0.4
v 0.2 -0.7 -0.4
v 0.2 -0.6 -0.4
v 0.2 -0.5 -0.4
v 0.2 -0.4 -0.4
v 0.2 -0.3 -0.4
v 0.2 -0.1 -0.4
v 0.2 0.0999999 -0.4
v 0.2 0.2 -0.4
v 0.2 0.5 -0.4
v 0.2 0.7 -0.4
v 0.2 0.9 -0.4
v 0.2 1 -0.4
v 0.3 -1.2 -0.4
v 0.3 -1.1 -0.4
v 0.3 -1 -0.4
v 0.3 -0.8 -0.4
v 0.3 -0.7 -0.4
v 0.3 -0.6 -0.4
v 0.3 -0.5 -0.4
v 0.3 0.9 -0.4
v 0.3 1 -0.4
v 0.4 -1 -0.4
v 0.4 -0.8 -0.4
v 0.4 -0.3 -0.4
v 0.4 0.2 -0.4
v 0.5 -1.2 -0.4
v 0.5 -1.1 -0.4
v 0.5 -0.6 -0.4
v -0.3 -1 -0.5
v -0.3 -0.8 -0.5
v -0.2 -1.1 -0.5
v -0.2 -1 -0.5
v -0.2 -0.8 -0.5
v -0.2 -0.7 -0.5
v -0.1 -0.7 -0.5
v -0.1 -0.6 -0.5
v -0.1 -0.1 -0.5
v -0.1 0.0999999 -0.5
v -0.1 0.9 -0.5
v -0.1 1.1 -0.5
v 0 -0.6 -0.5
v 0 -0.5 -0.5
v 0 0.0999999 -0.5
v 0 0.4 -0.5
v 0 0.8 -0.5
v 0 0.9 -0.5
v 0.1 -0.6 -0.5
v 0.1 -0.5 -0.5
v 0.1 0.0999999 -0.5
v 0.1 0.4 -0.5
v 0.1 0.8 -0.5
v 0.1 0.9 -0.5
v 0.2 -0.7 -0.5
v 0.2 -0.6 -0.5
v 0.2 -0.1 -0.5
v 0.2 0.0999999 -0.5
v 0.2 0.9 -0.5
v 0.2 1.1 -0.5
v 0.3 -1.1 -0.5
v 0.3 -1 -0.5
v 0.3 -0.8 -0.5
v 0.3 -0.7 -0.5
v 0.4 -1 -0.5
v 0.4 -0.8 -0.5
v -0.4 -1.2 0.3
v -0.2 -1.2 0.3
v 0.3 -1.2 0.3
v 0.5 -1.2 0.3
v -0.5 -1.2 0.2
v -0.4 -1.2 0.2
v 0.5 -1.2 0.2
v 0.6 -1.2 0.2
v -0.3 -1.2 0.1
v -0.2 -1.2 0.1
v 0.3 -1.2 0.1
v 0.4 -1.2 0.1
v -0.3 -1.2 -0.2
v -0.2 -1.2 -0.2
v 0.3 -1.2 -0.2
v 0.4 -1.2 -0.2
v -0.5 -1.2 -0.3
v -0.4 -1.2 -0.3
v 0.5 -1.2 -0.3
v 0.6 -1.2 -0.3
v -0.4 -1.2 -0.4
v -0.2 -1.2 -0.4
v 0.3 -1.2 -0.4
v 0.5 -1.2 -0.4
v -0.1 -1.1 0.4
v 0.2 -1.1 0.4
v -0.1 -1.1 0.3
v 0.2 -1.1 0.3
v -0.2 -1.1 -0.4
v 0.3 -1.1 -0.4
v -0.2 -1.1 -0.5
v 0.3 -1.1 -0.5
v -0.1 -1 0.5
v 0.2 -1 0.5
v -0.2 -1 0.4
v -0.1 -1 0.4
v 0.2 -1 0.4
v 0.3 -1 0.4
v -0.2 -1 0.3
v -0.1 -1 0.3
v 0.2 -1 0.3
v 0.3 -1 0.3
v -0.3 -1 -0.4
v -0.2 -1 -0.4
v 0.3 -1 -0.4
v 0.4 -1 -0.4
v -0.3 -1 -0.5
v -0.2 -1 -0.5
v 0.3 -1 -0.5
v 0.4 -1 -0.5
v -0.2 -0.5 0.3
v -0.1 -0.5 0.3
v 0.2 -0.5 0.3
v 0.3 -0.5 0.3
v -0.2 -0.5 0.2
v -0.1 -0.5 0.2
v 0.2 -0.5 0.2
v 0.3 -0.5 0.2
v -0.2 -0.3 0.3
v -0.1 -0.3 0.3
v 0.2 -0.3 0.3
v 0.3 -0.3 0.3
v -0.2 -0.3 0.2
v -0.1 -0.3 0.2
v 0.2 -0.3 0.2
v 0.3 -0.3 0.2
v -0.4 -0.3 0.1
v -0.3 -0.3 0.1
v 0.4 -0.3 0.1
v 0.5 -0.3 0.1
v -0.4 -0.3 0
v -0.3 -0.3 0
v 0.4 -0.3 0
v 0.5 -0.3 0
v -0.4 -0.3 -0.1
v -0.3 -0.3 -0.1
v 0.4 -0.3 -0.1
v 0.5 -0.3 -0.1
v -0.4 -0.3 -0.2
v -0.3 -0.3 -0.2
v 0.4 -0.3 -0.2
v 0.5 -0.3 -0.2
v -0.3 -0.3 -0.3
v -0.1 -0.3 -0.3
v 0.2 -0.3 -0.3
v 0.4 -0.3 -0.3
v -0.3 -0.3 -0.4
v -0.1 -0.3 -0.4
v 0.2 -0.3 -0.4
v 0.4 -0.3 -0.4
v -0.4 -0.2 0.2
v -0.3 -0.2 0.2
v 0.4 -0.2 0.2
v 0.5 -0.2 0.2
v -0.5 -0.2 0.1
v -0.4 -0.2 0.1
v -0.3 -0.2 0.1
v 0.4 -0.2 0.1
v 0.5 -0.2 0.1
v 0.6 -0.2 0.1
v -0.4 -0.2 0
v -0.3 -0.2 0
v 0.4 -0.2 0
v 0.5 -0.2 0
v -0.4 -0.2 -0.1
v -0.3 -0.2 -0.1
v 0.4 -0.2 -0.1
v 0.5 -0.2 -0.1
v -0.4 -0.2 -0.2
v -0.3 -0.2 -0.2
v 0.4 -0.2 -0.2
v 0.5 -0.2 -0.2
v -0.5 -0.2 -0.3
v -0.3 -0.2 -0.3
v 0.4 -0.2 -0.3
v 0.6 -0.2 -0.3
v -0.1 -0.1 -0.4
v 0.2 -0.1 -0.4
v -0.1 -0.1 -0.5
v 0.2 -0.1 -0.5
v -0.3 0 0.3
v -0.2 0 0.3
v 0.3 0 0.3
v 0.4 0 0.3
v -0.3 0 0.2
v -0.2 0 0.2
v 0.3 0 0.2
v 0.4 0 0.2
v -0.1 0 -0.3
v 0.2 0 -0.3
v -0.1 0 -0.4
v 0.2 0 -0.4
v -0.4 0.0999999 0.3
v -0.3 0.0999999 0.3
v -0.1 0.0999999 0.3
v 0.2 0.0999999 0.3
v 0.4 0.0999999 0.3
v 0.5 0.0999999 0.3
v -0.4 0.0999999 0.2
v -0.3 0.0999999 0.2
v -0.1 0.0999999 0.2
v 0.2 0.0999999 0.2
v 0.4 0.0999999 0.2
v 0.5 0.0999999 0.2
v -0.5 0.2 0.3
v -0.4 0.2 0.3
v 0.5 0.2 0.3
v 0.6 0.2 0.3
v -0.5 0.2 0.2
v -0.4 0.2 0.2
v 0.5 0.2 0.2
v 0.6 0.2 0.2
v -0.4 0.4 -0.1
v -0.3 0.4 -0.1
v 0.4 0.4 -0.1
v 0.5 0.4 -0.1
v -0.4 0.4 -0.2
v -0.3 0.4 -0.2
v 0.4 0.4 -0.2
v 0.5 0.4 -0.2
v -0.2 0.7 -0.1
v -0.1 0.7 -0.1
v 0.2 0.7 -0.1
v 0.3 0.7 -0.1
v -0.2 0.7 -0.2
v -0.1 0.7 -0.2
v 0.2 0.7 -0.2
v 0.3 0.7 -0.2
v -0.1 0.7 -0.3
v 0 0.7 -0.3
v 0.1 0.7 -0.3
v 0.2 0.7 -0.3
v -0.1 0.7 -0.4
v 0 0.7 -0.4
v 0.1 0.7 -0.4
v 0.2 0.7 -0.4
v -0.5 0.8 0.2
v -0.4 0.8 0.2
v 0.5 0.8 0.2
v 0.6 0.8 0.2
v -0.4 0.8 0.1
v -0.3 0.8 0.1
v 0.4 0.8 0.1
v 0.5 0.8 0.1
v -0.5 0.8 -0.1
v -0.4 0.8 -0.1
v 0.5 0.8 -0.1
v 0.6 0.8 -0.1
v -0.4 0.8 -0.2
v -0.3 0.8 -0.2
v -0.2 0.8 -0.2
v -0.1 0.8 -0.2
v 0.2 0.8 -0.2
v 0.3 0.8 -0.2
v 0.4 0.8 -0.2
v 0.5 0.8 -0.2
v -0.2 0.8 -0.3
v -0.1 0.8 -0.3
v 0 0.8 -0.3
v 0.1 0.8 -0.3
v 0.2 0.8 -0.3
v 0.3 0.8 -0.3
v 0 0.8 -0.4
v 0.1 0.8 -0.4
v 0 0.8 -0.5
v 0.1 0.8 -0.5
v -0.2 0.9 -0.3
v -0.1 0.9 -0.3
v 0.2 0.9 -0.3
v 0.3 0.9 -0.3
v -0.2 0.9 -0.4
v -0.1 0.9 -0.4
v 0 0.9 -0.4
v 0.1 0.9 -0.4
v 0.2 0.9 -0.4
v 0.3 0.9 -0.4
v -0.1 0.9 -0.5
v 0 0.9 -0.5
v 0.1 0.9 -0.5
v 0.2 0.9 -0.5
v -0.1 -1 0.4
v 0.2 -1 0.4
v -0.1 -1 0.3
v 0.2 -1 0.3
v -0.5 -0.9 0.2
v -0.4 -0.9 0.2
v 0.5 -0.9 0.2
v 0.6 -0.9 0.2
v -0.5 -0.9 0.1
v -0.4 -0.9 0.1
v 0.5 -0.9 0.1
v 0.6 -0.9 0.1
v -0.5 -0.9 -0.2
v -0.4 -0.9 -0.2
v 0.5 -0.9 -0.2
v 0.6 -0.9 -0.2
v -0.5 -0.9 -0.3
v -0.4 -0.9 -0.3
v 0.5 -0.9 -0.3
v 0.6 -0.9 -0.3
v -0.5 -0.8 0.1
v -0.4 -0.8 0.1
v 0.5 -0.8 0.1
v 0.6 -0.8 0.1
v -0.5 -0.8 -0.2
v -0.4 -0.8 -0.2
v 0.5 -0.8 -0.2
v 0.6 -0.8 -0.2
v -0.3 -0.8 -0.4
v -0.2 -0.8 -0.4
v 0.3 -0.8 -0.4
v 0.4 -0.8 -0.4
v -0.3 -0.8 -0.5
v -0.2 -0.8 -0.5
v 0.3 -0.8 -0.5
v 0.4 -0.8 -0.5
v -0.1 -0.7 0.5
v 0.2 -0.7 0.5
v -0.2 -0.7 0.4
v -0.1 -0.7 0.4
v 0.2 -0.7 0.4
v 0.3 -0.7 0.4
v -0.2 -0.7 0.3
v -0.1 -0.7 0.3
v 0.2 -0.7 0.3
v 0.3 -0.7 0.3
v -0.2 -0.7 -0.4
v -0.1 -0.7 -0.4
v 0.2 -0.7 -0.4
v 0.3 -0.7 -0.4
v -0.2 -0.7 -0.5
v -0.1 -0.7 -0.5
v 0.2 -0.7 -0.5
v 0.3 -0.7 -0.5
v -0.4 -0.6 0.3
v -0.1 -0.6 0.3
v 0.2 -0.6 0.3
v 0.5 -0.6 0.3
v -0.3 -0.6 0.2
v -0.1 -0.6 0.2
v 0.2 -0.6 0.2
v 0.4 -0.6 0.2
v -0.4 -0.6 0.1
v -0.3 -0.6 0.1
v 0.4 -0.6 0.1
v 0.5 -0.6 0.1
v -0.4 -0.6 -0.2
v -0.3 -0.6 -0.2
v 0.4 -0.6 -0.2
v 0.5 -0.6 -0.2
v -0.3 -0.6 -0.3
v -0.2 -0.6 -0.3
v 0.3 -0.6 -0.3
v 0.4 -0.6 -0.3
v -0.4 -0.6 -0.4
v -0.2 -0.6 -0.4
v -0.1 -0.6 -0.4
v 0 -0.6 -0.4
v 0.1 -0.6 -0.4
v 0.2 -0.6 -0.4
v 0.3 -0.6 -0.4
v 0.5 -0.6 -0.4
v -0.1 -0.6 -0.5
v 0 -0.6 -0.5
v 0.1 -0.6 -0.5
v 0.2 -0.6 -0.5
v -0.1 -0.5 0.3
v 0.2 -0.5 0.3
v -0.1 -0.5 0.2
v 0.2 -0.5 0.2
v -0.4 -0.5 0.1
v -0.3 -0.5 0.1
v 0.4 -0.5 0.1
v 0.5 -0.5 0.1
v -0.4 -0.5 -0.2
v -0.3 -0.5 -0.2
v 0.4 -0.5 -0.2
v 0.5 -0.5 -0.2
v -0.2 -0.5 -0.3
v -0.1 -0.5 -0.3
v 0.2 -0.5 -0.3
v 0.3 -0.5 -0.3
v -0.2 -0.5 -0.4
v -0.1 -0.5 -0.4
v 0 -0.5 -0.4
v 0.1 -0.5 -0.4
v 0.2 -0.5 -0.4
v 0.3 -0.5 -0.4
v 0 -0.5 -0.5
v 0.1 -0.5 -0.5
v -0.2 -0.4 0.3
v -0.1 -0.4 0.3
v 0.2 -0.4 0.3
v 0.3 -0.4 0.3
v -0.2 -0.4 0.2
v -0.1 -0.4 0.2
v 0.2 -0.4 0.2
v 0.3 -0.4 0.2
v -0.1 -0.4 -0.3
v 0.2 -0.4 -0.3
v -0.1 -0.4 -0.4
v 0.2 -0.4 -0.4
v -0.1 0.0999999 -0.4
v 0 0.0999999 -0.4
v 0.1 0.0999999 -0.4
v 0.2 0.0999999 -0.4
v -0.1 0.0999999 -0.5
v 0 0.0999999 -0.5
v 0.1 0.0999999 -0.5
v 0.2 0.0999999 -0.5
v -0.5 0.2 0.1
v -0.4 0.2 0.1
v 0.5 0.2 0.1
v 0.6 0.2 0.1
v -0.5 0.2 -0.3
v -0.4 0.2 -0.3
v -0.3 0.2 -0.3
v -0.1 0.2 -0.3
v 0.2 0.2 -0.3
v 0.4 0.2 -0.3
v 0.5 0.2 -0.3
v 0.6 0.2 -0.3
v -0.3 0.2 -0.4
v -0.1 0.2 -0.4
v 0.2 0.2 -0.4
v 0.4 0.2 -0.4
v -0.4 0.3 -0.1
v -0.3 0.3 -0.1
v 0.4 0.3 -0.1
v 0.5 0.3 -0.1
v -0.4 0.3 -0.3
v -0.3 0.3 -0.3
v 0.4 0.3 -0.3
v 0.5 0.3 -0.3
v 0 0.4 -0.4
v 0.1 0.4 -0.4
v 0 0.4 -0.5
v 0.1 0.4 -0.5
v -0.5 0.5 0.3
v -0.4 0.5 0.3
v 0.5 0.5 0.3
v 0.6 0.5 0.3
v -0.5 0.5 0.2
v -0.4 0.5 0.2
v 0.5 0.5 0.2
v 0.6 0.5 0.2
v -0.1 0.5 -0.3
v 0 0.5 -0.3
v 0.1 0.5 -0.3
v 0.2 0.5 -0.3
v -0.1 0.5 -0.4
v 0 0.5 -0.4
v 0.1 0.5 -0.4
v 0.2 0.5 -0.4
v -0.2 0.6 -0.1
v -0.1 0.6 -0.1
v 0.2 0.6 -0.1
v 0.3 0.6 -0.1
v -0.3 0.6 -0.2
v -0.2 0.6 -0.2
v -0.1 0.6 -0.2
v 0.2 0.6 -0.2
v 0.3 0.6 -0.2
v 0.4 0.6 -0.2
v -0.3 0.6 -0.3
v -0.2 0.6 -0.3
v 0 0.6 -0.3
v 0.1 0.6 -0.3
v 0.3 0.6 -0.3
v 0.4 0.6 -0.3
v 0 0.6 -0.4
v 0.1 0.6 -0.4
v -0.4 0.7 0.1
v -0.3 0.7 0.1
v 0.4 0.7 0.1
v 0.5 0.7 0.1
v -0.4 0.7 -0.2
v -0.3 0.7 -0.2
v -0.2 0.7 -0.2
v -0.1 0.7 -0.2
v 0.2 0.7 -0.2
v 0.3 0.7 -0.2
v 0.4 0.7 -0.2
v 0.5 0.7 -0.2
v -0.2 0.7 -0.3
v -0.1 0.7 -0.3
v 0.2 0.7 -0.3
v 0.3 0.7 -0.3
v -0.4 1 0.3
v -0.3 1 0.3
v 0.4 1 0.3
v 0.5 1 0.3
v -0.5 1 0.2
v -0.4 1 0.2
v 0.5 1 0.2
v 0.6 1 0.2
v -0.1 1 0.1
v 0.2 1 0.1
v -0.3 1 0
v -0.2 1 0
v -0.1 1 0
v 0.2 1 0
v 0.3 1 0
v 0.4 1 0
v -0.5 1 -0.1
v -0.4 1 -0.1
v 0.5 1 -0.1
v 0.6 1 -0.1
v -0.4 1 -0.2
v -0.2 1 -0.2
v 0.3 1 -0.2
v 0.5 1 -0.2
v -0.2 1 -0.3
v -0.1 1 -0.3
v 0.2 1 -0.3
v 0.3 1 -0.3
v -0.2 1 -0.4
v -0.1 1 -0.4
v 0.2 1 -0.4
v 0.3 1 -0.4
v -0.1 1.1 0.1
v 0.2 1.1 0.1
v -0.2 1.1 0
v -0.1 1.1 0
v 0 1.1 0
v 0.1 1.1 0
v 0.2 1.1 0
v 0.3 1.1 0
v -0.1 1.1 -0.1
v 0 1.1 -0.1
v 0.1 1.1 -0.1
v 0.2 1.1 -0.1
v -0.2 1.1 -0.3
v -0.1 1.1 -0.3
v 0 1.1 -0.3
v 0.1 1.1 -0.3
v 0.2 1.1 -0.3
v 0.3 1.1 -0.3
v 0 1.1 -0.4
v 0.1 1.1 -0.4
v -0.1 1.1 -0.5
v 0.2 1.1 -0.5
v 0 1.2 0
v 0.1 1.2 0
v -0.1 1.2 -0.1
v 0 1.2 -0.1
v 0.1 1.2 -0.1
v 0.2 1.2 -0.1
v -0.1 1.2 -0.3
v 0 1.2 -0.3
v 0.1 1.2 -0.3
v 0.2 1.2 -0.3
v 0 1.2 -0.4
v 0.1 1.2 -0.4

# faces
f 3/2/1 2/2/1 1/2/1
f 4/2/1 2/2/1 3/2/1
f 5/1/1 4/1/1 3/1/1
f 6/1/1 4/1/1 5/1/1
f 7/1/1 4/1/1 6/1/1
f 8/1/1 4/1/1 7/1/1
f 9/1/1 7/1/1 6/1/1
f 10/1/1 7/1/1 9/1/1
f 15/6/1 12/6/1 11/6/1
f 16/6/1 12/6/1 15/6/1
f 17/5/1 14/5/1 13/5/1
f 18/5/1 14/5/1 17/5/1
f 21/5/1 20/5/1 19/5/1
f 22/5/1 20/5/1 21/5/1
f 27/2/1 24/2/1 23/2/1
f 28/2/1 24/2/1 27/2/1
f 29/2/1 26/2/1 25/2/1
f 30/2/1 26/2/1 29/2/1
f 31/1/1 28/1/1 27/1/1
f 34/1/1 30/1/1 29/1/1
f 35/1/1 32/1/1 31/1/1
f 36/1/1 34/1/1 33/1/1
f 37/1/1 35/1/1 31/1/1
f 37/1/1 36/1/1 35/1/1
f 37/1/1 31/1/1 27/1/1
f 38/1/1 36/1/1 37/1/1
f 39/1/1 34/1/1 36/1/1
f 39/1/1 36/1/1 38/1/1
f 40/1/1 30/1/1 34/1/1
f 40/1/1 34/1/1 39/1/1
f 41/1/1 39/1/1 38/1/1
f 42/1/1 39/1/1 41/1/1
f 48/5/1 44/5/1 43/5/1
f 49/5/1 44/5/1 48/5/1
f 50/5/1 46/5/1 45/5/1
f 51/5/1 46/5/1 50/5/1
f 53/6/1 48/6/1 47/6/1
f 54/6/1 48/6/1 53/6/1
f 55/1/1 53/1/1 52/1/1
f 55/1/1 54/1/1 53/1/1
f 56/1/1 54/1/1 55/1/1
f 57/1/1 54/1/1 56/1/1
f 59/1/1 57/1/1 56/1/1
f 59/1/1 58/1/1 57/1/1
f 60/1/1 58/1/1 59/1/1
f 61/1/1 58/1/1 60/1/1
f 62/5/1 60/5/1 59/5/1
f 65/5/1 62/5/1 59/5/1
f 65/5/1 63/5/1 62/5/1
f 66/5/1 63/5/1 65/5/1
f 66/5/1 65/5/1 64/5/1
f 67/5/1 63/5/1 66/5/1
f 68/5/1 66/5/1 64/5/1
f 69/5/1 66/5/1 68/5/1
f 72/5/1 68/5/1 64/5/1
f 73/5/1 68/5/1 72/5/1
f 74/5/1 71/5/1 70/5/1
f 75/5/1 71/5/1 74/5/1
f 78/1/1 77/1/1 76/1/1
f 79/1/1 77/1/1 78/1/1
f 84/1/1 81/1/1 80/1/1
f 85/1/1 83/1/1 82/1/1
f 86/1/1 84/1/1 80/1/1
f 86/1/1 85/1/1 84/1/1
f 87/1/1 85/1/1 86/1/1
f 88/1/1 85/1/1 87/1/1
f 89/1/1 83/1/1 85/1/1
f 89/1/1 85/1/1 88/1/1
f 90/1/1 83/1/1 89/1/1
f 92/1/1 86/1/1 80/1/1
f 93/1/1 86/1/1 92/1/1
f 94/1/1 88/1/1 87/1/1
f 95/1/1 88/1/1 94/1/1
f 96/1/1 91/1/1 90/1/1
f 96/1/1 90/1/1 89/1/1
f 97/1/1 91/1/1 96/1/1
f 100/1/1 99/1/1 98/1/1
f 101/1/1 99/1/1 100/1/1
f 102/1/1 91/1/1 97/1/1
f 103/1/1 91/1/1 102/1/1
f 104/1/1 91/1/1 103/1/1
f 107/5/1 106/5/1 105/5/1
f 108/5/1 106/5/1 107/5/1
f 109/5/1 106/5/1 108/5/1
f 110/5/1 106/5/1 109/5/1
f 113/5/1 112/5/1 111/5/1
f 114/5/1 112/5/1 113/5/1
f 119/1/1 116/1/1 115/1/1
f 120/1/1 116/1/1 119/1/1
f 123/2/1 118/2/1 117/2/1
f 124/2/1 118/2/1 123/2/1
f 125/1/1 122/1/1 121/1/1
f 126/1/1 122/1/1 125/1/1
f 131/1/1 128/1/1 127/1/1
f 132/1/1 128/1/1 131/1/1
f 133/2/1 130/2/1 129/2/1
f 134/2/1 130/2/1 133/2/1
f 137/1/1 136/1/1 135/1/1
f 138/1/1 137/1/1 135/1/1
f 139/1/1 137/1/1 138/1/1
f 142/5/1 141/5/1 140/5/1
f 143/5/1 141/5/1 142/5/1
f 146/5/1 145/5/1 144/5/1
f 149/5/1 146/5/1 144/5/1
f 149/5/1 147/5/1 146/5/1
f 150/5/1 147/5/1 149/5/1
f 151/5/1 147/5/1 150/5/1
f 152/5/1 149/5/1 148/5/1
f 152/5/1 150/5/1 149/5/1
f 153/5/1 150/5/1 152/5/1
f 157/2/1 155/2/1 154/2/1
f 158/2/1 155/2/1 157/2/1
f 159/1/1 157/1/1 156/1/1
f 160/1/1 157/1/1 159/1/1
f 165/1/1 162/1/1 161/1/1
f 166/1/1 162/1/1 165/1/1
f 167/2/1 164/2/1 163/2/1
f 168/2/1 164/2/1 167/2/1
f 171/1/1 170/1/1 169/1/1
f 172/1/1 170/1/1 171/1/1
f 175/5/1 174/5/1 173/5/1
f 176/5/1 174/5/1 175/5/1
f 179/5/1 178/5/1 177/5/1
f 180/5/1 178/5/1 179/5/1
f 181/5/1 178/5/1 180/5/1
f 184/5/1 183/5/1 182/5/1
f 185/5/1 183/5/1 184/5/1
f 188/5/1 187/5/1 186/5/1
f 188/5/1 186/5/1 185/5/1
f 189/5/1 187/5/1 188/5/1
f 190/5/1 187/5/1 189/5/1
f 191/5/1 187/5/1 190/5/1
f 196/5/1 192/5/1 191/5/1
f 197/5/1 194/5/1 193/5/1
f 198/5/1 194/5/1 197/5/1
f 200/5/1 196/5/1 195/5/1
f 201/5/1 192/5/1 196/5/1
f 201/5/1 196/5/1 200/5/1
f 202/5/1 200/5/1 199/5/1
f 203/5/1 200/5/1 202/5/1
f 206/1/1 205/1/1 204/1/1
f 207/1/1 205/1/1 206/1/1
f 210/5/1 209/5/1 208/5/1
f 211/5/1 209/5/1 210/5/1
f 214/5/1 213/5/1 212/5/1
f 215/5/1 213/5/1 214/5/1
f 218/5/1 217/5/1 216/5/1
f 219/5/1 217/5/1 218/5/1
f 224/5/1 221/5/1 220/5/1
f 225/5/1 221/5/1 224/5/1
f 226/5/1 223/5/1 222/5/1
f 227/5/1 223/5/1 226/5/1
f 230/5/1 229/5/1 228/5/1
f 231/5/1 229/5/1 230/5/1
f 234/2/1 233/2/1 232/2/1
f 235/2/1 233/2/1 234/2/1
f 238/2/1 237/2/1 236/2/1
f 239/2/1 237/2/1 238/2/1
f 244/1/1 241/1/1 240/1/1
f 245/1/1 243/1/1 242/1/1
f 246/1/1 245/1/1 242/1/1
f 247/1/1 245/1/1 246/1/1
f 248/1/1 244/1/1 240/1/1
f 249/1/1 244/1/1 248/1/1
f 252/5/1 251/5/1 250/5/1
f 253/5/1 251/5/1 252/5/1
f 254/5/2 255/5/2 256/5/2
f 256/5/2 255/5/2 257/5/2
f 258/2/2 259/2/2 260/2/2
f 260/2/2 259/2/2 261/2/2
f 262/2/2 263/2/2 264/2/2
f 264/2/2 263/2/2 265/2/2
f 266/1/2 267/1/2 270/1/2
f 268/1/2 269/1/2 271/1/2
f 268/1/2 271/1/2 272/1/2
f 272/1/2 271/1/2 273/1/2
f 266/1/2 270/1/2 274/1/2
f 274/1/2 270/1/2 275/1/2
f 276/5/2 277/5/2 278/5/2
f 278/5/2 277/5/2 279/5/2
f 280/1/2 281/1/2 282/1/2
f 282/1/2 281/1/2 283/1/2
f 284/5/2 285/5/2 286/5/2
f 286/5/2 285/5/2 287/5/2
f 288/5/2 289/5/2 290/5/2
f 290/5/2 289/5/2 291/5/2
f 292/5/2 293/5/2 294/5/2
f 294/5/2 293/5/2 295/5/2
f 296/5/2 297/5/2 300/5/2
f 300/5/2 297/5/2 301/5/2
f 298/5/2 299/5/2 302/5/2
f 302/5/2 299/5/2 303/5/2
f 304/2/2 305/2/2 307/2/2
f 307/2/2 305/2/2 308/2/2
f 306/1/2 307/1/2 309/1/2
f 309/1/2 307/1/2 310/1/2
f 311/1/2 312/1/2 315/1/2
f 315/1/2 312/1/2 316/1/2
f 313/2/2 314/2/2 317/2/2
f 317/2/2 314/2/2 318/2/2
f 319/1/2 320/1/2 321/1/2
f 321/1/2 320/1/2 322/1/2
f 323/5/2 324/5/2 325/5/2
f 325/5/2 324/5/2 326/5/2
f 327/5/2 328/5/2 329/5/2
f 329/5/2 328/5/2 330/5/2
f 330/5/2 328/5/2 331/5/2
f 332/5/2 333/5/2 334/5/2
f 334/5/2 333/5/2 335/5/2
f 336/5/2 337/5/2 338/5/2
f 335/5/2 336/5/2 338/5/2
f 338/5/2 337/5/2 339/5/2
f 339/5/2 337/5/2 340/5/2
f 340/5/2 337/5/2 341/5/2
f 341/5/2 342/5/2 346/5/2
f 343/5/2 344/5/2 347/5/2
f 347/5/2 344/5/2 348/5/2
f 345/5/2 346/5/2 350/5/2
f 346/5/2 342/5/2 351/5/2
f 350/5/2 346/5/2 351/5/2
f 349/5/2 350/5/2 352/5/2
f 352/5/2 350/5/2 353/5/2
f 354/1/2 355/1/2 358/1/2
f 358/1/2 355/1/2 359/1/2
f 356/2/2 357/2/2 362/2/2
f 362/2/2 357/2/2 363/2/2
f 360/1/2 361/1/2 364/1/2
f 364/1/2 361/1/2 365/1/2
f 366/1/2 367/1/2 370/1/2
f 370/1/2 367/1/2 371/1/2
f 368/2/2 369/2/2 372/2/2
f 372/2/2 369/2/2 373/2/2
f 374/1/2 375/1/2 376/1/2
f 374/1/2 376/1/2 377/1/2
f 377/1/2 376/1/2 378/1/2
f 379/5/2 380/5/2 381/5/2
f 381/5/2 380/5/2 382/5/2
f 383/5/2 384/5/2 385/5/2
f 383/5/2 385/5/2 388/5/2
f 385/5/2 386/5/2 388/5/2
f 388/5/2 386/5/2 389/5/2
f 389/5/2 386/5/2 390/5/2
f 387/5/2 388/5/2 391/5/2
f 388/5/2 389/5/2 391/5/2
f 391/5/2 389/5/2 392/5/2
f 393/1/2 394/1/2 395/1/2
f 395/1/2 394/1/2 396/1/2
f 397/1/2 398/1/2 401/1/2
f 399/1/2 400/1/2 402/1/2
f 397/1/2 401/1/2 403/1/2
f 401/1/2 402/1/2 403/1/2
f 403/1/2 402/1/2 404/1/2
f 404/1/2 402/1/2 405/1/2
f 402/1/2 400/1/2 406/1/2
f 405/1/2 402/1/2 406/1/2
f 406/1/2 400/1/2 407/1/2
f 397/1/2 403/1/2 409/1/2
f 409/1/2 403/1/2 410/1/2
f 404/1/2 405/1/2 411/1/2
f 411/1/2 405/1/2 412/1/2
f 407/1/2 408/1/2 413/1/2
f 406/1/2 407/1/2 413/1/2
f 413/1/2 408/1/2 414/1/2
f 415/1/2 416/1/2 417/1/2
f 417/1/2 416/1/2 418/1/2
f 414/1/2 408/1/2 419/1/2
f 419/1/2 408/1/2 420/1/2
f 420/1/2 408/1/2 421/1/2
f 422/5/2 423/5/2 424/5/2
f 424/5/2 423/5/2 425/5/2
f 425/5/2 423/5/2 426/5/2
f 426/5/2 423/5/2 427/5/2
f 428/5/2 429/5/2 430/5/2
f 430/5/2 429/5/2 431/5/2
f 432/2/2 433/2/2 436/2/2
f 436/2/2 433/2/2 437/2/2
f 434/2/2 435/2/2 438/2/2
f 438/2/2 435/2/2 439/2/2
f 436/1/2 437/1/2 440/1/2
f 438/1/2 439/1/2 443/1/2
f 440/1/2 441/1/2 444/1/2
f 442/1/2 443/1/2 445/1/2
f 440/1/2 444/1/2 446/1/2
f 444/1/2 445/1/2 446/1/2
f 436/1/2 440/1/2 446/1/2
f 446/1/2 445/1/2 447/1/2
f 445/1/2 443/1/2 448/1/2
f 447/1/2 445/1/2 448/1/2
f 443/1/2 439/1/2 449/1/2
f 448/1/2 443/1/2 449/1/2
f 447/1/2 448/1/2 450/1/2
f 450/1/2 448/1/2 451/1/2
f 452/5/2 453/5/2 457/5/2
f 457/5/2 453/5/2 458/5/2
f 454/5/2 455/5/2 459/5/2
f 459/5/2 455/5/2 460/5/2
f 456/6/2 457/6/2 462/6/2
f 462/6/2 457/6/2 463/6/2
f 461/1/2 462/1/2 464/1/2
f 462/1/2 463/1/2 464/1/2
f 464/1/2 463/1/2 465/1/2
f 465/1/2 463/1/2 466/1/2
f 465/1/2 466/1/2 468/1/2
f 466/1/2 467/1/2 468/1/2
f 468/1/2 467/1/2 469/1/2
f 469/1/2 467/1/2 470/1/2
f 468/5/2 469/5/2 471/5/2
f 468/5/2 471/5/2 474/5/2
f 471/5/2 472/5/2 474/5/2
f 474/5/2 472/5/2 475/5/2
f 473/5/2 474/5/2 475/5/2
f 475/5/2 472/5/2 476/5/2
f 473/5/2 475/5/2 477/5/2
f 477/5/2 475/5/2 478/5/2
f 473/5/2 477/5/2 481/5/2
f 481/5/2 477/5/2 482/5/2
f 479/5/2 480/5/2 483/5/2
f 483/5/2 480/5/2 484/5/2
f 485/2/2 486/2/2 487/2/2
f 487/2/2 486/2/2 488/2/2
f 487/1/2 488/1/2 489/1/2
f 489/1/2 488/1/2 490/1/2
f 490/1/2 488/1/2 491/1/2
f 491/1/2 488/1/2 492/1/2
f 490/1/2 491/1/2 493/1/2
f 493/1/2 491/1/2 494/1/2
f 495/6/2 496/6/2 499/6/2
f 499/6/2 496/6/2 500/6/2
f 497/5/2 498/5/2 501/5/2
f 501/5/2 498/5/2 502/5/2
f 503/5/2 504/5/2 505/5/2
f 505/5/2 504/5/2 506/5/2
f 509/1/3 508/1/3 507/1/3
f 510/1/3 508/1/3 509/1/3
f 514/2/3 512/2/3 511/2/3
f 515/2/3 512/2/3 514/2/3
f 516/2/3 514/2/3 513/2/3
f 517/2/3 514/2/3 516/2/3
f 519/2/3 518/2/3 517/2/3
f 520/2/3 518/2/3 519/2/3
f 527/5/3 522/5/3 521/5/3
f 528/5/3 522/5/3 527/5/3
f 531/1/3 527/1/3 526/1/3
f 532/5/3 529/5/3 528/5/3
f 532/5/3 528/5/3 527/5/3
f 532/1/3 527/1/3 531/1/3
f 533/5/3 529/5/3 532/5/3
f 534/2/3 524/2/3 523/2/3
f 535/1/3 525/1/3 524/1/3
f 535/2/3 524/2/3 534/2/3
f 536/1/3 525/1/3 535/1/3
f 537/1/3 525/1/3 536/1/3
f 541/1/3 531/1/3 530/1/3
f 541/1/3 532/1/3 531/1/3
f 542/1/3 532/1/3 541/1/3
f 543/6/3 533/6/3 532/6/3
f 543/1/3 532/1/3 542/1/3
f 544/6/3 533/6/3 543/6/3
f 545/1/3 535/1/3 534/1/3
f 545/1/3 536/1/3 535/1/3
f 546/1/3 536/1/3 545/1/3
f 547/1/3 525/1/3 537/1/3
f 548/1/3 525/1/3 547/1/3
f 549/2/3 539/2/3 538/2/3
f 550/2/3 539/2/3 549/2/3
f 551/1/3 542/1/3 541/1/3
f 551/1/3 541/1/3 540/1/3
f 552/6/3 543/6/3 542/6/3
f 552/1/3 542/1/3 551/1/3
f 553/6/3 533/6/3 544/6/3
f 553/4/3 544/4/3 543/4/3
f 554/6/3 533/6/3 553/6/3
f 555/1/3 545/1/3 534/1/3
f 556/1/3 548/1/3 547/1/3
f 556/1/3 547/1/3 546/1/3
f 557/1/3 548/1/3 556/1/3
f 558/2/3 549/2/3 548/2/3
f 558/1/3 548/1/3 557/1/3
f 559/2/3 549/2/3 558/2/3
f 562/6/3 543/6/3 552/6/3
f 563/4/3 554/4/3 553/4/3
f 563/4/3 553/4/3 543/4/3
f 564/6/3 533/6/3 554/6/3
f 564/4/3 554/4/3 563/4/3
f 565/1/3 555/1/3 534/1/3
f 565/1/3 556/1/3 555/1/3
f 566/1/3 556/1/3 565/1/3
f 567/1/3 556/1/3 566/1/3
f 568/1/3 558/1/3 557/1/3
f 569/2/3 560/2/3 559/2/3
f 570/2/3 560/2/3 569/2/3
f 571/1/3 562/1/3 561/1/3
f 572/1/3 562/1/3 571/1/3
f 573/6/3 543/6/3 562/6/3
f 573/1/3 562/1/3 572/1/3
f 574/4/3 563/4/3 543/4/3
f 574/6/3 543/6/3 573/6/3
f 575/6/3 564/6/3 563/6/3
f 575/4/3 563/4/3 574/4/3
f 576/1/3 573/1/3 572/1/3
f 576/1/3 574/1/3 573/1/3
f 577/1/3 574/1/3 576/1/3
f 578/6/3 575/6/3 574/6/3
f 578/1/3 574/1/3 577/1/3
f 579/6/3 533/6/3 564/6/3
f 579/6/3 575/6/3 578/6/3
f 579/6/3 564/6/3 575/6/3
f 580/2/3 566/2/3 565/2/3
f 581/1/3 568/1/3 567/1/3
f 581/2/3 566/2/3 580/2/3
f 581/1/3 567/1/3 566/1/3
f 582/1/3 558/1/3 568/1/3
f 582/1/3 568/1/3 581/1/3
f 583/1/3 578/1/3 577/1/3
f 584/5/3 579/5/3 578/5/3
f 584/1/3 578/1/3 583/1/3
f 585/5/3 579/5/3 584/5/3
f 586/5/3 579/5/3 585/5/3
f 587/5/3 585/5/3 584/5/3
f 588/5/3 585/5/3 587/5/3
f 594/2/3 590/2/3 589/2/3
f 595/1/3 591/1/3 590/1/3
f 595/2/3 590/2/3 594/2/3
f 596/1/3 591/1/3 595/1/3
f 599/5/3 593/5/3 592/5/3
f 600/5/3 593/5/3 599/5/3
f 602/6/3 598/6/3 597/6/3
f 603/6/3 598/6/3 602/6/3
f 604/6/3 598/6/3 603/6/3
f 605/1/3 602/1/3 601/1/3
f 606/1/3 602/1/3 605/1/3
f 607/1/3 602/1/3 606/1/3
f 608/6/3 603/6/3 602/6/3
f 608/1/3 602/1/3 607/1/3
f 609/6/3 603/6/3 608/6/3
f 610/1/3 605/1/3 601/1/3
f 611/1/3 605/1/3 610/1/3
f 612/1/3 607/1/3 606/1/3
f 613/1/3 607/1/3 612/1/3
f 616/1/3 612/1/3 611/1/3
f 616/1/3 613/1/3 612/1/3
f 617/3/3 614/3/3 613/3/3
f 617/1/3 613/1/3 616/1/3
f 618/6/3 615/6/3 614/6/3
f 618/3/3 614/3/3 617/3/3
f 619/6/3 617/6/3 616/6/3
f 619/1/3 616/1/3 611/1/3
f 619/6/3 618/6/3 617/6/3
f 620/6/3 618/6/3 619/6/3
f 621/6/3 615/6/3 618/6/3
f 621/6/3 618/6/3 620/6/3
f 623/1/3 620/1/3 619/1/3
f 623/1/3 619/1/3 611/1/3
f 624/1/3 620/1/3 623/1/3
f 625/3/3 621/3/3 620/3/3
f 625/1/3 620/1/3 624/1/3
f 626/6/3 615/6/3 621/6/3
f 626/3/3 621/3/3 625/3/3
f 627/6/3 615/6/3 626/6/3
f 628/1/3 623/1/3 622/1/3
f 629/1/3 625/1/3 624/1/3
f 630/1/3 625/1/3 629/1/3
f 633/1/3 628/1/3 622/1/3
f 633/1/3 629/1/3 628/1/3
f 633/1/3 631/1/3 630/1/3
f 633/1/3 630/1/3 629/1/3
f 634/6/3 632/6/3 631/6/3
f 634/1/3 631/1/3 633/1/3
f 635/6/3 632/6/3 634/6/3
f 640/6/3 636/6/3 635/6/3
f 640/6/3 635/6/3 634/6/3
f 641/6/3 636/6/3 640/6/3
f 644/2/3 638/2/3 637/2/3
f 645/1/3 639/1/3 638/1/3
f 645/2/3 638/2/3 644/2/3
f 646/1/3 639/1/3 645/1/3
f 647/5/3 643/5/3 642/5/3
f 648/5/3 643/5/3 647/5/3
f 653/1/3 650/1/3 649/1/3
f 654/1/3 650/1/3 653/1/3
f 658/6/3 652/6/3 651/6/3
f 659/6/3 652/6/3 658/6/3
f 660/6/3 652/6/3 659/6/3
f 661/1/3 656/1/3 655/1/3
f 662/1/3 656/1/3 661/1/3
f 663/5/3 658/5/3 657/5/3
f 664/5/3 658/5/3 663/5/3
f 667/5/3 666/5/3 665/5/3
f 668/5/3 666/5/3 667/5/3
f 675/1/3 670/1/3 669/1/3
f 676/1/3 670/1/3 675/1/3
f 677/5/3 672/5/3 671/5/3
f 678/5/3 672/5/3 677/5/3
f 681/1/3 674/1/3 673/1/3
f 682/1/3 674/1/3 681/1/3
f 683/6/3 680/6/3 679/6/3
f 683/6/3 679/6/3 678/6/3
f 684/6/3 680/6/3 683/6/3
f 687/5/3 686/5/3 685/5/3
f 688/5/3 686/5/3 687/5/3
f 691/5/3 690/5/3 689/5/3
f 692/5/3 690/5/3 691/5/3
f 695/5/3 694/5/3 693/5/3
f 696/5/3 694/5/3 695/5/3
f 699/5/3 698/5/3 697/5/3
f 700/5/3 698/5/3 699/5/3
f 703/5/3 702/5/3 701/5/3
f 704/5/3 702/5/3 703/5/3
f 707/5/3 706/5/3 705/5/3
f 708/5/3 706/5/3 707/5/3
f 711/5/3 710/5/3 709/5/3
f 712/5/3 710/5/3 711/5/3
f 715/5/3 714/5/3 713/5/3
f 716/5/3 714/5/3 715/5/3
f 719/5/3 718/5/3 717/5/3
f 720/5/3 718/5/3 719/5/3
f 723/5/3 722/5/3 721/5/3
f 724/5/3 722/5/3 723/5/3
f 725/1/4 726/1/4 727/1/4
f 727/1/4 726/1/4 728/1/4
f 729/5/4 730/5/4 731/5/4
f 731/5/4 730/5/4 732/5/4
f 732/5/4 730/5/4 733/5/4
f 734/5/4 735/5/4 737/5/4
f 735/5/4 736/5/4 737/5/4
f 737/5/4 736/5/4 738/5/4
f 739/5/4 740/5/4 741/5/4
f 741/5/4 740/5/4 742/5/4
f 743/5/4 744/5/4 745/5/4
f 745/5/4 744/5/4 746/5/4
f 747/5/4 748/5/4 749/5/4
f 749/5/4 748/5/4 750/5/4
f 751/5/4 752/5/4 753/5/4
f 753/5/4 752/5/4 754/5/4
f 755/5/4 756/5/4 759/5/4
f 759/5/4 756/5/4 760/5/4
f 757/5/4 758/5/4 761/5/4
f 761/5/4 758/5/4 762/5/4
f 763/5/4 764/5/4 765/5/4
f 765/5/4 764/5/4 766/5/4
f 767/5/4 768/5/4 769/5/4
f 769/5/4 768/5/4 770/5/4
f 771/5/4 772/5/4 773/5/4
f 773/5/4 772/5/4 774/5/4
f 775/5/4 776/5/4 777/5/4
f 777/5/4 776/5/4 778/5/4
f 779/1/4 780/1/4 781/1/4
f 781/1/4 780/1/4 782/1/4
f 783/1/4 784/1/4 791/1/4
f 791/1/4 784/1/4 792/1/4
f 785/5/4 786/5/4 793/5/4
f 793/5/4 786/5/4 794/5/4
f 787/5/4 788/5/4 795/5/4
f 795/5/4 788/5/4 796/5/4
f 796/5/4 788/5/4 797/5/4
f 789/5/4 790/5/4 798/5/4
f 796/5/4 797/5/4 799/5/4
f 797/5/4 798/5/4 799/5/4
f 799/5/4 798/5/4 800/5/4
f 798/5/4 790/5/4 801/5/4
f 800/5/4 798/5/4 801/5/4
f 801/5/4 790/5/4 802/5/4
f 800/5/4 801/5/4 803/5/4
f 803/5/4 801/5/4 804/5/4
f 805/5/4 806/5/4 808/5/4
f 808/5/4 806/5/4 809/5/4
f 808/5/4 809/5/4 816/5/4
f 807/5/4 808/5/4 816/5/4
f 809/5/4 810/5/4 816/5/4
f 816/5/4 810/5/4 817/5/4
f 817/5/4 810/5/4 818/5/4
f 811/1/4 812/1/4 821/1/4
f 821/1/4 812/1/4 822/1/4
f 813/5/4 814/5/4 823/5/4
f 823/5/4 814/5/4 824/5/4
f 815/5/4 816/5/4 825/5/4
f 816/5/4 817/5/4 825/5/4
f 825/5/4 817/5/4 826/5/4
f 818/5/4 810/5/4 827/5/4
f 827/5/4 810/5/4 828/5/4
f 819/1/4 820/1/4 829/1/4
f 829/1/4 820/1/4 830/1/4
f 831/2/4 832/2/4 836/2/4
f 832/1/4 833/1/4 837/1/4
f 836/2/4 832/2/4 837/2/4
f 837/1/4 833/1/4 838/1/4
f 834/6/4 835/6/4 839/6/4
f 839/6/4 835/6/4 840/6/4
f 834/6/4 839/6/4 844/6/4
f 840/1/4 841/1/4 845/1/4
f 844/6/4 839/6/4 845/6/4
f 839/1/4 840/1/4 845/1/4
f 845/1/4 841/1/4 846/1/4
f 846/1/4 841/1/4 847/1/4
f 842/1/4 843/1/4 849/1/4
f 849/1/4 843/1/4 850/1/4
f 847/5/4 848/5/4 851/5/4
f 850/1/4 843/1/4 857/1/4
f 857/1/4 843/1/4 858/1/4
f 858/1/4 843/1/4 859/1/4
f 846/1/4 847/1/4 861/1/4
f 847/5/4 851/5/4 862/5/4
f 861/1/4 847/1/4 862/1/4
f 851/5/4 852/5/4 862/5/4
f 862/5/4 852/5/4 863/5/4
f 863/5/4 852/5/4 864/5/4
f 853/5/4 854/5/4 865/5/4
f 865/5/4 854/5/4 866/5/4
f 855/5/4 856/5/4 867/5/4
f 867/5/4 856/5/4 868/5/4
f 863/5/4 864/5/4 870/5/4
f 870/5/4 864/5/4 871/5/4
f 871/5/4 864/5/4 872/5/4
f 868/5/4 869/5/4 874/5/4
f 874/5/4 869/5/4 875/5/4
f 872/5/4 873/5/4 877/5/4
f 871/5/4 872/5/4 877/5/4
f 877/5/4 873/5/4 878/5/4
f 878/5/4 873/5/4 879/5/4
f 858/1/4 859/1/4 883/1/4
f 859/6/4 860/6/4 884/6/4
f 883/1/4 859/1/4 884/1/4
f 884/6/4 860/6/4 885/6/4
f 876/5/4 877/5/4 888/5/4
f 877/5/4 878/5/4 888/5/4
f 888/5/4 878/5/4 889/5/4
f 880/5/4 881/5/4 893/5/4
f 893/5/4 881/5/4 894/5/4
f 882/1/4 883/1/4 896/1/4
f 883/1/4 884/1/4 896/1/4
f 887/5/4 888/5/4 897/5/4
f 888/5/4 889/5/4 897/5/4
f 897/5/4 889/5/4 898/5/4
f 890/5/4 891/5/4 899/5/4
f 899/5/4 891/5/4 900/5/4
f 892/5/4 893/5/4 901/5/4
f 901/5/4 893/5/4 902/5/4
f 895/1/4 896/1/4 903/1/4
f 896/1/4 884/1/4 904/1/4
f 903/1/4 896/1/4 904/1/4
f 886/1/4 887/1/4 907/1/4
f 887/5/4 897/5/4 908/5/4
f 907/1/4 887/1/4 908/1/4
f 908/5/4 897/5/4 909/5/4
f 905/6/4 906/6/4 913/6/4
f 906/1/4 907/1/4 913/1/4
f 907/1/4 908/1/4 913/1/4
f 913/1/4 908/1/4 914/1/4
f 914/1/4 908/1/4 915/1/4
f 910/2/4 911/2/4 916/2/4
f 911/1/4 912/1/4 917/1/4
f 916/2/4 911/2/4 917/2/4
f 917/1/4 912/1/4 918/1/4
f 905/6/4 913/6/4 919/6/4
f 913/6/4 914/6/4 919/6/4
f 919/6/4 914/6/4 920/6/4
f 922/1/4 923/1/4 924/1/4
f 924/1/4 923/1/4 925/1/4
f 921/2/4 922/2/4 928/2/4
f 922/1/4 924/1/4 929/1/4
f 928/2/4 922/2/4 929/2/4
f 929/1/4 924/1/4 930/1/4
f 925/1/4 923/1/4 931/1/4
f 931/1/4 923/1/4 932/1/4
f 932/1/4 923/1/4 933/1/4
f 933/1/4 934/1/4 937/1/4
f 932/1/4 933/1/4 937/1/4
f 937/1/4 934/1/4 938/1/4
f 938/1/4 934/1/4 939/1/4
f 926/1/4 927/1/4 941/1/4
f 941/1/4 927/1/4 942/1/4
f 942/1/4 927/1/4 943/1/4
f 943/1/4 927/1/4 944/1/4
f 935/5/4 936/5/4 947/5/4
f 947/5/4 936/5/4 948/5/4
f 939/1/4 940/1/4 949/1/4
f 938/1/4 939/1/4 949/1/4
f 949/1/4 940/1/4 950/1/4
f 944/5/4 945/5/4 951/5/4
f 943/5/4 944/5/4 951/5/4
f 951/5/4 945/5/4 952/5/4
f 952/5/4 945/5/4 953/5/4
f 946/5/4 947/5/4 955/5/4
f 955/5/4 947/5/4 956/5/4
f 956/5/4 947/5/4 957/5/4
f 950/1/4 940/1/4 961/1/4
f 952/5/4 953/5/4 963/5/4
f 953/5/4 954/5/4 963/5/4
f 963/5/4 954/5/4 964/5/4
f 964/5/4 954/5/4 965/5/4
f 958/5/4 959/5/4 969/5/4
f 969/5/4 959/5/4 970/5/4
f 960/1/4 961/1/4 972/1/4
f 961/1/4 940/1/4 973/1/4
f 972/1/4 961/1/4 973/1/4
f 973/1/4 940/1/4 974/1/4
f 962/5/4 963/5/4 977/5/4
f 963/5/4 964/5/4 977/5/4
f 977/5/4 964/5/4 978/5/4
f 978/5/4 964/5/4 979/5/4
f 967/5/4 968/5/4 980/5/4
f 966/5/4 967/5/4 980/5/4
f 980/5/4 968/5/4 981/5/4
f 928/1/4 929/1/4 983/1/4
f 983/1/4 929/1/4 984/1/4
f 971/1/4 972/1/4 987/1/4
f 972/1/4 973/1/4 987/1/4
f 987/1/4 973/1/4 988/1/4
f 988/1/4 973/1/4 989/1/4
f 981/5/4 982/5/4 990/5/4
f 990/5/4 982/5/4 991/5/4
f 984/1/4 985/1/4 992/1/4
f 986/1/4 987/1/4 993/1/4
f 987/1/4 988/1/4 993/1/4
f 975/1/4 976/1/4 994/1/4
f 976/1/4 977/1/4 994/1/4
f 977/1/4 978/1/4 994/1/4
f 994/1/4 978/1/4 995/1/4
f 983/2/4 984/2/4 996/2/4
f 992/1/4 993/1/4 997/1/4
f 996/2/4 984/2/4 997/2/4
f 984/1/4 992/1/4 997/1/4
f 993/1/4 988/1/4 998/1/4
f 997/1/4 993/1/4 998/1/4
f 999/1/4 1000/1/4 1002/1/4
f 1002/1/4 1000/1/4 1003/1/4
f 1001/1/4 1002/1/4 1005/1/4
f 1003/1/4 1004/1/4 1005/1/4
f 1002/1/4 1003/1/4 1005/1/4
f 1005/1/4 1006/1/4 1011/1/4
f 1007/5/4 1008/5/4 1013/5/4
f 1009/5/4 1010/5/4 1016/5/4
f 1011/1/4 1012/1/4 1017/1/4
f 1005/1/4 1011/1/4 1017/1/4
f 1017/1/4 1012/1/4 1018/1/4
f 1013/5/4 1014/5/4 1019/5/4
f 1007/5/4 1013/5/4 1019/5/4
f 1019/5/4 1014/5/4 1020/5/4
f 1015/5/4 1016/5/4 1021/5/4
f 1016/5/4 1010/5/4 1022/5/4
f 1021/5/4 1016/5/4 1022/5/4
f 1001/1/4 1005/1/4 1023/1/4
f 1005/1/4 1017/1/4 1023/1/4
f 1023/1/4 1017/1/4 1024/1/4
f 1007/5/4 1019/5/4 1025/5/4
f 1025/5/4 1019/5/4 1026/5/4
f 1022/5/4 1010/5/4 1027/5/4
f 1027/5/4 1010/5/4 1028/5/4
f 1001/1/4 1023/1/4 1029/1/4
f 1029/1/4 1023/1/4 1030/1/4
f 1030/1/4 1023/1/4 1031/1/4
f 1031/1/4 1023/1/4 1032/1/4
f 1030/1/4 1031/1/4 1033/1/4
f 1033/1/4 1031/1/4 1034/1/4
f 1040/2/5 1036/2/5 1035/2/5
f 1041/2/5 1038/2/5 1037/2/5
f 1043/2/5 1040/2/5 1039/2/5
f 1043/2/5 1036/2/5 1040/2/5
f 1044/1/5 1037/1/5 1036/1/5
f 1044/2/5 1036/2/5 1043/2/5
f 1045/2/5 1042/2/5 1041/2/5
f 1045/1/5 1037/1/5 1044/1/5
f 1045/2/5 1041/2/5 1037/2/5
f 1046/2/5 1042/2/5 1045/2/5
f 1047/1/5 1044/1/5 1043/1/5
f 1047/2/5 1043/2/5 1039/2/5
f 1047/1/5 1046/1/5 1045/1/5
f 1047/1/5 1045/1/5 1044/1/5
f 1048/1/5 1046/1/5 1047/1/5
f 1049/1/5 1046/1/5 1048/1/5
f 1050/2/5 1042/2/5 1046/2/5
f 1050/1/5 1046/1/5 1049/1/5
f 1051/2/5 1047/2/5 1039/2/5
f 1051/2/5 1048/2/5 1047/2/5
f 1052/2/5 1048/2/5 1051/2/5
f 1053/2/5 1042/2/5 1050/2/5
f 1053/2/5 1050/2/5 1049/2/5
f 1054/2/5 1042/2/5 1053/2/5
f 1055/2/5 1048/2/5 1052/2/5
f 1056/1/5 1049/1/5 1048/1/5
f 1056/2/5 1048/2/5 1055/2/5
f 1057/2/5 1053/2/5 1049/2/5
f 1057/1/5 1049/1/5 1056/1/5
f 1058/2/5 1053/2/5 1057/2/5
f 1061/2/5 1060/2/5 1059/2/5
f 1062/2/5 1060/2/5 1061/2/5
f 1065/1/5 1064/1/5 1063/1/5
f 1066/1/5 1064/1/5 1065/1/5
f 1070/1/5 1068/1/5 1067/1/5
f 1071/1/5 1068/1/5 1070/1/5
f 1073/2/5 1070/2/5 1069/2/5
f 1074/2/5 1070/2/5 1073/2/5
f 1075/2/5 1072/2/5 1071/2/5
f 1076/2/5 1072/2/5 1075/2/5
f 1081/1/5 1078/1/5 1077/1/5
f 1082/1/5 1078/1/5 1081/1/5
f 1083/1/5 1080/1/5 1079/1/5
f 1084/1/5 1080/1/5 1083/1/5
f 1089/2/5 1086/2/5 1085/2/5
f 1090/2/5 1086/2/5 1089/2/5
f 1091/2/5 1088/2/5 1087/2/5
f 1092/2/5 1088/2/5 1091/2/5
f 1097/1/5 1094/1/5 1093/1/5
f 1098/1/5 1094/1/5 1097/1/5
f 1099/1/5 1096/1/5 1095/1/5
f 1100/1/5 1096/1/5 1099/1/5
f 1105/5/5 1102/5/5 1101/5/5
f 1106/5/5 1102/5/5 1105/5/5
f 1107/5/5 1104/5/5 1103/5/5
f 1108/5/5 1104/5/5 1107/5/5
f 1113/5/5 1110/5/5 1109/5/5
f 1114/5/5 1110/5/5 1113/5/5
f 1115/5/5 1112/5/5 1111/5/5
f 1116/5/5 1112/5/5 1115/5/5
f 1121/1/5 1118/1/5 1117/1/5
f 1122/1/5 1118/1/5 1121/1/5
f 1123/1/5 1120/1/5 1119/1/5
f 1124/1/5 1120/1/5 1123/1/5
f 1130/6/5 1126/6/5 1125/6/5
f 1131/6/5 1126/6/5 1130/6/5
f 1132/6/5 1128/6/5 1127/6/5
f 1133/6/5 1128/6/5 1132/6/5
f 1135/6/5 1130/6/5 1129/6/5
f 1138/6/5 1134/6/5 1133/6/5
f 1139/4/5 1136/4/5 1135/4/5
f 1139/6/5 1135/6/5 1129/6/5
f 1140/4/5 1136/4/5 1139/4/5
f 1141/4/5 1138/4/5 1137/4/5
f 1142/6/5 1134/6/5 1138/6/5
f 1142/4/5 1138/4/5 1141/4/5
f 1143/6/5 1139/6/5 1129/6/5
f 1146/6/5 1134/6/5 1142/6/5
f 1147/6/5 1144/6/5 1143/6/5
f 1147/6/5 1143/6/5 1129/6/5
f 1148/6/5 1144/6/5 1147/6/5
f 1149/6/5 1146/6/5 1145/6/5
f 1150/6/5 1134/6/5 1146/6/5
f 1150/6/5 1146/6/5 1149/6/5
f 1153/5/5 1152/5/5 1151/5/5
f 1154/5/5 1152/5/5 1153/5/5
f 1159/1/5 1156/1/5 1155/1/5
f 1160/1/5 1156/1/5 1159/1/5
f 1161/1/5 1158/1/5 1157/1/5
f 1162/1/5 1158/1/5 1161/1/5
f 1165/5/5 1164/5/5 1163/5/5
f 1166/5/5 1164/5/5 1165/5/5
f 1173/1/5 1168/1/5 1167/1/5
f 1174/1/5 1168/1/5 1173/1/5
f 1175/6/5 1170/6/5 1169/6/5
f 1176/6/5 1170/6/5 1175/6/5
f 1177/1/5 1172/1/5 1171/1/5
f 1178/1/5 1172/1/5 1177/1/5
f 1183/5/5 1180/5/5 1179/5/5
f 1184/5/5 1180/5/5 1183/5/5
f 1185/5/5 1182/5/5 1181/5/5
f 1186/5/5 1182/5/5 1185/5/5
f 1191/5/5 1188/5/5 1187/5/5
f 1192/5/5 1188/5/5 1191/5/5
f 1193/5/5 1190/5/5 1189/5/5
f 1194/5/5 1190/5/5 1193/5/5
f 1199/5/5 1196/5/5 1195/5/5
f 1200/5/5 1196/5/5 1199/5/5
f 1201/5/5 1198/5/5 1197/5/5
f 1202/5/5 1198/5/5 1201/5/5
f 1207/5/5 1204/5/5 1203/5/5
f 1208/5/5 1204/5/5 1207/5/5
f 1209/5/5 1206/5/5 1205/5/5
f 1210/5/5 1206/5/5 1209/5/5
f 1215/5/5 1212/5/5 1211/5/5
f 1218/5/5 1214/5/5 1213/5/5
f 1219/5/5 1216/5/5 1215/5/5
f 1219/5/5 1215/5/5 1211/5/5
f 1220/5/5 1216/5/5 1219/5/5
f 1221/5/5 1218/5/5 1217/5/5
f 1221/5/5 1214/5/5 1218/5/5
f 1222/5/5 1214/5/5 1221/5/5
f 1223/5/5 1216/5/5 1220/5/5
f 1224/5/5 1216/5/5 1223/5/5
f 1229/5/5 1221/5/5 1217/5/5
f 1230/5/5 1221/5/5 1229/5/5
f 1231/5/5 1226/5/5 1225/5/5
f 1232/5/5 1226/5/5 1231/5/5
f 1235/5/5 1228/5/5 1227/5/5
f 1236/5/5 1228/5/5 1235/5/5
f 1237/5/5 1234/5/5 1233/5/5
f 1238/5/5 1234/5/5 1237/5/5
f 1239/5/5 1238/5/5 1237/5/5
f 1240/5/5 1238/5/5 1239/5/5
f 1245/5/5 1242/5/5 1241/5/5
f 1246/5/5 1242/5/5 1245/5/5
f 1249/5/5 1244/5/5 1243/5/5
f 1250/5/5 1244/5/5 1249/5/5
f 1251/5/5 1247/5/5 1246/5/5
f 1252/5/5 1247/5/5 1251/5/5
f 1253/5/5 1249/5/5 1248/5/5
f 1254/5/5 1249/5/5 1253/5/5
f 1255/2/6 1256/2/6 1257/2/6
f 1257/2/6 1256/2/6 1258/2/6
f 1259/1/6 1260/1/6 1263/1/6
f 1263/1/6 1260/1/6 1264/1/6
f 1261/1/6 1262/1/6 1265/1/6
f 1265/1/6 1262/1/6 1266/1/6
f 1267/1/6 1268/1/6 1271/1/6
f 1271/1/6 1268/1/6 1272/1/6
f 1269/1/6 1270/1/6 1273/1/6
f 1273/1/6 1270/1/6 1274/1/6
f 1275/1/6 1276/1/6 1279/1/6
f 1279/1/6 1276/1/6 1280/1/6
f 1277/1/6 1278/1/6 1281/1/6
f 1281/1/6 1278/1/6 1282/1/6
f 1283/1/6 1284/1/6 1287/1/6
f 1287/1/6 1284/1/6 1288/1/6
f 1285/1/6 1286/1/6 1289/1/6
f 1289/1/6 1286/1/6 1290/1/6
f 1291/1/6 1292/1/6 1294/1/6
f 1294/1/6 1292/1/6 1295/1/6
f 1293/2/6 1294/2/6 1297/2/6
f 1297/2/6 1294/2/6 1298/2/6
f 1295/2/6 1296/2/6 1299/2/6
f 1299/2/6 1296/2/6 1300/2/6
f 1301/1/6 1302/1/6 1305/1/6
f 1305/1/6 1302/1/6 1306/1/6
f 1303/1/6 1304/1/6 1307/1/6
f 1307/1/6 1304/1/6 1308/1/6
f 1309/1/6 1310/1/6 1313/1/6
f 1313/1/6 1310/1/6 1314/1/6
f 1311/1/6 1312/1/6 1315/1/6
f 1315/1/6 1312/1/6 1316/1/6
f 1309/1/6 1313/1/6 1317/1/6
f 1317/1/6 1313/1/6 1318/1/6
f 1316/1/6 1312/1/6 1319/1/6
f 1319/1/6 1312/1/6 1320/1/6
f 1321/1/6 1322/1/6 1325/1/6
f 1323/1/6 1324/1/6 1328/1/6
f 1325/1/6 1326/1/6 1329/1/6
f 1321/1/6 1325/1/6 1329/1/6
f 1329/1/6 1326/1/6 1330/1/6
f 1327/1/6 1328/1/6 1335/1/6
f 1328/1/6 1324/1/6 1336/1/6
f 1335/1/6 1328/1/6 1336/1/6
f 1331/1/6 1332/1/6 1337/1/6
f 1337/1/6 1332/1/6 1338/1/6
f 1333/1/6 1334/1/6 1339/1/6
f 1339/1/6 1334/1/6 1340/1/6
f 1341/2/6 1342/2/6 1343/2/6
f 1343/2/6 1342/2/6 1344/2/6
f 1345/1/6 1346/1/6 1349/1/6
f 1349/1/6 1346/1/6 1350/1/6
f 1347/1/6 1348/1/6 1351/1/6
f 1351/1/6 1348/1/6 1352/1/6
f 1353/1/6 1354/1/6 1357/1/6
f 1357/1/6 1354/1/6 1358/1/6
f 1355/1/6 1356/1/6 1361/1/6
f 1361/1/6 1356/1/6 1362/1/6
f 1359/1/6 1360/1/6 1363/1/6
f 1363/1/6 1360/1/6 1364/1/6
f 1365/2/6 1366/2/6 1369/2/6
f 1369/2/6 1366/2/6 1370/2/6
f 1367/2/6 1368/2/6 1371/2/6
f 1371/2/6 1368/2/6 1372/2/6
f 1373/1/6 1374/1/6 1375/1/6
f 1375/1/6 1374/1/6 1376/1/6
f 1377/5/6 1378/5/6 1381/5/6
f 1381/5/6 1378/5/6 1382/5/6
f 1379/5/6 1380/5/6 1383/5/6
f 1383/5/6 1380/5/6 1384/5/6
f 1385/6/6 1386/6/6 1389/6/6
f 1389/6/6 1386/6/6 1390/6/6
f 1387/6/6 1388/6/6 1395/6/6
f 1395/6/6 1388/6/6 1396/6/6
f 1391/1/6 1392/1/6 1397/1/6
f 1397/1/6 1392/1/6 1398/1/6
f 1393/1/6 1394/1/6 1399/1/6
f 1399/1/6 1394/1/6 1400/1/6
f 1401/1/6 1402/1/6 1405/1/6
f 1405/1/6 1402/1/6 1406/1/6
f 1403/1/6 1404/1/6 1407/1/6
f 1407/1/6 1404/1/6 1408/1/6
f 1409/5/6 1410/5/6 1411/5/6
f 1411/5/6 1410/5/6 1412/5/6
f 1413/5/6 1414/5/6 1417/5/6
f 1417/5/6 1414/5/6 1418/5/6
f 1415/5/6 1416/5/6 1419/5/6
f 1419/5/6 1416/5/6 1420/5/6
f 1421/5/6 1422/5/6 1425/5/6
f 1425/5/6 1422/5/6 1426/5/6
f 1423/5/6 1424/5/6 1427/5/6
f 1427/5/6 1424/5/6 1428/5/6
f 1429/5/6 1430/5/6 1434/5/6
f 1434/5/6 1430/5/6 1435/5/6
f 1431/5/6 1432/5/6 1436/5/6
f 1436/5/6 1432/5/6 1437/5/6
f 1433/5/6 1434/5/6 1439/5/6
f 1439/5/6 1434/5/6 1440/5/6
f 1437/5/6 1438/5/6 1443/5/6
f 1443/5/6 1438/5/6 1444/5/6
f 1441/5/6 1442/5/6 1445/5/6
f 1445/5/6 1442/5/6 1446/5/6
f 1447/5/6 1448/5/6 1451/5/6
f 1451/5/6 1448/5/6 1452/5/6
f 1449/5/6 1450/5/6 1457/5/6
f 1457/5/6 1450/5/6 1458/5/6
f 1453/5/6 1454/5/6 1459/5/6
f 1459/5/6 1454/5/6 1460/5/6
f 1455/5/6 1456/5/6 1461/5/6
f 1461/5/6 1456/5/6 1462/5/6
f 1463/5/6 1464/5/6 1468/5/6
f 1465/5/6 1466/5/6 1469/5/6
f 1464/6/6 1465/6/6 1471/6/6
f 1471/6/6 1465/6/6 1472/6/6
f 1467/5/6 1468/5/6 1473/5/6
f 1468/5/6 1464/5/6 1473/5/6
f 1464/6/6 1471/6/6 1473/6/6
f 1473/6/6 1471/6/6 1474/6/6
f 1474/6/6 1471/6/6 1475/6/6
f 1472/6/6 1465/6/6 1476/6/6
f 1476/6/6 1465/6/6 1477/6/6
f 1469/5/6 1470/5/6 1478/5/6
f 1477/6/6 1465/6/6 1478/6/6
f 1465/5/6 1469/5/6 1478/5/6
f 1467/5/6 1473/5/6 1479/5/6
f 1473/5/6 1474/5/6 1479/5/6
f 1479/5/6 1474/5/6 1480/5/6
f 1478/5/6 1470/5/6 1481/5/6
f 1477/5/6 1478/5/6 1481/5/6
f 1481/5/6 1470/5/6 1482/5/6
f 1480/5/6 1474/5/6 1483/5/6
f 1483/5/6 1474/5/6 1484/5/6
f 1477/5/6 1481/5/6 1485/5/6
f 1485/5/6 1481/5/6 1486/5/6
f 1487/5/6 1488/5/6 1491/5/6
f 1491/5/6 1488/5/6 1492/5/6
f 1489/5/6 1490/5/6 1493/5/6
f 1493/5/6 1490/5/6 1494/5/6
f 1495/5/6 1496/5/6 1498/5/6
f 1498/5/6 1496/5/6 1499/5/6
f 1499/5/6 1496/5/6 1500/5/6
f 1500/5/6 1496/5/6 1501/5/6
f 1497/5/6 1498/5/6 1503/5/6
f 1498/5/6 1499/5/6 1503/5/6
f 1503/5/6 1499/5/6 1504/5/6
f 1501/5/6 1502/5/6 1505/5/6
f 1500/5/6 1501/5/6 1505/5/6
f 1505/5/6 1502/5/6 1506/5/6
f 1497/5/6 1503/5/6 1507/5/6
f 1507/5/6 1503/5/6 1508/5/6
f 1506/5/6 1502/5/6 1511/5/6
f 1511/5/6 1502/5/6 1512/5/6
f 1508/5/6 1509/5/6 1513/5/6
f 1510/5/6 1511/5/6 1514/5/6
f 1508/5/6 1513/5/6 1515/5/6
f 1513/5/6 1514/5/6 1515/5/6
f 1514/5/6 1511/5/6 1516/5/6
f 1515/5/6 1514/5/6 1516/5/6
f 1517/5/6 1518/5/6 1520/5/6
f 1520/5/6 1518/5/6 1521/5/6
f 1519/5/6 1520/5/6 1523/5/6
f 1521/5/6 1522/5/6 1523/5/6
f 1520/5/6 1521/5/6 1523/5/6
f 1523/5/6 1522/5/6 1524/5/6
f 1524/5/6 1522/5/6 1525/5/6
f 1525/5/6 1522/5/6 1526/5/6
f 1524/5/6 1525/5/6 1527/5/6
f 1527/5/6 1525/5/6 1528/5/6
