# MagicaVoxel @ Ephtracy

# group
o 

# material
mtllib Mechanic-2.mtl
usemtl palette

# normals
vn -1 0 0
vn 1 0 0
vn 0 0 1
vn 0 0 -1
vn 0 -1 0
vn 0 1 0

# texcoords
vt 0.720703 0.5
vt 0.908203 0.5
vt 0.966797 0.5
vt 0.970703 0.5
vt 0.978516 0.5

# verts
v -0.5 -0.6 0
v -0.5 -0.6 -0.2
v -0.5 -0.1 0
v -0.5 -0.1 -0.2
v -0.5 0.3 0
v -0.5 0.3 -0.2
v -0.5 0.5 0
v -0.5 0.5 -0.2
v -0.4 -0.1 0
v -0.4 -0.1 -0.2
v -0.4 0.3 0
v -0.4 0.3 -0.2
v -0.4 0.5 -0.1
v -0.4 0.5 -0.2
v -0.4 0.6 -0.1
v -0.4 0.6 -0.2
v -0.3 -0.2 0.1
v -0.3 -0.2 0
v -0.3 -5.96046e-08 0.1
v -0.3 -5.96046e-08 0
v -0.3 0.5 0
v -0.3 0.5 -0.1
v -0.3 0.6 0
v -0.3 0.6 -0.1
v -0.2 -0.3 0.1
v -0.2 -0.3 0
v -0.2 -0.3 -0.2
v -0.2 -0.2 0.1
v -0.2 -0.2 0
v -0.2 -0.2 -0.2
v -0.2 0.1 0.1
v -0.2 0.1 0
v -0.2 0.2 0.1
v -0.2 0.2 0
v -0.2 0.3 0.1
v -0.2 0.3 0
v 0 -0.2 0.2
v 0 -0.2 0.1
v 0 -0.1 0.1
v 0 -5.96046e-08 0.1
v 0 -5.96046e-08 0
v 0 0.1 0.2
v 0 0.1 0.1
v 0 0.1 0
v 0.1 0.2 0.1
v 0.1 0.2 0
v 0.1 0.3 0.1
v 0.1 0.3 0
v 0.3 -0.2 0.1
v 0.3 -0.2 0
v 0.3 -0.1 0.1
v 0.3 -0.1 0
v 0.4 -0.4 0
v 0.4 -0.4 -0.2
v 0.4 -0.2 0
v 0.4 -0.2 -0.2
v 0.5 -0.6 0
v 0.5 -0.6 -0.2
v 0.5 -0.4 0
v 0.5 -0.4 -0.2
v -0.4 -0.6 0
v -0.4 -0.6 -0.2
v -0.4 -0.4 0
v -0.4 -0.4 -0.2
v -0.3 -0.4 0
v -0.3 -0.4 -0.2
v -0.3 -0.2 0
v -0.3 -0.2 -0.2
v -0.2 -0.2 0.1
v -0.2 -0.2 0
v -0.2 -0.1 0.1
v -0.2 -0.1 0
v 0 0.2 0.1
v 0 0.2 0
v 0 0.3 0.1
v 0 0.3 0
v 0.1 -0.2 0.2
v 0.1 -0.2 0.1
v 0.1 -0.1 0.1
v 0.1 -5.96046e-08 0.1
v 0.1 -5.96046e-08 0
v 0.1 0.1 0.2
v 0.1 0.1 0.1
v 0.1 0.1 0
v 0.3 -0.3 0.1
v 0.3 -0.3 0
v 0.3 -0.3 -0.2
v 0.3 -0.2 0.1
v 0.3 -0.2 0
v 0.3 -0.2 -0.2
v 0.3 0.1 0.1
v 0.3 0.1 0
v 0.3 0.2 0.1
v 0.3 0.2 0
v 0.3 0.3 0.1
v 0.3 0.3 0
v 0.4 -0.2 0.1
v 0.4 -0.2 0
v 0.4 -5.96046e-08 0.1
v 0.4 -5.96046e-08 0
v 0.4 0.5 0
v 0.4 0.5 -0.1
v 0.4 0.6 0
v 0.4 0.6 -0.1
v 0.5 -0.1 0
v 0.5 -0.1 -0.2
v 0.5 0.3 0
v 0.5 0.3 -0.2
v 0.5 0.5 -0.1
v 0.5 0.5 -0.2
v 0.5 0.6 -0.1
v 0.5 0.6 -0.2
v 0.6 -0.6 0
v 0.6 -0.6 -0.2
v 0.6 -0.1 0
v 0.6 -0.1 -0.2
v 0.6 0.3 0
v 0.6 0.3 -0.2
v 0.6 0.5 0
v 0.6 0.5 -0.2
v 0 -0.2 0.2
v 0 0.1 0.2
v 0.1 -0.2 0.2
v 0.1 0.1 0.2
v -0.3 -0.2 0.1
v -0.3 -5.96046e-08 0.1
v -0.2 -0.3 0.1
v -0.2 -0.2 0.1
v -0.2 -0.1 0.1
v -0.2 0.1 0.1
v -0.2 0.2 0.1
v -0.2 0.3 0.1
v -0.1 0.1 0.1
v -0.1 0.2 0.1
v 0 -0.2 0.1
v 0 -0.1 0.1
v 0 -5.96046e-08 0.1
v 0 0.1 0.1
v 0 0.2 0.1
v 0 0.3 0.1
v 0.1 -0.2 0.1
v 0.1 -0.1 0.1
v 0.1 -5.96046e-08 0.1
v 0.1 0.1 0.1
v 0.1 0.2 0.1
v 0.1 0.3 0.1
v 0.2 0.1 0.1
v 0.2 0.2 0.1
v 0.3 -0.3 0.1
v 0.3 -0.2 0.1
v 0.3 -0.1 0.1
v 0.3 0.1 0.1
v 0.3 0.2 0.1
v 0.3 0.3 0.1
v 0.4 -0.2 0.1
v 0.4 -5.96046e-08 0.1
v -0.5 -0.6 0
v -0.5 -0.1 0
v -0.5 0.3 0
v -0.5 0.5 0
v -0.4 -0.6 0
v -0.4 -0.4 0
v -0.4 -0.1 0
v -0.4 0.3 0
v -0.3 -0.4 0
v -0.3 -0.2 0
v -0.3 -5.96046e-08 0
v -0.3 0.3 0
v -0.3 0.4 0
v -0.3 0.5 0
v -0.3 0.6 0
v -0.2 -0.2 0
v -0.2 -0.1 0
v -0.2 0.1 0
v -0.2 0.2 0
v -0.2 0.3 0
v -0.2 0.4 0
v -0.2 0.5 0
v -0.1 0.1 0
v -0.1 0.4 0
v -0.1 0.5 0
v 0 -5.96046e-08 0
v 0 0.1 0
v 0 0.2 0
v 0 0.3 0
v 0 0.4 0
v 0.1 -5.96046e-08 0
v 0.1 0.1 0
v 0.1 0.2 0
v 0.1 0.3 0
v 0.1 0.4 0
v 0.2 0.1 0
v 0.2 0.4 0
v 0.2 0.5 0
v 0.3 -0.2 0
v 0.3 -0.1 0
v 0.3 0.1 0
v 0.3 0.2 0
v 0.3 0.3 0
v 0.3 0.4 0
v 0.3 0.5 0
v 0.4 -0.4 0
v 0.4 -0.2 0
v 0.4 -5.96046e-08 0
v 0.4 0.3 0
v 0.4 0.4 0
v 0.4 0.5 0
v 0.4 0.6 0
v 0.5 -0.6 0
v 0.5 -0.4 0
v 0.5 -0.1 0
v 0.5 0.3 0
v 0.6 -0.6 0
v 0.6 -0.1 0
v 0.6 0.3 0
v 0.6 0.5 0
v -0.4 0.5 -0.1
v -0.4 0.6 -0.1
v -0.3 0.5 -0.1
v -0.3 0.6 -0.1
v 0.4 0.5 -0.1
v 0.4 0.6 -0.1
v 0.5 0.5 -0.1
v 0.5 0.6 -0.1
v 0 -0.2 0.1
v 0 -0.1 0.1
v 0.1 -0.2 0.1
v 0.1 -0.1 0.1
v -0.5 -0.6 -0.2
v -0.5 -0.1 -0.2
v -0.5 0.3 -0.2
v -0.5 0.5 -0.2
v -0.4 -0.6 -0.2
v -0.4 -0.4 -0.2
v -0.4 -0.1 -0.2
v -0.4 0.3 -0.2
v -0.4 0.5 -0.2
v -0.4 0.6 -0.2
v -0.3 -0.4 -0.2
v -0.3 -0.2 -0.2
v -0.3 0.6 -0.2
v -0.2 -0.3 -0.2
v -0.2 -0.2 -0.2
v -0.2 0.3 -0.2
v 0.3 -0.3 -0.2
v 0.3 -0.2 -0.2
v 0.3 0.3 -0.2
v 0.4 -0.4 -0.2
v 0.4 -0.2 -0.2
v 0.4 0.6 -0.2
v 0.5 -0.6 -0.2
v 0.5 -0.4 -0.2
v 0.5 -0.1 -0.2
v 0.5 0.3 -0.2
v 0.5 0.5 -0.2
v 0.5 0.6 -0.2
v 0.6 -0.6 -0.2
v 0.6 -0.1 -0.2
v 0.6 0.3 -0.2
v 0.6 0.5 -0.2
v -0.5 -0.6 0
v -0.4 -0.6 0
v 0.5 -0.6 0
v 0.6 -0.6 0
v -0.5 -0.6 -0.2
v -0.4 -0.6 -0.2
v 0.5 -0.6 -0.2
v 0.6 -0.6 -0.2
v -0.4 -0.4 0
v -0.3 -0.4 0
v 0.4 -0.4 0
v 0.5 -0.4 0
v -0.4 -0.4 -0.2
v -0.3 -0.4 -0.2
v 0.4 -0.4 -0.2
v 0.5 -0.4 -0.2
v -0.2 -0.3 0.1
v 0.3 -0.3 0.1
v -0.2 -0.3 0
v 0.3 -0.3 0
v -0.2 -0.3 -0.2
v 0.3 -0.3 -0.2
v 0 -0.2 0.2
v 0.1 -0.2 0.2
v -0.3 -0.2 0.1
v -0.2 -0.2 0.1
v 0 -0.2 0.1
v 0.1 -0.2 0.1
v 0.3 -0.2 0.1
v 0.4 -0.2 0.1
v -0.3 -0.2 0
v -0.2 -0.2 0
v 0.3 -0.2 0
v 0.4 -0.2 0
v -0.3 -0.2 -0.2
v -0.2 -0.2 -0.2
v 0.3 -0.2 -0.2
v 0.4 -0.2 -0.2
v -0.2 -0.1 0.1
v 0 -0.1 0.1
v 0.1 -0.1 0.1
v 0.3 -0.1 0.1
v -0.2 -0.1 0
v 0.3 -0.1 0
v -0.2 0.1 0.1
v -0.1 0.1 0.1
v 0 0.1 0.1
v 0.1 0.1 0.1
v 0.2 0.1 0.1
v 0.3 0.1 0.1
v -0.2 0.1 0
v -0.1 0.1 0
v 0 0.1 0
v 0.1 0.1 0
v 0.2 0.1 0
v 0.3 0.1 0
v -0.5 0.3 0
v -0.4 0.3 0
v 0.5 0.3 0
v 0.6 0.3 0
v -0.5 0.3 -0.2
v -0.4 0.3 -0.2
v 0.5 0.3 -0.2
v 0.6 0.3 -0.2
v -0.2 -0.2 0.1
v 0 -0.2 0.1
v 0.1 -0.2 0.1
v 0.3 -0.2 0.1
v -0.2 -0.2 0
v 0.3 -0.2 0
v -0.5 -0.1 0
v -0.4 -0.1 0
v 0.5 -0.1 0
v 0.6 -0.1 0
v -0.5 -0.1 -0.2
v -0.4 -0.1 -0.2
v 0.5 -0.1 -0.2
v 0.6 -0.1 -0.2
v -0.3 -5.96046e-08 0.1
v 0 -5.96046e-08 0.1
v 0.1 -5.96046e-08 0.1
v 0.4 -5.96046e-08 0.1
v -0.3 -5.96046e-08 0
v 0 -5.96046e-08 0
v 0.1 -5.96046e-08 0
v 0.4 -5.96046e-08 0
v 0 0.1 0.2
v 0.1 0.1 0.2
v 0 0.1 0.1
v 0.1 0.1 0.1
v 0 0.2 0.1
v 0.1 0.2 0.1
v 0 0.2 0
v 0.1 0.2 0
v -0.2 0.3 0.1
v 0 0.3 0.1
v 0.1 0.3 0.1
v 0.3 0.3 0.1
v -0.2 0.3 0
v 0 0.3 0
v 0.1 0.3 0
v 0.3 0.3 0
v -0.5 0.5 0
v -0.3 0.5 0
v 0.4 0.5 0
v 0.6 0.5 0
v -0.4 0.5 -0.1
v -0.3 0.5 -0.1
v 0.4 0.5 -0.1
v 0.5 0.5 -0.1
v -0.5 0.5 -0.2
v -0.4 0.5 -0.2
v 0.5 0.5 -0.2
v 0.6 0.5 -0.2
v -0.3 0.6 0
v 0.4 0.6 0
v -0.4 0.6 -0.1
v -0.3 0.6 -0.1
v 0.4 0.6 -0.1
v 0.5 0.6 -0.1
v -0.4 0.6 -0.2
v -0.3 0.6 -0.2
v 0.4 0.6 -0.2
v 0.5 0.6 -0.2

# faces
f 3/3/1 2/3/1 1/3/1
f 4/3/1 2/3/1 3/3/1
f 7/3/1 6/3/1 5/3/1
f 8/3/1 6/3/1 7/3/1
f 11/3/1 10/3/1 9/3/1
f 12/3/1 10/3/1 11/3/1
f 15/3/1 14/3/1 13/3/1
f 16/3/1 14/3/1 15/3/1
f 19/1/1 18/1/1 17/1/1
f 20/1/1 18/1/1 19/1/1
f 23/4/1 22/4/1 21/4/1
f 24/4/1 22/4/1 23/4/1
f 28/1/1 26/1/1 25/1/1
f 29/4/1 27/4/1 26/4/1
f 29/1/1 26/1/1 28/1/1
f 30/4/1 27/4/1 29/4/1
f 33/3/1 32/3/1 31/3/1
f 34/3/1 32/3/1 33/3/1
f 35/5/1 34/5/1 33/5/1
f 36/5/1 34/5/1 35/5/1
f 39/1/1 38/1/1 37/1/1
f 40/1/1 39/1/1 37/1/1
f 42/1/1 40/1/1 37/1/1
f 42/1/1 41/1/1 40/1/1
f 43/1/1 41/1/1 42/1/1
f 44/1/1 41/1/1 43/1/1
f 47/5/1 46/5/1 45/5/1
f 48/5/1 46/5/1 47/5/1
f 51/1/1 50/1/1 49/1/1
f 52/1/1 50/1/1 51/1/1
f 55/3/1 54/3/1 53/3/1
f 56/3/1 54/3/1 55/3/1
f 59/3/1 58/3/1 57/3/1
f 60/3/1 58/3/1 59/3/1
f 61/3/2 62/3/2 63/3/2
f 63/3/2 62/3/2 64/3/2
f 65/3/2 66/3/2 67/3/2
f 67/3/2 66/3/2 68/3/2
f 69/1/2 70/1/2 71/1/2
f 71/1/2 70/1/2 72/1/2
f 73/5/2 74/5/2 75/5/2
f 75/5/2 74/5/2 76/5/2
f 77/1/2 78/1/2 79/1/2
f 77/1/2 79/1/2 80/1/2
f 77/1/2 80/1/2 82/1/2
f 80/1/2 81/1/2 82/1/2
f 82/1/2 81/1/2 83/1/2
f 83/1/2 81/1/2 84/1/2
f 85/1/2 86/1/2 88/1/2
f 86/4/2 87/4/2 89/4/2
f 88/1/2 86/1/2 89/1/2
f 89/4/2 87/4/2 90/4/2
f 91/3/2 92/3/2 93/3/2
f 93/3/2 92/3/2 94/3/2
f 93/5/2 94/5/2 95/5/2
f 95/5/2 94/5/2 96/5/2
f 97/1/2 98/1/2 99/1/2
f 99/1/2 98/1/2 100/1/2
f 101/4/2 102/4/2 103/4/2
f 103/4/2 102/4/2 104/4/2
f 105/3/2 106/3/2 107/3/2
f 107/3/2 106/3/2 108/3/2
f 109/3/2 110/3/2 111/3/2
f 111/3/2 110/3/2 112/3/2
f 113/3/2 114/3/2 115/3/2
f 115/3/2 114/3/2 116/3/2
f 117/3/2 118/3/2 119/3/2
f 119/3/2 118/3/2 120/3/2
f 123/1/3 122/1/3 121/1/3
f 124/1/3 122/1/3 123/1/3
f 128/1/3 126/1/3 125/1/3
f 129/1/3 126/1/3 128/1/3
f 133/3/3 131/3/3 130/3/3
f 134/5/3 132/5/3 131/5/3
f 134/3/3 131/3/3 133/3/3
f 135/1/3 128/1/3 127/1/3
f 136/1/3 126/1/3 129/1/3
f 137/1/3 126/1/3 136/1/3
f 138/5/3 134/5/3 133/5/3
f 139/5/3 132/5/3 134/5/3
f 139/5/3 134/5/3 138/5/3
f 140/5/3 132/5/3 139/5/3
f 141/1/3 135/1/3 127/1/3
f 144/1/3 139/1/3 138/1/3
f 145/1/3 139/1/3 144/1/3
f 147/5/3 145/5/3 144/5/3
f 147/5/3 146/5/3 145/5/3
f 148/5/3 146/5/3 147/5/3
f 149/1/3 141/1/3 127/1/3
f 150/1/3 141/1/3 149/1/3
f 151/1/3 143/1/3 142/1/3
f 152/3/3 148/3/3 147/3/3
f 153/5/3 146/5/3 148/5/3
f 153/3/3 148/3/3 152/3/3
f 154/5/3 146/5/3 153/5/3
f 155/1/3 151/1/3 150/1/3
f 156/1/3 143/1/3 151/1/3
f 156/1/3 151/1/3 155/1/3
f 161/3/3 158/3/3 157/3/3
f 162/3/3 158/3/3 161/3/3
f 163/3/3 158/3/3 162/3/3
f 164/3/3 160/3/3 159/3/3
f 165/3/3 163/3/3 162/3/3
f 165/3/3 164/3/3 163/3/3
f 166/3/3 164/3/3 165/3/3
f 167/3/3 164/3/3 166/3/3
f 168/3/3 160/3/3 164/3/3
f 168/3/3 164/3/3 167/3/3
f 169/3/3 160/3/3 168/3/3
f 170/3/3 160/3/3 169/3/3
f 174/4/3 168/4/3 167/4/3
f 175/4/3 168/4/3 174/4/3
f 176/3/3 169/3/3 168/3/3
f 176/4/3 168/4/3 175/4/3
f 177/4/3 171/4/3 170/4/3
f 177/3/3 169/3/3 176/3/3
f 177/4/3 170/4/3 169/4/3
f 178/4/3 171/4/3 177/4/3
f 179/4/3 174/4/3 167/4/3
f 180/3/3 178/3/3 177/3/3
f 180/3/3 177/3/3 176/3/3
f 181/4/3 171/4/3 178/4/3
f 181/3/3 178/3/3 180/3/3
f 182/4/3 179/4/3 167/4/3
f 183/4/3 179/4/3 182/4/3
f 185/3/3 180/3/3 176/3/3
f 186/4/3 181/4/3 180/4/3
f 186/3/3 180/3/3 185/3/3
f 189/4/3 185/4/3 184/4/3
f 189/4/3 186/4/3 185/4/3
f 190/4/3 186/4/3 189/4/3
f 191/4/3 181/4/3 186/4/3
f 191/4/3 186/4/3 190/4/3
f 192/4/3 188/4/3 187/4/3
f 193/4/3 181/4/3 191/4/3
f 193/3/3 191/3/3 190/3/3
f 194/4/3 171/4/3 181/4/3
f 194/4/3 181/4/3 193/4/3
f 195/2/3 173/2/3 172/2/3
f 196/2/3 173/2/3 195/2/3
f 197/4/3 192/4/3 187/4/3
f 199/3/3 193/3/3 190/3/3
f 199/3/3 194/3/3 193/3/3
f 200/3/3 194/3/3 199/3/3
f 201/4/3 171/4/3 194/4/3
f 201/3/3 194/3/3 200/3/3
f 204/4/3 198/4/3 197/4/3
f 204/4/3 197/4/3 187/4/3
f 204/4/3 199/4/3 198/4/3
f 205/3/3 200/3/3 199/3/3
f 205/4/3 199/4/3 204/4/3
f 206/4/3 201/4/3 200/4/3
f 206/3/3 200/3/3 205/3/3
f 207/4/3 171/4/3 201/4/3
f 207/4/3 201/4/3 206/4/3
f 208/4/3 171/4/3 207/4/3
f 210/3/3 206/3/3 205/3/3
f 210/3/3 203/3/3 202/3/3
f 210/3/3 207/3/3 206/3/3
f 210/3/3 204/3/3 203/3/3
f 210/3/3 205/3/3 204/3/3
f 211/3/3 207/3/3 210/3/3
f 212/3/3 207/3/3 211/3/3
f 213/3/3 210/3/3 209/3/3
f 213/3/3 211/3/3 210/3/3
f 214/3/3 211/3/3 213/3/3
f 215/3/3 207/3/3 212/3/3
f 216/3/3 207/3/3 215/3/3
f 219/3/3 218/3/3 217/3/3
f 220/3/3 218/3/3 219/3/3
f 223/3/3 222/3/3 221/3/3
f 224/3/3 222/3/3 223/3/3
f 225/1/4 226/1/4 227/1/4
f 227/1/4 226/1/4 228/1/4
f 229/3/4 230/3/4 233/3/4
f 233/3/4 230/3/4 234/3/4
f 234/3/4 230/3/4 235/3/4
f 231/3/4 232/3/4 236/3/4
f 236/3/4 232/3/4 237/3/4
f 234/3/4 235/3/4 239/3/4
f 237/3/4 238/3/4 239/3/4
f 236/3/4 237/3/4 239/3/4
f 235/3/4 236/3/4 239/3/4
f 239/3/4 238/3/4 240/3/4
f 240/3/4 238/3/4 241/3/4
f 240/4/4 241/4/4 243/4/4
f 243/4/4 241/4/4 244/4/4
f 242/4/4 243/4/4 245/4/4
f 243/2/4 244/2/4 246/2/4
f 245/4/4 243/4/4 246/4/4
f 244/4/4 241/4/4 247/4/4
f 246/2/4 244/2/4 247/2/4
f 246/4/4 247/4/4 249/4/4
f 247/4/4 241/4/4 250/4/4
f 249/4/4 247/4/4 250/4/4
f 248/3/4 249/3/4 252/3/4
f 249/3/4 250/3/4 252/3/4
f 252/3/4 250/3/4 253/3/4
f 253/3/4 250/3/4 254/3/4
f 254/3/4 250/3/4 255/3/4
f 255/3/4 250/3/4 256/3/4
f 251/3/4 252/3/4 257/3/4
f 252/3/4 253/3/4 257/3/4
f 257/3/4 253/3/4 258/3/4
f 254/3/4 255/3/4 259/3/4
f 259/3/4 255/3/4 260/3/4
f 265/3/5 262/3/5 261/3/5
f 266/3/5 262/3/5 265/3/5
f 267/3/5 264/3/5 263/3/5
f 268/3/5 264/3/5 267/3/5
f 273/3/5 270/3/5 269/3/5
f 274/3/5 270/3/5 273/3/5
f 275/3/5 272/3/5 271/3/5
f 276/3/5 272/3/5 275/3/5
f 279/1/5 278/1/5 277/1/5
f 280/1/5 278/1/5 279/1/5
f 281/4/5 280/4/5 279/4/5
f 282/4/5 280/4/5 281/4/5
f 287/1/5 284/1/5 283/1/5
f 288/1/5 284/1/5 287/1/5
f 291/1/5 286/1/5 285/1/5
f 292/1/5 286/1/5 291/1/5
f 293/1/5 290/1/5 289/1/5
f 294/1/5 290/1/5 293/1/5
f 295/4/5 292/4/5 291/4/5
f 296/4/5 292/4/5 295/4/5
f 297/4/5 294/4/5 293/4/5
f 298/4/5 294/4/5 297/4/5
f 303/1/5 300/1/5 299/1/5
f 303/1/5 302/1/5 301/1/5
f 303/1/5 301/1/5 300/1/5
f 304/1/5 302/1/5 303/1/5
f 311/3/5 306/3/5 305/3/5
f 312/5/5 307/5/5 306/5/5
f 312/3/5 306/3/5 311/3/5
f 313/5/5 307/5/5 312/5/5
f 314/5/5 309/5/5 308/5/5
f 315/3/5 310/3/5 309/3/5
f 315/5/5 309/5/5 314/5/5
f 316/3/5 310/3/5 315/3/5
f 321/3/5 318/3/5 317/3/5
f 322/3/5 318/3/5 321/3/5
f 323/3/5 320/3/5 319/3/5
f 324/3/5 320/3/5 323/3/5
f 325/1/6 326/1/6 329/1/6
f 327/1/6 328/1/6 329/1/6
f 326/1/6 327/1/6 329/1/6
f 329/1/6 328/1/6 330/1/6
f 331/3/6 332/3/6 335/3/6
f 335/3/6 332/3/6 336/3/6
f 333/3/6 334/3/6 337/3/6
f 337/3/6 334/3/6 338/3/6
f 339/1/6 340/1/6 343/1/6
f 343/1/6 340/1/6 344/1/6
f 341/1/6 342/1/6 345/1/6
f 345/1/6 342/1/6 346/1/6
f 347/1/6 348/1/6 349/1/6
f 349/1/6 348/1/6 350/1/6
f 351/1/6 352/1/6 353/1/6
f 353/1/6 352/1/6 354/1/6
f 355/5/6 356/5/6 359/5/6
f 359/5/6 356/5/6 360/5/6
f 357/5/6 358/5/6 361/5/6
f 361/5/6 358/5/6 362/5/6
f 363/3/6 364/3/6 367/3/6
f 367/3/6 364/3/6 368/3/6
f 365/3/6 366/3/6 369/3/6
f 369/3/6 366/3/6 370/3/6
f 363/3/6 367/3/6 371/3/6
f 371/3/6 367/3/6 372/3/6
f 370/3/6 366/3/6 373/3/6
f 373/3/6 366/3/6 374/3/6
f 375/4/6 376/4/6 378/4/6
f 378/4/6 376/4/6 379/4/6
f 377/3/6 378/3/6 381/3/6
f 378/4/6 379/4/6 382/4/6
f 381/3/6 378/3/6 382/3/6
f 379/3/6 380/3/6 383/3/6
f 382/4/6 379/4/6 383/4/6
f 383/3/6 380/3/6 384/3/6
