# MagicaVoxel @ Ephtracy

# group
o 

# material
mtllib Rag-0.mtl
usemtl palette

# normals
vn -1 0 0
vn 1 0 0
vn 0 0 1
vn 0 0 -1
vn 0 -1 0
vn 0 1 0

# texcoords
vt 0.896484 0.5
vt 0.982422 0.5
vt 0.990234 0.5

# verts
v -0.5 -0.1 0.5
v -0.5 -0.1 0.4
v -0.5 -0.1 0.3
v -0.5 -0.1 0.2
v -0.5 -0.1 -0.2
v -0.5 -0.1 -0.3
v -0.5 -0.1 -0.6
v -0.5 0 0.5
v -0.5 0 0.4
v -0.5 0 0.3
v -0.5 0 0.2
v -0.5 0 -0.2
v -0.5 0 -0.3
v -0.5 0 -0.6
v -0.5 0.1 0.3
v -0.5 0.1 0.2
v -0.4 -0.2 -0.2
v -0.4 -0.2 -0.3
v -0.4 -0.1 -0.2
v -0.4 -0.1 -0.3
v -0.4 0 0.2
v -0.4 0 0.1
v -0.4 0 -0.4
v -0.4 0 -0.5
v -0.4 0.1 0.2
v -0.4 0.1 0.1
v -0.4 0.1 -0.4
v -0.4 0.1 -0.5
v -0.3 -0.2 0.4
v -0.3 -0.2 0.3
v -0.3 -0.2 -0.1
v -0.3 -0.2 -0.2
v -0.3 -0.1 0.4
v -0.3 -0.1 0.3
v -0.3 -0.1 0.2
v -0.3 -0.1 -0.1
v -0.3 -0.1 -0.2
v -0.3 0 0.3
v -0.3 0 0.2
v -0.3 0 0.1
v -0.3 0 0
v -0.3 0 -0.3
v -0.3 0 -0.4
v -0.3 0.1 0.1
v -0.3 0.1 0
v -0.3 0.1 -0.3
v -0.3 0.1 -0.4
v -0.2 -0.2 0.5
v -0.2 -0.2 0.4
v -0.2 -0.2 0.3
v -0.2 -0.2 0.2
v -0.2 -0.1 0.5
v -0.2 -0.1 0.4
v -0.2 -0.1 0.3
v -0.2 -0.1 0.2
v -0.2 -0.1 0.1
v -0.2 -0.1 -0.1
v -0.2 -0.1 -0.3
v -0.2 -0.1 -0.4
v -0.2 -0.1 -0.5
v -0.2 0 0.2
v -0.2 0 0.1
v -0.2 0 0
v -0.2 0 -0.1
v -0.2 0 -0.3
v -0.2 0 -0.4
v -0.2 0 -0.5
v -0.2 0.1 0
v -0.2 0.1 -0.1
v -0.1 -0.2 0.2
v -0.1 -0.2 0.1
v -0.1 -0.2 -0.1
v -0.1 -0.1 0.5
v -0.1 -0.1 0.4
v -0.1 -0.1 0.2
v -0.1 -0.1 0.1
v -0.1 -0.1 -0.1
v -0.1 -0.1 -0.3
v -0.1 -0.1 -0.4
v -0.1 0 0.5
v -0.1 0 0.4
v -0.1 0 -0.1
v -0.1 0 -0.3
v -0.1 0 -0.4
v -0.1 0.1 0
v -0.1 0.1 -0.1
v -0.1 0.1 -0.3
v -0.1 0.2 0
v -0.1 0.2 -0.1
v 0 -0.2 -0.2
v 0 -0.2 -0.3
v 0 -0.2 -0.5
v 0 -0.1 0.4
v 0 -0.1 0.3
v 0 -0.1 0.2
v 0 -0.1 0.1
v 0 -0.1 -0.2
v 0 -0.1 -0.3
v 0 -0.1 -0.4
v 0 -0.1 -0.5
v 0 0 0.4
v 0 0 0.3
v 0 0 0.2
v 0 0 0
v 0 0 -0.1
v 0 0.1 0.2
v 0 0.1 0.1
v 0 0.1 0
v 0 0.1 -0.1
v 0 0.1 -0.2
v 0 0.2 0.1
v 0 0.2 0
v 0 0.2 -0.1
v 0 0.2 -0.2
v 0.1 -0.2 0.3
v 0.1 -0.2 0.2
v 0.1 -0.2 -0.5
v 0.1 -0.2 -0.6
v 0.1 -0.1 0.3
v 0.1 -0.1 0.2
v 0.1 -0.1 -0.3
v 0.1 -0.1 -0.4
v 0.1 -0.1 -0.5
v 0.1 -0.1 -0.6
v 0.1 0 0.3
v 0.1 0 0.2
v 0.1 0 0.1
v 0.1 0 0
v 0.1 0 -0.1
v 0.1 0 -0.2
v 0.1 0 -0.3
v 0.1 0 -0.4
v 0.1 0.1 0.3
v 0.1 0.1 0.2
v 0.1 0.1 0.1
v 0.1 0.1 0
v 0.1 0.1 -0.1
v 0.1 0.1 -0.2
v 0.2 -0.2 0.5
v 0.2 -0.2 0.3
v 0.2 -0.2 -0.1
v 0.2 -0.2 -0.3
v 0.2 -0.1 0.5
v 0.2 -0.1 0.3
v 0.2 -0.1 -0.1
v 0.2 -0.1 -0.2
v 0.2 -0.1 -0.3
v 0.2 -0.1 -0.4
v 0.2 -0.1 -0.5
v 0.2 -0.1 -0.6
v 0.2 0 0.5
v 0.2 0 0.4
v 0.2 0 0.3
v 0.2 0 0
v 0.2 0 -0.1
v 0.2 0 -0.3
v 0.2 0 -0.4
v 0.2 0 -0.5
v 0.2 0 -0.6
v 0.2 0.1 0.5
v 0.2 0.1 0.4
v 0.2 0.1 0.3
v 0.2 0.1 0
v 0.2 0.1 -0.1
v 0.2 0.1 -0.3
v 0.2 0.1 -0.4
v 0.3 -0.1 0.3
v 0.3 -0.1 0.2
v 0.3 0 0.3
v 0.3 0 0.2
v 0.3 0 -0.2
v 0.3 0 -0.3
v 0.3 0 -0.4
v 0.3 0 -0.5
v 0.3 0.1 -0.2
v 0.3 0.1 -0.3
v 0.3 0.1 -0.4
v 0.3 0.1 -0.5
v 0.4 -0.2 0.1
v 0.4 -0.2 0
v 0.4 -0.1 0.5
v 0.4 -0.1 0.4
v 0.4 -0.1 0.3
v 0.4 -0.1 0.1
v 0.4 -0.1 0
v 0.4 0 0.5
v 0.4 0 0.4
v 0.4 0 0.3
v 0.4 0 -0.5
v 0.4 0 -0.6
v 0.4 0.1 -0.5
v 0.4 0.1 -0.6
v 0.5 -0.1 0
v 0.5 -0.1 -0.1
v 0.5 -0.1 -0.3
v 0.5 -0.1 -0.6
v 0.5 0 0
v 0.5 0 -0.1
v 0.5 0 -0.3
v 0.5 0 -0.6
v -0.4 -0.1 0.2
v -0.4 -0.1 0.1
v -0.4 -0.1 -0.4
v -0.4 -0.1 -0.5
v -0.4 0 0.2
v -0.4 0 0.1
v -0.4 0 -0.4
v -0.4 0 -0.5
v -0.3 -0.1 -0.1
v -0.3 -0.1 -0.2
v -0.3 0 0.3
v -0.3 0 0.2
v -0.3 0 -0.1
v -0.3 0 -0.2
v -0.3 0.1 0.3
v -0.3 0.1 0.2
v -0.2 -0.2 -0.2
v -0.2 -0.2 -0.3
v -0.2 -0.1 0.5
v -0.2 -0.1 0.3
v -0.2 -0.1 -0.2
v -0.2 -0.1 -0.3
v -0.2 -0.1 -0.4
v -0.2 0 0.5
v -0.2 0 0.3
v -0.2 0 0.2
v -0.2 0 0.1
v -0.2 0 -0.3
v -0.2 0 -0.4
v -0.2 0 -0.5
v -0.2 0.1 0.2
v -0.2 0.1 0.1
v -0.2 0.1 -0.4
v -0.2 0.1 -0.5
v -0.1 -0.2 0.5
v -0.1 -0.2 0.4
v -0.1 -0.1 0.5
v -0.1 -0.1 0.4
v -0.1 -0.1 0.3
v -0.1 -0.1 0.2
v -0.1 -0.1 0.1
v -0.1 0 0.3
v -0.1 0 0.2
v -0.1 0 0.1
v -0.1 0 0
v -0.1 0 -0.1
v -0.1 0 -0.3
v -0.1 0 -0.4
v -0.1 0.1 0
v -0.1 0.1 -0.1
v -0.1 0.1 -0.3
v -0.1 0.1 -0.4
v 0 -0.2 0.4
v 0 -0.2 0.3
v 0 -0.2 0.2
v 0 -0.1 0.4
v 0 -0.1 0.3
v 0 -0.1 0.2
v 0 -0.1 -0.3
v 0 -0.1 -0.4
v 0 -0.1 -0.5
v 0 0 0.1
v 0 0 0
v 0 0 -0.1
v 0 0 -0.2
v 0 0 -0.3
v 0 0 -0.4
v 0 0 -0.5
v 0 0.1 0.1
v 0 0.1 0
v 0 0.1 -0.1
v 0 0.1 -0.2
v 0.1 -0.2 -0.1
v 0.1 -0.2 -0.2
v 0.1 -0.2 -0.3
v 0.1 -0.2 -0.4
v 0.1 -0.1 -0.1
v 0.1 -0.1 -0.2
v 0.1 -0.1 -0.3
v 0.1 -0.1 -0.4
v 0.1 -0.1 -0.5
v 0.1 -0.1 -0.6
v 0.1 0 0
v 0.1 0 -0.1
v 0.1 0 -0.2
v 0.1 0 -0.3
v 0.1 0 -0.5
v 0.1 0 -0.6
v 0.1 0.1 0
v 0.1 0.1 -0.1
v 0.1 0.1 -0.2
v 0.1 0.1 -0.3
v 0.1 0.2 -0.1
v 0.1 0.2 -0.2
v 0.2 -0.2 0.2
v 0.2 -0.2 0
v 0.2 -0.2 -0.4
v 0.2 -0.2 -0.6
v 0.2 -0.1 0.5
v 0.2 -0.1 0.2
v 0.2 -0.1 0.1
v 0.2 -0.1 0
v 0.2 -0.1 -0.4
v 0.2 -0.1 -0.5
v 0.2 -0.1 -0.6
v 0.2 0 0.5
v 0.2 0 0.4
v 0.2 0 0.3
v 0.2 0 0.2
v 0.2 0 0.1
v 0.2 0 0
v 0.2 0.1 0.2
v 0.2 0.1 0.1
v 0.2 0.1 0
v 0.2 0.1 -0.1
v 0.2 0.2 0.1
v 0.2 0.2 0
v 0.2 0.2 -0.1
v 0.3 -0.2 0.5
v 0.3 -0.2 0.2
v 0.3 -0.2 -0.1
v 0.3 -0.2 -0.2
v 0.3 -0.1 0.5
v 0.3 -0.1 0.3
v 0.3 -0.1 0.2
v 0.3 -0.1 0
v 0.3 -0.1 -0.1
v 0.3 -0.1 -0.2
v 0.3 -0.1 -0.3
v 0.3 -0.1 -0.4
v 0.3 0 0.3
v 0.3 0 0.2
v 0.3 0 0
v 0.3 0 -0.1
v 0.3 0 -0.2
v 0.3 0 -0.3
v 0.3 0 -0.4
v 0.3 0.1 0.3
v 0.3 0.1 0.2
v 0.3 0.1 0
v 0.3 0.1 -0.2
v 0.4 -0.2 -0.2
v 0.4 -0.2 -0.3
v 0.4 -0.1 0.1
v 0.4 -0.1 0
v 0.4 -0.1 -0.2
v 0.4 -0.1 -0.3
v 0.4 -0.1 -0.4
v 0.4 -0.1 -0.6
v 0.4 0 0.5
v 0.4 0 0.4
v 0.4 0 0.3
v 0.4 0 0.1
v 0.4 0 0
v 0.4 0 -0.2
v 0.4 0 -0.3
v 0.4 0 -0.4
v 0.4 0 -0.6
v 0.4 0.1 0.5
v 0.4 0.1 0.3
v 0.4 0.1 -0.2
v 0.4 0.1 -0.3
v 0.5 -0.2 0
v 0.5 -0.2 -0.1
v 0.5 -0.1 0
v 0.5 -0.1 -0.1
v 0.5 0 -0.3
v 0.5 0 -0.6
v 0.5 0.1 -0.3
v 0.5 0.1 -0.6
v 0.6 -0.2 0.1
v 0.6 -0.2 0
v 0.6 -0.1 0.5
v 0.6 -0.1 0.1
v 0.6 -0.1 0
v 0.6 -0.1 -0.1
v 0.6 -0.1 -0.2
v 0.6 -0.1 -0.6
v 0.6 0 0.5
v 0.6 0 0.1
v 0.6 0 0
v 0.6 0 -0.1
v 0.6 0 -0.2
v 0.6 0 -0.6
v -0.5 -0.1 0.5
v -0.5 0 0.5
v -0.2 -0.2 0.5
v -0.2 -0.1 0.5
v -0.2 0 0.5
v -0.1 -0.2 0.5
v -0.1 -0.1 0.5
v -0.1 0 0.5
v 0.2 -0.2 0.5
v 0.2 -0.1 0.5
v 0.2 0 0.5
v 0.2 0.1 0.5
v 0.3 -0.2 0.5
v 0.3 -0.1 0.5
v 0.4 -0.1 0.5
v 0.4 0 0.5
v 0.4 0.1 0.5
v 0.6 -0.1 0.5
v 0.6 0 0.5
v -0.3 -0.2 0.4
v -0.3 -0.1 0.4
v -0.2 -0.2 0.4
v -0.2 -0.1 0.4
v -0.1 -0.2 0.4
v -0.1 -0.1 0.4
v 0 -0.2 0.4
v 0 -0.1 0.4
v -0.5 0 0.3
v -0.5 0.1 0.3
v -0.4 0 0.3
v -0.3 0 0.3
v -0.3 0.1 0.3
v -0.2 -0.1 0.3
v -0.2 0 0.3
v -0.1 -0.1 0.3
v -0.1 0 0.3
v 0.1 -0.2 0.3
v 0.1 -0.1 0.3
v 0.1 0 0.3
v 0.1 0.1 0.3
v 0.2 -0.2 0.3
v 0.2 -0.1 0.3
v 0.2 0 0.3
v 0.2 0.1 0.3
v 0.3 -0.1 0.3
v 0.3 0 0.3
v 0.4 -0.1 0.3
v 0.4 0 0.3
v -0.5 -0.1 0.2
v -0.5 0 0.2
v -0.4 -0.1 0.2
v -0.4 0 0.2
v -0.3 0 0.2
v -0.3 0.1 0.2
v -0.2 0 0.2
v -0.2 0.1 0.2
v 0 -0.2 0.2
v 0 -0.1 0.2
v 0 0 0.2
v 0 0.1 0.2
v 0.1 -0.2 0.2
v 0.1 -0.1 0.2
v 0.1 0 0.2
v 0.1 0.1 0.2
v 0.2 -0.1 0.2
v 0.2 0 0.2
v 0.3 -0.1 0.2
v 0.3 0 0.2
v -0.4 -0.1 0.1
v -0.4 0 0.1
v -0.3 0 0.1
v -0.2 -0.1 0.1
v -0.2 0 0.1
v -0.2 0.1 0.1
v -0.1 -0.1 0.1
v -0.1 0 0.1
v -0.1 0.1 0.1
v 0 -0.1 0.1
v 0 0.1 0.1
v 0 0.2 0.1
v 0.1 0.1 0.1
v 0.1 0.2 0.1
v 0.2 0.1 0.1
v 0.2 0.2 0.1
v 0.4 -0.2 0.1
v 0.4 -0.1 0.1
v 0.5 -0.1 0.1
v 0.6 -0.2 0.1
v 0.6 -0.1 0.1
v -0.1 0.1 0
v -0.1 0.2 0
v 0 0 0
v 0 0.1 0
v 0 0.2 0
v 0.1 0 0
v 0.1 0.1 0
v 0.2 -0.2 0
v 0.2 -0.1 0
v 0.2 0 0
v 0.2 0.1 0
v 0.3 -0.1 0
v 0.3 0 0
v 0.3 0.1 0
v 0.4 -0.2 0
v 0.4 -0.1 0
v 0.5 -0.1 0
v 0.5 0 0
v 0.6 -0.1 0
v 0.6 0 0
v -0.3 -0.2 -0.1
v -0.3 -0.1 -0.1
v -0.2 -0.1 -0.1
v -0.1 -0.2 -0.1
v -0.1 -0.1 -0.1
v -0.1 0 -0.1
v -0.1 0.1 -0.1
v 0 0 -0.1
v 0 0.1 -0.1
v 0.1 0 -0.1
v 0.1 0.1 -0.1
v 0.2 0 -0.1
v 0.2 0.1 -0.1
v 0.3 -0.1 -0.1
v 0.3 0 -0.1
v 0.5 -0.1 -0.1
v 0.5 0 -0.1
v -0.4 -0.2 -0.2
v -0.4 -0.1 -0.2
v -0.3 -0.2 -0.2
v -0.3 -0.1 -0.2
v 0 0 -0.2
v 0 0.1 -0.2
v 0.1 0 -0.2
v 0.1 0.1 -0.2
v 0.3 -0.2 -0.2
v 0.3 -0.1 -0.2
v 0.3 0 -0.2
v 0.3 0.1 -0.2
v 0.4 -0.2 -0.2
v 0.4 -0.1 -0.2
v 0.4 0 -0.2
v 0.4 0.1 -0.2
v -0.5 -0.1 -0.3
v -0.5 0 -0.3
v -0.4 -0.1 -0.3
v -0.3 0 -0.3
v -0.3 0.1 -0.3
v -0.2 -0.1 -0.3
v -0.2 0 -0.3
v -0.2 0.1 -0.3
v -0.1 0 -0.3
v -0.1 0.1 -0.3
v 0.2 0 -0.3
v 0.2 0.1 -0.3
v 0.3 0 -0.3
v 0.3 0.1 -0.3
v 0.4 0 -0.3
v 0.4 0.1 -0.3
v 0.5 0 -0.3
v 0.5 0.1 -0.3
v -0.4 0 -0.4
v -0.4 0.1 -0.4
v -0.3 0 -0.4
v -0.3 0.1 -0.4
v -0.2 -0.1 -0.4
v -0.2 0 -0.4
v -0.1 -0.1 -0.4
v -0.1 0 -0.4
v 0.1 -0.2 -0.4
v 0.1 -0.1 -0.4
v 0.2 -0.2 -0.4
v 0.2 -0.1 -0.4
v 0.3 -0.1 -0.4
v 0.3 0 -0.4
v 0.4 -0.1 -0.4
v 0.4 0 -0.4
v -0.4 -0.1 -0.5
v -0.4 0 -0.5
v -0.3 -0.1 -0.5
v -0.3 0 -0.5
v -0.2 -0.1 -0.5
v -0.2 0 -0.5
v 0 -0.1 -0.5
v 0 0 -0.5
v 0.1 -0.1 -0.5
v 0.1 0 -0.5
v -0.1 -0.1 0.4
v -0.1 0 0.4
v 0 -0.1 0.4
v 0 0 0.4
v -0.5 -0.1 0.3
v -0.5 0 0.3
v -0.4 -0.1 0.3
v -0.4 0 0.3
v -0.3 -0.2 0.3
v -0.3 -0.1 0.3
v -0.3 0 0.3
v -0.2 -0.2 0.3
v -0.2 -0.1 0.3
v 0.3 0 0.3
v 0.3 0.1 0.3
v 0.4 0 0.3
v 0.4 0.1 0.3
v -0.5 0 0.2
v -0.5 0.1 0.2
v -0.4 0 0.2
v -0.4 0.1 0.2
v -0.3 -0.1 0.2
v -0.3 0 0.2
v -0.2 -0.2 0.2
v -0.2 -0.1 0.2
v -0.2 0 0.2
v -0.1 -0.2 0.2
v -0.1 -0.1 0.2
v 0.2 -0.2 0.2
v 0.2 -0.1 0.2
v 0.2 0 0.2
v 0.2 0.1 0.2
v 0.3 -0.2 0.2
v 0.3 -0.1 0.2
v 0.3 0 0.2
v 0.3 0.1 0.2
v -0.4 0 0.1
v -0.4 0.1 0.1
v -0.3 0 0.1
v -0.3 0.1 0.1
v 0 0 0.1
v 0 0.1 0.1
v 0.1 0 0.1
v 0.1 0.1 0.1
v 0.4 -0.1 0.1
v 0.4 0 0.1
v 0.5 -0.1 0.1
v 0.5 0 0.1
v 0.6 -0.1 0.1
v 0.6 0 0.1
v -0.3 0 0
v -0.3 0.1 0
v -0.2 0 0
v -0.2 0.1 0
v -0.1 0 0
v -0.1 0.1 0
v 0 0 0
v 0 0.1 0
v 0.1 0 0
v 0.1 0.1 0
v 0.2 0 0
v 0.2 0.1 0
v 0.3 -0.1 0
v 0.3 0 0
v 0.4 -0.1 0
v 0.4 0 0
v 0.5 -0.2 0
v 0.5 -0.1 0
v 0.6 -0.2 0
v 0.6 -0.1 0
v -0.3 -0.1 -0.1
v -0.3 0 -0.1
v -0.2 -0.1 -0.1
v -0.2 0 -0.1
v -0.2 0.1 -0.1
v -0.1 0 -0.1
v -0.1 0.1 -0.1
v -0.1 0.2 -0.1
v 0 0 -0.1
v 0 0.1 -0.1
v 0 0.2 -0.1
v 0.1 -0.2 -0.1
v 0.1 -0.1 -0.1
v 0.1 0 -0.1
v 0.1 0.1 -0.1
v 0.1 0.2 -0.1
v 0.2 -0.2 -0.1
v 0.2 -0.1 -0.1
v 0.2 0.1 -0.1
v 0.2 0.2 -0.1
v 0.3 -0.2 -0.1
v 0.3 -0.1 -0.1
v 0.5 -0.2 -0.1
v 0.5 -0.1 -0.1
v -0.5 -0.1 -0.2
v -0.5 0 -0.2
v -0.4 -0.1 -0.2
v -0.4 0 -0.2
v -0.3 -0.1 -0.2
v -0.3 0 -0.2
v -0.2 -0.2 -0.2
v -0.2 -0.1 -0.2
v 0 -0.2 -0.2
v 0 -0.1 -0.2
v 0 0.1 -0.2
v 0 0.2 -0.2
v 0.1 0 -0.2
v 0.1 0.1 -0.2
v 0.1 0.2 -0.2
v 0.2 0 -0.2
v 0.3 0 -0.2
v 0.3 0.1 -0.2
v -0.4 -0.2 -0.3
v -0.4 -0.1 -0.3
v -0.2 -0.2 -0.3
v -0.2 -0.1 -0.3
v -0.2 0 -0.3
v -0.1 -0.1 -0.3
v -0.1 0 -0.3
v -0.1 0.1 -0.3
v 0 -0.1 -0.3
v 0 0 -0.3
v 0.1 -0.1 -0.3
v 0.1 0 -0.3
v 0.1 0.1 -0.3
v 0.2 -0.2 -0.3
v 0.2 -0.1 -0.3
v 0.3 -0.1 -0.3
v 0.3 0 -0.3
v 0.4 -0.2 -0.3
v 0.4 -0.1 -0.3
v 0.5 -0.1 -0.3
v 0.5 0 -0.3
v -0.4 -0.1 -0.4
v -0.4 0 -0.4
v -0.2 -0.1 -0.4
v -0.2 0 -0.4
v -0.2 0.1 -0.4
v -0.1 0 -0.4
v -0.1 0.1 -0.4
v 0.1 -0.1 -0.4
v 0.1 0 -0.4
v 0.2 -0.1 -0.4
v 0.2 0 -0.4
v 0.2 0.1 -0.4
v 0.3 0 -0.4
v 0.3 0.1 -0.4
v -0.4 0 -0.5
v -0.4 0.1 -0.5
v -0.3 0 -0.5
v -0.2 0 -0.5
v -0.2 0.1 -0.5
v 0 -0.2 -0.5
v 0 -0.1 -0.5
v 0.1 -0.2 -0.5
v 0.1 -0.1 -0.5
v 0.3 0 -0.5
v 0.3 0.1 -0.5
v 0.4 0 -0.5
v 0.4 0.1 -0.5
v -0.5 -0.1 -0.6
v -0.5 0 -0.6
v -0.4 -0.1 -0.6
v -0.4 0 -0.6
v -0.3 -0.1 -0.6
v -0.3 0 -0.6
v -0.1 -0.1 -0.6
v -0.1 0 -0.6
v 0 -0.1 -0.6
v 0 0 -0.6
v 0.1 -0.2 -0.6
v 0.1 -0.1 -0.6
v 0.1 0 -0.6
v 0.2 -0.2 -0.6
v 0.2 -0.1 -0.6
v 0.2 0 -0.6
v 0.4 -0.1 -0.6
v 0.4 0 -0.6
v 0.4 0.1 -0.6
v 0.5 -0.1 -0.6
v 0.5 0 -0.6
v 0.5 0.1 -0.6
v 0.6 -0.1 -0.6
v 0.6 0 -0.6
v -0.2 -0.2 0.5
v -0.1 -0.2 0.5
v 0.2 -0.2 0.5
v 0.3 -0.2 0.5
v -0.3 -0.2 0.4
v -0.2 -0.2 0.4
v -0.1 -0.2 0.4
v 0 -0.2 0.4
v -0.3 -0.2 0.3
v -0.2 -0.2 0.3
v -0.1 -0.2 0.3
v 0 -0.2 0.3
v 0.1 -0.2 0.3
v 0.2 -0.2 0.3
v -0.2 -0.2 0.2
v -0.1 -0.2 0.2
v 0 -0.2 0.2
v 0.1 -0.2 0.2
v 0.2 -0.2 0.2
v 0.3 -0.2 0.2
v -0.1 -0.2 0.1
v 0 -0.2 0.1
v 0.4 -0.2 0.1
v 0.6 -0.2 0.1
v 0 -0.2 0
v 0.1 -0.2 0
v 0.2 -0.2 0
v 0.4 -0.2 0
v 0.5 -0.2 0
v 0.6 -0.2 0
v -0.3 -0.2 -0.1
v -0.1 -0.2 -0.1
v 0 -0.2 -0.1
v 0.1 -0.2 -0.1
v 0.2 -0.2 -0.1
v 0.3 -0.2 -0.1
v 0.5 -0.2 -0.1
v -0.4 -0.2 -0.2
v -0.3 -0.2 -0.2
v -0.2 -0.2 -0.2
v 0 -0.2 -0.2
v 0.1 -0.2 -0.2
v 0.3 -0.2 -0.2
v 0.4 -0.2 -0.2
v -0.4 -0.2 -0.3
v -0.2 -0.2 -0.3
v 0 -0.2 -0.3
v 0.1 -0.2 -0.3
v 0.2 -0.2 -0.3
v 0.4 -0.2 -0.3
v 0.1 -0.2 -0.4
v 0.2 -0.2 -0.4
v 0 -0.2 -0.5
v 0.1 -0.2 -0.5
v 0.1 -0.2 -0.6
v 0.2 -0.2 -0.6
v -0.5 -0.1 0.5
v -0.2 -0.1 0.5
v -0.1 -0.1 0.5
v 0.2 -0.1 0.5
v 0.4 -0.1 0.5
v 0.6 -0.1 0.5
v -0.5 -0.1 0.4
v -0.4 -0.1 0.4
v -0.3 -0.1 0.4
v -0.2 -0.1 0.4
v -0.1 -0.1 0.4
v 0 -0.1 0.4
v 0.1 -0.1 0.4
v 0.4 -0.1 0.4
v 0.5 -0.1 0.4
v -0.5 -0.1 0.3
v -0.4 -0.1 0.3
v -0.3 -0.1 0.3
v -0.2 -0.1 0.3
v 0 -0.1 0.3
v 0.1 -0.1 0.3
v 0.2 -0.1 0.3
v 0.3 -0.1 0.3
v 0.4 -0.1 0.3
v 0.5 -0.1 0.3
v -0.5 -0.1 0.2
v -0.4 -0.1 0.2
v -0.3 -0.1 0.2
v -0.2 -0.1 0.2
v -0.1 -0.1 0.2
v 0 -0.1 0.2
v 0.1 -0.1 0.2
v 0.2 -0.1 0.2
v 0.3 -0.1 0.2
v 0.4 -0.1 0.2
v 0.5 -0.1 0.2
v -0.4 -0.1 0.1
v -0.2 -0.1 0.1
v -0.1 -0.1 0.1
v 0.2 -0.1 0.1
v 0.3 -0.1 0.1
v 0.4 -0.1 0.1
v 0.5 -0.1 0.1
v 0.6 -0.1 0.1
v -0.4 -0.1 0
v -0.3 -0.1 0
v -0.2 -0.1 0
v 0.2 -0.1 0
v 0.3 -0.1 0
v 0.4 -0.1 0
v 0.5 -0.1 0
v 0.6 -0.1 0
v -0.4 -0.1 -0.1
v -0.3 -0.1 -0.1
v -0.2 -0.1 -0.1
v -0.1 -0.1 -0.1
v 0.1 -0.1 -0.1
v 0.2 -0.1 -0.1
v 0.3 -0.1 -0.1
v 0.5 -0.1 -0.1
v 0.6 -0.1 -0.1
v -0.5 -0.1 -0.2
v -0.4 -0.1 -0.2
v -0.3 -0.1 -0.2
v -0.2 -0.1 -0.2
v 0 -0.1 -0.2
v 0.1 -0.1 -0.2
v 0.2 -0.1 -0.2
v 0.3 -0.1 -0.2
v 0.4 -0.1 -0.2
v 0.5 -0.1 -0.2
v 0.6 -0.1 -0.2
v -0.5 -0.1 -0.3
v -0.4 -0.1 -0.3
v -0.2 -0.1 -0.3
v -0.1 -0.1 -0.3
v 0 -0.1 -0.3
v 0.1 -0.1 -0.3
v 0.2 -0.1 -0.3
v 0.3 -0.1 -0.3
v 0.4 -0.1 -0.3
v 0.5 -0.1 -0.3
v -0.4 -0.1 -0.4
v -0.2 -0.1 -0.4
v -0.1 -0.1 -0.4
v 0 -0.1 -0.4
v 0.1 -0.1 -0.4
v 0.2 -0.1 -0.4
v 0.3 -0.1 -0.4
v 0.4 -0.1 -0.4
v -0.4 -0.1 -0.5
v -0.3 -0.1 -0.5
v -0.2 -0.1 -0.5
v -0.1 -0.1 -0.5
v 0 -0.1 -0.5
v 0.1 -0.1 -0.5
v 0.2 -0.1 -0.5
v 0.3 -0.1 -0.5
v -0.5 -0.1 -0.6
v -0.4 -0.1 -0.6
v -0.3 -0.1 -0.6
v -0.1 -0.1 -0.6
v 0 -0.1 -0.6
v 0.1 -0.1 -0.6
v 0.2 -0.1 -0.6
v 0.4 -0.1 -0.6
v 0.5 -0.1 -0.6
v 0.6 -0.1 -0.6
v 0.2 0 0.5
v 0.4 0 0.5
v 0.2 0 0.4
v 0.3 0 0.4
v 0.4 0 0.4
v -0.5 0 0.3
v -0.4 0 0.3
v -0.3 0 0.3
v 0.2 0 0.3
v 0.3 0 0.3
v 0.4 0 0.3
v -0.5 0 0.2
v -0.4 0 0.2
v -0.3 0 0.2
v -0.2 0 0.2
v 0.2 0 0.2
v 0.3 0 0.2
v -0.4 0 0.1
v -0.3 0 0.1
v -0.2 0 0.1
v -0.2 0 -0.3
v -0.1 0 -0.3
v 0.3 0 -0.3
v 0.5 0 -0.3
v -0.4 0 -0.4
v -0.2 0 -0.4
v -0.1 0 -0.4
v 0.3 0 -0.4
v 0.4 0 -0.4
v -0.4 0 -0.5
v -0.3 0 -0.5
v -0.2 0 -0.5
v 0.4 0 -0.6
v 0.5 0 -0.6
v 0 0.1 0.1
v 0.1 0.1 0.1
v -0.1 0.1 0
v 0 0.1 0
v 0.1 0.1 0
v 0.2 0.1 0
v -0.1 0.1 -0.1
v 0 0.1 -0.1
v 0.1 0.1 -0.1
v 0.2 0.1 -0.1
v 0 0.1 -0.2
v 0.1 0.1 -0.2
v -0.2 -0.1 0.5
v -0.1 -0.1 0.5
v 0.2 -0.1 0.5
v 0.3 -0.1 0.5
v -0.1 -0.1 0.4
v 0 -0.1 0.4
v -0.2 -0.1 0.3
v -0.1 -0.1 0.3
v 0 -0.1 0.3
v 0.3 -0.1 0.3
v -0.1 -0.1 0.2
v 0 -0.1 0.2
v 0.2 -0.1 0.2
v 0.3 -0.1 0.2
v -0.1 -0.1 0.1
v 0 -0.1 0.1
v 0.4 -0.1 0.1
v 0.5 -0.1 0.1
v 0.6 -0.1 0.1
v 0.3 -0.1 0
v 0.4 -0.1 0
v 0.5 -0.1 0
v 0.6 -0.1 0
v -0.3 -0.1 -0.1
v -0.2 -0.1 -0.1
v 0.3 -0.1 -0.1
v 0.5 -0.1 -0.1
v -0.4 -0.1 -0.2
v -0.3 -0.1 -0.2
v -0.4 -0.1 -0.3
v -0.2 -0.1 -0.3
v 0 -0.1 -0.3
v 0.1 -0.1 -0.3
v 0 -0.1 -0.4
v 0.1 -0.1 -0.4
v 0.2 -0.1 -0.4
v 0 -0.1 -0.5
v 0.1 -0.1 -0.5
v 0.2 -0.1 -0.5
v 0.1 -0.1 -0.6
v 0.2 -0.1 -0.6
v -0.5 0 0.5
v -0.2 0 0.5
v -0.1 0 0.5
v 0.2 0 0.5
v 0.4 0 0.5
v 0.6 0 0.5
v -0.5 0 0.4
v -0.4 0 0.4
v -0.1 0 0.4
v 0 0 0.4
v 0.1 0 0.4
v 0.2 0 0.4
v 0.4 0 0.4
v 0.5 0 0.4
v -0.5 0 0.3
v -0.4 0 0.3
v -0.3 0 0.3
v -0.2 0 0.3
v -0.1 0 0.3
v 0 0 0.3
v 0.1 0 0.3
v 0.2 0 0.3
v 0.3 0 0.3
v 0.4 0 0.3
v 0.5 0 0.3
v -0.5 0 0.2
v -0.4 0 0.2
v -0.3 0 0.2
v -0.2 0 0.2
v -0.1 0 0.2
v 0 0 0.2
v 0.1 0 0.2
v 0.2 0 0.2
v 0.3 0 0.2
v 0.4 0 0.2
v 0.5 0 0.2
v -0.4 0 0.1
v -0.3 0 0.1
v -0.2 0 0.1
v -0.1 0 0.1
v 0 0 0.1
v 0.1 0 0.1
v 0.2 0 0.1
v 0.3 0 0.1
v 0.4 0 0.1
v 0.5 0 0.1
v 0.6 0 0.1
v -0.4 0 0
v -0.3 0 0
v -0.2 0 0
v -0.1 0 0
v 0 0 0
v 0.1 0 0
v 0.2 0 0
v 0.3 0 0
v 0.4 0 0
v 0.5 0 0
v 0.6 0 0
v -0.4 0 -0.1
v -0.3 0 -0.1
v -0.2 0 -0.1
v -0.1 0 -0.1
v 0 0 -0.1
v 0.1 0 -0.1
v 0.2 0 -0.1
v 0.3 0 -0.1
v 0.5 0 -0.1
v 0.6 0 -0.1
v -0.5 0 -0.2
v -0.4 0 -0.2
v -0.3 0 -0.2
v 0 0 -0.2
v 0.1 0 -0.2
v 0.2 0 -0.2
v 0.3 0 -0.2
v 0.4 0 -0.2
v 0.5 0 -0.2
v 0.6 0 -0.2
v -0.5 0 -0.3
v -0.3 0 -0.3
v -0.2 0 -0.3
v -0.1 0 -0.3
v 0 0 -0.3
v 0.1 0 -0.3
v 0.2 0 -0.3
v 0.3 0 -0.3
v 0.4 0 -0.3
v 0.5 0 -0.3
v -0.4 0 -0.4
v -0.3 0 -0.4
v -0.2 0 -0.4
v -0.1 0 -0.4
v 0 0 -0.4
v 0.1 0 -0.4
v 0.2 0 -0.4
v 0.3 0 -0.4
v -0.4 0 -0.5
v -0.3 0 -0.5
v -0.2 0 -0.5
v -0.1 0 -0.5
v 0 0 -0.5
v 0.1 0 -0.5
v 0.2 0 -0.5
v 0.3 0 -0.5
v 0.4 0 -0.5
v -0.5 0 -0.6
v -0.4 0 -0.6
v -0.3 0 -0.6
v -0.1 0 -0.6
v 0 0 -0.6
v 0.1 0 -0.6
v 0.2 0 -0.6
v 0.4 0 -0.6
v 0.5 0 -0.6
v 0.6 0 -0.6
v 0.2 0.1 0.5
v 0.4 0.1 0.5
v 0.2 0.1 0.4
v 0.3 0.1 0.4
v -0.5 0.1 0.3
v -0.3 0.1 0.3
v 0.1 0.1 0.3
v 0.2 0.1 0.3
v 0.3 0.1 0.3
v 0.4 0.1 0.3
v -0.5 0.1 0.2
v -0.4 0.1 0.2
v -0.3 0.1 0.2
v -0.2 0.1 0.2
v 0 0.1 0.2
v 0.1 0.1 0.2
v 0.2 0.1 0.2
v 0.3 0.1 0.2
v -0.4 0.1 0.1
v -0.3 0.1 0.1
v -0.2 0.1 0.1
v -0.1 0.1 0.1
v 0 0.1 0.1
v 0.1 0.1 0.1
v 0.2 0.1 0.1
v -0.3 0.1 0
v -0.2 0.1 0
v -0.1 0.1 0
v 0 0.1 0
v 0.2 0.1 0
v 0.3 0.1 0
v -0.2 0.1 -0.1
v -0.1 0.1 -0.1
v 0 0.1 -0.1
v 0.1 0.1 -0.1
v 0.2 0.1 -0.1
v 0 0.1 -0.2
v 0.1 0.1 -0.2
v 0.3 0.1 -0.2
v 0.4 0.1 -0.2
v -0.3 0.1 -0.3
v -0.2 0.1 -0.3
v -0.1 0.1 -0.3
v 0.1 0.1 -0.3
v 0.2 0.1 -0.3
v 0.3 0.1 -0.3
v 0.4 0.1 -0.3
v 0.5 0.1 -0.3
v -0.4 0.1 -0.4
v -0.3 0.1 -0.4
v -0.2 0.1 -0.4
v -0.1 0.1 -0.4
v 0.2 0.1 -0.4
v 0.3 0.1 -0.4
v -0.4 0.1 -0.5
v -0.2 0.1 -0.5
v 0.3 0.1 -0.5
v 0.4 0.1 -0.5
v 0.4 0.1 -0.6
v 0.5 0.1 -0.6
v 0 0.2 0.1
v 0.1 0.2 0.1
v 0.2 0.2 0.1
v -0.1 0.2 0
v 0 0.2 0
v 0.1 0.2 0
v 0.2 0.2 0
v -0.1 0.2 -0.1
v 0 0.2 -0.1
v 0.1 0.2 -0.1
v 0.2 0.2 -0.1
v 0 0.2 -0.2
v 0.1 0.2 -0.2

# faces
f 8/2/1 2/2/1 1/2/1
f 9/3/1 3/3/1 2/3/1
f 9/2/1 2/2/1 8/2/1
f 10/3/1 3/3/1 9/3/1
f 11/2/1 5/2/1 4/2/1
f 12/2/1 5/2/1 11/2/1
f 13/2/1 7/2/1 6/2/1
f 14/2/1 7/2/1 13/2/1
f 15/2/1 11/2/1 10/2/1
f 16/2/1 11/2/1 15/2/1
f 19/2/1 18/2/1 17/2/1
f 20/2/1 18/2/1 19/2/1
f 25/1/1 22/1/1 21/1/1
f 26/1/1 22/1/1 25/1/1
f 27/2/1 24/2/1 23/2/1
f 28/2/1 24/2/1 27/2/1
f 33/2/1 30/2/1 29/2/1
f 34/2/1 30/2/1 33/2/1
f 36/2/1 32/2/1 31/2/1
f 37/2/1 32/2/1 36/2/1
f 38/2/1 35/2/1 34/2/1
f 39/2/1 35/2/1 38/2/1
f 44/2/1 41/2/1 40/2/1
f 45/2/1 41/2/1 44/2/1
f 46/1/1 43/1/1 42/1/1
f 47/1/1 43/1/1 46/1/1
f 52/2/1 49/2/1 48/2/1
f 53/2/1 49/2/1 52/2/1
f 54/2/1 51/2/1 50/2/1
f 55/2/1 51/2/1 54/2/1
f 61/2/1 56/2/1 55/2/1
f 62/2/1 56/2/1 61/2/1
f 64/2/1 58/2/1 57/2/1
f 65/2/1 58/2/1 64/2/1
f 66/1/1 60/1/1 59/1/1
f 67/1/1 60/1/1 66/1/1
f 68/2/1 64/2/1 63/2/1
f 69/2/1 64/2/1 68/2/1
f 75/3/1 71/3/1 70/3/1
f 76/2/1 72/2/1 71/2/1
f 76/3/1 71/3/1 75/3/1
f 77/2/1 72/2/1 76/2/1
f 80/2/1 74/2/1 73/2/1
f 81/2/1 74/2/1 80/2/1
f 83/3/1 79/3/1 78/3/1
f 84/3/1 79/3/1 83/3/1
f 86/2/1 83/2/1 82/2/1
f 87/2/1 83/2/1 86/2/1
f 88/2/1 86/2/1 85/2/1
f 89/2/1 86/2/1 88/2/1
f 97/3/1 91/3/1 90/3/1
f 98/2/1 92/2/1 91/2/1
f 98/3/1 91/3/1 97/3/1
f 99/2/1 92/2/1 98/2/1
f 100/2/1 92/2/1 99/2/1
f 101/3/1 94/3/1 93/3/1
f 102/2/1 96/2/1 95/2/1
f 102/3/1 94/3/1 101/3/1
f 102/2/1 95/2/1 94/2/1
f 103/2/1 96/2/1 102/2/1
f 106/2/1 96/2/1 103/2/1
f 107/2/1 96/2/1 106/2/1
f 108/2/1 105/2/1 104/2/1
f 109/2/1 105/2/1 108/2/1
f 111/2/1 108/2/1 107/2/1
f 112/2/1 108/2/1 111/2/1
f 113/3/1 110/3/1 109/3/1
f 114/3/1 110/3/1 113/3/1
f 119/2/1 116/2/1 115/2/1
f 120/2/1 116/2/1 119/2/1
f 123/2/1 118/2/1 117/2/1
f 124/2/1 118/2/1 123/2/1
f 131/2/1 122/2/1 121/2/1
f 132/2/1 122/2/1 131/2/1
f 133/2/1 126/2/1 125/2/1
f 134/2/1 126/2/1 133/2/1
f 135/2/1 128/2/1 127/2/1
f 136/2/1 128/2/1 135/2/1
f 137/2/1 130/2/1 129/2/1
f 138/2/1 130/2/1 137/2/1
f 143/2/1 140/2/1 139/2/1
f 144/2/1 140/2/1 143/2/1
f 145/2/1 142/2/1 141/2/1
f 146/2/1 142/2/1 145/2/1
f 147/2/1 142/2/1 146/2/1
f 157/1/1 149/1/1 148/1/1
f 158/2/1 150/2/1 149/2/1
f 158/1/1 149/1/1 157/1/1
f 159/2/1 150/2/1 158/2/1
f 160/2/1 152/2/1 151/2/1
f 161/3/1 153/3/1 152/3/1
f 161/2/1 152/2/1 160/2/1
f 162/3/1 153/3/1 161/3/1
f 163/2/1 155/2/1 154/2/1
f 164/2/1 155/2/1 163/2/1
f 165/2/1 157/2/1 156/2/1
f 166/2/1 157/2/1 165/2/1
f 169/2/1 168/2/1 167/2/1
f 170/2/1 168/2/1 169/2/1
f 175/3/1 172/3/1 171/3/1
f 176/3/1 172/3/1 175/3/1
f 177/2/1 174/2/1 173/2/1
f 178/2/1 174/2/1 177/2/1
f 184/2/1 180/2/1 179/2/1
f 185/2/1 180/2/1 184/2/1
f 186/2/1 182/2/1 181/2/1
f 187/1/1 183/1/1 182/1/1
f 187/2/1 182/2/1 186/2/1
f 188/1/1 183/1/1 187/1/1
f 191/2/1 190/2/1 189/2/1
f 192/2/1 190/2/1 191/2/1
f 197/2/1 194/2/1 193/2/1
f 198/2/1 194/2/1 197/2/1
f 199/2/1 196/2/1 195/2/1
f 200/2/1 196/2/1 199/2/1
f 201/2/2 202/2/2 205/2/2
f 205/2/2 202/2/2 206/2/2
f 203/2/2 204/2/2 207/2/2
f 207/2/2 204/2/2 208/2/2
f 209/1/2 210/1/2 213/1/2
f 213/1/2 210/1/2 214/1/2
f 211/2/2 212/2/2 215/2/2
f 215/2/2 212/2/2 216/2/2
f 217/2/2 218/2/2 221/2/2
f 221/2/2 218/2/2 222/2/2
f 219/2/2 220/2/2 224/2/2
f 224/2/2 220/2/2 225/2/2
f 222/2/2 223/2/2 228/2/2
f 228/2/2 223/2/2 229/2/2
f 226/2/2 227/2/2 231/2/2
f 231/2/2 227/2/2 232/2/2
f 229/2/2 230/2/2 233/2/2
f 233/2/2 230/2/2 234/2/2
f 235/2/2 236/2/2 237/2/2
f 237/2/2 236/2/2 238/2/2
f 239/3/2 240/3/2 242/3/2
f 240/2/2 241/2/2 243/2/2
f 242/3/2 240/3/2 243/3/2
f 243/2/2 241/2/2 244/2/2
f 245/2/2 246/2/2 249/2/2
f 249/2/2 246/2/2 250/2/2
f 247/2/2 248/2/2 251/2/2
f 251/2/2 248/2/2 252/2/2
f 253/1/2 254/1/2 256/1/2
f 254/2/2 255/2/2 257/2/2
f 256/1/2 254/1/2 257/1/2
f 257/2/2 255/2/2 258/2/2
f 259/3/2 260/3/2 266/3/2
f 260/2/2 261/2/2 267/2/2
f 266/3/2 260/3/2 267/3/2
f 267/2/2 261/2/2 268/2/2
f 262/2/2 263/2/2 269/2/2
f 269/2/2 263/2/2 270/2/2
f 264/2/2 265/2/2 271/2/2
f 271/2/2 265/2/2 272/2/2
f 273/2/2 274/2/2 277/2/2
f 274/3/2 275/3/2 278/3/2
f 277/2/2 274/2/2 278/2/2
f 275/2/2 276/2/2 279/2/2
f 278/3/2 275/3/2 279/3/2
f 279/2/2 276/2/2 280/2/2
f 281/2/2 282/2/2 287/2/2
f 287/2/2 282/2/2 288/2/2
f 283/2/2 284/2/2 289/2/2
f 289/2/2 284/2/2 290/2/2
f 285/2/2 286/2/2 291/2/2
f 291/2/2 286/2/2 292/2/2
f 290/3/2 291/3/2 293/3/2
f 293/3/2 291/3/2 294/3/2
f 295/2/2 296/2/2 300/2/2
f 300/2/2 296/2/2 301/2/2
f 301/2/2 296/2/2 302/2/2
f 297/2/2 298/2/2 303/2/2
f 303/2/2 298/2/2 304/2/2
f 304/2/2 298/2/2 305/2/2
f 299/2/2 300/2/2 306/2/2
f 306/2/2 300/2/2 307/2/2
f 307/2/2 300/2/2 308/2/2
f 308/2/2 300/2/2 309/2/2
f 310/2/2 311/2/2 312/2/2
f 309/2/2 310/2/2 312/2/2
f 312/2/2 311/2/2 313/2/2
f 313/2/2 311/2/2 314/2/2
f 313/3/2 314/3/2 316/3/2
f 314/2/2 315/2/2 317/2/2
f 316/3/2 314/3/2 317/3/2
f 317/2/2 315/2/2 318/2/2
f 319/2/2 320/2/2 323/2/2
f 323/2/2 320/2/2 324/2/2
f 324/2/2 320/2/2 325/2/2
f 321/2/2 322/2/2 327/2/2
f 327/2/2 322/2/2 328/2/2
f 326/2/2 327/2/2 333/2/2
f 333/2/2 327/2/2 334/2/2
f 329/2/2 330/2/2 336/2/2
f 336/2/2 330/2/2 337/2/2
f 331/2/2 332/2/2 338/2/2
f 338/2/2 332/2/2 339/2/2
f 334/2/2 335/2/2 340/2/2
f 333/2/2 334/2/2 340/2/2
f 340/2/2 335/2/2 341/2/2
f 342/2/2 343/2/2 346/2/2
f 346/2/2 343/2/2 347/2/2
f 344/2/2 345/2/2 353/2/2
f 353/2/2 345/2/2 354/2/2
f 348/2/2 349/2/2 357/2/2
f 357/2/2 349/2/2 358/2/2
f 351/2/2 352/2/2 359/2/2
f 350/2/2 351/2/2 359/2/2
f 359/2/2 352/2/2 360/2/2
f 355/3/2 356/3/2 361/3/2
f 361/3/2 356/3/2 362/3/2
f 363/2/2 364/2/2 365/2/2
f 365/2/2 364/2/2 366/2/2
f 367/2/2 368/2/2 369/2/2
f 369/2/2 368/2/2 370/2/2
f 371/2/2 372/2/2 374/2/2
f 374/2/2 372/2/2 375/2/2
f 373/2/2 374/2/2 379/2/2
f 379/2/2 374/2/2 380/2/2
f 375/2/2 376/2/2 381/2/2
f 376/3/2 377/3/2 382/3/2
f 381/2/2 376/2/2 382/2/2
f 377/2/2 378/2/2 383/2/2
f 382/3/2 377/3/2 383/3/2
f 383/2/2 378/2/2 384/2/2
f 388/2/3 386/2/3 385/2/3
f 389/2/3 386/2/3 388/2/3
f 390/2/3 388/2/3 387/2/3
f 391/2/3 388/2/3 390/2/3
f 394/2/3 392/2/3 391/2/3
f 395/2/3 392/2/3 394/2/3
f 397/2/3 394/2/3 393/2/3
f 398/2/3 394/2/3 397/2/3
f 400/2/3 396/2/3 395/2/3
f 401/2/3 396/2/3 400/2/3
f 402/2/3 400/2/3 399/2/3
f 403/2/3 400/2/3 402/2/3
f 406/2/3 405/2/3 404/2/3
f 407/2/3 405/2/3 406/2/3
f 410/1/3 409/1/3 408/1/3
f 411/1/3 409/1/3 410/1/3
f 414/2/3 413/2/3 412/2/3
f 415/2/3 413/2/3 414/2/3
f 416/2/3 413/2/3 415/2/3
f 419/3/3 418/3/3 417/3/3
f 420/3/3 418/3/3 419/3/3
f 425/2/3 422/2/3 421/2/3
f 426/2/3 422/2/3 425/2/3
f 427/2/3 424/2/3 423/2/3
f 428/2/3 424/2/3 427/2/3
f 431/2/3 430/2/3 429/2/3
f 432/2/3 430/2/3 431/2/3
f 435/2/3 434/2/3 433/2/3
f 436/2/3 434/2/3 435/2/3
f 439/2/3 438/2/3 437/2/3
f 440/2/3 438/2/3 439/2/3
f 445/2/3 442/2/3 441/2/3
f 446/2/3 442/2/3 445/2/3
f 447/2/3 444/2/3 443/2/3
f 448/2/3 444/2/3 447/2/3
f 451/2/3 450/2/3 449/2/3
f 452/2/3 450/2/3 451/2/3
f 455/2/3 454/2/3 453/2/3
f 456/2/3 455/2/3 453/2/3
f 457/2/3 455/2/3 456/2/3
f 460/3/3 458/3/3 457/3/3
f 461/3/3 458/3/3 460/3/3
f 462/2/3 460/2/3 459/2/3
f 462/2/3 461/2/3 460/2/3
f 463/2/3 461/2/3 462/2/3
f 465/2/3 464/2/3 463/2/3
f 466/2/3 464/2/3 465/2/3
f 467/3/3 466/3/3 465/3/3
f 468/3/3 466/3/3 467/3/3
f 471/2/3 470/2/3 469/2/3
f 472/2/3 471/2/3 469/2/3
f 473/2/3 471/2/3 472/2/3
f 477/2/3 475/2/3 474/2/3
f 478/2/3 475/2/3 477/2/3
f 479/2/3 477/2/3 476/2/3
f 480/2/3 477/2/3 479/2/3
f 485/2/3 482/2/3 481/2/3
f 486/2/3 484/2/3 483/2/3
f 487/2/3 484/2/3 486/2/3
f 488/2/3 485/2/3 481/2/3
f 489/2/3 485/2/3 488/2/3
f 492/2/3 491/2/3 490/2/3
f 493/2/3 491/2/3 492/2/3
f 496/2/3 495/2/3 494/2/3
f 497/2/3 496/2/3 494/2/3
f 498/2/3 496/2/3 497/2/3
f 501/2/3 500/2/3 499/2/3
f 502/2/3 500/2/3 501/2/3
f 505/2/3 504/2/3 503/2/3
f 506/2/3 504/2/3 505/2/3
f 509/2/3 508/2/3 507/2/3
f 510/2/3 508/2/3 509/2/3
f 513/2/3 512/2/3 511/2/3
f 514/2/3 512/2/3 513/2/3
f 517/2/3 516/2/3 515/2/3
f 518/2/3 516/2/3 517/2/3
f 523/2/3 520/2/3 519/2/3
f 524/2/3 520/2/3 523/2/3
f 525/3/3 522/3/3 521/3/3
f 526/3/3 522/3/3 525/3/3
f 529/2/3 528/2/3 527/2/3
f 530/2/3 528/2/3 529/2/3
f 532/2/3 530/2/3 529/2/3
f 533/1/3 531/1/3 530/1/3
f 533/2/3 530/2/3 532/2/3
f 534/1/3 531/1/3 533/1/3
f 535/2/3 534/2/3 533/2/3
f 536/2/3 534/2/3 535/2/3
f 539/2/3 538/2/3 537/2/3
f 540/2/3 538/2/3 539/2/3
f 543/2/3 542/2/3 541/2/3
f 544/2/3 542/2/3 543/2/3
f 547/2/3 546/2/3 545/2/3
f 548/2/3 546/2/3 547/2/3
f 551/1/3 550/1/3 549/1/3
f 552/1/3 550/1/3 551/1/3
f 555/2/3 554/2/3 553/2/3
f 556/2/3 554/2/3 555/2/3
f 559/2/3 558/2/3 557/2/3
f 560/2/3 558/2/3 559/2/3
f 563/3/3 562/3/3 561/3/3
f 564/3/3 562/3/3 563/3/3
f 565/2/3 564/2/3 563/2/3
f 566/2/3 564/2/3 565/2/3
f 569/2/3 568/2/3 567/2/3
f 570/2/3 568/2/3 569/2/3
f 571/2/4 572/2/4 573/2/4
f 573/2/4 572/2/4 574/2/4
f 575/3/4 576/3/4 577/3/4
f 577/3/4 576/3/4 578/3/4
f 577/2/4 578/2/4 580/2/4
f 580/2/4 578/2/4 581/2/4
f 579/2/4 580/2/4 582/2/4
f 582/2/4 580/2/4 583/2/4
f 584/2/4 585/2/4 586/2/4
f 586/2/4 585/2/4 587/2/4
f 588/2/4 589/2/4 590/2/4
f 590/2/4 589/2/4 591/2/4
f 592/2/4 593/2/4 595/2/4
f 595/2/4 593/2/4 596/2/4
f 594/2/4 595/2/4 597/2/4
f 597/2/4 595/2/4 598/2/4
f 599/2/4 600/2/4 603/2/4
f 603/2/4 600/2/4 604/2/4
f 601/2/4 602/2/4 605/2/4
f 605/2/4 602/2/4 606/2/4
f 607/1/4 608/1/4 609/1/4
f 609/1/4 608/1/4 610/1/4
f 611/2/4 612/2/4 613/2/4
f 613/2/4 612/2/4 614/2/4
f 615/3/4 616/3/4 617/3/4
f 617/3/4 616/3/4 618/3/4
f 617/2/4 618/2/4 619/2/4
f 619/2/4 618/2/4 620/2/4
f 621/2/4 622/2/4 623/2/4
f 623/2/4 622/2/4 624/2/4
f 625/2/4 626/2/4 627/2/4
f 627/2/4 626/2/4 628/2/4
f 629/2/4 630/2/4 631/2/4
f 631/2/4 630/2/4 632/2/4
f 633/2/4 634/2/4 635/2/4
f 635/2/4 634/2/4 636/2/4
f 637/2/4 638/2/4 639/2/4
f 639/2/4 638/2/4 640/2/4
f 641/1/4 642/1/4 643/1/4
f 643/1/4 642/1/4 644/1/4
f 644/2/4 645/2/4 646/2/4
f 646/2/4 645/2/4 647/2/4
f 647/2/4 648/2/4 650/2/4
f 650/2/4 648/2/4 651/2/4
f 649/2/4 650/2/4 654/2/4
f 654/2/4 650/2/4 655/2/4
f 652/3/4 653/3/4 657/3/4
f 657/3/4 653/3/4 658/3/4
f 655/2/4 656/2/4 659/2/4
f 659/2/4 656/2/4 660/2/4
f 661/2/4 662/2/4 663/2/4
f 663/2/4 662/2/4 664/2/4
f 665/2/4 666/2/4 667/2/4
f 667/2/4 666/2/4 668/2/4
f 667/1/4 668/1/4 669/1/4
f 669/1/4 668/1/4 670/1/4
f 671/2/4 672/2/4 673/2/4
f 673/2/4 672/2/4 674/2/4
f 675/3/4 676/3/4 678/3/4
f 678/3/4 676/3/4 679/3/4
f 677/2/4 678/2/4 680/2/4
f 680/2/4 678/2/4 681/2/4
f 681/2/4 678/2/4 682/2/4
f 683/2/4 684/2/4 685/2/4
f 685/2/4 684/2/4 686/2/4
f 686/2/4 687/2/4 688/2/4
f 688/2/4 687/2/4 689/2/4
f 689/2/4 690/2/4 692/2/4
f 691/2/4 692/2/4 693/2/4
f 692/2/4 690/2/4 694/2/4
f 693/2/4 692/2/4 694/2/4
f 694/2/4 690/2/4 695/2/4
f 696/2/4 697/2/4 698/2/4
f 696/2/4 698/2/4 700/2/4
f 698/2/4 699/2/4 700/2/4
f 700/2/4 699/2/4 701/2/4
f 701/2/4 699/2/4 702/2/4
f 702/2/4 699/2/4 703/2/4
f 704/2/4 705/2/4 706/2/4
f 706/2/4 705/2/4 707/2/4
f 707/2/4 708/2/4 709/2/4
f 709/2/4 708/2/4 710/2/4
f 711/2/4 712/2/4 713/2/4
f 713/2/4 712/2/4 714/2/4
f 714/2/4 715/2/4 716/2/4
f 716/2/4 715/2/4 717/2/4
f 718/2/4 719/2/4 720/2/4
f 720/2/4 719/2/4 721/2/4
f 721/2/4 719/2/4 722/2/4
f 723/2/4 724/2/4 725/2/4
f 725/2/4 724/2/4 726/2/4
f 727/2/4 728/2/4 729/2/4
f 729/2/4 728/2/4 730/2/4
f 731/2/4 732/2/4 733/2/4
f 733/2/4 732/2/4 734/2/4
f 733/3/4 734/3/4 735/3/4
f 735/3/4 734/3/4 736/3/4
f 735/2/4 736/2/4 737/2/4
f 737/2/4 736/2/4 738/2/4
f 737/1/4 738/1/4 739/1/4
f 739/1/4 738/1/4 740/1/4
f 739/2/4 740/2/4 742/2/4
f 742/2/4 740/2/4 743/2/4
f 741/2/4 742/2/4 744/2/4
f 744/2/4 742/2/4 745/2/4
f 745/2/4 746/2/4 747/2/4
f 747/2/4 746/2/4 748/2/4
f 748/2/4 749/2/4 751/2/4
f 751/2/4 749/2/4 752/2/4
f 750/2/4 751/2/4 753/2/4
f 753/2/4 751/2/4 754/2/4
f 760/2/5 756/2/5 755/2/5
f 761/2/5 756/2/5 760/2/5
f 763/2/5 760/2/5 759/2/5
f 763/2/5 761/2/5 760/2/5
f 764/2/5 761/2/5 763/2/5
f 765/1/5 762/1/5 761/1/5
f 765/2/5 761/2/5 764/2/5
f 766/1/5 762/1/5 765/1/5
f 768/2/5 758/2/5 757/2/5
f 769/2/5 766/2/5 765/2/5
f 769/2/5 765/2/5 764/2/5
f 770/2/5 766/2/5 769/2/5
f 771/2/5 766/2/5 770/2/5
f 772/2/5 768/2/5 767/2/5
f 773/2/5 758/2/5 768/2/5
f 773/2/5 768/2/5 772/2/5
f 774/2/5 758/2/5 773/2/5
f 775/3/5 771/3/5 770/3/5
f 776/2/5 772/2/5 771/2/5
f 776/3/5 771/3/5 775/3/5
f 776/2/5 773/2/5 772/2/5
f 779/2/5 773/2/5 776/2/5
f 779/2/5 776/2/5 775/2/5
f 780/2/5 773/2/5 779/2/5
f 781/2/5 773/2/5 780/2/5
f 782/2/5 778/2/5 777/2/5
f 783/2/5 778/2/5 782/2/5
f 784/2/5 778/2/5 783/2/5
f 786/2/5 779/2/5 775/2/5
f 787/1/5 780/1/5 779/1/5
f 787/2/5 779/2/5 786/2/5
f 788/3/5 781/3/5 780/3/5
f 788/1/5 780/1/5 787/1/5
f 789/2/5 782/2/5 781/2/5
f 789/3/5 781/3/5 788/3/5
f 789/2/5 783/2/5 782/2/5
f 790/2/5 783/2/5 789/2/5
f 791/2/5 783/2/5 790/2/5
f 793/2/5 787/2/5 786/2/5
f 793/2/5 786/2/5 785/2/5
f 793/2/5 788/2/5 787/2/5
f 794/2/5 788/2/5 793/2/5
f 795/2/5 788/2/5 794/2/5
f 796/2/5 788/2/5 795/2/5
f 797/2/5 790/2/5 789/2/5
f 799/2/5 793/2/5 792/2/5
f 799/2/5 794/2/5 793/2/5
f 800/2/5 794/2/5 799/2/5
f 801/3/5 796/3/5 795/3/5
f 802/3/5 796/3/5 801/3/5
f 803/2/5 798/2/5 797/2/5
f 803/2/5 797/2/5 789/2/5
f 804/2/5 798/2/5 803/2/5
f 805/2/5 802/2/5 801/2/5
f 807/2/5 805/2/5 801/2/5
f 807/2/5 806/2/5 805/2/5
f 808/2/5 806/2/5 807/2/5
f 809/2/5 806/2/5 808/2/5
f 810/2/5 806/2/5 809/2/5
f 817/2/5 812/2/5 811/2/5
f 818/2/5 812/2/5 817/2/5
f 819/2/5 812/2/5 818/2/5
f 820/2/5 812/2/5 819/2/5
f 821/2/5 814/2/5 813/2/5
f 822/2/5 814/2/5 821/2/5
f 823/2/5 814/2/5 822/2/5
f 824/2/5 816/2/5 815/2/5
f 825/2/5 816/2/5 824/2/5
f 826/3/5 818/3/5 817/3/5
f 827/2/5 819/2/5 818/2/5
f 827/3/5 818/3/5 826/3/5
f 828/2/5 819/2/5 827/2/5
f 830/3/5 823/3/5 822/3/5
f 831/2/5 814/2/5 823/2/5
f 831/3/5 823/3/5 830/3/5
f 832/2/5 814/2/5 831/2/5
f 834/1/5 825/1/5 824/1/5
f 835/2/5 816/2/5 825/2/5
f 835/1/5 825/1/5 834/1/5
f 838/2/5 829/2/5 828/2/5
f 839/2/5 829/2/5 838/2/5
f 841/2/5 831/2/5 830/2/5
f 842/2/5 831/2/5 841/2/5
f 844/2/5 834/2/5 833/2/5
f 844/2/5 835/2/5 834/2/5
f 845/2/5 835/2/5 844/2/5
f 846/2/5 816/2/5 835/2/5
f 846/2/5 835/2/5 845/2/5
f 847/2/5 837/2/5 836/2/5
f 848/2/5 840/2/5 839/2/5
f 849/2/5 840/2/5 848/2/5
f 850/2/5 844/2/5 843/2/5
f 851/1/5 845/1/5 844/1/5
f 851/2/5 844/2/5 850/2/5
f 852/3/5 846/3/5 845/3/5
f 852/1/5 845/1/5 851/1/5
f 853/2/5 816/2/5 846/2/5
f 853/3/5 846/3/5 852/3/5
f 854/2/5 816/2/5 853/2/5
f 855/2/5 847/2/5 836/2/5
f 855/2/5 849/2/5 848/2/5
f 855/2/5 848/2/5 847/2/5
f 856/2/5 849/2/5 855/2/5
f 857/2/5 849/2/5 856/2/5
f 858/3/5 851/3/5 850/3/5
f 859/2/5 852/2/5 851/2/5
f 859/3/5 851/3/5 858/3/5
f 860/2/5 852/2/5 859/2/5
f 863/2/5 855/2/5 836/2/5
f 863/3/5 856/3/5 855/3/5
f 864/1/5 857/1/5 856/1/5
f 864/3/5 856/3/5 863/3/5
f 865/2/5 849/2/5 857/2/5
f 865/1/5 857/1/5 864/1/5
f 866/2/5 849/2/5 865/2/5
f 870/2/5 862/2/5 861/2/5
f 871/2/5 862/2/5 870/2/5
f 872/2/5 863/2/5 836/2/5
f 873/1/5 864/1/5 863/1/5
f 873/2/5 863/2/5 872/2/5
f 874/1/5 864/1/5 873/1/5
f 877/2/5 868/2/5 867/2/5
f 878/2/5 868/2/5 877/2/5
f 879/2/5 870/2/5 869/2/5
f 880/2/5 870/2/5 879/2/5
f 881/3/5 871/3/5 870/3/5
f 881/2/5 870/2/5 880/2/5
f 882/3/5 871/3/5 881/3/5
f 885/2/5 876/2/5 875/2/5
f 886/2/5 876/2/5 885/2/5
f 887/2/5 876/2/5 886/2/5
f 888/1/5 878/1/5 877/1/5
f 889/1/5 878/1/5 888/1/5
f 891/2/5 882/2/5 881/2/5
f 891/2/5 881/2/5 880/2/5
f 892/2/5 882/2/5 891/2/5
f 893/2/5 884/2/5 883/2/5
f 893/2/5 885/2/5 884/2/5
f 894/2/5 885/2/5 893/2/5
f 895/3/5 887/3/5 886/3/5
f 896/3/5 887/3/5 895/3/5
f 897/2/5 890/2/5 889/2/5
f 897/2/5 889/2/5 888/2/5
f 898/2/5 890/2/5 897/2/5
f 899/2/5 890/2/5 898/2/5
f 901/2/5 893/2/5 883/2/5
f 903/1/5 895/1/5 894/1/5
f 904/2/5 896/2/5 895/2/5
f 904/1/5 895/1/5 903/1/5
f 905/2/5 896/2/5 904/2/5
f 907/1/5 899/1/5 898/1/5
f 908/2/5 900/2/5 899/2/5
f 908/1/5 899/1/5 907/1/5
f 909/2/5 901/2/5 883/2/5
f 910/3/5 902/3/5 901/3/5
f 910/2/5 901/2/5 909/2/5
f 911/2/5 903/2/5 902/2/5
f 911/3/5 902/3/5 910/3/5
f 911/2/5 904/2/5 903/2/5
f 912/1/5 905/1/5 904/1/5
f 912/2/5 904/2/5 911/2/5
f 913/2/5 906/2/5 905/2/5
f 913/1/5 905/1/5 912/1/5
f 914/2/5 906/2/5 913/2/5
f 915/2/5 908/2/5 907/2/5
f 916/2/5 900/2/5 908/2/5
f 916/2/5 908/2/5 915/2/5
f 917/2/5 882/2/5 892/2/5
f 918/2/5 882/2/5 917/2/5
f 921/2/5 920/2/5 919/2/5
f 922/2/5 920/2/5 921/2/5
f 923/2/5 920/2/5 922/2/5
f 927/3/5 922/3/5 921/3/5
f 928/2/5 923/2/5 922/2/5
f 928/3/5 922/3/5 927/3/5
f 929/2/5 923/2/5 928/2/5
f 930/2/5 926/2/5 925/2/5
f 930/2/5 925/2/5 924/2/5
f 931/2/5 926/2/5 930/2/5
f 932/2/5 926/2/5 931/2/5
f 934/2/5 928/2/5 927/2/5
f 935/2/5 928/2/5 934/2/5
f 936/1/5 932/1/5 931/1/5
f 937/2/5 933/2/5 932/2/5
f 937/1/5 932/1/5 936/1/5
f 938/2/5 933/2/5 937/2/5
f 944/2/5 940/2/5 939/2/5
f 945/2/5 940/2/5 944/2/5
f 946/2/5 942/2/5 941/2/5
f 947/2/5 942/2/5 946/2/5
f 948/2/5 944/2/5 943/2/5
f 949/2/5 944/2/5 948/2/5
f 950/2/5 944/2/5 949/2/5
f 951/2/5 942/2/5 947/2/5
f 952/2/5 942/2/5 951/2/5
f 956/2/5 954/2/5 953/2/5
f 957/2/5 954/2/5 956/2/5
f 959/2/5 956/2/5 955/2/5
f 960/2/5 956/2/5 959/2/5
f 961/2/5 958/2/5 957/2/5
f 962/2/5 958/2/5 961/2/5
f 963/3/5 961/3/5 960/3/5
f 964/3/5 961/3/5 963/3/5
f 965/2/6 966/2/6 969/2/6
f 965/2/6 969/2/6 971/2/6
f 969/1/6 970/1/6 972/1/6
f 971/2/6 969/2/6 972/2/6
f 972/1/6 970/1/6 973/1/6
f 967/2/6 968/2/6 974/2/6
f 972/2/6 973/2/6 975/2/6
f 975/2/6 973/2/6 976/2/6
f 967/2/6 974/2/6 977/2/6
f 977/2/6 974/2/6 978/2/6
f 975/3/6 976/3/6 979/3/6
f 979/3/6 976/3/6 980/3/6
f 982/2/6 983/2/6 985/2/6
f 981/2/6 982/2/6 985/2/6
f 985/2/6 983/2/6 986/2/6
f 986/2/6 983/2/6 987/2/6
f 984/2/6 985/2/6 990/2/6
f 985/2/6 986/2/6 990/2/6
f 990/2/6 986/2/6 991/2/6
f 988/2/6 989/2/6 993/2/6
f 992/2/6 993/2/6 994/2/6
f 993/2/6 989/2/6 995/2/6
f 994/2/6 993/2/6 995/2/6
f 996/2/6 997/2/6 998/2/6
f 998/2/6 997/2/6 999/2/6
f 998/2/6 999/2/6 1001/2/6
f 999/2/6 1000/2/6 1001/2/6
f 1001/2/6 1000/2/6 1002/2/6
f 1002/2/6 1000/2/6 1003/2/6
f 1002/2/6 1003/2/6 1004/2/6
f 1004/2/6 1003/2/6 1005/2/6
f 1006/2/6 1007/2/6 1012/2/6
f 1012/2/6 1007/2/6 1013/2/6
f 1008/2/6 1009/2/6 1014/2/6
f 1014/2/6 1009/2/6 1015/2/6
f 1015/2/6 1009/2/6 1016/2/6
f 1016/2/6 1009/2/6 1017/2/6
f 1010/2/6 1011/2/6 1018/2/6
f 1018/2/6 1011/2/6 1019/2/6
f 1012/3/6 1013/3/6 1020/3/6
f 1013/2/6 1007/2/6 1021/2/6
f 1020/3/6 1013/3/6 1021/3/6
f 1021/2/6 1007/2/6 1022/2/6
f 1022/2/6 1007/2/6 1023/2/6
f 1015/3/6 1016/3/6 1025/3/6
f 1016/2/6 1017/2/6 1026/2/6
f 1025/3/6 1016/3/6 1026/3/6
f 1026/2/6 1017/2/6 1027/2/6
f 1018/1/6 1019/1/6 1029/1/6
f 1019/2/6 1011/2/6 1030/2/6
f 1029/1/6 1019/1/6 1030/1/6
f 1022/2/6 1023/2/6 1033/2/6
f 1023/3/6 1024/3/6 1034/3/6
f 1033/2/6 1023/2/6 1034/2/6
f 1034/3/6 1024/3/6 1035/3/6
f 1025/2/6 1026/2/6 1036/2/6
f 1036/2/6 1026/2/6 1037/2/6
f 1028/2/6 1029/2/6 1039/2/6
f 1029/2/6 1030/2/6 1039/2/6
f 1039/2/6 1030/2/6 1040/2/6
f 1030/2/6 1011/2/6 1041/2/6
f 1040/2/6 1030/2/6 1041/2/6
f 1031/2/6 1032/2/6 1042/2/6
f 1034/2/6 1035/2/6 1044/2/6
f 1044/2/6 1035/2/6 1045/2/6
f 1038/2/6 1039/2/6 1048/2/6
f 1039/1/6 1040/1/6 1049/1/6
f 1048/2/6 1039/2/6 1049/2/6
f 1040/3/6 1041/3/6 1050/3/6
f 1049/1/6 1040/1/6 1050/1/6
f 1041/2/6 1011/2/6 1051/2/6
f 1050/3/6 1041/3/6 1051/3/6
f 1051/2/6 1011/2/6 1052/2/6
f 1042/2/6 1043/2/6 1053/2/6
f 1031/2/6 1042/2/6 1053/2/6
f 1053/2/6 1043/2/6 1054/2/6
f 1046/2/6 1047/2/6 1057/2/6
f 1057/2/6 1047/2/6 1058/2/6
f 1048/3/6 1049/3/6 1059/3/6
f 1049/2/6 1050/2/6 1060/2/6
f 1059/3/6 1049/3/6 1060/3/6
f 1060/2/6 1050/2/6 1061/2/6
f 1031/2/6 1053/2/6 1064/2/6
f 1053/3/6 1054/3/6 1064/3/6
f 1054/1/6 1055/1/6 1065/1/6
f 1064/3/6 1054/3/6 1065/3/6
f 1065/1/6 1055/1/6 1066/1/6
f 1056/2/6 1057/2/6 1067/2/6
f 1067/2/6 1057/2/6 1068/2/6
f 1058/2/6 1059/2/6 1069/2/6
f 1069/2/6 1059/2/6 1070/2/6
f 1062/2/6 1063/2/6 1072/2/6
f 1072/2/6 1063/2/6 1073/2/6
f 1031/2/6 1064/2/6 1074/2/6
f 1064/1/6 1065/1/6 1075/1/6
f 1074/2/6 1064/2/6 1075/2/6
f 1075/1/6 1065/1/6 1076/1/6
f 1068/2/6 1069/2/6 1077/2/6
f 1077/2/6 1069/2/6 1078/2/6
f 1071/2/6 1072/2/6 1080/2/6
f 1080/2/6 1072/2/6 1081/2/6
f 1072/3/6 1073/3/6 1082/3/6
f 1081/2/6 1072/2/6 1082/2/6
f 1082/3/6 1073/3/6 1083/3/6
f 1066/2/6 1067/2/6 1086/2/6
f 1086/2/6 1067/2/6 1087/2/6
f 1078/1/6 1079/1/6 1089/1/6
f 1079/2/6 1080/2/6 1090/2/6
f 1089/1/6 1079/1/6 1090/1/6
f 1090/2/6 1080/2/6 1091/2/6
f 1082/2/6 1083/2/6 1092/2/6
f 1081/2/6 1082/2/6 1092/2/6
f 1092/2/6 1083/2/6 1093/2/6
f 1084/2/6 1085/2/6 1094/2/6
f 1094/2/6 1085/2/6 1095/2/6
f 1087/3/6 1088/3/6 1097/3/6
f 1097/3/6 1088/3/6 1098/3/6
f 1089/2/6 1090/2/6 1099/2/6
f 1099/2/6 1090/2/6 1100/2/6
f 1084/2/6 1094/2/6 1102/2/6
f 1096/1/6 1097/1/6 1104/1/6
f 1097/2/6 1098/2/6 1105/2/6
f 1104/1/6 1097/1/6 1105/1/6
f 1105/2/6 1098/2/6 1106/2/6
f 1100/1/6 1101/1/6 1108/1/6
f 1108/1/6 1101/1/6 1109/1/6
f 1084/2/6 1102/2/6 1111/2/6
f 1102/3/6 1103/3/6 1112/3/6
f 1111/2/6 1102/2/6 1112/2/6
f 1103/2/6 1104/2/6 1113/2/6
f 1112/3/6 1103/3/6 1113/3/6
f 1104/2/6 1105/2/6 1113/2/6
f 1105/1/6 1106/1/6 1114/1/6
f 1113/2/6 1105/2/6 1114/2/6
f 1106/2/6 1107/2/6 1115/2/6
f 1114/1/6 1106/1/6 1115/1/6
f 1115/2/6 1107/2/6 1116/2/6
f 1109/2/6 1110/2/6 1117/2/6
f 1108/2/6 1109/2/6 1117/2/6
f 1117/2/6 1110/2/6 1118/2/6
f 1093/2/6 1083/2/6 1119/2/6
f 1119/2/6 1083/2/6 1120/2/6
f 1121/2/6 1122/2/6 1123/2/6
f 1123/2/6 1122/2/6 1124/2/6
f 1123/3/6 1124/3/6 1128/3/6
f 1124/2/6 1122/2/6 1129/2/6
f 1128/3/6 1124/3/6 1129/3/6
f 1129/2/6 1122/2/6 1130/2/6
f 1125/2/6 1126/2/6 1131/2/6
f 1131/2/6 1126/2/6 1132/2/6
f 1132/2/6 1126/2/6 1133/2/6
f 1127/2/6 1128/2/6 1136/2/6
f 1128/2/6 1129/2/6 1136/2/6
f 1136/2/6 1129/2/6 1137/2/6
f 1137/2/6 1129/2/6 1138/2/6
f 1132/1/6 1133/1/6 1139/1/6
f 1133/2/6 1134/2/6 1140/2/6
f 1139/1/6 1133/1/6 1140/1/6
f 1140/2/6 1134/2/6 1141/2/6
f 1136/2/6 1137/2/6 1143/2/6
f 1135/2/6 1136/2/6 1143/2/6
f 1143/2/6 1137/2/6 1144/2/6
f 1144/2/6 1137/2/6 1145/2/6
f 1140/2/6 1141/2/6 1146/2/6
f 1141/3/6 1142/3/6 1147/3/6
f 1146/2/6 1141/2/6 1147/2/6
f 1142/2/6 1143/2/6 1148/2/6
f 1147/3/6 1142/3/6 1148/3/6
f 1148/2/6 1143/2/6 1149/2/6
f 1147/2/6 1148/2/6 1152/2/6
f 1152/2/6 1148/2/6 1153/2/6
f 1150/2/6 1151/2/6 1156/2/6
f 1153/2/6 1154/2/6 1157/2/6
f 1155/2/6 1156/2/6 1158/2/6
f 1156/2/6 1151/2/6 1159/2/6
f 1158/2/6 1156/2/6 1159/2/6
f 1153/2/6 1157/2/6 1163/2/6
f 1157/2/6 1158/2/6 1163/2/6
f 1163/2/6 1158/2/6 1164/2/6
f 1159/3/6 1160/3/6 1166/3/6
f 1166/3/6 1160/3/6 1167/3/6
f 1161/1/6 1162/1/6 1170/1/6
f 1162/2/6 1163/2/6 1171/2/6
f 1170/1/6 1162/1/6 1171/1/6
f 1171/2/6 1163/2/6 1172/2/6
f 1166/2/6 1167/2/6 1173/2/6
f 1167/2/6 1168/2/6 1173/2/6
f 1165/2/6 1166/2/6 1173/2/6
f 1173/2/6 1168/2/6 1174/2/6
f 1170/2/6 1171/2/6 1175/2/6
f 1169/2/6 1170/2/6 1175/2/6
f 1175/2/6 1171/2/6 1176/2/6
f 1174/2/6 1168/2/6 1177/2/6
f 1177/2/6 1168/2/6 1178/2/6
f 1178/2/6 1168/2/6 1179/2/6
f 1179/2/6 1168/2/6 1180/2/6
f 1181/2/6 1182/2/6 1185/2/6
f 1182/3/6 1183/3/6 1186/3/6
f 1185/2/6 1182/2/6 1186/2/6
f 1186/3/6 1183/3/6 1187/3/6
f 1184/2/6 1185/2/6 1188/2/6
f 1185/2/6 1186/2/6 1188/2/6
f 1186/2/6 1187/2/6 1188/2/6
f 1188/2/6 1187/2/6 1189/2/6
f 1189/2/6 1187/2/6 1190/2/6
f 1190/2/6 1187/2/6 1191/2/6
f 1189/3/6 1190/3/6 1192/3/6
f 1192/3/6 1190/3/6 1193/3/6
