# MagicaVoxel @ Ephtracy

# group
o 

# material
mtllib Rag-1.mtl
usemtl palette

# normals
vn -1 0 0
vn 1 0 0
vn 0 0 1
vn 0 0 -1
vn 0 -1 0
vn 0 1 0

# texcoords
vt 0.833984 0.5
vt 0.896484 0.5
vt 0.982422 0.5
vt 0.990234 0.5

# verts
v -0.5 -0.1 0.5
v -0.5 -0.1 0.3
v -0.5 -0.1 0.2
v -0.5 -0.1 -0.2
v -0.5 -0.1 -0.3
v -0.5 -0.1 -0.6
v -0.5 0 0.5
v -0.5 0 0.3
v -0.5 0 0.2
v -0.5 0 -0.2
v -0.5 0 -0.3
v -0.5 0 -0.6
v -0.5 0.1 0.3
v -0.5 0.1 0.2
v -0.4 -0.2 -0.2
v -0.4 -0.2 -0.3
v -0.4 -0.1 -0.2
v -0.4 -0.1 -0.3
v -0.4 0 0.2
v -0.4 0 0.1
v -0.4 0 -0.4
v -0.4 0 -0.5
v -0.4 0.1 0.2
v -0.4 0.1 0.1
v -0.4 0.1 -0.4
v -0.4 0.1 -0.5
v -0.3 -0.2 0.4
v -0.3 -0.2 0.3
v -0.3 -0.2 -0.1
v -0.3 -0.2 -0.2
v -0.3 -0.1 0.4
v -0.3 -0.1 0.3
v -0.3 -0.1 0.2
v -0.3 -0.1 -0.1
v -0.3 -0.1 -0.2
v -0.3 0 0.3
v -0.3 0 0.2
v -0.3 0 0.1
v -0.3 0 0
v -0.3 0 -0.3
v -0.3 0 -0.4
v -0.3 0.1 0.1
v -0.3 0.1 0
v -0.3 0.1 -0.3
v -0.3 0.1 -0.4
v -0.2 -0.2 0.5
v -0.2 -0.2 0.4
v -0.2 -0.2 0.3
v -0.2 -0.2 0.2
v -0.2 -0.1 0.5
v -0.2 -0.1 0.4
v -0.2 -0.1 0.3
v -0.2 -0.1 0.2
v -0.2 -0.1 0.1
v -0.2 -0.1 -0.1
v -0.2 -0.1 -0.3
v -0.2 -0.1 -0.4
v -0.2 -0.1 -0.5
v -0.2 0 0.2
v -0.2 0 0.1
v -0.2 0 0
v -0.2 0 -0.1
v -0.2 0 -0.3
v -0.2 0 -0.4
v -0.2 0 -0.5
v -0.2 0.1 0
v -0.2 0.1 -0.1
v -0.1 -0.2 0.2
v -0.1 -0.2 0.1
v -0.1 -0.2 -0.1
v -0.1 -0.1 0.5
v -0.1 -0.1 0.4
v -0.1 -0.1 0.2
v -0.1 -0.1 0.1
v -0.1 -0.1 -0.1
v -0.1 -0.1 -0.3
v -0.1 -0.1 -0.4
v -0.1 0 0.5
v -0.1 0 0.4
v -0.1 0 -0.1
v -0.1 0 -0.3
v -0.1 0 -0.4
v -0.1 0.1 0
v -0.1 0.1 -0.1
v -0.1 0.1 -0.3
v -0.1 0.2 0
v -0.1 0.2 -0.1
v 0 -0.2 -0.2
v 0 -0.2 -0.3
v 0 -0.2 -0.5
v 0 -0.1 0.4
v 0 -0.1 0.3
v 0 -0.1 0.2
v 0 -0.1 0.1
v 0 -0.1 -0.2
v 0 -0.1 -0.3
v 0 -0.1 -0.4
v 0 -0.1 -0.5
v 0 0 0.4
v 0 0 0.3
v 0 0 0.2
v 0 0 0
v 0 0 -0.1
v 0 0.1 0.2
v 0 0.1 0.1
v 0 0.1 0
v 0 0.1 -0.1
v 0 0.1 -0.2
v 0 0.2 0.1
v 0 0.2 0
v 0 0.2 -0.1
v 0 0.2 -0.2
v 0.1 -0.2 0.3
v 0.1 -0.2 0.2
v 0.1 -0.2 -0.5
v 0.1 -0.2 -0.6
v 0.1 -0.1 0.3
v 0.1 -0.1 0.2
v 0.1 -0.1 -0.3
v 0.1 -0.1 -0.4
v 0.1 -0.1 -0.5
v 0.1 -0.1 -0.6
v 0.1 0 0.3
v 0.1 0 0.2
v 0.1 0 0.1
v 0.1 0 0
v 0.1 0 -0.1
v 0.1 0 -0.2
v 0.1 0 -0.3
v 0.1 0 -0.4
v 0.1 0.1 0.3
v 0.1 0.1 0.2
v 0.1 0.1 0.1
v 0.1 0.1 0
v 0.1 0.1 -0.1
v 0.1 0.1 -0.2
v 0.2 -0.2 0.5
v 0.2 -0.2 0.4
v 0.2 -0.2 0.3
v 0.2 -0.2 -0.1
v 0.2 -0.2 -0.3
v 0.2 -0.1 0.5
v 0.2 -0.1 0.4
v 0.2 -0.1 0.3
v 0.2 -0.1 -0.1
v 0.2 -0.1 -0.2
v 0.2 -0.1 -0.3
v 0.2 -0.1 -0.4
v 0.2 -0.1 -0.5
v 0.2 -0.1 -0.6
v 0.2 0 0.5
v 0.2 0 0.4
v 0.2 0 0.3
v 0.2 0 0
v 0.2 0 -0.1
v 0.2 0 -0.3
v 0.2 0 -0.4
v 0.2 0 -0.5
v 0.2 0 -0.6
v 0.2 0.1 0.5
v 0.2 0.1 0.4
v 0.2 0.1 0.3
v 0.2 0.1 0
v 0.2 0.1 -0.1
v 0.2 0.1 -0.3
v 0.2 0.1 -0.4
v 0.3 -0.1 0.3
v 0.3 -0.1 0.2
v 0.3 0 0.3
v 0.3 0 0.2
v 0.3 0 -0.2
v 0.3 0 -0.3
v 0.3 0 -0.4
v 0.3 0 -0.5
v 0.3 0.1 -0.2
v 0.3 0.1 -0.3
v 0.3 0.1 -0.4
v 0.3 0.1 -0.5
v 0.4 -0.2 0.1
v 0.4 -0.2 0
v 0.4 -0.1 0.5
v 0.4 -0.1 0.4
v 0.4 -0.1 0.3
v 0.4 -0.1 0.1
v 0.4 -0.1 0
v 0.4 0 0.5
v 0.4 0 0.4
v 0.4 0 0.3
v 0.4 0 -0.5
v 0.4 0 -0.6
v 0.4 0.1 -0.5
v 0.4 0.1 -0.6
v 0.5 -0.1 0
v 0.5 -0.1 -0.1
v 0.5 -0.1 -0.3
v 0.5 -0.1 -0.6
v 0.5 0 0
v 0.5 0 -0.1
v 0.5 0 -0.3
v 0.5 0 -0.5
v 0.5 0 -0.6
v -0.4 -0.1 0.2
v -0.4 -0.1 0.1
v -0.4 -0.1 -0.4
v -0.4 -0.1 -0.5
v -0.4 0 0.2
v -0.4 0 0.1
v -0.4 0 -0.4
v -0.4 0 -0.5
v -0.3 -0.1 -0.1
v -0.3 -0.1 -0.2
v -0.3 0 0.3
v -0.3 0 0.2
v -0.3 0 -0.1
v -0.3 0 -0.2
v -0.3 0.1 0.3
v -0.3 0.1 0.2
v -0.2 -0.2 -0.2
v -0.2 -0.2 -0.3
v -0.2 -0.1 0.5
v -0.2 -0.1 0.4
v -0.2 -0.1 0.3
v -0.2 -0.1 -0.2
v -0.2 -0.1 -0.3
v -0.2 -0.1 -0.4
v -0.2 0 0.5
v -0.2 0 0.4
v -0.2 0 0.3
v -0.2 0 0.2
v -0.2 0 0.1
v -0.2 0 -0.3
v -0.2 0 -0.4
v -0.2 0 -0.5
v -0.2 0.1 0.2
v -0.2 0.1 0.1
v -0.2 0.1 -0.4
v -0.2 0.1 -0.5
v -0.1 -0.2 0.5
v -0.1 -0.2 0.4
v -0.1 -0.1 0.5
v -0.1 -0.1 0.4
v -0.1 -0.1 0.3
v -0.1 -0.1 0.2
v -0.1 -0.1 0.1
v -0.1 0 0.3
v -0.1 0 0.2
v -0.1 0 0.1
v -0.1 0 0
v -0.1 0 -0.1
v -0.1 0 -0.3
v -0.1 0 -0.4
v -0.1 0.1 0
v -0.1 0.1 -0.1
v -0.1 0.1 -0.3
v -0.1 0.1 -0.4
v 0 -0.2 0.4
v 0 -0.2 0.3
v 0 -0.2 0.2
v 0 -0.1 0.4
v 0 -0.1 0.3
v 0 -0.1 0.2
v 0 -0.1 -0.3
v 0 -0.1 -0.4
v 0 -0.1 -0.5
v 0 0 0.1
v 0 0 0
v 0 0 -0.1
v 0 0 -0.2
v 0 0 -0.3
v 0 0 -0.4
v 0 0 -0.5
v 0 0.1 0.1
v 0 0.1 0
v 0 0.1 -0.1
v 0 0.1 -0.2
v 0.1 -0.2 -0.1
v 0.1 -0.2 -0.2
v 0.1 -0.2 -0.3
v 0.1 -0.2 -0.4
v 0.1 -0.1 -0.1
v 0.1 -0.1 -0.2
v 0.1 -0.1 -0.3
v 0.1 -0.1 -0.4
v 0.1 -0.1 -0.5
v 0.1 -0.1 -0.6
v 0.1 0 0
v 0.1 0 -0.1
v 0.1 0 -0.2
v 0.1 0 -0.3
v 0.1 0 -0.5
v 0.1 0 -0.6
v 0.1 0.1 0
v 0.1 0.1 -0.1
v 0.1 0.1 -0.2
v 0.1 0.1 -0.3
v 0.1 0.2 -0.1
v 0.1 0.2 -0.2
v 0.2 -0.2 0.2
v 0.2 -0.2 0
v 0.2 -0.2 -0.4
v 0.2 -0.2 -0.5
v 0.2 -0.2 -0.6
v 0.2 -0.1 0.5
v 0.2 -0.1 0.4
v 0.2 -0.1 0.2
v 0.2 -0.1 0.1
v 0.2 -0.1 0
v 0.2 -0.1 -0.4
v 0.2 -0.1 -0.5
v 0.2 -0.1 -0.6
v 0.2 0 0.5
v 0.2 0 0.4
v 0.2 0 0.3
v 0.2 0 0.2
v 0.2 0 0.1
v 0.2 0 0
v 0.2 0.1 0.2
v 0.2 0.1 0.1
v 0.2 0.1 0
v 0.2 0.1 -0.1
v 0.2 0.2 0.1
v 0.2 0.2 0
v 0.2 0.2 -0.1
v 0.3 -0.2 0.5
v 0.3 -0.2 0.4
v 0.3 -0.2 0.2
v 0.3 -0.2 -0.1
v 0.3 -0.2 -0.2
v 0.3 -0.1 0.5
v 0.3 -0.1 0.4
v 0.3 -0.1 0.3
v 0.3 -0.1 0.2
v 0.3 -0.1 0
v 0.3 -0.1 -0.1
v 0.3 -0.1 -0.2
v 0.3 -0.1 -0.3
v 0.3 -0.1 -0.4
v 0.3 0 0.3
v 0.3 0 0.2
v 0.3 0 0
v 0.3 0 -0.1
v 0.3 0 -0.2
v 0.3 0 -0.3
v 0.3 0 -0.4
v 0.3 0.1 0.3
v 0.3 0.1 0.2
v 0.3 0.1 0
v 0.3 0.1 -0.2
v 0.4 -0.2 -0.2
v 0.4 -0.2 -0.3
v 0.4 -0.1 0.1
v 0.4 -0.1 0
v 0.4 -0.1 -0.2
v 0.4 -0.1 -0.3
v 0.4 -0.1 -0.4
v 0.4 -0.1 -0.5
v 0.4 -0.1 -0.6
v 0.4 0 0.5
v 0.4 0 0.4
v 0.4 0 0.3
v 0.4 0 0.1
v 0.4 0 0
v 0.4 0 -0.2
v 0.4 0 -0.3
v 0.4 0 -0.4
v 0.4 0 -0.5
v 0.4 0 -0.6
v 0.4 0.1 0.5
v 0.4 0.1 0.4
v 0.4 0.1 0.3
v 0.4 0.1 -0.2
v 0.4 0.1 -0.3
v 0.5 -0.2 0
v 0.5 -0.2 -0.1
v 0.5 -0.1 0
v 0.5 -0.1 -0.1
v 0.5 0 -0.3
v 0.5 0 -0.5
v 0.5 0 -0.6
v 0.5 0.1 -0.3
v 0.5 0.1 -0.5
v 0.5 0.1 -0.6
v 0.6 -0.2 0.1
v 0.6 -0.2 0
v 0.6 -0.1 0.5
v 0.6 -0.1 0.1
v 0.6 -0.1 0
v 0.6 -0.1 -0.6
v 0.6 0 0.5
v 0.6 0 0.1
v 0.6 0 0
v 0.6 0 -0.6
v -0.5 -0.1 0.5
v -0.5 0 0.5
v -0.2 -0.2 0.5
v -0.2 -0.1 0.5
v -0.2 0 0.5
v -0.1 -0.2 0.5
v -0.1 -0.1 0.5
v -0.1 0 0.5
v 0.2 -0.2 0.5
v 0.2 -0.1 0.5
v 0.2 0 0.5
v 0.2 0.1 0.5
v 0.3 -0.2 0.5
v 0.3 -0.1 0.5
v 0.4 -0.1 0.5
v 0.4 0 0.5
v 0.4 0.1 0.5
v 0.6 -0.1 0.5
v 0.6 0 0.5
v -0.3 -0.2 0.4
v -0.3 -0.1 0.4
v -0.2 -0.2 0.4
v -0.2 -0.1 0.4
v -0.1 -0.2 0.4
v -0.1 -0.1 0.4
v 0 -0.2 0.4
v 0 -0.1 0.4
v -0.5 0 0.3
v -0.5 0.1 0.3
v -0.4 0 0.3
v -0.4 0.1 0.3
v -0.3 0 0.3
v -0.3 0.1 0.3
v -0.2 -0.1 0.3
v -0.2 0 0.3
v -0.1 -0.1 0.3
v -0.1 0 0.3
v 0.1 -0.2 0.3
v 0.1 -0.1 0.3
v 0.1 0 0.3
v 0.1 0.1 0.3
v 0.2 -0.2 0.3
v 0.2 -0.1 0.3
v 0.2 0 0.3
v 0.2 0.1 0.3
v 0.3 -0.1 0.3
v 0.3 0 0.3
v 0.4 -0.1 0.3
v 0.4 0 0.3
v -0.5 -0.1 0.2
v -0.5 0 0.2
v -0.4 -0.1 0.2
v -0.4 0 0.2
v -0.3 0 0.2
v -0.3 0.1 0.2
v -0.2 0 0.2
v -0.2 0.1 0.2
v 0 -0.2 0.2
v 0 -0.1 0.2
v 0 0 0.2
v 0 0.1 0.2
v 0.1 -0.2 0.2
v 0.1 -0.1 0.2
v 0.1 0 0.2
v 0.1 0.1 0.2
v 0.2 -0.1 0.2
v 0.2 0 0.2
v 0.3 -0.1 0.2
v 0.3 0 0.2
v -0.4 -0.1 0.1
v -0.4 0 0.1
v -0.3 0 0.1
v -0.2 -0.1 0.1
v -0.2 0 0.1
v -0.2 0.1 0.1
v -0.1 -0.1 0.1
v -0.1 0 0.1
v -0.1 0.1 0.1
v 0 -0.1 0.1
v 0 0.1 0.1
v 0 0.2 0.1
v 0.1 0.1 0.1
v 0.1 0.2 0.1
v 0.2 0.1 0.1
v 0.2 0.2 0.1
v 0.4 -0.2 0.1
v 0.4 -0.1 0.1
v 0.5 -0.2 0.1
v 0.5 -0.1 0.1
v 0.6 -0.2 0.1
v 0.6 -0.1 0.1
v -0.1 0.1 0
v -0.1 0.2 0
v 0 0 0
v 0 0.1 0
v 0 0.2 0
v 0.1 0 0
v 0.1 0.1 0
v 0.2 -0.2 0
v 0.2 -0.1 0
v 0.2 0 0
v 0.2 0.1 0
v 0.3 -0.1 0
v 0.3 0 0
v 0.3 0.1 0
v 0.4 -0.2 0
v 0.4 -0.1 0
v 0.5 -0.1 0
v 0.5 0 0
v 0.6 -0.1 0
v 0.6 0 0
v -0.3 -0.2 -0.1
v -0.3 -0.1 -0.1
v -0.2 -0.1 -0.1
v -0.1 -0.2 -0.1
v -0.1 -0.1 -0.1
v -0.1 0 -0.1
v -0.1 0.1 -0.1
v 0 0 -0.1
v 0 0.1 -0.1
v 0.1 0 -0.1
v 0.1 0.1 -0.1
v 0.2 0 -0.1
v 0.2 0.1 -0.1
v 0.3 -0.1 -0.1
v 0.3 0 -0.1
v 0.5 -0.1 -0.1
v 0.5 0 -0.1
v -0.4 -0.2 -0.2
v -0.4 -0.1 -0.2
v -0.3 -0.2 -0.2
v -0.3 -0.1 -0.2
v 0 0 -0.2
v 0 0.1 -0.2
v 0.1 0 -0.2
v 0.1 0.1 -0.2
v 0.3 -0.2 -0.2
v 0.3 -0.1 -0.2
v 0.3 0 -0.2
v 0.3 0.1 -0.2
v 0.4 -0.2 -0.2
v 0.4 -0.1 -0.2
v 0.4 0 -0.2
v 0.4 0.1 -0.2
v -0.5 -0.1 -0.3
v -0.5 0 -0.3
v -0.4 -0.1 -0.3
v -0.4 0 -0.3
v -0.3 0 -0.3
v -0.3 0.1 -0.3
v -0.2 -0.1 -0.3
v -0.2 0 -0.3
v -0.2 0.1 -0.3
v -0.1 0 -0.3
v -0.1 0.1 -0.3
v 0.2 0 -0.3
v 0.2 0.1 -0.3
v 0.3 0 -0.3
v 0.3 0.1 -0.3
v 0.4 0 -0.3
v 0.4 0.1 -0.3
v 0.5 0 -0.3
v 0.5 0.1 -0.3
v -0.4 0 -0.4
v -0.4 0.1 -0.4
v -0.3 0 -0.4
v -0.3 0.1 -0.4
v -0.2 -0.1 -0.4
v -0.2 0 -0.4
v -0.1 -0.1 -0.4
v -0.1 0 -0.4
v 0.1 -0.2 -0.4
v 0.1 -0.1 -0.4
v 0.2 -0.2 -0.4
v 0.2 -0.1 -0.4
v 0.3 -0.1 -0.4
v 0.3 0 -0.4
v 0.4 -0.1 -0.4
v 0.4 0 -0.4
v -0.4 -0.1 -0.5
v -0.4 0 -0.5
v -0.2 -0.1 -0.5
v -0.2 0 -0.5
v 0 -0.1 -0.5
v 0 0 -0.5
v 0.1 -0.1 -0.5
v 0.1 0 -0.5
v -0.1 -0.1 0.4
v -0.1 0 0.4
v 0 -0.1 0.4
v 0 0 0.4
v -0.5 -0.1 0.3
v -0.5 0 0.3
v -0.4 -0.1 0.3
v -0.4 0 0.3
v -0.3 -0.2 0.3
v -0.3 -0.1 0.3
v -0.3 0 0.3
v -0.2 -0.2 0.3
v -0.2 -0.1 0.3
v 0.3 0 0.3
v 0.3 0.1 0.3
v 0.4 0 0.3
v 0.4 0.1 0.3
v -0.5 0 0.2
v -0.5 0.1 0.2
v -0.4 0 0.2
v -0.4 0.1 0.2
v -0.3 -0.1 0.2
v -0.3 0 0.2
v -0.2 -0.2 0.2
v -0.2 -0.1 0.2
v -0.2 0 0.2
v -0.1 -0.2 0.2
v -0.1 -0.1 0.2
v 0.2 -0.2 0.2
v 0.2 -0.1 0.2
v 0.2 0 0.2
v 0.2 0.1 0.2
v 0.3 -0.2 0.2
v 0.3 -0.1 0.2
v 0.3 0 0.2
v 0.3 0.1 0.2
v -0.4 0 0.1
v -0.4 0.1 0.1
v -0.3 0 0.1
v -0.3 0.1 0.1
v 0 0 0.1
v 0 0.1 0.1
v 0.1 0 0.1
v 0.1 0.1 0.1
v 0.4 -0.1 0.1
v 0.4 0 0.1
v 0.5 -0.1 0.1
v 0.5 0 0.1
v 0.6 -0.1 0.1
v 0.6 0 0.1
v -0.3 0 0
v -0.3 0.1 0
v -0.2 0 0
v -0.2 0.1 0
v -0.1 0 0
v -0.1 0.1 0
v 0 0 0
v 0 0.1 0
v 0.1 0 0
v 0.1 0.1 0
v 0.2 0 0
v 0.2 0.1 0
v 0.3 -0.1 0
v 0.3 0 0
v 0.4 -0.1 0
v 0.4 0 0
v 0.5 -0.2 0
v 0.5 -0.1 0
v 0.6 -0.2 0
v 0.6 -0.1 0
v -0.3 -0.1 -0.1
v -0.3 0 -0.1
v -0.2 -0.1 -0.1
v -0.2 0 -0.1
v -0.2 0.1 -0.1
v -0.1 0 -0.1
v -0.1 0.1 -0.1
v -0.1 0.2 -0.1
v 0 0 -0.1
v 0 0.1 -0.1
v 0 0.2 -0.1
v 0.1 -0.2 -0.1
v 0.1 -0.1 -0.1
v 0.1 0 -0.1
v 0.1 0.1 -0.1
v 0.1 0.2 -0.1
v 0.2 -0.2 -0.1
v 0.2 -0.1 -0.1
v 0.2 0.1 -0.1
v 0.2 0.2 -0.1
v 0.3 -0.2 -0.1
v 0.3 -0.1 -0.1
v 0.5 -0.2 -0.1
v 0.5 -0.1 -0.1
v -0.5 -0.1 -0.2
v -0.5 0 -0.2
v -0.4 -0.1 -0.2
v -0.4 0 -0.2
v -0.3 -0.1 -0.2
v -0.3 0 -0.2
v -0.2 -0.2 -0.2
v -0.2 -0.1 -0.2
v 0 -0.2 -0.2
v 0 -0.1 -0.2
v 0 0.1 -0.2
v 0 0.2 -0.2
v 0.1 0 -0.2
v 0.1 0.1 -0.2
v 0.1 0.2 -0.2
v 0.2 0 -0.2
v 0.3 0 -0.2
v 0.3 0.1 -0.2
v -0.4 -0.2 -0.3
v -0.4 -0.1 -0.3
v -0.2 -0.2 -0.3
v -0.2 -0.1 -0.3
v -0.2 0 -0.3
v -0.1 -0.1 -0.3
v -0.1 0 -0.3
v -0.1 0.1 -0.3
v 0 -0.1 -0.3
v 0 0 -0.3
v 0.1 -0.1 -0.3
v 0.1 0 -0.3
v 0.1 0.1 -0.3
v 0.2 -0.2 -0.3
v 0.2 -0.1 -0.3
v 0.3 -0.1 -0.3
v 0.3 0 -0.3
v 0.4 -0.2 -0.3
v 0.4 -0.1 -0.3
v 0.5 -0.1 -0.3
v 0.5 0 -0.3
v -0.4 -0.1 -0.4
v -0.4 0 -0.4
v -0.2 -0.1 -0.4
v -0.2 0 -0.4
v -0.2 0.1 -0.4
v -0.1 0 -0.4
v -0.1 0.1 -0.4
v 0.1 -0.1 -0.4
v 0.1 0 -0.4
v 0.2 -0.1 -0.4
v 0.2 0 -0.4
v 0.2 0.1 -0.4
v 0.3 0 -0.4
v 0.3 0.1 -0.4
v -0.4 0 -0.5
v -0.4 0.1 -0.5
v -0.2 0 -0.5
v -0.2 0.1 -0.5
v 0 -0.2 -0.5
v 0 -0.1 -0.5
v 0.1 -0.2 -0.5
v 0.1 -0.1 -0.5
v 0.3 0 -0.5
v 0.3 0.1 -0.5
v 0.4 0 -0.5
v 0.4 0.1 -0.5
v -0.5 -0.1 -0.6
v -0.5 0 -0.6
v 0.1 -0.2 -0.6
v 0.1 -0.1 -0.6
v 0.1 0 -0.6
v 0.2 -0.2 -0.6
v 0.2 -0.1 -0.6
v 0.2 0 -0.6
v 0.4 -0.1 -0.6
v 0.4 0 -0.6
v 0.4 0.1 -0.6
v 0.5 -0.1 -0.6
v 0.5 0 -0.6
v 0.5 0.1 -0.6
v 0.6 -0.1 -0.6
v 0.6 0 -0.6
v -0.2 -0.2 0.5
v -0.1 -0.2 0.5
v 0.2 -0.2 0.5
v 0.3 -0.2 0.5
v -0.3 -0.2 0.4
v -0.2 -0.2 0.4
v -0.1 -0.2 0.4
v 0 -0.2 0.4
v 0.2 -0.2 0.4
v 0.3 -0.2 0.4
v -0.3 -0.2 0.3
v -0.2 -0.2 0.3
v -0.1 -0.2 0.3
v 0 -0.2 0.3
v 0.1 -0.2 0.3
v 0.2 -0.2 0.3
v -0.2 -0.2 0.2
v -0.1 -0.2 0.2
v 0 -0.2 0.2
v 0.1 -0.2 0.2
v 0.2 -0.2 0.2
v 0.3 -0.2 0.2
v -0.1 -0.2 0.1
v 0 -0.2 0.1
v 0.4 -0.2 0.1
v 0.5 -0.2 0.1
v 0.6 -0.2 0.1
v 0 -0.2 0
v 0.1 -0.2 0
v 0.2 -0.2 0
v 0.4 -0.2 0
v 0.5 -0.2 0
v 0.6 -0.2 0
v -0.3 -0.2 -0.1
v -0.1 -0.2 -0.1
v 0 -0.2 -0.1
v 0.1 -0.2 -0.1
v 0.2 -0.2 -0.1
v 0.3 -0.2 -0.1
v 0.5 -0.2 -0.1
v -0.4 -0.2 -0.2
v -0.3 -0.2 -0.2
v -0.2 -0.2 -0.2
v 0 -0.2 -0.2
v 0.1 -0.2 -0.2
v 0.3 -0.2 -0.2
v 0.4 -0.2 -0.2
v -0.4 -0.2 -0.3
v -0.2 -0.2 -0.3
v 0 -0.2 -0.3
v 0.1 -0.2 -0.3
v 0.2 -0.2 -0.3
v 0.4 -0.2 -0.3
v 0.1 -0.2 -0.4
v 0.2 -0.2 -0.4
v 0 -0.2 -0.5
v 0.1 -0.2 -0.5
v 0.2 -0.2 -0.5
v 0.1 -0.2 -0.6
v 0.2 -0.2 -0.6
v -0.5 -0.1 0.5
v -0.2 -0.1 0.5
v -0.1 -0.1 0.5
v 0.2 -0.1 0.5
v 0.4 -0.1 0.5
v 0.6 -0.1 0.5
v -0.4 -0.1 0.4
v -0.3 -0.1 0.4
v -0.2 -0.1 0.4
v -0.1 -0.1 0.4
v 0 -0.1 0.4
v 0.1 -0.1 0.4
v 0.2 -0.1 0.4
v 0.4 -0.1 0.4
v 0.5 -0.1 0.4
v -0.5 -0.1 0.3
v -0.4 -0.1 0.3
v -0.3 -0.1 0.3
v -0.2 -0.1 0.3
v 0 -0.1 0.3
v 0.1 -0.1 0.3
v 0.2 -0.1 0.3
v 0.3 -0.1 0.3
v 0.4 -0.1 0.3
v 0.5 -0.1 0.3
v -0.5 -0.1 0.2
v -0.4 -0.1 0.2
v -0.3 -0.1 0.2
v -0.2 -0.1 0.2
v -0.1 -0.1 0.2
v 0 -0.1 0.2
v 0.1 -0.1 0.2
v 0.2 -0.1 0.2
v 0.3 -0.1 0.2
v 0.4 -0.1 0.2
v 0.5 -0.1 0.2
v -0.4 -0.1 0.1
v -0.2 -0.1 0.1
v -0.1 -0.1 0.1
v 0.2 -0.1 0.1
v 0.3 -0.1 0.1
v 0.4 -0.1 0.1
v 0.5 -0.1 0.1
v 0.6 -0.1 0.1
v -0.4 -0.1 0
v -0.3 -0.1 0
v -0.2 -0.1 0
v 0.2 -0.1 0
v 0.3 -0.1 0
v 0.4 -0.1 0
v 0.5 -0.1 0
v 0.6 -0.1 0
v -0.4 -0.1 -0.1
v -0.3 -0.1 -0.1
v -0.2 -0.1 -0.1
v -0.1 -0.1 -0.1
v 0.1 -0.1 -0.1
v 0.2 -0.1 -0.1
v 0.3 -0.1 -0.1
v 0.5 -0.1 -0.1
v -0.5 -0.1 -0.2
v -0.4 -0.1 -0.2
v -0.3 -0.1 -0.2
v -0.2 -0.1 -0.2
v 0 -0.1 -0.2
v 0.1 -0.1 -0.2
v 0.2 -0.1 -0.2
v 0.3 -0.1 -0.2
v 0.4 -0.1 -0.2
v -0.5 -0.1 -0.3
v -0.4 -0.1 -0.3
v -0.2 -0.1 -0.3
v -0.1 -0.1 -0.3
v 0 -0.1 -0.3
v 0.1 -0.1 -0.3
v 0.2 -0.1 -0.3
v 0.3 -0.1 -0.3
v 0.4 -0.1 -0.3
v 0.5 -0.1 -0.3
v -0.4 -0.1 -0.4
v -0.2 -0.1 -0.4
v -0.1 -0.1 -0.4
v 0 -0.1 -0.4
v 0.1 -0.1 -0.4
v 0.2 -0.1 -0.4
v 0.3 -0.1 -0.4
v 0.4 -0.1 -0.4
v -0.4 -0.1 -0.5
v -0.2 -0.1 -0.5
v -0.1 -0.1 -0.5
v 0 -0.1 -0.5
v 0.1 -0.1 -0.5
v 0.2 -0.1 -0.5
v 0.3 -0.1 -0.5
v 0.4 -0.1 -0.5
v -0.5 -0.1 -0.6
v 0.1 -0.1 -0.6
v 0.2 -0.1 -0.6
v 0.4 -0.1 -0.6
v 0.5 -0.1 -0.6
v 0.6 -0.1 -0.6
v 0.2 0 0.5
v 0.4 0 0.5
v 0.2 0 0.4
v 0.3 0 0.4
v 0.4 0 0.4
v -0.5 0 0.3
v -0.4 0 0.3
v -0.3 0 0.3
v 0.2 0 0.3
v 0.3 0 0.3
v 0.4 0 0.3
v -0.5 0 0.2
v -0.4 0 0.2
v -0.3 0 0.2
v -0.2 0 0.2
v 0.2 0 0.2
v 0.3 0 0.2
v -0.4 0 0.1
v -0.3 0 0.1
v -0.2 0 0.1
v -0.2 0 -0.3
v -0.1 0 -0.3
v 0.3 0 -0.3
v 0.5 0 -0.3
v -0.4 0 -0.4
v -0.2 0 -0.4
v -0.1 0 -0.4
v 0.3 0 -0.4
v 0.4 0 -0.4
v -0.4 0 -0.5
v -0.2 0 -0.5
v 0.4 0 -0.5
v 0.5 0 -0.5
v 0.4 0 -0.6
v 0.5 0 -0.6
v 0 0.1 0.1
v 0.1 0.1 0.1
v -0.1 0.1 0
v 0 0.1 0
v 0.1 0.1 0
v 0.2 0.1 0
v -0.1 0.1 -0.1
v 0 0.1 -0.1
v 0.1 0.1 -0.1
v 0.2 0.1 -0.1
v 0 0.1 -0.2
v 0.1 0.1 -0.2
v -0.2 -0.1 0.5
v -0.1 -0.1 0.5
v 0.2 -0.1 0.5
v 0.3 -0.1 0.5
v -0.2 -0.1 0.4
v -0.1 -0.1 0.4
v 0 -0.1 0.4
v 0.2 -0.1 0.4
v 0.3 -0.1 0.4
v -0.2 -0.1 0.3
v -0.1 -0.1 0.3
v 0 -0.1 0.3
v 0.3 -0.1 0.3
v -0.1 -0.1 0.2
v 0 -0.1 0.2
v 0.2 -0.1 0.2
v 0.3 -0.1 0.2
v -0.1 -0.1 0.1
v 0 -0.1 0.1
v 0.4 -0.1 0.1
v 0.5 -0.1 0.1
v 0.6 -0.1 0.1
v 0.3 -0.1 0
v 0.4 -0.1 0
v 0.5 -0.1 0
v 0.6 -0.1 0
v -0.3 -0.1 -0.1
v -0.2 -0.1 -0.1
v 0.3 -0.1 -0.1
v 0.5 -0.1 -0.1
v -0.4 -0.1 -0.2
v -0.3 -0.1 -0.2
v -0.4 -0.1 -0.3
v -0.2 -0.1 -0.3
v 0 -0.1 -0.3
v 0.1 -0.1 -0.3
v 0 -0.1 -0.4
v 0.1 -0.1 -0.4
v 0.2 -0.1 -0.4
v 0 -0.1 -0.5
v 0.1 -0.1 -0.5
v 0.2 -0.1 -0.5
v 0.1 -0.1 -0.6
v 0.2 -0.1 -0.6
v -0.5 0 0.5
v -0.2 0 0.5
v -0.1 0 0.5
v 0.2 0 0.5
v 0.4 0 0.5
v 0.6 0 0.5
v -0.4 0 0.4
v -0.2 0 0.4
v -0.1 0 0.4
v 0 0 0.4
v 0.1 0 0.4
v 0.2 0 0.4
v 0.4 0 0.4
v 0.5 0 0.4
v -0.5 0 0.3
v -0.4 0 0.3
v -0.3 0 0.3
v -0.2 0 0.3
v -0.1 0 0.3
v 0 0 0.3
v 0.1 0 0.3
v 0.2 0 0.3
v 0.3 0 0.3
v 0.4 0 0.3
v 0.5 0 0.3
v -0.5 0 0.2
v -0.4 0 0.2
v -0.3 0 0.2
v -0.2 0 0.2
v -0.1 0 0.2
v 0 0 0.2
v 0.1 0 0.2
v 0.2 0 0.2
v 0.3 0 0.2
v 0.4 0 0.2
v 0.5 0 0.2
v -0.4 0 0.1
v -0.3 0 0.1
v -0.2 0 0.1
v -0.1 0 0.1
v 0 0 0.1
v 0.1 0 0.1
v 0.2 0 0.1
v 0.3 0 0.1
v 0.4 0 0.1
v 0.5 0 0.1
v 0.6 0 0.1
v -0.4 0 0
v -0.3 0 0
v -0.2 0 0
v -0.1 0 0
v 0 0 0
v 0.1 0 0
v 0.2 0 0
v 0.3 0 0
v 0.4 0 0
v 0.5 0 0
v 0.6 0 0
v -0.4 0 -0.1
v -0.3 0 -0.1
v -0.2 0 -0.1
v -0.1 0 -0.1
v 0 0 -0.1
v 0.1 0 -0.1
v 0.2 0 -0.1
v 0.3 0 -0.1
v 0.5 0 -0.1
v -0.5 0 -0.2
v -0.4 0 -0.2
v -0.3 0 -0.2
v 0 0 -0.2
v 0.1 0 -0.2
v 0.2 0 -0.2
v 0.3 0 -0.2
v 0.4 0 -0.2
v -0.5 0 -0.3
v -0.4 0 -0.3
v -0.3 0 -0.3
v -0.2 0 -0.3
v -0.1 0 -0.3
v 0 0 -0.3
v 0.1 0 -0.3
v 0.2 0 -0.3
v 0.3 0 -0.3
v 0.4 0 -0.3
v 0.5 0 -0.3
v -0.4 0 -0.4
v -0.3 0 -0.4
v -0.2 0 -0.4
v -0.1 0 -0.4
v 0 0 -0.4
v 0.1 0 -0.4
v 0.2 0 -0.4
v 0.3 0 -0.4
v -0.4 0 -0.5
v -0.2 0 -0.5
v -0.1 0 -0.5
v 0 0 -0.5
v 0.1 0 -0.5
v 0.2 0 -0.5
v 0.3 0 -0.5
v 0.4 0 -0.5
v 0.5 0 -0.5
v -0.5 0 -0.6
v 0.1 0 -0.6
v 0.2 0 -0.6
v 0.4 0 -0.6
v 0.5 0 -0.6
v 0.6 0 -0.6
v 0.2 0.1 0.5
v 0.4 0.1 0.5
v 0.2 0.1 0.4
v 0.3 0.1 0.4
v 0.4 0.1 0.4
v -0.5 0.1 0.3
v -0.4 0.1 0.3
v -0.3 0.1 0.3
v 0.1 0.1 0.3
v 0.2 0.1 0.3
v 0.3 0.1 0.3
v 0.4 0.1 0.3
v -0.5 0.1 0.2
v -0.4 0.1 0.2
v -0.3 0.1 0.2
v -0.2 0.1 0.2
v 0 0.1 0.2
v 0.1 0.1 0.2
v 0.2 0.1 0.2
v 0.3 0.1 0.2
v -0.4 0.1 0.1
v -0.3 0.1 0.1
v -0.2 0.1 0.1
v -0.1 0.1 0.1
v 0 0.1 0.1
v 0.1 0.1 0.1
v 0.2 0.1 0.1
v -0.3 0.1 0
v -0.2 0.1 0
v -0.1 0.1 0
v 0 0.1 0
v 0.2 0.1 0
v 0.3 0.1 0
v -0.2 0.1 -0.1
v -0.1 0.1 -0.1
v 0 0.1 -0.1
v 0.1 0.1 -0.1
v 0.2 0.1 -0.1
v 0 0.1 -0.2
v 0.1 0.1 -0.2
v 0.3 0.1 -0.2
v 0.4 0.1 -0.2
v -0.3 0.1 -0.3
v -0.2 0.1 -0.3
v -0.1 0.1 -0.3
v 0.1 0.1 -0.3
v 0.2 0.1 -0.3
v 0.3 0.1 -0.3
v 0.4 0.1 -0.3
v 0.5 0.1 -0.3
v -0.4 0.1 -0.4
v -0.3 0.1 -0.4
v -0.2 0.1 -0.4
v -0.1 0.1 -0.4
v 0.2 0.1 -0.4
v 0.3 0.1 -0.4
v -0.4 0.1 -0.5
v -0.2 0.1 -0.5
v 0.3 0.1 -0.5
v 0.4 0.1 -0.5
v 0.5 0.1 -0.5
v 0.4 0.1 -0.6
v 0.5 0.1 -0.6
v 0 0.2 0.1
v 0.1 0.2 0.1
v 0.2 0.2 0.1
v -0.1 0.2 0
v 0 0.2 0
v 0.1 0.2 0
v 0.2 0.2 0
v -0.1 0.2 -0.1
v 0 0.2 -0.1
v 0.1 0.2 -0.1
v 0.2 0.2 -0.1
v 0 0.2 -0.2
v 0.1 0.2 -0.2

# faces
f 7/1/1 2/1/1 1/1/1
f 8/1/1 2/1/1 7/1/1
f 9/1/1 4/1/1 3/1/1
f 10/1/1 4/1/1 9/1/1
f 11/1/1 6/1/1 5/1/1
f 12/1/1 6/1/1 11/1/1
f 13/1/1 9/1/1 8/1/1
f 14/1/1 9/1/1 13/1/1
f 17/3/1 16/3/1 15/3/1
f 18/3/1 16/3/1 17/3/1
f 23/2/1 20/2/1 19/2/1
f 24/2/1 20/2/1 23/2/1
f 25/3/1 22/3/1 21/3/1
f 26/3/1 22/3/1 25/3/1
f 31/3/1 28/3/1 27/3/1
f 32/3/1 28/3/1 31/3/1
f 34/3/1 30/3/1 29/3/1
f 35/3/1 30/3/1 34/3/1
f 36/3/1 33/3/1 32/3/1
f 37/3/1 33/3/1 36/3/1
f 42/3/1 39/3/1 38/3/1
f 43/3/1 39/3/1 42/3/1
f 44/2/1 41/2/1 40/2/1
f 45/2/1 41/2/1 44/2/1
f 50/1/1 47/1/1 46/1/1
f 51/1/1 47/1/1 50/1/1
f 52/3/1 49/3/1 48/3/1
f 53/3/1 49/3/1 52/3/1
f 59/3/1 54/3/1 53/3/1
f 60/3/1 54/3/1 59/3/1
f 62/3/1 56/3/1 55/3/1
f 63/3/1 56/3/1 62/3/1
f 64/2/1 58/2/1 57/2/1
f 65/2/1 58/2/1 64/2/1
f 66/3/1 62/3/1 61/3/1
f 67/3/1 62/3/1 66/3/1
f 73/4/1 69/4/1 68/4/1
f 74/3/1 70/3/1 69/3/1
f 74/4/1 69/4/1 73/4/1
f 75/3/1 70/3/1 74/3/1
f 78/1/1 72/1/1 71/1/1
f 79/1/1 72/1/1 78/1/1
f 81/4/1 77/4/1 76/4/1
f 82/4/1 77/4/1 81/4/1
f 84/3/1 81/3/1 80/3/1
f 85/3/1 81/3/1 84/3/1
f 86/3/1 84/3/1 83/3/1
f 87/3/1 84/3/1 86/3/1
f 95/4/1 89/4/1 88/4/1
f 96/3/1 90/3/1 89/3/1
f 96/4/1 89/4/1 95/4/1
f 97/3/1 90/3/1 96/3/1
f 98/3/1 90/3/1 97/3/1
f 99/4/1 92/4/1 91/4/1
f 100/3/1 94/3/1 93/3/1
f 100/4/1 92/4/1 99/4/1
f 100/3/1 93/3/1 92/3/1
f 101/3/1 94/3/1 100/3/1
f 104/3/1 94/3/1 101/3/1
f 105/3/1 94/3/1 104/3/1
f 106/3/1 103/3/1 102/3/1
f 107/3/1 103/3/1 106/3/1
f 109/3/1 106/3/1 105/3/1
f 110/3/1 106/3/1 109/3/1
f 111/4/1 108/4/1 107/4/1
f 112/4/1 108/4/1 111/4/1
f 117/3/1 114/3/1 113/3/1
f 118/3/1 114/3/1 117/3/1
f 121/1/1 116/1/1 115/1/1
f 122/1/1 116/1/1 121/1/1
f 129/3/1 120/3/1 119/3/1
f 130/3/1 120/3/1 129/3/1
f 131/3/1 124/3/1 123/3/1
f 132/3/1 124/3/1 131/3/1
f 133/3/1 126/3/1 125/3/1
f 134/3/1 126/3/1 133/3/1
f 135/3/1 128/3/1 127/3/1
f 136/3/1 128/3/1 135/3/1
f 142/1/1 138/1/1 137/1/1
f 143/3/1 139/3/1 138/3/1
f 143/1/1 138/1/1 142/1/1
f 144/3/1 139/3/1 143/3/1
f 145/3/1 141/3/1 140/3/1
f 146/3/1 141/3/1 145/3/1
f 147/3/1 141/3/1 146/3/1
f 157/2/1 149/2/1 148/2/1
f 158/1/1 150/1/1 149/1/1
f 158/2/1 149/2/1 157/2/1
f 159/1/1 150/1/1 158/1/1
f 160/1/1 152/1/1 151/1/1
f 161/4/1 153/4/1 152/4/1
f 161/1/1 152/1/1 160/1/1
f 162/4/1 153/4/1 161/4/1
f 163/3/1 155/3/1 154/3/1
f 164/3/1 155/3/1 163/3/1
f 165/3/1 157/3/1 156/3/1
f 166/3/1 157/3/1 165/3/1
f 169/3/1 168/3/1 167/3/1
f 170/3/1 168/3/1 169/3/1
f 175/4/1 172/4/1 171/4/1
f 176/4/1 172/4/1 175/4/1
f 177/3/1 174/3/1 173/3/1
f 178/3/1 174/3/1 177/3/1
f 184/3/1 180/3/1 179/3/1
f 185/3/1 180/3/1 184/3/1
f 186/1/1 182/1/1 181/1/1
f 187/2/1 183/2/1 182/2/1
f 187/1/1 182/1/1 186/1/1
f 188/2/1 183/2/1 187/2/1
f 191/1/1 190/1/1 189/1/1
f 192/1/1 190/1/1 191/1/1
f 197/1/1 194/1/1 193/1/1
f 198/1/1 194/1/1 197/1/1
f 199/1/1 196/1/1 195/1/1
f 200/1/1 196/1/1 199/1/1
f 201/1/1 196/1/1 200/1/1
f 202/1/2 203/1/2 206/1/2
f 206/1/2 203/1/2 207/1/2
f 204/1/2 205/1/2 208/1/2
f 208/1/2 205/1/2 209/1/2
f 210/2/2 211/2/2 214/2/2
f 214/2/2 211/2/2 215/2/2
f 212/3/2 213/3/2 216/3/2
f 216/3/2 213/3/2 217/3/2
f 218/3/2 219/3/2 223/3/2
f 223/3/2 219/3/2 224/3/2
f 220/1/2 221/1/2 226/1/2
f 221/3/2 222/3/2 227/3/2
f 226/1/2 221/1/2 227/1/2
f 227/3/2 222/3/2 228/3/2
f 224/3/2 225/3/2 231/3/2
f 231/3/2 225/3/2 232/3/2
f 229/3/2 230/3/2 234/3/2
f 234/3/2 230/3/2 235/3/2
f 232/3/2 233/3/2 236/3/2
f 236/3/2 233/3/2 237/3/2
f 238/1/2 239/1/2 240/1/2
f 240/1/2 239/1/2 241/1/2
f 242/4/2 243/4/2 245/4/2
f 243/3/2 244/3/2 246/3/2
f 245/4/2 243/4/2 246/4/2
f 246/3/2 244/3/2 247/3/2
f 248/3/2 249/3/2 252/3/2
f 252/3/2 249/3/2 253/3/2
f 250/3/2 251/3/2 254/3/2
f 254/3/2 251/3/2 255/3/2
f 256/2/2 257/2/2 259/2/2
f 257/3/2 258/3/2 260/3/2
f 259/2/2 257/2/2 260/2/2
f 260/3/2 258/3/2 261/3/2
f 262/4/2 263/4/2 269/4/2
f 263/3/2 264/3/2 270/3/2
f 269/4/2 263/4/2 270/4/2
f 270/3/2 264/3/2 271/3/2
f 265/3/2 266/3/2 272/3/2
f 272/3/2 266/3/2 273/3/2
f 267/3/2 268/3/2 274/3/2
f 274/3/2 268/3/2 275/3/2
f 276/3/2 277/3/2 280/3/2
f 277/4/2 278/4/2 281/4/2
f 280/3/2 277/3/2 281/3/2
f 278/3/2 279/3/2 282/3/2
f 281/4/2 278/4/2 282/4/2
f 282/3/2 279/3/2 283/3/2
f 284/1/2 285/1/2 290/1/2
f 290/1/2 285/1/2 291/1/2
f 286/3/2 287/3/2 292/3/2
f 292/3/2 287/3/2 293/3/2
f 288/3/2 289/3/2 294/3/2
f 294/3/2 289/3/2 295/3/2
f 293/4/2 294/4/2 296/4/2
f 296/4/2 294/4/2 297/4/2
f 298/3/2 299/3/2 305/3/2
f 305/3/2 299/3/2 306/3/2
f 306/3/2 299/3/2 307/3/2
f 300/3/2 301/3/2 308/3/2
f 301/1/2 302/1/2 309/1/2
f 308/3/2 301/3/2 309/3/2
f 309/1/2 302/1/2 310/1/2
f 303/1/2 304/1/2 311/1/2
f 304/3/2 305/3/2 312/3/2
f 311/1/2 304/1/2 312/1/2
f 312/3/2 305/3/2 313/3/2
f 313/3/2 305/3/2 314/3/2
f 315/3/2 316/3/2 317/3/2
f 314/3/2 315/3/2 317/3/2
f 317/3/2 316/3/2 318/3/2
f 318/3/2 316/3/2 319/3/2
f 318/4/2 319/4/2 321/4/2
f 319/3/2 320/3/2 322/3/2
f 321/4/2 319/4/2 322/4/2
f 322/3/2 320/3/2 323/3/2
f 324/1/2 325/1/2 329/1/2
f 325/3/2 326/3/2 330/3/2
f 329/1/2 325/1/2 330/1/2
f 330/3/2 326/3/2 331/3/2
f 331/3/2 326/3/2 332/3/2
f 327/3/2 328/3/2 334/3/2
f 334/3/2 328/3/2 335/3/2
f 333/3/2 334/3/2 340/3/2
f 340/3/2 334/3/2 341/3/2
f 336/3/2 337/3/2 343/3/2
f 343/3/2 337/3/2 344/3/2
f 338/3/2 339/3/2 345/3/2
f 345/3/2 339/3/2 346/3/2
f 341/3/2 342/3/2 347/3/2
f 340/3/2 341/3/2 347/3/2
f 347/3/2 342/3/2 348/3/2
f 349/3/2 350/3/2 353/3/2
f 353/3/2 350/3/2 354/3/2
f 351/3/2 352/3/2 361/3/2
f 361/3/2 352/3/2 362/3/2
f 355/3/2 356/3/2 365/3/2
f 356/1/2 357/1/2 366/1/2
f 365/3/2 356/3/2 366/3/2
f 366/1/2 357/1/2 367/1/2
f 358/1/2 359/1/2 368/1/2
f 359/3/2 360/3/2 369/3/2
f 368/1/2 359/1/2 369/1/2
f 369/3/2 360/3/2 370/3/2
f 363/4/2 364/4/2 371/4/2
f 371/4/2 364/4/2 372/4/2
f 373/3/2 374/3/2 375/3/2
f 375/3/2 374/3/2 376/3/2
f 377/3/2 378/3/2 380/3/2
f 378/1/2 379/1/2 381/1/2
f 380/3/2 378/3/2 381/3/2
f 381/1/2 379/1/2 382/1/2
f 383/1/2 384/1/2 386/1/2
f 386/1/2 384/1/2 387/1/2
f 385/1/2 386/1/2 389/1/2
f 389/1/2 386/1/2 390/1/2
f 387/1/2 388/1/2 391/1/2
f 391/1/2 388/1/2 392/1/2
f 396/1/3 394/1/3 393/1/3
f 397/1/3 394/1/3 396/1/3
f 398/1/3 396/1/3 395/1/3
f 399/1/3 396/1/3 398/1/3
f 402/1/3 400/1/3 399/1/3
f 403/1/3 400/1/3 402/1/3
f 405/1/3 402/1/3 401/1/3
f 406/1/3 402/1/3 405/1/3
f 408/1/3 404/1/3 403/1/3
f 409/1/3 404/1/3 408/1/3
f 410/1/3 408/1/3 407/1/3
f 411/1/3 408/1/3 410/1/3
f 414/3/3 413/3/3 412/3/3
f 415/3/3 413/3/3 414/3/3
f 418/2/3 417/2/3 416/2/3
f 419/2/3 417/2/3 418/2/3
f 422/1/3 421/1/3 420/1/3
f 423/1/3 421/1/3 422/1/3
f 424/3/3 423/3/3 422/3/3
f 425/3/3 423/3/3 424/3/3
f 428/4/3 427/4/3 426/4/3
f 429/4/3 427/4/3 428/4/3
f 434/3/3 431/3/3 430/3/3
f 435/3/3 431/3/3 434/3/3
f 436/3/3 433/3/3 432/3/3
f 437/3/3 433/3/3 436/3/3
f 440/3/3 439/3/3 438/3/3
f 441/3/3 439/3/3 440/3/3
f 444/1/3 443/1/3 442/1/3
f 445/1/3 443/1/3 444/1/3
f 448/3/3 447/3/3 446/3/3
f 449/3/3 447/3/3 448/3/3
f 454/3/3 451/3/3 450/3/3
f 455/3/3 451/3/3 454/3/3
f 456/3/3 453/3/3 452/3/3
f 457/3/3 453/3/3 456/3/3
f 460/3/3 459/3/3 458/3/3
f 461/3/3 459/3/3 460/3/3
f 464/3/3 463/3/3 462/3/3
f 465/3/3 464/3/3 462/3/3
f 466/3/3 464/3/3 465/3/3
f 469/4/3 467/4/3 466/4/3
f 470/4/3 467/4/3 469/4/3
f 471/3/3 469/3/3 468/3/3
f 471/3/3 470/3/3 469/3/3
f 472/3/3 470/3/3 471/3/3
f 474/3/3 473/3/3 472/3/3
f 475/3/3 473/3/3 474/3/3
f 476/4/3 475/4/3 474/4/3
f 477/4/3 475/4/3 476/4/3
f 480/3/3 479/3/3 478/3/3
f 481/3/3 479/3/3 480/3/3
f 482/1/3 481/1/3 480/1/3
f 483/1/3 481/1/3 482/1/3
f 487/3/3 485/3/3 484/3/3
f 488/3/3 485/3/3 487/3/3
f 489/3/3 487/3/3 486/3/3
f 490/3/3 487/3/3 489/3/3
f 495/3/3 492/3/3 491/3/3
f 496/3/3 494/3/3 493/3/3
f 497/3/3 494/3/3 496/3/3
f 498/3/3 495/3/3 491/3/3
f 499/3/3 495/3/3 498/3/3
f 502/1/3 501/1/3 500/1/3
f 503/1/3 501/1/3 502/1/3
f 506/3/3 505/3/3 504/3/3
f 507/3/3 506/3/3 504/3/3
f 508/3/3 506/3/3 507/3/3
f 511/3/3 510/3/3 509/3/3
f 512/3/3 510/3/3 511/3/3
f 515/3/3 514/3/3 513/3/3
f 516/3/3 514/3/3 515/3/3
f 519/3/3 518/3/3 517/3/3
f 520/3/3 518/3/3 519/3/3
f 523/3/3 522/3/3 521/3/3
f 524/3/3 522/3/3 523/3/3
f 527/3/3 526/3/3 525/3/3
f 528/3/3 526/3/3 527/3/3
f 533/3/3 530/3/3 529/3/3
f 534/3/3 530/3/3 533/3/3
f 535/4/3 532/4/3 531/4/3
f 536/4/3 532/4/3 535/4/3
f 539/1/3 538/1/3 537/1/3
f 540/1/3 538/1/3 539/1/3
f 541/3/3 540/3/3 539/3/3
f 543/3/3 541/3/3 539/3/3
f 544/2/3 542/2/3 541/2/3
f 544/3/3 541/3/3 543/3/3
f 545/2/3 542/2/3 544/2/3
f 546/3/3 545/3/3 544/3/3
f 547/3/3 545/3/3 546/3/3
f 550/3/3 549/3/3 548/3/3
f 551/3/3 549/3/3 550/3/3
f 554/3/3 553/3/3 552/3/3
f 555/3/3 553/3/3 554/3/3
f 558/3/3 557/3/3 556/3/3
f 559/3/3 557/3/3 558/3/3
f 562/2/3 561/2/3 560/2/3
f 563/2/3 561/2/3 562/2/3
f 566/3/3 565/3/3 564/3/3
f 567/3/3 565/3/3 566/3/3
f 570/3/3 569/3/3 568/3/3
f 571/3/3 569/3/3 570/3/3
f 574/1/3 573/1/3 572/1/3
f 575/1/3 573/1/3 574/1/3
f 578/1/3 577/1/3 576/1/3
f 579/1/3 577/1/3 578/1/3
f 580/1/4 581/1/4 582/1/4
f 582/1/4 581/1/4 583/1/4
f 584/1/4 585/1/4 586/1/4
f 586/1/4 585/1/4 587/1/4
f 586/3/4 587/3/4 589/3/4
f 589/3/4 587/3/4 590/3/4
f 588/3/4 589/3/4 591/3/4
f 591/3/4 589/3/4 592/3/4
f 593/3/4 594/3/4 595/3/4
f 595/3/4 594/3/4 596/3/4
f 597/1/4 598/1/4 599/1/4
f 599/1/4 598/1/4 600/1/4
f 601/3/4 602/3/4 604/3/4
f 604/3/4 602/3/4 605/3/4
f 603/3/4 604/3/4 606/3/4
f 606/3/4 604/3/4 607/3/4
f 608/3/4 609/3/4 612/3/4
f 612/3/4 609/3/4 613/3/4
f 610/3/4 611/3/4 614/3/4
f 614/3/4 611/3/4 615/3/4
f 616/2/4 617/2/4 618/2/4
f 618/2/4 617/2/4 619/2/4
f 620/3/4 621/3/4 622/3/4
f 622/3/4 621/3/4 623/3/4
f 624/4/4 625/4/4 626/4/4
f 626/4/4 625/4/4 627/4/4
f 626/1/4 627/1/4 628/1/4
f 628/1/4 627/1/4 629/1/4
f 630/3/4 631/3/4 632/3/4
f 632/3/4 631/3/4 633/3/4
f 634/3/4 635/3/4 636/3/4
f 636/3/4 635/3/4 637/3/4
f 638/3/4 639/3/4 640/3/4
f 640/3/4 639/3/4 641/3/4
f 642/3/4 643/3/4 644/3/4
f 644/3/4 643/3/4 645/3/4
f 646/1/4 647/1/4 648/1/4
f 648/1/4 647/1/4 649/1/4
f 650/2/4 651/2/4 652/2/4
f 652/2/4 651/2/4 653/2/4
f 653/3/4 654/3/4 655/3/4
f 655/3/4 654/3/4 656/3/4
f 656/3/4 657/3/4 659/3/4
f 659/3/4 657/3/4 660/3/4
f 658/3/4 659/3/4 663/3/4
f 663/3/4 659/3/4 664/3/4
f 661/4/4 662/4/4 666/4/4
f 666/4/4 662/4/4 667/4/4
f 664/3/4 665/3/4 668/3/4
f 668/3/4 665/3/4 669/3/4
f 670/3/4 671/3/4 672/3/4
f 672/3/4 671/3/4 673/3/4
f 674/1/4 675/1/4 676/1/4
f 676/1/4 675/1/4 677/1/4
f 676/2/4 677/2/4 678/2/4
f 678/2/4 677/2/4 679/2/4
f 680/3/4 681/3/4 682/3/4
f 682/3/4 681/3/4 683/3/4
f 684/4/4 685/4/4 687/4/4
f 687/4/4 685/4/4 688/4/4
f 686/3/4 687/3/4 689/3/4
f 689/3/4 687/3/4 690/3/4
f 690/3/4 687/3/4 691/3/4
f 692/3/4 693/3/4 694/3/4
f 694/3/4 693/3/4 695/3/4
f 695/3/4 696/3/4 697/3/4
f 697/3/4 696/3/4 698/3/4
f 698/3/4 699/3/4 701/3/4
f 700/3/4 701/3/4 702/3/4
f 701/3/4 699/3/4 703/3/4
f 702/3/4 701/3/4 703/3/4
f 703/3/4 699/3/4 704/3/4
f 705/3/4 706/3/4 707/3/4
f 705/3/4 707/3/4 709/3/4
f 707/3/4 708/3/4 709/3/4
f 709/3/4 708/3/4 710/3/4
f 710/3/4 708/3/4 711/3/4
f 711/3/4 708/3/4 712/3/4
f 713/3/4 714/3/4 715/3/4
f 715/3/4 714/3/4 716/3/4
f 716/3/4 717/3/4 718/3/4
f 718/3/4 717/3/4 719/3/4
f 720/3/4 721/3/4 722/3/4
f 722/3/4 721/3/4 723/3/4
f 723/3/4 724/3/4 725/3/4
f 725/3/4 724/3/4 726/3/4
f 727/3/4 728/3/4 729/3/4
f 729/3/4 728/3/4 730/3/4
f 731/3/4 732/3/4 733/3/4
f 733/3/4 732/3/4 734/3/4
f 735/3/4 736/3/4 737/3/4
f 737/3/4 736/3/4 738/3/4
f 739/1/4 740/1/4 742/1/4
f 742/1/4 740/1/4 743/1/4
f 741/1/4 742/1/4 744/1/4
f 744/1/4 742/1/4 745/1/4
f 745/1/4 746/1/4 747/1/4
f 747/1/4 746/1/4 748/1/4
f 748/1/4 749/1/4 751/1/4
f 751/1/4 749/1/4 752/1/4
f 750/1/4 751/1/4 753/1/4
f 753/1/4 751/1/4 754/1/4
f 760/1/5 756/1/5 755/1/5
f 761/1/5 756/1/5 760/1/5
f 763/1/5 758/1/5 757/1/5
f 764/1/5 758/1/5 763/1/5
f 765/3/5 760/3/5 759/3/5
f 765/3/5 761/3/5 760/3/5
f 766/3/5 761/3/5 765/3/5
f 767/2/5 762/2/5 761/2/5
f 767/3/5 761/3/5 766/3/5
f 768/2/5 762/2/5 767/2/5
f 770/3/5 764/3/5 763/3/5
f 771/3/5 768/3/5 767/3/5
f 771/3/5 767/3/5 766/3/5
f 772/3/5 768/3/5 771/3/5
f 773/3/5 768/3/5 772/3/5
f 774/3/5 770/3/5 769/3/5
f 775/3/5 764/3/5 770/3/5
f 775/3/5 770/3/5 774/3/5
f 776/3/5 764/3/5 775/3/5
f 777/4/5 773/4/5 772/4/5
f 778/3/5 774/3/5 773/3/5
f 778/4/5 773/4/5 777/4/5
f 778/3/5 775/3/5 774/3/5
f 782/3/5 775/3/5 778/3/5
f 782/3/5 778/3/5 777/3/5
f 783/3/5 775/3/5 782/3/5
f 784/3/5 775/3/5 783/3/5
f 785/3/5 780/3/5 779/3/5
f 786/1/5 781/1/5 780/1/5
f 786/3/5 780/3/5 785/3/5
f 787/1/5 781/1/5 786/1/5
f 789/3/5 782/3/5 777/3/5
f 790/2/5 783/2/5 782/2/5
f 790/3/5 782/3/5 789/3/5
f 791/4/5 784/4/5 783/4/5
f 791/2/5 783/2/5 790/2/5
f 792/3/5 785/3/5 784/3/5
f 792/4/5 784/4/5 791/4/5
f 792/3/5 786/3/5 785/3/5
f 793/3/5 786/3/5 792/3/5
f 794/3/5 786/3/5 793/3/5
f 796/3/5 791/3/5 790/3/5
f 796/3/5 790/3/5 789/3/5
f 796/3/5 789/3/5 788/3/5
f 797/3/5 791/3/5 796/3/5
f 798/3/5 791/3/5 797/3/5
f 799/3/5 791/3/5 798/3/5
f 800/3/5 793/3/5 792/3/5
f 802/3/5 796/3/5 795/3/5
f 802/3/5 797/3/5 796/3/5
f 803/3/5 797/3/5 802/3/5
f 804/4/5 799/4/5 798/4/5
f 805/4/5 799/4/5 804/4/5
f 806/3/5 801/3/5 800/3/5
f 806/3/5 800/3/5 792/3/5
f 807/3/5 801/3/5 806/3/5
f 808/3/5 805/3/5 804/3/5
f 810/3/5 808/3/5 804/3/5
f 810/3/5 809/3/5 808/3/5
f 811/3/5 809/3/5 810/3/5
f 812/3/5 809/3/5 811/3/5
f 813/1/5 812/1/5 811/1/5
f 814/1/5 812/1/5 813/1/5
f 821/1/5 816/1/5 815/1/5
f 822/1/5 816/1/5 821/1/5
f 823/1/5 816/1/5 822/1/5
f 824/1/5 818/1/5 817/1/5
f 825/1/5 818/1/5 824/1/5
f 826/1/5 818/1/5 825/1/5
f 827/1/5 818/1/5 826/1/5
f 828/1/5 820/1/5 819/1/5
f 829/1/5 820/1/5 828/1/5
f 830/1/5 821/1/5 815/1/5
f 831/3/5 822/3/5 821/3/5
f 831/1/5 821/1/5 830/1/5
f 832/3/5 822/3/5 831/3/5
f 834/4/5 826/4/5 825/4/5
f 835/3/5 827/3/5 826/3/5
f 835/4/5 826/4/5 834/4/5
f 836/3/5 827/3/5 835/3/5
f 838/2/5 829/2/5 828/2/5
f 839/1/5 820/1/5 829/1/5
f 839/2/5 829/2/5 838/2/5
f 842/3/5 833/3/5 832/3/5
f 843/3/5 833/3/5 842/3/5
f 845/3/5 835/3/5 834/3/5
f 846/3/5 835/3/5 845/3/5
f 848/3/5 838/3/5 837/3/5
f 848/3/5 839/3/5 838/3/5
f 849/3/5 839/3/5 848/3/5
f 850/1/5 820/1/5 839/1/5
f 850/3/5 839/3/5 849/3/5
f 851/1/5 841/1/5 840/1/5
f 852/3/5 844/3/5 843/3/5
f 853/3/5 844/3/5 852/3/5
f 854/3/5 848/3/5 847/3/5
f 855/2/5 849/2/5 848/2/5
f 855/3/5 848/3/5 854/3/5
f 856/4/5 850/4/5 849/4/5
f 856/2/5 849/2/5 855/2/5
f 857/1/5 820/1/5 850/1/5
f 857/4/5 850/4/5 856/4/5
f 858/1/5 820/1/5 857/1/5
f 859/1/5 851/1/5 840/1/5
f 859/3/5 853/3/5 852/3/5
f 859/3/5 852/3/5 851/3/5
f 860/3/5 853/3/5 859/3/5
f 861/3/5 853/3/5 860/3/5
f 862/4/5 855/4/5 854/4/5
f 863/3/5 856/3/5 855/3/5
f 863/4/5 855/4/5 862/4/5
f 864/3/5 856/3/5 863/3/5
f 867/1/5 859/1/5 840/1/5
f 867/4/5 860/4/5 859/4/5
f 868/2/5 861/2/5 860/2/5
f 868/4/5 860/4/5 867/4/5
f 869/3/5 853/3/5 861/3/5
f 869/2/5 861/2/5 868/2/5
f 870/3/5 853/3/5 869/3/5
f 874/1/5 866/1/5 865/1/5
f 875/1/5 867/1/5 840/1/5
f 876/2/5 868/2/5 867/2/5
f 876/1/5 867/1/5 875/1/5
f 877/2/5 868/2/5 876/2/5
f 880/3/5 872/3/5 871/3/5
f 881/3/5 872/3/5 880/3/5
f 882/3/5 874/3/5 873/3/5
f 883/3/5 874/3/5 882/3/5
f 886/3/5 879/3/5 878/3/5
f 887/3/5 879/3/5 886/3/5
f 888/3/5 879/3/5 887/3/5
f 889/2/5 881/2/5 880/2/5
f 890/2/5 881/2/5 889/2/5
f 892/3/5 874/3/5 883/3/5
f 893/1/5 866/1/5 874/1/5
f 893/3/5 874/3/5 892/3/5
f 894/1/5 885/1/5 884/1/5
f 894/3/5 886/3/5 885/3/5
f 895/3/5 886/3/5 894/3/5
f 896/4/5 888/4/5 887/4/5
f 897/4/5 888/4/5 896/4/5
f 898/3/5 891/3/5 890/3/5
f 898/3/5 890/3/5 889/3/5
f 899/3/5 891/3/5 898/3/5
f 900/3/5 891/3/5 899/3/5
f 902/1/5 894/1/5 884/1/5
f 903/2/5 896/2/5 895/2/5
f 904/3/5 897/3/5 896/3/5
f 904/2/5 896/2/5 903/2/5
f 905/3/5 897/3/5 904/3/5
f 907/2/5 900/2/5 899/2/5
f 908/3/5 901/3/5 900/3/5
f 908/2/5 900/2/5 907/2/5
f 909/3/5 901/3/5 908/3/5
f 910/1/5 903/1/5 902/1/5
f 910/1/5 902/1/5 884/1/5
f 910/1/5 906/1/5 905/1/5
f 910/1/5 904/1/5 903/1/5
f 910/1/5 905/1/5 904/1/5
f 911/1/5 906/1/5 910/1/5
f 912/1/5 909/1/5 908/1/5
f 912/1/5 908/1/5 907/1/5
f 913/1/5 909/1/5 912/1/5
f 914/1/5 866/1/5 893/1/5
f 915/1/5 866/1/5 914/1/5
f 918/1/5 917/1/5 916/1/5
f 919/1/5 917/1/5 918/1/5
f 920/1/5 917/1/5 919/1/5
f 924/4/5 919/4/5 918/4/5
f 925/3/5 920/3/5 919/3/5
f 925/4/5 919/4/5 924/4/5
f 926/3/5 920/3/5 925/3/5
f 927/1/5 922/1/5 921/1/5
f 928/3/5 923/3/5 922/3/5
f 928/1/5 922/1/5 927/1/5
f 929/3/5 923/3/5 928/3/5
f 931/3/5 925/3/5 924/3/5
f 932/3/5 925/3/5 931/3/5
f 933/2/5 929/2/5 928/2/5
f 934/3/5 930/3/5 929/3/5
f 934/2/5 929/2/5 933/2/5
f 935/3/5 930/3/5 934/3/5
f 941/3/5 937/3/5 936/3/5
f 942/3/5 937/3/5 941/3/5
f 943/3/5 939/3/5 938/3/5
f 944/3/5 939/3/5 943/3/5
f 945/3/5 941/3/5 940/3/5
f 946/3/5 941/3/5 945/3/5
f 947/3/5 939/3/5 944/3/5
f 948/3/5 939/3/5 947/3/5
f 949/1/5 948/1/5 947/1/5
f 950/1/5 948/1/5 949/1/5
f 954/3/5 952/3/5 951/3/5
f 955/3/5 952/3/5 954/3/5
f 957/3/5 954/3/5 953/3/5
f 958/3/5 954/3/5 957/3/5
f 959/3/5 956/3/5 955/3/5
f 960/3/5 956/3/5 959/3/5
f 961/4/5 959/4/5 958/4/5
f 962/4/5 959/4/5 961/4/5
f 963/1/6 964/1/6 967/1/6
f 967/1/6 964/1/6 968/1/6
f 965/1/6 966/1/6 970/1/6
f 970/1/6 966/1/6 971/1/6
f 967/3/6 968/3/6 972/3/6
f 968/2/6 969/2/6 973/2/6
f 972/3/6 968/3/6 973/3/6
f 973/2/6 969/2/6 974/2/6
f 970/3/6 971/3/6 975/3/6
f 973/3/6 974/3/6 976/3/6
f 976/3/6 974/3/6 977/3/6
f 970/3/6 975/3/6 978/3/6
f 978/3/6 975/3/6 979/3/6
f 976/4/6 977/4/6 980/4/6
f 980/4/6 977/4/6 981/4/6
f 982/3/6 983/3/6 986/3/6
f 983/1/6 984/1/6 987/1/6
f 986/3/6 983/3/6 987/3/6
f 987/1/6 984/1/6 988/1/6
f 985/3/6 986/3/6 991/3/6
f 986/3/6 987/3/6 991/3/6
f 991/3/6 987/3/6 992/3/6
f 989/3/6 990/3/6 994/3/6
f 993/3/6 994/3/6 995/3/6
f 994/3/6 990/3/6 996/3/6
f 995/3/6 994/3/6 996/3/6
f 997/3/6 998/3/6 999/3/6
f 999/3/6 998/3/6 1000/3/6
f 999/3/6 1000/3/6 1002/3/6
f 1000/3/6 1001/3/6 1002/3/6
f 1002/3/6 1001/3/6 1003/3/6
f 1003/3/6 1001/3/6 1004/3/6
f 1003/1/6 1004/1/6 1005/1/6
f 1005/1/6 1004/1/6 1006/1/6
f 1007/1/6 1008/1/6 1013/1/6
f 1013/1/6 1008/1/6 1014/1/6
f 1009/1/6 1010/1/6 1015/1/6
f 1015/1/6 1010/1/6 1016/1/6
f 1016/1/6 1010/1/6 1017/1/6
f 1017/1/6 1010/1/6 1018/1/6
f 1011/1/6 1012/1/6 1019/1/6
f 1019/1/6 1012/1/6 1020/1/6
f 1007/1/6 1013/1/6 1021/1/6
f 1013/3/6 1014/3/6 1022/3/6
f 1021/1/6 1013/1/6 1022/1/6
f 1022/3/6 1014/3/6 1023/3/6
f 1023/3/6 1014/3/6 1024/3/6
f 1016/4/6 1017/4/6 1026/4/6
f 1017/3/6 1018/3/6 1027/3/6
f 1026/4/6 1017/4/6 1027/4/6
f 1027/3/6 1018/3/6 1028/3/6
f 1019/2/6 1020/2/6 1030/2/6
f 1020/1/6 1012/1/6 1031/1/6
f 1030/2/6 1020/2/6 1031/2/6
f 1023/3/6 1024/3/6 1034/3/6
f 1024/4/6 1025/4/6 1035/4/6
f 1034/3/6 1024/3/6 1035/3/6
f 1035/4/6 1025/4/6 1036/4/6
f 1026/3/6 1027/3/6 1037/3/6
f 1037/3/6 1027/3/6 1038/3/6
f 1029/3/6 1030/3/6 1040/3/6
f 1030/3/6 1031/3/6 1040/3/6
f 1040/3/6 1031/3/6 1041/3/6
f 1031/1/6 1012/1/6 1042/1/6
f 1041/3/6 1031/3/6 1042/3/6
f 1032/1/6 1033/1/6 1043/1/6
f 1035/3/6 1036/3/6 1045/3/6
f 1045/3/6 1036/3/6 1046/3/6
f 1039/3/6 1040/3/6 1049/3/6
f 1040/2/6 1041/2/6 1050/2/6
f 1049/3/6 1040/3/6 1050/3/6
f 1041/4/6 1042/4/6 1051/4/6
f 1050/2/6 1041/2/6 1051/2/6
f 1042/1/6 1012/1/6 1052/1/6
f 1051/4/6 1042/4/6 1052/4/6
f 1052/1/6 1012/1/6 1053/1/6
f 1043/3/6 1044/3/6 1054/3/6
f 1032/1/6 1043/1/6 1054/1/6
f 1054/3/6 1044/3/6 1055/3/6
f 1047/3/6 1048/3/6 1058/3/6
f 1058/3/6 1048/3/6 1059/3/6
f 1049/4/6 1050/4/6 1060/4/6
f 1050/3/6 1051/3/6 1061/3/6
f 1060/4/6 1050/4/6 1061/4/6
f 1061/3/6 1051/3/6 1062/3/6
f 1032/1/6 1054/1/6 1065/1/6
f 1054/4/6 1055/4/6 1065/4/6
f 1055/2/6 1056/2/6 1066/2/6
f 1065/4/6 1055/4/6 1066/4/6
f 1066/2/6 1056/2/6 1067/2/6
f 1057/3/6 1058/3/6 1068/3/6
f 1068/3/6 1058/3/6 1069/3/6
f 1059/3/6 1060/3/6 1070/3/6
f 1070/3/6 1060/3/6 1071/3/6
f 1063/1/6 1064/1/6 1073/1/6
f 1032/1/6 1065/1/6 1074/1/6
f 1065/2/6 1066/2/6 1075/2/6
f 1074/1/6 1065/1/6 1075/1/6
f 1075/2/6 1066/2/6 1076/2/6
f 1069/3/6 1070/3/6 1077/3/6
f 1077/3/6 1070/3/6 1078/3/6
f 1072/3/6 1073/3/6 1080/3/6
f 1080/3/6 1073/3/6 1081/3/6
f 1067/3/6 1068/3/6 1085/3/6
f 1085/3/6 1068/3/6 1086/3/6
f 1078/2/6 1079/2/6 1088/2/6
f 1079/3/6 1080/3/6 1089/3/6
f 1088/2/6 1079/2/6 1089/2/6
f 1089/3/6 1080/3/6 1090/3/6
f 1081/3/6 1073/3/6 1091/3/6
f 1073/1/6 1064/1/6 1092/1/6
f 1091/3/6 1073/3/6 1092/3/6
f 1083/3/6 1084/3/6 1093/3/6
f 1082/1/6 1083/1/6 1093/1/6
f 1093/3/6 1084/3/6 1094/3/6
f 1086/4/6 1087/4/6 1096/4/6
f 1096/4/6 1087/4/6 1097/4/6
f 1088/3/6 1089/3/6 1098/3/6
f 1098/3/6 1089/3/6 1099/3/6
f 1082/1/6 1093/1/6 1101/1/6
f 1095/2/6 1096/2/6 1102/2/6
f 1096/3/6 1097/3/6 1103/3/6
f 1102/2/6 1096/2/6 1103/2/6
f 1103/3/6 1097/3/6 1104/3/6
f 1099/2/6 1100/2/6 1106/2/6
f 1106/2/6 1100/2/6 1107/2/6
f 1092/1/6 1064/1/6 1109/1/6
f 1104/1/6 1105/1/6 1110/1/6
f 1101/1/6 1102/1/6 1110/1/6
f 1082/1/6 1101/1/6 1110/1/6
f 1102/1/6 1103/1/6 1110/1/6
f 1103/1/6 1104/1/6 1110/1/6
f 1110/1/6 1105/1/6 1111/1/6
f 1107/1/6 1108/1/6 1112/1/6
f 1106/1/6 1107/1/6 1112/1/6
f 1112/1/6 1108/1/6 1113/1/6
f 1109/1/6 1064/1/6 1114/1/6
f 1114/1/6 1064/1/6 1115/1/6
f 1116/1/6 1117/1/6 1118/1/6
f 1118/1/6 1117/1/6 1119/1/6
f 1119/1/6 1117/1/6 1120/1/6
f 1118/4/6 1119/4/6 1125/4/6
f 1119/3/6 1120/3/6 1126/3/6
f 1125/4/6 1119/4/6 1126/4/6
f 1126/3/6 1120/3/6 1127/3/6
f 1121/1/6 1122/1/6 1128/1/6
f 1122/3/6 1123/3/6 1129/3/6
f 1128/1/6 1122/1/6 1129/1/6
f 1129/3/6 1123/3/6 1130/3/6
f 1124/3/6 1125/3/6 1133/3/6
f 1125/3/6 1126/3/6 1133/3/6
f 1133/3/6 1126/3/6 1134/3/6
f 1134/3/6 1126/3/6 1135/3/6
f 1129/2/6 1130/2/6 1136/2/6
f 1130/3/6 1131/3/6 1137/3/6
f 1136/2/6 1130/2/6 1137/2/6
f 1137/3/6 1131/3/6 1138/3/6
f 1133/3/6 1134/3/6 1140/3/6
f 1132/3/6 1133/3/6 1140/3/6
f 1140/3/6 1134/3/6 1141/3/6
f 1141/3/6 1134/3/6 1142/3/6
f 1137/3/6 1138/3/6 1143/3/6
f 1138/4/6 1139/4/6 1144/4/6
f 1143/3/6 1138/3/6 1144/3/6
f 1139/3/6 1140/3/6 1145/3/6
f 1144/4/6 1139/4/6 1145/4/6
f 1145/3/6 1140/3/6 1146/3/6
f 1144/3/6 1145/3/6 1149/3/6
f 1149/3/6 1145/3/6 1150/3/6
f 1147/3/6 1148/3/6 1153/3/6
f 1150/3/6 1151/3/6 1154/3/6
f 1152/3/6 1153/3/6 1155/3/6
f 1153/3/6 1148/3/6 1156/3/6
f 1155/3/6 1153/3/6 1156/3/6
f 1150/3/6 1154/3/6 1160/3/6
f 1154/3/6 1155/3/6 1160/3/6
f 1160/3/6 1155/3/6 1161/3/6
f 1156/4/6 1157/4/6 1163/4/6
f 1163/4/6 1157/4/6 1164/4/6
f 1158/2/6 1159/2/6 1167/2/6
f 1159/3/6 1160/3/6 1168/3/6
f 1167/2/6 1159/2/6 1168/2/6
f 1168/3/6 1160/3/6 1169/3/6
f 1163/3/6 1164/3/6 1170/3/6
f 1162/3/6 1163/3/6 1170/3/6
f 1164/3/6 1165/3/6 1170/3/6
f 1170/3/6 1165/3/6 1171/3/6
f 1167/3/6 1168/3/6 1172/3/6
f 1166/3/6 1167/3/6 1172/3/6
f 1172/3/6 1168/3/6 1173/3/6
f 1171/3/6 1165/3/6 1174/3/6
f 1174/3/6 1165/3/6 1175/3/6
f 1175/3/6 1165/3/6 1176/3/6
f 1175/1/6 1176/1/6 1177/1/6
f 1177/1/6 1176/1/6 1178/1/6
f 1179/3/6 1180/3/6 1183/3/6
f 1180/4/6 1181/4/6 1184/4/6
f 1183/3/6 1180/3/6 1184/3/6
f 1184/4/6 1181/4/6 1185/4/6
f 1182/3/6 1183/3/6 1186/3/6
f 1183/3/6 1184/3/6 1186/3/6
f 1184/3/6 1185/3/6 1186/3/6
f 1186/3/6 1185/3/6 1187/3/6
f 1187/3/6 1185/3/6 1188/3/6
f 1188/3/6 1185/3/6 1189/3/6
f 1187/4/6 1188/4/6 1190/4/6
f 1190/4/6 1188/4/6 1191/4/6
