# MagicaVoxel @ Ephtracy

# group
o 

# material
mtllib vrach2-4.mtl
usemtl palette

# normals
vn -1 0 0
vn 1 0 0
vn 0 0 1
vn 0 0 -1
vn 0 -1 0
vn 0 1 0

# texcoords
vt 0.583984 0.5
vt 0.791016 0.5
vt 0.822266 0.5
vt 0.853516 0.5
vt 0.896484 0.5
vt 0.927734 0.5
vt 0.966797 0.5
vt 0.970703 0.5
vt 0.978516 0.5
vt 0.982422 0.5
vt 0.986328 0.5
vt 0.990234 0.5
vt 0.994141 0.5

# verts
v -0.2 -1 0
v -0.2 -1 -0.1
v -0.2 -0.9 0.2
v -0.2 -0.9 0
v -0.2 -0.9 -0.1
v -0.2 -0.9 -0.3
v -0.2 -0.8 0.2
v -0.2 -0.8 0
v -0.2 -0.8 -0.1
v -0.2 -0.8 -0.3
v -0.2 -0.7 0.2
v -0.2 -0.7 0.1
v -0.2 -0.7 0
v -0.2 -0.7 -0.1
v -0.2 -0.7 -0.2
v -0.2 -0.7 -0.3
v -0.2 -0.6 0.1
v -0.2 -0.6 0
v -0.2 -0.6 -0.1
v -0.2 -0.6 -0.2
v -0.2 -0.5 0.2
v -0.2 -0.5 -0.3
v -0.2 0 0.1
v -0.2 0 0
v -0.2 0 -0.2
v -0.2 0.1 0.1
v -0.2 0.1 0
v -0.2 0.3 0.1
v -0.2 0.3 0
v -0.2 0.3 -0.1
v -0.2 0.4 0
v -0.2 0.4 -0.1
v -0.2 0.5 0
v -0.2 0.5 -0.1
v -0.2 0.6 -0.1
v -0.2 0.6 -0.2
v -0.1 -1 0.2
v -0.1 -1 0
v -0.1 -1 -0.1
v -0.1 -1 -0.3
v -0.1 -0.9 0.3
v -0.1 -0.9 0.2
v -0.1 -0.9 0
v -0.1 -0.9 -0.1
v -0.1 -0.9 -0.3
v -0.1 -0.9 -0.4
v -0.1 -0.8 0.3
v -0.1 -0.8 0.2
v -0.1 -0.8 -0.3
v -0.1 -0.8 -0.4
v -0.1 -0.7 0.3
v -0.1 -0.7 0.2
v -0.1 -0.7 -0.3
v -0.1 -0.7 -0.4
v -0.1 -0.5 0.3
v -0.1 -0.5 0.2
v -0.1 -0.5 0.1
v -0.1 -0.5 -0.2
v -0.1 -0.5 -0.3
v -0.1 -0.5 -0.4
v -0.1 -0.4 0.2
v -0.1 -0.4 0.1
v -0.1 -0.4 0
v -0.1 -0.4 -0.1
v -0.1 -0.4 -0.2
v -0.1 -0.4 -0.3
v -0.1 -0.1 0
v -0.1 -0.1 -0.1
v -0.1 0 0.2
v -0.1 0 0.1
v -0.1 0 0
v -0.1 0 -0.2
v -0.1 0 -0.3
v -0.1 0.1 0.2
v -0.1 0.1 0.1
v -0.1 0.1 -0.2
v -0.1 0.1 -0.3
v -0.1 0.2 -0.2
v -0.1 0.2 -0.3
v -0.1 0.3 0.2
v -0.1 0.3 0.1
v -0.1 0.3 0
v -0.1 0.4 0
v -0.1 0.4 -0.2
v -0.1 0.4 -0.3
v -0.1 0.5 0.1
v -0.1 0.5 0
v -0.1 0.5 -0.1
v -0.1 0.5 -0.2
v -0.1 0.5 -0.3
v -0.1 0.6 0.1
v -0.1 0.6 0
v -0.1 0.6 -0.1
v -0.1 0.6 -0.2
v -0.1 0.6 -0.3
v -0.1 0.7 0
v -0.1 0.7 -0.1
v -0.1 0.7 -0.2
v -0.1 0.7 -0.3
v -0.1 0.8 0
v -0.1 0.8 -0.1
v -0.1 0.8 -0.2
v -0.1 0.8 -0.3
v 0 -1 0.3
v 0 -1 0.2
v 0 -1 -0.3
v 0 -1 -0.4
v 0 -0.9 0.3
v 0 -0.9 0.2
v 0 -0.9 -0.3
v 0 -0.9 -0.4
v 0 -0.4 0.2
v 0 -0.4 0.1
v 0 -0.4 -0.2
v 0 -0.4 -0.3
v 0 -0.3 0.2
v 0 -0.3 0.1
v 0 -0.3 0
v 0 -0.3 -0.1
v 0 -0.3 -0.2
v 0 -0.3 -0.3
v 0 -0.2 0
v 0 -0.2 -0.1
v 0 -0.2 -0.2
v 0 -0.2 -0.3
v 0 0 -0.2
v 0 0 -0.3
v 0 0 -0.4
v 0 0.1 -0.3
v 0 0.1 -0.4
v 0 0.2 -0.2
v 0 0.2 -0.3
v 0 0.2 -0.4
v 0 0.3 0.2
v 0 0.3 0.1
v 0 0.3 -0.2
v 0 0.3 -0.3
v 0 0.3 -0.4
v 0 0.4 -0.2
v 0 0.4 -0.3
v 0 0.5 0.2
v 0 0.5 0.1
v 0 0.5 -0.3
v 0 0.5 -0.4
v 0 0.6 0.1
v 0 0.6 0
v 0 0.6 -0.3
v 0 0.6 -0.4
v 0 0.7 0.2
v 0 0.7 0.1
v 0 0.7 0
v 0 0.8 0.2
v 0 0.8 0.1
v 0 0.8 0
v 0 0.8 -0.1
v 0 0.8 -0.2
v 0 0.8 -0.3
v 0 0.9 0.2
v 0 0.9 0
v 0 0.9 -0.1
v 0 0.9 -0.3
v 0.1 -0.8 -0.2
v 0.1 -0.8 -0.3
v 0.1 -0.7 -0.2
v 0.1 -0.7 -0.3
v 0.1 -0.6 0.3
v 0.1 -0.6 0.2
v 0.1 -0.6 -0.3
v 0.1 -0.6 -0.4
v 0.1 -0.5 0.3
v 0.1 -0.5 0.2
v 0.1 -0.5 -0.3
v 0.1 -0.5 -0.4
v 0.1 -0.3 -0.2
v 0.1 -0.3 -0.3
v 0.1 -0.2 0.1
v 0.1 -0.2 0
v 0.1 -0.2 -0.2
v 0.1 -0.2 -0.3
v 0.1 -0.1 0.1
v 0.1 -0.1 0
v 0.1 -0.1 -0.2
v 0.1 0.1 0
v 0.1 0.1 -0.2
v 0.1 0.3 -0.3
v 0.1 0.3 -0.4
v 0.1 0.4 -0.3
v 0.1 0.4 -0.4
v 0.1 0.5 -0.3
v 0.1 0.5 -0.4
v 0.1 0.6 -0.3
v 0.1 0.6 -0.4
v 0.1 0.8 -0.3
v 0.1 0.8 -0.4
v 0.1 0.9 0.2
v 0.1 0.9 0
v 0.1 0.9 -0.1
v 0.1 0.9 -0.3
v 0.1 1 0.2
v 0.1 1 -0.3
v 0.2 -0.8 0.2
v 0.2 -0.8 -0.2
v 0.2 -0.7 0.2
v 0.2 -0.7 -0.2
v 0.2 -0.7 -0.3
v 0.2 -0.6 0.2
v 0.2 -0.6 0.1
v 0.2 -0.6 -0.2
v 0.2 -0.6 -0.3
v 0.2 0.8 -0.3
v 0.2 0.8 -0.4
v 0.2 0.9 -0.3
v 0.2 0.9 -0.4
v 0.2 1 0
v 0.2 1 -0.3
v 0.2 1.1 0
v 0.2 1.1 -0.3
v -0.1 -0.8 0.2
v -0.1 -0.8 0
v -0.1 -0.8 -0.1
v -0.1 -0.8 -0.3
v -0.1 -0.7 0.2
v -0.1 -0.7 0.1
v -0.1 -0.7 0
v -0.1 -0.7 -0.1
v -0.1 -0.7 -0.2
v -0.1 -0.7 -0.3
v -0.1 -0.6 0.1
v -0.1 -0.6 0
v -0.1 -0.6 -0.1
v -0.1 -0.6 -0.2
v -0.1 -0.6 -0.3
v 0 -0.7 0.2
v 0 -0.7 0.1
v 0 -0.6 0.3
v 0 -0.6 0.2
v 0 -0.6 0.1
v 0 -0.6 -0.3
v 0 -0.6 -0.4
v 0 -0.5 0.3
v 0 -0.5 0.2
v 0 -0.5 -0.3
v 0 -0.5 -0.4
v 0 -0.2 0.1
v 0 -0.2 0
v 0 -0.2 -0.1
v 0 -0.2 -0.2
v 0 -0.1 0.1
v 0 -0.1 0
v 0 -0.1 -0.1
v 0 0.1 0
v 0 0.1 -0.2
v 0.1 -1 0.3
v 0.1 -1 0.2
v 0.1 -1 -0.3
v 0.1 -1 -0.4
v 0.1 -0.9 0.3
v 0.1 -0.9 0.2
v 0.1 -0.9 -0.3
v 0.1 -0.9 -0.4
v 0.1 -0.4 0.2
v 0.1 -0.4 0.1
v 0.1 -0.4 0
v 0.1 -0.4 -0.1
v 0.1 -0.4 -0.2
v 0.1 -0.4 -0.3
v 0.1 -0.3 0.2
v 0.1 -0.3 0.1
v 0.1 -0.3 0
v 0.1 -0.3 -0.1
v 0.1 -0.3 -0.2
v 0.1 -0.3 -0.3
v 0.1 -0.2 0
v 0.1 -0.2 -0.2
v 0.2 -1 0.2
v 0.2 -1 -0.3
v 0.2 -0.9 0.3
v 0.2 -0.9 0.2
v 0.2 -0.9 -0.3
v 0.2 -0.9 -0.4
v 0.2 -0.8 0.3
v 0.2 -0.8 0.2
v 0.2 -0.8 -0.3
v 0.2 -0.8 -0.4
v 0.2 -0.7 0.3
v 0.2 -0.7 0.2
v 0.2 -0.7 -0.3
v 0.2 -0.7 -0.4
v 0.2 -0.5 0.3
v 0.2 -0.5 0.2
v 0.2 -0.5 0.1
v 0.2 -0.5 -0.2
v 0.2 -0.5 -0.3
v 0.2 -0.5 -0.4
v 0.2 -0.4 0.2
v 0.2 -0.4 0.1
v 0.2 -0.4 -0.2
v 0.2 -0.4 -0.3
v 0.2 -0.3 0.1
v 0.2 -0.3 0
v 0.2 -0.3 -0.2
v 0.2 -0.3 -0.3
v 0.2 -0.1 0
v 0.2 -0.1 -0.2
v 0.2 0 0.2
v 0.2 0 0.1
v 0.2 0 0
v 0.2 0 -0.2
v 0.2 0 -0.3
v 0.2 0 -0.4
v 0.2 0.1 0.1
v 0.2 0.1 0
v 0.2 0.1 -0.2
v 0.2 0.2 0.2
v 0.2 0.2 0.1
v 0.2 0.2 -0.1
v 0.2 0.2 -0.2
v 0.2 0.2 -0.3
v 0.2 0.2 -0.4
v 0.2 0.3 0
v 0.2 0.3 -0.1
v 0.2 0.3 -0.2
v 0.2 0.3 -0.3
v 0.2 0.3 -0.4
v 0.2 0.4 0
v 0.2 0.4 -0.2
v 0.2 0.4 -0.3
v 0.2 0.4 -0.4
v 0.2 0.5 0.1
v 0.2 0.5 0
v 0.2 0.5 -0.1
v 0.2 0.5 -0.2
v 0.2 0.5 -0.3
v 0.2 0.5 -0.4
v 0.2 0.7 0.2
v 0.2 0.7 0.1
v 0.2 0.7 0
v 0.2 0.7 -0.1
v 0.2 0.7 -0.2
v 0.2 0.8 -0.1
v 0.2 0.8 -0.2
v 0.2 0.8 -0.3
v 0.2 0.8 -0.4
v 0.2 0.9 0.2
v 0.2 0.9 0.1
v 0.2 1 0.2
v 0.2 1 0.1
v 0.3 -0.9 0.2
v 0.3 -0.9 -0.3
v 0.3 -0.8 0.2
v 0.3 -0.8 -0.3
v 0.3 -0.7 0.2
v 0.3 -0.7 -0.3
v 0.3 -0.5 0.2
v 0.3 -0.5 -0.3
v 0.3 0 0.1
v 0.3 0 0
v 0.3 0 -0.2
v 0.3 0 -0.3
v 0.3 0.1 0.1
v 0.3 0.1 0
v 0.3 0.1 -0.2
v 0.3 0.2 0.1
v 0.3 0.2 -0.1
v 0.3 0.2 -0.2
v 0.3 0.2 -0.3
v 0.3 0.3 0
v 0.3 0.3 -0.1
v 0.3 0.3 -0.2
v 0.3 0.3 -0.3
v 0.3 0.4 0
v 0.3 0.4 -0.1
v 0.3 0.4 -0.2
v 0.3 0.4 -0.3
v 0.3 0.5 0.1
v 0.3 0.5 0
v 0.3 0.5 -0.1
v 0.3 0.5 -0.2
v 0.3 0.5 -0.3
v 0.3 0.7 0.2
v 0.3 0.7 0.1
v 0.3 0.7 0
v 0.3 0.7 -0.1
v 0.3 0.7 -0.2
v 0.3 0.8 -0.1
v 0.3 0.8 -0.2
v 0.3 0.8 -0.3
v 0.3 0.8 -0.4
v 0.3 0.9 0.2
v 0.3 0.9 0.1
v 0.3 0.9 -0.1
v 0.3 0.9 -0.2
v 0.3 0.9 -0.3
v 0.3 0.9 -0.4
v 0.3 1 0.1
v 0.3 1 0
v 0.3 1 -0.1
v 0.3 1 -0.2
v 0.3 1.1 0
v 0.3 1.1 -0.3
v -0.1 -0.9 0.3
v -0.1 -0.8 0.3
v -0.1 -0.7 0.3
v -0.1 -0.5 0.3
v 0 -1 0.3
v 0 -0.9 0.3
v 0 -0.6 0.3
v 0 -0.5 0.3
v 0.1 -1 0.3
v 0.1 -0.9 0.3
v 0.1 -0.6 0.3
v 0.1 -0.5 0.3
v 0.2 -0.9 0.3
v 0.2 -0.8 0.3
v 0.2 -0.7 0.3
v 0.2 -0.5 0.3
v -0.2 -0.9 0.2
v -0.2 -0.8 0.2
v -0.2 -0.7 0.2
v -0.2 -0.5 0.2
v -0.1 -1 0.2
v -0.1 -0.9 0.2
v -0.1 -0.8 0.2
v -0.1 -0.7 0.2
v -0.1 -0.5 0.2
v -0.1 -0.4 0.2
v -0.1 0 0.2
v -0.1 0.1 0.2
v -0.1 0.3 0.2
v 0 -1 0.2
v 0 -0.9 0.2
v 0 -0.6 0.2
v 0 -0.5 0.2
v 0 -0.4 0.2
v 0 -0.3 0.2
v 0 0 0.2
v 0 0.1 0.2
v 0 0.3 0.2
v 0 0.5 0.2
v 0 0.7 0.2
v 0 0.8 0.2
v 0 0.9 0.2
v 0.1 -1 0.2
v 0.1 -0.9 0.2
v 0.1 -0.6 0.2
v 0.1 -0.5 0.2
v 0.1 -0.4 0.2
v 0.1 -0.3 0.2
v 0.1 0 0.2
v 0.1 0.2 0.2
v 0.1 0.3 0.2
v 0.1 0.5 0.2
v 0.1 0.7 0.2
v 0.1 0.8 0.2
v 0.1 0.9 0.2
v 0.1 1 0.2
v 0.2 -1 0.2
v 0.2 -0.9 0.2
v 0.2 -0.8 0.2
v 0.2 -0.7 0.2
v 0.2 -0.5 0.2
v 0.2 -0.4 0.2
v 0.2 0 0.2
v 0.2 0.2 0.2
v 0.2 0.7 0.2
v 0.2 0.9 0.2
v 0.2 1 0.2
v 0.3 -0.9 0.2
v 0.3 -0.8 0.2
v 0.3 -0.7 0.2
v 0.3 -0.5 0.2
v 0.3 0.7 0.2
v 0.3 0.9 0.2
v -0.2 0 0.1
v -0.2 0.1 0.1
v -0.2 0.3 0.1
v -0.1 -0.4 0.1
v -0.1 0 0.1
v -0.1 0.1 0.1
v -0.1 0.3 0.1
v -0.1 0.5 0.1
v -0.1 0.6 0.1
v 0 -0.4 0.1
v 0 -0.3 0.1
v 0 -0.2 0.1
v 0 -0.1 0.1
v 0 0 0.1
v 0 0.3 0.1
v 0 0.5 0.1
v 0 0.6 0.1
v 0.1 -0.3 0.1
v 0.1 -0.2 0.1
v 0.1 -0.1 0.1
v 0.1 0 0.1
v 0.2 -0.3 0.1
v 0.2 0 0.1
v 0.2 0.1 0.1
v 0.2 0.2 0.1
v 0.2 0.5 0.1
v 0.2 0.7 0.1
v 0.2 0.9 0.1
v 0.2 1 0.1
v 0.3 0 0.1
v 0.3 0.1 0.1
v 0.3 0.2 0.1
v 0.3 0.5 0.1
v 0.3 0.7 0.1
v 0.3 0.9 0.1
v 0.3 1 0.1
v -0.2 -1 0
v -0.2 -0.9 0
v -0.2 0.3 0
v -0.2 0.4 0
v -0.2 0.5 0
v -0.1 -1 0
v -0.1 -0.9 0
v -0.1 0.3 0
v -0.1 0.4 0
v -0.1 0.5 0
v -0.1 0.6 0
v -0.1 0.7 0
v -0.1 0.8 0
v 0 0.6 0
v 0 0.7 0
v 0 0.8 0
v 0.2 0.3 0
v 0.2 0.4 0
v 0.2 0.5 0
v 0.2 1 0
v 0.2 1.1 0
v 0.3 0.3 0
v 0.3 0.4 0
v 0.3 0.5 0
v 0.3 1 0
v 0.3 1.1 0
v -0.2 0.5 -0.1
v -0.2 0.6 -0.1
v -0.1 -0.4 -0.1
v -0.1 -0.1 -0.1
v -0.1 0.5 -0.1
v -0.1 0.6 -0.1
v 0 -0.3 -0.1
v 0 -0.2 -0.1
v 0 -0.1 -0.1
v 0.1 -0.4 -0.1
v 0.1 -0.3 -0.1
v 0.2 0.2 -0.1
v 0.2 0.3 -0.1
v 0.2 0.5 -0.1
v 0.2 0.7 -0.1
v 0.3 0.2 -0.1
v 0.3 0.3 -0.1
v 0.3 0.5 -0.1
v 0.3 0.7 -0.1
v -0.1 -0.5 -0.2
v -0.1 -0.4 -0.2
v 0 -0.5 -0.2
v 0 -0.4 -0.2
v 0 -0.2 -0.2
v 0 0.1 -0.2
v 0.1 -0.8 -0.2
v 0.1 -0.7 -0.2
v 0.1 -0.5 -0.2
v 0.1 -0.4 -0.2
v 0.1 -0.3 -0.2
v 0.1 -0.2 -0.2
v 0.1 -0.1 -0.2
v 0.1 0.1 -0.2
v 0.2 -0.8 -0.2
v 0.2 -0.7 -0.2
v 0.2 -0.5 -0.2
v 0.2 -0.4 -0.2
v 0.2 -0.3 -0.2
v 0.2 -0.1 -0.2
v 0.2 0 -0.2
v 0.2 0.1 -0.2
v 0.2 0.7 -0.2
v 0.2 0.8 -0.2
v 0.3 0 -0.2
v 0.3 0.1 -0.2
v 0.3 0.7 -0.2
v 0.3 0.8 -0.2
v -0.1 -0.8 -0.3
v -0.1 -0.7 -0.3
v -0.1 -0.6 -0.3
v 0.1 -0.8 -0.3
v 0.1 -0.7 -0.3
v 0.2 -0.7 -0.3
v 0.2 -0.6 -0.3
v -0.1 -0.8 0.2
v -0.1 -0.7 0.2
v 0 -0.7 0.2
v 0 -0.6 0.2
v 0.2 -0.8 0.2
v 0.2 -0.7 0.2
v 0.2 -0.6 0.2
v -0.1 -0.7 0.1
v -0.1 -0.6 0.1
v -0.1 -0.5 0.1
v -0.1 -0.4 0.1
v 0 -0.7 0.1
v 0 -0.6 0.1
v 0 -0.5 0.1
v 0 -0.4 0.1
v 0.1 -0.5 0.1
v 0.1 -0.4 0.1
v 0.2 -0.5 0.1
v 0.2 -0.4 0.1
v -0.1 -0.4 0
v -0.1 -0.1 0
v 0 -0.3 0
v 0 -0.2 0
v 0 -0.1 0
v 0 0.1 0
v 0.1 -0.4 0
v 0.1 -0.3 0
v 0.1 -0.2 0
v 0.1 -0.1 0
v 0.1 0.1 0
v 0.2 -0.3 0
v 0.2 -0.1 0
v 0.2 0 0
v 0.2 0.1 0
v 0.2 0.5 0
v 0.2 0.7 0
v 0.3 0 0
v 0.3 0.1 0
v 0.3 0.5 0
v 0.3 0.7 0
v -0.2 -1 -0.1
v -0.2 -0.9 -0.1
v -0.1 -1 -0.1
v -0.1 -0.9 -0.1
v 0.2 0.7 -0.1
v 0.2 0.8 -0.1
v 0.3 0.7 -0.1
v 0.3 0.8 -0.1
v -0.2 0 -0.2
v -0.2 0.6 -0.2
v -0.1 -0.4 -0.2
v -0.1 0 -0.2
v -0.1 0.1 -0.2
v -0.1 0.2 -0.2
v -0.1 0.4 -0.2
v -0.1 0.5 -0.2
v -0.1 0.6 -0.2
v 0 -0.4 -0.2
v 0 -0.3 -0.2
v 0 -0.2 -0.2
v 0 0 -0.2
v 0 0.2 -0.2
v 0 0.3 -0.2
v 0 0.4 -0.2
v 0.1 -0.3 -0.2
v 0.1 -0.2 -0.2
v 0.2 0.2 -0.2
v 0.2 0.3 -0.2
v 0.2 0.4 -0.2
v 0.2 0.5 -0.2
v 0.3 0.2 -0.2
v 0.3 0.3 -0.2
v 0.3 0.4 -0.2
v 0.3 0.5 -0.2
v -0.2 -0.9 -0.3
v -0.2 -0.8 -0.3
v -0.2 -0.7 -0.3
v -0.2 -0.5 -0.3
v -0.1 -1 -0.3
v -0.1 -0.9 -0.3
v -0.1 -0.8 -0.3
v -0.1 -0.7 -0.3
v -0.1 -0.5 -0.3
v -0.1 -0.4 -0.3
v -0.1 0 -0.3
v -0.1 0.1 -0.3
v -0.1 0.2 -0.3
v -0.1 0.4 -0.3
v -0.1 0.5 -0.3
v -0.1 0.6 -0.3
v -0.1 0.7 -0.3
v -0.1 0.8 -0.3
v 0 -1 -0.3
v 0 -0.9 -0.3
v 0 -0.6 -0.3
v 0 -0.5 -0.3
v 0 -0.4 -0.3
v 0 -0.3 -0.3
v 0 -0.2 -0.3
v 0 0 -0.3
v 0 0.1 -0.3
v 0 0.2 -0.3
v 0 0.3 -0.3
v 0 0.4 -0.3
v 0 0.5 -0.3
v 0 0.6 -0.3
v 0 0.7 -0.3
v 0 0.8 -0.3
v 0 0.9 -0.3
v 0.1 -1 -0.3
v 0.1 -0.9 -0.3
v 0.1 -0.6 -0.3
v 0.1 -0.5 -0.3
v 0.1 -0.4 -0.3
v 0.1 -0.3 -0.3
v 0.1 -0.2 -0.3
v 0.1 0.3 -0.3
v 0.1 0.4 -0.3
v 0.1 0.5 -0.3
v 0.1 0.6 -0.3
v 0.1 0.8 -0.3
v 0.1 0.9 -0.3
v 0.1 1 -0.3
v 0.2 -1 -0.3
v 0.2 -0.9 -0.3
v 0.2 -0.8 -0.3
v 0.2 -0.7 -0.3
v 0.2 -0.5 -0.3
v 0.2 -0.4 -0.3
v 0.2 -0.3 -0.3
v 0.2 0 -0.3
v 0.2 0.2 -0.3
v 0.2 0.3 -0.3
v 0.2 0.4 -0.3
v 0.2 0.5 -0.3
v 0.2 0.8 -0.3
v 0.2 0.9 -0.3
v 0.2 1 -0.3
v 0.2 1.1 -0.3
v 0.3 -0.9 -0.3
v 0.3 -0.8 -0.3
v 0.3 -0.7 -0.3
v 0.3 -0.5 -0.3
v 0.3 0 -0.3
v 0.3 0.2 -0.3
v 0.3 0.3 -0.3
v 0.3 0.4 -0.3
v 0.3 0.5 -0.3
v 0.3 0.8 -0.3
v 0.3 0.9 -0.3
v 0.3 1.1 -0.3
v -0.1 -0.9 -0.4
v -0.1 -0.8 -0.4
v -0.1 -0.7 -0.4
v -0.1 -0.5 -0.4
v 0 -1 -0.4
v 0 -0.9 -0.4
v 0 -0.6 -0.4
v 0 -0.5 -0.4
v 0 0 -0.4
v 0 0.1 -0.4
v 0 0.2 -0.4
v 0 0.3 -0.4
v 0 0.5 -0.4
v 0 0.6 -0.4
v 0.1 -1 -0.4
v 0.1 -0.9 -0.4
v 0.1 -0.6 -0.4
v 0.1 -0.5 -0.4
v 0.1 0.1 -0.4
v 0.1 0.2 -0.4
v 0.1 0.3 -0.4
v 0.1 0.4 -0.4
v 0.1 0.5 -0.4
v 0.1 0.6 -0.4
v 0.1 0.8 -0.4
v 0.2 -0.9 -0.4
v 0.2 -0.8 -0.4
v 0.2 -0.7 -0.4
v 0.2 -0.5 -0.4
v 0.2 0 -0.4
v 0.2 0.2 -0.4
v 0.2 0.3 -0.4
v 0.2 0.4 -0.4
v 0.2 0.5 -0.4
v 0.2 0.8 -0.4
v 0.2 0.9 -0.4
v 0.3 0.8 -0.4
v 0.3 0.9 -0.4
v 0 -1 0.3
v 0.1 -1 0.3
v -0.1 -1 0.2
v 0 -1 0.2
v 0.1 -1 0.2
v 0.2 -1 0.2
v -0.2 -1 0
v -0.1 -1 0
v -0.2 -1 -0.1
v -0.1 -1 -0.1
v -0.1 -1 -0.3
v 0 -1 -0.3
v 0.1 -1 -0.3
v 0.2 -1 -0.3
v 0 -1 -0.4
v 0.1 -1 -0.4
v -0.1 -0.9 0.3
v 0 -0.9 0.3
v 0.1 -0.9 0.3
v 0.2 -0.9 0.3
v -0.2 -0.9 0.2
v -0.1 -0.9 0.2
v 0 -0.9 0.2
v 0.1 -0.9 0.2
v 0.2 -0.9 0.2
v 0.3 -0.9 0.2
v -0.2 -0.9 0
v -0.1 -0.9 0
v -0.2 -0.9 -0.1
v -0.1 -0.9 -0.1
v -0.2 -0.9 -0.3
v -0.1 -0.9 -0.3
v 0 -0.9 -0.3
v 0.1 -0.9 -0.3
v 0.2 -0.9 -0.3
v 0.3 -0.9 -0.3
v -0.1 -0.9 -0.4
v 0 -0.9 -0.4
v 0.1 -0.9 -0.4
v 0.2 -0.9 -0.4
v -0.1 -0.7 0.2
v 0 -0.7 0.2
v -0.1 -0.7 0.1
v 0 -0.7 0.1
v 0 -0.6 0.2
v 0.2 -0.6 0.2
v -0.1 -0.6 0.1
v 0 -0.6 0.1
v 0.2 -0.6 0.1
v -0.1 -0.6 0
v -0.1 -0.6 -0.1
v -0.1 -0.6 -0.2
v 0.2 -0.6 -0.2
v -0.1 -0.6 -0.3
v 0.2 -0.6 -0.3
v -0.1 -0.4 0.1
v 0 -0.4 0.1
v 0.1 -0.4 0.1
v -0.1 -0.4 0
v 0.1 -0.4 0
v -0.1 -0.4 -0.1
v 0.1 -0.4 -0.1
v -0.1 -0.4 -0.2
v 0 -0.4 -0.2
v 0.1 -0.4 -0.2
v 0.1 -0.3 0.1
v 0.2 -0.3 0.1
v 0 -0.3 0
v 0.1 -0.3 0
v 0.2 -0.3 0
v 0 -0.3 -0.1
v 0.1 -0.3 -0.1
v 0.1 -0.3 -0.2
v 0.2 -0.3 -0.2
v 0.1 -0.3 -0.3
v 0.2 -0.3 -0.3
v 0 -0.2 -0.2
v 0.1 -0.2 -0.2
v 0 -0.2 -0.3
v 0.1 -0.2 -0.3
v 0 -0.1 0.1
v 0.1 -0.1 0.1
v -0.1 -0.1 0
v 0 -0.1 0
v 0.1 -0.1 0
v 0.2 -0.1 0
v -0.1 -0.1 -0.1
v 0 -0.1 -0.1
v 0.1 -0.1 -0.2
v 0.2 -0.1 -0.2
v -0.1 0 0.2
v 0 0 0.2
v 0.1 0 0.2
v 0.2 0 0.2
v -0.2 0 0.1
v -0.1 0 0.1
v 0 0 0.1
v 0.1 0 0.1
v 0.2 0 0.1
v 0.3 0 0.1
v -0.2 0 0
v -0.1 0 0
v 0.2 0 0
v 0.3 0 0
v -0.2 0 -0.2
v -0.1 0 -0.2
v 0 0 -0.2
v 0.2 0 -0.2
v 0.3 0 -0.2
v -0.1 0 -0.3
v 0 0 -0.3
v 0.2 0 -0.3
v 0.3 0 -0.3
v 0 0 -0.4
v 0.2 0 -0.4
v 0 0.1 0
v 0.1 0.1 0
v 0.2 0.1 0
v 0.3 0.1 0
v 0 0.1 -0.2
v 0.1 0.1 -0.2
v 0.2 0.1 -0.2
v 0.3 0.1 -0.2
v 0.2 0.3 0
v 0.3 0.3 0
v 0.2 0.3 -0.1
v 0.3 0.3 -0.1
v 0.2 0.3 -0.2
v 0.3 0.3 -0.2
v 0.2 0.3 -0.3
v 0.3 0.3 -0.3
v -0.1 0.4 -0.2
v 0 0.4 -0.2
v -0.1 0.4 -0.3
v 0 0.4 -0.3
v 0.2 0.5 0.1
v 0.3 0.5 0.1
v 0.2 0.5 0
v 0.3 0.5 0
v 0.2 0.5 -0.2
v 0.3 0.5 -0.2
v 0 0.5 -0.3
v 0.1 0.5 -0.3
v 0.2 0.5 -0.3
v 0.3 0.5 -0.3
v 0 0.5 -0.4
v 0.1 0.5 -0.4
v 0.2 0.7 0.2
v 0.3 0.7 0.2
v 0.2 0.7 0.1
v 0.3 0.7 0.1
v 0.2 0.7 0
v 0.3 0.7 0
v 0.2 0.7 -0.1
v 0.3 0.7 -0.1
v 0.2 0.8 -0.1
v 0.3 0.8 -0.1
v 0.2 0.8 -0.2
v 0.3 0.8 -0.2
v 0.2 0.8 -0.3
v 0.3 0.8 -0.3
v 0.2 0.8 -0.4
v 0.3 0.8 -0.4
v -0.1 -0.8 0.2
v 0.2 -0.8 0.2
v -0.1 -0.8 0
v -0.1 -0.8 -0.1
v 0.1 -0.8 -0.2
v 0.2 -0.8 -0.2
v -0.1 -0.8 -0.3
v 0.1 -0.8 -0.3
v 0.1 -0.7 -0.2
v 0.2 -0.7 -0.2
v 0.1 -0.7 -0.3
v 0.2 -0.7 -0.3
v 0 -0.6 0.3
v 0.1 -0.6 0.3
v 0 -0.6 0.2
v 0.1 -0.6 0.2
v 0 -0.6 -0.3
v 0.1 -0.6 -0.3
v 0 -0.6 -0.4
v 0.1 -0.6 -0.4
v -0.1 -0.5 0.3
v 0 -0.5 0.3
v 0.1 -0.5 0.3
v 0.2 -0.5 0.3
v -0.2 -0.5 0.2
v -0.1 -0.5 0.2
v 0 -0.5 0.2
v 0.1 -0.5 0.2
v 0.2 -0.5 0.2
v 0.3 -0.5 0.2
v -0.1 -0.5 0.1
v 0 -0.5 0.1
v 0.1 -0.5 0.1
v 0.2 -0.5 0.1
v -0.1 -0.5 -0.2
v 0 -0.5 -0.2
v 0.1 -0.5 -0.2
v 0.2 -0.5 -0.2
v -0.2 -0.5 -0.3
v -0.1 -0.5 -0.3
v 0 -0.5 -0.3
v 0.1 -0.5 -0.3
v 0.2 -0.5 -0.3
v 0.3 -0.5 -0.3
v -0.1 -0.5 -0.4
v 0 -0.5 -0.4
v 0.1 -0.5 -0.4
v 0.2 -0.5 -0.4
v -0.1 -0.4 0.2
v 0 -0.4 0.2
v 0.1 -0.4 0.2
v 0.2 -0.4 0.2
v -0.1 -0.4 0.1
v 0 -0.4 0.1
v 0.1 -0.4 0.1
v 0.2 -0.4 0.1
v -0.1 -0.4 -0.2
v 0 -0.4 -0.2
v 0.1 -0.4 -0.2
v 0.2 -0.4 -0.2
v -0.1 -0.4 -0.3
v 0 -0.4 -0.3
v 0.1 -0.4 -0.3
v 0.2 -0.4 -0.3
v 0 -0.3 0.2
v 0.1 -0.3 0.2
v 0 -0.3 0.1
v 0.1 -0.3 0.1
v 0 -0.3 -0.2
v 0.1 -0.3 -0.2
v 0 -0.3 -0.3
v 0.1 -0.3 -0.3
v 0 -0.2 0.1
v 0.1 -0.2 0.1
v 0 -0.2 0
v 0.1 -0.2 0
v 0 -0.2 -0.1
v 0 -0.2 -0.2
v 0.1 -0.2 -0.2
v 0.2 0.2 0.1
v 0.3 0.2 0.1
v 0.2 0.2 -0.1
v 0.3 0.2 -0.1
v -0.1 0.2 -0.2
v 0 0.2 -0.2
v 0.2 0.2 -0.2
v 0.3 0.2 -0.2
v -0.1 0.2 -0.3
v 0 0.2 -0.3
v 0.2 0.2 -0.3
v 0.3 0.2 -0.3
v -0.1 0.3 0.2
v 0 0.3 0.2
v -0.2 0.3 0.1
v -0.1 0.3 0.1
v 0 0.3 0.1
v -0.2 0.3 0
v -0.1 0.3 0
v 0 0.3 -0.3
v 0.1 0.3 -0.3
v 0 0.3 -0.4
v 0.1 0.3 -0.4
v 0.2 0.4 -0.2
v 0.3 0.4 -0.2
v 0.2 0.4 -0.3
v 0.3 0.4 -0.3
v -0.2 0.5 0
v -0.1 0.5 0
v 0.2 0.5 0
v 0.3 0.5 0
v -0.2 0.5 -0.1
v -0.1 0.5 -0.1
v 0.2 0.5 -0.1
v 0.3 0.5 -0.1
v -0.1 0.6 0.1
v 0 0.6 0.1
v -0.1 0.6 0
v 0 0.6 0
v -0.2 0.6 -0.1
v -0.1 0.6 -0.1
v -0.2 0.6 -0.2
v -0.1 0.6 -0.2
v 0 0.6 -0.3
v 0.1 0.6 -0.3
v 0 0.6 -0.4
v 0.1 0.6 -0.4
v 0.2 0.7 -0.1
v 0.3 0.7 -0.1
v 0.2 0.7 -0.2
v 0.3 0.7 -0.2
v -0.1 0.8 0
v 0 0.8 0
v -0.1 0.8 -0.1
v 0 0.8 -0.1
v -0.1 0.8 -0.2
v 0 0.8 -0.2
v -0.1 0.8 -0.3
v 0 0.8 -0.3
v 0.1 0.8 -0.3
v 0.2 0.8 -0.3
v 0.1 0.8 -0.4
v 0.2 0.8 -0.4
v 0 0.9 0.2
v 0.1 0.9 0.2
v 0.2 0.9 0.2
v 0.3 0.9 0.2
v 0.2 0.9 0.1
v 0.3 0.9 0.1
v 0 0.9 0
v 0.1 0.9 0
v 0 0.9 -0.1
v 0.1 0.9 -0.1
v 0 0.9 -0.3
v 0.1 0.9 -0.3
v 0.2 0.9 -0.3
v 0.3 0.9 -0.3
v 0.2 0.9 -0.4
v 0.3 0.9 -0.4
v 0.1 1 0.2
v 0.2 1 0.2
v 0.2 1 0.1
v 0.3 1 0.1
v 0.2 1 0
v 0.3 1 0
v 0.1 1 -0.3
v 0.2 1 -0.3
v 0.2 1.1 0
v 0.3 1.1 0
v 0.2 1.1 -0.3
v 0.3 1.1 -0.3

# faces
f 4/11/1 2/11/1 1/11/1
f 5/11/1 2/11/1 4/11/1
f 7/12/1 4/12/1 3/12/1
f 7/12/1 6/12/1 5/12/1
f 7/12/1 5/12/1 4/12/1
f 8/12/1 6/12/1 7/12/1
f 9/12/1 6/12/1 8/12/1
f 10/12/1 6/12/1 9/12/1
f 11/1/1 8/1/1 7/1/1
f 12/1/1 8/1/1 11/1/1
f 13/7/1 9/7/1 8/7/1
f 13/1/1 8/1/1 12/1/1
f 14/1/1 10/1/1 9/1/1
f 14/7/1 9/7/1 13/7/1
f 15/1/1 10/1/1 14/1/1
f 16/1/1 10/1/1 15/1/1
f 17/12/1 12/12/1 11/12/1
f 17/7/1 13/7/1 12/7/1
f 18/13/1 14/13/1 13/13/1
f 18/7/1 13/7/1 17/7/1
f 19/7/1 15/7/1 14/7/1
f 19/13/1 14/13/1 18/13/1
f 20/12/1 16/12/1 15/12/1
f 20/7/1 15/7/1 19/7/1
f 21/12/1 19/12/1 18/12/1
f 21/12/1 17/12/1 11/12/1
f 21/12/1 20/12/1 19/12/1
f 21/12/1 18/12/1 17/12/1
f 22/12/1 16/12/1 20/12/1
f 22/12/1 20/12/1 21/12/1
f 26/6/1 24/6/1 23/6/1
f 27/9/1 25/9/1 24/9/1
f 27/6/1 24/6/1 26/6/1
f 28/9/1 27/9/1 26/9/1
f 29/9/1 25/9/1 27/9/1
f 29/9/1 27/9/1 28/9/1
f 30/9/1 25/9/1 29/9/1
f 31/6/1 30/6/1 29/6/1
f 32/9/1 25/9/1 30/9/1
f 32/6/1 30/6/1 31/6/1
f 33/9/1 32/9/1 31/9/1
f 34/9/1 25/9/1 32/9/1
f 34/9/1 32/9/1 33/9/1
f 35/9/1 25/9/1 34/9/1
f 36/9/1 25/9/1 35/9/1
f 42/12/1 38/12/1 37/12/1
f 43/12/1 38/12/1 42/12/1
f 44/12/1 40/12/1 39/12/1
f 45/12/1 40/12/1 44/12/1
f 47/12/1 42/12/1 41/12/1
f 48/12/1 42/12/1 47/12/1
f 49/12/1 46/12/1 45/12/1
f 50/12/1 46/12/1 49/12/1
f 51/1/1 48/1/1 47/1/1
f 52/1/1 48/1/1 51/1/1
f 53/1/1 50/1/1 49/1/1
f 54/1/1 50/1/1 53/1/1
f 55/12/1 52/12/1 51/12/1
f 56/12/1 52/12/1 55/12/1
f 59/12/1 54/12/1 53/12/1
f 60/12/1 54/12/1 59/12/1
f 61/11/1 57/11/1 56/11/1
f 62/11/1 57/11/1 61/11/1
f 65/11/1 59/11/1 58/11/1
f 66/11/1 59/11/1 65/11/1
f 67/8/1 63/8/1 62/8/1
f 68/8/1 65/8/1 64/8/1
f 70/8/1 67/8/1 62/8/1
f 70/8/1 68/8/1 67/8/1
f 71/8/1 68/8/1 70/8/1
f 72/8/1 65/8/1 68/8/1
f 72/8/1 68/8/1 71/8/1
f 74/6/1 70/6/1 69/6/1
f 75/6/1 70/6/1 74/6/1
f 76/6/1 73/6/1 72/6/1
f 77/6/1 73/6/1 76/6/1
f 78/9/1 77/9/1 76/9/1
f 79/9/1 77/9/1 78/9/1
f 80/9/1 75/9/1 74/9/1
f 81/9/1 75/9/1 80/9/1
f 83/6/1 82/6/1 81/6/1
f 86/6/1 83/6/1 81/6/1
f 87/6/1 83/6/1 86/6/1
f 89/9/1 85/9/1 84/9/1
f 90/9/1 85/9/1 89/9/1
f 91/9/1 88/9/1 87/9/1
f 91/9/1 87/9/1 86/9/1
f 92/9/1 88/9/1 91/9/1
f 93/9/1 88/9/1 92/9/1
f 94/6/1 90/6/1 89/6/1
f 95/6/1 90/6/1 94/6/1
f 96/9/1 93/9/1 92/9/1
f 96/9/1 95/9/1 94/9/1
f 96/9/1 94/9/1 93/9/1
f 97/9/1 95/9/1 96/9/1
f 98/9/1 95/9/1 97/9/1
f 99/9/1 95/9/1 98/9/1
f 100/6/1 97/6/1 96/6/1
f 101/9/1 98/9/1 97/9/1
f 101/6/1 97/6/1 100/6/1
f 102/6/1 99/6/1 98/6/1
f 102/9/1 98/9/1 101/9/1
f 103/6/1 99/6/1 102/6/1
f 108/11/1 105/11/1 104/11/1
f 109/11/1 105/11/1 108/11/1
f 110/11/1 107/11/1 106/11/1
f 111/11/1 107/11/1 110/11/1
f 116/2/1 113/2/1 112/2/1
f 117/2/1 113/2/1 116/2/1
f 120/2/1 115/2/1 114/2/1
f 121/2/1 115/2/1 120/2/1
f 122/2/1 119/2/1 118/2/1
f 123/2/1 119/2/1 122/2/1
f 126/8/1 125/8/1 124/8/1
f 127/8/1 125/8/1 126/8/1
f 129/9/1 128/9/1 127/9/1
f 130/9/1 128/9/1 129/9/1
f 132/6/1 130/6/1 129/6/1
f 133/6/1 130/6/1 132/6/1
f 136/5/1 132/5/1 131/5/1
f 137/9/1 133/9/1 132/9/1
f 137/5/1 132/5/1 136/5/1
f 138/9/1 133/9/1 137/9/1
f 139/9/1 137/9/1 136/9/1
f 140/9/1 137/9/1 139/9/1
f 141/6/1 135/6/1 134/6/1
f 142/6/1 135/6/1 141/6/1
f 145/9/1 142/9/1 141/9/1
f 147/9/1 144/9/1 143/9/1
f 148/9/1 144/9/1 147/9/1
f 149/9/1 146/9/1 145/9/1
f 149/9/1 145/9/1 141/9/1
f 150/9/1 146/9/1 149/9/1
f 151/9/1 146/9/1 150/9/1
f 152/6/1 150/6/1 149/6/1
f 153/9/1 151/9/1 150/9/1
f 153/6/1 150/6/1 152/6/1
f 154/9/1 151/9/1 153/9/1
f 158/9/1 154/9/1 153/9/1
f 158/9/1 153/9/1 152/9/1
f 159/10/1 155/10/1 154/10/1
f 159/9/1 154/9/1 158/9/1
f 160/9/1 157/9/1 156/9/1
f 160/10/1 155/10/1 159/10/1
f 160/9/1 156/9/1 155/9/1
f 161/9/1 157/9/1 160/9/1
f 164/1/1 163/1/1 162/1/1
f 165/1/1 163/1/1 164/1/1
f 170/12/1 167/12/1 166/12/1
f 171/12/1 167/12/1 170/12/1
f 172/12/1 169/12/1 168/12/1
f 173/12/1 169/12/1 172/12/1
f 178/8/1 175/8/1 174/8/1
f 179/8/1 175/8/1 178/8/1
f 180/8/1 177/8/1 176/8/1
f 181/8/1 177/8/1 180/8/1
f 183/8/1 182/8/1 181/8/1
f 184/8/1 182/8/1 183/8/1
f 187/9/1 186/9/1 185/9/1
f 188/9/1 186/9/1 187/9/1
f 189/6/1 188/6/1 187/6/1
f 190/6/1 188/6/1 189/6/1
f 193/9/1 192/9/1 191/9/1
f 194/9/1 192/9/1 193/9/1
f 199/9/1 196/9/1 195/9/1
f 199/9/1 198/9/1 197/9/1
f 199/9/1 197/9/1 196/9/1
f 200/9/1 198/9/1 199/9/1
f 203/1/1 202/1/1 201/1/1
f 204/1/1 202/1/1 203/1/1
f 206/12/1 204/12/1 203/12/1
f 206/12/1 205/12/1 204/12/1
f 207/12/1 205/12/1 206/12/1
f 208/12/1 205/12/1 207/12/1
f 209/12/1 205/12/1 208/12/1
f 212/9/1 211/9/1 210/9/1
f 213/9/1 211/9/1 212/9/1
f 216/9/1 215/9/1 214/9/1
f 217/9/1 215/9/1 216/9/1
f 218/1/2 219/1/2 222/1/2
f 222/1/2 219/1/2 223/1/2
f 219/7/2 220/7/2 224/7/2
f 223/1/2 219/1/2 224/1/2
f 220/1/2 221/1/2 225/1/2
f 224/7/2 220/7/2 225/7/2
f 225/1/2 221/1/2 226/1/2
f 226/1/2 221/1/2 227/1/2
f 223/7/2 224/7/2 228/7/2
f 224/13/2 225/13/2 229/13/2
f 228/7/2 224/7/2 229/7/2
f 225/7/2 226/7/2 230/7/2
f 229/13/2 225/13/2 230/13/2
f 226/12/2 227/12/2 231/12/2
f 230/7/2 226/7/2 231/7/2
f 231/12/2 227/12/2 232/12/2
f 233/12/2 234/12/2 236/12/2
f 236/12/2 234/12/2 237/12/2
f 235/12/2 236/12/2 240/12/2
f 240/12/2 236/12/2 241/12/2
f 238/12/2 239/12/2 242/12/2
f 242/12/2 239/12/2 243/12/2
f 244/8/2 245/8/2 248/8/2
f 248/8/2 245/8/2 249/8/2
f 246/8/2 247/8/2 250/8/2
f 249/8/2 250/8/2 251/8/2
f 250/8/2 247/8/2 252/8/2
f 251/8/2 250/8/2 252/8/2
f 253/11/2 254/11/2 257/11/2
f 257/11/2 254/11/2 258/11/2
f 255/11/2 256/11/2 259/11/2
f 259/11/2 256/11/2 260/11/2
f 261/2/2 262/2/2 267/2/2
f 262/8/2 263/8/2 268/8/2
f 267/2/2 262/2/2 268/2/2
f 268/8/2 263/8/2 269/8/2
f 264/8/2 265/8/2 270/8/2
f 265/2/2 266/2/2 271/2/2
f 270/8/2 265/8/2 271/8/2
f 271/2/2 266/2/2 272/2/2
f 269/2/2 270/2/2 273/2/2
f 270/2/2 271/2/2 273/2/2
f 273/2/2 271/2/2 274/2/2
f 275/12/2 276/12/2 278/12/2
f 278/12/2 276/12/2 279/12/2
f 277/12/2 278/12/2 281/12/2
f 281/12/2 278/12/2 282/12/2
f 279/12/2 280/12/2 283/12/2
f 283/12/2 280/12/2 284/12/2
f 281/1/2 282/1/2 285/1/2
f 285/1/2 282/1/2 286/1/2
f 283/1/2 284/1/2 287/1/2
f 287/1/2 284/1/2 288/1/2
f 285/12/2 286/12/2 289/12/2
f 289/12/2 286/12/2 290/12/2
f 287/12/2 288/12/2 293/12/2
f 293/12/2 288/12/2 294/12/2
f 290/11/2 291/11/2 295/11/2
f 295/11/2 291/11/2 296/11/2
f 292/11/2 293/11/2 297/11/2
f 297/11/2 293/11/2 298/11/2
f 299/8/2 300/8/2 303/8/2
f 301/8/2 302/8/2 304/8/2
f 299/8/2 303/8/2 306/8/2
f 303/8/2 304/8/2 306/8/2
f 306/8/2 304/8/2 307/8/2
f 304/8/2 302/8/2 308/8/2
f 307/8/2 304/8/2 308/8/2
f 308/8/2 302/8/2 309/8/2
f 305/6/2 306/6/2 311/6/2
f 307/8/2 308/8/2 312/8/2
f 312/8/2 308/8/2 313/8/2
f 305/6/2 311/6/2 314/6/2
f 314/6/2 311/6/2 315/6/2
f 309/9/2 310/9/2 318/9/2
f 318/9/2 310/9/2 319/9/2
f 315/9/2 316/9/2 320/9/2
f 314/9/2 315/9/2 320/9/2
f 320/9/2 316/9/2 321/9/2
f 317/9/2 318/9/2 322/9/2
f 318/6/2 319/6/2 323/6/2
f 322/9/2 318/9/2 323/9/2
f 323/6/2 319/6/2 324/6/2
f 314/9/2 320/9/2 325/9/2
f 323/9/2 324/9/2 327/9/2
f 327/9/2 324/9/2 328/9/2
f 314/9/2 325/9/2 329/9/2
f 329/9/2 325/9/2 330/9/2
f 326/9/2 327/9/2 332/9/2
f 327/6/2 328/6/2 333/6/2
f 332/9/2 327/9/2 333/9/2
f 333/6/2 328/6/2 334/6/2
f 314/9/2 329/9/2 335/9/2
f 335/9/2 329/9/2 336/9/2
f 330/9/2 331/9/2 337/9/2
f 337/9/2 331/9/2 338/9/2
f 338/9/2 339/9/2 340/9/2
f 340/9/2 339/9/2 341/9/2
f 333/9/2 334/9/2 342/9/2
f 342/9/2 334/9/2 343/9/2
f 344/9/2 345/9/2 346/9/2
f 346/9/2 345/9/2 347/9/2
f 348/12/2 349/12/2 350/12/2
f 350/12/2 349/12/2 351/12/2
f 350/1/2 351/1/2 352/1/2
f 352/1/2 351/1/2 353/1/2
f 352/12/2 353/12/2 354/12/2
f 354/12/2 353/12/2 355/12/2
f 356/6/2 357/6/2 360/6/2
f 360/6/2 357/6/2 361/6/2
f 358/9/2 359/9/2 362/9/2
f 360/9/2 361/9/2 363/9/2
f 361/9/2 362/9/2 363/9/2
f 363/9/2 362/9/2 364/9/2
f 362/9/2 359/9/2 365/9/2
f 364/9/2 362/9/2 365/9/2
f 365/9/2 359/9/2 366/9/2
f 364/9/2 365/9/2 368/9/2
f 368/9/2 365/9/2 369/9/2
f 367/6/2 368/6/2 371/6/2
f 369/9/2 370/9/2 372/9/2
f 371/6/2 368/6/2 372/6/2
f 368/9/2 369/9/2 372/9/2
f 372/9/2 370/9/2 373/9/2
f 373/9/2 370/9/2 374/9/2
f 371/9/2 372/9/2 376/9/2
f 372/9/2 373/9/2 376/9/2
f 376/9/2 373/9/2 377/9/2
f 377/9/2 373/9/2 378/9/2
f 375/9/2 376/9/2 381/9/2
f 381/9/2 376/9/2 382/9/2
f 377/9/2 378/9/2 383/9/2
f 378/9/2 379/9/2 383/9/2
f 383/9/2 379/9/2 384/9/2
f 382/9/2 383/9/2 385/9/2
f 384/9/2 379/9/2 386/9/2
f 386/9/2 379/9/2 387/9/2
f 381/6/2 382/6/2 389/6/2
f 380/6/2 381/6/2 389/6/2
f 389/6/2 382/6/2 390/6/2
f 386/9/2 387/9/2 391/9/2
f 385/9/2 386/9/2 391/9/2
f 382/9/2 385/9/2 391/9/2
f 387/9/2 388/9/2 391/9/2
f 391/9/2 388/9/2 392/9/2
f 392/9/2 388/9/2 393/9/2
f 393/9/2 388/9/2 394/9/2
f 390/6/2 382/6/2 395/6/2
f 382/9/2 391/9/2 396/9/2
f 395/6/2 382/6/2 396/6/2
f 391/4/2 392/4/2 397/4/2
f 396/9/2 391/9/2 397/9/2
f 392/9/2 393/9/2 398/9/2
f 397/4/2 392/4/2 398/4/2
f 396/9/2 397/9/2 399/9/2
f 397/9/2 398/9/2 399/9/2
f 398/9/2 393/9/2 400/9/2
f 399/9/2 398/9/2 400/9/2
f 406/12/3 402/12/3 401/12/3
f 407/12/3 404/12/3 403/12/3
f 408/12/3 404/12/3 407/12/3
f 409/11/3 406/11/3 405/11/3
f 410/12/3 402/12/3 406/12/3
f 410/11/3 406/11/3 409/11/3
f 411/12/3 407/12/3 403/12/3
f 413/12/3 402/12/3 410/12/3
f 414/1/3 403/1/3 402/1/3
f 414/12/3 402/12/3 413/12/3
f 415/12/3 412/12/3 411/12/3
f 415/1/3 403/1/3 414/1/3
f 415/12/3 411/12/3 403/12/3
f 416/12/3 412/12/3 415/12/3
f 422/12/3 418/12/3 417/12/3
f 423/1/3 419/1/3 418/1/3
f 423/12/3 418/12/3 422/12/3
f 424/12/3 420/12/3 419/12/3
f 424/1/3 419/1/3 423/1/3
f 425/12/3 420/12/3 424/12/3
f 430/12/3 422/12/3 421/12/3
f 431/12/3 422/12/3 430/12/3
f 433/11/3 426/11/3 425/11/3
f 434/11/3 426/11/3 433/11/3
f 436/6/3 428/6/3 427/6/3
f 437/9/3 429/9/3 428/9/3
f 437/6/3 428/6/3 436/6/3
f 438/9/3 429/9/3 437/9/3
f 445/12/3 433/12/3 432/12/3
f 446/3/3 434/3/3 433/3/3
f 446/12/3 433/12/3 445/12/3
f 447/2/3 435/2/3 434/2/3
f 447/3/3 434/3/3 446/3/3
f 448/2/3 435/2/3 447/2/3
f 449/9/3 437/9/3 436/9/3
f 449/9/3 438/9/3 437/9/3
f 450/9/3 438/9/3 449/9/3
f 451/6/3 439/6/3 438/6/3
f 451/9/3 438/9/3 450/9/3
f 452/9/3 440/9/3 439/9/3
f 452/6/3 439/6/3 451/6/3
f 453/6/3 441/6/3 440/6/3
f 453/9/3 440/9/3 452/9/3
f 454/9/3 442/9/3 441/9/3
f 454/6/3 441/6/3 453/6/3
f 455/9/3 442/9/3 454/9/3
f 457/12/3 444/12/3 443/12/3
f 458/12/3 444/12/3 457/12/3
f 461/11/3 447/11/3 446/11/3
f 462/11/3 447/11/3 461/11/3
f 463/6/3 450/6/3 449/6/3
f 464/9/3 456/9/3 455/9/3
f 464/6/3 450/6/3 463/6/3
f 464/9/3 453/9/3 452/9/3
f 464/9/3 455/9/3 454/9/3
f 464/9/3 454/9/3 453/9/3
f 464/9/3 451/9/3 450/9/3
f 464/9/3 452/9/3 451/9/3
f 465/9/3 456/9/3 464/9/3
f 466/9/3 456/9/3 465/9/3
f 467/9/3 456/9/3 466/9/3
f 468/12/3 459/12/3 458/12/3
f 469/1/3 460/1/3 459/1/3
f 469/12/3 459/12/3 468/12/3
f 470/12/3 461/12/3 460/12/3
f 470/1/3 460/1/3 469/1/3
f 471/12/3 461/12/3 470/12/3
f 472/6/3 466/6/3 465/6/3
f 473/6/3 466/6/3 472/6/3
f 478/6/3 475/6/3 474/6/3
f 479/9/3 476/9/3 475/9/3
f 479/6/3 475/6/3 478/6/3
f 480/9/3 476/9/3 479/9/3
f 483/8/3 478/8/3 477/8/3
f 484/8/3 478/8/3 483/8/3
f 485/8/3 478/8/3 484/8/3
f 486/8/3 478/8/3 485/8/3
f 487/8/3 478/8/3 486/8/3
f 488/6/3 481/6/3 480/6/3
f 489/9/3 482/9/3 481/9/3
f 489/6/3 481/6/3 488/6/3
f 490/9/3 482/9/3 489/9/3
f 491/2/3 485/2/3 484/2/3
f 492/2/3 485/2/3 491/2/3
f 493/8/3 487/8/3 486/8/3
f 494/8/3 487/8/3 493/8/3
f 495/8/3 492/8/3 491/8/3
f 495/8/3 493/8/3 492/8/3
f 495/8/3 494/8/3 493/8/3
f 496/8/3 494/8/3 495/8/3
f 503/6/3 497/6/3 496/6/3
f 504/9/3 498/9/3 497/9/3
f 504/6/3 497/6/3 503/6/3
f 505/9/3 498/9/3 504/9/3
f 506/9/3 500/9/3 499/9/3
f 507/9/3 500/9/3 506/9/3
f 508/6/3 502/6/3 501/6/3
f 509/6/3 502/6/3 508/6/3
f 515/11/3 511/11/3 510/11/3
f 516/11/3 511/11/3 515/11/3
f 517/6/3 513/6/3 512/6/3
f 518/9/3 514/9/3 513/9/3
f 518/6/3 513/6/3 517/6/3
f 519/9/3 514/9/3 518/9/3
f 523/9/3 521/9/3 520/9/3
f 524/6/3 522/6/3 521/6/3
f 524/9/3 521/9/3 523/9/3
f 525/6/3 522/6/3 524/6/3
f 531/6/3 527/6/3 526/6/3
f 532/9/3 528/9/3 527/9/3
f 532/6/3 527/6/3 531/6/3
f 533/9/3 528/9/3 532/9/3
f 534/9/3 530/9/3 529/9/3
f 535/9/3 530/9/3 534/9/3
f 540/9/3 537/9/3 536/9/3
f 541/9/3 537/9/3 540/9/3
f 542/8/3 539/8/3 538/8/3
f 543/8/3 539/8/3 542/8/3
f 544/8/3 539/8/3 543/8/3
f 545/8/3 542/8/3 538/8/3
f 546/8/3 542/8/3 545/8/3
f 551/9/3 548/9/3 547/9/3
f 552/9/3 548/9/3 551/9/3
f 553/9/3 550/9/3 549/9/3
f 554/9/3 550/9/3 553/9/3
f 557/11/3 556/11/3 555/11/3
f 558/11/3 556/11/3 557/11/3
f 563/3/3 558/3/3 557/3/3
f 564/3/3 558/3/3 563/3/3
f 566/8/3 560/8/3 559/8/3
f 567/8/3 560/8/3 566/8/3
f 568/8/3 560/8/3 567/8/3
f 569/1/3 562/1/3 561/1/3
f 570/1/3 562/1/3 569/1/3
f 571/11/3 564/11/3 563/11/3
f 572/11/3 564/11/3 571/11/3
f 573/8/3 566/8/3 565/8/3
f 573/8/3 567/8/3 566/8/3
f 574/8/3 567/8/3 573/8/3
f 579/9/3 576/9/3 575/9/3
f 580/9/3 576/9/3 579/9/3
f 581/9/3 578/9/3 577/9/3
f 582/9/3 578/9/3 581/9/3
f 586/1/3 584/1/3 583/1/3
f 587/12/3 585/12/3 584/12/3
f 587/1/3 584/1/3 586/1/3
f 588/12/3 585/12/3 587/12/3
f 589/12/3 585/12/3 588/12/3
f 590/1/4 591/1/4 592/1/4
f 590/1/4 592/1/4 594/1/4
f 592/12/4 593/12/4 595/12/4
f 594/1/4 592/1/4 595/1/4
f 595/12/4 593/12/4 596/12/4
f 597/12/4 598/12/4 601/12/4
f 601/12/4 598/12/4 602/12/4
f 599/11/4 600/11/4 603/11/4
f 603/11/4 600/11/4 604/11/4
f 603/3/4 604/3/4 605/3/4
f 605/3/4 604/3/4 606/3/4
f 605/11/4 606/11/4 607/11/4
f 607/11/4 606/11/4 608/11/4
f 609/8/4 610/8/4 611/8/4
f 611/8/4 610/8/4 612/8/4
f 612/8/4 610/8/4 613/8/4
f 609/8/4 611/8/4 615/8/4
f 615/8/4 611/8/4 616/8/4
f 613/8/4 614/8/4 618/8/4
f 618/8/4 614/8/4 619/8/4
f 616/8/4 617/8/4 620/8/4
f 617/8/4 618/8/4 620/8/4
f 620/8/4 618/8/4 621/8/4
f 622/6/4 623/6/4 626/6/4
f 626/6/4 623/6/4 627/6/4
f 624/9/4 625/9/4 628/9/4
f 628/9/4 625/9/4 629/9/4
f 630/11/4 631/11/4 632/11/4
f 632/11/4 631/11/4 633/11/4
f 634/9/4 635/9/4 636/9/4
f 636/9/4 635/9/4 637/9/4
f 638/9/4 639/9/4 641/9/4
f 641/9/4 639/9/4 642/9/4
f 642/9/4 639/9/4 643/9/4
f 643/9/4 639/9/4 644/9/4
f 644/9/4 639/9/4 645/9/4
f 645/9/4 639/9/4 646/9/4
f 640/8/4 641/8/4 647/8/4
f 647/8/4 641/8/4 648/8/4
f 648/8/4 641/8/4 649/8/4
f 649/8/4 641/8/4 650/8/4
f 643/9/4 644/9/4 651/9/4
f 651/9/4 644/9/4 652/9/4
f 652/9/4 644/9/4 653/9/4
f 648/2/4 649/2/4 654/2/4
f 654/2/4 649/2/4 655/2/4
f 656/9/4 657/9/4 660/9/4
f 660/9/4 657/9/4 661/9/4
f 658/9/4 659/9/4 662/9/4
f 662/9/4 659/9/4 663/9/4
f 664/12/4 665/12/4 669/12/4
f 665/1/4 666/1/4 670/1/4
f 669/12/4 665/12/4 670/12/4
f 666/12/4 667/12/4 671/12/4
f 670/1/4 666/1/4 671/1/4
f 671/12/4 667/12/4 672/12/4
f 668/12/4 669/12/4 682/12/4
f 682/12/4 669/12/4 683/12/4
f 672/11/4 673/11/4 685/11/4
f 685/11/4 673/11/4 686/11/4
f 674/6/4 675/6/4 689/6/4
f 675/9/4 676/9/4 690/9/4
f 689/6/4 675/6/4 690/6/4
f 690/9/4 676/9/4 691/9/4
f 677/9/4 678/9/4 693/9/4
f 678/6/4 679/6/4 694/6/4
f 693/9/4 678/9/4 694/9/4
f 679/9/4 680/9/4 695/9/4
f 694/6/4 679/6/4 695/6/4
f 680/6/4 681/6/4 696/6/4
f 695/9/4 680/9/4 696/9/4
f 696/6/4 681/6/4 697/6/4
f 684/12/4 685/12/4 701/12/4
f 685/3/4 686/3/4 702/3/4
f 701/12/4 685/12/4 702/12/4
f 686/2/4 687/2/4 703/2/4
f 702/3/4 686/3/4 703/3/4
f 703/2/4 687/2/4 704/2/4
f 688/8/4 689/8/4 705/8/4
f 693/9/4 694/9/4 706/9/4
f 692/9/4 693/9/4 706/9/4
f 706/9/4 694/9/4 707/9/4
f 707/9/4 694/9/4 708/9/4
f 697/9/4 698/9/4 709/9/4
f 696/9/4 697/9/4 709/9/4
f 695/9/4 696/9/4 709/9/4
f 709/9/4 698/9/4 710/9/4
f 710/9/4 698/9/4 711/9/4
f 699/12/4 700/12/4 713/12/4
f 713/12/4 700/12/4 714/12/4
f 702/11/4 703/11/4 717/11/4
f 717/11/4 703/11/4 718/11/4
f 704/8/4 705/8/4 719/8/4
f 705/8/4 689/8/4 720/8/4
f 719/8/4 705/8/4 720/8/4
f 710/5/4 711/5/4 725/5/4
f 711/9/4 712/9/4 726/9/4
f 725/5/4 711/5/4 726/5/4
f 726/9/4 712/9/4 727/9/4
f 714/12/4 715/12/4 729/12/4
f 715/1/4 716/1/4 730/1/4
f 729/12/4 715/12/4 730/12/4
f 716/12/4 717/12/4 731/12/4
f 730/1/4 716/1/4 731/1/4
f 731/12/4 717/12/4 732/12/4
f 720/9/4 721/9/4 733/9/4
f 733/9/4 721/9/4 734/9/4
f 722/9/4 723/9/4 735/9/4
f 735/9/4 723/9/4 736/9/4
f 724/9/4 725/9/4 737/9/4
f 737/9/4 725/9/4 738/9/4
f 727/9/4 728/9/4 739/9/4
f 726/9/4 727/9/4 739/9/4
f 739/9/4 728/9/4 740/9/4
f 741/12/4 742/12/4 746/12/4
f 743/12/4 744/12/4 747/12/4
f 747/12/4 744/12/4 748/12/4
f 745/11/4 746/11/4 755/11/4
f 746/12/4 742/12/4 756/12/4
f 755/11/4 746/11/4 756/11/4
f 743/12/4 747/12/4 757/12/4
f 749/9/4 750/9/4 759/9/4
f 750/6/4 751/6/4 759/6/4
f 751/9/4 752/9/4 760/9/4
f 759/6/4 751/6/4 760/6/4
f 760/9/4 752/9/4 761/9/4
f 753/9/4 754/9/4 763/9/4
f 763/9/4 754/9/4 764/9/4
f 756/12/4 742/12/4 766/12/4
f 742/1/4 743/1/4 767/1/4
f 766/12/4 742/12/4 767/12/4
f 757/12/4 758/12/4 768/12/4
f 767/1/4 743/1/4 768/1/4
f 743/12/4 757/12/4 768/12/4
f 768/12/4 758/12/4 769/12/4
f 749/9/4 759/9/4 770/9/4
f 759/9/4 760/9/4 770/9/4
f 760/6/4 761/6/4 771/6/4
f 770/9/4 760/9/4 771/9/4
f 761/9/4 762/9/4 772/9/4
f 771/6/4 761/6/4 772/6/4
f 762/6/4 763/6/4 773/6/4
f 772/9/4 762/9/4 773/9/4
f 764/9/4 765/9/4 774/9/4
f 773/6/4 763/6/4 774/6/4
f 763/9/4 764/9/4 774/9/4
f 774/9/4 765/9/4 775/9/4
f 775/9/4 776/9/4 777/9/4
f 777/9/4 776/9/4 778/9/4
f 782/11/5 780/11/5 779/11/5
f 783/11/5 780/11/5 782/11/5
f 786/12/5 782/12/5 781/12/5
f 786/12/5 784/12/5 783/12/5
f 786/12/5 783/12/5 782/12/5
f 787/11/5 786/11/5 785/11/5
f 788/12/5 784/12/5 786/12/5
f 788/11/5 786/11/5 787/11/5
f 789/12/5 784/12/5 788/12/5
f 790/12/5 784/12/5 789/12/5
f 791/12/5 784/12/5 790/12/5
f 792/12/5 784/12/5 791/12/5
f 793/11/5 791/11/5 790/11/5
f 794/11/5 791/11/5 793/11/5
f 800/12/5 796/12/5 795/12/5
f 801/12/5 796/12/5 800/12/5
f 802/12/5 798/12/5 797/12/5
f 803/12/5 798/12/5 802/12/5
f 805/12/5 800/12/5 799/12/5
f 806/12/5 800/12/5 805/12/5
f 809/12/5 808/12/5 807/12/5
f 810/12/5 808/12/5 809/12/5
f 813/12/5 804/12/5 803/12/5
f 814/12/5 804/12/5 813/12/5
f 815/12/5 811/12/5 810/12/5
f 816/12/5 811/12/5 815/12/5
f 817/12/5 813/12/5 812/12/5
f 818/12/5 813/12/5 817/12/5
f 821/12/5 820/12/5 819/12/5
f 822/12/5 820/12/5 821/12/5
f 826/12/5 824/12/5 823/12/5
f 827/12/5 824/12/5 826/12/5
f 828/1/5 826/1/5 825/1/5
f 828/1/5 827/1/5 826/1/5
f 829/1/5 827/1/5 828/1/5
f 830/1/5 827/1/5 829/1/5
f 831/1/5 827/1/5 830/1/5
f 832/12/5 831/12/5 830/12/5
f 833/12/5 831/12/5 832/12/5
f 837/8/5 835/8/5 834/8/5
f 837/8/5 836/8/5 835/8/5
f 838/8/5 836/8/5 837/8/5
f 841/8/5 840/8/5 839/8/5
f 842/8/5 840/8/5 841/8/5
f 843/8/5 840/8/5 842/8/5
f 847/8/5 845/8/5 844/8/5
f 848/8/5 845/8/5 847/8/5
f 849/2/5 847/2/5 846/2/5
f 850/2/5 847/2/5 849/2/5
f 853/8/5 852/8/5 851/8/5
f 854/8/5 852/8/5 853/8/5
f 857/8/5 856/8/5 855/8/5
f 858/8/5 856/8/5 857/8/5
f 862/8/5 860/8/5 859/8/5
f 863/8/5 860/8/5 862/8/5
f 865/8/5 862/8/5 861/8/5
f 866/8/5 862/8/5 865/8/5
f 867/8/5 864/8/5 863/8/5
f 868/8/5 864/8/5 867/8/5
f 874/6/5 870/6/5 869/6/5
f 875/9/5 871/9/5 870/9/5
f 875/6/5 870/6/5 874/6/5
f 876/6/5 872/6/5 871/6/5
f 876/9/5 871/9/5 875/9/5
f 877/6/5 872/6/5 876/6/5
f 879/6/5 874/6/5 873/6/5
f 880/6/5 874/6/5 879/6/5
f 881/6/5 878/6/5 877/6/5
f 882/6/5 878/6/5 881/6/5
f 883/9/5 880/9/5 879/9/5
f 884/9/5 880/9/5 883/9/5
f 888/6/5 885/6/5 884/6/5
f 889/6/5 885/6/5 888/6/5
f 890/9/5 887/9/5 886/9/5
f 891/9/5 887/9/5 890/9/5
f 892/9/5 890/9/5 889/9/5
f 893/9/5 890/9/5 892/9/5
f 898/8/5 895/8/5 894/8/5
f 899/8/5 895/8/5 898/8/5
f 900/9/5 897/9/5 896/9/5
f 901/9/5 897/9/5 900/9/5
f 904/6/5 903/6/5 902/6/5
f 905/6/5 903/6/5 904/6/5
f 908/9/5 907/9/5 906/9/5
f 909/9/5 907/9/5 908/9/5
f 912/9/5 911/9/5 910/9/5
f 913/9/5 911/9/5 912/9/5
f 916/9/5 915/9/5 914/9/5
f 917/9/5 915/9/5 916/9/5
f 922/9/5 919/9/5 918/9/5
f 923/9/5 919/9/5 922/9/5
f 924/9/5 921/9/5 920/9/5
f 925/9/5 921/9/5 924/9/5
f 928/6/5 927/6/5 926/6/5
f 929/6/5 927/6/5 928/6/5
f 932/9/5 931/9/5 930/9/5
f 933/9/5 931/9/5 932/9/5
f 936/9/5 935/9/5 934/9/5
f 937/9/5 935/9/5 936/9/5
f 940/9/5 939/9/5 938/9/5
f 941/9/5 939/9/5 940/9/5
f 942/12/6 943/12/6 944/12/6
f 944/12/6 943/12/6 945/12/6
f 945/12/6 943/12/6 946/12/6
f 946/12/6 943/12/6 947/12/6
f 945/12/6 946/12/6 948/12/6
f 948/12/6 946/12/6 949/12/6
f 950/1/6 951/1/6 952/1/6
f 952/1/6 951/1/6 953/1/6
f 954/12/6 955/12/6 956/12/6
f 956/12/6 955/12/6 957/12/6
f 958/12/6 959/12/6 960/12/6
f 960/12/6 959/12/6 961/12/6
f 962/12/6 963/12/6 967/12/6
f 967/12/6 963/12/6 968/12/6
f 964/12/6 965/12/6 969/12/6
f 969/12/6 965/12/6 970/12/6
f 966/12/6 967/12/6 972/12/6
f 970/12/6 971/12/6 975/12/6
f 973/1/6 974/1/6 976/1/6
f 974/1/6 975/1/6 976/1/6
f 966/12/6 972/12/6 976/12/6
f 972/1/6 973/1/6 976/1/6
f 976/1/6 975/1/6 977/1/6
f 977/1/6 975/1/6 978/1/6
f 975/12/6 971/12/6 979/12/6
f 978/1/6 975/1/6 979/1/6
f 966/12/6 976/12/6 980/12/6
f 980/12/6 976/12/6 981/12/6
f 979/12/6 971/12/6 984/12/6
f 984/12/6 971/12/6 985/12/6
f 981/12/6 982/12/6 986/12/6
f 986/12/6 982/12/6 987/12/6
f 983/12/6 984/12/6 988/12/6
f 988/12/6 984/12/6 989/12/6
f 990/11/6 991/11/6 994/11/6
f 994/11/6 991/11/6 995/11/6
f 992/11/6 993/11/6 996/11/6
f 996/11/6 993/11/6 997/11/6
f 998/11/6 999/11/6 1002/11/6
f 1002/11/6 999/11/6 1003/11/6
f 1000/11/6 1001/11/6 1004/11/6
f 1004/11/6 1001/11/6 1005/11/6
f 1006/2/6 1007/2/6 1008/2/6
f 1008/2/6 1007/2/6 1009/2/6
f 1010/2/6 1011/2/6 1012/2/6
f 1012/2/6 1011/2/6 1013/2/6
f 1014/2/6 1015/2/6 1016/2/6
f 1016/2/6 1015/2/6 1017/2/6
f 1016/2/6 1017/2/6 1018/2/6
f 1018/2/6 1017/2/6 1019/2/6
f 1019/2/6 1017/2/6 1020/2/6
f 1021/9/6 1022/9/6 1023/9/6
f 1023/9/6 1022/9/6 1024/9/6
f 1025/9/6 1026/9/6 1029/9/6
f 1029/9/6 1026/9/6 1030/9/6
f 1027/9/6 1028/9/6 1031/9/6
f 1031/9/6 1028/9/6 1032/9/6
f 1033/9/6 1034/9/6 1036/9/6
f 1036/9/6 1034/9/6 1037/9/6
f 1035/9/6 1036/9/6 1038/9/6
f 1038/9/6 1036/9/6 1039/9/6
f 1040/9/6 1041/9/6 1042/9/6
f 1042/9/6 1041/9/6 1043/9/6
f 1044/9/6 1045/9/6 1046/9/6
f 1046/9/6 1045/9/6 1047/9/6
f 1048/9/6 1049/9/6 1052/9/6
f 1052/9/6 1049/9/6 1053/9/6
f 1050/9/6 1051/9/6 1054/9/6
f 1054/9/6 1051/9/6 1055/9/6
f 1056/9/6 1057/9/6 1058/9/6
f 1058/9/6 1057/9/6 1059/9/6
f 1060/9/6 1061/9/6 1062/9/6
f 1062/9/6 1061/9/6 1063/9/6
f 1064/9/6 1065/9/6 1066/9/6
f 1066/9/6 1065/9/6 1067/9/6
f 1068/9/6 1069/9/6 1070/9/6
f 1070/9/6 1069/9/6 1071/9/6
f 1072/6/6 1073/6/6 1074/6/6
f 1074/6/6 1073/6/6 1075/6/6
f 1074/9/6 1075/9/6 1076/9/6
f 1076/9/6 1075/9/6 1077/9/6
f 1076/6/6 1077/6/6 1078/6/6
f 1078/6/6 1077/6/6 1079/6/6
f 1080/9/6 1081/9/6 1082/9/6
f 1082/9/6 1081/9/6 1083/9/6
f 1086/6/6 1087/6/6 1088/6/6
f 1088/6/6 1087/6/6 1089/6/6
f 1084/9/6 1085/9/6 1090/9/6
f 1090/9/6 1085/9/6 1091/9/6
f 1090/10/6 1091/10/6 1092/10/6
f 1092/10/6 1091/10/6 1093/10/6
f 1092/9/6 1093/9/6 1094/9/6
f 1094/9/6 1093/9/6 1095/9/6
f 1096/9/6 1097/9/6 1098/9/6
f 1098/9/6 1097/9/6 1099/9/6
f 1100/9/6 1101/9/6 1102/9/6
f 1100/9/6 1102/9/6 1104/9/6
f 1102/6/6 1103/6/6 1104/6/6
f 1104/6/6 1103/6/6 1105/6/6
f 1100/9/6 1104/9/6 1106/9/6
f 1106/9/6 1104/9/6 1107/9/6
f 1108/9/6 1109/9/6 1110/9/6
f 1110/9/6 1109/9/6 1111/9/6
