# MagicaVoxel @ Ephtracy

# group
o 

# material
mtllib vrach2-5.mtl
usemtl palette

# normals
vn -1 0 0
vn 1 0 0
vn 0 0 1
vn 0 0 -1
vn 0 -1 0
vn 0 1 0

# texcoords
vt 0.771484 0.5
vt 0.857422 0.5
vt 0.865234 0.5
vt 0.896484 0.5
vt 0.958984 0.5
vt 0.966797 0.5
vt 0.970703 0.5
vt 0.978516 0.5
vt 0.982422 0.5
vt 0.986328 0.5

# verts
v -0.5 -0.5 -0.2
v -0.5 -0.5 -0.3
v -0.5 0 -0.2
v -0.5 0 -0.3
v -0.4 -0.7 0
v -0.4 -0.7 -0.1
v -0.4 -0.6 -0.2
v -0.4 -0.6 -0.3
v -0.4 -0.5 -0.2
v -0.4 -0.5 -0.3
v -0.4 -0.4 -0.1
v -0.4 -0.4 -0.2
v -0.4 0 -0.1
v -0.4 0 -0.2
v -0.4 0 -0.3
v -0.4 0.1 0
v -0.4 0.1 -0.1
v -0.4 0.4 -0.1
v -0.4 0.4 -0.3
v -0.3 -0.8 0.1
v -0.3 -0.8 -0.1
v -0.3 -0.7 0
v -0.3 -0.7 -0.1
v -0.3 -0.5 -0.1
v -0.3 -0.5 -0.2
v -0.3 -0.4 -0.1
v -0.3 -0.4 -0.2
v -0.3 0 0.2
v -0.3 0 0.1
v -0.3 0.1 0.1
v -0.3 0.1 0
v -0.3 0.1 -0.1
v -0.3 0.2 0.2
v -0.3 0.2 0.1
v -0.3 0.2 -0.1
v -0.3 0.4 0.1
v -0.3 0.4 0
v -0.3 0.4 -0.1
v -0.3 0.4 -0.3
v -0.3 0.5 0
v -0.3 0.5 -0.1
v -0.3 0.5 -0.3
v -0.3 0.6 -0.1
v -0.3 0.6 -0.3
v -0.2 -0.3 -0.1
v -0.2 -0.3 -0.2
v -0.2 -0.2 -0.2
v -0.2 -0.1 0.2
v -0.2 -0.1 0.1
v -0.2 -0.1 -0.1
v -0.2 -0.1 -0.2
v -0.2 0 0.2
v -0.2 0 0.1
v -0.2 0.2 0.2
v -0.2 0.2 0.1
v -0.2 0.3 0.2
v -0.2 0.3 0.1
v -0.2 0.4 0.1
v -0.2 0.4 0
v -0.2 0.5 0.1
v -0.2 0.5 0
v -0.2 0.5 -0.1
v -0.2 0.6 0
v -0.2 0.6 -0.1
v -0.2 0.6 -0.2
v -0.2 0.6 -0.3
v -0.2 0.7 0
v -0.2 0.7 -0.1
v -0.2 0.7 -0.2
v -0.2 0.7 -0.3
v -0.2 0.8 -0.1
v -0.2 0.8 -0.3
v -0.1 -0.6 -0.1
v -0.1 -0.6 -0.2
v -0.1 -0.5 -0.1
v -0.1 -0.5 -0.2
v -0.1 -0.3 0.1
v -0.1 -0.3 0
v -0.1 -0.2 0.1
v -0.1 -0.2 0
v -0.1 -0.2 -0.2
v -0.1 -0.2 -0.3
v -0.1 -0.1 -0.2
v -0.1 -0.1 -0.3
v -0.1 0.5 0.1
v -0.1 0.5 0
v -0.1 0.6 0.1
v -0.1 0.6 0
v -0.1 0.7 0
v -0.1 0.7 -0.1
v -0.1 0.8 0
v -0.1 0.8 -0.1
v -0.1 0.8 -0.3
v -0.1 0.9 -0.1
v -0.1 0.9 -0.3
v 0 -0.8 -0.1
v 0 -0.8 -0.2
v 0 -0.7 -0.1
v 0 -0.7 -0.2
v 0 -0.6 -0.1
v 0 -0.6 -0.2
v 0 0 0.2
v 0 0 0.1
v 0 0.2 0.2
v 0 0.2 0.1
v 0.1 -0.6 -0.1
v 0.1 -0.6 -0.2
v 0.1 -0.5 -0.1
v 0.1 -0.5 -0.2
v 0.1 -0.1 0.2
v 0.1 -0.1 0.1
v 0.1 0 0.2
v 0.1 0 0.1
v 0.1 0.2 0.2
v 0.1 0.2 0.1
v 0.1 0.3 0.2
v 0.1 0.3 0.1
v 0.2 -0.5 -0.1
v 0.2 -0.5 -0.2
v 0.2 -0.5 -0.3
v 0.2 -0.4 -0.1
v 0.2 -0.4 -0.2
v 0.2 -0.4 -0.3
v 0.3 -0.8 0.1
v 0.3 -0.8 -0.1
v 0.3 -0.5 -0.1
v 0.3 -0.4 -0.1
v 0.3 -0.3 0
v 0.3 -0.3 -0.1
v 0.3 -0.2 0.1
v 0.3 -0.2 0
v 0.3 0 0.2
v 0.3 0 0.1
v 0.3 0.1 0.1
v 0.3 0.2 0.2
v 0.3 0.2 0.1
v 0.4 -0.4 -0.1
v 0.4 -0.4 -0.2
v 0.4 -0.2 -0.2
v 0.4 -0.2 -0.3
v 0.4 -0.1 -0.1
v 0.4 -0.1 -0.2
v 0.4 -0.1 -0.3
v -0.3 -0.6 -0.2
v -0.3 -0.6 -0.3
v -0.3 -0.5 -0.2
v -0.3 -0.5 -0.3
v -0.3 -0.4 -0.1
v -0.3 -0.4 -0.2
v -0.3 -0.2 -0.2
v -0.3 -0.2 -0.3
v -0.3 -0.1 -0.1
v -0.3 -0.1 -0.2
v -0.3 -0.1 -0.3
v -0.2 -0.8 0.1
v -0.2 -0.8 -0.1
v -0.2 -0.5 -0.1
v -0.2 -0.4 -0.1
v -0.2 -0.3 0
v -0.2 -0.3 -0.1
v -0.2 -0.2 0.1
v -0.2 -0.2 0
v -0.2 0 0.2
v -0.2 0 0.1
v -0.2 0.1 0.1
v -0.2 0.2 0.2
v -0.2 0.2 0.1
v -0.1 -0.5 -0.1
v -0.1 -0.5 -0.2
v -0.1 -0.5 -0.3
v -0.1 -0.4 -0.1
v -0.1 -0.4 -0.2
v -0.1 -0.4 -0.3
v 0 -0.6 -0.1
v 0 -0.6 -0.2
v 0 -0.5 -0.1
v 0 -0.5 -0.2
v 0 -0.1 0.2
v 0 -0.1 0.1
v 0 0 0.2
v 0 0 0.1
v 0 0.2 0.2
v 0 0.2 0.1
v 0 0.3 0.2
v 0 0.3 0.1
v 0.1 -0.8 -0.1
v 0.1 -0.8 -0.2
v 0.1 -0.7 -0.1
v 0.1 -0.7 -0.2
v 0.1 -0.6 -0.1
v 0.1 -0.6 -0.2
v 0.1 0 0.2
v 0.1 0 0.1
v 0.1 0.2 0.2
v 0.1 0.2 0.1
v 0.2 -0.6 -0.1
v 0.2 -0.6 -0.2
v 0.2 -0.5 -0.1
v 0.2 -0.5 -0.2
v 0.2 -0.3 0.1
v 0.2 -0.3 0
v 0.2 -0.2 0.1
v 0.2 -0.2 0
v 0.2 -0.2 -0.2
v 0.2 -0.2 -0.3
v 0.2 -0.1 -0.2
v 0.2 -0.1 -0.3
v 0.2 0.5 0.1
v 0.2 0.5 0
v 0.2 0.6 0.1
v 0.2 0.6 0
v 0.2 0.7 0
v 0.2 0.7 -0.1
v 0.2 0.8 0
v 0.2 0.8 -0.1
v 0.2 0.8 -0.3
v 0.2 0.9 -0.1
v 0.2 0.9 -0.3
v 0.3 -0.3 -0.1
v 0.3 -0.3 -0.2
v 0.3 -0.2 -0.2
v 0.3 -0.1 0.2
v 0.3 -0.1 0.1
v 0.3 -0.1 -0.1
v 0.3 -0.1 -0.2
v 0.3 0 0.2
v 0.3 0 0.1
v 0.3 0.2 0.2
v 0.3 0.2 0.1
v 0.3 0.3 0.2
v 0.3 0.3 0.1
v 0.3 0.4 0.1
v 0.3 0.4 0
v 0.3 0.5 0.1
v 0.3 0.5 0
v 0.3 0.5 -0.1
v 0.3 0.5 -0.2
v 0.3 0.5 -0.3
v 0.3 0.6 -0.1
v 0.3 0.6 -0.2
v 0.3 0.6 -0.3
v 0.3 0.7 0
v 0.3 0.7 -0.1
v 0.3 0.7 -0.2
v 0.3 0.7 -0.3
v 0.3 0.8 -0.1
v 0.3 0.8 -0.3
v 0.4 -0.8 0.1
v 0.4 -0.8 -0.1
v 0.4 -0.7 0
v 0.4 -0.7 -0.1
v 0.4 -0.5 -0.1
v 0.4 -0.5 -0.2
v 0.4 -0.4 -0.1
v 0.4 -0.4 -0.2
v 0.4 0 0.2
v 0.4 0 0.1
v 0.4 0.1 0.1
v 0.4 0.1 0
v 0.4 0.1 -0.1
v 0.4 0.2 0.2
v 0.4 0.2 0.1
v 0.4 0.2 -0.1
v 0.4 0.3 -0.2
v 0.4 0.3 -0.3
v 0.4 0.4 0.1
v 0.4 0.4 0
v 0.4 0.4 -0.1
v 0.4 0.4 -0.2
v 0.4 0.4 -0.3
v 0.4 0.5 0
v 0.4 0.5 -0.1
v 0.4 0.5 -0.2
v 0.4 0.5 -0.3
v 0.4 0.6 -0.1
v 0.4 0.6 -0.2
v 0.5 -0.7 0
v 0.5 -0.7 -0.1
v 0.5 -0.5 -0.2
v 0.5 -0.5 -0.3
v 0.5 -0.4 -0.1
v 0.5 -0.4 -0.2
v 0.5 -0.1 -0.2
v 0.5 -0.1 -0.3
v 0.5 0 -0.1
v 0.5 0 -0.2
v 0.5 0.1 0
v 0.5 0.1 -0.1
v 0.5 0.1 -0.2
v 0.5 0.1 -0.3
v 0.5 0.3 -0.2
v 0.5 0.3 -0.3
v 0.5 0.4 -0.1
v 0.5 0.4 -0.2
v -0.3 0 0.2
v -0.3 0.2 0.2
v -0.2 -0.1 0.2
v -0.2 0 0.2
v -0.2 0.2 0.2
v -0.2 0.3 0.2
v 0 -0.1 0.2
v 0 0 0.2
v 0 0.2 0.2
v 0 0.3 0.2
v 0.1 -0.1 0.2
v 0.1 0 0.2
v 0.1 0.2 0.2
v 0.1 0.3 0.2
v 0.3 -0.1 0.2
v 0.3 0 0.2
v 0.3 0.2 0.2
v 0.3 0.3 0.2
v 0.4 0 0.2
v 0.4 0.2 0.2
v -0.3 -0.8 0.1
v -0.3 0 0.1
v -0.3 0.2 0.1
v -0.3 0.4 0.1
v -0.2 -0.8 0.1
v -0.2 -0.2 0.1
v -0.2 -0.1 0.1
v -0.2 0 0.1
v -0.2 0.1 0.1
v -0.2 0.2 0.1
v -0.2 0.3 0.1
v -0.2 0.4 0.1
v -0.2 0.5 0.1
v -0.1 -0.3 0.1
v -0.1 -0.2 0.1
v -0.1 0 0.1
v -0.1 0.1 0.1
v -0.1 0.3 0.1
v -0.1 0.4 0.1
v -0.1 0.5 0.1
v -0.1 0.6 0.1
v 0 -0.3 0.1
v 0 -0.2 0.1
v 0 -0.1 0.1
v 0 0 0.1
v 0 0.2 0.1
v 0 0.3 0.1
v 0.1 -0.3 0.1
v 0.1 -0.2 0.1
v 0.1 -0.1 0.1
v 0.1 0 0.1
v 0.1 0.2 0.1
v 0.1 0.3 0.1
v 0.2 -0.3 0.1
v 0.2 -0.2 0.1
v 0.2 0 0.1
v 0.2 0.1 0.1
v 0.2 0.3 0.1
v 0.2 0.4 0.1
v 0.2 0.5 0.1
v 0.2 0.6 0.1
v 0.3 -0.8 0.1
v 0.3 -0.2 0.1
v 0.3 -0.1 0.1
v 0.3 0 0.1
v 0.3 0.1 0.1
v 0.3 0.2 0.1
v 0.3 0.3 0.1
v 0.3 0.4 0.1
v 0.3 0.5 0.1
v 0.4 -0.8 0.1
v 0.4 0 0.1
v 0.4 0.2 0.1
v 0.4 0.4 0.1
v -0.4 -0.7 0
v -0.4 0.1 0
v -0.3 -0.7 0
v -0.3 0.1 0
v -0.3 0.4 0
v -0.3 0.5 0
v -0.2 -0.3 0
v -0.2 -0.2 0
v -0.2 0.4 0
v -0.2 0.5 0
v -0.2 0.6 0
v -0.2 0.7 0
v -0.1 -0.3 0
v -0.1 -0.2 0
v -0.1 0.5 0
v -0.1 0.6 0
v -0.1 0.7 0
v -0.1 0.8 0
v 0 0.7 0
v 0 0.8 0
v 0.1 0.7 0
v 0.1 0.8 0
v 0.2 -0.3 0
v 0.2 -0.2 0
v 0.2 0.5 0
v 0.2 0.6 0
v 0.2 0.7 0
v 0.2 0.8 0
v 0.3 -0.3 0
v 0.3 -0.2 0
v 0.3 0.4 0
v 0.3 0.5 0
v 0.3 0.7 0
v 0.4 -0.7 0
v 0.4 0.1 0
v 0.4 0.4 0
v 0.4 0.5 0
v 0.5 -0.7 0
v 0.5 0.1 0
v -0.4 0.1 -0.1
v -0.4 0.4 -0.1
v -0.3 0.1 -0.1
v -0.3 0.2 -0.1
v -0.3 0.4 -0.1
v -0.3 0.5 -0.1
v -0.3 0.6 -0.1
v -0.2 -0.5 -0.1
v -0.2 -0.4 -0.1
v -0.2 0.5 -0.1
v -0.2 0.6 -0.1
v -0.2 0.7 -0.1
v -0.2 0.8 -0.1
v -0.1 -0.6 -0.1
v -0.1 -0.5 -0.1
v -0.1 -0.4 -0.1
v -0.1 0.7 -0.1
v -0.1 0.8 -0.1
v -0.1 0.9 -0.1
v 0 -0.8 -0.1
v 0 -0.7 -0.1
v 0 -0.6 -0.1
v 0 -0.5 -0.1
v 0 0.8 -0.1
v 0.1 -0.8 -0.1
v 0.1 -0.7 -0.1
v 0.1 -0.6 -0.1
v 0.1 -0.5 -0.1
v 0.1 0.8 -0.1
v 0.2 -0.6 -0.1
v 0.2 -0.5 -0.1
v 0.2 -0.4 -0.1
v 0.2 0.7 -0.1
v 0.2 0.8 -0.1
v 0.2 0.9 -0.1
v 0.3 -0.5 -0.1
v 0.3 -0.4 -0.1
v 0.3 0.5 -0.1
v 0.3 0.6 -0.1
v 0.3 0.7 -0.1
v 0.3 0.8 -0.1
v 0.4 0.1 -0.1
v 0.4 0.2 -0.1
v 0.4 0.4 -0.1
v 0.4 0.5 -0.1
v 0.4 0.6 -0.1
v 0.5 0.1 -0.1
v 0.5 0.4 -0.1
v -0.5 -0.5 -0.2
v -0.5 0 -0.2
v -0.4 -0.6 -0.2
v -0.4 -0.5 -0.2
v -0.4 -0.4 -0.2
v -0.4 0 -0.2
v -0.3 -0.6 -0.2
v -0.3 -0.5 -0.2
v -0.3 -0.4 -0.2
v -0.3 -0.2 -0.2
v -0.2 -0.4 -0.2
v -0.2 -0.3 -0.2
v -0.2 -0.2 -0.2
v -0.1 -0.4 -0.2
v -0.1 -0.3 -0.2
v 0.2 -0.4 -0.2
v 0.2 -0.3 -0.2
v 0.3 -0.4 -0.2
v 0.3 -0.3 -0.2
v 0.3 -0.2 -0.2
v 0.4 -0.5 -0.2
v 0.4 -0.4 -0.2
v 0.4 -0.2 -0.2
v 0.5 -0.5 -0.2
v 0.5 -0.4 -0.2
v -0.4 -0.7 -0.1
v -0.4 -0.4 -0.1
v -0.3 -0.8 -0.1
v -0.3 -0.7 -0.1
v -0.3 -0.5 -0.1
v -0.3 -0.4 -0.1
v -0.3 -0.1 -0.1
v -0.2 -0.8 -0.1
v -0.2 -0.5 -0.1
v -0.2 -0.4 -0.1
v -0.2 -0.3 -0.1
v -0.2 -0.1 -0.1
v 0.3 -0.8 -0.1
v 0.3 -0.5 -0.1
v 0.3 -0.4 -0.1
v 0.3 -0.3 -0.1
v 0.3 -0.1 -0.1
v 0.4 -0.8 -0.1
v 0.4 -0.7 -0.1
v 0.4 -0.5 -0.1
v 0.4 -0.4 -0.1
v 0.4 -0.1 -0.1
v 0.5 -0.7 -0.1
v 0.5 -0.4 -0.1
v -0.2 -0.2 -0.2
v -0.2 -0.1 -0.2
v -0.1 -0.6 -0.2
v -0.1 -0.5 -0.2
v -0.1 -0.2 -0.2
v -0.1 -0.1 -0.2
v 0 -0.8 -0.2
v 0 -0.7 -0.2
v 0 -0.6 -0.2
v 0 -0.5 -0.2
v 0.1 -0.8 -0.2
v 0.1 -0.7 -0.2
v 0.1 -0.6 -0.2
v 0.1 -0.5 -0.2
v 0.2 -0.6 -0.2
v 0.2 -0.5 -0.2
v 0.2 -0.2 -0.2
v 0.2 -0.1 -0.2
v 0.3 -0.2 -0.2
v 0.3 -0.1 -0.2
v 0.3 0.5 -0.2
v 0.3 0.6 -0.2
v 0.4 0.3 -0.2
v 0.4 0.4 -0.2
v 0.4 0.5 -0.2
v 0.4 0.6 -0.2
v 0.5 0.3 -0.2
v 0.5 0.4 -0.2
v -0.5 -0.5 -0.3
v -0.5 0 -0.3
v -0.4 -0.6 -0.3
v -0.4 -0.5 -0.3
v -0.4 -0.1 -0.3
v -0.4 0 -0.3
v -0.4 0.4 -0.3
v -0.3 -0.6 -0.3
v -0.3 -0.5 -0.3
v -0.3 -0.2 -0.3
v -0.3 -0.1 -0.3
v -0.3 0 -0.3
v -0.3 0.1 -0.3
v -0.3 0.4 -0.3
v -0.3 0.5 -0.3
v -0.3 0.6 -0.3
v -0.2 -0.1 -0.3
v -0.2 0 -0.3
v -0.2 0.6 -0.3
v -0.2 0.7 -0.3
v -0.2 0.8 -0.3
v -0.1 -0.5 -0.3
v -0.1 -0.4 -0.3
v -0.1 -0.2 -0.3
v -0.1 -0.1 -0.3
v -0.1 0.5 -0.3
v -0.1 0.6 -0.3
v -0.1 0.7 -0.3
v -0.1 0.8 -0.3
v -0.1 0.9 -0.3
v 0.2 -0.5 -0.3
v 0.2 -0.4 -0.3
v 0.2 -0.2 -0.3
v 0.2 -0.1 -0.3
v 0.2 0.5 -0.3
v 0.2 0.6 -0.3
v 0.2 0.7 -0.3
v 0.2 0.8 -0.3
v 0.2 0.9 -0.3
v 0.3 -0.1 -0.3
v 0.3 0 -0.3
v 0.3 0.5 -0.3
v 0.3 0.6 -0.3
v 0.3 0.7 -0.3
v 0.3 0.8 -0.3
v 0.4 -0.5 -0.3
v 0.4 -0.2 -0.3
v 0.4 -0.1 -0.3
v 0.4 0.3 -0.3
v 0.4 0.4 -0.3
v 0.4 0.5 -0.3
v 0.5 -0.5 -0.3
v 0.5 -0.1 -0.3
v 0.5 0.1 -0.3
v 0.5 0.3 -0.3
v -0.3 -0.8 0.1
v -0.2 -0.8 0.1
v 0.3 -0.8 0.1
v 0.4 -0.8 0.1
v -0.3 -0.8 -0.1
v -0.2 -0.8 -0.1
v 0 -0.8 -0.1
v 0.1 -0.8 -0.1
v 0.3 -0.8 -0.1
v 0.4 -0.8 -0.1
v 0 -0.8 -0.2
v 0.1 -0.8 -0.2
v -0.4 -0.7 0
v -0.3 -0.7 0
v 0.4 -0.7 0
v 0.5 -0.7 0
v -0.4 -0.7 -0.1
v -0.3 -0.7 -0.1
v 0.4 -0.7 -0.1
v 0.5 -0.7 -0.1
v -0.1 -0.6 -0.1
v 0 -0.6 -0.1
v 0.1 -0.6 -0.1
v 0.2 -0.6 -0.1
v -0.4 -0.6 -0.2
v -0.3 -0.6 -0.2
v -0.1 -0.6 -0.2
v 0 -0.6 -0.2
v 0.1 -0.6 -0.2
v 0.2 -0.6 -0.2
v -0.4 -0.6 -0.3
v -0.3 -0.6 -0.3
v -0.3 -0.5 -0.1
v -0.2 -0.5 -0.1
v -0.1 -0.5 -0.1
v 0.2 -0.5 -0.1
v 0.3 -0.5 -0.1
v 0.4 -0.5 -0.1
v -0.5 -0.5 -0.2
v -0.4 -0.5 -0.2
v -0.3 -0.5 -0.2
v -0.2 -0.5 -0.2
v -0.1 -0.5 -0.2
v 0.2 -0.5 -0.2
v 0.3 -0.5 -0.2
v 0.4 -0.5 -0.2
v 0.5 -0.5 -0.2
v -0.5 -0.5 -0.3
v -0.4 -0.5 -0.3
v -0.3 -0.5 -0.3
v -0.1 -0.5 -0.3
v 0.2 -0.5 -0.3
v 0.4 -0.5 -0.3
v 0.5 -0.5 -0.3
v -0.4 -0.4 -0.1
v -0.3 -0.4 -0.1
v 0.4 -0.4 -0.1
v 0.5 -0.4 -0.1
v -0.4 -0.4 -0.2
v -0.3 -0.4 -0.2
v -0.1 -0.4 -0.2
v 0.2 -0.4 -0.2
v 0.4 -0.4 -0.2
v 0.5 -0.4 -0.2
v -0.1 -0.4 -0.3
v 0.2 -0.4 -0.3
v -0.1 -0.3 0.1
v 0 -0.3 0.1
v 0.1 -0.3 0.1
v 0.2 -0.3 0.1
v -0.2 -0.3 0
v -0.1 -0.3 0
v 0 -0.3 0
v 0.1 -0.3 0
v 0.2 -0.3 0
v 0.3 -0.3 0
v -0.2 -0.3 -0.1
v 0.3 -0.3 -0.1
v -0.2 -0.3 -0.2
v -0.1 -0.3 -0.2
v 0.2 -0.3 -0.2
v 0.3 -0.3 -0.2
v -0.2 -0.2 0.1
v -0.1 -0.2 0.1
v 0.2 -0.2 0.1
v 0.3 -0.2 0.1
v -0.2 -0.2 0
v -0.1 -0.2 0
v 0.2 -0.2 0
v 0.3 -0.2 0
v -0.2 -0.1 0.2
v 0 -0.1 0.2
v 0.1 -0.1 0.2
v 0.3 -0.1 0.2
v -0.2 -0.1 0.1
v 0 -0.1 0.1
v 0.1 -0.1 0.1
v 0.3 -0.1 0.1
v -0.3 -0.1 -0.1
v -0.2 -0.1 -0.1
v 0.3 -0.1 -0.1
v 0.4 -0.1 -0.1
v -0.3 -0.1 -0.2
v -0.2 -0.1 -0.2
v -0.1 -0.1 -0.2
v 0.2 -0.1 -0.2
v 0.3 -0.1 -0.2
v 0.4 -0.1 -0.2
v -0.3 -0.1 -0.3
v -0.2 -0.1 -0.3
v -0.1 -0.1 -0.3
v 0.2 -0.1 -0.3
v 0.3 -0.1 -0.3
v 0.4 -0.1 -0.3
v -0.3 0 0.2
v -0.2 0 0.2
v 0 0 0.2
v 0.1 0 0.2
v 0.3 0 0.2
v 0.4 0 0.2
v -0.3 0 0.1
v -0.2 0 0.1
v 0 0 0.1
v 0.1 0 0.1
v 0.3 0 0.1
v 0.4 0 0.1
v -0.2 0.2 0.2
v 0 0.2 0.2
v 0.1 0.2 0.2
v 0.3 0.2 0.2
v -0.2 0.2 0.1
v 0 0.2 0.1
v 0.1 0.2 0.1
v 0.3 0.2 0.1
v 0 -0.6 -0.1
v 0.1 -0.6 -0.1
v 0 -0.6 -0.2
v 0.1 -0.6 -0.2
v -0.1 -0.5 -0.1
v 0 -0.5 -0.1
v 0.1 -0.5 -0.1
v 0.2 -0.5 -0.1
v -0.1 -0.5 -0.2
v 0 -0.5 -0.2
v 0.1 -0.5 -0.2
v 0.2 -0.5 -0.2
v -0.3 -0.4 -0.1
v -0.2 -0.4 -0.1
v -0.1 -0.4 -0.1
v 0.2 -0.4 -0.1
v 0.3 -0.4 -0.1
v 0.4 -0.4 -0.1
v -0.3 -0.4 -0.2
v -0.2 -0.4 -0.2
v -0.1 -0.4 -0.2
v 0.2 -0.4 -0.2
v 0.3 -0.4 -0.2
v 0.4 -0.4 -0.2
v -0.3 -0.2 -0.2
v -0.2 -0.2 -0.2
v -0.1 -0.2 -0.2
v 0.2 -0.2 -0.2
v 0.3 -0.2 -0.2
v 0.4 -0.2 -0.2
v -0.3 -0.2 -0.3
v -0.1 -0.2 -0.3
v 0.2 -0.2 -0.3
v 0.4 -0.2 -0.3
v -0.2 0 0.2
v 0 0 0.2
v 0.1 0 0.2
v 0.3 0 0.2
v -0.2 0 0.1
v -0.1 0 0.1
v 0 0 0.1
v 0.1 0 0.1
v 0.2 0 0.1
v 0.3 0 0.1
v -0.5 0 -0.2
v -0.4 0 -0.2
v -0.5 0 -0.3
v -0.4 0 -0.3
v -0.4 0.1 0
v -0.3 0.1 0
v 0.4 0.1 0
v 0.5 0.1 0
v -0.4 0.1 -0.1
v -0.3 0.1 -0.1
v 0.4 0.1 -0.1
v 0.5 0.1 -0.1
v -0.3 0.2 0.2
v -0.2 0.2 0.2
v 0 0.2 0.2
v 0.1 0.2 0.2
v 0.3 0.2 0.2
v 0.4 0.2 0.2
v -0.3 0.2 0.1
v -0.2 0.2 0.1
v 0 0.2 0.1
v 0.1 0.2 0.1
v 0.3 0.2 0.1
v 0.4 0.2 0.1
v -0.2 0.3 0.2
v 0 0.3 0.2
v 0.1 0.3 0.2
v 0.3 0.3 0.2
v -0.2 0.3 0.1
v -0.1 0.3 0.1
v 0 0.3 0.1
v 0.1 0.3 0.1
v 0.2 0.3 0.1
v 0.3 0.3 0.1
v 0.4 0.3 -0.2
v 0.5 0.3 -0.2
v 0.4 0.3 -0.3
v 0.5 0.3 -0.3
v -0.3 0.4 0.1
v -0.2 0.4 0.1
v 0.3 0.4 0.1
v 0.4 0.4 0.1
v -0.3 0.4 0
v -0.2 0.4 0
v 0.3 0.4 0
v 0.4 0.4 0
v -0.4 0.4 -0.1
v -0.3 0.4 -0.1
v 0.4 0.4 -0.1
v 0.5 0.4 -0.1
v 0.4 0.4 -0.2
v 0.5 0.4 -0.2
v -0.4 0.4 -0.3
v -0.3 0.4 -0.3
v -0.2 0.5 0.1
v -0.1 0.5 0.1
v 0.2 0.5 0.1
v 0.3 0.5 0.1
v -0.3 0.5 0
v -0.2 0.5 0
v -0.1 0.5 0
v 0.2 0.5 0
v 0.3 0.5 0
v 0.4 0.5 0
v -0.3 0.5 -0.1
v -0.2 0.5 -0.1
v 0.3 0.5 -0.1
v 0.4 0.5 -0.1
v 0.3 0.5 -0.2
v 0.4 0.5 -0.2
v 0.3 0.5 -0.3
v 0.4 0.5 -0.3
v -0.1 0.6 0.1
v 0.2 0.6 0.1
v -0.1 0.6 0
v 0.2 0.6 0
v -0.3 0.6 -0.1
v -0.2 0.6 -0.1
v 0.3 0.6 -0.1
v 0.4 0.6 -0.1
v -0.2 0.6 -0.2
v 0.3 0.6 -0.2
v 0.4 0.6 -0.2
v -0.3 0.6 -0.3
v -0.2 0.6 -0.3
v -0.2 0.7 0
v -0.1 0.7 0
v 0.2 0.7 0
v 0.3 0.7 0
v -0.2 0.7 -0.1
v -0.1 0.7 -0.1
v 0.2 0.7 -0.1
v 0.3 0.7 -0.1
v -0.1 0.8 0
v 0 0.8 0
v 0.1 0.8 0
v 0.2 0.8 0
v -0.2 0.8 -0.1
v -0.1 0.8 -0.1
v 0 0.8 -0.1
v 0.1 0.8 -0.1
v 0.2 0.8 -0.1
v 0.3 0.8 -0.1
v -0.2 0.8 -0.3
v -0.1 0.8 -0.3
v 0.2 0.8 -0.3
v 0.3 0.8 -0.3
v -0.1 0.9 -0.1
v 0.2 0.9 -0.1
v -0.1 0.9 -0.3
v 0.2 0.9 -0.3

# faces
f 3/3/1 2/3/1 1/3/1
f 4/3/1 2/3/1 3/3/1
f 9/3/1 8/3/1 7/3/1
f 10/3/1 8/3/1 9/3/1
f 11/3/1 6/3/1 5/3/1
f 13/3/1 11/3/1 5/3/1
f 13/6/1 12/6/1 11/6/1
f 14/6/1 12/6/1 13/6/1
f 16/3/1 13/3/1 5/3/1
f 16/3/1 15/3/1 14/3/1
f 16/3/1 14/3/1 13/3/1
f 17/3/1 15/3/1 16/3/1
f 18/3/1 15/3/1 17/3/1
f 19/3/1 15/3/1 18/3/1
f 22/3/1 21/3/1 20/3/1
f 23/3/1 21/3/1 22/3/1
f 26/10/1 25/10/1 24/10/1
f 27/10/1 25/10/1 26/10/1
f 29/3/1 22/3/1 20/3/1
f 30/3/1 22/3/1 29/3/1
f 30/4/1 29/4/1 28/4/1
f 31/3/1 22/3/1 30/3/1
f 33/4/1 30/4/1 28/4/1
f 33/4/1 32/4/1 31/4/1
f 33/4/1 31/4/1 30/4/1
f 34/4/1 32/4/1 33/4/1
f 35/4/1 32/4/1 34/4/1
f 36/3/1 35/3/1 34/3/1
f 37/3/1 35/3/1 36/3/1
f 38/3/1 35/3/1 37/3/1
f 40/9/1 38/9/1 37/9/1
f 40/9/1 39/9/1 38/9/1
f 41/9/1 39/9/1 40/9/1
f 42/9/1 39/9/1 41/9/1
f 43/8/1 42/8/1 41/8/1
f 44/8/1 42/8/1 43/8/1
f 47/7/1 46/7/1 45/7/1
f 50/7/1 47/7/1 45/7/1
f 51/7/1 47/7/1 50/7/1
f 52/4/1 49/4/1 48/4/1
f 53/4/1 49/4/1 52/4/1
f 56/4/1 55/4/1 54/4/1
f 57/4/1 55/4/1 56/4/1
f 60/9/1 59/9/1 58/9/1
f 61/9/1 59/9/1 60/9/1
f 63/9/1 62/9/1 61/9/1
f 64/9/1 62/9/1 63/9/1
f 67/8/1 65/8/1 64/8/1
f 67/8/1 64/8/1 63/8/1
f 68/8/1 65/8/1 67/8/1
f 69/9/1 66/9/1 65/9/1
f 69/8/1 65/8/1 68/8/1
f 70/9/1 66/9/1 69/9/1
f 71/8/1 69/8/1 68/8/1
f 71/8/1 70/8/1 69/8/1
f 72/8/1 70/8/1 71/8/1
f 75/6/1 74/6/1 73/6/1
f 76/6/1 74/6/1 75/6/1
f 79/7/1 78/7/1 77/7/1
f 80/7/1 78/7/1 79/7/1
f 83/7/1 82/7/1 81/7/1
f 84/7/1 82/7/1 83/7/1
f 87/8/1 86/8/1 85/8/1
f 88/8/1 86/8/1 87/8/1
f 91/8/1 90/8/1 89/8/1
f 92/8/1 90/8/1 91/8/1
f 94/8/1 93/8/1 92/8/1
f 95/8/1 93/8/1 94/8/1
f 98/10/1 97/10/1 96/10/1
f 99/10/1 97/10/1 98/10/1
f 100/6/1 99/6/1 98/6/1
f 101/6/1 99/6/1 100/6/1
f 104/4/1 103/4/1 102/4/1
f 105/4/1 103/4/1 104/4/1
f 108/6/1 107/6/1 106/6/1
f 109/6/1 107/6/1 108/6/1
f 112/4/1 111/4/1 110/4/1
f 113/4/1 111/4/1 112/4/1
f 116/4/1 115/4/1 114/4/1
f 117/4/1 115/4/1 116/4/1
f 121/6/1 119/6/1 118/6/1
f 122/8/1 120/8/1 119/8/1
f 122/6/1 119/6/1 121/6/1
f 123/8/1 120/8/1 122/8/1
f 126/3/1 125/3/1 124/3/1
f 127/3/1 126/3/1 124/3/1
f 128/3/1 127/3/1 124/3/1
f 129/3/1 127/3/1 128/3/1
f 130/3/1 128/3/1 124/3/1
f 131/3/1 128/3/1 130/3/1
f 134/4/1 133/4/1 132/4/1
f 135/4/1 134/4/1 132/4/1
f 136/4/1 134/4/1 135/4/1
f 139/6/1 138/6/1 137/6/1
f 141/6/1 139/6/1 137/6/1
f 142/3/1 140/3/1 139/3/1
f 142/6/1 139/6/1 141/6/1
f 143/3/1 140/3/1 142/3/1
f 144/3/2 145/3/2 146/3/2
f 146/3/2 145/3/2 147/3/2
f 148/6/2 149/6/2 150/6/2
f 148/6/2 150/6/2 152/6/2
f 150/3/2 151/3/2 153/3/2
f 152/6/2 150/6/2 153/6/2
f 153/3/2 151/3/2 154/3/2
f 155/3/2 156/3/2 157/3/2
f 155/3/2 157/3/2 158/3/2
f 155/3/2 158/3/2 159/3/2
f 159/3/2 158/3/2 160/3/2
f 155/3/2 159/3/2 161/3/2
f 161/3/2 159/3/2 162/3/2
f 163/4/2 164/4/2 165/4/2
f 163/4/2 165/4/2 166/4/2
f 166/4/2 165/4/2 167/4/2
f 168/6/2 169/6/2 171/6/2
f 169/8/2 170/8/2 172/8/2
f 171/6/2 169/6/2 172/6/2
f 172/8/2 170/8/2 173/8/2
f 174/6/2 175/6/2 176/6/2
f 176/6/2 175/6/2 177/6/2
f 178/4/2 179/4/2 180/4/2
f 180/4/2 179/4/2 181/4/2
f 182/4/2 183/4/2 184/4/2
f 184/4/2 183/4/2 185/4/2
f 186/10/2 187/10/2 188/10/2
f 188/10/2 187/10/2 189/10/2
f 188/6/2 189/6/2 190/6/2
f 190/6/2 189/6/2 191/6/2
f 192/4/2 193/4/2 194/4/2
f 194/4/2 193/4/2 195/4/2
f 196/6/2 197/6/2 198/6/2
f 198/6/2 197/6/2 199/6/2
f 200/7/2 201/7/2 202/7/2
f 202/7/2 201/7/2 203/7/2
f 204/7/2 205/7/2 206/7/2
f 206/7/2 205/7/2 207/7/2
f 208/8/2 209/8/2 210/8/2
f 210/8/2 209/8/2 211/8/2
f 212/8/2 213/8/2 214/8/2
f 214/8/2 213/8/2 215/8/2
f 215/8/2 216/8/2 217/8/2
f 217/8/2 216/8/2 218/8/2
f 219/7/2 220/7/2 221/7/2
f 219/7/2 221/7/2 224/7/2
f 224/7/2 221/7/2 225/7/2
f 222/4/2 223/4/2 226/4/2
f 226/4/2 223/4/2 227/4/2
f 228/4/2 229/4/2 230/4/2
f 230/4/2 229/4/2 231/4/2
f 232/9/2 233/9/2 234/9/2
f 234/9/2 233/9/2 235/9/2
f 235/8/2 236/8/2 239/8/2
f 237/8/2 238/8/2 240/8/2
f 240/8/2 238/8/2 241/8/2
f 235/8/2 239/8/2 242/8/2
f 239/8/2 240/8/2 242/8/2
f 242/8/2 240/8/2 243/8/2
f 240/9/2 241/9/2 244/9/2
f 243/8/2 240/8/2 244/8/2
f 244/9/2 241/9/2 245/9/2
f 243/8/2 244/8/2 246/8/2
f 244/8/2 245/8/2 246/8/2
f 246/8/2 245/8/2 247/8/2
f 248/3/2 249/3/2 250/3/2
f 250/3/2 249/3/2 251/3/2
f 252/10/2 253/10/2 254/10/2
f 254/10/2 253/10/2 255/10/2
f 248/3/2 250/3/2 257/3/2
f 257/3/2 250/3/2 258/3/2
f 256/4/2 257/4/2 258/4/2
f 258/3/2 250/3/2 259/3/2
f 256/4/2 258/4/2 261/4/2
f 259/4/2 260/4/2 261/4/2
f 258/4/2 259/4/2 261/4/2
f 261/4/2 260/4/2 262/4/2
f 262/4/2 260/4/2 263/4/2
f 262/3/2 263/3/2 266/3/2
f 266/3/2 263/3/2 267/3/2
f 267/3/2 263/3/2 268/3/2
f 264/3/2 265/3/2 269/3/2
f 269/3/2 265/3/2 270/3/2
f 267/9/2 268/9/2 271/9/2
f 269/9/2 270/9/2 271/9/2
f 268/9/2 269/9/2 271/9/2
f 271/9/2 270/9/2 272/9/2
f 272/9/2 270/9/2 273/9/2
f 273/9/2 270/9/2 274/9/2
f 272/8/2 273/8/2 275/8/2
f 275/8/2 273/8/2 276/8/2
f 277/3/2 278/3/2 281/3/2
f 279/3/2 280/3/2 282/3/2
f 282/3/2 280/3/2 283/3/2
f 281/6/2 282/6/2 283/6/2
f 283/3/2 280/3/2 284/3/2
f 277/3/2 281/3/2 285/3/2
f 281/6/2 283/6/2 285/6/2
f 283/8/2 284/8/2 286/8/2
f 285/6/2 283/6/2 286/6/2
f 277/3/2 285/3/2 287/3/2
f 285/3/2 286/3/2 287/3/2
f 287/3/2 286/3/2 288/3/2
f 286/8/2 284/8/2 289/8/2
f 288/3/2 286/3/2 289/3/2
f 289/8/2 284/8/2 290/8/2
f 288/3/2 289/3/2 291/3/2
f 289/3/2 290/3/2 291/3/2
f 291/3/2 290/3/2 292/3/2
f 288/3/2 291/3/2 293/3/2
f 293/3/2 291/3/2 294/3/2
f 298/4/3 296/4/3 295/4/3
f 299/4/3 296/4/3 298/4/3
f 301/4/3 298/4/3 297/4/3
f 302/4/3 298/4/3 301/4/3
f 303/4/3 300/4/3 299/4/3
f 304/4/3 300/4/3 303/4/3
f 306/4/3 303/4/3 302/4/3
f 307/4/3 303/4/3 306/4/3
f 309/4/3 306/4/3 305/4/3
f 310/4/3 306/4/3 309/4/3
f 311/4/3 308/4/3 307/4/3
f 312/4/3 308/4/3 311/4/3
f 313/4/3 311/4/3 310/4/3
f 314/4/3 311/4/3 313/4/3
f 319/3/3 316/3/3 315/3/3
f 320/3/3 316/3/3 319/3/3
f 321/3/3 316/3/3 320/3/3
f 322/3/3 316/3/3 321/3/3
f 324/3/3 318/3/3 317/3/3
f 325/3/3 318/3/3 324/3/3
f 326/3/3 318/3/3 325/3/3
f 329/7/3 321/7/3 320/7/3
f 330/6/3 323/6/3 322/6/3
f 331/8/3 324/8/3 323/8/3
f 331/6/3 323/6/3 330/6/3
f 332/3/3 326/3/3 325/3/3
f 333/9/3 327/9/3 326/9/3
f 333/3/3 326/3/3 332/3/3
f 334/9/3 327/9/3 333/9/3
f 336/7/3 329/7/3 328/7/3
f 337/7/3 321/7/3 329/7/3
f 337/7/3 329/7/3 336/7/3
f 338/7/3 321/7/3 337/7/3
f 339/8/3 331/8/3 330/8/3
f 340/8/3 324/8/3 331/8/3
f 340/8/3 331/8/3 339/8/3
f 341/7/3 333/7/3 332/7/3
f 342/1/3 337/1/3 336/1/3
f 343/7/3 339/7/3 338/7/3
f 343/1/3 337/1/3 342/1/3
f 343/7/3 338/7/3 337/7/3
f 344/7/3 339/7/3 343/7/3
f 345/7/3 339/7/3 344/7/3
f 346/7/3 341/7/3 340/7/3
f 347/7/3 333/7/3 341/7/3
f 347/7/3 341/7/3 346/7/3
f 348/7/3 343/7/3 342/7/3
f 348/7/3 344/7/3 343/7/3
f 349/7/3 344/7/3 348/7/3
f 350/8/3 346/8/3 345/8/3
f 351/8/3 346/8/3 350/8/3
f 352/7/3 333/7/3 347/7/3
f 353/9/3 334/9/3 333/9/3
f 353/7/3 333/7/3 352/7/3
f 354/8/3 335/8/3 334/8/3
f 354/9/3 334/9/3 353/9/3
f 355/8/3 335/8/3 354/8/3
f 357/7/3 344/7/3 349/7/3
f 358/7/3 344/7/3 357/7/3
f 359/6/3 351/6/3 350/6/3
f 360/8/3 346/8/3 351/8/3
f 360/6/3 351/6/3 359/6/3
f 361/8/3 346/8/3 360/8/3
f 362/3/3 353/3/3 352/3/3
f 363/9/3 354/9/3 353/9/3
f 363/3/3 353/3/3 362/3/3
f 364/9/3 354/9/3 363/9/3
f 365/3/3 359/3/3 358/3/3
f 365/3/3 358/3/3 357/3/3
f 365/3/3 357/3/3 356/3/3
f 366/3/3 359/3/3 365/3/3
f 367/3/3 363/3/3 362/3/3
f 367/3/3 362/3/3 361/3/3
f 368/3/3 363/3/3 367/3/3
f 371/3/3 370/3/3 369/3/3
f 372/3/3 370/3/3 371/3/3
f 377/9/3 374/9/3 373/9/3
f 378/9/3 374/9/3 377/9/3
f 381/7/3 376/7/3 375/7/3
f 382/7/3 376/7/3 381/7/3
f 383/9/3 379/9/3 378/9/3
f 384/8/3 380/8/3 379/8/3
f 384/9/3 379/9/3 383/9/3
f 385/8/3 380/8/3 384/8/3
f 387/8/3 386/8/3 385/8/3
f 387/8/3 385/8/3 384/8/3
f 388/8/3 386/8/3 387/8/3
f 389/8/3 387/8/3 384/8/3
f 389/9/3 388/9/3 387/9/3
f 390/9/3 388/9/3 389/9/3
f 394/8/3 389/8/3 384/8/3
f 394/8/3 390/8/3 389/8/3
f 395/8/3 390/8/3 394/8/3
f 396/8/3 390/8/3 395/8/3
f 397/7/3 392/7/3 391/7/3
f 398/7/3 392/7/3 397/7/3
f 400/8/3 394/8/3 393/8/3
f 400/8/3 395/8/3 394/8/3
f 401/8/3 395/8/3 400/8/3
f 404/9/3 400/9/3 399/9/3
f 405/9/3 400/9/3 404/9/3
f 406/3/3 403/3/3 402/3/3
f 407/3/3 403/3/3 406/3/3
f 410/3/3 409/3/3 408/3/3
f 411/3/3 409/3/3 410/3/3
f 412/3/3 409/3/3 411/3/3
f 417/8/3 414/8/3 413/8/3
f 418/8/3 414/8/3 417/8/3
f 422/6/3 416/6/3 415/6/3
f 423/6/3 416/6/3 422/6/3
f 424/8/3 420/8/3 419/8/3
f 425/8/3 420/8/3 424/8/3
f 429/6/3 422/6/3 421/6/3
f 430/6/3 422/6/3 429/6/3
f 431/8/3 426/8/3 425/8/3
f 432/10/3 428/10/3 427/10/3
f 433/6/3 429/6/3 428/6/3
f 433/10/3 428/10/3 432/10/3
f 434/6/3 429/6/3 433/6/3
f 436/8/3 426/8/3 431/8/3
f 437/6/3 435/6/3 434/6/3
f 438/6/3 435/6/3 437/6/3
f 441/8/3 426/8/3 436/8/3
f 442/8/3 426/8/3 441/8/3
f 443/6/3 439/6/3 438/6/3
f 444/6/3 439/6/3 443/6/3
f 447/8/3 441/8/3 440/8/3
f 448/8/3 441/8/3 447/8/3
f 452/8/3 446/8/3 445/8/3
f 453/8/3 446/8/3 452/8/3
f 454/3/3 451/3/3 450/3/3
f 454/3/3 450/3/3 449/3/3
f 455/3/3 451/3/3 454/3/3
f 459/3/3 457/3/3 456/3/3
f 460/3/3 457/3/3 459/3/3
f 461/3/3 457/3/3 460/3/3
f 462/3/3 459/3/3 458/3/3
f 462/3/3 460/3/3 459/3/3
f 463/3/3 460/3/3 462/3/3
f 464/3/3 460/3/3 463/3/3
f 466/8/3 465/8/3 464/8/3
f 467/8/3 465/8/3 466/8/3
f 468/8/3 465/8/3 467/8/3
f 469/8/3 467/8/3 466/8/3
f 470/8/3 467/8/3 469/8/3
f 471/7/3 470/7/3 469/7/3
f 472/7/3 470/7/3 471/7/3
f 473/8/3 472/8/3 471/8/3
f 474/8/3 472/8/3 473/8/3
f 477/8/3 474/8/3 473/8/3
f 477/8/3 475/8/3 474/8/3
f 478/8/3 475/8/3 477/8/3
f 479/3/3 477/3/3 476/3/3
f 480/3/3 477/3/3 479/3/3
f 481/3/4 482/3/4 484/3/4
f 484/3/4 482/3/4 485/3/4
f 485/3/4 482/3/4 486/3/4
f 483/3/4 484/3/4 488/3/4
f 484/3/4 485/3/4 488/3/4
f 488/3/4 485/3/4 489/3/4
f 486/3/4 487/3/4 490/3/4
f 490/3/4 487/3/4 491/3/4
f 491/3/4 487/3/4 492/3/4
f 493/3/4 494/3/4 498/3/4
f 498/3/4 494/3/4 499/3/4
f 499/3/4 494/3/4 500/3/4
f 496/3/4 497/3/4 501/3/4
f 495/3/4 496/3/4 501/3/4
f 501/3/4 497/3/4 502/3/4
f 499/3/4 500/3/4 503/3/4
f 500/3/4 501/3/4 503/3/4
f 503/3/4 501/3/4 504/3/4
f 505/7/4 506/7/4 509/7/4
f 509/7/4 506/7/4 510/7/4
f 507/6/4 508/6/4 513/6/4
f 513/6/4 508/6/4 514/6/4
f 511/10/4 512/10/4 515/10/4
f 512/6/4 513/6/4 516/6/4
f 515/10/4 512/10/4 516/10/4
f 516/6/4 513/6/4 517/6/4
f 517/6/4 518/6/4 519/6/4
f 519/6/4 518/6/4 520/6/4
f 521/7/4 522/7/4 523/7/4
f 523/7/4 522/7/4 524/7/4
f 525/8/4 526/8/4 529/8/4
f 529/8/4 526/8/4 530/8/4
f 527/3/4 528/3/4 531/3/4
f 531/3/4 528/3/4 532/3/4
f 533/3/4 534/3/4 536/3/4
f 536/3/4 534/3/4 537/3/4
f 537/3/4 534/3/4 538/3/4
f 535/3/4 536/3/4 540/3/4
f 536/3/4 537/3/4 540/3/4
f 540/3/4 537/3/4 541/3/4
f 541/3/4 537/3/4 542/3/4
f 537/8/4 538/8/4 543/8/4
f 542/3/4 537/3/4 543/3/4
f 538/3/4 539/3/4 544/3/4
f 543/8/4 538/8/4 544/8/4
f 544/3/4 539/3/4 545/3/4
f 545/3/4 539/3/4 546/3/4
f 543/8/4 544/8/4 549/8/4
f 544/8/4 545/8/4 549/8/4
f 549/8/4 545/8/4 550/8/4
f 547/8/4 548/8/4 551/8/4
f 541/8/4 542/8/4 554/8/4
f 554/8/4 542/8/4 555/8/4
f 555/8/4 542/8/4 556/8/4
f 549/2/4 550/2/4 557/2/4
f 546/9/4 547/9/4 558/9/4
f 547/8/4 551/8/4 558/8/4
f 551/9/4 552/9/4 559/9/4
f 558/8/4 551/8/4 559/8/4
f 552/8/4 553/8/4 560/8/4
f 559/9/4 552/9/4 560/9/4
f 560/8/4 553/8/4 561/8/4
f 556/7/4 557/7/4 564/7/4
f 555/7/4 556/7/4 564/7/4
f 564/7/4 557/7/4 565/7/4
f 557/2/4 550/2/4 566/2/4
f 565/7/4 557/7/4 566/7/4
f 558/3/4 559/3/4 567/3/4
f 546/9/4 558/9/4 567/9/4
f 560/8/4 561/8/4 568/8/4
f 567/3/4 559/3/4 568/3/4
f 559/8/4 560/8/4 568/8/4
f 561/8/4 562/8/4 568/8/4
f 568/8/4 562/8/4 569/8/4
f 569/8/4 562/8/4 570/8/4
f 570/8/4 562/8/4 571/8/4
f 566/2/4 550/2/4 572/2/4
f 550/8/4 545/8/4 573/8/4
f 572/2/4 550/2/4 573/2/4
f 546/9/4 567/9/4 574/9/4
f 567/8/4 568/8/4 574/8/4
f 568/9/4 569/9/4 575/9/4
f 574/8/4 568/8/4 575/8/4
f 569/8/4 570/8/4 576/8/4
f 575/9/4 569/9/4 576/9/4
f 576/8/4 570/8/4 577/8/4
f 563/8/4 564/8/4 578/8/4
f 564/8/4 565/8/4 578/8/4
f 578/8/4 565/8/4 579/8/4
f 572/8/4 573/8/4 580/8/4
f 545/3/4 546/3/4 581/3/4
f 546/9/4 574/9/4 582/9/4
f 581/3/4 546/3/4 582/3/4
f 582/9/4 574/9/4 583/9/4
f 579/3/4 580/3/4 584/3/4
f 578/3/4 579/3/4 584/3/4
f 580/8/4 573/8/4 585/8/4
f 584/3/4 580/3/4 585/3/4
f 573/8/4 545/8/4 586/8/4
f 585/8/4 573/8/4 586/8/4
f 545/3/4 581/3/4 586/3/4
f 586/3/4 581/3/4 587/3/4
f 592/3/5 589/3/5 588/3/5
f 593/3/5 589/3/5 592/3/5
f 596/3/5 591/3/5 590/3/5
f 597/3/5 591/3/5 596/3/5
f 598/10/5 595/10/5 594/10/5
f 599/10/5 595/10/5 598/10/5
f 604/3/5 601/3/5 600/3/5
f 605/3/5 601/3/5 604/3/5
f 606/3/5 603/3/5 602/3/5
f 607/3/5 603/3/5 606/3/5
f 614/6/5 609/6/5 608/6/5
f 615/6/5 609/6/5 614/6/5
f 616/6/5 611/6/5 610/6/5
f 617/6/5 611/6/5 616/6/5
f 618/3/5 613/3/5 612/3/5
f 619/3/5 613/3/5 618/3/5
f 628/10/5 621/10/5 620/10/5
f 629/6/5 622/6/5 621/6/5
f 629/10/5 621/10/5 628/10/5
f 630/6/5 622/6/5 629/6/5
f 631/6/5 624/6/5 623/6/5
f 632/10/5 625/10/5 624/10/5
f 632/6/5 624/6/5 631/6/5
f 633/10/5 625/10/5 632/10/5
f 635/3/5 627/3/5 626/3/5
f 636/3/5 627/3/5 635/3/5
f 637/8/5 630/8/5 629/8/5
f 637/8/5 629/8/5 628/8/5
f 638/8/5 630/8/5 637/8/5
f 639/8/5 632/8/5 631/8/5
f 639/8/5 633/8/5 632/8/5
f 640/3/5 634/3/5 633/3/5
f 640/8/5 633/8/5 639/8/5
f 641/3/5 634/3/5 640/3/5
f 646/6/5 643/6/5 642/6/5
f 647/6/5 643/6/5 646/6/5
f 650/6/5 645/6/5 644/6/5
f 651/6/5 645/6/5 650/6/5
f 652/7/5 649/7/5 648/7/5
f 653/7/5 649/7/5 652/7/5
f 659/7/5 655/7/5 654/7/5
f 660/1/5 656/1/5 655/1/5
f 660/7/5 655/7/5 659/7/5
f 661/7/5 657/7/5 656/7/5
f 661/1/5 656/1/5 660/1/5
f 662/7/5 657/7/5 661/7/5
f 664/7/5 660/7/5 659/7/5
f 664/7/5 663/7/5 662/7/5
f 664/7/5 662/7/5 661/7/5
f 664/7/5 661/7/5 660/7/5
f 664/7/5 659/7/5 658/7/5
f 665/7/5 663/7/5 664/7/5
f 666/7/5 665/7/5 664/7/5
f 667/7/5 665/7/5 666/7/5
f 668/7/5 665/7/5 667/7/5
f 669/7/5 665/7/5 668/7/5
f 674/7/5 671/7/5 670/7/5
f 675/7/5 671/7/5 674/7/5
f 676/7/5 673/7/5 672/7/5
f 677/7/5 673/7/5 676/7/5
f 682/4/5 679/4/5 678/4/5
f 683/4/5 679/4/5 682/4/5
f 684/4/5 681/4/5 680/4/5
f 685/4/5 681/4/5 684/4/5
f 690/7/5 687/7/5 686/7/5
f 691/7/5 687/7/5 690/7/5
f 694/7/5 689/7/5 688/7/5
f 695/7/5 689/7/5 694/7/5
f 696/8/5 691/8/5 690/8/5
f 697/2/5 692/2/5 691/2/5
f 697/8/5 691/8/5 696/8/5
f 698/2/5 692/2/5 697/2/5
f 699/2/5 694/2/5 693/2/5
f 700/8/5 695/8/5 694/8/5
f 700/2/5 694/2/5 699/2/5
f 701/8/5 695/8/5 700/8/5
f 708/4/5 703/4/5 702/4/5
f 709/4/5 703/4/5 708/4/5
f 710/4/5 705/4/5 704/4/5
f 711/4/5 705/4/5 710/4/5
f 712/4/5 707/4/5 706/4/5
f 713/4/5 707/4/5 712/4/5
f 718/4/5 715/4/5 714/4/5
f 719/4/5 715/4/5 718/4/5
f 720/4/5 717/4/5 716/4/5
f 721/4/5 717/4/5 720/4/5
f 722/6/6 723/6/6 724/6/6
f 724/6/6 723/6/6 725/6/6
f 726/6/6 727/6/6 730/6/6
f 730/6/6 727/6/6 731/6/6
f 728/6/6 729/6/6 732/6/6
f 732/6/6 729/6/6 733/6/6
f 734/10/6 735/10/6 740/10/6
f 735/6/6 736/6/6 741/6/6
f 740/10/6 735/10/6 741/10/6
f 741/6/6 736/6/6 742/6/6
f 737/6/6 738/6/6 743/6/6
f 738/10/6 739/10/6 744/10/6
f 743/6/6 738/6/6 744/6/6
f 744/10/6 739/10/6 745/10/6
f 746/8/6 747/8/6 752/8/6
f 747/8/6 748/8/6 752/8/6
f 752/8/6 748/8/6 753/8/6
f 750/8/6 751/8/6 754/8/6
f 749/8/6 750/8/6 754/8/6
f 754/8/6 751/8/6 755/8/6
f 756/4/6 757/4/6 760/4/6
f 760/4/6 757/4/6 761/4/6
f 761/4/6 757/4/6 762/4/6
f 758/4/6 759/4/6 763/4/6
f 763/4/6 759/4/6 764/4/6
f 764/4/6 759/4/6 765/4/6
f 766/3/6 767/3/6 768/3/6
f 768/3/6 767/3/6 769/3/6
f 770/3/6 771/3/6 774/3/6
f 774/3/6 771/3/6 775/3/6
f 772/3/6 773/3/6 776/3/6
f 776/3/6 773/3/6 777/3/6
f 778/4/6 779/4/6 784/4/6
f 784/4/6 779/4/6 785/4/6
f 780/4/6 781/4/6 786/4/6
f 786/4/6 781/4/6 787/4/6
f 782/4/6 783/4/6 788/4/6
f 788/4/6 783/4/6 789/4/6
f 790/4/6 791/4/6 794/4/6
f 794/4/6 791/4/6 795/4/6
f 795/4/6 791/4/6 796/4/6
f 792/4/6 793/4/6 797/4/6
f 797/4/6 793/4/6 798/4/6
f 798/4/6 793/4/6 799/4/6
f 800/3/6 801/3/6 802/3/6
f 802/3/6 801/3/6 803/3/6
f 804/3/6 805/3/6 808/3/6
f 808/3/6 805/3/6 809/3/6
f 806/3/6 807/3/6 810/3/6
f 810/3/6 807/3/6 811/3/6
f 814/3/6 815/3/6 816/3/6
f 816/3/6 815/3/6 817/3/6
f 812/3/6 813/3/6 818/3/6
f 818/3/6 813/3/6 819/3/6
f 820/9/6 821/9/6 825/9/6
f 825/9/6 821/9/6 826/9/6
f 822/9/6 823/9/6 827/9/6
f 827/9/6 823/9/6 828/9/6
f 824/9/6 825/9/6 830/9/6
f 830/9/6 825/9/6 831/9/6
f 828/9/6 829/9/6 832/9/6
f 832/9/6 829/9/6 833/9/6
f 834/9/6 835/9/6 836/9/6
f 836/9/6 835/9/6 837/9/6
f 838/8/6 839/8/6 840/8/6
f 840/8/6 839/8/6 841/8/6
f 842/8/6 843/8/6 846/8/6
f 844/8/6 845/8/6 847/8/6
f 847/8/6 845/8/6 848/8/6
f 842/8/6 846/8/6 849/8/6
f 849/8/6 846/8/6 850/8/6
f 851/8/6 852/8/6 855/8/6
f 855/8/6 852/8/6 856/8/6
f 853/8/6 854/8/6 857/8/6
f 857/8/6 854/8/6 858/8/6
f 859/8/6 860/8/6 864/8/6
f 860/9/6 861/9/6 865/9/6
f 864/8/6 860/8/6 865/8/6
f 861/8/6 862/8/6 866/8/6
f 865/9/6 861/9/6 866/9/6
f 866/8/6 862/8/6 867/8/6
f 863/8/6 864/8/6 869/8/6
f 869/8/6 864/8/6 870/8/6
f 867/8/6 868/8/6 871/8/6
f 871/8/6 868/8/6 872/8/6
f 873/8/6 874/8/6 875/8/6
f 875/8/6 874/8/6 876/8/6
