# MagicaVoxel @ Ephtracy

# group
o 

# material
mtllib vrach2-3.mtl
usemtl palette

# normals
vn -1 0 0
vn 1 0 0
vn 0 0 1
vn 0 0 -1
vn 0 -1 0
vn 0 1 0

# texcoords
vt 0.857422 0.5
vt 0.927734 0.5
vt 0.966797 0.5
vt 0.970703 0.5
vt 0.978516 0.5
vt 0.982422 0.5
vt 0.986328 0.5

# verts
v -0.3 0 -0.1
v -0.3 0 -0.2
v -0.3 0.2 -0.1
v -0.3 0.2 -0.2
v -0.3 0.2 -0.3
v -0.3 0.3 0
v -0.3 0.3 -0.2
v -0.3 0.4 0.1
v -0.3 0.4 0
v -0.3 0.4 -0.3
v -0.3 0.4 -0.4
v -0.3 0.6 0.1
v -0.3 0.6 0
v -0.3 0.7 0
v -0.3 0.7 -0.1
v -0.3 0.8 -0.1
v -0.3 0.8 -0.4
v -0.2 -0.3 0
v -0.2 -0.3 -0.4
v -0.2 -0.2 -0.4
v -0.2 -0.2 -0.5
v -0.2 -0.1 0.1
v -0.2 -0.1 0
v -0.2 -0.1 -0.4
v -0.2 -0.1 -0.5
v -0.2 0 0.1
v -0.2 0 0
v -0.2 0 -0.1
v -0.2 0 -0.2
v -0.2 0.1 -0.4
v -0.2 0.1 -0.5
v -0.2 0.2 -0.1
v -0.2 0.2 -0.2
v -0.2 0.2 -0.3
v -0.2 0.2 -0.4
v -0.2 0.2 -0.5
v -0.2 0.3 0.1
v -0.2 0.3 0
v -0.2 0.3 -0.2
v -0.2 0.4 0.1
v -0.2 0.4 0
v -0.2 0.4 -0.3
v -0.2 0.4 -0.4
v -0.2 0.4 -0.5
v -0.2 0.5 -0.4
v -0.2 0.5 -0.5
v -0.2 0.6 -0.4
v -0.2 0.6 -0.5
v -0.1 -0.6 0.3
v -0.1 -0.6 0.2
v -0.1 -0.6 0
v -0.1 -0.6 -0.1
v -0.1 -0.6 -0.3
v -0.1 -0.6 -0.4
v -0.1 -0.5 0.3
v -0.1 -0.5 0.2
v -0.1 -0.4 -0.1
v -0.1 -0.4 -0.3
v -0.1 -0.3 0.1
v -0.1 -0.3 0
v -0.1 -0.3 -0.4
v -0.1 -0.3 -0.5
v -0.1 -0.2 -0.4
v -0.1 -0.2 -0.5
v -0.1 -0.1 0.1
v -0.1 -0.1 0
v -0.1 0.4 -0.4
v -0.1 0.4 -0.5
v -0.1 0.5 -0.4
v -0.1 0.5 -0.5
v 0 -0.7 0.3
v 0 -0.7 0.2
v 0 -0.7 0
v 0 -0.7 -0.1
v 0 -0.7 -0.2
v 0 -0.7 -0.3
v 0 -0.6 0.5
v 0 -0.6 0.3
v 0 -0.6 0.2
v 0 -0.6 0.1
v 0 -0.6 0
v 0 -0.6 -0.1
v 0 -0.6 -0.2
v 0 -0.6 -0.3
v 0 -0.6 -0.4
v 0 -0.6 -0.5
v 0 -0.5 0.5
v 0 -0.5 0.3
v 0 -0.5 0.2
v 0 -0.5 0.1
v 0 -0.5 0
v 0 -0.5 -0.1
v 0 -0.5 -0.2
v 0 -0.5 -0.3
v 0 -0.5 -0.4
v 0 -0.5 -0.5
v 0 -0.5 -0.6
v 0 -0.4 0.3
v 0 -0.4 0.2
v 0 -0.4 -0.5
v 0 -0.4 -0.6
v 0.1 -0.5 0
v 0.1 -0.5 -0.1
v 0.1 -0.5 -0.2
v 0.1 -0.5 -0.3
v 0.1 -0.4 0
v 0.1 -0.4 -0.1
v 0.1 -0.4 -0.2
v 0.1 -0.4 -0.3
v -0.2 0.7 -0.1
v -0.2 0.7 -0.4
v -0.2 0.8 -0.1
v -0.2 0.8 -0.4
v -0.1 0.6 0
v -0.1 0.6 -0.1
v -0.1 0.6 -0.2
v -0.1 0.6 -0.4
v -0.1 0.7 0
v -0.1 0.7 -0.1
v -0.1 0.7 -0.4
v 0 -0.5 0
v 0 -0.5 -0.1
v 0 -0.4 0
v 0 -0.4 -0.1
v 0 -0.3 -0.4
v 0 -0.3 -0.5
v 0 -0.2 -0.4
v 0 -0.2 -0.5
v 0 0 -0.4
v 0 0 -0.5
v 0 0.1 -0.4
v 0 0.2 -0.4
v 0 0.3 -0.4
v 0 0.4 -0.4
v 0 0.4 -0.5
v 0 0.5 0.1
v 0 0.5 0
v 0 0.5 -0.2
v 0 0.5 -0.4
v 0 0.5 -0.5
v 0 0.6 0.1
v 0 0.6 0
v 0 0.6 -0.2
v 0 0.6 -0.5
v 0.1 -0.7 0.3
v 0.1 -0.7 0.2
v 0.1 -0.6 0.5
v 0.1 -0.6 0.3
v 0.1 -0.6 0.2
v 0.1 -0.6 0.1
v 0.1 -0.6 0
v 0.1 -0.6 -0.1
v 0.1 -0.6 -0.2
v 0.1 -0.6 -0.3
v 0.1 -0.6 -0.4
v 0.1 -0.6 -0.5
v 0.1 -0.5 0.5
v 0.1 -0.5 0.3
v 0.1 -0.5 0.2
v 0.1 -0.5 0.1
v 0.1 -0.5 0
v 0.1 -0.5 -0.1
v 0.1 -0.5 -0.2
v 0.1 -0.5 -0.3
v 0.1 -0.5 -0.4
v 0.1 -0.5 -0.5
v 0.1 -0.5 -0.6
v 0.1 -0.4 0.3
v 0.1 -0.4 0.2
v 0.1 -0.4 -0.5
v 0.1 -0.4 -0.6
v 0.1 -0.3 -0.3
v 0.1 -0.3 -0.4
v 0.1 -0.2 -0.3
v 0.1 -0.2 -0.4
v 0.1 -0.1 -0.3
v 0.1 -0.1 -0.4
v 0.1 0 -0.3
v 0.1 0 -0.4
v 0.1 0.1 0.1
v 0.1 0.1 0
v 0.1 0.1 -0.1
v 0.1 0.1 -0.3
v 0.1 0.1 -0.4
v 0.1 0.2 -0.1
v 0.1 0.2 -0.2
v 0.1 0.2 -0.3
v 0.1 0.2 -0.4
v 0.1 0.3 0
v 0.1 0.3 -0.1
v 0.1 0.3 -0.3
v 0.1 0.3 -0.4
v 0.1 0.4 0
v 0.1 0.4 -0.1
v 0.1 0.4 -0.2
v 0.1 0.4 -0.3
v 0.1 0.5 0.1
v 0.1 0.5 -0.4
v 0.2 -0.7 0
v 0.2 -0.7 -0.1
v 0.2 -0.7 -0.2
v 0.2 -0.7 -0.3
v 0.2 -0.6 0.3
v 0.2 -0.6 0.2
v 0.2 -0.5 0.3
v 0.2 -0.5 0.2
v 0.2 -0.4 -0.1
v 0.2 -0.4 -0.2
v 0.2 -0.3 0.1
v 0.2 -0.3 0
v 0.2 -0.3 -0.2
v 0.2 -0.3 -0.3
v 0.2 -0.2 0.1
v 0.2 -0.2 0
v 0.2 -0.2 -0.2
v 0.2 -0.2 -0.3
v 0.2 -0.2 -0.4
v 0.2 -0.1 0.1
v 0.2 -0.1 0
v 0.2 -0.1 -0.1
v 0.2 -0.1 -0.2
v 0.2 -0.1 -0.3
v 0.2 -0.1 -0.4
v 0.2 0 0.1
v 0.2 0 0
v 0.2 0 -0.1
v 0.2 0 -0.2
v 0.2 0.1 0.1
v 0.2 0.1 0
v 0.2 0.1 -0.1
v 0.2 0.1 -0.2
v 0.2 0.2 -0.1
v 0.2 0.2 -0.2
v 0.2 0.4 -0.2
v 0.2 0.4 -0.3
v 0.3 -0.3 0
v 0.3 -0.3 -0.2
v 0.3 -0.2 -0.2
v 0.3 -0.2 -0.3
v 0.3 -0.1 0
v 0.3 -0.1 -0.1
v 0.3 -0.1 -0.2
v 0.3 -0.1 -0.3
v 0.3 0 -0.1
v 0.3 0 -0.2
v 0 -0.6 0.5
v 0 -0.5 0.5
v 0.1 -0.6 0.5
v 0.1 -0.5 0.5
v -0.1 -0.6 0.3
v -0.1 -0.5 0.3
v 0 -0.7 0.3
v 0 -0.6 0.3
v 0 -0.5 0.3
v 0 -0.4 0.3
v 0.1 -0.7 0.3
v 0.1 -0.6 0.3
v 0.1 -0.5 0.3
v 0.1 -0.4 0.3
v 0.2 -0.6 0.3
v 0.2 -0.5 0.3
v -0.3 0.4 0.1
v -0.3 0.6 0.1
v -0.2 -0.1 0.1
v -0.2 0 0.1
v -0.2 0.3 0.1
v -0.2 0.4 0.1
v -0.2 0.6 0.1
v -0.1 -0.3 0.1
v -0.1 -0.1 0.1
v 0 -0.2 0.1
v 0 -0.1 0.1
v 0 0 0.1
v 0 0.3 0.1
v 0 0.4 0.1
v 0 0.5 0.1
v 0 0.6 0.1
v 0.1 0 0.1
v 0.1 0.1 0.1
v 0.1 0.5 0.1
v 0.2 -0.3 0.1
v 0.2 -0.2 0.1
v 0.2 -0.1 0.1
v 0.2 0 0.1
v 0.2 0.1 0.1
v -0.3 0.3 0
v -0.3 0.4 0
v -0.3 0.6 0
v -0.3 0.7 0
v -0.2 -0.3 0
v -0.2 -0.1 0
v -0.2 0.3 0
v -0.2 0.4 0
v -0.2 0.6 0
v -0.2 0.7 0
v -0.1 -0.6 0
v -0.1 -0.3 0
v -0.1 -0.1 0
v -0.1 0.6 0
v -0.1 0.7 0
v 0 -0.7 0
v 0 -0.6 0
v 0 -0.5 0
v 0 -0.4 0
v 0.1 -0.6 0
v 0.1 -0.5 0
v 0.1 -0.4 0
v 0.2 -0.7 0
v 0.2 -0.3 0
v 0.2 -0.2 0
v 0.2 -0.1 0
v 0.3 -0.3 0
v 0.3 -0.1 0
v -0.3 0 -0.1
v -0.3 0.2 -0.1
v -0.3 0.7 -0.1
v -0.3 0.8 -0.1
v -0.2 0 -0.1
v -0.2 0.2 -0.1
v -0.2 0.7 -0.1
v -0.2 0.8 -0.1
v 0.1 0.1 -0.1
v 0.1 0.2 -0.1
v 0.2 -0.1 -0.1
v 0.2 0 -0.1
v 0.2 0.1 -0.1
v 0.2 0.2 -0.1
v 0.3 -0.1 -0.1
v 0.3 0 -0.1
v -0.3 0.2 -0.2
v -0.3 0.3 -0.2
v -0.2 0.2 -0.2
v -0.2 0.3 -0.2
v 0 -0.7 -0.2
v 0 -0.6 -0.2
v 0.1 -0.6 -0.2
v 0.1 -0.5 -0.2
v 0.1 -0.4 -0.2
v 0.1 0.2 -0.2
v 0.1 0.4 -0.2
v 0.2 -0.7 -0.2
v 0.2 -0.4 -0.2
v 0.2 0.2 -0.2
v 0.2 0.4 -0.2
v -0.1 -0.6 -0.3
v -0.1 -0.4 -0.3
v 0 -0.6 -0.3
v 0 -0.5 -0.3
v 0.1 -0.5 -0.3
v 0.1 -0.4 -0.3
v 0 -0.5 -0.5
v 0 -0.4 -0.5
v 0.1 -0.5 -0.5
v 0.1 -0.4 -0.5
v -0.1 -0.6 0.2
v -0.1 -0.5 0.2
v 0 -0.7 0.2
v 0 -0.6 0.2
v 0 -0.5 0.2
v 0 -0.4 0.2
v 0.1 -0.7 0.2
v 0.1 -0.6 0.2
v 0.1 -0.5 0.2
v 0.1 -0.4 0.2
v 0.2 -0.6 0.2
v 0.2 -0.5 0.2
v -0.1 -0.6 -0.1
v -0.1 -0.4 -0.1
v 0 -0.7 -0.1
v 0 -0.6 -0.1
v 0 -0.5 -0.1
v 0 -0.4 -0.1
v 0.1 -0.6 -0.1
v 0.1 -0.5 -0.1
v 0.1 -0.4 -0.1
v 0.2 -0.7 -0.1
v 0.2 -0.4 -0.1
v -0.3 0 -0.2
v -0.3 0.2 -0.2
v -0.2 0 -0.2
v -0.2 0.2 -0.2
v 0.2 -0.3 -0.2
v 0.2 -0.2 -0.2
v 0.2 -0.1 -0.2
v 0.2 0 -0.2
v 0.3 -0.3 -0.2
v 0.3 -0.2 -0.2
v 0.3 -0.1 -0.2
v 0.3 0 -0.2
v -0.3 0.2 -0.3
v -0.3 0.4 -0.3
v -0.2 0.2 -0.3
v -0.2 0.4 -0.3
v 0 -0.7 -0.3
v 0 -0.6 -0.3
v 0.1 -0.6 -0.3
v 0.1 -0.5 -0.3
v 0.1 -0.3 -0.3
v 0.1 -0.2 -0.3
v 0.1 -0.1 -0.3
v 0.1 0 -0.3
v 0.1 0.1 -0.3
v 0.1 0.2 -0.3
v 0.1 0.3 -0.3
v 0.1 0.4 -0.3
v 0.2 -0.7 -0.3
v 0.2 -0.3 -0.3
v 0.2 -0.2 -0.3
v 0.2 -0.1 -0.3
v 0.2 0.4 -0.3
v 0.3 -0.2 -0.3
v 0.3 -0.1 -0.3
v -0.3 0.4 -0.4
v -0.3 0.8 -0.4
v -0.2 -0.3 -0.4
v -0.2 -0.2 -0.4
v -0.2 0.4 -0.4
v -0.2 0.5 -0.4
v -0.2 0.6 -0.4
v -0.2 0.7 -0.4
v -0.2 0.8 -0.4
v -0.1 -0.6 -0.4
v -0.1 -0.3 -0.4
v -0.1 -0.2 -0.4
v -0.1 0.4 -0.4
v -0.1 0.5 -0.4
v -0.1 0.6 -0.4
v -0.1 0.7 -0.4
v 0 -0.6 -0.4
v 0 -0.5 -0.4
v 0 -0.3 -0.4
v 0 -0.2 -0.4
v 0 0 -0.4
v 0 0.1 -0.4
v 0 0.2 -0.4
v 0 0.3 -0.4
v 0 0.4 -0.4
v 0 0.5 -0.4
v 0.1 -0.5 -0.4
v 0.1 -0.3 -0.4
v 0.1 -0.2 -0.4
v 0.1 -0.1 -0.4
v 0.1 0 -0.4
v 0.1 0.1 -0.4
v 0.1 0.2 -0.4
v 0.1 0.3 -0.4
v 0.1 0.5 -0.4
v 0.2 -0.2 -0.4
v 0.2 -0.1 -0.4
v -0.2 -0.2 -0.5
v -0.2 -0.1 -0.5
v -0.2 0.1 -0.5
v -0.2 0.2 -0.5
v -0.2 0.4 -0.5
v -0.2 0.5 -0.5
v -0.2 0.6 -0.5
v -0.1 -0.3 -0.5
v -0.1 -0.2 -0.5
v -0.1 -0.1 -0.5
v -0.1 0 -0.5
v -0.1 0.1 -0.5
v -0.1 0.2 -0.5
v -0.1 0.4 -0.5
v -0.1 0.5 -0.5
v 0 -0.6 -0.5
v 0 -0.5 -0.5
v 0 -0.3 -0.5
v 0 -0.2 -0.5
v 0 0 -0.5
v 0 0.4 -0.5
v 0 0.5 -0.5
v 0 0.6 -0.5
v 0.1 -0.6 -0.5
v 0.1 -0.5 -0.5
v 0 -0.5 -0.6
v 0 -0.4 -0.6
v 0.1 -0.5 -0.6
v 0.1 -0.4 -0.6
v 0 -0.7 0.3
v 0.1 -0.7 0.3
v 0 -0.7 0.2
v 0.1 -0.7 0.2
v 0 -0.7 0
v 0.2 -0.7 0
v 0 -0.7 -0.1
v 0.2 -0.7 -0.1
v 0 -0.7 -0.2
v 0.2 -0.7 -0.2
v 0 -0.7 -0.3
v 0.2 -0.7 -0.3
v 0 -0.6 0.5
v 0.1 -0.6 0.5
v -0.1 -0.6 0.3
v 0 -0.6 0.3
v 0.1 -0.6 0.3
v 0.2 -0.6 0.3
v -0.1 -0.6 0.2
v 0 -0.6 0.2
v 0.1 -0.6 0.2
v 0.2 -0.6 0.2
v 0 -0.6 0.1
v 0.1 -0.6 0.1
v -0.1 -0.6 0
v 0 -0.6 0
v 0.1 -0.6 0
v -0.1 -0.6 -0.1
v 0 -0.6 -0.1
v 0.1 -0.6 -0.1
v 0 -0.6 -0.2
v 0.1 -0.6 -0.2
v -0.1 -0.6 -0.3
v 0 -0.6 -0.3
v 0.1 -0.6 -0.3
v -0.1 -0.6 -0.4
v 0 -0.6 -0.4
v 0.1 -0.6 -0.4
v 0 -0.6 -0.5
v 0.1 -0.6 -0.5
v 0 -0.5 -0.5
v 0.1 -0.5 -0.5
v 0 -0.5 -0.6
v 0.1 -0.5 -0.6
v 0 -0.4 0
v 0.1 -0.4 0
v -0.1 -0.4 -0.1
v 0 -0.4 -0.1
v 0.1 -0.4 -0.1
v 0.2 -0.4 -0.1
v 0.1 -0.4 -0.2
v 0.2 -0.4 -0.2
v -0.1 -0.4 -0.3
v 0.1 -0.4 -0.3
v -0.1 -0.3 0.1
v 0.2 -0.3 0.1
v -0.2 -0.3 0
v -0.1 -0.3 0
v 0.2 -0.3 0
v 0.3 -0.3 0
v 0.2 -0.3 -0.2
v 0.3 -0.3 -0.2
v -0.2 -0.3 -0.4
v -0.1 -0.3 -0.4
v 0 -0.3 -0.4
v -0.1 -0.3 -0.5
v 0 -0.3 -0.5
v 0.2 -0.2 -0.2
v 0.3 -0.2 -0.2
v 0.1 -0.2 -0.3
v 0.2 -0.2 -0.3
v 0.3 -0.2 -0.3
v -0.2 -0.2 -0.4
v -0.1 -0.2 -0.4
v 0.1 -0.2 -0.4
v 0.2 -0.2 -0.4
v -0.2 -0.2 -0.5
v -0.1 -0.2 -0.5
v -0.2 -0.1 0.1
v -0.1 -0.1 0.1
v -0.2 -0.1 0
v -0.1 -0.1 0
v -0.3 0 -0.1
v -0.2 0 -0.1
v -0.3 0 -0.2
v -0.2 0 -0.2
v -0.3 0.2 -0.2
v -0.2 0.2 -0.2
v -0.3 0.2 -0.3
v -0.2 0.2 -0.3
v -0.3 0.3 0
v -0.2 0.3 0
v -0.3 0.3 -0.2
v -0.2 0.3 -0.2
v -0.3 0.4 0.1
v -0.2 0.4 0.1
v -0.3 0.4 0
v -0.2 0.4 0
v -0.3 0.4 -0.3
v -0.2 0.4 -0.3
v -0.3 0.4 -0.4
v -0.2 0.4 -0.4
v -0.2 0.5 -0.4
v -0.1 0.5 -0.4
v -0.2 0.5 -0.5
v -0.1 0.5 -0.5
v 0 -0.5 0.5
v 0.1 -0.5 0.5
v -0.1 -0.5 0.3
v 0 -0.5 0.3
v 0.1 -0.5 0.3
v 0.2 -0.5 0.3
v -0.1 -0.5 0.2
v 0 -0.5 0.2
v 0.1 -0.5 0.2
v 0.2 -0.5 0.2
v 0 -0.5 0.1
v 0.1 -0.5 0.1
v 0 -0.5 0
v 0.1 -0.5 0
v 0 -0.5 -0.1
v 0.1 -0.5 -0.1
v 0 -0.5 -0.2
v 0.1 -0.5 -0.2
v 0 -0.5 -0.3
v 0.1 -0.5 -0.3
v 0 -0.5 -0.4
v 0.1 -0.5 -0.4
v 0 -0.5 -0.5
v 0.1 -0.5 -0.5
v 0 -0.4 0.3
v 0.1 -0.4 0.3
v 0 -0.4 0.2
v 0.1 -0.4 0.2
v 0 -0.4 -0.5
v 0.1 -0.4 -0.5
v 0 -0.4 -0.6
v 0.1 -0.4 -0.6
v 0.2 -0.1 0
v 0.3 -0.1 0
v 0.2 -0.1 -0.1
v 0.3 -0.1 -0.1
v 0.2 -0.1 -0.2
v 0.3 -0.1 -0.2
v 0.1 -0.1 -0.3
v 0.2 -0.1 -0.3
v 0.3 -0.1 -0.3
v 0.1 -0.1 -0.4
v 0.2 -0.1 -0.4
v 0.2 0 -0.1
v 0.3 0 -0.1
v 0.2 0 -0.2
v 0.3 0 -0.2
v 0.1 0.1 0.1
v 0.2 0.1 0.1
v 0.1 0.1 0
v 0.2 0.1 0
v 0.1 0.1 -0.1
v 0.2 0.1 -0.1
v -0.3 0.2 -0.1
v -0.2 0.2 -0.1
v 0.1 0.2 -0.1
v 0.2 0.2 -0.1
v -0.3 0.2 -0.2
v -0.2 0.2 -0.2
v 0.1 0.2 -0.2
v 0.2 0.2 -0.2
v 0.1 0.4 -0.2
v 0.2 0.4 -0.2
v 0.1 0.4 -0.3
v 0.2 0.4 -0.3
v -0.2 0.4 -0.4
v -0.1 0.4 -0.4
v -0.2 0.4 -0.5
v -0.1 0.4 -0.5
v 0 0.5 0.1
v 0.1 0.5 0.1
v 0 0.5 0
v 0 0.5 -0.2
v 0 0.5 -0.4
v 0.1 0.5 -0.4
v -0.3 0.6 0.1
v -0.2 0.6 0.1
v 0 0.6 0.1
v -0.3 0.6 0
v -0.2 0.6 0
v -0.1 0.6 0
v 0 0.6 0
v -0.1 0.6 -0.1
v -0.1 0.6 -0.2
v 0 0.6 -0.2
v -0.2 0.6 -0.4
v -0.1 0.6 -0.4
v -0.2 0.6 -0.5
v 0 0.6 -0.5
v -0.3 0.7 0
v -0.2 0.7 0
v -0.1 0.7 0
v -0.3 0.7 -0.1
v -0.2 0.7 -0.1
v -0.1 0.7 -0.1
v -0.2 0.7 -0.4
v -0.1 0.7 -0.4
v -0.3 0.8 -0.1
v -0.2 0.8 -0.1
v -0.3 0.8 -0.4
v -0.2 0.8 -0.4

# faces
f 3/5/1 2/5/1 1/5/1
f 4/5/1 2/5/1 3/5/1
f 7/5/1 5/5/1 4/5/1
f 9/5/1 7/5/1 6/5/1
f 10/5/1 5/5/1 7/5/1
f 10/5/1 7/5/1 9/5/1
f 12/5/1 9/5/1 8/5/1
f 12/5/1 11/5/1 10/5/1
f 12/5/1 10/5/1 9/5/1
f 13/5/1 11/5/1 12/5/1
f 14/5/1 11/5/1 13/5/1
f 15/5/1 11/5/1 14/5/1
f 16/5/1 11/5/1 15/5/1
f 17/5/1 11/5/1 16/5/1
f 20/5/1 19/5/1 18/5/1
f 23/5/1 20/5/1 18/5/1
f 24/2/1 21/2/1 20/2/1
f 24/5/1 20/5/1 23/5/1
f 25/2/1 21/2/1 24/2/1
f 26/5/1 23/5/1 22/5/1
f 26/5/1 24/5/1 23/5/1
f 26/5/1 25/5/1 24/5/1
f 27/5/1 25/5/1 26/5/1
f 28/5/1 25/5/1 27/5/1
f 29/5/1 25/5/1 28/5/1
f 30/5/1 25/5/1 29/5/1
f 31/5/1 25/5/1 30/5/1
f 32/5/1 28/5/1 27/5/1
f 33/5/1 30/5/1 29/5/1
f 34/5/1 30/5/1 33/5/1
f 35/2/1 31/2/1 30/2/1
f 35/5/1 30/5/1 34/5/1
f 36/2/1 31/2/1 35/2/1
f 37/2/1 27/2/1 26/2/1
f 38/5/1 32/5/1 27/5/1
f 38/2/1 27/2/1 37/2/1
f 38/5/1 33/5/1 32/5/1
f 39/5/1 33/5/1 38/5/1
f 40/5/1 38/5/1 37/5/1
f 41/5/1 38/5/1 40/5/1
f 42/5/1 36/5/1 35/5/1
f 42/5/1 35/5/1 34/5/1
f 43/5/1 36/5/1 42/5/1
f 44/5/1 36/5/1 43/5/1
f 47/5/1 46/5/1 45/5/1
f 48/5/1 46/5/1 47/5/1
f 55/7/1 50/7/1 49/7/1
f 56/7/1 50/7/1 55/7/1
f 57/4/1 52/4/1 51/4/1
f 58/4/1 54/4/1 53/4/1
f 60/4/1 57/4/1 51/4/1
f 60/4/1 58/4/1 57/4/1
f 61/4/1 54/4/1 58/4/1
f 61/4/1 58/4/1 60/4/1
f 63/5/1 62/5/1 61/5/1
f 64/5/1 62/5/1 63/5/1
f 65/5/1 60/5/1 59/5/1
f 66/5/1 60/5/1 65/5/1
f 69/2/1 68/2/1 67/2/1
f 70/2/1 68/2/1 69/2/1
f 78/7/1 72/7/1 71/7/1
f 79/7/1 72/7/1 78/7/1
f 81/4/1 74/4/1 73/4/1
f 82/4/1 74/4/1 81/4/1
f 83/4/1 76/4/1 75/4/1
f 84/4/1 76/4/1 83/4/1
f 87/7/1 78/7/1 77/7/1
f 88/7/1 78/7/1 87/7/1
f 89/7/1 80/7/1 79/7/1
f 90/1/1 81/1/1 80/1/1
f 90/7/1 80/7/1 89/7/1
f 91/1/1 81/1/1 90/1/1
f 92/5/1 83/5/1 82/5/1
f 93/7/1 84/7/1 83/7/1
f 93/5/1 83/5/1 92/5/1
f 94/7/1 84/7/1 93/7/1
f 95/3/1 86/3/1 85/3/1
f 96/3/1 86/3/1 95/3/1
f 98/7/1 89/7/1 88/7/1
f 99/7/1 89/7/1 98/7/1
f 100/3/1 97/3/1 96/3/1
f 101/3/1 97/3/1 100/3/1
f 106/4/1 103/4/1 102/4/1
f 107/4/1 103/4/1 106/4/1
f 108/4/1 105/4/1 104/4/1
f 109/4/1 105/4/1 108/4/1
f 110/5/2 111/5/2 112/5/2
f 112/5/2 111/5/2 113/5/2
f 114/2/2 115/2/2 118/2/2
f 116/5/2 117/5/2 119/5/2
f 118/2/2 115/2/2 119/2/2
f 115/5/2 116/5/2 119/5/2
f 119/5/2 117/5/2 120/5/2
f 121/4/2 122/4/2 123/4/2
f 123/4/2 122/4/2 124/4/2
f 125/5/2 126/5/2 127/5/2
f 127/5/2 126/5/2 128/5/2
f 127/2/2 128/2/2 129/2/2
f 129/2/2 128/2/2 130/2/2
f 129/5/2 130/5/2 131/5/2
f 131/5/2 130/5/2 132/5/2
f 132/5/2 130/5/2 133/5/2
f 133/5/2 130/5/2 134/5/2
f 134/5/2 130/5/2 135/5/2
f 134/2/2 135/2/2 139/2/2
f 139/2/2 135/2/2 140/2/2
f 136/2/2 137/2/2 141/2/2
f 137/6/2 138/6/2 142/6/2
f 141/2/2 137/2/2 142/2/2
f 138/5/2 139/5/2 143/5/2
f 142/6/2 138/6/2 143/6/2
f 139/5/2 140/5/2 143/5/2
f 143/5/2 140/5/2 144/5/2
f 145/7/2 146/7/2 148/7/2
f 148/7/2 146/7/2 149/7/2
f 147/7/2 148/7/2 157/7/2
f 157/7/2 148/7/2 158/7/2
f 149/7/2 150/7/2 159/7/2
f 150/1/2 151/1/2 160/1/2
f 159/7/2 150/7/2 160/7/2
f 160/1/2 151/1/2 161/1/2
f 152/5/2 153/5/2 162/5/2
f 162/5/2 153/5/2 163/5/2
f 154/7/2 155/7/2 164/7/2
f 155/3/2 156/3/2 165/3/2
f 164/7/2 155/7/2 165/7/2
f 165/3/2 156/3/2 166/3/2
f 158/7/2 159/7/2 168/7/2
f 168/7/2 159/7/2 169/7/2
f 166/3/2 167/3/2 170/3/2
f 170/3/2 167/3/2 171/3/2
f 164/4/2 165/4/2 172/4/2
f 172/4/2 165/4/2 173/4/2
f 172/5/2 173/5/2 174/5/2
f 174/5/2 173/5/2 175/5/2
f 176/5/2 177/5/2 178/5/2
f 178/5/2 177/5/2 179/5/2
f 178/2/2 179/2/2 183/2/2
f 183/2/2 179/2/2 184/2/2
f 181/5/2 182/5/2 185/5/2
f 180/5/2 181/5/2 185/5/2
f 183/5/2 184/5/2 187/5/2
f 187/5/2 184/5/2 188/5/2
f 185/5/2 186/5/2 189/5/2
f 180/5/2 185/5/2 189/5/2
f 189/5/2 186/5/2 190/5/2
f 187/2/2 188/2/2 191/2/2
f 191/2/2 188/2/2 192/2/2
f 180/5/2 189/5/2 193/5/2
f 189/2/2 190/2/2 193/2/2
f 190/5/2 186/5/2 194/5/2
f 193/2/2 190/2/2 194/2/2
f 194/5/2 186/5/2 195/5/2
f 191/5/2 192/5/2 196/5/2
f 180/5/2 193/5/2 197/5/2
f 195/5/2 196/5/2 197/5/2
f 194/5/2 195/5/2 197/5/2
f 193/5/2 194/5/2 197/5/2
f 196/5/2 192/5/2 198/5/2
f 197/5/2 196/5/2 198/5/2
f 203/7/2 204/7/2 205/7/2
f 205/7/2 204/7/2 206/7/2
f 199/4/2 200/4/2 207/4/2
f 201/4/2 202/4/2 208/4/2
f 199/4/2 207/4/2 210/4/2
f 207/4/2 208/4/2 210/4/2
f 208/4/2 202/4/2 211/4/2
f 210/4/2 208/4/2 211/4/2
f 211/4/2 202/4/2 212/4/2
f 209/5/2 210/5/2 213/5/2
f 213/5/2 210/5/2 214/5/2
f 211/5/2 212/5/2 215/5/2
f 215/5/2 212/5/2 216/5/2
f 213/2/2 214/2/2 218/2/2
f 218/2/2 214/2/2 219/2/2
f 216/5/2 217/5/2 222/5/2
f 222/5/2 217/5/2 223/5/2
f 219/5/2 220/5/2 224/5/2
f 218/5/2 219/5/2 224/5/2
f 224/5/2 220/5/2 225/5/2
f 225/5/2 220/5/2 226/5/2
f 221/5/2 222/5/2 227/5/2
f 224/2/2 225/2/2 228/2/2
f 225/5/2 226/5/2 229/5/2
f 228/2/2 225/2/2 229/2/2
f 226/5/2 227/5/2 229/5/2
f 229/5/2 227/5/2 230/5/2
f 227/5/2 222/5/2 231/5/2
f 230/5/2 227/5/2 231/5/2
f 230/2/2 231/2/2 232/2/2
f 231/5/2 222/5/2 233/5/2
f 232/2/2 231/2/2 233/2/2
f 233/5/2 222/5/2 234/5/2
f 234/5/2 222/5/2 235/5/2
f 236/5/2 237/5/2 238/5/2
f 236/5/2 238/5/2 240/5/2
f 238/5/2 239/5/2 240/5/2
f 240/5/2 239/5/2 241/5/2
f 241/5/2 239/5/2 242/5/2
f 242/5/2 239/5/2 243/5/2
f 241/5/2 242/5/2 244/5/2
f 244/5/2 242/5/2 245/5/2
f 248/7/3 247/7/3 246/7/3
f 249/7/3 247/7/3 248/7/3
f 253/7/3 251/7/3 250/7/3
f 254/7/3 251/7/3 253/7/3
f 256/7/3 253/7/3 252/7/3
f 257/7/3 253/7/3 256/7/3
f 258/7/3 255/7/3 254/7/3
f 259/7/3 255/7/3 258/7/3
f 260/7/3 258/7/3 257/7/3
f 261/7/3 258/7/3 260/7/3
f 267/5/3 263/5/3 262/5/3
f 268/5/3 263/5/3 267/5/3
f 270/5/3 265/5/3 264/5/3
f 271/5/3 270/5/3 269/5/3
f 272/5/3 265/5/3 270/5/3
f 272/5/3 270/5/3 271/5/3
f 273/2/3 266/2/3 265/2/3
f 273/5/3 265/5/3 272/5/3
f 274/5/3 267/5/3 266/5/3
f 274/2/3 266/2/3 273/2/3
f 275/2/3 268/2/3 267/2/3
f 275/5/3 267/5/3 274/5/3
f 276/2/3 268/2/3 275/2/3
f 277/2/3 268/2/3 276/2/3
f 278/5/3 273/5/3 272/5/3
f 278/5/3 274/5/3 273/5/3
f 278/5/3 276/5/3 275/5/3
f 278/5/3 275/5/3 274/5/3
f 279/5/3 276/5/3 278/5/3
f 280/5/3 276/5/3 279/5/3
f 281/5/3 271/5/3 269/5/3
f 282/2/3 272/2/3 271/2/3
f 282/5/3 271/5/3 281/5/3
f 283/5/3 278/5/3 272/5/3
f 283/2/3 272/2/3 282/2/3
f 284/2/3 279/2/3 278/2/3
f 284/5/3 278/5/3 283/5/3
f 285/2/3 279/2/3 284/2/3
f 292/5/3 287/5/3 286/5/3
f 293/5/3 287/5/3 292/5/3
f 294/5/3 289/5/3 288/5/3
f 295/5/3 289/5/3 294/5/3
f 297/5/3 291/5/3 290/5/3
f 298/5/3 291/5/3 297/5/3
f 299/2/3 295/2/3 294/2/3
f 300/2/3 295/2/3 299/2/3
f 302/4/3 297/4/3 296/4/3
f 303/4/3 297/4/3 302/4/3
f 304/4/3 297/4/3 303/4/3
f 305/4/3 302/4/3 301/4/3
f 307/4/3 297/4/3 304/4/3
f 308/4/3 306/4/3 305/4/3
f 308/4/3 307/4/3 306/4/3
f 308/4/3 305/4/3 301/4/3
f 309/4/3 297/4/3 307/4/3
f 309/4/3 307/4/3 308/4/3
f 312/5/3 311/5/3 310/5/3
f 312/5/3 310/5/3 309/5/3
f 313/5/3 311/5/3 312/5/3
f 318/5/3 315/5/3 314/5/3
f 319/5/3 315/5/3 318/5/3
f 320/5/3 317/5/3 316/5/3
f 321/5/3 317/5/3 320/5/3
f 326/2/3 323/2/3 322/2/3
f 327/2/3 323/2/3 326/2/3
f 328/5/3 325/5/3 324/5/3
f 329/5/3 325/5/3 328/5/3
f 332/5/3 331/5/3 330/5/3
f 333/5/3 331/5/3 332/5/3
f 336/4/3 335/4/3 334/4/3
f 341/4/3 338/4/3 337/4/3
f 341/4/3 336/4/3 334/4/3
f 341/4/3 337/4/3 336/4/3
f 342/4/3 338/4/3 341/4/3
f 343/5/3 340/5/3 339/5/3
f 344/5/3 340/5/3 343/5/3
f 347/4/3 346/4/3 345/4/3
f 348/4/3 346/4/3 347/4/3
f 349/4/3 346/4/3 348/4/3
f 350/4/3 346/4/3 349/4/3
f 353/3/3 352/3/3 351/3/3
f 354/3/3 352/3/3 353/3/3
f 355/7/4 356/7/4 358/7/4
f 358/7/4 356/7/4 359/7/4
f 357/7/4 358/7/4 361/7/4
f 361/7/4 358/7/4 362/7/4
f 359/7/4 360/7/4 363/7/4
f 363/7/4 360/7/4 364/7/4
f 362/7/4 363/7/4 365/7/4
f 365/7/4 363/7/4 366/7/4
f 367/4/4 368/4/4 370/4/4
f 370/4/4 368/4/4 371/4/4
f 371/4/4 368/4/4 372/4/4
f 369/4/4 370/4/4 373/4/4
f 369/4/4 373/4/4 376/4/4
f 374/4/4 375/4/4 376/4/4
f 373/4/4 374/4/4 376/4/4
f 376/4/4 375/4/4 377/4/4
f 378/5/4 379/5/4 380/5/4
f 380/5/4 379/5/4 381/5/4
f 382/5/4 383/5/4 386/5/4
f 386/5/4 383/5/4 387/5/4
f 384/5/4 385/5/4 388/5/4
f 388/5/4 385/5/4 389/5/4
f 390/5/4 391/5/4 392/5/4
f 392/5/4 391/5/4 393/5/4
f 394/4/4 395/4/4 396/4/4
f 394/4/4 396/4/4 406/4/4
f 396/4/4 397/4/4 406/4/4
f 397/4/4 398/4/4 406/4/4
f 398/5/4 399/5/4 407/5/4
f 406/4/4 398/4/4 407/4/4
f 407/5/4 399/5/4 408/5/4
f 404/5/4 405/5/4 409/5/4
f 403/5/4 404/5/4 409/5/4
f 402/5/4 403/5/4 409/5/4
f 401/5/4 402/5/4 409/5/4
f 400/5/4 401/5/4 409/5/4
f 409/5/4 405/5/4 410/5/4
f 408/5/4 409/5/4 411/5/4
f 411/5/4 409/5/4 412/5/4
f 413/5/4 414/5/4 417/5/4
f 417/5/4 414/5/4 418/5/4
f 418/5/4 414/5/4 419/5/4
f 419/5/4 414/5/4 420/5/4
f 420/5/4 414/5/4 421/5/4
f 415/5/4 416/5/4 423/5/4
f 423/5/4 416/5/4 424/5/4
f 417/5/4 418/5/4 425/5/4
f 425/5/4 418/5/4 426/5/4
f 419/5/4 420/5/4 427/5/4
f 427/5/4 420/5/4 428/5/4
f 422/4/4 423/4/4 429/4/4
f 429/4/4 423/4/4 430/4/4
f 430/4/4 423/4/4 431/4/4
f 430/4/4 431/4/4 439/4/4
f 431/5/4 432/5/4 440/5/4
f 439/4/4 431/4/4 440/4/4
f 432/5/4 433/5/4 440/5/4
f 440/5/4 433/5/4 441/5/4
f 441/5/4 433/5/4 442/5/4
f 433/2/4 434/2/4 443/2/4
f 442/5/4 433/5/4 443/5/4
f 434/5/4 435/5/4 444/5/4
f 443/2/4 434/2/4 444/2/4
f 435/2/4 436/2/4 445/2/4
f 444/5/4 435/5/4 445/5/4
f 437/5/4 438/5/4 446/5/4
f 445/2/4 436/2/4 446/2/4
f 436/5/4 437/5/4 446/5/4
f 446/5/4 438/5/4 447/5/4
f 441/5/4 442/5/4 448/5/4
f 448/5/4 442/5/4 449/5/4
f 450/2/4 451/2/4 458/2/4
f 451/5/4 452/5/4 459/5/4
f 458/2/4 451/2/4 459/2/4
f 459/5/4 452/5/4 460/5/4
f 452/2/4 453/2/4 461/2/4
f 460/5/4 452/5/4 461/5/4
f 453/5/4 454/5/4 462/5/4
f 461/2/4 453/2/4 462/2/4
f 462/5/4 454/5/4 463/5/4
f 455/5/4 456/5/4 464/5/4
f 457/5/4 458/5/4 467/5/4
f 459/2/4 460/2/4 468/2/4
f 467/5/4 458/5/4 468/5/4
f 458/2/4 459/2/4 468/2/4
f 462/5/4 463/5/4 469/5/4
f 468/2/4 460/2/4 469/2/4
f 460/5/4 461/5/4 469/5/4
f 461/5/4 462/5/4 469/5/4
f 463/2/4 464/2/4 470/2/4
f 469/5/4 463/5/4 470/5/4
f 464/5/4 456/5/4 471/5/4
f 470/2/4 464/2/4 471/2/4
f 471/5/4 456/5/4 472/5/4
f 465/3/4 466/3/4 473/3/4
f 473/3/4 466/3/4 474/3/4
f 475/3/4 476/3/4 477/3/4
f 477/3/4 476/3/4 478/3/4
f 481/7/5 480/7/5 479/7/5
f 482/7/5 480/7/5 481/7/5
f 485/4/5 484/4/5 483/4/5
f 486/4/5 484/4/5 485/4/5
f 489/4/5 488/4/5 487/4/5
f 490/4/5 488/4/5 489/4/5
f 494/7/5 492/7/5 491/7/5
f 495/7/5 492/7/5 494/7/5
f 497/7/5 494/7/5 493/7/5
f 498/7/5 494/7/5 497/7/5
f 499/7/5 496/7/5 495/7/5
f 500/7/5 496/7/5 499/7/5
f 501/7/5 499/7/5 498/7/5
f 502/7/5 499/7/5 501/7/5
f 504/1/5 502/1/5 501/1/5
f 505/1/5 502/1/5 504/1/5
f 506/4/5 504/4/5 503/4/5
f 507/4/5 504/4/5 506/4/5
f 509/5/5 508/5/5 507/5/5
f 510/5/5 508/5/5 509/5/5
f 514/4/5 512/4/5 511/4/5
f 515/7/5 513/7/5 512/7/5
f 515/4/5 512/4/5 514/4/5
f 516/7/5 513/7/5 515/7/5
f 517/3/5 516/3/5 515/3/5
f 518/3/5 516/3/5 517/3/5
f 521/3/5 520/3/5 519/3/5
f 522/3/5 520/3/5 521/3/5
f 526/4/5 524/4/5 523/4/5
f 527/4/5 524/4/5 526/4/5
f 529/4/5 526/4/5 525/4/5
f 529/4/5 528/4/5 527/4/5
f 529/4/5 527/4/5 526/4/5
f 530/4/5 528/4/5 529/4/5
f 531/4/5 529/4/5 525/4/5
f 532/4/5 529/4/5 531/4/5
f 536/5/5 534/5/5 533/5/5
f 537/5/5 534/5/5 536/5/5
f 539/5/5 538/5/5 537/5/5
f 540/5/5 538/5/5 539/5/5
f 541/5/5 536/5/5 535/5/5
f 542/5/5 536/5/5 541/5/5
f 544/5/5 543/5/5 542/5/5
f 545/5/5 543/5/5 544/5/5
f 549/5/5 547/5/5 546/5/5
f 550/5/5 547/5/5 549/5/5
f 553/5/5 549/5/5 548/5/5
f 554/5/5 549/5/5 553/5/5
f 555/2/5 552/2/5 551/2/5
f 556/2/5 552/2/5 555/2/5
f 559/5/5 558/5/5 557/5/5
f 560/5/5 558/5/5 559/5/5
f 563/5/5 562/5/5 561/5/5
f 564/5/5 562/5/5 563/5/5
f 567/5/5 566/5/5 565/5/5
f 568/5/5 566/5/5 567/5/5
f 571/5/5 570/5/5 569/5/5
f 572/5/5 570/5/5 571/5/5
f 575/5/5 574/5/5 573/5/5
f 576/5/5 574/5/5 575/5/5
f 579/5/5 578/5/5 577/5/5
f 580/5/5 578/5/5 579/5/5
f 583/5/5 582/5/5 581/5/5
f 584/5/5 582/5/5 583/5/5
f 585/7/6 586/7/6 588/7/6
f 588/7/6 586/7/6 589/7/6
f 587/7/6 588/7/6 591/7/6
f 591/7/6 588/7/6 592/7/6
f 589/7/6 590/7/6 593/7/6
f 593/7/6 590/7/6 594/7/6
f 592/7/6 593/7/6 595/7/6
f 595/7/6 593/7/6 596/7/6
f 595/1/6 596/1/6 597/1/6
f 597/1/6 596/1/6 598/1/6
f 597/1/6 598/1/6 599/1/6
f 599/1/6 598/1/6 600/1/6
f 599/5/6 600/5/6 601/5/6
f 601/5/6 600/5/6 602/5/6
f 601/7/6 602/7/6 603/7/6
f 603/7/6 602/7/6 604/7/6
f 605/3/6 606/3/6 607/3/6
f 607/3/6 606/3/6 608/3/6
f 609/7/6 610/7/6 611/7/6
f 611/7/6 610/7/6 612/7/6
f 613/3/6 614/3/6 615/3/6
f 615/3/6 614/3/6 616/3/6
f 617/5/6 618/5/6 619/5/6
f 619/5/6 618/5/6 620/5/6
f 621/5/6 622/5/6 624/5/6
f 624/5/6 622/5/6 625/5/6
f 623/5/6 624/5/6 626/5/6
f 626/5/6 624/5/6 627/5/6
f 628/5/6 629/5/6 630/5/6
f 630/5/6 629/5/6 631/5/6
f 632/2/6 633/2/6 634/2/6
f 634/2/6 633/2/6 635/2/6
f 634/5/6 635/5/6 636/5/6
f 636/5/6 635/5/6 637/5/6
f 638/5/6 639/5/6 642/5/6
f 642/5/6 639/5/6 643/5/6
f 640/2/6 641/2/6 644/2/6
f 644/2/6 641/2/6 645/2/6
f 646/5/6 647/5/6 648/5/6
f 648/5/6 647/5/6 649/5/6
f 650/5/6 651/5/6 652/5/6
f 652/5/6 651/5/6 653/5/6
f 654/5/6 655/5/6 656/5/6
f 656/5/6 655/5/6 657/5/6
f 657/5/6 655/5/6 658/5/6
f 658/5/6 655/5/6 659/5/6
f 660/5/6 661/5/6 663/5/6
f 661/2/6 662/2/6 664/2/6
f 663/5/6 661/5/6 664/5/6
f 664/2/6 662/2/6 665/2/6
f 665/2/6 662/2/6 666/2/6
f 665/6/6 666/6/6 667/6/6
f 667/6/6 666/6/6 668/6/6
f 668/6/6 666/6/6 669/6/6
f 668/5/6 669/5/6 671/5/6
f 670/5/6 671/5/6 672/5/6
f 671/5/6 669/5/6 673/5/6
f 672/5/6 671/5/6 673/5/6
f 674/5/6 675/5/6 677/5/6
f 675/2/6 676/2/6 678/2/6
f 677/5/6 675/5/6 678/5/6
f 678/2/6 676/2/6 679/2/6
f 678/5/6 679/5/6 680/5/6
f 680/5/6 679/5/6 681/5/6
f 682/5/6 683/5/6 684/5/6
f 684/5/6 683/5/6 685/5/6
