# MagicaVoxel @ Ephtracy

# group
o 

# material
mtllib vrach2-1.mtl
usemtl palette

# normals
vn -1 0 0
vn 1 0 0
vn 0 0 1
vn 0 0 -1
vn 0 -1 0
vn 0 1 0

# texcoords
vt 0.673828 0.5
vt 0.693359 0.5
vt 0.705078 0.5
vt 0.736328 0.5
vt 0.798828 0.5
vt 0.830078 0.5
vt 0.849609 0.5
vt 0.853516 0.5
vt 0.857422 0.5
vt 0.865234 0.5
vt 0.896484 0.5
vt 0.919922 0.5
vt 0.927734 0.5
vt 0.958984 0.5
vt 0.970703 0.5
vt 0.978516 0.5
vt 0.982422 0.5

# verts
v -0.6 -1.4 0.2
v -0.6 -1.4 -0.4
v -0.6 -1.3 0.2
v -0.6 -1.3 -0.4
v -0.6 -1.2 0.2
v -0.6 -1.2 0.1
v -0.6 -1.2 -0.3
v -0.6 -1.2 -0.4
v -0.6 -1.1 0.2
v -0.6 -1.1 0.1
v -0.6 -1.1 -0.3
v -0.6 -1.1 -0.4
v -0.6 -1 0.2
v -0.6 -1 0.1
v -0.6 -1 -0.3
v -0.6 -1 -0.4
v -0.6 -0.9 -0.1
v -0.6 -0.9 -0.2
v -0.6 -0.8 0.1
v -0.6 -0.8 0
v -0.6 -0.8 -0.1
v -0.6 -0.8 -0.2
v -0.6 -0.8 -0.3
v -0.6 -0.7 0
v -0.6 -0.7 -0.2
v -0.6 0.1 0.1
v -0.6 0.1 -0.1
v -0.6 0.2 0.2
v -0.6 0.2 0.1
v -0.6 0.2 -0.1
v -0.6 0.2 -0.2
v -0.6 0.3 0.2
v -0.6 0.3 0.1
v -0.6 0.3 -0.2
v -0.6 0.3 -0.3
v -0.6 0.4 0.2
v -0.6 0.4 0.1
v -0.6 0.5 0
v -0.6 0.5 -0.1
v -0.6 0.5 -0.2
v -0.6 0.5 -0.3
v -0.6 0.6 0.2
v -0.6 0.6 0.1
v -0.6 0.6 0
v -0.6 0.6 -0.1
v -0.6 0.6 -0.2
v -0.6 0.7 0.2
v -0.6 0.7 0.1
v -0.6 0.7 -0.1
v -0.5 -1.4 0.3
v -0.5 -1.4 0.2
v -0.5 -1.3 0.3
v -0.5 -1.3 0.2
v -0.5 -1.2 0.2
v -0.5 -1.1 0.2
v -0.5 -1 0.3
v -0.5 -1 0.2
v -0.5 -1 0.1
v -0.5 -1 -0.3
v -0.5 -1 -0.4
v -0.5 -0.9 0.3
v -0.5 -0.9 0.2
v -0.5 -0.8 0.3
v -0.5 -0.8 0.2
v -0.5 -0.8 0.1
v -0.5 -0.8 0
v -0.5 -0.8 -0.2
v -0.5 -0.8 -0.3
v -0.5 -0.8 -0.4
v -0.5 -0.7 0.3
v -0.5 -0.7 0.2
v -0.5 -0.7 0
v -0.5 -0.7 -0.1
v -0.5 -0.7 -0.2
v -0.5 -0.6 0.2
v -0.5 -0.6 0.1
v -0.5 -0.6 0
v -0.5 -0.6 -0.1
v -0.5 -0.6 -0.2
v -0.5 -0.6 -0.3
v -0.5 -0.5 0.2
v -0.5 -0.5 0.1
v -0.5 -0.3 0.3
v -0.5 -0.3 0.2
v -0.5 -0.2 0.3
v -0.5 -0.2 0.2
v -0.5 -0.2 0.1
v -0.5 -0.2 0
v -0.5 -0.1 0.1
v -0.5 -0.1 0
v -0.5 0 -0.2
v -0.5 0 -0.3
v -0.5 0.1 0.3
v -0.5 0.1 0.2
v -0.5 0.1 0.1
v -0.5 0.1 -0.1
v -0.5 0.1 -0.2
v -0.5 0.1 -0.3
v -0.5 0.2 0.2
v -0.5 0.2 -0.1
v -0.5 0.2 -0.2
v -0.5 0.3 0.2
v -0.5 0.3 0.1
v -0.5 0.4 0.2
v -0.5 0.4 0.1
v -0.5 0.5 -0.2
v -0.5 0.5 -0.3
v -0.5 0.6 0.3
v -0.5 0.6 0.2
v -0.5 0.6 -0.1
v -0.5 0.6 -0.2
v -0.5 0.6 -0.3
v -0.5 0.7 0.2
v -0.5 0.7 0.1
v -0.5 0.7 -0.1
v -0.5 0.7 -0.2
v -0.5 0.8 0.2
v -0.5 0.8 0.1
v -0.4 -1.4 0.4
v -0.4 -1.4 0.3
v -0.4 -1.3 0.4
v -0.4 -1.3 0.3
v -0.4 -1 0.3
v -0.4 -0.9 0.3
v -0.4 -0.8 0.3
v -0.4 -0.8 -0.3
v -0.4 -0.8 -0.4
v -0.4 -0.7 0.3
v -0.4 -0.7 -0.3
v -0.4 -0.7 -0.4
v -0.4 -0.6 -0.2
v -0.4 -0.6 -0.3
v -0.4 -0.3 0.3
v -0.4 -0.3 -0.2
v -0.4 -0.3 -0.3
v -0.4 -0.2 0.4
v -0.4 -0.2 0.3
v -0.4 -0.2 0.2
v -0.4 -0.2 -0.2
v -0.4 -0.2 -0.3
v -0.4 0 0.3
v -0.4 0 0.2
v -0.4 0 -0.2
v -0.4 0 -0.3
v -0.4 0.1 0.3
v -0.4 0.1 0.2
v -0.4 0.1 0
v -0.4 0.1 -0.2
v -0.4 0.1 -0.3
v -0.4 0.2 0.2
v -0.4 0.2 0.1
v -0.4 0.2 0
v -0.4 0.2 -0.2
v -0.4 0.2 -0.3
v -0.4 0.3 0.2
v -0.4 0.3 0.1
v -0.4 0.3 -0.2
v -0.4 0.3 -0.3
v -0.4 0.4 0.2
v -0.4 0.4 0.1
v -0.4 0.5 0.2
v -0.4 0.5 0.1
v -0.4 0.6 0.3
v -0.4 0.6 0.2
v -0.4 0.6 0
v -0.4 0.6 -0.1
v -0.4 0.7 0.1
v -0.4 0.7 0
v -0.4 0.7 -0.1
v -0.4 0.8 0.2
v -0.4 0.8 0.1
v -0.4 0.8 0
v -0.4 0.9 0.2
v -0.4 0.9 0.1
v -0.4 1 0.3
v -0.4 1 0.2
v -0.3 -1.1 0.2
v -0.3 -1.1 0.1
v -0.3 -1.1 -0.1
v -0.3 -1.1 -0.2
v -0.3 -0.8 0.2
v -0.3 -0.8 0.1
v -0.3 -0.8 -0.1
v -0.3 -0.8 -0.2
v -0.3 -0.4 0.3
v -0.3 -0.4 0.2
v -0.3 -0.3 0.3
v -0.3 -0.3 0.2
v -0.3 -0.1 0.4
v -0.3 -0.1 0.3
v -0.3 0 0.4
v -0.3 0 0.3
v -0.3 0.7 0
v -0.3 0.7 -0.1
v -0.3 0.7 -0.2
v -0.3 0.8 0.1
v -0.3 0.8 0
v -0.3 0.8 -0.2
v -0.3 0.9 0.2
v -0.3 0.9 0.1
v -0.3 0.9 0
v -0.3 1 0.3
v -0.3 1 0.2
v -0.3 1 0.1
v -0.3 1.1 0.3
v -0.3 1.1 0.2
v -0.3 1.1 0.1
v -0.3 1.2 0.3
v -0.3 1.2 0.2
v -0.2 -0.5 0.3
v -0.2 -0.5 0.2
v -0.2 -0.4 0.3
v -0.2 -0.4 0.2
v -0.2 -0.2 0.4
v -0.2 -0.2 0.3
v -0.2 -0.1 0.4
v -0.2 -0.1 0.3
v -0.2 0.8 0
v -0.2 0.8 -0.1
v -0.2 0.9 0.1
v -0.2 0.9 0
v -0.2 0.9 -0.1
v -0.2 1 0.1
v -0.2 1 0
v -0.2 1.1 0.2
v -0.2 1.1 0.1
v -0.2 1.1 0
v -0.2 1.2 0.3
v -0.2 1.2 0.2
v -0.2 1.3 0.3
v -0.2 1.3 0.2
v -0.2 1.3 0.1
v -0.2 1.3 0
v -0.2 1.4 0.3
v -0.2 1.4 0.1
v -0.1 0.4 0.3
v -0.1 0.4 0.2
v -0.1 0.5 0.3
v -0.1 0.5 0.2
v -0.1 0.9 0
v -0.1 0.9 -0.1
v -0.1 1 0
v -0.1 1 -0.1
v -0.1 1.1 0
v -0.1 1.1 -0.1
v -0.1 1.3 0.1
v -0.1 1.3 0
v -0.1 1.4 0.3
v -0.1 1.4 0.1
v -0.1 1.4 0
v -0.1 1.5 0.3
v -0.1 1.5 0.1
v -5.96046e-08 0.8 -0.1
v -5.96046e-08 0.8 -0.2
v -5.96046e-08 0.9 -0.1
v -5.96046e-08 0.9 -0.2
v -5.96046e-08 1 -0.1
v -5.96046e-08 1.1 0
v -5.96046e-08 1.1 -0.1
v -5.96046e-08 1.1 -0.2
v -5.96046e-08 1.2 0
v -5.96046e-08 1.2 -0.1
v 0.1 -0.4 0.3
v 0.1 -0.4 0.2
v 0.1 -0.3 0.4
v 0.1 -0.3 0.3
v 0.1 -0.3 0.2
v 0.1 -0.2 0.4
v 0.1 -0.2 0.3
v 0.1 -0.2 0.2
v 0.1 -0.1 0.3
v 0.1 -0.1 0.2
v 0.1 0.3 -0.2
v 0.1 0.3 -0.3
v 0.1 0.4 -0.2
v 0.1 0.4 -0.3
v 0.1 0.5 -0.2
v 0.1 0.5 -0.3
v 0.2 -0.5 0.3
v 0.2 -0.5 0.2
v 0.2 -0.4 0.4
v 0.2 -0.4 0.3
v 0.2 -0.4 0.2
v 0.2 -0.3 0.4
v 0.2 -0.3 0.3
v 0.2 -0.2 0.4
v 0.2 -0.2 0.3
v 0.2 -0.1 0.4
v 0.2 -0.1 0.3
v 0.2 -0.1 0.2
v 0.2 0 0.3
v 0.2 0 0.2
v 0.2 0.1 0.3
v 0.2 0.1 0.2
v 0.2 0.2 0.3
v 0.2 0.2 0.2
v 0.2 0.5 -0.2
v 0.2 0.5 -0.3
v 0.2 0.6 -0.2
v 0.2 0.6 -0.3
v 0.3 -1.4 0.4
v 0.3 -1.4 0.3
v 0.3 -0.5 0.3
v 0.3 -0.4 0.4
v 0.3 -0.4 0.3
v 0.3 0 0.3
v 0.3 0 0.2
v 0.3 0.1 0.3
v 0.3 0.1 0.2
v 0.4 0.4 0.3
v 0.4 0.4 0.2
v 0.4 0.5 0.3
v 0.4 0.5 0.2
v 0.5 -1.4 0.3
v 0.5 -1.4 0
v 0.5 -1.3 0.3
v 0.5 -1.3 0
v 0.5 -1.2 0.3
v 0.5 -1.2 0.2
v 0.5 -1.1 0.3
v 0.5 -1.1 0.2
v 0.5 -1.1 0
v 0.5 -1.1 -0.3
v 0.5 -1 0.3
v 0.5 -0.9 0.3
v 0.5 -0.8 0.2
v 0.5 -0.8 0.1
v 0.5 -0.8 -0.2
v 0.5 -0.8 -0.3
v 0.5 -0.5 0.3
v 0.5 -0.5 0.2
v 0.5 -0.4 0.3
v 0.5 -0.4 0.2
v 0.5 -0.3 0.3
v 0.5 -0.3 0.2
v 0.6 -1.4 0
v 0.6 -1.4 -0.3
v 0.6 -1.3 0
v 0.6 -1.3 -0.3
v 0.6 -1.2 -0.1
v 0.6 -1.2 -0.2
v 0.6 -1.1 0
v 0.6 -1.1 -0.1
v 0.6 -1.1 -0.2
v 0.6 -1.1 -0.3
v -0.5 -1.4 0.1
v -0.5 -1.4 -0.3
v -0.5 -1.3 0.1
v -0.5 -1.3 -0.3
v -0.5 -1.1 0.1
v -0.5 -1.1 -0.3
v -0.5 0.1 0.1
v -0.5 0.1 0
v -0.5 0.2 0.2
v -0.5 0.2 0.1
v -0.5 0.2 0
v -0.5 0.3 0.2
v -0.5 0.3 0.1
v -0.5 0.4 0.2
v -0.5 0.4 0.1
v -0.5 0.5 0.2
v -0.5 0.5 0.1
v -0.5 0.6 0
v -0.5 0.6 -0.1
v -0.5 0.7 0
v -0.5 0.7 -0.1
v -0.4 -1.4 0.3
v -0.4 -1.4 0.1
v -0.4 -1.3 0.3
v -0.4 -1.3 0.1
v -0.4 -1.1 0.1
v -0.4 -1.1 -0.3
v -0.4 -1 0.3
v -0.4 -1 0.2
v -0.4 -0.9 0.3
v -0.4 -0.9 0.2
v -0.4 -0.9 -0.3
v -0.4 -0.8 0.3
v -0.4 -0.8 0.2
v -0.4 -0.8 0.1
v -0.4 -0.8 -0.1
v -0.4 -0.8 -0.2
v -0.4 -0.8 -0.3
v -0.4 -0.7 0.3
v -0.4 -0.7 0.2
v -0.4 -0.3 0.3
v -0.4 -0.3 0.2
v -0.3 0.4 0.3
v -0.3 0.4 0.2
v -0.3 0.5 0.3
v -0.3 0.5 0.2
v -0.2 -1.4 0.4
v -0.2 -1.4 0.3
v -0.2 -0.5 0.3
v -0.2 -0.4 0.4
v -0.2 -0.4 0.3
v -0.2 -0.1 0.4
v -0.2 -0.1 0.3
v -0.2 0 0.4
v -0.2 0 0.3
v -0.2 0 0.2
v -0.2 0.1 0.3
v -0.2 0.1 0.2
v -0.1 -0.5 0.3
v -0.1 -0.5 0.2
v -0.1 -0.4 0.4
v -0.1 -0.4 0.3
v -0.1 -0.4 0.2
v -0.1 -0.3 0.4
v -0.1 -0.3 0.3
v -0.1 -0.2 0.4
v -0.1 -0.2 0.3
v -0.1 -0.1 0.4
v -0.1 -0.1 0.3
v -0.1 -0.1 0.2
v -0.1 0 0.3
v -0.1 0 0.2
v -0.1 0.1 0.3
v -0.1 0.1 0.2
v -0.1 0.2 0.3
v -0.1 0.2 0.2
v -0.1 0.5 -0.2
v -0.1 0.5 -0.3
v -0.1 0.6 -0.2
v -0.1 0.6 -0.3
v -5.96046e-08 -0.4 0.3
v -5.96046e-08 -0.4 0.2
v -5.96046e-08 -0.3 0.4
v -5.96046e-08 -0.3 0.3
v -5.96046e-08 -0.3 0.2
v -5.96046e-08 -0.2 0.4
v -5.96046e-08 -0.2 0.3
v -5.96046e-08 -0.2 0.2
v -5.96046e-08 -0.1 0.3
v -5.96046e-08 -0.1 0.2
v -5.96046e-08 0.3 -0.2
v -5.96046e-08 0.3 -0.3
v -5.96046e-08 0.4 -0.2
v -5.96046e-08 0.4 -0.3
v -5.96046e-08 0.5 -0.2
v -5.96046e-08 0.5 -0.3
v 0.1 0.8 -0.1
v 0.1 0.8 -0.2
v 0.1 0.9 -0.1
v 0.1 0.9 -0.2
v 0.1 1 -0.1
v 0.1 1.1 0
v 0.1 1.1 -0.1
v 0.1 1.1 -0.2
v 0.1 1.2 0
v 0.1 1.2 -0.1
v 0.2 0.4 0.3
v 0.2 0.4 0.2
v 0.2 0.5 0.3
v 0.2 0.5 0.2
v 0.2 0.9 0
v 0.2 0.9 -0.1
v 0.2 1 0
v 0.2 1 -0.1
v 0.2 1.1 0
v 0.2 1.1 -0.1
v 0.2 1.3 0.1
v 0.2 1.3 0
v 0.2 1.4 0.3
v 0.2 1.4 0.1
v 0.2 1.4 0
v 0.2 1.5 0.3
v 0.2 1.5 0.1
v 0.3 -0.5 0.3
v 0.3 -0.5 0.2
v 0.3 -0.4 0.3
v 0.3 -0.4 0.2
v 0.3 -0.2 0.4
v 0.3 -0.2 0.3
v 0.3 -0.1 0.4
v 0.3 -0.1 0.3
v 0.3 0.8 0.1
v 0.3 0.8 -0.1
v 0.3 0.9 0.2
v 0.3 0.9 0.1
v 0.3 0.9 0
v 0.3 0.9 -0.1
v 0.3 1 0.2
v 0.3 1 0.1
v 0.3 1 0
v 0.3 1.1 0.3
v 0.3 1.1 0.1
v 0.3 1.1 0
v 0.3 1.2 0.3
v 0.3 1.2 0.2
v 0.3 1.2 0.1
v 0.3 1.2 0
v 0.3 1.3 0.3
v 0.3 1.3 0.2
v 0.3 1.3 0.1
v 0.3 1.3 0
v 0.3 1.4 0.3
v 0.3 1.4 0.1
v 0.4 -1.1 0.2
v 0.4 -1.1 0.1
v 0.4 -1.1 -0.1
v 0.4 -1.1 -0.2
v 0.4 -0.8 0.2
v 0.4 -0.8 0.1
v 0.4 -0.8 -0.1
v 0.4 -0.8 -0.2
v 0.4 -0.4 0.3
v 0.4 -0.4 0.2
v 0.4 -0.3 0.3
v 0.4 -0.3 0.2
v 0.4 0.7 0.2
v 0.4 0.7 -0.1
v 0.4 0.7 -0.2
v 0.4 0.8 0.1
v 0.4 0.8 -0.2
v 0.4 0.9 0.3
v 0.4 0.9 0.2
v 0.4 0.9 0.1
v 0.4 1 0.3
v 0.4 1 0.2
v 0.4 1 0.1
v 0.4 1.1 0.3
v 0.4 1.1 0.1
v 0.5 -1.4 0.4
v 0.5 -1.4 0.3
v 0.5 -1.3 0.4
v 0.5 -1.3 0.3
v 0.5 -1.2 0.3
v 0.5 -1.1 0.3
v 0.5 -1 0.4
v 0.5 -1 0.3
v 0.5 -0.9 0.4
v 0.5 -0.9 0.3
v 0.5 -0.8 -0.3
v 0.5 -0.8 -0.4
v 0.5 -0.7 -0.3
v 0.5 -0.7 -0.4
v 0.5 -0.6 -0.2
v 0.5 -0.6 -0.3
v 0.5 -0.5 0.3
v 0.5 -0.4 0.3
v 0.5 -0.3 0.4
v 0.5 -0.3 0.3
v 0.5 -0.2 0.4
v 0.5 -0.2 0.3
v 0.5 -0.2 0.2
v 0.5 -0.2 -0.2
v 0.5 -0.2 -0.3
v 0.5 -0.1 -0.2
v 0.5 -0.1 -0.3
v 0.5 0 -0.2
v 0.5 0 -0.3
v 0.5 0.1 0.3
v 0.5 0.1 0.2
v 0.5 0.5 0.3
v 0.5 0.5 0.2
v 0.5 0.6 0.2
v 0.5 0.6 0.1
v 0.5 0.7 0.3
v 0.5 0.7 0.2
v 0.5 0.7 0.1
v 0.5 0.9 0.3
v 0.5 0.9 0.2
v 0.6 -1.4 0.3
v 0.6 -1.4 0.2
v 0.6 -1.3 0.3
v 0.6 -1.3 0.2
v 0.6 -1.2 0.3
v 0.6 -1.2 0.2
v 0.6 -1.1 0.3
v 0.6 -1.1 0.2
v 0.6 -1 0.2
v 0.6 -1 0.1
v 0.6 -1 -0.3
v 0.6 -1 -0.4
v 0.6 -0.9 -0.3
v 0.6 -0.9 -0.4
v 0.6 -0.8 0.1
v 0.6 -0.8 0
v 0.6 -0.8 -0.2
v 0.6 -0.8 -0.3
v 0.6 -0.8 -0.4
v 0.6 -0.7 0
v 0.6 -0.7 -0.2
v 0.6 -0.6 -0.2
v 0.6 -0.6 -0.3
v 0.6 -0.5 0.3
v 0.6 -0.5 0.2
v 0.6 -0.4 0.3
v 0.6 -0.4 0.2
v 0.6 -0.2 0.3
v 0.6 -0.2 0.2
v 0.6 0 -0.2
v 0.6 0 -0.3
v 0.6 0.1 0
v 0.6 0.1 -0.2
v 0.6 0.1 -0.3
v 0.6 0.2 0.2
v 0.6 0.2 0
v 0.6 0.4 0.2
v 0.6 0.4 0.1
v 0.6 0.4 -0.2
v 0.6 0.4 -0.3
v 0.6 0.5 0.3
v 0.6 0.5 0.2
v 0.6 0.5 0.1
v 0.6 0.5 -0.2
v 0.6 0.5 -0.3
v 0.6 0.6 0.2
v 0.6 0.6 -0.1
v 0.6 0.6 -0.2
v 0.6 0.7 0.3
v 0.6 0.7 0.2
v 0.6 0.7 -0.1
v 0.6 0.7 -0.2
v 0.7 -1.4 0.2
v 0.7 -1.4 -0.4
v 0.7 -1.3 0.2
v 0.7 -1.3 -0.4
v 0.7 -1.2 -0.1
v 0.7 -1.2 -0.2
v 0.7 -1.1 -0.1
v 0.7 -1.1 -0.2
v 0.7 -1 0.2
v 0.7 -1 0.1
v 0.7 -1 0
v 0.7 -1 -0.1
v 0.7 -1 -0.3
v 0.7 -1 -0.4
v 0.7 -0.9 0
v 0.7 -0.9 -0.1
v 0.7 -0.8 0.1
v 0.7 -0.8 0
v 0.7 -0.8 -0.2
v 0.7 -0.8 -0.3
v 0.7 -0.7 0
v 0.7 -0.7 -0.2
v 0.7 0.1 0
v 0.7 0.1 -0.3
v 0.7 0.2 0.2
v 0.7 0.2 0
v 0.7 0.3 -0.2
v 0.7 0.3 -0.3
v 0.7 0.4 0.2
v 0.7 0.4 0.1
v 0.7 0.4 -0.2
v 0.7 0.4 -0.3
v 0.7 0.5 0.2
v 0.7 0.5 0.1
v 0.7 0.5 -0.1
v 0.7 0.5 -0.2
v 0.7 0.5 -0.3
v 0.7 0.6 0.2
v 0.7 0.6 0.1
v 0.7 0.6 -0.1
v 0.7 0.6 -0.2
v 0.7 0.6 -0.3
v 0.7 0.7 0.1
v 0.7 0.7 -0.1
v -0.4 -1.4 0.4
v -0.4 -1.3 0.4
v -0.4 -0.2 0.4
v -0.3 -1.3 0.4
v -0.3 -0.2 0.4
v -0.3 -0.1 0.4
v -0.3 0 0.4
v -0.2 -1.4 0.4
v -0.2 -0.4 0.4
v -0.2 -0.2 0.4
v -0.2 -0.1 0.4
v -0.2 0 0.4
v -0.1 -0.4 0.4
v -0.1 -0.3 0.4
v -0.1 -0.2 0.4
v -0.1 -0.1 0.4
v -5.96046e-08 -0.3 0.4
v -5.96046e-08 -0.2 0.4
v 0.1 -0.3 0.4
v 0.1 -0.2 0.4
v 0.2 -0.4 0.4
v 0.2 -0.3 0.4
v 0.2 -0.2 0.4
v 0.2 -0.1 0.4
v 0.3 -1.4 0.4
v 0.3 -0.4 0.4
v 0.3 -0.2 0.4
v 0.3 -0.1 0.4
v 0.4 -1.3 0.4
v 0.4 -1 0.4
v 0.4 -0.9 0.4
v 0.4 -0.3 0.4
v 0.5 -1.4 0.4
v 0.5 -1.3 0.4
v 0.5 -1 0.4
v 0.5 -0.9 0.4
v 0.5 -0.3 0.4
v 0.5 -0.2 0.4
v -0.5 -1.4 0.3
v -0.5 -1.3 0.3
v -0.5 -1 0.3
v -0.5 -0.9 0.3
v -0.5 -0.8 0.3
v -0.5 -0.7 0.3
v -0.5 -0.3 0.3
v -0.5 -0.2 0.3
v -0.5 0.1 0.3
v -0.5 0.6 0.3
v -0.4 -1.4 0.3
v -0.4 -1.3 0.3
v -0.4 -1 0.3
v -0.4 -0.9 0.3
v -0.4 -0.8 0.3
v -0.4 -0.7 0.3
v -0.4 -0.3 0.3
v -0.4 -0.2 0.3
v -0.4 0 0.3
v -0.4 0.1 0.3
v -0.4 0.5 0.3
v -0.4 0.6 0.3
v -0.4 1 0.3
v -0.3 -0.2 0.3
v -0.3 -0.1 0.3
v -0.3 0 0.3
v -0.3 0.4 0.3
v -0.3 0.5 0.3
v -0.3 0.6 0.3
v -0.3 0.7 0.3
v -0.3 1 0.3
v -0.3 1.1 0.3
v -0.3 1.2 0.3
v -0.2 -0.5 0.3
v -0.2 -0.4 0.3
v -0.2 -0.2 0.3
v -0.2 -0.1 0.3
v -0.2 0 0.3
v -0.2 0.1 0.3
v -0.2 0.5 0.3
v -0.2 0.6 0.3
v -0.2 1.2 0.3
v -0.2 1.3 0.3
v -0.2 1.4 0.3
v -0.1 -0.5 0.3
v -0.1 -0.4 0.3
v -0.1 -0.3 0.3
v -0.1 -0.2 0.3
v -0.1 -0.1 0.3
v -0.1 0 0.3
v -0.1 0.1 0.3
v -0.1 0.2 0.3
v -0.1 0.4 0.3
v -0.1 0.5 0.3
v -0.1 1.1 0.3
v -0.1 1.2 0.3
v -0.1 1.3 0.3
v -0.1 1.4 0.3
v -0.1 1.5 0.3
v -5.96046e-08 -0.4 0.3
v -5.96046e-08 -0.3 0.3
v -5.96046e-08 -0.2 0.3
v -5.96046e-08 -0.1 0.3
v 0.1 -0.4 0.3
v 0.1 -0.3 0.3
v 0.1 -0.2 0.3
v 0.1 -0.1 0.3
v 0.2 -0.5 0.3
v 0.2 -0.4 0.3
v 0.2 -0.3 0.3
v 0.2 -0.2 0.3
v 0.2 -0.1 0.3
v 0.2 0 0.3
v 0.2 0.1 0.3
v 0.2 0.2 0.3
v 0.2 0.4 0.3
v 0.2 0.5 0.3
v 0.2 1.1 0.3
v 0.2 1.2 0.3
v 0.2 1.3 0.3
v 0.2 1.4 0.3
v 0.2 1.5 0.3
v 0.3 -0.5 0.3
v 0.3 -0.4 0.3
v 0.3 -0.2 0.3
v 0.3 -0.1 0.3
v 0.3 0 0.3
v 0.3 0.1 0.3
v 0.3 0.5 0.3
v 0.3 0.6 0.3
v 0.3 1.1 0.3
v 0.3 1.2 0.3
v 0.3 1.3 0.3
v 0.3 1.4 0.3
v 0.4 -0.2 0.3
v 0.4 -0.1 0.3
v 0.4 0.1 0.3
v 0.4 0.4 0.3
v 0.4 0.5 0.3
v 0.4 0.9 0.3
v 0.4 1 0.3
v 0.4 1.1 0.3
v 0.5 -1.4 0.3
v 0.5 -1.3 0.3
v 0.5 -1.2 0.3
v 0.5 -1.1 0.3
v 0.5 -1 0.3
v 0.5 -0.9 0.3
v 0.5 -0.5 0.3
v 0.5 -0.4 0.3
v 0.5 -0.3 0.3
v 0.5 -0.2 0.3
v 0.5 0.1 0.3
v 0.5 0.5 0.3
v 0.5 0.7 0.3
v 0.5 0.9 0.3
v 0.6 -1.4 0.3
v 0.6 -1.3 0.3
v 0.6 -1.2 0.3
v 0.6 -1.1 0.3
v 0.6 -0.5 0.3
v 0.6 -0.4 0.3
v 0.6 -0.2 0.3
v 0.6 0.5 0.3
v 0.6 0.7 0.3
v -0.6 -1.4 0.2
v -0.6 -1.3 0.2
v -0.6 -1.2 0.2
v -0.6 -1.1 0.2
v -0.6 -1 0.2
v -0.6 0.2 0.2
v -0.6 0.3 0.2
v -0.6 0.4 0.2
v -0.6 0.6 0.2
v -0.6 0.7 0.2
v -0.5 -1.4 0.2
v -0.5 -1.3 0.2
v -0.5 -1.2 0.2
v -0.5 -1.1 0.2
v -0.5 -1 0.2
v -0.5 -0.2 0.2
v -0.5 0.1 0.2
v -0.5 0.2 0.2
v -0.5 0.3 0.2
v -0.5 0.4 0.2
v -0.5 0.6 0.2
v -0.5 0.7 0.2
v -0.5 0.8 0.2
v -0.4 -0.8 0.2
v -0.4 -0.7 0.2
v -0.4 -0.3 0.2
v -0.4 -0.2 0.2
v -0.4 0 0.2
v -0.4 0.1 0.2
v -0.4 0.6 0.2
v -0.4 0.8 0.2
v -0.3 -1.1 0.2
v -0.3 -0.8 0.2
v -0.3 -0.6 0.2
v -0.3 -0.5 0.2
v -0.3 -0.4 0.2
v -0.3 -0.3 0.2
v -0.3 0.4 0.2
v -0.3 0.5 0.2
v -0.2 -1.1 0.2
v -0.2 -0.8 0.2
v -0.2 -0.7 0.2
v -0.2 -0.5 0.2
v -0.2 -0.4 0.2
v -0.2 0 0.2
v -0.2 0.1 0.2
v -0.2 0.4 0.2
v -0.2 0.5 0.2
v -0.1 -0.8 0.2
v -0.1 -0.7 0.2
v -0.1 -0.6 0.2
v -0.1 -0.5 0.2
v -0.1 -0.4 0.2
v -0.1 -0.1 0.2
v -0.1 0 0.2
v -0.1 0.1 0.2
v -0.1 0.2 0.2
v -0.1 0.4 0.2
v -0.1 0.5 0.2
v -5.96046e-08 -1.1 0.2
v -5.96046e-08 -1 0.2
v -5.96046e-08 -0.4 0.2
v -5.96046e-08 -0.3 0.2
v -5.96046e-08 -0.2 0.2
v -5.96046e-08 -0.1 0.2
v 0.1 -1.1 0.2
v 0.1 -1 0.2
v 0.1 -0.9 0.2
v 0.1 -0.4 0.2
v 0.1 -0.3 0.2
v 0.1 -0.2 0.2
v 0.1 -0.1 0.2
v 0.2 -1 0.2
v 0.2 -0.9 0.2
v 0.2 -0.6 0.2
v 0.2 -0.5 0.2
v 0.2 -0.4 0.2
v 0.2 -0.1 0.2
v 0.2 0 0.2
v 0.2 0.1 0.2
v 0.2 0.2 0.2
v 0.2 0.4 0.2
v 0.2 0.5 0.2
v 0.3 -1.1 0.2
v 0.3 -0.8 0.2
v 0.3 -0.5 0.2
v 0.3 -0.4 0.2
v 0.3 0 0.2
v 0.3 0.1 0.2
v 0.3 0.4 0.2
v 0.3 0.5 0.2
v 0.4 -1.1 0.2
v 0.4 -0.8 0.2
v 0.4 -0.6 0.2
v 0.4 -0.5 0.2
v 0.4 -0.4 0.2
v 0.4 -0.3 0.2
v 0.4 0.4 0.2
v 0.4 0.5 0.2
v 0.5 -0.8 0.2
v 0.5 -0.5 0.2
v 0.5 -0.4 0.2
v 0.5 -0.3 0.2
v 0.5 -0.2 0.2
v 0.5 0.1 0.2
v 0.5 0.5 0.2
v 0.6 -1.4 0.2
v 0.6 -1.3 0.2
v 0.6 -1.2 0.2
v 0.6 -1.1 0.2
v 0.6 -1 0.2
v 0.6 -0.2 0.2
v 0.6 0.2 0.2
v 0.6 0.4 0.2
v 0.6 0.5 0.2
v 0.6 0.6 0.2
v 0.7 -1.4 0.2
v 0.7 -1.3 0.2
v 0.7 -1 0.2
v 0.7 0.2 0.2
v 0.7 0.4 0.2
v 0.7 0.5 0.2
v 0.7 0.6 0.2
v -0.6 -1 0.1
v -0.6 -0.8 0.1
v -0.6 0.1 0.1
v -0.6 0.2 0.1
v -0.6 0.3 0.1
v -0.6 0.4 0.1
v -0.5 -1 0.1
v -0.5 -0.8 0.1
v -0.5 0.1 0.1
v -0.5 0.2 0.1
v -0.5 0.3 0.1
v -0.5 0.4 0.1
v -0.5 0.5 0.1
v -0.4 0.2 0.1
v -0.4 0.3 0.1
v -0.4 0.4 0.1
v -0.4 0.5 0.1
v 0.5 0.6 0.1
v 0.5 0.7 0.1
v 0.6 -1 0.1
v 0.6 -0.8 0.1
v 0.6 0.4 0.1
v 0.6 0.5 0.1
v 0.6 0.6 0.1
v 0.7 -1 0.1
v 0.7 -0.8 0.1
v 0.7 0.4 0.1
v 0.7 0.5 0.1
v 0.7 0.6 0.1
v 0.7 0.7 0.1
v -0.6 -0.8 0
v -0.6 -0.7 0
v -0.5 -0.8 0
v -0.5 -0.7 0
v -0.5 0.1 0
v -0.5 0.2 0
v -0.4 0.1 0
v -0.4 0.2 0
v 0.6 -0.8 0
v 0.6 -0.7 0
v 0.6 0.1 0
v 0.6 0.2 0
v 0.7 -0.8 0
v 0.7 -0.7 0
v 0.7 0.1 0
v 0.7 0.2 0
v -0.5 0.6 -0.1
v -0.5 0.7 -0.1
v -0.4 0.6 -0.1
v -0.4 0.7 -0.1
v -0.5 -1.4 -0.3
v -0.5 -1.3 -0.3
v -0.5 -1.1 -0.3
v -0.4 -1.1 -0.3
v -0.4 -0.9 -0.3
v -0.4 -0.8 -0.3
v -0.3 -1.1 -0.3
v -0.3 -0.9 -0.3
v -0.3 -0.8 -0.3
v -0.1 -1.3 -0.3
v -0.1 -1.2 -0.3
v -0.1 -1 -0.3
v -0.1 -0.9 -0.3
v -0.1 -0.8 -0.3
v -5.96046e-08 -1.3 -0.3
v -5.96046e-08 -1.2 -0.3
v -5.96046e-08 -1 -0.3
v -5.96046e-08 -0.9 -0.3
v 0.1 -0.9 -0.3
v 0.1 -0.8 -0.3
v 0.2 -1 -0.3
v 0.2 -0.9 -0.3
v 0.2 -0.8 -0.3
v 0.3 -0.9 -0.3
v 0.3 -0.8 -0.3
v 0.4 -1.2 -0.3
v 0.4 -1.1 -0.3
v 0.4 -1 -0.3
v 0.4 -0.9 -0.3
v 0.5 -1.2 -0.3
v 0.5 -1.1 -0.3
v 0.5 -0.8 -0.3
v 0.6 -1.4 -0.3
v 0.6 -1.3 -0.3
v 0.6 -1.1 -0.3
v -0.4 -1.4 0.3
v -0.4 -1.3 0.3
v -0.4 -1 0.3
v -0.4 -0.9 0.3
v -0.4 -0.8 0.3
v -0.4 -0.7 0.3
v -0.4 -0.3 0.3
v -0.3 -1.3 0.3
v -0.3 -0.4 0.3
v -0.3 -0.3 0.3
v -0.2 -1.4 0.3
v -0.2 -0.5 0.3
v -0.2 -0.4 0.3
v 0.3 -1.4 0.3
v 0.3 -0.5 0.3
v 0.3 -0.4 0.3
v 0.4 -1.3 0.3
v 0.4 -1 0.3
v 0.4 -0.9 0.3
v 0.4 -0.4 0.3
v 0.4 -0.3 0.3
v 0.5 -1.4 0.3
v 0.5 -1.3 0.3
v 0.5 -1.2 0.3
v 0.5 -1.1 0.3
v 0.5 -1 0.3
v 0.5 -0.9 0.3
v 0.5 -0.5 0.3
v 0.5 -0.4 0.3
v 0.5 -0.3 0.3
v -0.5 0.1 0.2
v -0.5 0.2 0.2
v -0.5 0.3 0.2
v -0.5 0.4 0.2
v -0.5 0.5 0.2
v -0.4 0.1 0.2
v -0.4 0.2 0.2
v -0.4 0.3 0.2
v -0.4 0.4 0.2
v -0.4 0.5 0.2
v -0.4 0.9 0.2
v -0.4 1 0.2
v -0.3 0.9 0.2
v -0.3 1 0.2
v -0.3 1.1 0.2
v -0.3 1.2 0.2
v -0.2 1.1 0.2
v -0.2 1.2 0.2
v 0.3 0.9 0.2
v 0.3 1 0.2
v 0.4 0.7 0.2
v 0.4 0.9 0.2
v 0.4 1 0.2
v 0.5 0.6 0.2
v 0.5 0.7 0.2
v 0.5 0.9 0.2
v 0.6 0.6 0.2
v 0.6 0.7 0.2
v -0.5 -1.4 0.1
v -0.5 -1.3 0.1
v -0.5 -1.1 0.1
v -0.5 0.7 0.1
v -0.5 0.8 0.1
v -0.4 -1.4 0.1
v -0.4 -1.3 0.1
v -0.4 -1.1 0.1
v -0.4 0.7 0.1
v -0.4 0.8 0.1
v -0.4 0.9 0.1
v -0.3 0.8 0.1
v -0.3 0.9 0.1
v -0.3 1 0.1
v -0.3 1.1 0.1
v -0.2 0.9 0.1
v -0.2 1 0.1
v -0.2 1.1 0.1
v -0.2 1.3 0.1
v -0.2 1.4 0.1
v -0.1 1.3 0.1
v -0.1 1.4 0.1
v -0.1 1.5 0.1
v -5.96046e-08 1.4 0.1
v -5.96046e-08 1.5 0.1
v 0.1 1.4 0.1
v 0.1 1.5 0.1
v 0.2 1.3 0.1
v 0.2 1.4 0.1
v 0.2 1.5 0.1
v 0.3 0.8 0.1
v 0.3 0.9 0.1
v 0.3 1 0.1
v 0.3 1.1 0.1
v 0.3 1.3 0.1
v 0.3 1.4 0.1
v 0.4 0.8 0.1
v 0.4 0.9 0.1
v 0.4 1 0.1
v 0.4 1.1 0.1
v -0.5 0.6 0
v -0.5 0.7 0
v -0.4 0.6 0
v -0.4 0.7 0
v -0.4 0.8 0
v -0.3 0.7 0
v -0.3 0.8 0
v -0.3 0.9 0
v -0.2 0.8 0
v -0.2 0.9 0
v -0.2 1 0
v -0.2 1.1 0
v -0.2 1.3 0
v -0.1 0.9 0
v -0.1 1 0
v -0.1 1.1 0
v -0.1 1.3 0
v -0.1 1.4 0
v -5.96046e-08 1.1 0
v -5.96046e-08 1.2 0
v 0.1 1.1 0
v 0.1 1.2 0
v 0.2 0.9 0
v 0.2 1 0
v 0.2 1.1 0
v 0.2 1.2 0
v 0.2 1.3 0
v 0.2 1.4 0
v 0.3 0.9 0
v 0.3 1 0
v 0.3 1.1 0
v 0.3 1.2 0
v 0.3 1.3 0
v 0.5 -1.4 0
v 0.5 -1.3 0
v 0.5 -1.1 0
v 0.6 -1.4 0
v 0.6 -1.3 0
v 0.6 -1.1 0
v -0.6 0.1 -0.1
v -0.6 0.2 -0.1
v -0.6 0.6 -0.1
v -0.6 0.7 -0.1
v -0.5 0.1 -0.1
v -0.5 0.2 -0.1
v -0.5 0.6 -0.1
v -0.5 0.7 -0.1
v -0.2 0.8 -0.1
v -0.2 0.9 -0.1
v -0.1 0.9 -0.1
v -0.1 1 -0.1
v -0.1 1.1 -0.1
v -5.96046e-08 0.8 -0.1
v -5.96046e-08 0.9 -0.1
v -5.96046e-08 1 -0.1
v -5.96046e-08 1.1 -0.1
v -5.96046e-08 1.2 -0.1
v 0.1 0.8 -0.1
v 0.1 0.9 -0.1
v 0.1 1 -0.1
v 0.1 1.1 -0.1
v 0.1 1.2 -0.1
v 0.2 0.9 -0.1
v 0.2 1 -0.1
v 0.2 1.1 -0.1
v 0.3 0.8 -0.1
v 0.3 0.9 -0.1
v 0.6 0.6 -0.1
v 0.6 0.7 -0.1
v 0.7 0.6 -0.1
v 0.7 0.7 -0.1
v -0.6 -0.8 -0.2
v -0.6 -0.7 -0.2
v -0.6 0.2 -0.2
v -0.6 0.3 -0.2
v -0.6 0.5 -0.2
v -0.6 0.6 -0.2
v -0.5 -0.8 -0.2
v -0.5 -0.7 -0.2
v -0.5 -0.6 -0.2
v -0.5 0 -0.2
v -0.5 0.1 -0.2
v -0.5 0.2 -0.2
v -0.5 0.5 -0.2
v -0.5 0.6 -0.2
v -0.5 0.7 -0.2
v -0.4 -0.6 -0.2
v -0.4 -0.3 -0.2
v -0.4 -0.2 -0.2
v -0.4 0 -0.2
v -0.4 0.1 -0.2
v -0.4 0.2 -0.2
v -0.4 0.3 -0.2
v -0.3 -1.1 -0.2
v -0.3 -0.8 -0.2
v -0.3 0.6 -0.2
v -0.3 0.7 -0.2
v -0.3 0.8 -0.2
v -0.2 -1.1 -0.2
v -0.2 -0.8 -0.2
v -0.2 0.6 -0.2
v -0.2 0.7 -0.2
v -0.1 0.5 -0.2
v -0.1 0.6 -0.2
v -0.1 0.7 -0.2
v -5.96046e-08 -1.1 -0.2
v -5.96046e-08 -1 -0.2
v -5.96046e-08 0.3 -0.2
v -5.96046e-08 0.4 -0.2
v -5.96046e-08 0.5 -0.2
v -5.96046e-08 0.8 -0.2
v -5.96046e-08 0.9 -0.2
v -5.96046e-08 1.1 -0.2
v 0.1 -1.1 -0.2
v 0.1 -1 -0.2
v 0.1 0.3 -0.2
v 0.1 0.4 -0.2
v 0.1 0.5 -0.2
v 0.1 0.6 -0.2
v 0.1 0.7 -0.2
v 0.1 0.8 -0.2
v 0.1 0.9 -0.2
v 0.1 1.1 -0.2
v 0.2 0.5 -0.2
v 0.2 0.6 -0.2
v 0.2 0.7 -0.2
v 0.3 -1.1 -0.2
v 0.3 -0.8 -0.2
v 0.3 0.6 -0.2
v 0.3 0.7 -0.2
v 0.4 -1.1 -0.2
v 0.4 -0.8 -0.2
v 0.4 0.6 -0.2
v 0.4 0.7 -0.2
v 0.4 0.8 -0.2
v 0.5 -0.6 -0.2
v 0.5 -0.2 -0.2
v 0.5 -0.1 -0.2
v 0.5 0 -0.2
v 0.5 0.6 -0.2
v 0.6 -0.8 -0.2
v 0.6 -0.7 -0.2
v 0.6 -0.6 -0.2
v 0.6 0 -0.2
v 0.6 0.4 -0.2
v 0.6 0.5 -0.2
v 0.6 0.6 -0.2
v 0.6 0.7 -0.2
v 0.7 -0.8 -0.2
v 0.7 -0.7 -0.2
v 0.7 0.4 -0.2
v 0.7 0.5 -0.2
v -0.6 -1 -0.3
v -0.6 -0.8 -0.3
v -0.6 0.3 -0.3
v -0.6 0.5 -0.3
v -0.5 -1 -0.3
v -0.5 -0.8 -0.3
v -0.5 -0.6 -0.3
v -0.5 0 -0.3
v -0.5 0.1 -0.3
v -0.5 0.5 -0.3
v -0.5 0.6 -0.3
v -0.4 -0.8 -0.3
v -0.4 -0.7 -0.3
v -0.4 -0.6 -0.3
v -0.4 -0.3 -0.3
v -0.4 -0.2 -0.3
v -0.4 0 -0.3
v -0.4 0.1 -0.3
v -0.4 0.2 -0.3
v -0.4 0.3 -0.3
v -0.3 -0.7 -0.3
v -0.3 -0.6 -0.3
v -0.3 -0.3 -0.3
v -0.3 -0.2 -0.3
v -0.3 0 -0.3
v -0.3 0.1 -0.3
v -0.3 0.2 -0.3
v -0.3 0.3 -0.3
v -0.3 0.4 -0.3
v -0.3 0.6 -0.3
v -0.2 -0.7 -0.3
v -0.2 -0.6 -0.3
v -0.2 -0.5 -0.3
v -0.2 0 -0.3
v -0.2 0.1 -0.3
v -0.2 0.2 -0.3
v -0.2 0.4 -0.3
v -0.2 0.6 -0.3
v -0.1 -0.6 -0.3
v -0.1 -0.5 -0.3
v -0.1 -0.4 -0.3
v -0.1 -0.3 -0.3
v -0.1 -0.2 -0.3
v -0.1 -0.1 -0.3
v -0.1 0.2 -0.3
v -0.1 0.4 -0.3
v -0.1 0.5 -0.3
v -0.1 0.6 -0.3
v -5.96046e-08 -0.6 -0.3
v -5.96046e-08 -0.5 -0.3
v -5.96046e-08 -0.4 -0.3
v -5.96046e-08 -0.3 -0.3
v -5.96046e-08 0.3 -0.3
v -5.96046e-08 0.4 -0.3
v -5.96046e-08 0.5 -0.3
v 0.1 -0.6 -0.3
v 0.1 -0.5 -0.3
v 0.1 0.3 -0.3
v 0.1 0.4 -0.3
v 0.1 0.5 -0.3
v 0.2 -0.6 -0.3
v 0.2 -0.5 -0.3
v 0.2 -0.2 -0.3
v 0.2 -0.1 -0.3
v 0.2 0.2 -0.3
v 0.2 0.4 -0.3
v 0.2 0.5 -0.3
v 0.2 0.6 -0.3
v 0.3 -0.5 -0.3
v 0.3 0.1 -0.3
v 0.3 0.2 -0.3
v 0.3 0.3 -0.3
v 0.3 0.4 -0.3
v 0.4 -0.6 -0.3
v 0.4 -0.2 -0.3
v 0.4 -0.1 -0.3
v 0.4 0.1 -0.3
v 0.4 0.3 -0.3
v 0.4 0.4 -0.3
v 0.4 0.5 -0.3
v 0.4 0.6 -0.3
v 0.5 -0.8 -0.3
v 0.5 -0.7 -0.3
v 0.5 -0.6 -0.3
v 0.5 -0.2 -0.3
v 0.5 -0.1 -0.3
v 0.5 0 -0.3
v 0.5 0.2 -0.3
v 0.5 0.3 -0.3
v 0.5 0.5 -0.3
v 0.5 0.6 -0.3
v 0.6 -1 -0.3
v 0.6 -0.9 -0.3
v 0.6 -0.8 -0.3
v 0.6 -0.6 -0.3
v 0.6 0 -0.3
v 0.6 0.1 -0.3
v 0.6 0.2 -0.3
v 0.6 0.3 -0.3
v 0.6 0.4 -0.3
v 0.6 0.5 -0.3
v 0.6 0.6 -0.3
v 0.7 -1 -0.3
v 0.7 -0.8 -0.3
v 0.7 0.1 -0.3
v 0.7 0.3 -0.3
v 0.7 0.4 -0.3
v 0.7 0.5 -0.3
v 0.7 0.6 -0.3
v -0.6 -1.4 -0.4
v -0.6 -1.3 -0.4
v -0.6 -1.2 -0.4
v -0.6 -1.1 -0.4
v -0.6 -1 -0.4
v -0.5 -1.2 -0.4
v -0.5 -1.1 -0.4
v -0.5 -1 -0.4
v -0.5 -0.8 -0.4
v -0.4 -1.1 -0.4
v -0.4 -0.9 -0.4
v -0.4 -0.8 -0.4
v -0.4 -0.7 -0.4
v -0.3 -1.1 -0.4
v -0.3 -0.9 -0.4
v -0.3 -0.8 -0.4
v -0.3 -0.7 -0.4
v -0.2 -0.8 -0.4
v -0.2 -0.7 -0.4
v -0.1 -1.3 -0.4
v -0.1 -1.2 -0.4
v -0.1 -1 -0.4
v -0.1 -0.9 -0.4
v -0.1 -0.8 -0.4
v -5.96046e-08 -1.3 -0.4
v -5.96046e-08 -1.2 -0.4
v -5.96046e-08 -1 -0.4
v -5.96046e-08 -0.9 -0.4
v 0.1 -0.9 -0.4
v 0.1 -0.8 -0.4
v 0.2 -1 -0.4
v 0.2 -0.9 -0.4
v 0.2 -0.8 -0.4
v 0.3 -0.9 -0.4
v 0.3 -0.8 -0.4
v 0.4 -1.2 -0.4
v 0.4 -1.1 -0.4
v 0.4 -1 -0.4
v 0.4 -0.9 -0.4
v 0.5 -1.2 -0.4
v 0.5 -1.1 -0.4
v 0.5 -0.9 -0.4
v 0.5 -0.8 -0.4
v 0.5 -0.7 -0.4
v 0.6 -1 -0.4
v 0.6 -0.9 -0.4
v 0.6 -0.8 -0.4
v 0.7 -1.4 -0.4
v 0.7 -1.3 -0.4
v 0.7 -1 -0.4
v -0.4 -1.4 0.4
v -0.2 -1.4 0.4
v 0.3 -1.4 0.4
v 0.5 -1.4 0.4
v -0.5 -1.4 0.3
v -0.4 -1.4 0.3
v -0.2 -1.4 0.3
v 0.3 -1.4 0.3
v 0.5 -1.4 0.3
v 0.6 -1.4 0.3
v -0.6 -1.4 0.2
v -0.5 -1.4 0.2
v 0.6 -1.4 0.2
v 0.7 -1.4 0.2
v -0.5 -1.4 0.1
v -0.4 -1.4 0.1
v 0.5 -1.4 0
v 0.6 -1.4 0
v -0.5 -1.4 -0.3
v 0.6 -1.4 -0.3
v -0.6 -1.4 -0.4
v 0.7 -1.4 -0.4
v -0.3 -1.1 0.2
v -0.2 -1.1 0.2
v -5.96046e-08 -1.1 0.2
v 0.1 -1.1 0.2
v 0.3 -1.1 0.2
v 0.4 -1.1 0.2
v -0.5 -1.1 0.1
v -0.4 -1.1 0.1
v -0.3 -1.1 0.1
v -0.2 -1.1 0.1
v -5.96046e-08 -1.1 0.1
v 0.1 -1.1 0.1
v 0.3 -1.1 0.1
v 0.4 -1.1 0.1
v 0.5 -1.1 0
v 0.6 -1.1 0
v -0.3 -1.1 -0.1
v -0.2 -1.1 -0.1
v -5.96046e-08 -1.1 -0.1
v 0.1 -1.1 -0.1
v 0.3 -1.1 -0.1
v 0.4 -1.1 -0.1
v 0.6 -1.1 -0.1
v -0.3 -1.1 -0.2
v -0.2 -1.1 -0.2
v -5.96046e-08 -1.1 -0.2
v 0.1 -1.1 -0.2
v 0.3 -1.1 -0.2
v 0.4 -1.1 -0.2
v 0.6 -1.1 -0.2
v -0.5 -1.1 -0.3
v -0.4 -1.1 -0.3
v 0.5 -1.1 -0.3
v 0.6 -1.1 -0.3
v -0.4 -0.8 0.2
v -0.3 -0.8 0.2
v 0.4 -0.8 0.2
v 0.5 -0.8 0.2
v -0.4 -0.8 0.1
v -0.3 -0.8 0.1
v 0.4 -0.8 0.1
v 0.5 -0.8 0.1
v -0.4 -0.8 -0.1
v -0.3 -0.8 -0.1
v 0.4 -0.8 -0.1
v -0.4 -0.8 -0.2
v -0.3 -0.8 -0.2
v -0.2 -0.8 -0.2
v 0.3 -0.8 -0.2
v 0.4 -0.8 -0.2
v 0.5 -0.8 -0.2
v -0.4 -0.8 -0.3
v -0.3 -0.8 -0.3
v -0.1 -0.8 -0.3
v 0.1 -0.8 -0.3
v 0.2 -0.8 -0.3
v 0.3 -0.8 -0.3
v 0.5 -0.8 -0.3
v -0.2 -0.5 0.3
v -0.1 -0.5 0.3
v 0.2 -0.5 0.3
v 0.3 -0.5 0.3
v -0.2 -0.5 0.2
v -0.1 -0.5 0.2
v 0.2 -0.5 0.2
v 0.3 -0.5 0.2
v -0.2 -0.4 0.4
v -0.1 -0.4 0.4
v 0.2 -0.4 0.4
v 0.3 -0.4 0.4
v -0.3 -0.4 0.3
v -0.2 -0.4 0.3
v -0.1 -0.4 0.3
v -5.96046e-08 -0.4 0.3
v 0.1 -0.4 0.3
v 0.2 -0.4 0.3
v 0.3 -0.4 0.3
v 0.4 -0.4 0.3
v -0.3 -0.4 0.2
v -0.2 -0.4 0.2
v -0.1 -0.4 0.2
v -5.96046e-08 -0.4 0.2
v 0.1 -0.4 0.2
v 0.2 -0.4 0.2
v 0.3 -0.4 0.2
v 0.4 -0.4 0.2
v -0.1 -0.3 0.4
v -5.96046e-08 -0.3 0.4
v 0.1 -0.3 0.4
v 0.2 -0.3 0.4
v -0.4 -0.3 0.3
v -0.3 -0.3 0.3
v -0.1 -0.3 0.3
v -5.96046e-08 -0.3 0.3
v 0.1 -0.3 0.3
v 0.2 -0.3 0.3
v 0.4 -0.3 0.3
v 0.5 -0.3 0.3
v -0.4 -0.3 0.2
v -0.3 -0.3 0.2
v -5.96046e-08 -0.3 0.2
v 0.1 -0.3 0.2
v 0.4 -0.3 0.2
v 0.5 -0.3 0.2
v -0.3 -0.1 0.4
v -0.2 -0.1 0.4
v -0.3 -0.1 0.3
v -0.2 -0.1 0.3
v -0.5 0 -0.2
v -0.4 0 -0.2
v 0.5 0 -0.2
v 0.6 0 -0.2
v -0.5 0 -0.3
v -0.4 0 -0.3
v 0.5 0 -0.3
v 0.6 0 -0.3
v -0.5 0.1 0.3
v -0.4 0.1 0.3
v -0.2 0.1 0.3
v -0.1 0.1 0.3
v 0.2 0.1 0.3
v 0.3 0.1 0.3
v -0.5 0.1 0.2
v -0.4 0.1 0.2
v -0.2 0.1 0.2
v -0.1 0.1 0.2
v 0.2 0.1 0.2
v 0.3 0.1 0.2
v -0.6 0.1 0.1
v -0.5 0.1 0.1
v 0.6 0.1 0
v 0.7 0.1 0
v -0.6 0.1 -0.1
v -0.5 0.1 -0.1
v 0.6 0.1 -0.2
v 0.6 0.1 -0.3
v 0.7 0.1 -0.3
v -0.1 0.2 0.3
v 0.2 0.2 0.3
v -0.6 0.2 0.2
v -0.5 0.2 0.2
v -0.1 0.2 0.2
v 0.2 0.2 0.2
v 0.6 0.2 0.2
v 0.7 0.2 0.2
v -0.6 0.2 0.1
v -0.5 0.2 0.1
v -0.4 0.2 0.1
v -0.5 0.2 0
v -0.4 0.2 0
v 0.6 0.2 0
v 0.7 0.2 0
v -0.6 0.2 -0.1
v -0.5 0.2 -0.1
v -0.6 0.2 -0.2
v -0.5 0.2 -0.2
v -0.5 0.3 0.2
v -0.4 0.3 0.2
v -0.5 0.3 0.1
v -0.4 0.3 0.1
v -0.6 0.3 -0.2
v -0.4 0.3 -0.2
v -0.6 0.3 -0.3
v -0.4 0.3 -0.3
v -0.6 0.4 0.2
v -0.5 0.4 0.2
v -0.6 0.4 0.1
v -0.5 0.4 0.1
v -0.3 0.5 0.3
v -0.2 0.5 0.3
v -0.1 0.5 0.3
v 0.2 0.5 0.3
v 0.3 0.5 0.3
v 0.4 0.5 0.3
v 0.5 0.5 0.3
v 0.6 0.5 0.3
v -0.5 0.5 0.2
v -0.4 0.5 0.2
v -0.3 0.5 0.2
v -0.2 0.5 0.2
v -0.1 0.5 0.2
v 0.2 0.5 0.2
v 0.3 0.5 0.2
v 0.4 0.5 0.2
v 0.5 0.5 0.2
v 0.6 0.5 0.2
v 0.7 0.5 0.2
v -0.5 0.5 0.1
v -0.4 0.5 0.1
v 0.6 0.5 0.1
v 0.7 0.5 0.1
v 0.6 0.5 -0.2
v 0.7 0.5 -0.2
v 0.6 0.5 -0.3
v 0.7 0.5 -0.3
v 0.3 1 0.2
v 0.4 1 0.2
v 0.3 1 0.1
v 0.4 1 0.1
v -0.6 -1 0.2
v -0.5 -1 0.2
v 0.6 -1 0.2
v 0.7 -1 0.2
v -0.6 -1 0.1
v -0.5 -1 0.1
v 0.6 -1 0.1
v 0.7 -1 0.1
v -0.6 -1 -0.3
v -0.5 -1 -0.3
v 0.6 -1 -0.3
v 0.7 -1 -0.3
v -0.6 -1 -0.4
v -0.5 -1 -0.4
v 0.6 -1 -0.4
v 0.7 -1 -0.4
v -0.6 -0.8 0.1
v -0.5 -0.8 0.1
v 0.6 -0.8 0.1
v 0.7 -0.8 0.1
v -0.6 -0.8 0
v -0.5 -0.8 0
v 0.6 -0.8 0
v 0.7 -0.8 0
v -0.6 -0.8 -0.2
v -0.5 -0.8 -0.2
v 0.6 -0.8 -0.2
v 0.7 -0.8 -0.2
v -0.6 -0.8 -0.3
v -0.5 -0.8 -0.3
v -0.4 -0.8 -0.3
v 0.5 -0.8 -0.3
v 0.6 -0.8 -0.3
v 0.7 -0.8 -0.3
v -0.5 -0.8 -0.4
v -0.4 -0.8 -0.4
v 0.5 -0.8 -0.4
v 0.6 -0.8 -0.4
v -0.6 -0.7 0
v -0.5 -0.7 0
v 0.6 -0.7 0
v 0.7 -0.7 0
v -0.5 -0.7 -0.1
v -0.6 -0.7 -0.2
v -0.5 -0.7 -0.2
v 0.6 -0.7 -0.2
v 0.7 -0.7 -0.2
v -0.4 -0.7 -0.3
v -0.3 -0.7 -0.3
v -0.2 -0.7 -0.3
v 0.5 -0.7 -0.3
v -0.4 -0.7 -0.4
v -0.3 -0.7 -0.4
v -0.2 -0.7 -0.4
v 0.5 -0.7 -0.4
v -0.5 -0.6 -0.2
v -0.4 -0.6 -0.2
v 0.5 -0.6 -0.2
v 0.6 -0.6 -0.2
v -0.5 -0.6 -0.3
v -0.4 -0.6 -0.3
v 0.5 -0.6 -0.3
v 0.6 -0.6 -0.3
v -0.4 -0.2 0.4
v -0.3 -0.2 0.4
v -0.2 -0.2 0.4
v -0.1 -0.2 0.4
v -5.96046e-08 -0.2 0.4
v 0.1 -0.2 0.4
v 0.2 -0.2 0.4
v 0.3 -0.2 0.4
v 0.5 -0.2 0.4
v -0.5 -0.2 0.3
v -0.4 -0.2 0.3
v -0.3 -0.2 0.3
v -0.2 -0.2 0.3
v -0.1 -0.2 0.3
v -5.96046e-08 -0.2 0.3
v 0.1 -0.2 0.3
v 0.2 -0.2 0.3
v 0.3 -0.2 0.3
v 0.4 -0.2 0.3
v 0.5 -0.2 0.3
v 0.6 -0.2 0.3
v -0.5 -0.2 0.2
v -0.4 -0.2 0.2
v -5.96046e-08 -0.2 0.2
v 0.1 -0.2 0.2
v 0.5 -0.2 0.2
v 0.6 -0.2 0.2
v -0.2 -0.1 0.4
v -0.1 -0.1 0.4
v 0.2 -0.1 0.4
v 0.3 -0.1 0.4
v -0.2 -0.1 0.3
v -0.1 -0.1 0.3
v -5.96046e-08 -0.1 0.3
v 0.1 -0.1 0.3
v 0.2 -0.1 0.3
v 0.3 -0.1 0.3
v -0.1 -0.1 0.2
v -5.96046e-08 -0.1 0.2
v 0.1 -0.1 0.2
v 0.2 -0.1 0.2
v -0.3 0 0.4
v -0.2 0 0.4
v -0.3 0 0.3
v -0.2 0 0.3
v -0.1 0 0.3
v 0.2 0 0.3
v 0.3 0 0.3
v -0.2 0 0.2
v -0.1 0 0.2
v 0.2 0 0.2
v 0.3 0 0.2
v -0.5 0.1 0.2
v -0.4 0.1 0.2
v -0.5 0.1 0.1
v -0.5 0.1 0
v -0.4 0.1 0
v -0.5 0.1 -0.2
v -0.4 0.1 -0.2
v -0.5 0.1 -0.3
v -0.4 0.1 -0.3
v -0.6 0.3 0.2
v -0.5 0.3 0.2
v -0.6 0.3 0.1
v -0.5 0.3 0.1
v -5.96046e-08 0.3 -0.2
v 0.1 0.3 -0.2
v -5.96046e-08 0.3 -0.3
v 0.1 0.3 -0.3
v -0.3 0.4 0.3
v -0.1 0.4 0.3
v 0.2 0.4 0.3
v 0.4 0.4 0.3
v -0.5 0.4 0.2
v -0.4 0.4 0.2
v -0.3 0.4 0.2
v -0.2 0.4 0.2
v -0.1 0.4 0.2
v 0.2 0.4 0.2
v 0.3 0.4 0.2
v 0.4 0.4 0.2
v 0.6 0.4 0.2
v 0.7 0.4 0.2
v -0.5 0.4 0.1
v -0.4 0.4 0.1
v 0.6 0.4 0.1
v 0.7 0.4 0.1
v 0.6 0.4 -0.2
v 0.7 0.4 -0.2
v 0.6 0.4 -0.3
v 0.7 0.4 -0.3
v -0.6 0.5 -0.2
v -0.5 0.5 -0.2
v -0.1 0.5 -0.2
v -5.96046e-08 0.5 -0.2
v 0.1 0.5 -0.2
v 0.2 0.5 -0.2
v -0.6 0.5 -0.3
v -0.5 0.5 -0.3
v -0.1 0.5 -0.3
v -5.96046e-08 0.5 -0.3
v 0.1 0.5 -0.3
v 0.2 0.5 -0.3
v -0.5 0.6 0.3
v -0.4 0.6 0.3
v -0.5 0.6 0.2
v -0.4 0.6 0.2
v 0.5 0.6 0.2
v 0.6 0.6 0.2
v 0.7 0.6 0.2
v 0.5 0.6 0.1
v 0.6 0.6 0.1
v 0.7 0.6 0.1
v -0.5 0.6 0
v -0.4 0.6 0
v -0.6 0.6 -0.1
v -0.5 0.6 -0.1
v -0.4 0.6 -0.1
v 0.6 0.6 -0.1
v 0.7 0.6 -0.1
v -0.6 0.6 -0.2
v -0.5 0.6 -0.2
v -0.3 0.6 -0.2
v -0.2 0.6 -0.2
v -0.1 0.6 -0.2
v 0.2 0.6 -0.2
v 0.3 0.6 -0.2
v 0.4 0.6 -0.2
v 0.5 0.6 -0.2
v 0.6 0.6 -0.2
v 0.7 0.6 -0.2
v -0.5 0.6 -0.3
v -0.3 0.6 -0.3
v -0.2 0.6 -0.3
v -0.1 0.6 -0.3
v 0.2 0.6 -0.3
v 0.4 0.6 -0.3
v 0.5 0.6 -0.3
v 0.6 0.6 -0.3
v 0.7 0.6 -0.3
v 0.5 0.7 0.3
v 0.6 0.7 0.3
v -0.6 0.7 0.2
v -0.5 0.7 0.2
v 0.4 0.7 0.2
v 0.5 0.7 0.2
v 0.6 0.7 0.2
v -0.6 0.7 0.1
v -0.5 0.7 0.1
v -0.4 0.7 0.1
v 0.5 0.7 0.1
v 0.7 0.7 0.1
v -0.5 0.7 0
v -0.4 0.7 0
v -0.3 0.7 0
v -0.6 0.7 -0.1
v -0.5 0.7 -0.1
v -0.4 0.7 -0.1
v -0.3 0.7 -0.1
v 0.4 0.7 -0.1
v 0.5 0.7 -0.1
v 0.6 0.7 -0.1
v 0.7 0.7 -0.1
v -0.5 0.7 -0.2
v -0.3 0.7 -0.2
v 0.4 0.7 -0.2
v 0.6 0.7 -0.2
v -0.5 0.8 0.2
v -0.4 0.8 0.2
v -0.5 0.8 0.1
v -0.4 0.8 0.1
v -0.3 0.8 0.1
v 0.3 0.8 0.1
v 0.4 0.8 0.1
v -0.4 0.8 0
v -0.3 0.8 0
v -0.2 0.8 0
v -0.2 0.8 -0.1
v -5.96046e-08 0.8 -0.1
v 0.1 0.8 -0.1
v 0.3 0.8 -0.1
v -0.3 0.8 -0.2
v -5.96046e-08 0.8 -0.2
v 0.1 0.8 -0.2
v 0.4 0.8 -0.2
v 0.4 0.9 0.3
v 0.5 0.9 0.3
v -0.4 0.9 0.2
v -0.3 0.9 0.2
v 0.3 0.9 0.2
v 0.4 0.9 0.2
v 0.5 0.9 0.2
v -0.4 0.9 0.1
v -0.3 0.9 0.1
v -0.2 0.9 0.1
v 0.3 0.9 0.1
v 0.4 0.9 0.1
v -0.3 0.9 0
v -0.2 0.9 0
v -0.1 0.9 0
v 0.2 0.9 0
v 0.3 0.9 0
v -0.2 0.9 -0.1
v -0.1 0.9 -0.1
v 0.2 0.9 -0.1
v 0.3 0.9 -0.1
v -0.4 1 0.3
v -0.3 1 0.3
v -0.4 1 0.2
v -0.3 1 0.2
v 0.3 1.1 0.3
v 0.4 1.1 0.3
v -0.3 1.1 0.2
v -0.2 1.1 0.2
v -0.3 1.1 0.1
v -0.2 1.1 0.1
v 0.3 1.1 0.1
v 0.4 1.1 0.1
v -0.1 1.1 0
v -5.96046e-08 1.1 0
v 0.1 1.1 0
v 0.2 1.1 0
v -0.1 1.1 -0.1
v -5.96046e-08 1.1 -0.1
v 0.1 1.1 -0.1
v 0.2 1.1 -0.1
v -5.96046e-08 1.1 -0.2
v 0.1 1.1 -0.2
v -0.3 1.2 0.3
v -0.2 1.2 0.3
v -0.3 1.2 0.2
v -0.2 1.2 0.2
v -5.96046e-08 1.2 0
v 0.1 1.2 0
v -5.96046e-08 1.2 -0.1
v 0.1 1.2 -0.1
v -0.2 1.3 0.1
v -0.1 1.3 0.1
v 0.2 1.3 0.1
v 0.3 1.3 0.1
v -0.2 1.3 0
v -0.1 1.3 0
v 0.2 1.3 0
v 0.3 1.3 0
v -0.2 1.4 0.3
v -0.1 1.4 0.3
v 0.2 1.4 0.3
v 0.3 1.4 0.3
v -0.2 1.4 0.1
v -0.1 1.4 0.1
v -5.96046e-08 1.4 0.1
v 0.1 1.4 0.1
v 0.2 1.4 0.1
v 0.3 1.4 0.1
v -0.1 1.4 0
v 0.2 1.4 0
v -0.1 1.5 0.3
v 0.2 1.5 0.3
v -5.96046e-08 1.5 0.2
v 0.1 1.5 0.2
v -0.1 1.5 0.1
v -5.96046e-08 1.5 0.1
v 0.1 1.5 0.1
v 0.2 1.5 0.1

# faces
f 3/17/1 2/17/1 1/17/1
f 4/17/1 2/17/1 3/17/1
f 5/16/1 4/16/1 3/16/1
f 6/16/1 4/16/1 5/16/1
f 7/16/1 4/16/1 6/16/1
f 8/16/1 4/16/1 7/16/1
f 9/17/1 6/17/1 5/17/1
f 10/16/1 7/16/1 6/16/1
f 10/17/1 6/17/1 9/17/1
f 11/17/1 8/17/1 7/17/1
f 11/16/1 7/16/1 10/16/1
f 12/17/1 8/17/1 11/17/1
f 13/16/1 10/16/1 9/16/1
f 13/16/1 11/16/1 10/16/1
f 13/16/1 12/16/1 11/16/1
f 14/16/1 12/16/1 13/16/1
f 15/16/1 12/16/1 14/16/1
f 16/16/1 12/16/1 15/16/1
f 17/16/1 15/16/1 14/16/1
f 18/16/1 15/16/1 17/16/1
f 19/16/1 17/16/1 14/16/1
f 20/16/1 17/16/1 19/16/1
f 21/17/1 18/17/1 17/17/1
f 21/16/1 17/16/1 20/16/1
f 22/16/1 15/16/1 18/16/1
f 22/17/1 18/17/1 21/17/1
f 23/16/1 15/16/1 22/16/1
f 24/16/1 21/16/1 20/16/1
f 24/16/1 22/16/1 21/16/1
f 25/16/1 22/16/1 24/16/1
f 29/16/1 27/16/1 26/16/1
f 30/16/1 27/16/1 29/16/1
f 32/16/1 29/16/1 28/16/1
f 32/16/1 31/16/1 30/16/1
f 32/16/1 30/16/1 29/16/1
f 33/16/1 31/16/1 32/16/1
f 34/16/1 31/16/1 33/16/1
f 37/16/1 34/16/1 33/16/1
f 37/16/1 35/16/1 34/16/1
f 38/16/1 35/16/1 37/16/1
f 38/16/1 37/16/1 36/16/1
f 39/16/1 35/16/1 38/16/1
f 40/16/1 35/16/1 39/16/1
f 41/16/1 35/16/1 40/16/1
f 42/16/1 38/16/1 36/16/1
f 43/16/1 38/16/1 42/16/1
f 44/5/1 39/5/1 38/5/1
f 44/16/1 38/16/1 43/16/1
f 45/11/1 40/11/1 39/11/1
f 45/5/1 39/5/1 44/5/1
f 46/11/1 40/11/1 45/11/1
f 47/10/1 43/10/1 42/10/1
f 48/16/1 44/16/1 43/16/1
f 48/10/1 43/10/1 47/10/1
f 48/16/1 45/16/1 44/16/1
f 49/16/1 45/16/1 48/16/1
f 52/17/1 51/17/1 50/17/1
f 53/17/1 51/17/1 52/17/1
f 54/16/1 53/16/1 52/16/1
f 55/16/1 54/16/1 52/16/1
f 56/16/1 55/16/1 52/16/1
f 57/16/1 55/16/1 56/16/1
f 61/17/1 57/17/1 56/17/1
f 62/16/1 58/16/1 57/16/1
f 62/17/1 57/17/1 61/17/1
f 63/16/1 62/16/1 61/16/1
f 64/16/1 58/16/1 62/16/1
f 64/16/1 62/16/1 63/16/1
f 65/16/1 58/16/1 64/16/1
f 68/16/1 60/16/1 59/16/1
f 69/16/1 60/16/1 68/16/1
f 70/17/1 64/17/1 63/17/1
f 71/16/1 66/16/1 65/16/1
f 71/17/1 64/17/1 70/17/1
f 71/16/1 65/16/1 64/16/1
f 72/16/1 66/16/1 71/16/1
f 74/16/1 68/16/1 67/16/1
f 75/16/1 71/16/1 70/16/1
f 75/16/1 72/16/1 71/16/1
f 76/16/1 72/16/1 75/16/1
f 77/17/1 73/17/1 72/17/1
f 77/16/1 72/16/1 76/16/1
f 78/16/1 74/16/1 73/16/1
f 78/17/1 73/17/1 77/17/1
f 79/16/1 68/16/1 74/16/1
f 79/16/1 74/16/1 78/16/1
f 80/16/1 68/16/1 79/16/1
f 81/17/1 76/17/1 75/17/1
f 81/16/1 75/16/1 70/16/1
f 82/16/1 77/16/1 76/16/1
f 82/17/1 76/17/1 81/17/1
f 82/16/1 78/16/1 77/16/1
f 82/16/1 79/16/1 78/16/1
f 83/16/1 81/16/1 70/16/1
f 83/16/1 82/16/1 81/16/1
f 84/16/1 82/16/1 83/16/1
f 85/17/1 84/17/1 83/17/1
f 86/16/1 82/16/1 84/16/1
f 86/17/1 84/17/1 85/17/1
f 87/16/1 79/16/1 82/16/1
f 87/16/1 82/16/1 86/16/1
f 88/16/1 79/16/1 87/16/1
f 89/16/1 87/16/1 86/16/1
f 89/17/1 88/17/1 87/17/1
f 90/16/1 79/16/1 88/16/1
f 90/17/1 88/17/1 89/17/1
f 91/16/1 90/16/1 89/16/1
f 91/16/1 79/16/1 90/16/1
f 94/16/1 89/16/1 86/16/1
f 94/16/1 92/16/1 91/16/1
f 94/16/1 91/16/1 89/16/1
f 95/16/1 92/16/1 94/16/1
f 96/16/1 92/16/1 95/16/1
f 97/16/1 92/16/1 96/16/1
f 98/16/1 92/16/1 97/16/1
f 99/10/1 94/10/1 93/10/1
f 100/16/1 97/16/1 96/16/1
f 101/16/1 97/16/1 100/16/1
f 102/10/1 99/10/1 93/10/1
f 104/10/1 102/10/1 93/10/1
f 104/16/1 103/16/1 102/16/1
f 105/16/1 103/16/1 104/16/1
f 108/10/1 104/10/1 93/10/1
f 109/10/1 104/10/1 108/10/1
f 111/16/1 107/16/1 106/16/1
f 112/16/1 107/16/1 111/16/1
f 115/16/1 111/16/1 110/16/1
f 116/16/1 111/16/1 115/16/1
f 117/10/1 114/10/1 113/10/1
f 118/10/1 114/10/1 117/10/1
f 121/17/1 120/17/1 119/17/1
f 122/17/1 120/17/1 121/17/1
f 123/16/1 122/16/1 121/16/1
f 124/16/1 123/16/1 121/16/1
f 125/16/1 124/16/1 121/16/1
f 128/16/1 125/16/1 121/16/1
f 129/16/1 127/16/1 126/16/1
f 130/16/1 127/16/1 129/16/1
f 133/16/1 128/16/1 121/16/1
f 134/16/1 132/16/1 131/16/1
f 135/16/1 132/16/1 134/16/1
f 136/16/1 133/16/1 121/16/1
f 137/16/1 133/16/1 136/16/1
f 139/11/1 135/11/1 134/11/1
f 140/11/1 135/11/1 139/11/1
f 141/16/1 138/16/1 137/16/1
f 142/16/1 138/16/1 141/16/1
f 143/16/1 140/16/1 139/16/1
f 144/16/1 140/16/1 143/16/1
f 145/10/1 142/10/1 141/10/1
f 146/10/1 142/10/1 145/10/1
f 150/16/1 147/16/1 146/16/1
f 151/16/1 147/16/1 150/16/1
f 152/16/1 147/16/1 151/16/1
f 153/16/1 149/16/1 148/16/1
f 154/16/1 149/16/1 153/16/1
f 155/13/1 151/13/1 150/13/1
f 156/13/1 151/13/1 155/13/1
f 157/11/1 154/11/1 153/11/1
f 158/11/1 154/11/1 157/11/1
f 161/16/1 160/16/1 159/16/1
f 162/16/1 160/16/1 161/16/1
f 168/10/1 166/10/1 165/10/1
f 169/10/1 166/10/1 168/10/1
f 170/10/1 164/10/1 163/10/1
f 171/10/1 168/10/1 167/10/1
f 172/10/1 168/10/1 171/10/1
f 173/10/1 170/10/1 163/10/1
f 173/10/1 171/10/1 170/10/1
f 174/10/1 171/10/1 173/10/1
f 175/10/1 173/10/1 163/10/1
f 176/10/1 173/10/1 175/10/1
f 181/6/1 178/6/1 177/6/1
f 182/5/1 179/5/1 178/5/1
f 182/6/1 178/6/1 181/6/1
f 183/6/1 180/6/1 179/6/1
f 183/5/1 179/5/1 182/5/1
f 184/6/1 180/6/1 183/6/1
f 187/5/1 186/5/1 185/5/1
f 188/5/1 186/5/1 187/5/1
f 191/16/1 190/16/1 189/16/1
f 192/16/1 190/16/1 191/16/1
f 197/10/1 194/10/1 193/10/1
f 197/10/1 195/10/1 194/10/1
f 198/10/1 195/10/1 197/10/1
f 200/10/1 197/10/1 196/10/1
f 201/10/1 197/10/1 200/10/1
f 203/10/1 200/10/1 199/10/1
f 204/10/1 200/10/1 203/10/1
f 205/17/1 203/17/1 202/17/1
f 205/17/1 204/17/1 203/17/1
f 206/17/1 204/17/1 205/17/1
f 207/17/1 204/17/1 206/17/1
f 208/16/1 206/16/1 205/16/1
f 209/16/1 206/16/1 208/16/1
f 212/3/1 211/3/1 210/3/1
f 213/3/1 211/3/1 212/3/1
f 216/5/1 215/5/1 214/5/1
f 217/5/1 215/5/1 216/5/1
f 221/10/1 219/10/1 218/10/1
f 222/10/1 219/10/1 221/10/1
f 223/10/1 221/10/1 220/10/1
f 224/10/1 221/10/1 223/10/1
f 226/17/1 224/17/1 223/17/1
f 227/17/1 224/17/1 226/17/1
f 229/16/1 226/16/1 225/16/1
f 229/16/1 227/16/1 226/16/1
f 230/17/1 229/17/1 228/17/1
f 231/16/1 227/16/1 229/16/1
f 231/17/1 229/17/1 230/17/1
f 232/16/1 227/16/1 231/16/1
f 233/16/1 227/16/1 232/16/1
f 234/16/1 231/16/1 230/16/1
f 234/16/1 232/16/1 231/16/1
f 235/16/1 232/16/1 234/16/1
f 238/15/1 237/15/1 236/15/1
f 239/15/1 237/15/1 238/15/1
f 242/10/1 241/10/1 240/10/1
f 243/10/1 241/10/1 242/10/1
f 244/17/1 243/17/1 242/17/1
f 245/17/1 243/17/1 244/17/1
f 249/16/1 247/16/1 246/16/1
f 250/16/1 247/16/1 249/16/1
f 251/16/1 249/16/1 248/16/1
f 252/16/1 249/16/1 251/16/1
f 255/10/1 254/10/1 253/10/1
f 256/10/1 254/10/1 255/10/1
f 257/16/1 256/16/1 255/16/1
f 259/16/1 256/16/1 257/16/1
f 260/16/1 256/16/1 259/16/1
f 261/16/1 259/16/1 258/16/1
f 262/16/1 259/16/1 261/16/1
f 266/5/1 264/5/1 263/5/1
f 267/5/1 264/5/1 266/5/1
f 268/5/1 266/5/1 265/5/1
f 269/5/1 266/5/1 268/5/1
f 271/5/1 270/5/1 269/5/1
f 272/5/1 270/5/1 271/5/1
f 275/16/1 274/16/1 273/16/1
f 276/16/1 274/16/1 275/16/1
f 277/17/1 276/17/1 275/17/1
f 278/17/1 276/17/1 277/17/1
f 282/3/1 280/3/1 279/3/1
f 283/3/1 280/3/1 282/3/1
f 284/5/1 282/5/1 281/5/1
f 285/5/1 282/5/1 284/5/1
f 288/5/1 287/5/1 286/5/1
f 289/5/1 287/5/1 288/5/1
f 291/5/1 290/5/1 289/5/1
f 292/5/1 290/5/1 291/5/1
f 295/16/1 294/16/1 293/16/1
f 296/16/1 294/16/1 295/16/1
f 299/16/1 298/16/1 297/16/1
f 300/16/1 298/16/1 299/16/1
f 303/17/1 302/17/1 301/17/1
f 304/17/1 303/17/1 301/17/1
f 305/17/1 303/17/1 304/17/1
f 308/16/1 307/16/1 306/16/1
f 309/16/1 307/16/1 308/16/1
f 312/10/1 311/10/1 310/10/1
f 313/10/1 311/10/1 312/10/1
f 316/17/1 315/17/1 314/17/1
f 317/17/1 315/17/1 316/17/1
f 318/16/1 317/16/1 316/16/1
f 319/16/1 317/16/1 318/16/1
f 320/17/1 319/17/1 318/17/1
f 321/16/1 317/16/1 319/16/1
f 321/17/1 319/17/1 320/17/1
f 322/16/1 317/16/1 321/16/1
f 324/16/1 322/16/1 321/16/1
f 324/16/1 323/16/1 322/16/1
f 324/16/1 321/16/1 320/16/1
f 325/16/1 323/16/1 324/16/1
f 326/16/1 323/16/1 325/16/1
f 327/16/1 323/16/1 326/16/1
f 328/16/1 323/16/1 327/16/1
f 329/16/1 323/16/1 328/16/1
f 330/16/1 326/16/1 325/16/1
f 331/16/1 326/16/1 330/16/1
f 332/17/1 331/17/1 330/17/1
f 333/17/1 331/17/1 332/17/1
f 334/16/1 333/16/1 332/16/1
f 335/16/1 333/16/1 334/16/1
f 338/17/1 337/17/1 336/17/1
f 339/17/1 337/17/1 338/17/1
f 340/16/1 339/16/1 338/16/1
f 341/16/1 339/16/1 340/16/1
f 342/16/1 340/16/1 338/16/1
f 343/17/1 341/17/1 340/17/1
f 343/16/1 340/16/1 342/16/1
f 344/16/1 339/16/1 341/16/1
f 344/17/1 341/17/1 343/17/1
f 345/16/1 339/16/1 344/16/1
f 346/17/2 347/17/2 348/17/2
f 348/17/2 347/17/2 349/17/2
f 348/16/2 349/16/2 350/16/2
f 350/16/2 349/16/2 351/16/2
f 352/16/2 353/16/2 355/16/2
f 355/16/2 353/16/2 356/16/2
f 354/16/2 355/16/2 357/16/2
f 357/16/2 355/16/2 358/16/2
f 359/16/2 360/16/2 361/16/2
f 361/16/2 360/16/2 362/16/2
f 363/16/2 364/16/2 365/16/2
f 365/16/2 364/16/2 366/16/2
f 367/17/2 368/17/2 369/17/2
f 369/17/2 368/17/2 370/17/2
f 369/16/2 370/16/2 371/16/2
f 369/16/2 371/16/2 373/16/2
f 371/16/2 372/16/2 373/16/2
f 373/16/2 372/16/2 374/16/2
f 373/17/2 374/17/2 375/17/2
f 374/16/2 372/16/2 376/16/2
f 375/17/2 374/17/2 376/17/2
f 376/16/2 372/16/2 377/16/2
f 375/16/2 376/16/2 378/16/2
f 376/16/2 377/16/2 378/16/2
f 378/16/2 377/16/2 379/16/2
f 379/16/2 377/16/2 380/16/2
f 380/16/2 377/16/2 381/16/2
f 381/16/2 377/16/2 382/16/2
f 382/16/2 377/16/2 383/16/2
f 378/17/2 379/17/2 384/17/2
f 384/17/2 379/17/2 385/17/2
f 384/16/2 385/16/2 386/16/2
f 386/16/2 385/16/2 387/16/2
f 388/10/2 389/10/2 390/10/2
f 390/10/2 389/10/2 391/10/2
f 392/17/2 393/17/2 394/17/2
f 392/17/2 394/17/2 395/17/2
f 395/17/2 394/17/2 396/17/2
f 397/16/2 398/16/2 399/16/2
f 399/16/2 398/16/2 400/16/2
f 400/16/2 401/16/2 402/16/2
f 402/16/2 401/16/2 403/16/2
f 404/3/2 405/3/2 407/3/2
f 407/3/2 405/3/2 408/3/2
f 406/5/2 407/5/2 409/5/2
f 409/5/2 407/5/2 410/5/2
f 411/5/2 412/5/2 413/5/2
f 413/5/2 412/5/2 414/5/2
f 414/5/2 415/5/2 416/5/2
f 416/5/2 415/5/2 417/5/2
f 418/16/2 419/16/2 420/16/2
f 420/16/2 419/16/2 421/16/2
f 422/16/2 423/16/2 424/16/2
f 424/16/2 423/16/2 425/16/2
f 426/5/2 427/5/2 429/5/2
f 429/5/2 427/5/2 430/5/2
f 428/5/2 429/5/2 431/5/2
f 431/5/2 429/5/2 432/5/2
f 432/5/2 433/5/2 434/5/2
f 434/5/2 433/5/2 435/5/2
f 436/16/2 437/16/2 438/16/2
f 438/16/2 437/16/2 439/16/2
f 438/17/2 439/17/2 440/17/2
f 440/17/2 439/17/2 441/17/2
f 442/10/2 443/10/2 444/10/2
f 444/10/2 443/10/2 445/10/2
f 444/16/2 445/16/2 446/16/2
f 446/16/2 445/16/2 448/16/2
f 448/16/2 445/16/2 449/16/2
f 447/16/2 448/16/2 450/16/2
f 450/16/2 448/16/2 451/16/2
f 452/15/2 453/15/2 454/15/2
f 454/15/2 453/15/2 455/15/2
f 456/10/2 457/10/2 458/10/2
f 458/10/2 457/10/2 459/10/2
f 458/17/2 459/17/2 460/17/2
f 460/17/2 459/17/2 461/17/2
f 462/16/2 463/16/2 465/16/2
f 465/16/2 463/16/2 466/16/2
f 464/16/2 465/16/2 467/16/2
f 467/16/2 465/16/2 468/16/2
f 469/3/2 470/3/2 471/3/2
f 471/3/2 470/3/2 472/3/2
f 473/5/2 474/5/2 475/5/2
f 475/5/2 474/5/2 476/5/2
f 477/10/2 478/10/2 480/10/2
f 480/10/2 478/10/2 481/10/2
f 481/10/2 478/10/2 482/10/2
f 479/10/2 480/10/2 483/10/2
f 480/10/2 481/10/2 483/10/2
f 483/10/2 481/10/2 484/10/2
f 484/10/2 481/10/2 485/10/2
f 484/17/2 485/17/2 487/17/2
f 487/17/2 485/17/2 488/17/2
f 486/16/2 487/16/2 489/16/2
f 487/16/2 488/16/2 489/16/2
f 489/16/2 488/16/2 490/16/2
f 490/16/2 488/16/2 491/16/2
f 491/16/2 488/16/2 492/16/2
f 489/17/2 490/17/2 493/17/2
f 490/16/2 491/16/2 494/16/2
f 493/17/2 490/17/2 494/17/2
f 491/17/2 492/17/2 495/17/2
f 494/16/2 491/16/2 495/16/2
f 495/17/2 492/17/2 496/17/2
f 493/16/2 494/16/2 497/16/2
f 494/16/2 495/16/2 497/16/2
f 497/16/2 495/16/2 498/16/2
f 499/6/2 500/6/2 503/6/2
f 500/5/2 501/5/2 504/5/2
f 503/6/2 500/6/2 504/6/2
f 501/6/2 502/6/2 505/6/2
f 504/5/2 501/5/2 505/5/2
f 505/6/2 502/6/2 506/6/2
f 507/5/2 508/5/2 509/5/2
f 509/5/2 508/5/2 510/5/2
f 511/10/2 512/10/2 514/10/2
f 512/10/2 513/10/2 514/10/2
f 514/10/2 513/10/2 515/10/2
f 511/10/2 514/10/2 517/10/2
f 517/10/2 514/10/2 518/10/2
f 516/10/2 517/10/2 519/10/2
f 519/10/2 517/10/2 520/10/2
f 519/17/2 520/17/2 522/17/2
f 520/17/2 521/17/2 522/17/2
f 522/17/2 521/17/2 523/17/2
f 524/17/2 525/17/2 526/17/2
f 526/17/2 525/17/2 527/17/2
f 526/16/2 527/16/2 528/16/2
f 526/16/2 528/16/2 529/16/2
f 526/16/2 529/16/2 530/16/2
f 530/16/2 529/16/2 531/16/2
f 530/17/2 531/17/2 532/17/2
f 532/17/2 531/17/2 533/17/2
f 534/16/2 535/16/2 536/16/2
f 536/16/2 535/16/2 537/16/2
f 532/16/2 533/16/2 540/16/2
f 532/16/2 540/16/2 541/16/2
f 532/16/2 541/16/2 542/16/2
f 542/16/2 541/16/2 543/16/2
f 542/17/2 543/17/2 544/17/2
f 544/17/2 543/17/2 545/17/2
f 538/13/2 539/13/2 547/13/2
f 547/13/2 539/13/2 548/13/2
f 547/16/2 548/16/2 549/16/2
f 549/16/2 548/16/2 550/16/2
f 549/13/2 550/13/2 551/13/2
f 551/13/2 550/13/2 552/13/2
f 545/16/2 546/16/2 553/16/2
f 553/16/2 546/16/2 554/16/2
f 553/10/2 554/10/2 555/10/2
f 555/10/2 554/10/2 556/10/2
f 557/10/2 558/10/2 560/10/2
f 560/10/2 558/10/2 561/10/2
f 559/10/2 560/10/2 562/10/2
f 562/10/2 560/10/2 563/10/2
f 564/17/2 565/17/2 566/17/2
f 566/17/2 565/17/2 567/17/2
f 566/16/2 567/16/2 568/16/2
f 568/16/2 567/16/2 569/16/2
f 568/17/2 569/17/2 570/17/2
f 570/17/2 569/17/2 571/17/2
f 570/16/2 571/16/2 572/16/2
f 574/16/2 575/16/2 576/16/2
f 576/16/2 575/16/2 577/16/2
f 572/16/2 573/16/2 578/16/2
f 576/17/2 577/17/2 581/17/2
f 581/17/2 577/17/2 582/17/2
f 578/16/2 579/16/2 583/16/2
f 580/16/2 581/16/2 584/16/2
f 584/16/2 581/16/2 585/16/2
f 583/16/2 584/16/2 585/16/2
f 585/16/2 581/16/2 586/16/2
f 570/16/2 572/16/2 587/16/2
f 572/16/2 578/16/2 587/16/2
f 583/16/2 585/16/2 587/16/2
f 578/16/2 583/16/2 587/16/2
f 587/16/2 585/16/2 588/16/2
f 587/17/2 588/17/2 589/17/2
f 588/16/2 585/16/2 590/16/2
f 589/17/2 588/17/2 590/17/2
f 589/16/2 590/16/2 591/16/2
f 590/16/2 585/16/2 592/16/2
f 591/16/2 590/16/2 592/16/2
f 592/16/2 585/16/2 593/16/2
f 592/16/2 593/16/2 595/16/2
f 593/13/2 594/13/2 596/13/2
f 595/16/2 593/16/2 596/16/2
f 596/13/2 594/13/2 597/13/2
f 592/16/2 595/16/2 598/16/2
f 598/16/2 595/16/2 599/16/2
f 600/16/2 601/16/2 605/16/2
f 605/16/2 601/16/2 606/16/2
f 602/16/2 603/16/2 607/16/2
f 607/16/2 603/16/2 608/16/2
f 604/10/2 605/10/2 609/10/2
f 604/10/2 609/10/2 612/10/2
f 612/10/2 609/10/2 613/10/2
f 610/16/2 611/16/2 614/16/2
f 614/16/2 611/16/2 615/16/2
f 616/17/2 617/17/2 618/17/2
f 618/17/2 617/17/2 619/17/2
f 618/16/2 619/16/2 620/16/2
f 620/16/2 619/16/2 621/16/2
f 618/16/2 620/16/2 622/16/2
f 620/17/2 621/17/2 622/17/2
f 621/16/2 619/16/2 623/16/2
f 622/17/2 621/17/2 623/17/2
f 618/16/2 622/16/2 624/16/2
f 622/16/2 623/16/2 624/16/2
f 624/16/2 623/16/2 625/16/2
f 625/16/2 623/16/2 626/16/2
f 626/16/2 623/16/2 627/16/2
f 623/16/2 619/16/2 628/16/2
f 627/16/2 623/16/2 628/16/2
f 628/16/2 619/16/2 629/16/2
f 626/17/2 627/17/2 630/17/2
f 625/16/2 626/16/2 630/16/2
f 627/16/2 628/16/2 631/16/2
f 630/17/2 627/17/2 631/17/2
f 625/16/2 630/16/2 632/16/2
f 630/16/2 631/16/2 632/16/2
f 632/16/2 631/16/2 633/16/2
f 631/16/2 628/16/2 634/16/2
f 633/16/2 631/16/2 634/16/2
f 634/16/2 628/16/2 635/16/2
f 633/16/2 634/16/2 636/16/2
f 636/16/2 634/16/2 637/16/2
f 638/16/2 639/16/2 641/16/2
f 641/16/2 639/16/2 642/16/2
f 640/16/2 641/16/2 642/16/2
f 642/16/2 639/16/2 643/16/2
f 640/16/2 642/16/2 644/16/2
f 644/16/2 642/16/2 645/16/2
f 642/11/2 643/11/2 646/11/2
f 645/16/2 642/16/2 646/16/2
f 646/11/2 643/11/2 647/11/2
f 645/16/2 646/16/2 649/16/2
f 649/16/2 646/16/2 650/16/2
f 650/16/2 646/16/2 651/16/2
f 648/16/2 649/16/2 653/16/2
f 649/5/2 650/5/2 654/5/2
f 653/16/2 649/16/2 654/16/2
f 650/16/2 651/16/2 655/16/2
f 654/5/2 650/5/2 655/5/2
f 651/13/2 652/13/2 656/13/2
f 655/16/2 651/16/2 656/16/2
f 656/13/2 652/13/2 657/13/2
f 654/16/2 655/16/2 658/16/2
f 658/16/2 655/16/2 659/16/2
f 663/17/3 661/17/3 660/17/3
f 663/16/3 662/16/3 661/16/3
f 664/16/3 662/16/3 663/16/3
f 667/17/3 663/17/3 660/17/3
f 667/17/3 664/17/3 663/17/3
f 668/17/3 664/17/3 667/17/3
f 669/17/3 664/17/3 668/17/3
f 670/16/3 666/16/3 665/16/3
f 671/16/3 666/16/3 670/16/3
f 672/5/3 669/5/3 668/5/3
f 672/5/3 670/5/3 669/5/3
f 673/5/3 670/5/3 672/5/3
f 674/5/3 670/5/3 673/5/3
f 675/5/3 670/5/3 674/5/3
f 676/5/3 674/5/3 673/5/3
f 677/5/3 674/5/3 676/5/3
f 681/5/3 679/5/3 678/5/3
f 682/5/3 679/5/3 681/5/3
f 685/5/3 682/5/3 681/5/3
f 685/5/3 683/5/3 682/5/3
f 685/5/3 681/5/3 680/5/3
f 686/5/3 683/5/3 685/5/3
f 687/5/3 683/5/3 686/5/3
f 688/17/3 685/17/3 684/17/3
f 688/17/3 686/17/3 685/17/3
f 689/17/3 686/17/3 688/17/3
f 690/17/3 686/17/3 689/17/3
f 691/17/3 686/17/3 690/17/3
f 692/17/3 688/17/3 684/17/3
f 693/16/3 689/16/3 688/16/3
f 693/17/3 688/17/3 692/17/3
f 694/17/3 690/17/3 689/17/3
f 694/16/3 689/16/3 693/16/3
f 695/16/3 691/16/3 690/16/3
f 695/17/3 690/17/3 694/17/3
f 696/17/3 686/17/3 691/17/3
f 696/16/3 691/16/3 695/16/3
f 697/17/3 686/17/3 696/17/3
f 708/17/3 699/17/3 698/17/3
f 709/16/3 700/16/3 699/16/3
f 709/17/3 699/17/3 708/17/3
f 710/17/3 701/17/3 700/17/3
f 710/16/3 700/16/3 709/16/3
f 711/16/3 702/16/3 701/16/3
f 711/17/3 701/17/3 710/17/3
f 712/17/3 703/17/3 702/17/3
f 712/16/3 702/16/3 711/16/3
f 713/16/3 704/16/3 703/16/3
f 713/17/3 703/17/3 712/17/3
f 714/17/3 705/17/3 704/17/3
f 714/16/3 704/16/3 713/16/3
f 715/17/3 705/17/3 714/17/3
f 717/10/3 707/10/3 706/10/3
f 718/10/3 707/10/3 717/10/3
f 719/10/3 707/10/3 718/10/3
f 721/16/3 716/16/3 715/16/3
f 722/16/3 716/16/3 721/16/3
f 723/10/3 718/10/3 717/10/3
f 723/16/3 716/16/3 722/16/3
f 723/10/3 717/10/3 716/10/3
f 724/10/3 718/10/3 723/10/3
f 725/16/3 719/16/3 718/16/3
f 725/10/3 718/10/3 724/10/3
f 726/10/3 720/10/3 719/10/3
f 726/16/3 719/16/3 725/16/3
f 727/10/3 720/10/3 726/10/3
f 728/10/3 720/10/3 727/10/3
f 733/5/3 722/5/3 721/5/3
f 734/5/3 722/5/3 733/5/3
f 735/16/3 724/16/3 723/16/3
f 736/16/3 724/16/3 735/16/3
f 737/16/3 726/16/3 725/16/3
f 737/16/3 727/16/3 726/16/3
f 738/16/3 727/16/3 737/16/3
f 739/16/3 730/16/3 729/16/3
f 742/3/3 732/3/3 731/3/3
f 743/3/3 732/3/3 742/3/3
f 746/5/3 735/5/3 734/5/3
f 747/5/3 735/5/3 746/5/3
f 748/16/3 724/16/3 736/16/3
f 749/16/3 724/16/3 748/16/3
f 750/16/3 724/16/3 749/16/3
f 751/9/3 738/9/3 737/9/3
f 752/17/3 729/17/3 728/17/3
f 752/16/3 739/16/3 729/16/3
f 753/17/3 740/17/3 739/17/3
f 753/16/3 739/16/3 752/16/3
f 754/16/3 741/16/3 740/16/3
f 754/17/3 740/17/3 753/17/3
f 755/16/3 741/16/3 754/16/3
f 757/5/3 744/5/3 743/5/3
f 758/5/3 744/5/3 757/5/3
f 759/5/3 746/5/3 745/5/3
f 760/5/3 746/5/3 759/5/3
f 762/3/3 759/3/3 758/3/3
f 763/3/3 759/3/3 762/3/3
f 766/5/3 762/5/3 761/5/3
f 767/5/3 762/5/3 766/5/3
f 768/5/3 764/5/3 763/5/3
f 769/5/3 764/5/3 768/5/3
f 772/15/3 751/15/3 750/15/3
f 772/15/3 750/15/3 749/15/3
f 773/15/3 751/15/3 772/15/3
f 774/9/3 738/9/3 751/9/3
f 774/15/3 751/15/3 773/15/3
f 775/10/3 753/10/3 752/10/3
f 775/17/3 752/17/3 728/17/3
f 776/16/3 756/16/3 755/16/3
f 776/10/3 753/10/3 775/10/3
f 776/16/3 755/16/3 754/16/3
f 776/16/3 754/16/3 753/16/3
f 777/16/3 756/16/3 776/16/3
f 778/16/3 756/16/3 777/16/3
f 779/16/3 756/16/3 778/16/3
f 780/3/3 766/3/3 765/3/3
f 781/3/3 766/3/3 780/3/3
f 783/5/3 770/5/3 769/5/3
f 784/5/3 770/5/3 783/5/3
f 785/16/3 773/16/3 772/16/3
f 785/16/3 772/16/3 771/16/3
f 786/9/3 738/9/3 774/9/3
f 787/16/3 727/16/3 738/16/3
f 787/9/3 738/9/3 786/9/3
f 788/17/3 775/17/3 728/17/3
f 788/16/3 776/16/3 775/16/3
f 789/17/3 777/17/3 776/17/3
f 789/16/3 776/16/3 788/16/3
f 790/16/3 778/16/3 777/16/3
f 790/17/3 777/17/3 789/17/3
f 791/16/3 778/16/3 790/16/3
f 792/5/3 783/5/3 782/5/3
f 793/16/3 785/16/3 784/16/3
f 793/5/3 783/5/3 792/5/3
f 793/16/3 784/16/3 783/16/3
f 794/16/3 773/16/3 785/16/3
f 794/16/3 785/16/3 793/16/3
f 795/16/3 773/16/3 794/16/3
f 796/16/3 787/16/3 786/16/3
f 797/10/3 728/10/3 727/10/3
f 798/17/3 788/17/3 728/17/3
f 798/10/3 728/10/3 797/10/3
f 799/17/3 788/17/3 798/17/3
f 809/16/3 793/16/3 792/16/3
f 809/16/3 794/16/3 793/16/3
f 810/10/3 796/10/3 795/10/3
f 810/10/3 795/10/3 794/10/3
f 810/16/3 794/16/3 809/16/3
f 811/16/3 787/16/3 796/16/3
f 811/10/3 796/10/3 810/10/3
f 812/16/3 727/16/3 787/16/3
f 812/16/3 787/16/3 811/16/3
f 812/10/3 797/10/3 727/10/3
f 813/10/3 797/10/3 812/10/3
f 814/17/3 801/17/3 800/17/3
f 815/16/3 802/16/3 801/16/3
f 815/17/3 801/17/3 814/17/3
f 816/17/3 803/17/3 802/17/3
f 816/16/3 802/16/3 815/16/3
f 817/16/3 806/16/3 805/16/3
f 817/17/3 803/17/3 816/17/3
f 817/16/3 805/16/3 804/16/3
f 817/16/3 804/16/3 803/16/3
f 818/17/3 807/17/3 806/17/3
f 818/16/3 806/16/3 817/16/3
f 819/16/3 809/16/3 808/16/3
f 819/17/3 807/17/3 818/17/3
f 819/16/3 808/16/3 807/16/3
f 820/16/3 809/16/3 819/16/3
f 821/10/3 812/10/3 811/10/3
f 822/10/3 812/10/3 821/10/3
f 833/17/3 824/17/3 823/17/3
f 834/16/3 825/16/3 824/16/3
f 834/17/3 824/17/3 833/17/3
f 835/17/3 826/17/3 825/17/3
f 835/16/3 825/16/3 834/16/3
f 836/16/3 827/16/3 826/16/3
f 836/17/3 826/17/3 835/17/3
f 837/16/3 827/16/3 836/16/3
f 840/16/3 829/16/3 828/16/3
f 841/16/3 829/16/3 840/16/3
f 842/16/3 831/16/3 830/16/3
f 843/10/3 832/10/3 831/10/3
f 843/16/3 831/16/3 842/16/3
f 844/10/3 832/10/3 843/10/3
f 849/16/3 839/16/3 838/16/3
f 850/16/3 839/16/3 849/16/3
f 851/16/3 839/16/3 850/16/3
f 852/10/3 845/10/3 844/10/3
f 852/10/3 844/10/3 843/10/3
f 853/10/3 845/10/3 852/10/3
f 855/6/3 848/6/3 847/6/3
f 855/6/3 847/6/3 846/6/3
f 856/6/3 848/6/3 855/6/3
f 857/6/3 848/6/3 856/6/3
f 858/6/3 848/6/3 857/6/3
f 859/6/3 848/6/3 858/6/3
f 862/6/3 855/6/3 854/6/3
f 863/5/3 856/5/3 855/5/3
f 863/6/3 855/6/3 862/6/3
f 864/5/3 856/5/3 863/5/3
f 865/3/3 857/3/3 856/3/3
f 865/5/3 858/5/3 857/5/3
f 866/5/3 858/5/3 865/5/3
f 869/16/3 861/16/3 860/16/3
f 870/16/3 861/16/3 869/16/3
f 871/1/3 864/1/3 863/1/3
f 871/5/3 863/5/3 862/5/3
f 872/5/3 856/5/3 864/5/3
f 872/1/3 864/1/3 871/1/3
f 873/3/3 865/3/3 856/3/3
f 873/5/3 856/5/3 872/5/3
f 874/3/3 865/3/3 873/3/3
f 877/3/3 868/3/3 867/3/3
f 878/3/3 868/3/3 877/3/3
f 880/8/3 870/8/3 869/8/3
f 881/8/3 870/8/3 880/8/3
f 882/5/3 871/5/3 862/5/3
f 882/5/3 872/5/3 871/5/3
f 882/5/3 873/5/3 872/5/3
f 882/5/3 874/5/3 873/5/3
f 883/5/3 874/5/3 882/5/3
f 884/3/3 875/3/3 874/3/3
f 887/3/3 878/3/3 877/3/3
f 887/3/3 877/3/3 876/3/3
f 888/6/3 883/6/3 882/6/3
f 889/5/3 874/5/3 883/5/3
f 889/6/3 883/6/3 888/6/3
f 890/5/3 874/5/3 889/5/3
f 891/3/3 885/3/3 884/3/3
f 891/3/3 884/3/3 874/3/3
f 892/3/3 885/3/3 891/3/3
f 893/5/3 887/5/3 886/5/3
f 894/3/3 878/3/3 887/3/3
f 894/5/3 887/5/3 893/5/3
f 895/1/3 890/1/3 889/1/3
f 895/5/3 889/5/3 888/5/3
f 896/5/3 874/5/3 890/5/3
f 896/1/3 890/1/3 895/1/3
f 897/5/3 874/5/3 896/5/3
f 898/3/3 891/3/3 874/3/3
f 898/5/3 874/5/3 897/5/3
f 899/3/3 891/3/3 898/3/3
f 900/3/3 878/3/3 894/3/3
f 901/3/3 878/3/3 900/3/3
f 902/15/3 879/15/3 878/15/3
f 902/3/3 878/3/3 901/3/3
f 903/15/3 879/15/3 902/15/3
f 906/5/3 895/5/3 888/5/3
f 906/5/3 897/5/3 896/5/3
f 906/5/3 896/5/3 895/5/3
f 907/5/3 897/5/3 906/5/3
f 908/3/3 898/3/3 897/3/3
f 910/3/3 902/3/3 901/3/3
f 911/3/3 902/3/3 910/3/3
f 912/8/3 905/8/3 904/8/3
f 913/8/3 905/8/3 912/8/3
f 914/6/3 907/6/3 906/6/3
f 915/5/3 897/5/3 907/5/3
f 915/6/3 907/6/3 914/6/3
f 916/3/3 908/3/3 897/3/3
f 916/5/3 897/5/3 915/5/3
f 917/5/3 909/5/3 908/5/3
f 917/3/3 908/3/3 916/3/3
f 918/5/3 909/5/3 917/5/3
f 920/16/3 913/16/3 912/16/3
f 921/16/3 913/16/3 920/16/3
f 922/6/3 916/6/3 915/6/3
f 922/6/3 919/6/3 918/6/3
f 922/6/3 918/6/3 917/6/3
f 922/6/3 917/6/3 916/6/3
f 923/6/3 919/6/3 922/6/3
f 924/6/3 919/6/3 923/6/3
f 925/6/3 919/6/3 924/6/3
f 934/16/3 928/16/3 927/16/3
f 934/16/3 927/16/3 926/16/3
f 935/16/3 928/16/3 934/16/3
f 936/16/3 928/16/3 935/16/3
f 937/16/3 928/16/3 936/16/3
f 939/17/3 930/17/3 929/17/3
f 940/16/3 931/16/3 930/16/3
f 940/17/3 930/17/3 939/17/3
f 940/16/3 933/16/3 932/16/3
f 940/16/3 932/16/3 931/16/3
f 941/16/3 933/16/3 940/16/3
f 942/16/3 936/16/3 935/16/3
f 943/16/3 936/16/3 942/16/3
f 944/16/3 938/16/3 937/16/3
f 945/16/3 938/16/3 944/16/3
f 952/16/3 947/16/3 946/16/3
f 953/16/3 947/16/3 952/16/3
f 954/16/3 949/16/3 948/16/3
f 955/16/3 949/16/3 954/16/3
f 956/16/3 951/16/3 950/16/3
f 957/16/3 951/16/3 956/16/3
f 959/16/3 956/16/3 955/16/3
f 960/16/3 956/16/3 959/16/3
f 961/16/3 958/16/3 957/16/3
f 962/16/3 958/16/3 961/16/3
f 969/16/3 964/16/3 963/16/3
f 970/16/3 966/16/3 965/16/3
f 971/16/3 966/16/3 970/16/3
f 972/16/3 968/16/3 967/16/3
f 973/16/3 968/16/3 972/16/3
f 974/16/3 964/16/3 969/16/3
f 975/16/3 964/16/3 974/16/3
f 978/16/3 977/16/3 976/16/3
f 979/16/3 977/16/3 978/16/3
f 982/13/3 981/13/3 980/13/3
f 983/13/3 981/13/3 982/13/3
f 988/16/3 985/16/3 984/16/3
f 989/16/3 985/16/3 988/16/3
f 990/16/3 987/16/3 986/16/3
f 991/16/3 987/16/3 990/16/3
f 994/16/3 993/16/3 992/16/3
f 995/16/3 993/16/3 994/16/3
f 999/16/3 998/16/3 997/16/3
f 1002/16/3 999/16/3 997/16/3
f 1002/11/3 1000/11/3 999/11/3
f 1003/13/3 1001/13/3 1000/13/3
f 1003/11/3 1000/11/3 1002/11/3
f 1004/13/3 1001/13/3 1003/13/3
f 1005/17/3 997/17/3 996/17/3
f 1005/16/3 1002/16/3 997/16/3
f 1005/16/3 1004/16/3 1003/16/3
f 1005/16/3 1003/16/3 1002/16/3
f 1006/16/3 1004/16/3 1005/16/3
f 1007/16/3 1004/16/3 1006/16/3
f 1008/16/3 1004/16/3 1007/16/3
f 1009/16/3 1004/16/3 1008/16/3
f 1010/17/3 1005/17/3 996/17/3
f 1010/17/3 1006/17/3 1005/17/3
f 1011/16/3 1007/16/3 1006/16/3
f 1011/17/3 1006/17/3 1010/17/3
f 1012/11/3 1008/11/3 1007/11/3
f 1012/16/3 1007/16/3 1011/16/3
f 1013/13/3 1009/13/3 1008/13/3
f 1013/11/3 1008/11/3 1012/11/3
f 1014/16/3 1012/16/3 1011/16/3
f 1014/13/3 1009/13/3 1013/13/3
f 1014/16/3 1013/16/3 1012/16/3
f 1014/16/3 1011/16/3 1010/16/3
f 1015/13/3 1009/13/3 1014/13/3
f 1016/16/3 1014/16/3 1010/16/3
f 1016/16/3 1015/16/3 1014/16/3
f 1017/16/3 1015/16/3 1016/16/3
f 1018/16/3 1015/16/3 1017/16/3
f 1019/13/3 1017/13/3 1016/13/3
f 1019/11/3 1018/11/3 1017/11/3
f 1020/11/3 1018/11/3 1019/11/3
f 1021/16/3 1016/16/3 1010/16/3
f 1022/16/3 1016/16/3 1021/16/3
f 1023/13/3 1019/13/3 1016/13/3
f 1023/16/3 1016/16/3 1022/16/3
f 1024/16/3 1020/16/3 1019/16/3
f 1024/13/3 1019/13/3 1023/13/3
f 1025/17/3 1022/17/3 1021/17/3
f 1025/16/3 1021/16/3 1010/16/3
f 1026/16/3 1023/16/3 1022/16/3
f 1026/17/3 1022/17/3 1025/17/3
f 1026/16/3 1024/16/3 1023/16/3
f 1027/16/3 1020/16/3 1024/16/3
f 1027/16/3 1024/16/3 1026/16/3
f 1028/17/3 1010/17/3 996/17/3
f 1029/16/3 1026/16/3 1025/16/3
f 1029/17/3 1010/17/3 1028/17/3
f 1029/16/3 1025/16/3 1010/16/3
f 1030/16/3 1026/16/3 1029/16/3
f 1031/17/4 1032/17/4 1038/17/4
f 1036/16/4 1037/16/4 1038/16/4
f 1035/16/4 1036/16/4 1038/16/4
f 1034/16/4 1035/16/4 1038/16/4
f 1033/16/4 1034/16/4 1038/16/4
f 1032/16/4 1033/16/4 1038/16/4
f 1038/16/4 1037/16/4 1039/16/4
f 1039/16/4 1037/16/4 1040/16/4
f 1031/17/4 1038/17/4 1041/17/4
f 1038/17/4 1039/17/4 1041/17/4
f 1041/17/4 1039/17/4 1042/17/4
f 1042/17/4 1039/17/4 1043/17/4
f 1044/17/4 1045/17/4 1047/17/4
f 1045/17/4 1046/17/4 1047/17/4
f 1047/17/4 1046/17/4 1048/17/4
f 1048/17/4 1046/17/4 1049/17/4
f 1049/17/4 1046/17/4 1050/17/4
f 1044/17/4 1047/17/4 1052/17/4
f 1047/16/4 1048/16/4 1053/16/4
f 1052/17/4 1047/17/4 1053/17/4
f 1053/16/4 1048/16/4 1054/16/4
f 1054/16/4 1048/16/4 1055/16/4
f 1048/17/4 1049/17/4 1056/17/4
f 1055/16/4 1048/16/4 1056/16/4
f 1049/16/4 1050/16/4 1057/16/4
f 1056/17/4 1049/17/4 1057/17/4
f 1050/16/4 1051/16/4 1057/16/4
f 1057/16/4 1051/16/4 1058/16/4
f 1058/16/4 1051/16/4 1059/16/4
f 1059/16/4 1051/16/4 1060/16/4
f 1061/10/4 1062/10/4 1066/10/4
f 1062/10/4 1063/10/4 1066/10/4
f 1066/10/4 1063/10/4 1067/10/4
f 1067/10/4 1063/10/4 1068/10/4
f 1064/10/4 1065/10/4 1069/10/4
f 1069/10/4 1065/10/4 1070/10/4
f 1071/10/4 1072/10/4 1073/10/4
f 1073/10/4 1072/10/4 1074/10/4
f 1075/16/4 1076/16/4 1077/16/4
f 1077/16/4 1076/16/4 1078/16/4
f 1079/10/4 1080/10/4 1082/10/4
f 1082/10/4 1080/10/4 1083/10/4
f 1081/10/4 1082/10/4 1085/10/4
f 1085/10/4 1082/10/4 1086/10/4
f 1084/10/4 1085/10/4 1087/10/4
f 1087/10/4 1085/10/4 1088/10/4
f 1089/17/4 1090/17/4 1094/17/4
f 1090/16/4 1091/16/4 1095/16/4
f 1094/17/4 1090/17/4 1095/17/4
f 1095/16/4 1091/16/4 1096/16/4
f 1092/10/4 1093/10/4 1097/10/4
f 1097/10/4 1093/10/4 1098/10/4
f 1098/10/4 1099/10/4 1100/10/4
f 1100/10/4 1099/10/4 1101/10/4
f 1101/10/4 1102/10/4 1104/10/4
f 1102/17/4 1103/17/4 1105/17/4
f 1104/10/4 1102/10/4 1105/10/4
f 1105/17/4 1103/17/4 1106/17/4
f 1107/16/4 1108/16/4 1109/16/4
f 1109/16/4 1108/16/4 1110/16/4
f 1110/16/4 1111/16/4 1112/16/4
f 1112/16/4 1111/16/4 1113/16/4
f 1112/17/4 1113/17/4 1114/17/4
f 1114/17/4 1113/17/4 1115/17/4
f 1114/16/4 1115/16/4 1117/16/4
f 1117/16/4 1115/16/4 1118/16/4
f 1116/16/4 1117/16/4 1123/16/4
f 1123/16/4 1117/16/4 1124/16/4
f 1119/10/4 1120/10/4 1125/10/4
f 1125/10/4 1120/10/4 1126/10/4
f 1121/17/4 1122/17/4 1127/17/4
f 1127/17/4 1122/17/4 1128/17/4
f 1129/16/4 1130/16/4 1131/16/4
f 1131/16/4 1130/16/4 1132/16/4
f 1132/10/4 1133/10/4 1134/10/4
f 1134/10/4 1133/10/4 1135/10/4
f 1135/10/4 1136/10/4 1137/10/4
f 1137/10/4 1136/10/4 1138/10/4
f 1138/10/4 1139/10/4 1142/10/4
f 1139/17/4 1140/17/4 1143/17/4
f 1142/10/4 1139/10/4 1143/10/4
f 1140/16/4 1141/16/4 1144/16/4
f 1143/17/4 1140/17/4 1144/17/4
f 1144/16/4 1141/16/4 1145/16/4
f 1145/16/4 1146/16/4 1147/16/4
f 1144/16/4 1145/16/4 1147/16/4
f 1147/16/4 1146/16/4 1148/16/4
f 1148/16/4 1146/16/4 1150/16/4
f 1149/16/4 1150/16/4 1153/16/4
f 1150/16/4 1146/16/4 1154/16/4
f 1153/16/4 1150/16/4 1154/16/4
f 1154/16/4 1146/16/4 1155/16/4
f 1155/16/4 1146/16/4 1156/16/4
f 1151/10/4 1152/10/4 1157/10/4
f 1152/17/4 1153/17/4 1158/17/4
f 1157/10/4 1152/10/4 1158/10/4
f 1153/16/4 1154/16/4 1159/16/4
f 1158/17/4 1153/17/4 1159/17/4
f 1154/17/4 1155/17/4 1160/17/4
f 1159/16/4 1154/16/4 1160/16/4
f 1160/17/4 1155/17/4 1161/17/4
f 1162/17/4 1163/17/4 1165/17/4
f 1163/16/4 1164/16/4 1166/16/4
f 1165/17/4 1163/17/4 1166/17/4
f 1166/16/4 1164/16/4 1167/16/4
f 1168/16/4 1169/16/4 1172/16/4
f 1172/16/4 1169/16/4 1173/16/4
f 1170/16/4 1171/16/4 1174/16/4
f 1174/16/4 1171/16/4 1175/16/4
f 1176/10/4 1177/10/4 1178/10/4
f 1176/10/4 1178/10/4 1181/10/4
f 1178/10/4 1179/10/4 1181/10/4
f 1181/10/4 1179/10/4 1182/10/4
f 1179/17/4 1180/17/4 1183/17/4
f 1182/10/4 1179/10/4 1183/10/4
f 1183/17/4 1180/17/4 1184/17/4
f 1184/16/4 1185/16/4 1189/16/4
f 1189/16/4 1185/16/4 1190/16/4
f 1187/10/4 1188/10/4 1191/10/4
f 1186/10/4 1187/10/4 1191/10/4
f 1188/17/4 1189/17/4 1192/17/4
f 1191/10/4 1188/10/4 1192/10/4
f 1192/17/4 1189/17/4 1193/17/4
f 1186/10/4 1191/10/4 1194/10/4
f 1194/10/4 1191/10/4 1195/10/4
f 1196/16/4 1197/16/4 1198/16/4
f 1198/16/4 1197/16/4 1199/16/4
f 1200/16/4 1201/16/4 1206/16/4
f 1206/16/4 1201/16/4 1207/16/4
f 1202/16/4 1203/16/4 1211/16/4
f 1204/11/4 1205/11/4 1212/11/4
f 1212/11/4 1205/11/4 1213/11/4
f 1208/16/4 1209/16/4 1215/16/4
f 1215/16/4 1209/16/4 1216/16/4
f 1216/16/4 1209/16/4 1217/16/4
f 1217/16/4 1209/16/4 1218/16/4
f 1210/16/4 1211/16/4 1219/16/4
f 1211/16/4 1203/16/4 1220/16/4
f 1219/16/4 1211/16/4 1220/16/4
f 1220/16/4 1203/16/4 1221/16/4
f 1213/16/4 1214/16/4 1224/16/4
f 1224/16/4 1214/16/4 1225/16/4
f 1222/6/4 1223/6/4 1227/6/4
f 1227/6/4 1223/6/4 1228/6/4
f 1225/10/4 1226/10/4 1229/10/4
f 1224/10/4 1225/10/4 1229/10/4
f 1229/10/4 1226/10/4 1230/10/4
f 1229/16/4 1230/16/4 1232/16/4
f 1230/10/4 1226/10/4 1233/10/4
f 1232/16/4 1230/16/4 1233/16/4
f 1227/5/4 1228/5/4 1234/5/4
f 1234/5/4 1228/5/4 1235/5/4
f 1231/17/4 1232/17/4 1238/17/4
f 1233/10/4 1226/10/4 1239/10/4
f 1232/10/4 1233/10/4 1239/10/4
f 1234/6/4 1235/6/4 1242/6/4
f 1235/5/4 1228/5/4 1243/5/4
f 1242/6/4 1235/6/4 1243/6/4
f 1237/17/4 1238/17/4 1244/17/4
f 1236/17/4 1237/17/4 1244/17/4
f 1244/17/4 1238/17/4 1245/17/4
f 1238/17/4 1232/17/4 1246/17/4
f 1245/17/4 1238/17/4 1246/17/4
f 1232/10/4 1239/10/4 1247/10/4
f 1246/17/4 1232/17/4 1247/17/4
f 1239/10/4 1240/10/4 1247/10/4
f 1247/10/4 1240/10/4 1248/10/4
f 1248/10/4 1240/10/4 1249/10/4
f 1240/16/4 1241/16/4 1250/16/4
f 1249/10/4 1240/10/4 1250/10/4
f 1250/16/4 1241/16/4 1251/16/4
f 1246/17/4 1247/17/4 1252/17/4
f 1247/16/4 1248/16/4 1253/16/4
f 1252/17/4 1247/17/4 1253/17/4
f 1248/10/4 1249/10/4 1254/10/4
f 1253/16/4 1248/16/4 1254/16/4
f 1242/5/4 1243/5/4 1255/5/4
f 1243/5/4 1228/5/4 1256/5/4
f 1255/5/4 1243/5/4 1256/5/4
f 1253/10/4 1254/10/4 1257/10/4
f 1254/10/4 1249/10/4 1258/10/4
f 1257/10/4 1254/10/4 1258/10/4
f 1255/6/4 1256/6/4 1259/6/4
f 1259/6/4 1256/6/4 1260/6/4
f 1257/16/4 1258/16/4 1261/16/4
f 1258/10/4 1249/10/4 1262/10/4
f 1261/16/4 1258/16/4 1262/16/4
f 1262/10/4 1249/10/4 1263/10/4
f 1261/16/4 1262/16/4 1268/16/4
f 1266/16/4 1267/16/4 1271/16/4
f 1264/16/4 1265/16/4 1271/16/4
f 1265/16/4 1266/16/4 1271/16/4
f 1271/16/4 1267/16/4 1272/16/4
f 1268/16/4 1262/16/4 1275/16/4
f 1275/16/4 1262/16/4 1276/16/4
f 1269/16/4 1270/16/4 1277/16/4
f 1277/16/4 1270/16/4 1278/16/4
f 1273/16/4 1274/16/4 1279/16/4
f 1279/16/4 1274/16/4 1280/16/4
f 1281/16/4 1282/16/4 1285/16/4
f 1285/16/4 1282/16/4 1286/16/4
f 1283/16/4 1284/16/4 1290/16/4
f 1286/16/4 1287/16/4 1292/16/4
f 1292/16/4 1287/16/4 1293/16/4
f 1293/16/4 1287/16/4 1294/16/4
f 1288/16/4 1289/16/4 1297/16/4
f 1297/16/4 1289/16/4 1298/16/4
f 1290/16/4 1291/16/4 1300/16/4
f 1283/16/4 1290/16/4 1300/16/4
f 1293/16/4 1294/16/4 1301/16/4
f 1294/16/4 1295/16/4 1301/16/4
f 1301/16/4 1295/16/4 1302/16/4
f 1295/11/4 1296/11/4 1303/11/4
f 1302/16/4 1295/16/4 1303/16/4
f 1298/16/4 1299/16/4 1304/16/4
f 1303/11/4 1296/11/4 1304/11/4
f 1297/16/4 1298/16/4 1304/16/4
f 1296/16/4 1297/16/4 1304/16/4
f 1304/16/4 1299/16/4 1305/16/4
f 1305/16/4 1299/16/4 1306/16/4
f 1299/11/4 1300/11/4 1307/11/4
f 1306/16/4 1299/16/4 1307/16/4
f 1300/16/4 1291/16/4 1308/16/4
f 1307/11/4 1300/11/4 1308/11/4
f 1308/16/4 1291/16/4 1309/16/4
f 1309/16/4 1291/16/4 1310/16/4
f 1301/11/4 1302/11/4 1311/11/4
f 1302/16/4 1303/16/4 1312/16/4
f 1311/11/4 1302/11/4 1312/11/4
f 1303/16/4 1304/16/4 1312/16/4
f 1304/16/4 1305/16/4 1312/16/4
f 1312/16/4 1305/16/4 1313/16/4
f 1305/13/4 1306/13/4 1314/13/4
f 1313/16/4 1305/16/4 1314/16/4
f 1306/16/4 1307/16/4 1315/16/4
f 1314/13/4 1306/13/4 1315/13/4
f 1308/16/4 1309/16/4 1315/16/4
f 1307/16/4 1308/16/4 1315/16/4
f 1315/16/4 1309/16/4 1316/16/4
f 1309/17/4 1310/17/4 1317/17/4
f 1316/16/4 1309/16/4 1317/16/4
f 1317/17/4 1310/17/4 1318/17/4
f 1312/11/4 1313/11/4 1319/11/4
f 1311/16/4 1312/16/4 1319/16/4
f 1313/2/4 1314/2/4 1320/2/4
f 1319/11/4 1313/11/4 1320/11/4
f 1315/2/4 1316/2/4 1320/2/4
f 1314/2/4 1315/2/4 1320/2/4
f 1320/2/4 1316/2/4 1321/2/4
f 1321/2/4 1316/2/4 1322/2/4
f 1322/2/4 1316/2/4 1323/2/4
f 1323/2/4 1316/2/4 1324/2/4
f 1316/16/4 1317/16/4 1325/16/4
f 1324/2/4 1316/2/4 1325/2/4
f 1317/16/4 1318/16/4 1325/16/4
f 1325/16/4 1318/16/4 1326/16/4
f 1326/16/4 1318/16/4 1327/16/4
f 1327/16/4 1318/16/4 1328/16/4
f 1311/16/4 1319/16/4 1329/16/4
f 1319/16/4 1320/16/4 1329/16/4
f 1320/16/4 1321/16/4 1329/16/4
f 1329/16/4 1321/16/4 1330/16/4
f 1321/11/4 1322/11/4 1331/11/4
f 1330/16/4 1321/16/4 1331/16/4
f 1322/16/4 1323/16/4 1332/16/4
f 1331/11/4 1322/11/4 1332/11/4
f 1325/16/4 1326/16/4 1333/16/4
f 1324/16/4 1325/16/4 1333/16/4
f 1326/17/4 1327/17/4 1334/17/4
f 1333/16/4 1326/16/4 1334/16/4
f 1334/17/4 1327/17/4 1335/17/4
f 1329/17/4 1330/17/4 1336/17/4
f 1311/16/4 1329/16/4 1336/16/4
f 1330/16/4 1331/16/4 1337/16/4
f 1336/17/4 1330/17/4 1337/17/4
f 1331/16/4 1332/16/4 1337/16/4
f 1324/16/4 1333/16/4 1338/16/4
f 1311/16/4 1336/16/4 1341/16/4
f 1336/13/4 1337/13/4 1341/13/4
f 1337/16/4 1332/16/4 1342/16/4
f 1341/13/4 1337/13/4 1342/13/4
f 1323/2/4 1324/2/4 1343/2/4
f 1342/16/4 1332/16/4 1343/16/4
f 1332/16/4 1323/16/4 1343/16/4
f 1324/16/4 1338/16/4 1344/16/4
f 1343/2/4 1324/2/4 1344/2/4
f 1338/16/4 1339/16/4 1344/16/4
f 1344/16/4 1339/16/4 1345/16/4
f 1339/17/4 1340/17/4 1346/17/4
f 1345/16/4 1339/16/4 1346/16/4
f 1346/17/4 1340/17/4 1347/17/4
f 1341/16/4 1342/16/4 1349/16/4
f 1344/2/4 1345/2/4 1349/2/4
f 1342/2/4 1343/2/4 1349/2/4
f 1343/2/4 1344/2/4 1349/2/4
f 1349/2/4 1345/2/4 1350/2/4
f 1347/16/4 1348/16/4 1351/16/4
f 1350/2/4 1345/2/4 1351/2/4
f 1345/16/4 1346/16/4 1351/16/4
f 1346/16/4 1347/16/4 1351/16/4
f 1351/16/4 1348/16/4 1352/16/4
f 1352/16/4 1348/16/4 1353/16/4
f 1349/16/4 1350/16/4 1354/16/4
f 1341/16/4 1349/16/4 1354/16/4
f 1311/16/4 1341/16/4 1354/16/4
f 1354/16/4 1350/16/4 1355/16/4
f 1355/16/4 1350/16/4 1356/16/4
f 1351/13/4 1352/13/4 1357/13/4
f 1356/16/4 1350/16/4 1357/16/4
f 1350/13/4 1351/13/4 1357/13/4
f 1352/11/4 1353/11/4 1358/11/4
f 1357/13/4 1352/13/4 1358/13/4
f 1353/16/4 1348/16/4 1359/16/4
f 1358/11/4 1353/11/4 1359/11/4
f 1359/16/4 1348/16/4 1360/16/4
f 1360/16/4 1348/16/4 1361/16/4
f 1311/16/4 1354/16/4 1363/16/4
f 1354/13/4 1355/13/4 1364/13/4
f 1363/16/4 1354/16/4 1364/16/4
f 1355/16/4 1356/16/4 1365/16/4
f 1364/13/4 1355/13/4 1365/13/4
f 1357/13/4 1358/13/4 1366/13/4
f 1365/16/4 1356/16/4 1366/16/4
f 1356/13/4 1357/13/4 1366/13/4
f 1366/13/4 1358/13/4 1367/13/4
f 1367/13/4 1358/13/4 1368/13/4
f 1358/16/4 1359/16/4 1369/16/4
f 1368/13/4 1358/13/4 1369/13/4
f 1359/16/4 1360/16/4 1369/16/4
f 1360/13/4 1361/13/4 1370/13/4
f 1369/16/4 1360/16/4 1370/16/4
f 1370/13/4 1361/13/4 1371/13/4
f 1363/16/4 1364/16/4 1374/16/4
f 1362/16/4 1363/16/4 1374/16/4
f 1374/16/4 1364/16/4 1375/16/4
f 1367/13/4 1368/13/4 1376/13/4
f 1376/13/4 1368/13/4 1377/13/4
f 1369/16/4 1370/16/4 1378/16/4
f 1377/13/4 1368/13/4 1378/13/4
f 1370/16/4 1371/16/4 1378/16/4
f 1368/16/4 1369/16/4 1378/16/4
f 1378/16/4 1371/16/4 1379/16/4
f 1379/16/4 1371/16/4 1380/16/4
f 1380/16/4 1371/16/4 1381/16/4
f 1381/16/4 1371/16/4 1382/16/4
f 1372/16/4 1373/16/4 1383/16/4
f 1373/16/4 1374/16/4 1383/16/4
f 1383/16/4 1374/16/4 1384/16/4
f 1378/16/4 1379/16/4 1385/16/4
f 1377/16/4 1378/16/4 1385/16/4
f 1379/11/4 1380/11/4 1386/11/4
f 1385/16/4 1379/16/4 1386/16/4
f 1386/11/4 1380/11/4 1387/11/4
f 1381/13/4 1382/13/4 1388/13/4
f 1388/13/4 1382/13/4 1389/13/4
f 1391/16/4 1392/16/4 1395/16/4
f 1392/17/4 1393/17/4 1395/17/4
f 1393/16/4 1394/16/4 1396/16/4
f 1395/17/4 1393/17/4 1396/17/4
f 1396/16/4 1394/16/4 1397/16/4
f 1395/16/4 1396/16/4 1399/16/4
f 1397/16/4 1398/16/4 1399/16/4
f 1396/16/4 1397/16/4 1399/16/4
f 1399/16/4 1398/16/4 1400/16/4
f 1400/16/4 1398/16/4 1401/16/4
f 1395/16/4 1399/16/4 1403/16/4
f 1399/11/4 1400/11/4 1403/11/4
f 1400/13/4 1401/13/4 1404/13/4
f 1403/11/4 1400/11/4 1404/11/4
f 1401/16/4 1402/16/4 1405/16/4
f 1404/13/4 1401/13/4 1405/13/4
f 1405/16/4 1402/16/4 1406/16/4
f 1403/16/4 1404/16/4 1407/16/4
f 1404/16/4 1405/16/4 1407/16/4
f 1405/13/4 1406/13/4 1407/13/4
f 1407/13/4 1406/13/4 1408/13/4
f 1390/17/4 1391/17/4 1409/17/4
f 1391/16/4 1395/16/4 1409/16/4
f 1407/16/4 1408/16/4 1409/16/4
f 1403/16/4 1407/16/4 1409/16/4
f 1395/16/4 1403/16/4 1409/16/4
f 1409/16/4 1408/16/4 1410/16/4
f 1410/16/4 1408/16/4 1411/16/4
f 1411/16/4 1408/16/4 1412/16/4
f 1412/16/4 1408/16/4 1413/16/4
f 1390/17/4 1409/17/4 1414/17/4
f 1409/17/4 1410/17/4 1414/17/4
f 1410/16/4 1411/16/4 1415/16/4
f 1414/17/4 1410/17/4 1415/17/4
f 1411/11/4 1412/11/4 1416/11/4
f 1415/16/4 1411/16/4 1416/16/4
f 1412/13/4 1413/13/4 1417/13/4
f 1416/11/4 1412/11/4 1417/11/4
f 1415/16/4 1416/16/4 1418/16/4
f 1417/13/4 1413/13/4 1418/13/4
f 1416/16/4 1417/16/4 1418/16/4
f 1414/16/4 1415/16/4 1418/16/4
f 1413/16/4 1408/16/4 1419/16/4
f 1418/13/4 1413/13/4 1419/13/4
f 1414/16/4 1418/16/4 1420/16/4
f 1418/16/4 1419/16/4 1420/16/4
f 1420/16/4 1419/16/4 1421/16/4
f 1419/16/4 1408/16/4 1422/16/4
f 1421/16/4 1419/16/4 1422/16/4
f 1420/13/4 1421/13/4 1423/13/4
f 1421/11/4 1422/11/4 1423/11/4
f 1422/16/4 1408/16/4 1424/16/4
f 1423/11/4 1422/11/4 1424/11/4
f 1414/16/4 1420/16/4 1425/16/4
f 1425/16/4 1420/16/4 1426/16/4
f 1420/13/4 1423/13/4 1427/13/4
f 1426/16/4 1420/16/4 1427/16/4
f 1423/16/4 1424/16/4 1428/16/4
f 1427/13/4 1423/13/4 1428/13/4
f 1425/17/4 1426/17/4 1429/17/4
f 1414/16/4 1425/16/4 1429/16/4
f 1426/16/4 1427/16/4 1430/16/4
f 1429/17/4 1426/17/4 1430/17/4
f 1427/16/4 1428/16/4 1430/16/4
f 1428/16/4 1424/16/4 1431/16/4
f 1430/16/4 1428/16/4 1431/16/4
f 1424/16/4 1408/16/4 1432/16/4
f 1431/16/4 1424/16/4 1432/16/4
f 1432/16/4 1408/16/4 1433/16/4
f 1429/16/4 1430/16/4 1434/16/4
f 1430/16/4 1431/16/4 1434/16/4
f 1431/17/4 1432/17/4 1435/17/4
f 1434/16/4 1431/16/4 1435/16/4
f 1435/17/4 1432/17/4 1436/17/4
f 1390/17/4 1414/17/4 1437/17/4
f 1429/16/4 1434/16/4 1438/16/4
f 1437/17/4 1414/17/4 1438/17/4
f 1414/16/4 1429/16/4 1438/16/4
f 1438/16/4 1434/16/4 1439/16/4
f 1445/17/5 1441/17/5 1440/17/5
f 1446/17/5 1441/17/5 1445/17/5
f 1447/17/5 1443/17/5 1442/17/5
f 1448/17/5 1443/17/5 1447/17/5
f 1451/17/5 1445/17/5 1444/17/5
f 1452/17/5 1449/17/5 1448/17/5
f 1454/17/5 1451/17/5 1450/17/5
f 1454/17/5 1445/17/5 1451/17/5
f 1455/17/5 1445/17/5 1454/17/5
f 1456/17/5 1453/17/5 1452/17/5
f 1456/17/5 1452/17/5 1448/17/5
f 1457/17/5 1453/17/5 1456/17/5
f 1458/17/5 1454/17/5 1450/17/5
f 1459/17/5 1453/17/5 1457/17/5
f 1460/17/5 1458/17/5 1450/17/5
f 1460/17/5 1459/17/5 1458/17/5
f 1461/17/5 1453/17/5 1459/17/5
f 1461/17/5 1459/17/5 1460/17/5
f 1470/6/5 1463/6/5 1462/6/5
f 1471/5/5 1464/5/5 1463/5/5
f 1471/6/5 1463/6/5 1470/6/5
f 1472/6/5 1465/6/5 1464/6/5
f 1472/5/5 1464/5/5 1471/5/5
f 1473/5/5 1466/5/5 1465/5/5
f 1473/6/5 1465/6/5 1472/6/5
f 1474/6/5 1467/6/5 1466/6/5
f 1474/5/5 1466/5/5 1473/5/5
f 1475/6/5 1467/6/5 1474/6/5
f 1478/5/5 1471/5/5 1470/5/5
f 1479/7/5 1472/7/5 1471/7/5
f 1479/5/5 1471/5/5 1478/5/5
f 1480/5/5 1473/5/5 1472/5/5
f 1480/7/5 1472/7/5 1479/7/5
f 1481/7/5 1474/7/5 1473/7/5
f 1481/5/5 1473/5/5 1480/5/5
f 1482/5/5 1475/5/5 1474/5/5
f 1482/7/5 1474/7/5 1481/7/5
f 1483/5/5 1475/5/5 1482/5/5
f 1484/16/5 1477/16/5 1476/16/5
f 1485/6/5 1479/6/5 1478/6/5
f 1486/5/5 1480/5/5 1479/5/5
f 1486/6/5 1479/6/5 1485/6/5
f 1487/6/5 1481/6/5 1480/6/5
f 1487/5/5 1480/5/5 1486/5/5
f 1488/5/5 1482/5/5 1481/5/5
f 1488/6/5 1481/6/5 1487/6/5
f 1489/6/5 1483/6/5 1482/6/5
f 1489/5/5 1482/5/5 1488/5/5
f 1490/6/5 1483/6/5 1489/6/5
f 1491/16/5 1484/16/5 1476/16/5
f 1492/16/5 1469/16/5 1468/16/5
f 1493/16/5 1469/16/5 1492/16/5
f 1494/16/5 1491/16/5 1476/16/5
f 1495/16/5 1491/16/5 1494/16/5
f 1500/6/5 1497/6/5 1496/6/5
f 1501/6/5 1497/6/5 1500/6/5
f 1502/6/5 1499/6/5 1498/6/5
f 1503/6/5 1499/6/5 1502/6/5
f 1504/5/5 1501/5/5 1500/5/5
f 1505/5/5 1501/5/5 1504/5/5
f 1506/5/5 1503/5/5 1502/5/5
f 1507/6/5 1505/6/5 1504/6/5
f 1508/6/5 1505/6/5 1507/6/5
f 1511/5/5 1503/5/5 1506/5/5
f 1512/5/5 1503/5/5 1511/5/5
f 1513/16/5 1510/16/5 1509/16/5
f 1513/16/5 1508/16/5 1507/16/5
f 1513/16/5 1512/16/5 1511/16/5
f 1513/16/5 1511/16/5 1510/16/5
f 1513/16/5 1509/16/5 1508/16/5
f 1514/16/5 1512/16/5 1513/16/5
f 1515/16/5 1512/16/5 1514/16/5
f 1516/16/5 1512/16/5 1515/16/5
f 1517/16/5 1512/16/5 1516/16/5
f 1518/16/5 1512/16/5 1517/16/5
f 1519/16/5 1512/16/5 1518/16/5
f 1524/3/5 1521/3/5 1520/3/5
f 1525/3/5 1521/3/5 1524/3/5
f 1526/3/5 1523/3/5 1522/3/5
f 1527/3/5 1523/3/5 1526/3/5
f 1533/5/5 1529/5/5 1528/5/5
f 1534/5/5 1529/5/5 1533/5/5
f 1537/5/5 1531/5/5 1530/5/5
f 1538/5/5 1531/5/5 1537/5/5
f 1540/5/5 1533/5/5 1532/5/5
f 1541/5/5 1533/5/5 1540/5/5
f 1542/5/5 1535/5/5 1534/5/5
f 1543/5/5 1535/5/5 1542/5/5
f 1544/5/5 1537/5/5 1536/5/5
f 1545/5/5 1537/5/5 1544/5/5
f 1546/5/5 1539/5/5 1538/5/5
f 1547/5/5 1539/5/5 1546/5/5
f 1554/5/5 1549/5/5 1548/5/5
f 1555/5/5 1549/5/5 1554/5/5
f 1556/5/5 1551/5/5 1550/5/5
f 1557/5/5 1551/5/5 1556/5/5
f 1560/5/5 1553/5/5 1552/5/5
f 1561/5/5 1553/5/5 1560/5/5
f 1562/3/5 1556/3/5 1555/3/5
f 1563/3/5 1556/3/5 1562/3/5
f 1564/5/5 1559/5/5 1558/5/5
f 1565/5/5 1559/5/5 1564/5/5
f 1568/16/5 1567/16/5 1566/16/5
f 1569/16/5 1567/16/5 1568/16/5
f 1574/16/5 1571/16/5 1570/16/5
f 1575/16/5 1571/16/5 1574/16/5
f 1576/13/5 1573/13/5 1572/13/5
f 1577/13/5 1573/13/5 1576/13/5
f 1584/10/5 1579/10/5 1578/10/5
f 1585/10/5 1579/10/5 1584/10/5
f 1586/16/5 1581/16/5 1580/16/5
f 1587/16/5 1581/16/5 1586/16/5
f 1588/16/5 1583/16/5 1582/16/5
f 1589/16/5 1583/16/5 1588/16/5
f 1594/16/5 1591/16/5 1590/16/5
f 1595/16/5 1591/16/5 1594/16/5
f 1596/16/5 1593/16/5 1592/16/5
f 1597/16/5 1593/16/5 1596/16/5
f 1598/16/5 1593/16/5 1597/16/5
f 1603/15/5 1600/15/5 1599/15/5
f 1604/15/5 1600/15/5 1603/15/5
f 1607/16/5 1602/16/5 1601/16/5
f 1608/16/5 1602/16/5 1607/16/5
f 1610/16/5 1609/16/5 1608/16/5
f 1611/16/5 1609/16/5 1610/16/5
f 1612/16/5 1606/16/5 1605/16/5
f 1613/16/5 1606/16/5 1612/16/5
f 1616/16/5 1615/16/5 1614/16/5
f 1617/16/5 1615/16/5 1616/16/5
f 1620/16/5 1619/16/5 1618/16/5
f 1621/16/5 1619/16/5 1620/16/5
f 1624/16/5 1623/16/5 1622/16/5
f 1625/16/5 1623/16/5 1624/16/5
f 1628/16/5 1627/16/5 1626/16/5
f 1629/16/5 1627/16/5 1628/16/5
f 1640/16/5 1631/16/5 1630/16/5
f 1641/9/5 1632/9/5 1631/9/5
f 1641/16/5 1631/16/5 1640/16/5
f 1642/9/5 1632/9/5 1641/9/5
f 1643/9/5 1634/9/5 1633/9/5
f 1644/16/5 1635/16/5 1634/16/5
f 1644/9/5 1634/9/5 1643/9/5
f 1645/16/5 1635/16/5 1644/16/5
f 1646/10/5 1637/10/5 1636/10/5
f 1647/10/5 1637/10/5 1646/10/5
f 1649/16/5 1639/16/5 1638/16/5
f 1650/16/5 1639/16/5 1649/16/5
f 1651/16/5 1648/16/5 1647/16/5
f 1652/16/5 1648/16/5 1651/16/5
f 1655/13/5 1654/13/5 1653/13/5
f 1656/13/5 1654/13/5 1655/13/5
f 1659/17/5 1658/17/5 1657/17/5
f 1660/17/5 1658/17/5 1659/17/5
f 1661/16/6 1662/16/6 1665/16/6
f 1665/16/6 1662/16/6 1666/16/6
f 1663/16/6 1664/16/6 1667/16/6
f 1667/16/6 1664/16/6 1668/16/6
f 1669/16/6 1670/16/6 1673/16/6
f 1673/16/6 1670/16/6 1674/16/6
f 1671/16/6 1672/16/6 1675/16/6
f 1675/16/6 1672/16/6 1676/16/6
f 1677/16/6 1678/16/6 1681/16/6
f 1681/16/6 1678/16/6 1682/16/6
f 1679/16/6 1680/16/6 1683/16/6
f 1683/16/6 1680/16/6 1684/16/6
f 1685/16/6 1686/16/6 1689/16/6
f 1689/16/6 1686/16/6 1690/16/6
f 1687/16/6 1688/16/6 1693/16/6
f 1693/16/6 1688/16/6 1694/16/6
f 1690/16/6 1691/16/6 1695/16/6
f 1695/16/6 1691/16/6 1696/16/6
f 1692/17/6 1693/17/6 1697/17/6
f 1697/17/6 1693/17/6 1698/17/6
f 1699/16/6 1700/16/6 1703/16/6
f 1699/16/6 1703/16/6 1704/16/6
f 1704/16/6 1703/16/6 1705/16/6
f 1701/16/6 1702/16/6 1706/16/6
f 1706/16/6 1702/16/6 1707/16/6
f 1708/16/6 1709/16/6 1712/16/6
f 1709/13/6 1710/13/6 1713/13/6
f 1712/16/6 1709/16/6 1713/16/6
f 1710/16/6 1711/16/6 1714/16/6
f 1713/13/6 1710/13/6 1714/13/6
f 1714/16/6 1711/16/6 1715/16/6
f 1716/16/6 1717/16/6 1720/16/6
f 1720/16/6 1717/16/6 1721/16/6
f 1718/16/6 1719/16/6 1722/16/6
f 1722/16/6 1719/16/6 1723/16/6
f 1724/16/6 1725/16/6 1734/16/6
f 1725/17/6 1726/17/6 1735/17/6
f 1734/16/6 1725/16/6 1735/16/6
f 1735/17/6 1726/17/6 1736/17/6
f 1727/5/6 1728/5/6 1737/5/6
f 1737/5/6 1728/5/6 1738/5/6
f 1729/5/6 1730/5/6 1739/5/6
f 1739/5/6 1730/5/6 1740/5/6
f 1731/17/6 1732/17/6 1741/17/6
f 1741/17/6 1732/17/6 1742/17/6
f 1742/17/6 1732/17/6 1743/17/6
f 1733/17/6 1734/17/6 1745/17/6
f 1745/17/6 1734/17/6 1746/17/6
f 1738/3/6 1739/3/6 1747/3/6
f 1747/3/6 1739/3/6 1748/3/6
f 1743/16/6 1744/16/6 1749/16/6
f 1749/16/6 1744/16/6 1750/16/6
f 1751/5/6 1752/5/6 1755/5/6
f 1755/5/6 1752/5/6 1756/5/6
f 1753/5/6 1754/5/6 1759/5/6
f 1759/5/6 1754/5/6 1760/5/6
f 1756/5/6 1757/5/6 1761/5/6
f 1761/5/6 1757/5/6 1762/5/6
f 1758/5/6 1759/5/6 1763/5/6
f 1763/5/6 1759/5/6 1764/5/6
f 1765/16/6 1766/16/6 1767/16/6
f 1767/16/6 1766/16/6 1768/16/6
f 1768/5/6 1769/5/6 1772/5/6
f 1772/5/6 1769/5/6 1773/5/6
f 1770/5/6 1771/5/6 1774/5/6
f 1774/5/6 1771/5/6 1775/5/6
f 1776/16/6 1777/16/6 1778/16/6
f 1778/16/6 1777/16/6 1779/16/6
f 1779/16/6 1777/16/6 1780/16/6
f 1781/16/6 1782/16/6 1783/16/6
f 1783/16/6 1782/16/6 1784/16/6
f 1785/16/6 1786/16/6 1787/16/6
f 1787/16/6 1786/16/6 1788/16/6
f 1789/16/6 1790/16/6 1791/16/6
f 1791/16/6 1790/16/6 1792/16/6
f 1793/16/6 1794/16/6 1799/16/6
f 1799/16/6 1794/16/6 1800/16/6
f 1800/16/6 1794/16/6 1801/16/6
f 1795/16/6 1796/16/6 1802/16/6
f 1802/16/6 1796/16/6 1803/16/6
f 1803/16/6 1796/16/6 1804/16/6
f 1797/16/6 1798/16/6 1807/16/6
f 1807/16/6 1798/16/6 1808/16/6
f 1805/16/6 1806/16/6 1809/16/6
f 1809/16/6 1806/16/6 1810/16/6
f 1811/11/6 1812/11/6 1813/11/6
f 1813/11/6 1812/11/6 1814/11/6
f 1815/16/6 1816/16/6 1821/16/6
f 1821/16/6 1816/16/6 1822/16/6
f 1817/17/6 1818/17/6 1823/17/6
f 1823/17/6 1818/17/6 1824/17/6
f 1819/17/6 1820/17/6 1825/17/6
f 1825/17/6 1820/17/6 1826/17/6
f 1827/10/6 1828/10/6 1829/10/6
f 1829/10/6 1828/10/6 1830/10/6
f 1831/10/6 1832/10/6 1834/10/6
f 1832/16/6 1833/16/6 1835/16/6
f 1834/10/6 1832/10/6 1835/10/6
f 1835/16/6 1833/16/6 1836/16/6
f 1837/10/6 1838/10/6 1840/10/6
f 1840/10/6 1838/10/6 1841/10/6
f 1839/11/6 1840/11/6 1844/11/6
f 1844/11/6 1840/11/6 1845/11/6
f 1842/16/6 1843/16/6 1853/16/6
f 1853/16/6 1843/16/6 1854/16/6
f 1845/16/6 1846/16/6 1855/16/6
f 1846/17/6 1847/17/6 1856/17/6
f 1855/16/6 1846/16/6 1856/16/6
f 1847/16/6 1848/16/6 1857/16/6
f 1856/17/6 1847/17/6 1857/17/6
f 1857/16/6 1848/16/6 1858/16/6
f 1849/16/6 1850/16/6 1859/16/6
f 1850/16/6 1851/16/6 1859/16/6
f 1851/13/6 1852/13/6 1860/13/6
f 1859/16/6 1851/16/6 1860/16/6
f 1852/16/6 1853/16/6 1861/16/6
f 1860/13/6 1852/13/6 1861/13/6
f 1853/13/6 1854/13/6 1862/13/6
f 1861/16/6 1853/16/6 1862/16/6
f 1862/13/6 1854/13/6 1863/13/6
f 1864/10/6 1865/10/6 1869/10/6
f 1869/10/6 1865/10/6 1870/10/6
f 1866/10/6 1867/10/6 1871/10/6
f 1871/10/6 1867/10/6 1872/10/6
f 1868/10/6 1869/10/6 1874/10/6
f 1872/16/6 1873/16/6 1876/16/6
f 1871/16/6 1872/16/6 1876/16/6
f 1876/16/6 1873/16/6 1877/16/6
f 1871/16/6 1876/16/6 1879/16/6
f 1879/16/6 1876/16/6 1880/16/6
f 1877/10/6 1878/10/6 1881/10/6
f 1881/10/6 1878/10/6 1882/10/6
f 1868/10/6 1874/10/6 1883/10/6
f 1874/16/6 1875/16/6 1884/16/6
f 1883/10/6 1874/10/6 1884/10/6
f 1884/16/6 1875/16/6 1885/16/6
f 1885/16/6 1875/16/6 1886/16/6
f 1881/16/6 1882/16/6 1887/16/6
f 1880/16/6 1881/16/6 1887/16/6
f 1887/16/6 1882/16/6 1888/16/6
f 1884/16/6 1885/16/6 1889/16/6
f 1883/16/6 1884/16/6 1889/16/6
f 1889/16/6 1885/16/6 1890/16/6
f 1891/10/6 1892/10/6 1893/10/6
f 1893/10/6 1892/10/6 1894/10/6
f 1894/10/6 1895/10/6 1898/10/6
f 1898/10/6 1895/10/6 1899/10/6
f 1899/10/6 1900/10/6 1901/10/6
f 1896/10/6 1897/10/6 1904/10/6
f 1901/10/6 1902/10/6 1905/10/6
f 1899/10/6 1901/10/6 1905/10/6
f 1905/10/6 1902/10/6 1906/10/6
f 1903/10/6 1904/10/6 1907/10/6
f 1904/10/6 1897/10/6 1908/10/6
f 1907/10/6 1904/10/6 1908/10/6
f 1909/10/6 1910/10/6 1914/10/6
f 1914/10/6 1910/10/6 1915/10/6
f 1911/10/6 1912/10/6 1916/10/6
f 1916/10/6 1912/10/6 1917/10/6
f 1913/10/6 1914/10/6 1919/10/6
f 1919/10/6 1914/10/6 1920/10/6
f 1917/10/6 1918/10/6 1921/10/6
f 1921/10/6 1918/10/6 1922/10/6
f 1922/10/6 1923/10/6 1926/10/6
f 1926/10/6 1923/10/6 1927/10/6
f 1924/10/6 1925/10/6 1928/10/6
f 1928/10/6 1925/10/6 1929/10/6
f 1930/10/6 1931/10/6 1932/10/6
f 1932/10/6 1931/10/6 1933/10/6
f 1936/17/6 1937/17/6 1938/17/6
f 1938/17/6 1937/17/6 1939/17/6
f 1934/17/6 1935/17/6 1940/17/6
f 1940/17/6 1935/17/6 1941/17/6
f 1942/17/6 1943/17/6 1946/17/6
f 1946/17/6 1943/17/6 1947/17/6
f 1944/17/6 1945/17/6 1948/17/6
f 1948/17/6 1945/17/6 1949/17/6
f 1947/16/6 1948/16/6 1950/16/6
f 1950/16/6 1948/16/6 1951/16/6
f 1952/16/6 1953/16/6 1954/16/6
f 1954/16/6 1953/16/6 1955/16/6
f 1956/16/6 1957/16/6 1958/16/6
f 1958/16/6 1957/16/6 1959/16/6
f 1960/16/6 1961/16/6 1964/16/6
f 1964/16/6 1961/16/6 1965/16/6
f 1962/17/6 1963/17/6 1966/17/6
f 1966/17/6 1963/17/6 1967/17/6
f 1968/16/6 1969/16/6 1972/16/6
f 1972/16/6 1969/16/6 1973/16/6
f 1970/16/6 1971/16/6 1976/16/6
f 1976/16/6 1971/16/6 1977/16/6
f 1974/16/6 1975/16/6 1978/16/6
f 1975/16/6 1976/16/6 1978/16/6
f 1973/16/6 1974/16/6 1978/16/6
f 1978/16/6 1976/16/6 1979/16/6
f 1980/16/6 1981/16/6 1982/16/6
f 1982/16/6 1981/16/6 1983/16/6
f 1980/16/6 1982/16/6 1984/16/6
f 1982/17/6 1983/17/6 1985/17/6
f 1984/16/6 1982/16/6 1985/16/6
f 1983/16/6 1981/16/6 1986/16/6
f 1985/17/6 1983/17/6 1986/17/6
f 1986/16/6 1981/16/6 1987/16/6
